  0
SECTION
  2
HEADER
  9
$ACADVER
  1
AC1027
  9
$ACADMAINTVER
 70
105
  9
$DWGCODEPAGE
  3
ANSI_1252
  9
$LASTSAVEDBY
  1
ezdxf
  9
$REQUIREDVERSIONS
160
0
  9
$INSBASE
 10
0.0
 20
0.0
 30
0.0
  9
$EXTMIN
 10
1e+20
 20
1e+20
 30
1e+20
  9
$EXTMAX
 10
-1e+20
 20
-1e+20
 30
-1e+20
  9
$LIMMIN
 10
0.0
 20
0.0
  9
$LIMMAX
 10
420.0
 20
297.0
  9
$ORTHOMODE
 70
0
  9
$REGENMODE
 70
1
  9
$FILLMODE
 70
1
  9
$QTEXTMODE
 70
0
  9
$MIRRTEXT
 70
1
  9
$LTSCALE
 40
1.0
  9
$ATTMODE
 70
1
  9
$TEXTSIZE
 40
2.5
  9
$TRACEWID
 40
1.0
  9
$TEXTSTYLE
  7
Standard
  9
$CLAYER
  8
0
  9
$CELTYPE
  6
ByLayer
  9
$CECOLOR
 62
256
  9
$CELTSCALE
 40
1.0
  9
$DISPSILH
 70
0
  9
$DIMSCALE
 40
1.0
  9
$DIMASZ
 40
2.5
  9
$DIMEXO
 40
0.625
  9
$DIMDLI
 40
3.75
  9
$DIMRND
 40
0.0
  9
$DIMDLE
 40
0.0
  9
$DIMEXE
 40
1.25
  9
$DIMTP
 40
0.0
  9
$DIMTM
 40
0.0
  9
$DIMTXT
 40
2.5
  9
$DIMCEN
 40
2.5
  9
$DIMTSZ
 40
0.0
  9
$DIMTOL
 70
0
  9
$DIMLIM
 70
0
  9
$DIMTIH
 70
0
  9
$DIMTOH
 70
0
  9
$DIMSE1
 70
0
  9
$DIMSE2
 70
0
  9
$DIMTAD
 70
1
  9
$DIMZIN
 70
8
  9
$DIMBLK
  1

  9
$DIMASO
 70
1
  9
$DIMSHO
 70
1
  9
$DIMPOST
  1

  9
$DIMAPOST
  1

  9
$DIMALT
 70
0
  9
$DIMALTD
 70
3
  9
$DIMALTF
 40
0.03937007874
  9
$DIMLFAC
 40
1.0
  9
$DIMTOFL
 70
1
  9
$DIMTVP
 40
0.0
  9
$DIMTIX
 70
0
  9
$DIMSOXD
 70
0
  9
$DIMSAH
 70
0
  9
$DIMBLK1
  1

  9
$DIMBLK2
  1

  9
$DIMSTYLE
  2
ISO-25
  9
$DIMCLRD
 70
0
  9
$DIMCLRE
 70
0
  9
$DIMCLRT
 70
0
  9
$DIMTFAC
 40
1.0
  9
$DIMGAP
 40
0.625
  9
$DIMJUST
 70
0
  9
$DIMSD1
 70
0
  9
$DIMSD2
 70
0
  9
$DIMTOLJ
 70
0
  9
$DIMTZIN
 70
8
  9
$DIMALTZ
 70
0
  9
$DIMALTTZ
 70
0
  9
$DIMUPT
 70
0
  9
$DIMDEC
 70
2
  9
$DIMTDEC
 70
2
  9
$DIMALTU
 70
2
  9
$DIMALTTD
 70
3
  9
$DIMTXSTY
  7
Standard
  9
$DIMAUNIT
 70
0
  9
$DIMADEC
 70
0
  9
$DIMALTRND
 40
0.0
  9
$DIMAZIN
 70
0
  9
$DIMDSEP
 70
44
  9
$DIMATFIT
 70
3
  9
$DIMFRAC
 70
0
  9
$DIMLDRBLK
  1

  9
$DIMLUNIT
 70
2
  9
$DIMLWD
 70
-2
  9
$DIMLWE
 70
-2
  9
$DIMTMOVE
 70
0
  9
$DIMFXL
 40
1.0
  9
$DIMFXLON
 70
0
  9
$DIMJOGANG
 40
0.785398163397
  9
$DIMTFILL
 70
0
  9
$DIMTFILLCLR
 70
0
  9
$DIMARCSYM
 70
0
  9
$DIMLTYPE
  6

  9
$DIMLTEX1
  6

  9
$DIMLTEX2
  6

  9
$DIMTXTDIRECTION
 70
0
  9
$LUNITS
 70
2
  9
$LUPREC
 70
4
  9
$SKETCHINC
 40
1.0
  9
$FILLETRAD
 40
10.0
  9
$AUNITS
 70
0
  9
$AUPREC
 70
2
  9
$MENU
  1
.
  9
$ELEVATION
 40
0.0
  9
$PELEVATION
 40
0.0
  9
$THICKNESS
 40
0.0
  9
$LIMCHECK
 70
0
  9
$CHAMFERA
 40
0.0
  9
$CHAMFERB
 40
0.0
  9
$CHAMFERC
 40
0.0
  9
$CHAMFERD
 40
0.0
  9
$SKPOLY
 70
0
  9
$TDCREATE
 40
2461299.568553241
  9
$TDUCREATE
 40
2458532.153996898
  9
$TDUPDATE
 40
2461299.568553241
  9
$TDUUPDATE
 40
2458532.1544311
  9
$TDINDWG
 40
0.0
  9
$TDUSRTIMER
 40
0.0
  9
$USRTIMER
 70
1
  9
$ANGBASE
 50
0.0
  9
$ANGDIR
 70
0
  9
$PDMODE
 70
0
  9
$PDSIZE
 40
0.0
  9
$PLINEWID
 40
0.0
  9
$SPLFRAME
 70
0
  9
$SPLINETYPE
 70
6
  9
$SPLINESEGS
 70
8
  9
$HANDSEED
  5
B6
  9
$SURFTAB1
 70
6
  9
$SURFTAB2
 70
6
  9
$SURFTYPE
 70
6
  9
$SURFU
 70
6
  9
$SURFV
 70
6
  9
$UCSBASE
  2

  9
$UCSNAME
  2

  9
$UCSORG
 10
0.0
 20
0.0
 30
0.0
  9
$UCSXDIR
 10
1.0
 20
0.0
 30
0.0
  9
$UCSYDIR
 10
0.0
 20
1.0
 30
0.0
  9
$UCSORTHOREF
  2

  9
$UCSORTHOVIEW
 70
0
  9
$UCSORGTOP
 10
0.0
 20
0.0
 30
0.0
  9
$UCSORGBOTTOM
 10
0.0
 20
0.0
 30
0.0
  9
$UCSORGLEFT
 10
0.0
 20
0.0
 30
0.0
  9
$UCSORGRIGHT
 10
0.0
 20
0.0
 30
0.0
  9
$UCSORGFRONT
 10
0.0
 20
0.0
 30
0.0
  9
$UCSORGBACK
 10
0.0
 20
0.0
 30
0.0
  9
$PUCSBASE
  2

  9
$PUCSNAME
  2

  9
$PUCSORG
 10
0.0
 20
0.0
 30
0.0
  9
$PUCSXDIR
 10
1.0
 20
0.0
 30
0.0
  9
$PUCSYDIR
 10
0.0
 20
1.0
 30
0.0
  9
$PUCSORTHOREF
  2

  9
$PUCSORTHOVIEW
 70
0
  9
$PUCSORGTOP
 10
0.0
 20
0.0
 30
0.0
  9
$PUCSORGBOTTOM
 10
0.0
 20
0.0
 30
0.0
  9
$PUCSORGLEFT
 10
0.0
 20
0.0
 30
0.0
  9
$PUCSORGRIGHT
 10
0.0
 20
0.0
 30
0.0
  9
$PUCSORGFRONT
 10
0.0
 20
0.0
 30
0.0
  9
$PUCSORGBACK
 10
0.0
 20
0.0
 30
0.0
  9
$USERI1
 70
0
  9
$USERI2
 70
0
  9
$USERI3
 70
0
  9
$USERI4
 70
0
  9
$USERI5
 70
0
  9
$USERR1
 40
0.0
  9
$USERR2
 40
0.0
  9
$USERR3
 40
0.0
  9
$USERR4
 40
0.0
  9
$USERR5
 40
0.0
  9
$WORLDVIEW
 70
1
  9
$SHADEDGE
 70
3
  9
$SHADEDIF
 70
70
  9
$TILEMODE
 70
1
  9
$MAXACTVP
 70
64
  9
$PINSBASE
 10
0.0
 20
0.0
 30
0.0
  9
$PLIMCHECK
 70
0
  9
$PEXTMIN
 10
1e+20
 20
1e+20
 30
1e+20
  9
$PEXTMAX
 10
-1e+20
 20
-1e+20
 30
-1e+20
  9
$PLIMMIN
 10
0.0
 20
0.0
  9
$PLIMMAX
 10
420.0
 20
297.0
  9
$UNITMODE
 70
0
  9
$VISRETAIN
 70
1
  9
$PLINEGEN
 70
0
  9
$PSLTSCALE
 70
1
  9
$TREEDEPTH
 70
3020
  9
$CMLSTYLE
  2
Standard
  9
$CMLJUST
 70
0
  9
$CMLSCALE
 40
20.0
  9
$PROXYGRAPHICS
 70
1
  9
$MEASUREMENT
 70
1
  9
$CELWEIGHT
370
-1
  9
$ENDCAPS
280
0
  9
$JOINSTYLE
280
0
  9
$LWDISPLAY
290
0
  9
$INSUNITS
 70
4
  9
$HYPERLINKBASE
  1

  9
$STYLESHEET
  1

  9
$XEDIT
290
1
  9
$CEPSNTYPE
380
0
  9
$PSTYLEMODE
290
1
  9
$FINGERPRINTGUID
  2
{66A35463-8034-42F1-817F-8C6545F8C819}
  9
$VERSIONGUID
  2
{62F18164-DB02-479A-AFD5-0A22B4886D51}
  9
$EXTNAMES
290
1
  9
$PSVPSCALE
 40
0.0
  9
$OLESTARTUP
290
0
  9
$SORTENTS
280
127
  9
$INDEXCTL
280
0
  9
$HIDETEXT
280
1
  9
$XCLIPFRAME
280
1
  9
$HALOGAP
280
0
  9
$OBSCOLOR
 70
257
  9
$OBSLTYPE
280
0
  9
$INTERSECTIONDISPLAY
280
0
  9
$INTERSECTIONCOLOR
 70
257
  9
$DIMASSOC
280
2
  9
$PROJECTNAME
  1

  9
$CAMERADISPLAY
290
0
  9
$LENSLENGTH
 40
50.0
  9
$CAMERAHEIGHT
 40
0.0
  9
$STEPSPERSEC
 40
24.0
  9
$STEPSIZE
 40
100.0
  9
$3DDWFPREC
 40
2.0
  9
$PSOLWIDTH
 40
0.005
  9
$PSOLHEIGHT
 40
0.08
  9
$LOFTANG1
 40
1.570796326795
  9
$LOFTANG2
 40
1.570796326795
  9
$LOFTMAG1
 40
0.0
  9
$LOFTMAG2
 40
0.0
  9
$LOFTPARAM
 70
7
  9
$LOFTNORMALS
280
1
  9
$LATITUDE
 40
37.795
  9
$LONGITUDE
 40
-122.394
  9
$NORTHDIRECTION
 40
0.0
  9
$TIMEZONE
 70
-8000
  9
$LIGHTGLYPHDISPLAY
280
1
  9
$TILEMODELIGHTSYNCH
280
1
  9
$CMATERIAL
347
20
  9
$SOLIDHIST
280
0
  9
$SHOWHIST
280
1
  9
$DWFFRAME
280
2
  9
$DGNFRAME
280
2
  9
$REALWORLDSCALE
290
1
  9
$INTERFERECOLOR
 62
256
  9
$CSHADOW
280
0
  9
$SHADOWPLANELOCATION
 40
0.0
  0
ENDSEC
  0
SECTION
  2
CLASSES
  0
CLASS
  1
ACDBDICTIONARYWDFLT
  2
AcDbDictionaryWithDefault
  3
ObjectDBX Classes
 90
0
 91
0
280
0
281
0
  0
CLASS
  1
SUN
  2
AcDbSun
  3
SCENEOE
 90
1153
 91
0
280
0
281
0
  0
CLASS
  1
VISUALSTYLE
  2
AcDbVisualStyle
  3
ObjectDBX Classes
 90
4095
 91
0
280
0
281
0
  0
CLASS
  1
MATERIAL
  2
AcDbMaterial
  3
ObjectDBX Classes
 90
1153
 91
0
280
0
281
0
  0
CLASS
  1
SCALE
  2
AcDbScale
  3
ObjectDBX Classes
 90
1153
 91
0
280
0
281
0
  0
CLASS
  1
TABLESTYLE
  2
AcDbTableStyle
  3
ObjectDBX Classes
 90
4095
 91
0
280
0
281
0
  0
CLASS
  1
MLEADERSTYLE
  2
AcDbMLeaderStyle
  3
ACDB_MLEADERSTYLE_CLASS
 90
4095
 91
0
280
0
281
0
  0
CLASS
  1
DICTIONARYVAR
  2
AcDbDictionaryVar
  3
ObjectDBX Classes
 90
0
 91
0
280
0
281
0
  0
CLASS
  1
CELLSTYLEMAP
  2
AcDbCellStyleMap
  3
ObjectDBX Classes
 90
1152
 91
0
280
0
281
0
  0
CLASS
  1
MENTALRAYRENDERSETTINGS
  2
AcDbMentalRayRenderSettings
  3
SCENEOE
 90
1024
 91
0
280
0
281
0
  0
CLASS
  1
ACDBDETAILVIEWSTYLE
  2
AcDbDetailViewStyle
  3
ObjectDBX Classes
 90
1025
 91
0
280
0
281
0
  0
CLASS
  1
ACDBSECTIONVIEWSTYLE
  2
AcDbSectionViewStyle
  3
ObjectDBX Classes
 90
1025
 91
0
280
0
281
0
  0
CLASS
  1
RASTERVARIABLES
  2
AcDbRasterVariables
  3
ISM
 90
0
 91
0
280
0
281
0
  0
CLASS
  1
ACDBPLACEHOLDER
  2
AcDbPlaceHolder
  3
ObjectDBX Classes
 90
0
 91
0
280
0
281
0
  0
CLASS
  1
LAYOUT
  2
AcDbLayout
  3
ObjectDBX Classes
 90
0
 91
0
280
0
281
0
  0
ENDSEC
  0
SECTION
  2
TABLES
  0
TABLE
  2
VPORT
  5
8
330
0
100
AcDbSymbolTable
 70
1
  0
VPORT
  5
B2
330
8
100
AcDbSymbolTableRecord
100
AcDbViewportTableRecord
  2
*Active
 70
0
 10
0.0
 20
0.0
 11
1.0
 21
1.0
 12
1.8189894035458565e-12
 22
-421.4117007116638
 13
0.0
 23
0.0
 14
0.5
 24
0.5
 15
0.5
 25
0.5
 16
0.0
 26
0.0
 36
1.0
 17
0.0
 27
0.0
 37
0.0
 40
9903.8143047101
 41
1.34
 42
50.0
 43
0.0
 44
0.0
 50
0.0
 51
0.0
 71
0
 72
1000
 73
1
 74
3
 75
0
 76
0
 77
0
 78
0
281
0
 65
1
110
0.0
120
0.0
130
0.0
111
1.0
121
0.0
131
0.0
112
0.0
122
1.0
132
0.0
 79
0
146
0.0
  0
ENDTAB
  0
TABLE
  2
LTYPE
  5
2
330
0
100
AcDbSymbolTable
 70
3
  0
LTYPE
  5
24
330
2
100
AcDbSymbolTableRecord
100
AcDbLinetypeTableRecord
  2
ByBlock
 70
0
  3

 72
65
 73
0
 40
0.0
  0
LTYPE
  5
25
330
2
100
AcDbSymbolTableRecord
100
AcDbLinetypeTableRecord
  2
ByLayer
 70
0
  3

 72
65
 73
0
 40
0.0
  0
LTYPE
  5
26
330
2
100
AcDbSymbolTableRecord
100
AcDbLinetypeTableRecord
  2
Continuous
 70
0
  3

 72
65
 73
0
 40
0.0
  0
ENDTAB
  0
TABLE
  2
LAYER
  5
1
330
0
100
AcDbSymbolTable
 70
3
  0
LAYER
  5
27
330
1
100
AcDbSymbolTableRecord
100
AcDbLayerTableRecord
  2
0
 70
0
 62
7
  6
Continuous
370
-3
390
13
347
21
  0
LAYER
  5
28
330
1
100
AcDbSymbolTableRecord
100
AcDbLayerTableRecord
  2
Defpoints
 70
0
 62
7
  6
Continuous
290
0
370
-3
390
13
347
21
  0
LAYER
  5
2F
330
1
100
AcDbSymbolTableRecord
100
AcDbLayerTableRecord
  2
visible
 70
0
 62
7
  6
Continuous
370
-3
390
13
347
21
  0
ENDTAB
  0
TABLE
  2
STYLE
  5
5
330
0
100
AcDbSymbolTable
 70
1
  0
STYLE
  5
29
330
5
100
AcDbSymbolTableRecord
100
AcDbTextStyleTableRecord
  2
Standard
 70
0
 40
0.0
 41
1.0
 50
0.0
 71
0
 42
2.5
  3
txt
  4

  0
ENDTAB
  0
TABLE
  2
VIEW
  5
7
330
0
100
AcDbSymbolTable
 70
0
  0
ENDTAB
  0
TABLE
  2
UCS
  5
6
330
0
100
AcDbSymbolTable
 70
0
  0
ENDTAB
  0
TABLE
  2
APPID
  5
3
330
0
100
AcDbSymbolTable
 70
3
  0
APPID
  5
2A
330
3
100
AcDbSymbolTableRecord
100
AcDbRegAppTableRecord
  2
ACAD
 70
0
  0
APPID
  5
B3
330
3
100
AcDbSymbolTableRecord
100
AcDbRegAppTableRecord
  2
HATCHBACKGROUNDCOLOR
 70
0
  0
APPID
  5
B4
330
3
100
AcDbSymbolTableRecord
100
AcDbRegAppTableRecord
  2
EZDXF
 70
0
  0
ENDTAB
  0
TABLE
  2
DIMSTYLE
  5
4
330
0
100
AcDbSymbolTable
 70
1
100
AcDbDimStyleTable
  0
DIMSTYLE
105
2B
330
4
100
AcDbSymbolTableRecord
100
AcDbDimStyleTableRecord
  2
Standard
 70
0
 40
1.0
 41
2.5
 42
0.625
 43
3.75
 44
1.25
 45
0.0
 46
0.0
 47
0.0
 48
0.0
 49
2.5
140
2.5
141
2.5
142
0.0
143
0.03937007874
144
1.0
145
0.0
146
1.0
147
0.625
148
0.0
 69
0
 70
0
 71
0
 72
0
 73
0
 74
0
 75
0
 76
0
 77
1
 78
8
 79
3
170
0
171
3
172
1
173
0
174
0
175
0
176
0
177
0
178
0
179
2
271
2
272
2
273
2
274
3
275
0
276
0
277
2
278
44
279
0
280
0
281
0
282
0
283
0
284
8
285
0
286
0
288
0
289
3
290
0
371
-2
372
-2
  0
ENDTAB
  0
TABLE
  2
BLOCK_RECORD
  5
9
330
0
100
AcDbSymbolTable
 70
2
  0
BLOCK_RECORD
  5
17
330
9
100
AcDbSymbolTableRecord
100
AcDbBlockTableRecord
  2
*Model_Space
340
1A
 70
0
280
1
281
0
  0
BLOCK_RECORD
  5
1B
330
9
100
AcDbSymbolTableRecord
100
AcDbBlockTableRecord
  2
*Paper_Space
340
1E
 70
0
280
1
281
0
  0
ENDTAB
  0
ENDSEC
  0
SECTION
  2
BLOCKS
  0
BLOCK
  5
18
330
17
100
AcDbEntity
  8
0
100
AcDbBlockBegin
  2
*Model_Space
 70
0
 10
0.0
 20
0.0
 30
0.0
  3
*Model_Space
  1

  0
ENDBLK
  5
19
330
17
100
AcDbEntity
  8
0
100
AcDbBlockEnd
  0
BLOCK
  5
1C
330
1B
100
AcDbEntity
  8
0
100
AcDbBlockBegin
  2
*Paper_Space
 70
0
 10
0.0
 20
0.0
 30
0.0
  3
*Paper_Space
  1

  0
ENDBLK
  5
1D
330
1B
100
AcDbEntity
  8
0
100
AcDbBlockEnd
  0
ENDSEC
  0
SECTION
  2
ENTITIES
  0
LINE
  5
30
330
17
100
AcDbEntity
  8
visible
100
AcDbLine
 10
1523.66245573762
 20
-5373.318853066714
 30
0.0
 11
1523.66245573762
 21
-5240.267890517041
 31
0.0
  0
LINE
  5
31
330
17
100
AcDbEntity
  8
visible
100
AcDbLine
 10
1523.66245573762
 20
-5240.267890517041
 30
0.0
 11
-5409.952816078446
 21
-1238.2103199714334
 31
0.0
  0
LINE
  5
32
330
17
100
AcDbEntity
  8
visible
100
AcDbLine
 10
-5409.952816078445
 20
-1371.2612825211063
 30
0.0
 11
-5409.952816078445
 21
-1238.2103199714334
 31
0.0
  0
LINE
  5
33
330
17
100
AcDbEntity
  8
visible
100
AcDbLine
 10
1523.66245573762
 20
-5373.318853066714
 30
0.0
 11
-5409.952816078446
 21
-1371.2612825211058
 31
0.0
  0
LINE
  5
34
330
17
100
AcDbEntity
  8
visible
100
AcDbLine
 10
5700.685891210278
 20
-3830.302682073305
 30
0.0
 11
5700.685891210278
 21
-3697.251719523632
 31
0.0
  0
LINE
  5
35
330
17
100
AcDbEntity
  8
visible
100
AcDbLine
 10
1523.66245573762
 20
-5373.318853066714
 30
0.0
 11
5700.685891210278
 21
-3830.302682073305
 31
0.0
  0
LINE
  5
36
330
17
100
AcDbEntity
  8
visible
100
AcDbLine
 10
1523.66245573762
 20
-5240.267890517041
 30
0.0
 11
5700.685891210278
 21
-3697.2517195236323
 31
0.0
  0
LINE
  5
37
330
17
100
AcDbEntity
  8
visible
100
AcDbLine
 10
5700.998238734055
 20
-3697.1363365750794
 30
0.0
 11
5700.998238734055
 21
-858.7158021820574
 31
0.0
  0
LINE
  5
38
330
17
100
AcDbEntity
  8
visible
100
AcDbLine
 10
5700.998238734055
 20
-858.7158021820578
 30
0.0
 11
-1232.6170330820105
 21
3143.3417683635503
 31
0.0
  0
LINE
  5
39
330
17
100
AcDbEntity
  8
visible
100
AcDbLine
 10
-1232.6170330820096
 20
2868.693236945828
 30
0.0
 11
-1232.6170330820096
 21
3143.3417683635503
 31
0.0
  0
LINE
  5
3A
330
17
100
AcDbEntity
  8
visible
100
AcDbLine
 10
5700.998238734055
 20
-3697.1363365750794
 30
0.0
 11
5700.685891210278
 21
-3696.9560507179663
 31
0.0
  0
LINE
  5
3B
330
17
100
AcDbEntity
  8
visible
100
AcDbLine
 10
5712.7112708757
 20
-3692.8094760043587
 30
0.0
 11
5712.7112708757
 21
-854.3889416113366
 31
0.0
  0
LINE
  5
3C
330
17
100
AcDbEntity
  8
visible
100
AcDbLine
 10
5712.7112708757
 20
-854.3889416113361
 30
0.0
 11
-1220.9040009403652
 21
3147.668628934272
 31
0.0
  0
LINE
  5
3D
330
17
100
AcDbEntity
  8
visible
100
AcDbLine
 10
5700.998238734055
 20
-3697.1363365750794
 30
0.0
 11
5712.7112708757
 21
-3692.809476004358
 31
0.0
  0
LINE
  5
3E
330
17
100
AcDbEntity
  8
visible
100
AcDbLine
 10
5700.998238734055
 20
-858.7158021820578
 30
0.0
 11
5712.7112708757
 21
-854.3889416113367
 31
0.0
  0
LINE
  5
3F
330
17
100
AcDbEntity
  8
visible
100
AcDbLine
 10
-1232.6170330820096
 20
3143.3417683635507
 30
0.0
 11
-1220.904000940364
 21
3147.668628934272
 31
0.0
  0
LINE
  5
40
330
17
100
AcDbEntity
  8
visible
100
AcDbLine
 10
5713.0236183994775
 20
-3825.745055605479
 30
0.0
 11
5713.0236183994775
 21
-854.2735586627841
 31
0.0
  0
LINE
  5
41
330
17
100
AcDbEntity
  8
visible
100
AcDbLine
 10
5713.0236183994775
 20
-3825.745055605479
 30
0.0
 11
5700.685891210278
 21
-3818.6237642495007
 31
0.0
  0
LINE
  5
42
330
17
100
AcDbEntity
  8
visible
100
AcDbLine
 10
5907.928473236459
 20
-3753.74609570868
 30
0.0
 11
5907.928473236459
 21
-782.274598765985
 31
0.0
  0
LINE
  5
43
330
17
100
AcDbEntity
  8
visible
100
AcDbLine
 10
5907.928473236459
 20
-782.2745987659855
 30
0.0
 11
5822.032904197725
 21
-732.6959880598063
 31
0.0
  0
LINE
  5
44
330
17
100
AcDbEntity
  8
visible
100
AcDbLine
 10
5713.0236183994775
 20
-3825.745055605479
 30
0.0
 11
5907.928473236458
 21
-3753.7460957086805
 31
0.0
  0
LINE
  5
45
330
17
100
AcDbEntity
  8
visible
100
AcDbLine
 10
5713.0236183994775
 20
-854.2735586627841
 30
0.0
 11
5907.928473236458
 21
-782.2745987659855
 31
0.0
  0
LINE
  5
46
330
17
100
AcDbEntity
  8
visible
100
AcDbLine
 10
5908.240820760236
 20
-3753.6307127601276
 30
0.0
 11
5908.240820760236
 21
-782.1592158174326
 31
0.0
  0
LINE
  5
47
330
17
100
AcDbEntity
  8
visible
100
AcDbLine
 10
5908.240820760236
 20
-782.1592158174326
 30
0.0
 11
5822.032904197725
 21
-732.4003192541401
 31
0.0
  0
LINE
  5
48
330
17
100
AcDbEntity
  8
visible
100
AcDbLine
 10
5908.240820760236
 20
-3753.6307127601276
 30
0.0
 11
5907.928473236459
 21
-3753.4504269030144
 31
0.0
  0
LINE
  5
49
330
17
100
AcDbEntity
  8
visible
100
AcDbLine
 10
6064.102235125065
 20
-3696.0546214323995
 30
0.0
 11
6064.102235125065
 21
-724.5831244897045
 31
0.0
  0
LINE
  5
4A
330
17
100
AcDbEntity
  8
visible
100
AcDbLine
 10
6064.102235125065
 20
-724.5831244897045
 30
0.0
 11
-869.5130366910007
 21
3277.4744460559036
 31
0.0
  0
LINE
  5
4B
330
17
100
AcDbEntity
  8
visible
100
AcDbLine
 10
5908.240820760236
 20
-3753.6307127601276
 30
0.0
 11
6064.102235125065
 21
-3696.0546214323995
 31
0.0
  0
LINE
  5
4C
330
17
100
AcDbEntity
  8
visible
100
AcDbLine
 10
5908.240820760236
 20
-782.1592158174326
 30
0.0
 11
6064.102235125065
 21
-724.5831244897042
 31
0.0
  0
LINE
  5
4D
330
17
100
AcDbEntity
  8
visible
100
AcDbLine
 10
-1017.8781104851766
 20
3222.667545493436
 30
0.0
 11
-869.5130366910001
 21
3277.474446055903
 31
0.0
  0
LINE
  5
4E
330
17
100
AcDbEntity
  8
visible
100
AcDbLine
 10
5712.7112708757
 20
-854.3889416113361
 30
0.0
 11
5712.7112708757
 21
-765.6882999115542
 31
0.0
  0
LINE
  5
4F
330
17
100
AcDbEntity
  8
visible
100
AcDbLine
 10
5712.7112708757
 20
-765.6882999115542
 30
0.0
 11
-1220.9040009403652
 21
3236.369270634054
 31
0.0
  0
LINE
  5
50
330
17
100
AcDbEntity
  8
visible
100
AcDbLine
 10
-1220.9040009403643
 20
3147.6686289342724
 30
0.0
 11
-1220.9040009403643
 21
3236.3692706340544
 31
0.0
  0
LINE
  5
51
330
17
100
AcDbEntity
  8
visible
100
AcDbLine
 10
5712.7112708757
 20
-854.3889416113361
 30
0.0
 11
-1220.9040009403652
 21
3147.668628934272
 31
0.0
  0
LINE
  5
52
330
17
100
AcDbEntity
  8
visible
100
AcDbLine
 10
5822.032904197725
 20
-814.0049096179391
 30
0.0
 11
5822.032904197725
 21
-725.3042679181572
 31
0.0
  0
LINE
  5
53
330
17
100
AcDbEntity
  8
visible
100
AcDbLine
 10
5822.032904197725
 20
-725.3042679181581
 30
0.0
 11
-1111.5823676183409
 21
3276.75330262745
 31
0.0
  0
LINE
  5
54
330
17
100
AcDbEntity
  8
visible
100
AcDbLine
 10
5712.7112708757
 20
-854.3889416113361
 30
0.0
 11
5822.032904197725
 21
-814.0049096179395
 31
0.0
  0
LINE
  5
55
330
17
100
AcDbEntity
  8
visible
100
AcDbLine
 10
5712.7112708757
 20
-765.6882999115542
 30
0.0
 11
5822.032904197725
 21
-725.3042679181575
 31
0.0
  0
LINE
  5
56
330
17
100
AcDbEntity
  8
visible
100
AcDbLine
 10
-1220.9040009403643
 20
3236.3692706340535
 30
0.0
 11
-1111.58236761834
 21
3276.75330262745
 31
0.0
  0
LINE
  5
57
330
17
100
AcDbEntity
  8
visible
100
AcDbLine
 10
-5939.413103633196
 20
-1409.66938152054
 30
0.0
 11
-6064.102235125059
 21
-1337.6992673608793
 31
0.0
  0
LINE
  5
58
330
17
100
AcDbEntity
  8
visible
100
AcDbLine
 10
-5939.413103633196
 20
-1409.66938152054
 30
0.0
 11
-5782.989463725569
 21
-1351.8856008854173
 31
0.0
  0
LINE
  5
59
330
17
100
AcDbEntity
  8
visible
100
AcDbLine
 10
-1035.5569803309654
 20
3373.314407697375
 30
0.0
 11
-1160.2461118228287
 21
3445.2845218570355
 31
0.0
  0
LINE
  5
5A
330
17
100
AcDbEntity
  8
visible
100
AcDbLine
 10
-1035.5569803309654
 20
3296.79532079103
 30
0.0
 11
-1035.5569803309654
 21
3373.314407697376
 31
0.0
  0
LINE
  5
5B
330
17
100
AcDbEntity
  8
visible
100
AcDbLine
 10
-3526.552460297379
 20
4481.074909546937
 30
0.0
 11
-3612.174173473945
 21
4530.495451643385
 31
0.0
  0
LINE
  5
5C
330
17
100
AcDbEntity
  8
visible
100
AcDbLine
 10
-1035.5569803309654
 20
3373.314407697375
 30
0.0
 11
-2196.7918867785247
 21
3887.2710902917725
 31
0.0
  0
LINE
  5
5D
330
17
100
AcDbEntity
  8
visible
100
AcDbLine
 10
-1160.2461118228293
 20
3445.2845218570365
 30
0.0
 11
-2500.627927000082
 21
4038.5307180515942
 31
0.0
  0
LINE
  5
5E
330
17
100
AcDbEntity
  8
visible
100
AcDbLine
 10
-3519.6893493894727
 20
4489.5621373648855
 30
0.0
 11
-3612.174173473945
 21
4530.4954516433845
 31
0.0
  0
LINE
  5
5F
330
17
100
AcDbEntity
  8
visible
100
AcDbLine
 10
-5939.413103633196
 20
1561.802115422155
 30
0.0
 11
-6064.102235125059
 21
1633.7722295818157
 31
0.0
  0
LINE
  5
60
330
17
100
AcDbEntity
  8
visible
100
AcDbLine
 10
-4770.332027388309
 20
2942.9618464098767
 30
0.0
 11
-5939.413103633196
 21
1561.8021154221556
 31
0.0
  0
LINE
  5
61
330
17
100
AcDbEntity
  8
visible
100
AcDbLine
 10
-3612.1741734739453
 20
4530.4954516433845
 30
0.0
 11
-6064.102235125061
 21
1633.7722295818153
 31
0.0
  0
LINE
  5
62
330
17
100
AcDbEntity
  8
visible
100
AcDbLine
 10
-5939.413103633196
 20
1561.802115422155
 30
0.0
 11
-5939.413103633196
 21
-1409.66938152054
 31
0.0
  0
LINE
  5
63
330
17
100
AcDbEntity
  8
visible
100
AcDbLine
 10
-6064.10223512506
 20
1633.7722295818157
 30
0.0
 11
-6064.10223512506
 21
-1337.6992673608793
 31
0.0
  0
LINE
  5
64
330
17
100
AcDbEntity
  8
visible
100
AcDbLine
 10
-5627.065579855986
 20
-1442.1208358009485
 30
0.0
 11
-5782.98946372557
 21
-1352.1221359299502
 31
0.0
  0
LINE
  5
65
330
17
100
AcDbEntity
  8
visible
100
AcDbLine
 10
-5627.065579855986
 20
-1442.1208358009485
 30
0.0
 11
-5409.952816078445
 21
-1361.9181482620625
 31
0.0
  0
LINE
  5
66
330
17
100
AcDbEntity
  8
visible
100
AcDbLine
 10
-5627.065579855986
 20
1529.350661141747
 30
0.0
 11
-5782.98946372557
 21
1619.3493610127452
 31
0.0
  0
LINE
  5
67
330
17
100
AcDbEntity
  8
visible
100
AcDbLine
 10
-5626.86997141651
 20
1529.5925592272083
 30
0.0
 11
-5627.065579855986
 21
1529.350661141747
 31
0.0
  0
LINE
  5
68
330
17
100
AcDbEntity
  8
visible
100
AcDbLine
 10
-5782.793855286096
 20
1619.5912590982061
 30
0.0
 11
-5782.989463725569
 21
1619.3493610127462
 31
0.0
  0
LINE
  5
69
330
17
100
AcDbEntity
  8
visible
100
AcDbLine
 10
-5627.065579855986
 20
1529.350661141747
 30
0.0
 11
-5627.065579855986
 21
-1442.120835800948
 31
0.0
  0
LINE
  5
6A
330
17
100
AcDbEntity
  8
visible
100
AcDbLine
 10
-5782.989463725569
 20
1619.3493610127443
 30
0.0
 11
-5782.989463725569
 21
-1352.1221359299507
 31
0.0
  0
LINE
  5
6B
330
17
100
AcDbEntity
  8
visible
100
AcDbLine
 10
-5410.764919640265
 20
-1238.037245548605
 30
0.0
 11
-5419.88546733456
 21
-1232.7728985208942
 31
0.0
  0
LINE
  5
6C
330
17
100
AcDbEntity
  8
visible
100
AcDbLine
 10
-5410.764919640265
 20
-1238.037245548605
 30
0.0
 11
-5409.952816078445
 21
-1237.7372498823684
 31
0.0
  0
LINE
  5
6D
330
17
100
AcDbEntity
  8
visible
100
AcDbLine
 10
-1233.116789120053
 20
2868.8042930338106
 30
0.0
 11
-1233.116789120053
 21
3143.630225734931
 31
0.0
  0
LINE
  5
6E
330
17
100
AcDbEntity
  8
visible
100
AcDbLine
 10
-3321.940854380159
 20
4362.973833213633
 30
0.0
 11
-3322.1364628196334
 21
4363.086737694971
 31
0.0
  0
LINE
  5
6F
330
17
100
AcDbEntity
  8
visible
100
AcDbLine
 10
-1233.116789120053
 20
3143.6302257349307
 30
0.0
 11
-3321.940854380159
 21
4362.973833213632
 31
0.0
  0
LINE
  5
70
330
17
100
AcDbEntity
  8
visible
100
AcDbLine
 10
-5410.764919640265
 20
1600.3832888444176
 30
0.0
 11
-5419.88546733456
 21
1605.6476358721284
 31
0.0
  0
LINE
  5
71
330
17
100
AcDbEntity
  8
visible
100
AcDbLine
 10
-3321.940854380159
 20
4362.973833213633
 30
0.0
 11
-5410.764919640265
 21
1600.3832888444172
 31
0.0
  0
LINE
  5
72
330
17
100
AcDbEntity
  8
visible
100
AcDbLine
 10
-3519.4886365542966
 20
4119.032272988053
 30
0.0
 11
-5419.88546733456
 21
1605.647635872128
 31
0.0
  0
LINE
  5
73
330
17
100
AcDbEntity
  8
visible
100
AcDbLine
 10
-5410.764919640265
 20
1600.3832888444176
 30
0.0
 11
-5410.764919640265
 21
-1238.0372455486045
 31
0.0
  0
LINE
  5
74
330
17
100
AcDbEntity
  8
visible
100
AcDbLine
 10
-5419.88546733456
 20
1605.6476358721284
 30
0.0
 11
-5419.88546733456
 21
-1232.7728985208937
 31
0.0
  0
LINE
  5
75
330
17
100
AcDbEntity
  8
visible
100
AcDbLine
 10
-5617.695154142669
 20
1524.296887995144
 30
0.0
 11
-5782.989463725569
 21
1619.7041635795438
 31
0.0
  0
LINE
  5
76
330
17
100
AcDbEntity
  8
visible
100
AcDbLine
 10
-5617.695154142669
 20
1524.296887995144
 30
0.0
 11
-3321.9408543801596
 21
4363.328635780432
 31
0.0
  0
LINE
  5
77
330
17
100
AcDbEntity
  8
visible
100
AcDbLine
 10
-3321.940854380159
 20
4363.328635780432
 30
0.0
 11
-1127.5113277915066
 21
3270.869054307085
 31
0.0
  0
LINE
  5
78
330
17
100
AcDbEntity
  8
visible
100
AcDbLine
 10
-1026.1865546176496
 20
3291.386745077629
 30
0.0
 11
-1191.4808642005505
 21
3386.7940206620287
 31
0.0
  0
LINE
  5
79
330
17
100
AcDbEntity
  8
visible
100
AcDbLine
 10
-1026.1865546176496
 20
3227.4631492926515
 30
0.0
 11
-1026.1865546176496
 21
3291.3867450776274
 31
0.0
  0
LINE
  5
7A
330
17
100
AcDbEntity
  8
visible
100
AcDbLine
 10
-3321.940854380159
 20
4434.289149140257
 30
0.0
 11
-3487.23516396306
 21
4529.696424724657
 31
0.0
  0
LINE
  5
7B
330
17
100
AcDbEntity
  8
visible
100
AcDbLine
 10
-1026.1865546176496
 20
3291.386745077629
 30
0.0
 11
-3321.9408543801587
 21
4434.289149140258
 31
0.0
  0
LINE
  5
7C
330
17
100
AcDbEntity
  8
visible
100
AcDbLine
 10
-1191.48086420055
 20
3386.794020662028
 30
0.0
 11
-3487.235163963059
 21
4529.696424724657
 31
0.0
  0
LINE
  5
7D
330
17
100
AcDbEntity
  8
visible
100
AcDbLine
 10
-5617.695154142669
 20
1595.2574013549693
 30
0.0
 11
-5782.989463725569
 21
1690.664676939369
 31
0.0
  0
LINE
  5
7E
330
17
100
AcDbEntity
  8
visible
100
AcDbLine
 10
-3321.940854380159
 20
4434.289149140257
 30
0.0
 11
-5617.695154142668
 21
1595.2574013549693
 31
0.0
  0
LINE
  5
7F
330
17
100
AcDbEntity
  8
visible
100
AcDbLine
 10
-3487.2351639630597
 20
4529.696424724656
 30
0.0
 11
-5782.989463725569
 21
1690.6646769393683
 31
0.0
  0
LINE
  5
80
330
17
100
AcDbEntity
  8
visible
100
AcDbLine
 10
-5617.695154142669
 20
1595.2574013549693
 30
0.0
 11
-5617.695154142669
 21
1524.2968879951436
 31
0.0
  0
LINE
  5
81
330
17
100
AcDbEntity
  8
visible
100
AcDbLine
 10
-5782.989463725569
 20
1690.6646769393692
 30
0.0
 11
-5782.989463725569
 21
1619.7041635795435
 31
0.0
  0
LINE
  5
82
330
17
100
AcDbEntity
  8
visible
100
AcDbLine
 10
3105.6932349490767
 20
-358.5973923265119
 30
0.0
 11
-1303.1451039509047
 21
2186.1680957772046
 31
0.0
  0
LINE
  5
83
330
17
100
AcDbEntity
  8
visible
100
AcDbLine
 10
-1303.1451039509038
 20
13.00237413254672
 30
0.0
 11
-1303.1451039509038
 21
2186.168095777204
 31
0.0
  0
LINE
  5
84
330
17
100
AcDbEntity
  8
visible
100
AcDbLine
 10
1961.867503960896
 20
-1871.55105336067
 30
0.0
 11
-1303.1451039509047
 21
13.002374132547175
 31
0.0
  0
LINE
  5
85
330
17
100
AcDbEntity
  8
visible
100
AcDbLine
 10
-1303.1451039509038
 20
2186.168095777204
 30
0.0
 11
-1284.4042525242717
 21
2193.0910726903576
 31
0.0
  0
LINE
  5
86
330
17
100
AcDbEntity
  8
visible
100
AcDbLine
 10
3311.440870486501
 20
-86.45223069726717
 30
0.0
 11
-1303.1451039509047
 21
2577.070045913513
 31
0.0
  0
LINE
  5
87
330
17
100
AcDbEntity
  8
visible
100
AcDbLine
 10
-1303.1451039509038
 20
2203.90822411716
 30
0.0
 11
-1303.1451039509038
 21
2577.070045913512
 31
0.0
  0
LINE
  5
88
330
17
100
AcDbEntity
  8
visible
100
AcDbLine
 10
3115.0305878551026
 20
-346.2467501956205
 30
0.0
 11
-1303.1451039509047
 21
2203.9082241171614
 31
0.0
  0
LINE
  5
89
330
17
100
AcDbEntity
  8
visible
100
AcDbLine
 10
5582.556057717737
 20
-1064.9999365823871
 30
0.0
 11
5582.556057717737
 21
-1064.704267776721
 31
0.0
  0
LINE
  5
8A
330
17
100
AcDbEntity
  8
visible
100
AcDbLine
 10
5582.556057717737
 20
-1064.7042677767204
 30
0.0
 11
-951.7541397015411
 21
2706.8758630351454
 31
0.0
  0
LINE
  5
8B
330
17
100
AcDbEntity
  8
visible
100
AcDbLine
 10
5231.979028867283
 20
-1194.2094125410958
 30
0.0
 11
5582.556057717737
 21
-1064.7042677767208
 31
0.0
  0
LINE
  5
8C
330
17
100
AcDbEntity
  8
visible
100
AcDbLine
 10
-1303.1451039509038
 20
2577.0700459135123
 30
0.0
 11
-951.7541397015402
 21
2706.8758630351444
 31
0.0
  0
LINE
  5
8D
330
17
100
AcDbEntity
  8
visible
100
AcDbLine
 10
1523.66245573762
 20
-3067.1021688723836
 30
0.0
 11
1405.2202747213012
 21
-2998.7377718549906
 31
0.0
  0
LINE
  5
8E
330
17
100
AcDbEntity
  8
visible
100
AcDbLine
 10
1523.66245573762
 20
-3067.1021688723836
 30
0.0
 11
5700.685891210279
 21
-1524.085997878974
 31
0.0
  0
LINE
  5
8F
330
17
100
AcDbEntity
  8
visible
100
AcDbLine
 10
5700.685891210278
 20
-1133.1840477426667
 30
0.0
 11
5582.2437101939595
 21
-1064.8196507252737
 31
0.0
  0
LINE
  5
90
330
17
100
AcDbEntity
  8
visible
100
AcDbLine
 10
5700.685891210278
 20
-1524.0859978789745
 30
0.0
 11
5700.685891210278
 21
-1133.1840477426663
 31
0.0
  0
LINE
  5
91
330
17
100
AcDbEntity
  8
visible
100
AcDbLine
 10
5700.685891210278
 20
-1133.1840477426667
 30
0.0
 11
5349.6072744846915
 21
-1262.8744819157464
 31
0.0
  0
LINE
  5
92
330
17
100
AcDbEntity
  8
visible
100
AcDbLine
 10
5582.2437101939595
 20
-1064.8196507252733
 30
0.0
 11
5231.979028867282
 21
-1194.2094125410958
 31
0.0
  0
LINE
  5
93
330
17
100
AcDbEntity
  8
visible
100
AcDbLine
 10
3436.478691349267
 20
-146.09248628104706
 30
0.0
 11
3318.036510332948
 21
-77.72808926365417
 31
0.0
  0
LINE
  5
94
330
17
100
AcDbEntity
  8
visible
100
AcDbLine
 10
5349.6072744846915
 20
-1262.8744819157455
 30
0.0
 11
3436.478691349267
 21
-146.0924862810473
 31
0.0
  0
LINE
  5
95
330
17
100
AcDbEntity
  8
visible
100
AcDbLine
 10
1523.66245573762
 20
-2676.2002187360754
 30
0.0
 11
1405.2202747213012
 21
-2607.8358217186824
 31
0.0
  0
LINE
  5
96
330
17
100
AcDbEntity
  8
visible
100
AcDbLine
 10
3436.478691349267
 20
-146.09248628104706
 30
0.0
 11
1523.6624557376194
 21
-2676.2002187360754
 31
0.0
  0
LINE
  5
97
330
17
100
AcDbEntity
  8
visible
100
AcDbLine
 10
3318.036510332948
 20
-77.72808926365451
 30
0.0
 11
1405.2202747213005
 21
-2607.835821718683
 31
0.0
  0
LINE
  5
98
330
17
100
AcDbEntity
  8
visible
100
AcDbLine
 10
1523.66245573762
 20
-2676.2002187360754
 30
0.0
 11
1523.66245573762
 21
-3067.1021688723836
 31
0.0
  0
LINE
  5
99
330
17
100
AcDbEntity
  8
visible
100
AcDbLine
 10
1405.2202747213012
 20
-2607.8358217186824
 30
0.0
 11
1405.2202747213012
 21
-2998.7377718549906
 31
0.0
  0
LINE
  5
9A
330
17
100
AcDbEntity
  8
visible
100
AcDbLine
 10
-5129.089922697975
 20
772.8423589568738
 30
0.0
 11
-5409.952816078445
 21
934.9554016732234
 31
0.0
  0
LINE
  5
9B
330
17
100
AcDbEntity
  8
visible
100
AcDbLine
 10
-5129.089922697975
 20
772.8423589568738
 30
0.0
 11
-1284.4042525242712
 21
2193.091072690357
 31
0.0
  0
LINE
  5
9C
330
17
100
AcDbEntity
  8
visible
100
AcDbLine
 10
-952.0664872253174
 20
2706.760480086592
 30
0.0
 11
-1232.9293806057867
 21
2868.8735228029414
 31
0.0
  0
LINE
  5
9D
330
17
100
AcDbEntity
  8
visible
100
AcDbLine
 10
-952.0664872253174
 20
2706.760480086592
 30
0.0
 11
-1303.145103950904
 21
2577.0700459135123
 31
0.0
  0
LINE
  5
9E
330
17
100
AcDbEntity
  8
visible
100
AcDbLine
 10
-1232.9293806057867
 20
2868.873522802942
 30
0.0
 11
-1582.07790579472
 21
2739.8960754010786
 31
0.0
  0
LINE
  5
9F
330
17
100
AcDbEntity
  8
visible
100
AcDbLine
 10
-3216.273687086328
 20
3693.8520415482108
 30
0.0
 11
-3497.1365804667976
 21
3855.96508426456
 31
0.0
  0
LINE
  5
A0
330
17
100
AcDbEntity
  8
visible
100
AcDbLine
 10
-1303.1451039509038
 20
2577.0700459135123
 30
0.0
 11
-3216.273687086328
 21
3693.8520415482108
 31
0.0
  0
LINE
  5
A1
330
17
100
AcDbEntity
  8
visible
100
AcDbLine
 10
-5129.089922697975
 20
1163.744309093183
 30
0.0
 11
-5409.952816078445
 21
1325.8573518095325
 31
0.0
  0
LINE
  5
A2
330
17
100
AcDbEntity
  8
visible
100
AcDbLine
 10
-3216.273687086328
 20
3693.8520415482108
 30
0.0
 11
-5129.089922697976
 21
1163.7443090931824
 31
0.0
  0
LINE
  5
A3
330
17
100
AcDbEntity
  8
visible
100
AcDbLine
 10
-3497.1365804667976
 20
3855.9650842645606
 30
0.0
 11
-5409.952816078445
 21
1325.8573518095322
 31
0.0
  0
LINE
  5
A4
330
17
100
AcDbEntity
  8
visible
100
AcDbLine
 10
-5129.089922697975
 20
1163.744309093183
 30
0.0
 11
-5129.089922697975
 21
772.8423589568747
 31
0.0
  0
LINE
  5
A5
330
17
100
AcDbEntity
  8
visible
100
AcDbLine
 10
-5409.952816078445
 20
1325.8573518095327
 30
0.0
 11
-5409.952816078445
 21
934.9554016732245
 31
0.0
  0
LINE
  5
A6
330
17
100
AcDbEntity
  8
visible
100
AcDbLine
 10
1523.66245573762
 20
-5240.267890517041
 30
0.0
 11
1523.66245573762
 21
-3067.102168872384
 31
0.0
  0
LINE
  5
A7
330
17
100
AcDbEntity
  8
visible
100
AcDbLine
 10
1523.66245573762
 20
-3067.1021688723836
 30
0.0
 11
1448.9489280501107
 21
-3023.9777918508635
 31
0.0
  0
LINE
  5
A8
330
17
100
AcDbEntity
  8
visible
100
AcDbLine
 10
1448.9489280501107
 20
-5197.143513495521
 30
0.0
 11
1448.9489280501107
 21
-3023.9777918508635
 31
0.0
  0
LINE
  5
A9
330
17
100
AcDbEntity
  8
visible
100
AcDbLine
 10
1523.66245573762
 20
-5240.267890517041
 30
0.0
 11
1448.9489280501107
 21
-5197.143513495522
 31
0.0
  0
LINE
  5
AA
330
17
100
AcDbEntity
  8
visible
100
AcDbLine
 10
5700.685891210278
 20
-3697.2517195236323
 30
0.0
 11
5700.685891210278
 21
-1524.085997878975
 31
0.0
  0
LINE
  5
AB
330
17
100
AcDbEntity
  8
visible
100
AcDbLine
 10
1523.66245573762
 20
-5240.267890517041
 30
0.0
 11
5700.685891210278
 21
-3697.2517195236323
 31
0.0
  0
LINE
  5
AC
330
17
100
AcDbEntity
  8
visible
100
AcDbLine
 10
1523.66245573762
 20
-3067.1021688723836
 30
0.0
 11
5700.685891210278
 21
-1524.0859978789745
 31
0.0
  0
LINE
  5
AD
330
17
100
AcDbEntity
  8
visible
100
AcDbLine
 10
-5335.239288390936
 20
-1281.3346969929535
 30
0.0
 11
-5335.239288390936
 21
891.831024651704
 31
0.0
  0
LINE
  5
AE
330
17
100
AcDbEntity
  8
visible
100
AcDbLine
 10
-5335.239288390936
 20
891.831024651704
 30
0.0
 11
-5409.952816078445
 21
934.955401673224
 31
0.0
  0
LINE
  5
AF
330
17
100
AcDbEntity
  8
visible
100
AcDbLine
 10
-5409.952816078445
 20
-1238.2103199714334
 30
0.0
 11
-5409.952816078445
 21
934.9554016732241
 31
0.0
  0
LINE
  5
B0
330
17
100
AcDbEntity
  8
visible
100
AcDbLine
 10
-5335.239288390936
 20
-1281.3346969929535
 30
0.0
 11
-5409.952816078445
 21
-1238.2103199714334
 31
0.0
  0
LINE
  5
B1
330
17
100
AcDbEntity
  8
visible
100
AcDbLine
 10
-5335.239288390936
 20
-1281.3346969929535
 30
0.0
 11
-1303.1451039509038
 21
208.14378587206738
 31
0.0
  0
ENDSEC
  0
SECTION
  2
OBJECTS
  0
DICTIONARY
  5
A
330
0
100
AcDbDictionary
281
1
  3
ACAD_COLOR
350
B
  3
ACAD_GROUP
350
C
  3
ACAD_LAYOUT
350
D
  3
ACAD_MATERIAL
350
E
  3
ACAD_MLEADERSTYLE
350
F
  3
ACAD_MLINESTYLE
350
10
  3
ACAD_PLOTSETTINGS
350
11
  3
ACAD_PLOTSTYLENAME
350
12
  3
ACAD_SCALELIST
350
14
  3
ACAD_TABLESTYLE
350
15
  3
ACAD_VISUALSTYLE
350
16
  3
EZDXF_META
350
2D
  0
DICTIONARY
  5
B
330
A
100
AcDbDictionary
281
1
  0
DICTIONARY
  5
C
330
A
100
AcDbDictionary
281
1
  0
DICTIONARY
  5
D
330
A
100
AcDbDictionary
281
1
  3
Model
350
1A
  3
Layout1
350
1E
  0
DICTIONARY
  5
E
330
A
100
AcDbDictionary
281
1
  3
ByBlock
350
1F
  3
ByLayer
350
20
  3
Global
350
21
  0
DICTIONARY
  5
F
330
A
100
AcDbDictionary
281
1
  3
Standard
350
2C
  0
DICTIONARY
  5
10
330
A
100
AcDbDictionary
281
1
  3
Standard
350
22
  0
DICTIONARY
  5
11
330
A
100
AcDbDictionary
281
1
  0
ACDBDICTIONARYWDFLT
  5
12
330
A
100
AcDbDictionary
281
1
  3
Normal
350
13
100
AcDbDictionaryWithDefault
340
13
  0
ACDBPLACEHOLDER
  5
13
330
12
  0
DICTIONARY
  5
14
330
A
100
AcDbDictionary
281
1
  0
DICTIONARY
  5
15
330
A
100
AcDbDictionary
281
1
  0
DICTIONARY
  5
16
330
A
100
AcDbDictionary
281
1
  0
LAYOUT
  5
1A
330
D
100
AcDbPlotSettings
  1

  4
A3
  6

 40
7.5
 41
20.0
 42
7.5
 43
20.0
 44
420.0
 45
297.0
 46
0.0
 47
0.0
 48
0.0
 49
0.0
140
0.0
141
0.0
142
1.0
143
1.0
 70
1024
 72
1
 73
0
 74
5
  7

 75
16
 76
0
 77
2
 78
300
147
1.0
148
0.0
149
0.0
100
AcDbLayout
  1
Model
 70
1
 71
0
 10
0.0
 20
0.0
 11
420.0
 21
297.0
 12
0.0
 22
0.0
 32
0.0
 14
1e+20
 24
1e+20
 34
1e+20
 15
-1e+20
 25
-1e+20
 35
-1e+20
146
0.0
 13
0.0
 23
0.0
 33
0.0
 16
1.0
 26
0.0
 36
0.0
 17
0.0
 27
1.0
 37
0.0
 76
1
330
17
  0
LAYOUT
  5
1E
330
D
100
AcDbPlotSettings
  1

  4
A3
  6

 40
7.5
 41
20.0
 42
7.5
 43
20.0
 44
420.0
 45
297.0
 46
0.0
 47
0.0
 48
0.0
 49
0.0
140
0.0
141
0.0
142
1.0
143
1.0
 70
0
 72
1
 73
0
 74
5
  7

 75
16
 76
0
 77
2
 78
300
147
1.0
148
0.0
149
0.0
100
AcDbLayout
  1
Layout1
 70
1
 71
1
 10
0.0
 20
0.0
 11
420.0
 21
297.0
 12
0.0
 22
0.0
 32
0.0
 14
1e+20
 24
1e+20
 34
1e+20
 15
-1e+20
 25
-1e+20
 35
-1e+20
146
0.0
 13
0.0
 23
0.0
 33
0.0
 16
1.0
 26
0.0
 36
0.0
 17
0.0
 27
1.0
 37
0.0
 76
1
330
1B
  0
MATERIAL
  5
1F
102
{ACAD_REACTORS
330
E
102
}
330
E
100
AcDbMaterial
  1
ByBlock
  2

 70
0
 40
1.0
 71
1
 41
1.0
 91
-1023410177
 42
1.0
 72
1
  3

 73
1
 74
1
 75
1
 44
0.5
 73
0
 45
1.0
 46
1.0
 77
1
  4

 78
1
 79
1
170
1
 48
1.0
171
1
  6

172
1
173
1
174
1
140
1.0
141
1.0
175
1
  7

176
1
177
1
178
1
143
1.0
179
1
  8

270
1
271
1
272
1
145
1.0
146
1.0
273
1
  9

274
1
275
1
276
1
 42
1.0
 72
1
  3

 73
1
 74
1
 75
1
 94
63
  0
MATERIAL
  5
20
102
{ACAD_REACTORS
330
E
102
}
330
E
100
AcDbMaterial
  1
ByLayer
  2

 70
0
 40
1.0
 71
1
 41
1.0
 91
-1023410177
 42
1.0
 72
1
  3

 73
1
 74
1
 75
1
 44
0.5
 73
0
 45
1.0
 46
1.0
 77
1
  4

 78
1
 79
1
170
1
 48
1.0
171
1
  6

172
1
173
1
174
1
140
1.0
141
1.0
175
1
  7

176
1
177
1
178
1
143
1.0
179
1
  8

270
1
271
1
272
1
145
1.0
146
1.0
273
1
  9

274
1
275
1
276
1
 42
1.0
 72
1
  3

 73
1
 74
1
 75
1
 94
63
  0
MATERIAL
  5
21
102
{ACAD_REACTORS
330
E
102
}
330
E
100
AcDbMaterial
  1
Global
  2

 70
0
 40
1.0
 71
1
 41
1.0
 91
-1023410177
 42
1.0
 72
1
  3

 73
1
 74
1
 75
1
 44
0.5
 73
0
 45
1.0
 46
1.0
 77
1
  4

 78
1
 79
1
170
1
 48
1.0
171
1
  6

172
1
173
1
174
1
140
1.0
141
1.0
175
1
  7

176
1
177
1
178
1
143
1.0
179
1
  8

270
1
271
1
272
1
145
1.0
146
1.0
273
1
  9

274
1
275
1
276
1
 42
1.0
 72
1
  3

 73
1
 74
1
 75
1
 94
63
  0
MLINESTYLE
  5
22
102
{ACAD_REACTORS
330
10
102
}
330
10
100
AcDbMlineStyle
  2
Standard
 70
0
  3

 62
256
 51
90.0
 52
90.0
 71
2
 49
0.5
 62
256
  6
BYLAYER
 49
-0.5
 62
256
  6
BYLAYER
  0
MLEADERSTYLE
  5
2C
102
{ACAD_REACTORS
330
F
102
}
330
F
100
AcDbMLeaderStyle
179
2
170
2
171
1
172
0
 90
2
 40
0.0
 41
0.0
173
1
 91
-1056964608
 92
-2
290
1
 42
2.0
291
1
 43
8.0
  3
Standard
 44
4.0
300

342
29
174
1
175
1
176
0
178
1
 93
-1056964608
 45
4.0
292
0
297
0
 46
4.0
 94
-1056964608
 47
1.0
 49
1.0
140
1.0
294
1
141
0.0
177
0
142
1.0
295
0
296
0
143
3.75
271
0
272
9
273
9
  0
DICTIONARY
  5
2D
330
A
100
AcDbDictionary
280
1
281
1
  3
CREATED_BY_EZDXF
350
2E
  3
WRITTEN_BY_EZDXF
350
B5
  0
DICTIONARYVAR
  5
2E
330
2D
100
DictionaryVariables
280
0
  1
1.4.4 @ 2026-09-15T13:38:43.432041+00:00
  0
DICTIONARYVAR
  5
B5
330
2D
100
DictionaryVariables
280
0
  1
1.4.4 @ 2026-09-15T13:38:43.441815+00:00
  0
ENDSEC
  0
EOF
