  0
SECTION
  2
HEADER
  9
$ACADVER
  1
AC1027
  9
$ACADMAINTVER
 70
105
  9
$DWGCODEPAGE
  3
ANSI_1252
  9
$LASTSAVEDBY
  1
ezdxf
  9
$REQUIREDVERSIONS
160
0
  9
$INSBASE
 10
0.0
 20
0.0
 30
0.0
  9
$EXTMIN
 10
1e+20
 20
1e+20
 30
1e+20
  9
$EXTMAX
 10
-1e+20
 20
-1e+20
 30
-1e+20
  9
$LIMMIN
 10
0.0
 20
0.0
  9
$LIMMAX
 10
420.0
 20
297.0
  9
$ORTHOMODE
 70
0
  9
$REGENMODE
 70
1
  9
$FILLMODE
 70
1
  9
$QTEXTMODE
 70
0
  9
$MIRRTEXT
 70
1
  9
$LTSCALE
 40
1.0
  9
$ATTMODE
 70
1
  9
$TEXTSIZE
 40
2.5
  9
$TRACEWID
 40
1.0
  9
$TEXTSTYLE
  7
Standard
  9
$CLAYER
  8
0
  9
$CELTYPE
  6
ByLayer
  9
$CECOLOR
 62
256
  9
$CELTSCALE
 40
1.0
  9
$DISPSILH
 70
0
  9
$DIMSCALE
 40
1.0
  9
$DIMASZ
 40
2.5
  9
$DIMEXO
 40
0.625
  9
$DIMDLI
 40
3.75
  9
$DIMRND
 40
0.0
  9
$DIMDLE
 40
0.0
  9
$DIMEXE
 40
1.25
  9
$DIMTP
 40
0.0
  9
$DIMTM
 40
0.0
  9
$DIMTXT
 40
2.5
  9
$DIMCEN
 40
2.5
  9
$DIMTSZ
 40
0.0
  9
$DIMTOL
 70
0
  9
$DIMLIM
 70
0
  9
$DIMTIH
 70
0
  9
$DIMTOH
 70
0
  9
$DIMSE1
 70
0
  9
$DIMSE2
 70
0
  9
$DIMTAD
 70
1
  9
$DIMZIN
 70
8
  9
$DIMBLK
  1

  9
$DIMASO
 70
1
  9
$DIMSHO
 70
1
  9
$DIMPOST
  1

  9
$DIMAPOST
  1

  9
$DIMALT
 70
0
  9
$DIMALTD
 70
3
  9
$DIMALTF
 40
0.03937007874
  9
$DIMLFAC
 40
1.0
  9
$DIMTOFL
 70
1
  9
$DIMTVP
 40
0.0
  9
$DIMTIX
 70
0
  9
$DIMSOXD
 70
0
  9
$DIMSAH
 70
0
  9
$DIMBLK1
  1

  9
$DIMBLK2
  1

  9
$DIMSTYLE
  2
ISO-25
  9
$DIMCLRD
 70
0
  9
$DIMCLRE
 70
0
  9
$DIMCLRT
 70
0
  9
$DIMTFAC
 40
1.0
  9
$DIMGAP
 40
0.625
  9
$DIMJUST
 70
0
  9
$DIMSD1
 70
0
  9
$DIMSD2
 70
0
  9
$DIMTOLJ
 70
0
  9
$DIMTZIN
 70
8
  9
$DIMALTZ
 70
0
  9
$DIMALTTZ
 70
0
  9
$DIMUPT
 70
0
  9
$DIMDEC
 70
2
  9
$DIMTDEC
 70
2
  9
$DIMALTU
 70
2
  9
$DIMALTTD
 70
3
  9
$DIMTXSTY
  7
Standard
  9
$DIMAUNIT
 70
0
  9
$DIMADEC
 70
0
  9
$DIMALTRND
 40
0.0
  9
$DIMAZIN
 70
0
  9
$DIMDSEP
 70
44
  9
$DIMATFIT
 70
3
  9
$DIMFRAC
 70
0
  9
$DIMLDRBLK
  1

  9
$DIMLUNIT
 70
2
  9
$DIMLWD
 70
-2
  9
$DIMLWE
 70
-2
  9
$DIMTMOVE
 70
0
  9
$DIMFXL
 40
1.0
  9
$DIMFXLON
 70
0
  9
$DIMJOGANG
 40
0.785398163397
  9
$DIMTFILL
 70
0
  9
$DIMTFILLCLR
 70
0
  9
$DIMARCSYM
 70
0
  9
$DIMLTYPE
  6

  9
$DIMLTEX1
  6

  9
$DIMLTEX2
  6

  9
$DIMTXTDIRECTION
 70
0
  9
$LUNITS
 70
2
  9
$LUPREC
 70
4
  9
$SKETCHINC
 40
1.0
  9
$FILLETRAD
 40
10.0
  9
$AUNITS
 70
0
  9
$AUPREC
 70
2
  9
$MENU
  1
.
  9
$ELEVATION
 40
0.0
  9
$PELEVATION
 40
0.0
  9
$THICKNESS
 40
0.0
  9
$LIMCHECK
 70
0
  9
$CHAMFERA
 40
0.0
  9
$CHAMFERB
 40
0.0
  9
$CHAMFERC
 40
0.0
  9
$CHAMFERD
 40
0.0
  9
$SKPOLY
 70
0
  9
$TDCREATE
 40
2461300.360960648
  9
$TDUCREATE
 40
2458532.153996898
  9
$TDUPDATE
 40
2461300.360960648
  9
$TDUUPDATE
 40
2458532.1544311
  9
$TDINDWG
 40
0.0
  9
$TDUSRTIMER
 40
0.0
  9
$USRTIMER
 70
1
  9
$ANGBASE
 50
0.0
  9
$ANGDIR
 70
0
  9
$PDMODE
 70
0
  9
$PDSIZE
 40
0.0
  9
$PLINEWID
 40
0.0
  9
$SPLFRAME
 70
0
  9
$SPLINETYPE
 70
6
  9
$SPLINESEGS
 70
8
  9
$HANDSEED
  5
B7
  9
$SURFTAB1
 70
6
  9
$SURFTAB2
 70
6
  9
$SURFTYPE
 70
6
  9
$SURFU
 70
6
  9
$SURFV
 70
6
  9
$UCSBASE
  2

  9
$UCSNAME
  2

  9
$UCSORG
 10
0.0
 20
0.0
 30
0.0
  9
$UCSXDIR
 10
1.0
 20
0.0
 30
0.0
  9
$UCSYDIR
 10
0.0
 20
1.0
 30
0.0
  9
$UCSORTHOREF
  2

  9
$UCSORTHOVIEW
 70
0
  9
$UCSORGTOP
 10
0.0
 20
0.0
 30
0.0
  9
$UCSORGBOTTOM
 10
0.0
 20
0.0
 30
0.0
  9
$UCSORGLEFT
 10
0.0
 20
0.0
 30
0.0
  9
$UCSORGRIGHT
 10
0.0
 20
0.0
 30
0.0
  9
$UCSORGFRONT
 10
0.0
 20
0.0
 30
0.0
  9
$UCSORGBACK
 10
0.0
 20
0.0
 30
0.0
  9
$PUCSBASE
  2

  9
$PUCSNAME
  2

  9
$PUCSORG
 10
0.0
 20
0.0
 30
0.0
  9
$PUCSXDIR
 10
1.0
 20
0.0
 30
0.0
  9
$PUCSYDIR
 10
0.0
 20
1.0
 30
0.0
  9
$PUCSORTHOREF
  2

  9
$PUCSORTHOVIEW
 70
0
  9
$PUCSORGTOP
 10
0.0
 20
0.0
 30
0.0
  9
$PUCSORGBOTTOM
 10
0.0
 20
0.0
 30
0.0
  9
$PUCSORGLEFT
 10
0.0
 20
0.0
 30
0.0
  9
$PUCSORGRIGHT
 10
0.0
 20
0.0
 30
0.0
  9
$PUCSORGFRONT
 10
0.0
 20
0.0
 30
0.0
  9
$PUCSORGBACK
 10
0.0
 20
0.0
 30
0.0
  9
$USERI1
 70
0
  9
$USERI2
 70
0
  9
$USERI3
 70
0
  9
$USERI4
 70
0
  9
$USERI5
 70
0
  9
$USERR1
 40
0.0
  9
$USERR2
 40
0.0
  9
$USERR3
 40
0.0
  9
$USERR4
 40
0.0
  9
$USERR5
 40
0.0
  9
$WORLDVIEW
 70
1
  9
$SHADEDGE
 70
3
  9
$SHADEDIF
 70
70
  9
$TILEMODE
 70
1
  9
$MAXACTVP
 70
64
  9
$PINSBASE
 10
0.0
 20
0.0
 30
0.0
  9
$PLIMCHECK
 70
0
  9
$PEXTMIN
 10
1e+20
 20
1e+20
 30
1e+20
  9
$PEXTMAX
 10
-1e+20
 20
-1e+20
 30
-1e+20
  9
$PLIMMIN
 10
0.0
 20
0.0
  9
$PLIMMAX
 10
420.0
 20
297.0
  9
$UNITMODE
 70
0
  9
$VISRETAIN
 70
1
  9
$PLINEGEN
 70
0
  9
$PSLTSCALE
 70
1
  9
$TREEDEPTH
 70
3020
  9
$CMLSTYLE
  2
Standard
  9
$CMLJUST
 70
0
  9
$CMLSCALE
 40
20.0
  9
$PROXYGRAPHICS
 70
1
  9
$MEASUREMENT
 70
1
  9
$CELWEIGHT
370
-1
  9
$ENDCAPS
280
0
  9
$JOINSTYLE
280
0
  9
$LWDISPLAY
290
0
  9
$INSUNITS
 70
4
  9
$HYPERLINKBASE
  1

  9
$STYLESHEET
  1

  9
$XEDIT
290
1
  9
$CEPSNTYPE
380
0
  9
$PSTYLEMODE
290
1
  9
$FINGERPRINTGUID
  2
{AB926BDA-E106-4552-8B1A-27894967D7BF}
  9
$VERSIONGUID
  2
{D1386375-D2EE-4656-86F9-EB31B9840DCE}
  9
$EXTNAMES
290
1
  9
$PSVPSCALE
 40
0.0
  9
$OLESTARTUP
290
0
  9
$SORTENTS
280
127
  9
$INDEXCTL
280
0
  9
$HIDETEXT
280
1
  9
$XCLIPFRAME
280
1
  9
$HALOGAP
280
0
  9
$OBSCOLOR
 70
257
  9
$OBSLTYPE
280
0
  9
$INTERSECTIONDISPLAY
280
0
  9
$INTERSECTIONCOLOR
 70
257
  9
$DIMASSOC
280
2
  9
$PROJECTNAME
  1

  9
$CAMERADISPLAY
290
0
  9
$LENSLENGTH
 40
50.0
  9
$CAMERAHEIGHT
 40
0.0
  9
$STEPSPERSEC
 40
24.0
  9
$STEPSIZE
 40
100.0
  9
$3DDWFPREC
 40
2.0
  9
$PSOLWIDTH
 40
0.005
  9
$PSOLHEIGHT
 40
0.08
  9
$LOFTANG1
 40
1.570796326795
  9
$LOFTANG2
 40
1.570796326795
  9
$LOFTMAG1
 40
0.0
  9
$LOFTMAG2
 40
0.0
  9
$LOFTPARAM
 70
7
  9
$LOFTNORMALS
280
1
  9
$LATITUDE
 40
37.795
  9
$LONGITUDE
 40
-122.394
  9
$NORTHDIRECTION
 40
0.0
  9
$TIMEZONE
 70
-8000
  9
$LIGHTGLYPHDISPLAY
280
1
  9
$TILEMODELIGHTSYNCH
280
1
  9
$CMATERIAL
347
20
  9
$SOLIDHIST
280
0
  9
$SHOWHIST
280
1
  9
$DWFFRAME
280
2
  9
$DGNFRAME
280
2
  9
$REALWORLDSCALE
290
1
  9
$INTERFERECOLOR
 62
256
  9
$CSHADOW
280
0
  9
$SHADOWPLANELOCATION
 40
0.0
  0
ENDSEC
  0
SECTION
  2
CLASSES
  0
CLASS
  1
ACDBDICTIONARYWDFLT
  2
AcDbDictionaryWithDefault
  3
ObjectDBX Classes
 90
0
 91
0
280
0
281
0
  0
CLASS
  1
SUN
  2
AcDbSun
  3
SCENEOE
 90
1153
 91
0
280
0
281
0
  0
CLASS
  1
VISUALSTYLE
  2
AcDbVisualStyle
  3
ObjectDBX Classes
 90
4095
 91
0
280
0
281
0
  0
CLASS
  1
MATERIAL
  2
AcDbMaterial
  3
ObjectDBX Classes
 90
1153
 91
0
280
0
281
0
  0
CLASS
  1
SCALE
  2
AcDbScale
  3
ObjectDBX Classes
 90
1153
 91
0
280
0
281
0
  0
CLASS
  1
TABLESTYLE
  2
AcDbTableStyle
  3
ObjectDBX Classes
 90
4095
 91
0
280
0
281
0
  0
CLASS
  1
MLEADERSTYLE
  2
AcDbMLeaderStyle
  3
ACDB_MLEADERSTYLE_CLASS
 90
4095
 91
0
280
0
281
0
  0
CLASS
  1
DICTIONARYVAR
  2
AcDbDictionaryVar
  3
ObjectDBX Classes
 90
0
 91
0
280
0
281
0
  0
CLASS
  1
CELLSTYLEMAP
  2
AcDbCellStyleMap
  3
ObjectDBX Classes
 90
1152
 91
0
280
0
281
0
  0
CLASS
  1
MENTALRAYRENDERSETTINGS
  2
AcDbMentalRayRenderSettings
  3
SCENEOE
 90
1024
 91
0
280
0
281
0
  0
CLASS
  1
ACDBDETAILVIEWSTYLE
  2
AcDbDetailViewStyle
  3
ObjectDBX Classes
 90
1025
 91
0
280
0
281
0
  0
CLASS
  1
ACDBSECTIONVIEWSTYLE
  2
AcDbSectionViewStyle
  3
ObjectDBX Classes
 90
1025
 91
0
280
0
281
0
  0
CLASS
  1
RASTERVARIABLES
  2
AcDbRasterVariables
  3
ISM
 90
0
 91
0
280
0
281
0
  0
CLASS
  1
ACDBPLACEHOLDER
  2
AcDbPlaceHolder
  3
ObjectDBX Classes
 90
0
 91
0
280
0
281
0
  0
CLASS
  1
LAYOUT
  2
AcDbLayout
  3
ObjectDBX Classes
 90
0
 91
0
280
0
281
0
  0
ENDSEC
  0
SECTION
  2
TABLES
  0
TABLE
  2
VPORT
  5
8
330
0
100
AcDbSymbolTable
 70
1
  0
VPORT
  5
B3
330
8
100
AcDbSymbolTableRecord
100
AcDbViewportTableRecord
  2
*Active
 70
0
 10
0.0
 20
0.0
 11
1.0
 21
1.0
 12
-25.76867071161996
 22
-424.03233593066307
 13
0.0
 23
0.0
 14
0.5
 24
0.5
 15
0.5
 25
0.5
 16
0.0
 26
0.0
 36
1.0
 17
0.0
 27
0.0
 37
0.0
 40
9965.731679477116
 41
1.34
 42
50.0
 43
0.0
 44
0.0
 50
0.0
 51
0.0
 71
0
 72
1000
 73
1
 74
3
 75
0
 76
0
 77
0
 78
0
281
0
 65
1
110
0.0
120
0.0
130
0.0
111
1.0
121
0.0
131
0.0
112
0.0
122
1.0
132
0.0
 79
0
146
0.0
  0
ENDTAB
  0
TABLE
  2
LTYPE
  5
2
330
0
100
AcDbSymbolTable
 70
3
  0
LTYPE
  5
24
330
2
100
AcDbSymbolTableRecord
100
AcDbLinetypeTableRecord
  2
ByBlock
 70
0
  3

 72
65
 73
0
 40
0.0
  0
LTYPE
  5
25
330
2
100
AcDbSymbolTableRecord
100
AcDbLinetypeTableRecord
  2
ByLayer
 70
0
  3

 72
65
 73
0
 40
0.0
  0
LTYPE
  5
26
330
2
100
AcDbSymbolTableRecord
100
AcDbLinetypeTableRecord
  2
Continuous
 70
0
  3

 72
65
 73
0
 40
0.0
  0
ENDTAB
  0
TABLE
  2
LAYER
  5
1
330
0
100
AcDbSymbolTable
 70
3
  0
LAYER
  5
27
330
1
100
AcDbSymbolTableRecord
100
AcDbLayerTableRecord
  2
0
 70
0
 62
7
  6
Continuous
370
-3
390
13
347
21
  0
LAYER
  5
28
330
1
100
AcDbSymbolTableRecord
100
AcDbLayerTableRecord
  2
Defpoints
 70
0
 62
7
  6
Continuous
290
0
370
-3
390
13
347
21
  0
LAYER
  5
2F
330
1
100
AcDbSymbolTableRecord
100
AcDbLayerTableRecord
  2
visible
 70
0
 62
7
  6
Continuous
370
-3
390
13
347
21
  0
ENDTAB
  0
TABLE
  2
STYLE
  5
5
330
0
100
AcDbSymbolTable
 70
1
  0
STYLE
  5
29
330
5
100
AcDbSymbolTableRecord
100
AcDbTextStyleTableRecord
  2
Standard
 70
0
 40
0.0
 41
1.0
 50
0.0
 71
0
 42
2.5
  3
txt
  4

  0
ENDTAB
  0
TABLE
  2
VIEW
  5
7
330
0
100
AcDbSymbolTable
 70
0
  0
ENDTAB
  0
TABLE
  2
UCS
  5
6
330
0
100
AcDbSymbolTable
 70
0
  0
ENDTAB
  0
TABLE
  2
APPID
  5
3
330
0
100
AcDbSymbolTable
 70
3
  0
APPID
  5
2A
330
3
100
AcDbSymbolTableRecord
100
AcDbRegAppTableRecord
  2
ACAD
 70
0
  0
APPID
  5
B4
330
3
100
AcDbSymbolTableRecord
100
AcDbRegAppTableRecord
  2
HATCHBACKGROUNDCOLOR
 70
0
  0
APPID
  5
B5
330
3
100
AcDbSymbolTableRecord
100
AcDbRegAppTableRecord
  2
EZDXF
 70
0
  0
ENDTAB
  0
TABLE
  2
DIMSTYLE
  5
4
330
0
100
AcDbSymbolTable
 70
1
100
AcDbDimStyleTable
  0
DIMSTYLE
105
2B
330
4
100
AcDbSymbolTableRecord
100
AcDbDimStyleTableRecord
  2
Standard
 70
0
 40
1.0
 41
2.5
 42
0.625
 43
3.75
 44
1.25
 45
0.0
 46
0.0
 47
0.0
 48
0.0
 49
2.5
140
2.5
141
2.5
142
0.0
143
0.03937007874
144
1.0
145
0.0
146
1.0
147
0.625
148
0.0
 69
0
 70
0
 71
0
 72
0
 73
0
 74
0
 75
0
 76
0
 77
1
 78
8
 79
3
170
0
171
3
172
1
173
0
174
0
175
0
176
0
177
0
178
0
179
2
271
2
272
2
273
2
274
3
275
0
276
0
277
2
278
44
279
0
280
0
281
0
282
0
283
0
284
8
285
0
286
0
288
0
289
3
290
0
371
-2
372
-2
  0
ENDTAB
  0
TABLE
  2
BLOCK_RECORD
  5
9
330
0
100
AcDbSymbolTable
 70
2
  0
BLOCK_RECORD
  5
17
330
9
100
AcDbSymbolTableRecord
100
AcDbBlockTableRecord
  2
*Model_Space
340
1A
 70
0
280
1
281
0
  0
BLOCK_RECORD
  5
1B
330
9
100
AcDbSymbolTableRecord
100
AcDbBlockTableRecord
  2
*Paper_Space
340
1E
 70
0
280
1
281
0
  0
ENDTAB
  0
ENDSEC
  0
SECTION
  2
BLOCKS
  0
BLOCK
  5
18
330
17
100
AcDbEntity
  8
0
100
AcDbBlockBegin
  2
*Model_Space
 70
0
 10
0.0
 20
0.0
 30
0.0
  3
*Model_Space
  1

  0
ENDBLK
  5
19
330
17
100
AcDbEntity
  8
0
100
AcDbBlockEnd
  0
BLOCK
  5
1C
330
1B
100
AcDbEntity
  8
0
100
AcDbBlockBegin
  2
*Paper_Space
 70
0
 10
0.0
 20
0.0
 30
0.0
  3
*Paper_Space
  1

  0
ENDBLK
  5
1D
330
1B
100
AcDbEntity
  8
0
100
AcDbBlockEnd
  0
ENDSEC
  0
SECTION
  2
ENTITIES
  0
LINE
  5
30
330
17
100
AcDbEntity
  8
visible
100
AcDbLine
 10
1539.5609446978788
 20
-5272.477040605486
 30
0.0
 11
1539.5609446978788
 21
-5139.426078055813
 31
0.0
  0
LINE
  5
31
330
17
100
AcDbEntity
  8
visible
100
AcDbLine
 10
1539.5609446978788
 20
-5139.426078055813
 30
0.0
 11
1538.7800758884357
 21
-5138.97536341303
 31
0.0
  0
LINE
  5
32
330
17
100
AcDbEntity
  8
visible
100
AcDbLine
 10
1539.5609446978788
 20
-5272.477040605486
 30
0.0
 11
1526.2861749373471
 21
-5264.814891678167
 31
0.0
  0
LINE
  5
33
330
17
100
AcDbEntity
  8
visible
100
AcDbLine
 10
5715.647337599205
 20
-3729.807018457734
 30
0.0
 11
5715.647337599205
 21
-3596.756055908061
 31
0.0
  0
LINE
  5
34
330
17
100
AcDbEntity
  8
visible
100
AcDbLine
 10
5715.647337599205
 20
-3596.756055908061
 30
0.0
 11
5714.710295027873
 21
-3596.215198336721
 31
0.0
  0
LINE
  5
35
330
17
100
AcDbEntity
  8
visible
100
AcDbLine
 10
1539.5609446978788
 20
-5272.477040605486
 30
0.0
 11
5715.647337599205
 21
-3729.8070184577336
 31
0.0
  0
LINE
  5
36
330
17
100
AcDbEntity
  8
visible
100
AcDbLine
 10
1539.5609446978788
 20
-5139.426078055813
 30
0.0
 11
5715.647337599205
 21
-3596.756055908061
 31
0.0
  0
LINE
  5
37
330
17
100
AcDbEntity
  8
visible
100
AcDbLine
 10
1175.6760794974266
 20
-5406.898175669221
 30
0.0
 11
1175.6760794974266
 21
-2435.4266787265265
 31
0.0
  0
LINE
  5
38
330
17
100
AcDbEntity
  8
visible
100
AcDbLine
 10
1175.6760794974266
 20
-2435.4266787265265
 30
0.0
 11
-5757.189558261574
 21
1566.198205762009
 31
0.0
  0
LINE
  5
39
330
17
100
AcDbEntity
  8
visible
100
AcDbLine
 10
1175.6760794974266
 20
-5406.898175669221
 30
0.0
 11
-5757.189558261574
 21
-1405.2732911806856
 31
0.0
  0
LINE
  5
3A
330
17
100
AcDbEntity
  8
visible
100
AcDbLine
 10
-5757.189558261573
 20
-1405.2732911806856
 30
0.0
 11
-5757.189558261573
 21
1566.198205762009
 31
0.0
  0
LINE
  5
3B
330
17
100
AcDbEntity
  8
visible
100
AcDbLine
 10
-5351.137777351198
 20
-1507.4809492954018
 30
0.0
 11
-3790.649548560246
 21
-2408.189091433838
 31
0.0
  0
LINE
  5
3C
330
17
100
AcDbEntity
  8
visible
100
AcDbLine
 10
-5351.137777351198
 20
-1507.4809492954016
 30
0.0
 11
-5351.137777351198
 21
713.5831188671377
 31
0.0
  0
LINE
  5
3D
330
17
100
AcDbEntity
  8
visible
100
AcDbLine
 10
-5351.137777351198
 20
713.5831188671373
 30
0.0
 11
-3790.649548560246
 21
-187.1250232712987
 31
0.0
  0
LINE
  5
3E
330
17
100
AcDbEntity
  8
visible
100
AcDbLine
 10
-3790.6495485602463
 20
-2408.1890914338373
 30
0.0
 11
-3790.6495485602463
 21
-187.12502327129778
 31
0.0
  0
LINE
  5
3F
330
17
100
AcDbEntity
  8
visible
100
AcDbLine
 10
-3664.4611489542526
 20
-2481.0245777076425
 30
0.0
 11
-854.5828250544523
 21
-4102.87614829959
 31
0.0
  0
LINE
  5
40
330
17
100
AcDbEntity
  8
visible
100
AcDbLine
 10
-3664.461148954252
 20
-2481.024577707642
 30
0.0
 11
-3664.461148954252
 21
-259.96050954510247
 31
0.0
  0
LINE
  5
41
330
17
100
AcDbEntity
  8
visible
100
AcDbLine
 10
-854.5828250544523
 20
-4102.87614829959
 30
0.0
 11
-854.5828250544523
 21
-1881.8120801370505
 31
0.0
  0
LINE
  5
42
330
17
100
AcDbEntity
  8
visible
100
AcDbLine
 10
-3664.4611489542526
 20
-259.9605095451029
 30
0.0
 11
-854.5828250544523
 21
-1881.8120801370503
 31
0.0
  0
LINE
  5
43
330
17
100
AcDbEntity
  8
visible
100
AcDbLine
 10
-728.3944254484585
 20
-4175.711634573395
 30
0.0
 11
832.0938033424933
 21
-5076.41977671183
 31
0.0
  0
LINE
  5
44
330
17
100
AcDbEntity
  8
visible
100
AcDbLine
 10
-728.3944254484586
 20
-4175.711634573394
 30
0.0
 11
-728.3944254484586
 21
-1954.6475664108548
 31
0.0
  0
LINE
  5
45
330
17
100
AcDbEntity
  8
visible
100
AcDbLine
 10
832.0938033424933
 20
-5076.419776711829
 30
0.0
 11
832.0938033424933
 21
-2855.3557085492903
 31
0.0
  0
LINE
  5
46
330
17
100
AcDbEntity
  8
visible
100
AcDbLine
 10
-728.3944254484585
 20
-1954.647566410855
 30
0.0
 11
832.0938033424933
 21
-2855.3557085492907
 31
0.0
  0
LINE
  5
47
330
17
100
AcDbEntity
  8
visible
100
AcDbLine
 10
1175.6760794974266
 20
-5406.898175669221
 30
0.0
 11
1331.0689725765897
 21
-5349.495158764322
 31
0.0
  0
LINE
  5
48
330
17
100
AcDbEntity
  8
visible
100
AcDbLine
 10
1331.0689725765897
 20
-5349.495158764321
 30
0.0
 11
1331.0689725765897
 21
-2378.0236618216263
 31
0.0
  0
LINE
  5
49
330
17
100
AcDbEntity
  8
visible
100
AcDbLine
 10
1175.6760794974266
 20
-2435.4266787265265
 30
0.0
 11
1331.0689725765897
 21
-2378.023661821627
 31
0.0
  0
LINE
  5
4A
330
17
100
AcDbEntity
  8
visible
100
AcDbLine
 10
-5757.189558261573
 20
1566.198205762009
 30
0.0
 11
-5601.796665182411
 21
1623.6012226669084
 31
0.0
  0
LINE
  5
4B
330
17
100
AcDbEntity
  8
visible
100
AcDbLine
 10
1331.0689725765897
 20
-2378.023661821627
 30
0.0
 11
-5601.796665182411
 21
1623.6012226669086
 31
0.0
  0
LINE
  5
4C
330
17
100
AcDbEntity
  8
visible
100
AcDbLine
 10
-5351.137777351198
 20
-1507.4809492954018
 30
0.0
 11
-5195.744884272034
 21
-1450.0779323905022
 31
0.0
  0
LINE
  5
4D
330
17
100
AcDbEntity
  8
visible
100
AcDbLine
 10
-5195.744884272035
 20
-1450.0779323905022
 30
0.0
 11
-3790.6495485602463
 21
-2261.0938606150326
 31
0.0
  0
LINE
  5
4E
330
17
100
AcDbEntity
  8
visible
100
AcDbLine
 10
-5195.744884272035
 20
-1450.077932390502
 30
0.0
 11
-5195.744884272035
 21
623.8909049532317
 31
0.0
  0
LINE
  5
4F
330
17
100
AcDbEntity
  8
visible
100
AcDbLine
 10
-3664.461148954252
 20
-2481.024577707642
 30
0.0
 11
-3509.068255875089
 21
-2423.6215608027424
 31
0.0
  0
LINE
  5
50
330
17
100
AcDbEntity
  8
visible
100
AcDbLine
 10
-3509.0682558750896
 20
-2423.6215608027424
 30
0.0
 11
-854.5828250544523
 21
-3955.7809174807844
 31
0.0
  0
LINE
  5
51
330
17
100
AcDbEntity
  8
visible
100
AcDbLine
 10
-3509.0682558750896
 20
-2423.6215608027424
 30
0.0
 11
-3509.0682558750896
 21
-349.6527234590085
 31
0.0
  0
LINE
  5
52
330
17
100
AcDbEntity
  8
visible
100
AcDbLine
 10
-728.3944254484584
 20
-4175.711634573394
 30
0.0
 11
-573.0015323692954
 21
-4118.308617668495
 31
0.0
  0
LINE
  5
53
330
17
100
AcDbEntity
  8
visible
100
AcDbLine
 10
-573.0015323692955
 20
-4118.308617668495
 30
0.0
 11
832.0938033424932
 21
-4929.324545893025
 31
0.0
  0
LINE
  5
54
330
17
100
AcDbEntity
  8
visible
100
AcDbLine
 10
-573.0015323692955
 20
-4118.308617668495
 30
0.0
 11
-573.0015323692955
 21
-2044.3397803247608
 31
0.0
  0
LINE
  5
55
330
17
100
AcDbEntity
  8
visible
100
AcDbLine
 10
1331.8498413860327
 20
-5349.20670139294
 30
0.0
 11
1331.8498413860327
 21
-2377.7352044502454
 31
0.0
  0
LINE
  5
56
330
17
100
AcDbEntity
  8
visible
100
AcDbLine
 10
1331.8498413860327
 20
-2377.7352044502454
 30
0.0
 11
-5601.015796372968
 21
1623.88968003829
 31
0.0
  0
LINE
  5
57
330
17
100
AcDbEntity
  8
visible
100
AcDbLine
 10
1331.8498413860327
 20
-5349.20670139294
 30
0.0
 11
1331.0689725765897
 21
-5348.755986750157
 31
0.0
  0
LINE
  5
58
330
17
100
AcDbEntity
  8
visible
100
AcDbLine
 10
-5601.015796372968
 20
1623.1505080241254
 30
0.0
 11
-5601.015796372968
 21
1623.88968003829
 31
0.0
  0
LINE
  5
59
330
17
100
AcDbEntity
  8
visible
100
AcDbLine
 10
-5194.964015462592
 20
-1449.7894750191208
 30
0.0
 11
-3790.6495485602463
 21
-2260.3546886008676
 31
0.0
  0
LINE
  5
5A
330
17
100
AcDbEntity
  8
visible
100
AcDbLine
 10
-5194.964015462592
 20
-1449.7894750191206
 30
0.0
 11
-5194.964015462592
 21
623.4401903104485
 31
0.0
  0
LINE
  5
5B
330
17
100
AcDbEntity
  8
visible
100
AcDbLine
 10
-3508.2873870656467
 20
-2423.3331034313615
 30
0.0
 11
-854.5828250544523
 21
-3955.04174546662
 31
0.0
  0
LINE
  5
5C
330
17
100
AcDbEntity
  8
visible
100
AcDbLine
 10
-3508.2873870656467
 20
-2423.333103431361
 30
0.0
 11
-3508.2873870656467
 21
-350.10343810179165
 31
0.0
  0
LINE
  5
5D
330
17
100
AcDbEntity
  8
visible
100
AcDbLine
 10
-572.2206635598523
 20
-4118.020160297114
 30
0.0
 11
832.0938033424934
 21
-4928.58537387886
 31
0.0
  0
LINE
  5
5E
330
17
100
AcDbEntity
  8
visible
100
AcDbLine
 10
-572.2206635598527
 20
-4118.020160297113
 30
0.0
 11
-572.2206635598527
 21
-2044.7904949675435
 31
0.0
  0
LINE
  5
5F
330
17
100
AcDbEntity
  8
visible
100
AcDbLine
 10
1331.8498413860327
 20
-5349.20670139294
 30
0.0
 11
1526.2861749373474
 21
-5277.38081591897
 31
0.0
  0
LINE
  5
60
330
17
100
AcDbEntity
  8
visible
100
AcDbLine
 10
1526.2861749373474
 20
-5277.38081591897
 30
0.0
 11
1526.2861749373474
 21
-2305.9093189762757
 31
0.0
  0
LINE
  5
61
330
17
100
AcDbEntity
  8
visible
100
AcDbLine
 10
1331.8498413860327
 20
-2377.7352044502454
 30
0.0
 11
1526.2861749373474
 21
-2305.9093189762757
 31
0.0
  0
LINE
  5
62
330
17
100
AcDbEntity
  8
visible
100
AcDbLine
 10
-5601.015796372968
 20
1623.88968003829
 30
0.0
 11
-5514.183184762903
 21
1655.9661397359023
 31
0.0
  0
LINE
  5
63
330
17
100
AcDbEntity
  8
visible
100
AcDbLine
 10
1526.2861749373474
 20
-2305.9093189762757
 30
0.0
 11
1525.3491323660157
 21
-2305.3684614049357
 31
0.0
  0
LINE
  5
64
330
17
100
AcDbEntity
  8
visible
100
AcDbLine
 10
-5194.964015462591
 20
-1449.7894750191208
 30
0.0
 11
-5103.29001723398
 21
-1415.9245796189439
 31
0.0
  0
LINE
  5
65
330
17
100
AcDbEntity
  8
visible
100
AcDbLine
 10
-3508.287387065646
 20
-2423.333103431361
 30
0.0
 11
-3416.6133888370346
 21
-2389.4682080311845
 31
0.0
  0
LINE
  5
66
330
17
100
AcDbEntity
  8
visible
100
AcDbLine
 10
-572.2206635598524
 20
-4118.020160297114
 30
0.0
 11
-480.54666533124066
 21
-4084.1552648969364
 31
0.0
  0
LINE
  5
67
330
17
100
AcDbEntity
  8
visible
100
AcDbLine
 10
1527.0670437467904
 20
-5144.041395997916
 30
0.0
 11
1526.2861749373474
 21
-5143.590681355133
 31
0.0
  0
LINE
  5
68
330
17
100
AcDbEntity
  8
visible
100
AcDbLine
 10
1527.0670437467904
 20
-5144.041395997916
 30
0.0
 11
1527.0670437467904
 21
-2305.6208616048943
 31
0.0
  0
LINE
  5
69
330
17
100
AcDbEntity
  8
visible
100
AcDbLine
 10
1527.0670437467904
 20
-2305.6208616048943
 30
0.0
 11
1526.1300011754588
 21
-2305.0800040335544
 31
0.0
  0
LINE
  5
6A
330
17
100
AcDbEntity
  8
visible
100
AcDbLine
 10
1527.0670437467904
 20
-5144.041395997916
 30
0.0
 11
1538.780075888436
 21
-5139.714535427195
 31
0.0
  0
LINE
  5
6B
330
17
100
AcDbEntity
  8
visible
100
AcDbLine
 10
1538.7800758884357
 20
-5139.714535427195
 30
0.0
 11
1538.7800758884357
 21
-2301.2940010341736
 31
0.0
  0
LINE
  5
6C
330
17
100
AcDbEntity
  8
visible
100
AcDbLine
 10
1527.0670437467904
 20
-2305.6208616048943
 30
0.0
 11
1538.780075888436
 21
-2301.294001034173
 31
0.0
  0
LINE
  5
6D
330
17
100
AcDbEntity
  8
visible
100
AcDbLine
 10
1538.7800758884357
 20
-2301.294001034173
 30
0.0
 11
1527.0670437467902
 21
-2294.5332813924215
 31
0.0
  0
LINE
  5
6E
330
17
100
AcDbEntity
  8
visible
100
AcDbLine
 10
1417.745410424766
 20
-2345.117887181293
 30
0.0
 11
1417.745410424766
 21
-2257.304251898509
 31
0.0
  0
LINE
  5
6F
330
17
100
AcDbEntity
  8
visible
100
AcDbLine
 10
1417.745410424766
 20
-2257.304251898509
 30
0.0
 11
-5515.120227334234
 21
1744.3206325900264
 31
0.0
  0
LINE
  5
70
330
17
100
AcDbEntity
  8
visible
100
AcDbLine
 10
-5515.120227334234
 20
1656.5069973072423
 30
0.0
 11
-5515.120227334234
 21
1744.3206325900264
 31
0.0
  0
LINE
  5
71
330
17
100
AcDbEntity
  8
visible
100
AcDbLine
 10
1417.745410424766
 20
-2345.117887181293
 30
0.0
 11
-5515.120227334234
 21
1656.5069973072423
 31
0.0
  0
LINE
  5
72
330
17
100
AcDbEntity
  8
visible
100
AcDbLine
 10
1527.0670437467904
 20
-2304.7338551878966
 30
0.0
 11
1527.0670437467904
 21
-2216.9202199051124
 31
0.0
  0
LINE
  5
73
330
17
100
AcDbEntity
  8
visible
100
AcDbLine
 10
1527.0670437467904
 20
-2216.9202199051124
 30
0.0
 11
-5405.79859401221
 21
1784.704664583423
 31
0.0
  0
LINE
  5
74
330
17
100
AcDbEntity
  8
visible
100
AcDbLine
 10
1417.745410424766
 20
-2345.117887181293
 30
0.0
 11
1527.0670437467902
 21
-2304.7338551878966
 31
0.0
  0
LINE
  5
75
330
17
100
AcDbEntity
  8
visible
100
AcDbLine
 10
1417.745410424766
 20
-2257.304251898509
 30
0.0
 11
1527.0670437467902
 21
-2216.9202199051124
 31
0.0
  0
LINE
  5
76
330
17
100
AcDbEntity
  8
visible
100
AcDbLine
 10
-5515.120227334234
 20
1744.3206325900264
 30
0.0
 11
-5405.79859401221
 21
1784.704664583423
 31
0.0
  0
LINE
  5
77
330
17
100
AcDbEntity
  8
visible
100
AcDbLine
 10
-5757.189558261573
 20
-1257.438888347716
 30
0.0
 11
-5767.184679022445
 21
-1251.6697409200876
 31
0.0
  0
LINE
  5
78
330
17
100
AcDbEntity
  8
visible
100
AcDbLine
 10
-5611.635612181393
 20
1630.0193991801443
 30
0.0
 11
-5767.184679022445
 21
1719.8017560226065
 31
0.0
  0
LINE
  5
79
330
17
100
AcDbEntity
  8
visible
100
AcDbLine
 10
-5611.635612181393
 20
1630.0193991801443
 30
0.0
 11
-5611.635612181393
 21
1619.9666597875025
 31
0.0
  0
LINE
  5
7A
330
17
100
AcDbEntity
  8
visible
100
AcDbLine
 10
-5767.184679022445
 20
1719.8017560226072
 30
0.0
 11
-5767.184679022445
 21
-1251.6697409200874
 31
0.0
  0
LINE
  5
7B
330
17
100
AcDbEntity
  8
visible
100
AcDbLine
 10
-1020.127012656375
 20
3326.148742902804
 30
0.0
 11
-1175.6760794974266
 21
3415.9310997452662
 31
0.0
  0
LINE
  5
7C
330
17
100
AcDbEntity
  8
visible
100
AcDbLine
 10
-1020.127012656375
 20
2854.2891181059
 30
0.0
 11
-1020.127012656375
 21
3326.1487429028043
 31
0.0
  0
LINE
  5
7D
330
17
100
AcDbEntity
  8
visible
100
AcDbLine
 10
-3315.8813124188837
 20
4469.051146965432
 30
0.0
 11
-5611.635612181393
 21
1630.0193991801443
 31
0.0
  0
LINE
  5
7E
330
17
100
AcDbEntity
  8
visible
100
AcDbLine
 10
-1020.127012656375
 20
3326.148742902804
 30
0.0
 11
-3315.881312418884
 21
4469.051146965432
 31
0.0
  0
LINE
  5
7F
330
17
100
AcDbEntity
  8
visible
100
AcDbLine
 10
-3471.4303792599358
 20
4558.833503807895
 30
0.0
 11
-5767.1846790224445
 21
1719.8017560226072
 31
0.0
  0
LINE
  5
80
330
17
100
AcDbEntity
  8
visible
100
AcDbLine
 10
-1175.676079497427
 20
3415.9310997452667
 30
0.0
 11
-3471.430379259936
 21
4558.833503807895
 31
0.0
  0
LINE
  5
81
330
17
100
AcDbEntity
  8
visible
100
AcDbLine
 10
-3315.8813124188837
 20
4469.051146965432
 30
0.0
 11
-3471.4303792599353
 21
4558.833503807894
 31
0.0
  0
LINE
  5
82
330
17
100
AcDbEntity
  8
visible
100
AcDbLine
 10
-3306.510886705568
 20
4463.64257125203
 30
0.0
 11
-5354.480686188714
 21
1755.0841544370924
 31
0.0
  0
LINE
  5
83
330
17
100
AcDbEntity
  8
visible
100
AcDbLine
 10
-1217.6868214454616
 20
3244.2989637733317
 30
0.0
 11
-3306.510886705568
 21
4463.642571252032
 31
0.0
  0
LINE
  5
84
330
17
100
AcDbEntity
  8
visible
100
AcDbLine
 10
-1217.6868214454616
 20
2967.876419521613
 30
0.0
 11
-1217.6868214454616
 21
3244.298963773331
 31
0.0
  0
LINE
  5
85
330
17
100
AcDbEntity
  8
visible
100
AcDbLine
 10
-3315.2566173713294
 20
4468.690575251205
 30
0.0
 11
-5363.226416854475
 21
1760.1321584362668
 31
0.0
  0
LINE
  5
86
330
17
100
AcDbEntity
  8
visible
100
AcDbLine
 10
-3306.510886705568
 20
4463.64257125203
 30
0.0
 11
-3315.25661737133
 21
4468.690575251205
 31
0.0
  0
LINE
  5
87
330
17
100
AcDbEntity
  8
visible
100
AcDbLine
 10
-482.42075047390404
 20
-4083.0735497542564
 30
0.0
 11
-482.42075047390404
 21
-2096.62267888764
 31
0.0
  0
LINE
  5
88
330
17
100
AcDbEntity
  8
visible
100
AcDbLine
 10
832.0938033424934
 20
-4841.8065794159065
 30
0.0
 11
-482.4207504739038
 21
-4083.073549754256
 31
0.0
  0
LINE
  5
89
330
17
100
AcDbEntity
  8
visible
100
AcDbLine
 10
-3418.487473979698
 20
-2388.3864928885037
 30
0.0
 11
-3418.487473979698
 21
-401.93562202188787
 31
0.0
  0
LINE
  5
8A
330
17
100
AcDbEntity
  8
visible
100
AcDbLine
 10
-854.5828250544523
 20
-3868.262951003666
 30
0.0
 11
-3418.487473979698
 21
-2388.386492888504
 31
0.0
  0
LINE
  5
8B
330
17
100
AcDbEntity
  8
visible
100
AcDbLine
 10
-5105.164102376643
 20
-1414.8428644762635
 30
0.0
 11
-5105.164102376643
 21
571.6080063903523
 31
0.0
  0
LINE
  5
8C
330
17
100
AcDbEntity
  8
visible
100
AcDbLine
 10
-3790.6495485602463
 20
-2173.575894137914
 30
0.0
 11
-5105.164102376644
 21
-1414.842864476263
 31
0.0
  0
LINE
  5
8D
330
17
100
AcDbEntity
  8
visible
100
AcDbLine
 10
3122.6156253938193
 20
-258.7900752945559
 30
0.0
 11
-1286.7156242002247
 21
2286.25991907284
 31
0.0
  0
LINE
  5
8E
330
17
100
AcDbEntity
  8
visible
100
AcDbLine
 10
-1286.715624200226
 20
113.09419742818318
 30
0.0
 11
-1286.715624200226
 21
2286.25991907284
 31
0.0
  0
LINE
  5
8F
330
17
100
AcDbEntity
  8
visible
100
AcDbLine
 10
1978.9304891495522
 20
-1771.8248871046362
 30
0.0
 11
-1286.7156242002247
 21
113.09419742818318
 31
0.0
  0
LINE
  5
90
330
17
100
AcDbEntity
  8
visible
100
AcDbLine
 10
-1286.715624200226
 20
2286.2599190728397
 30
0.0
 11
-1267.0377302022603
 21
2293.5290448316514
 31
0.0
  0
LINE
  5
91
330
17
100
AcDbEntity
  8
visible
100
AcDbLine
 10
3313.4000428979116
 20
-6.392403866790801
 30
0.0
 11
-1286.7156242002247
 21
2648.777663865218
 31
0.0
  0
LINE
  5
92
330
17
100
AcDbEntity
  8
visible
100
AcDbLine
 10
-1286.715624200226
 20
2304.8870538297942
 30
0.0
 11
-1286.715624200226
 21
2648.777663865218
 31
0.0
  0
LINE
  5
93
330
17
100
AcDbEntity
  8
visible
100
AcDbLine
 10
3132.418640847342
 20
-245.82120547904083
 30
0.0
 11
-1286.7156242002247
 21
2304.8870538297947
 31
0.0
  0
LINE
  5
94
330
17
100
AcDbEntity
  8
visible
100
AcDbLine
 10
5569.156348947691
 20
-976.518522484852
 30
0.0
 11
-936.105528760304
 21
2778.2950236154684
 31
0.0
  0
LINE
  5
95
330
17
100
AcDbEntity
  8
visible
100
AcDbLine
 10
-1286.715624200226
 20
2648.7776638652176
 30
0.0
 11
-936.1055287603056
 21
2778.2950236154684
 31
0.0
  0
LINE
  5
96
330
17
100
AcDbEntity
  8
visible
100
AcDbLine
 10
1539.5609446978788
 20
-2965.3733499941586
 30
0.0
 11
1538.7800758884357
 21
-2964.922635351375
 31
0.0
  0
LINE
  5
97
330
17
100
AcDbEntity
  8
visible
100
AcDbLine
 10
1539.5609446978788
 20
-2965.3733499941586
 30
0.0
 11
5715.647337599205
 21
-1422.7033278464066
 31
0.0
  0
LINE
  5
98
330
17
100
AcDbEntity
  8
visible
100
AcDbLine
 10
5715.647337599205
 20
-1033.5753905440943
 30
0.0
 11
5598.204668658973
 21
-965.7879082694642
 31
0.0
  0
LINE
  5
99
330
17
100
AcDbEntity
  8
visible
100
AcDbLine
 10
5715.647337599205
 20
-1422.7033278464064
 30
0.0
 11
5715.647337599205
 21
-1033.575390544094
 31
0.0
  0
LINE
  5
9A
330
17
100
AcDbEntity
  8
visible
100
AcDbLine
 10
5715.647337599205
 20
-1033.5753905440943
 30
0.0
 11
5365.037242159284
 21
-1163.092750294345
 31
0.0
  0
LINE
  5
9B
330
17
100
AcDbEntity
  8
visible
100
AcDbLine
 10
5598.204668658973
 20
-965.7879082694635
 30
0.0
 11
5248.401639964806
 21
-1095.007132981928
 31
0.0
  0
LINE
  5
9C
330
17
100
AcDbEntity
  8
visible
100
AcDbLine
 10
3451.90865902386
 20
-46.31075465964659
 30
0.0
 11
3334.465990083628
 21
21.47672761498349
 31
0.0
  0
LINE
  5
9D
330
17
100
AcDbEntity
  8
visible
100
AcDbLine
 10
5365.037242159284
 20
-1163.0927502943446
 30
0.0
 11
3451.9086590238594
 21
-46.31075465964682
 31
0.0
  0
LINE
  5
9E
330
17
100
AcDbEntity
  8
visible
100
AcDbLine
 10
1539.5609446978788
 20
-2576.245412691846
 30
0.0
 11
1538.7800758884357
 21
-2575.7946980490624
 31
0.0
  0
LINE
  5
9F
330
17
100
AcDbEntity
  8
visible
100
AcDbLine
 10
3451.90865902386
 20
-46.31075465964659
 30
0.0
 11
1539.5609446978788
 21
-2576.245412691845
 31
0.0
  0
LINE
  5
A0
330
17
100
AcDbEntity
  8
visible
100
AcDbLine
 10
3334.465990083628
 20
21.476727614983247
 30
0.0
 11
1538.7800758884357
 21
-2354.120552748775
 31
0.0
  0
LINE
  5
A1
330
17
100
AcDbEntity
  8
visible
100
AcDbLine
 10
1539.5609446978788
 20
-2576.245412691846
 30
0.0
 11
1539.5609446978788
 21
-2965.3733499941586
 31
0.0
  0
LINE
  5
A2
330
17
100
AcDbEntity
  8
visible
100
AcDbLine
 10
-4330.386069647268
 20
1163.9804585420634
 30
0.0
 11
-1269.224162868702
 21
2294.7910458314454
 31
0.0
  0
LINE
  5
A3
330
17
100
AcDbEntity
  8
visible
100
AcDbLine
 10
-937.3549188554143
 20
2806.5133659708554
 30
0.0
 11
-1217.2183001597964
 21
2968.049493944442
 31
0.0
  0
LINE
  5
A4
330
17
100
AcDbEntity
  8
visible
100
AcDbLine
 10
-937.3549188554143
 20
2777.833491821258
 30
0.0
 11
-937.3549188554143
 21
2806.5133659708545
 31
0.0
  0
LINE
  5
A5
330
17
100
AcDbEntity
  8
visible
100
AcDbLine
 10
-937.3549188554143
 20
2806.5133659708554
 30
0.0
 11
-1287.9650142953349
 21
2676.9960062206046
 31
0.0
  0
LINE
  5
A6
330
17
100
AcDbEntity
  8
visible
100
AcDbLine
 10
-1217.218300159796
 20
2968.0494939444416
 30
0.0
 11
-1565.9051727162182
 21
2839.242583645937
 31
0.0
  0
LINE
  5
A7
330
17
100
AcDbEntity
  8
visible
100
AcDbLine
 10
-3201.0935974307586
 20
3793.778001855302
 30
0.0
 11
-3480.9569787351406
 21
3955.314129828889
 31
0.0
  0
LINE
  5
A8
330
17
100
AcDbEntity
  8
visible
100
AcDbLine
 10
-1287.9650142953346
 20
2676.9960062206046
 30
0.0
 11
-3201.0935974307586
 21
3793.778001855302
 31
0.0
  0
LINE
  5
A9
330
17
100
AcDbEntity
  8
visible
100
AcDbLine
 10
-3201.0935974307586
 20
3793.778001855302
 30
0.0
 11
-4928.13226336935
 21
1508.9973921429523
 31
0.0
  0
LINE
  5
AA
330
17
100
AcDbEntity
  8
visible
100
AcDbLine
 10
-3480.95697873514
 20
3955.3141298288883
 30
0.0
 11
-5207.9956446737315
 21
1670.533520116538
 31
0.0
  0
LINE
  5
AB
330
17
100
AcDbEntity
  8
visible
100
AcDbLine
 10
1539.5609446978788
 20
-5138.539071638816
 30
0.0
 11
1539.5609446978788
 21
-2966.2603564111564
 31
0.0
  0
LINE
  5
AC
330
17
100
AcDbEntity
  8
visible
100
AcDbLine
 10
1539.5609446978788
 20
-2966.2603564111564
 30
0.0
 11
1538.7800758884357
 21
-2965.809641768373
 31
0.0
  0
LINE
  5
AD
330
17
100
AcDbEntity
  8
visible
100
AcDbLine
 10
1539.5609446978788
 20
-5138.539071638816
 30
0.0
 11
1538.7800758884357
 21
-5138.088356996032
 31
0.0
  0
LINE
  5
AE
330
17
100
AcDbEntity
  8
visible
100
AcDbLine
 10
5715.647337599205
 20
-3595.8690494910634
 30
0.0
 11
5715.647337599205
 21
-1423.5903342634042
 31
0.0
  0
LINE
  5
AF
330
17
100
AcDbEntity
  8
visible
100
AcDbLine
 10
5715.647337599205
 20
-1423.5903342634042
 30
0.0
 11
5714.710295027873
 21
-1423.0494766920642
 31
0.0
  0
LINE
  5
B0
330
17
100
AcDbEntity
  8
visible
100
AcDbLine
 10
1539.5609446978788
 20
-5138.539071638816
 30
0.0
 11
5715.647337599205
 21
-3595.8690494910634
 31
0.0
  0
LINE
  5
B1
330
17
100
AcDbEntity
  8
visible
100
AcDbLine
 10
1539.5609446978788
 20
-2966.2603564111564
 30
0.0
 11
5715.647337599205
 21
-1423.5903342634044
 31
0.0
  0
LINE
  5
B2
330
17
100
AcDbEntity
  8
visible
100
AcDbLine
 10
-2240.7811355777194
 20
-42.13192554643456
 30
0.0
 11
-1286.715624200226
 21
310.30529080736505
 31
0.0
  0
ENDSEC
  0
SECTION
  2
OBJECTS
  0
DICTIONARY
  5
A
330
0
100
AcDbDictionary
281
1
  3
ACAD_COLOR
350
B
  3
ACAD_GROUP
350
C
  3
ACAD_LAYOUT
350
D
  3
ACAD_MATERIAL
350
E
  3
ACAD_MLEADERSTYLE
350
F
  3
ACAD_MLINESTYLE
350
10
  3
ACAD_PLOTSETTINGS
350
11
  3
ACAD_PLOTSTYLENAME
350
12
  3
ACAD_SCALELIST
350
14
  3
ACAD_TABLESTYLE
350
15
  3
ACAD_VISUALSTYLE
350
16
  3
EZDXF_META
350
2D
  0
DICTIONARY
  5
B
330
A
100
AcDbDictionary
281
1
  0
DICTIONARY
  5
C
330
A
100
AcDbDictionary
281
1
  0
DICTIONARY
  5
D
330
A
100
AcDbDictionary
281
1
  3
Model
350
1A
  3
Layout1
350
1E
  0
DICTIONARY
  5
E
330
A
100
AcDbDictionary
281
1
  3
ByBlock
350
1F
  3
ByLayer
350
20
  3
Global
350
21
  0
DICTIONARY
  5
F
330
A
100
AcDbDictionary
281
1
  3
Standard
350
2C
  0
DICTIONARY
  5
10
330
A
100
AcDbDictionary
281
1
  3
Standard
350
22
  0
DICTIONARY
  5
11
330
A
100
AcDbDictionary
281
1
  0
ACDBDICTIONARYWDFLT
  5
12
330
A
100
AcDbDictionary
281
1
  3
Normal
350
13
100
AcDbDictionaryWithDefault
340
13
  0
ACDBPLACEHOLDER
  5
13
330
12
  0
DICTIONARY
  5
14
330
A
100
AcDbDictionary
281
1
  0
DICTIONARY
  5
15
330
A
100
AcDbDictionary
281
1
  0
DICTIONARY
  5
16
330
A
100
AcDbDictionary
281
1
  0
LAYOUT
  5
1A
330
D
100
AcDbPlotSettings
  1

  4
A3
  6

 40
7.5
 41
20.0
 42
7.5
 43
20.0
 44
420.0
 45
297.0
 46
0.0
 47
0.0
 48
0.0
 49
0.0
140
0.0
141
0.0
142
1.0
143
1.0
 70
1024
 72
1
 73
0
 74
5
  7

 75
16
 76
0
 77
2
 78
300
147
1.0
148
0.0
149
0.0
100
AcDbLayout
  1
Model
 70
1
 71
0
 10
0.0
 20
0.0
 11
420.0
 21
297.0
 12
0.0
 22
0.0
 32
0.0
 14
1e+20
 24
1e+20
 34
1e+20
 15
-1e+20
 25
-1e+20
 35
-1e+20
146
0.0
 13
0.0
 23
0.0
 33
0.0
 16
1.0
 26
0.0
 36
0.0
 17
0.0
 27
1.0
 37
0.0
 76
1
330
17
  0
LAYOUT
  5
1E
330
D
100
AcDbPlotSettings
  1

  4
A3
  6

 40
7.5
 41
20.0
 42
7.5
 43
20.0
 44
420.0
 45
297.0
 46
0.0
 47
0.0
 48
0.0
 49
0.0
140
0.0
141
0.0
142
1.0
143
1.0
 70
0
 72
1
 73
0
 74
5
  7

 75
16
 76
0
 77
2
 78
300
147
1.0
148
0.0
149
0.0
100
AcDbLayout
  1
Layout1
 70
1
 71
1
 10
0.0
 20
0.0
 11
420.0
 21
297.0
 12
0.0
 22
0.0
 32
0.0
 14
1e+20
 24
1e+20
 34
1e+20
 15
-1e+20
 25
-1e+20
 35
-1e+20
146
0.0
 13
0.0
 23
0.0
 33
0.0
 16
1.0
 26
0.0
 36
0.0
 17
0.0
 27
1.0
 37
0.0
 76
1
330
1B
  0
MATERIAL
  5
1F
102
{ACAD_REACTORS
330
E
102
}
330
E
100
AcDbMaterial
  1
ByBlock
  2

 70
0
 40
1.0
 71
1
 41
1.0
 91
-1023410177
 42
1.0
 72
1
  3

 73
1
 74
1
 75
1
 44
0.5
 73
0
 45
1.0
 46
1.0
 77
1
  4

 78
1
 79
1
170
1
 48
1.0
171
1
  6

172
1
173
1
174
1
140
1.0
141
1.0
175
1
  7

176
1
177
1
178
1
143
1.0
179
1
  8

270
1
271
1
272
1
145
1.0
146
1.0
273
1
  9

274
1
275
1
276
1
 42
1.0
 72
1
  3

 73
1
 74
1
 75
1
 94
63
  0
MATERIAL
  5
20
102
{ACAD_REACTORS
330
E
102
}
330
E
100
AcDbMaterial
  1
ByLayer
  2

 70
0
 40
1.0
 71
1
 41
1.0
 91
-1023410177
 42
1.0
 72
1
  3

 73
1
 74
1
 75
1
 44
0.5
 73
0
 45
1.0
 46
1.0
 77
1
  4

 78
1
 79
1
170
1
 48
1.0
171
1
  6

172
1
173
1
174
1
140
1.0
141
1.0
175
1
  7

176
1
177
1
178
1
143
1.0
179
1
  8

270
1
271
1
272
1
145
1.0
146
1.0
273
1
  9

274
1
275
1
276
1
 42
1.0
 72
1
  3

 73
1
 74
1
 75
1
 94
63
  0
MATERIAL
  5
21
102
{ACAD_REACTORS
330
E
102
}
330
E
100
AcDbMaterial
  1
Global
  2

 70
0
 40
1.0
 71
1
 41
1.0
 91
-1023410177
 42
1.0
 72
1
  3

 73
1
 74
1
 75
1
 44
0.5
 73
0
 45
1.0
 46
1.0
 77
1
  4

 78
1
 79
1
170
1
 48
1.0
171
1
  6

172
1
173
1
174
1
140
1.0
141
1.0
175
1
  7

176
1
177
1
178
1
143
1.0
179
1
  8

270
1
271
1
272
1
145
1.0
146
1.0
273
1
  9

274
1
275
1
276
1
 42
1.0
 72
1
  3

 73
1
 74
1
 75
1
 94
63
  0
MLINESTYLE
  5
22
102
{ACAD_REACTORS
330
10
102
}
330
10
100
AcDbMlineStyle
  2
Standard
 70
0
  3

 62
256
 51
90.0
 52
90.0
 71
2
 49
0.5
 62
256
  6
BYLAYER
 49
-0.5
 62
256
  6
BYLAYER
  0
MLEADERSTYLE
  5
2C
102
{ACAD_REACTORS
330
F
102
}
330
F
100
AcDbMLeaderStyle
179
2
170
2
171
1
172
0
 90
2
 40
0.0
 41
0.0
173
1
 91
-1056964608
 92
-2
290
1
 42
2.0
291
1
 43
8.0
  3
Standard
 44
4.0
300

342
29
174
1
175
1
176
0
178
1
 93
-1056964608
 45
4.0
292
0
297
0
 46
4.0
 94
-1056964608
 47
1.0
 49
1.0
140
1.0
294
1
141
0.0
177
0
142
1.0
295
0
296
0
143
3.75
271
0
272
9
273
9
  0
DICTIONARY
  5
2D
330
A
100
AcDbDictionary
280
1
281
1
  3
CREATED_BY_EZDXF
350
2E
  3
WRITTEN_BY_EZDXF
350
B6
  0
DICTIONARYVAR
  5
2E
330
2D
100
DictionaryVariables
280
0
  1
1.4.4 @ 2026-09-16T08:39:47.146497+00:00
  0
DICTIONARYVAR
  5
B6
330
2D
100
DictionaryVariables
280
0
  1
1.4.4 @ 2026-09-16T08:39:47.156563+00:00
  0
ENDSEC
  0
EOF
