  0
SECTION
  2
HEADER
  9
$ACADVER
  1
AC1027
  9
$ACADMAINTVER
 70
105
  9
$DWGCODEPAGE
  3
ANSI_1252
  9
$LASTSAVEDBY
  1
ezdxf
  9
$REQUIREDVERSIONS
160
0
  9
$INSBASE
 10
0.0
 20
0.0
 30
0.0
  9
$EXTMIN
 10
1e+20
 20
1e+20
 30
1e+20
  9
$EXTMAX
 10
-1e+20
 20
-1e+20
 30
-1e+20
  9
$LIMMIN
 10
0.0
 20
0.0
  9
$LIMMAX
 10
420.0
 20
297.0
  9
$ORTHOMODE
 70
0
  9
$REGENMODE
 70
1
  9
$FILLMODE
 70
1
  9
$QTEXTMODE
 70
0
  9
$MIRRTEXT
 70
1
  9
$LTSCALE
 40
1.0
  9
$ATTMODE
 70
1
  9
$TEXTSIZE
 40
2.5
  9
$TRACEWID
 40
1.0
  9
$TEXTSTYLE
  7
Standard
  9
$CLAYER
  8
0
  9
$CELTYPE
  6
ByLayer
  9
$CECOLOR
 62
256
  9
$CELTSCALE
 40
1.0
  9
$DISPSILH
 70
0
  9
$DIMSCALE
 40
1.0
  9
$DIMASZ
 40
2.5
  9
$DIMEXO
 40
0.625
  9
$DIMDLI
 40
3.75
  9
$DIMRND
 40
0.0
  9
$DIMDLE
 40
0.0
  9
$DIMEXE
 40
1.25
  9
$DIMTP
 40
0.0
  9
$DIMTM
 40
0.0
  9
$DIMTXT
 40
2.5
  9
$DIMCEN
 40
2.5
  9
$DIMTSZ
 40
0.0
  9
$DIMTOL
 70
0
  9
$DIMLIM
 70
0
  9
$DIMTIH
 70
0
  9
$DIMTOH
 70
0
  9
$DIMSE1
 70
0
  9
$DIMSE2
 70
0
  9
$DIMTAD
 70
1
  9
$DIMZIN
 70
8
  9
$DIMBLK
  1

  9
$DIMASO
 70
1
  9
$DIMSHO
 70
1
  9
$DIMPOST
  1

  9
$DIMAPOST
  1

  9
$DIMALT
 70
0
  9
$DIMALTD
 70
3
  9
$DIMALTF
 40
0.03937007874
  9
$DIMLFAC
 40
1.0
  9
$DIMTOFL
 70
1
  9
$DIMTVP
 40
0.0
  9
$DIMTIX
 70
0
  9
$DIMSOXD
 70
0
  9
$DIMSAH
 70
0
  9
$DIMBLK1
  1

  9
$DIMBLK2
  1

  9
$DIMSTYLE
  2
ISO-25
  9
$DIMCLRD
 70
0
  9
$DIMCLRE
 70
0
  9
$DIMCLRT
 70
0
  9
$DIMTFAC
 40
1.0
  9
$DIMGAP
 40
0.625
  9
$DIMJUST
 70
0
  9
$DIMSD1
 70
0
  9
$DIMSD2
 70
0
  9
$DIMTOLJ
 70
0
  9
$DIMTZIN
 70
8
  9
$DIMALTZ
 70
0
  9
$DIMALTTZ
 70
0
  9
$DIMUPT
 70
0
  9
$DIMDEC
 70
2
  9
$DIMTDEC
 70
2
  9
$DIMALTU
 70
2
  9
$DIMALTTD
 70
3
  9
$DIMTXSTY
  7
Standard
  9
$DIMAUNIT
 70
0
  9
$DIMADEC
 70
0
  9
$DIMALTRND
 40
0.0
  9
$DIMAZIN
 70
0
  9
$DIMDSEP
 70
44
  9
$DIMATFIT
 70
3
  9
$DIMFRAC
 70
0
  9
$DIMLDRBLK
  1

  9
$DIMLUNIT
 70
2
  9
$DIMLWD
 70
-2
  9
$DIMLWE
 70
-2
  9
$DIMTMOVE
 70
0
  9
$DIMFXL
 40
1.0
  9
$DIMFXLON
 70
0
  9
$DIMJOGANG
 40
0.785398163397
  9
$DIMTFILL
 70
0
  9
$DIMTFILLCLR
 70
0
  9
$DIMARCSYM
 70
0
  9
$DIMLTYPE
  6

  9
$DIMLTEX1
  6

  9
$DIMLTEX2
  6

  9
$DIMTXTDIRECTION
 70
0
  9
$LUNITS
 70
2
  9
$LUPREC
 70
4
  9
$SKETCHINC
 40
1.0
  9
$FILLETRAD
 40
10.0
  9
$AUNITS
 70
0
  9
$AUPREC
 70
2
  9
$MENU
  1
.
  9
$ELEVATION
 40
0.0
  9
$PELEVATION
 40
0.0
  9
$THICKNESS
 40
0.0
  9
$LIMCHECK
 70
0
  9
$CHAMFERA
 40
0.0
  9
$CHAMFERB
 40
0.0
  9
$CHAMFERC
 40
0.0
  9
$CHAMFERD
 40
0.0
  9
$SKPOLY
 70
0
  9
$TDCREATE
 40
2461303.351712963
  9
$TDUCREATE
 40
2458532.153996898
  9
$TDUPDATE
 40
2461303.351712963
  9
$TDUUPDATE
 40
2458532.1544311
  9
$TDINDWG
 40
0.0
  9
$TDUSRTIMER
 40
0.0
  9
$USRTIMER
 70
1
  9
$ANGBASE
 50
0.0
  9
$ANGDIR
 70
0
  9
$PDMODE
 70
0
  9
$PDSIZE
 40
0.0
  9
$PLINEWID
 40
0.0
  9
$SPLFRAME
 70
0
  9
$SPLINETYPE
 70
6
  9
$SPLINESEGS
 70
8
  9
$HANDSEED
  5
149
  9
$SURFTAB1
 70
6
  9
$SURFTAB2
 70
6
  9
$SURFTYPE
 70
6
  9
$SURFU
 70
6
  9
$SURFV
 70
6
  9
$UCSBASE
  2

  9
$UCSNAME
  2

  9
$UCSORG
 10
0.0
 20
0.0
 30
0.0
  9
$UCSXDIR
 10
1.0
 20
0.0
 30
0.0
  9
$UCSYDIR
 10
0.0
 20
1.0
 30
0.0
  9
$UCSORTHOREF
  2

  9
$UCSORTHOVIEW
 70
0
  9
$UCSORGTOP
 10
0.0
 20
0.0
 30
0.0
  9
$UCSORGBOTTOM
 10
0.0
 20
0.0
 30
0.0
  9
$UCSORGLEFT
 10
0.0
 20
0.0
 30
0.0
  9
$UCSORGRIGHT
 10
0.0
 20
0.0
 30
0.0
  9
$UCSORGFRONT
 10
0.0
 20
0.0
 30
0.0
  9
$UCSORGBACK
 10
0.0
 20
0.0
 30
0.0
  9
$PUCSBASE
  2

  9
$PUCSNAME
  2

  9
$PUCSORG
 10
0.0
 20
0.0
 30
0.0
  9
$PUCSXDIR
 10
1.0
 20
0.0
 30
0.0
  9
$PUCSYDIR
 10
0.0
 20
1.0
 30
0.0
  9
$PUCSORTHOREF
  2

  9
$PUCSORTHOVIEW
 70
0
  9
$PUCSORGTOP
 10
0.0
 20
0.0
 30
0.0
  9
$PUCSORGBOTTOM
 10
0.0
 20
0.0
 30
0.0
  9
$PUCSORGLEFT
 10
0.0
 20
0.0
 30
0.0
  9
$PUCSORGRIGHT
 10
0.0
 20
0.0
 30
0.0
  9
$PUCSORGFRONT
 10
0.0
 20
0.0
 30
0.0
  9
$PUCSORGBACK
 10
0.0
 20
0.0
 30
0.0
  9
$USERI1
 70
0
  9
$USERI2
 70
0
  9
$USERI3
 70
0
  9
$USERI4
 70
0
  9
$USERI5
 70
0
  9
$USERR1
 40
0.0
  9
$USERR2
 40
0.0
  9
$USERR3
 40
0.0
  9
$USERR4
 40
0.0
  9
$USERR5
 40
0.0
  9
$WORLDVIEW
 70
1
  9
$SHADEDGE
 70
3
  9
$SHADEDIF
 70
70
  9
$TILEMODE
 70
1
  9
$MAXACTVP
 70
64
  9
$PINSBASE
 10
0.0
 20
0.0
 30
0.0
  9
$PLIMCHECK
 70
0
  9
$PEXTMIN
 10
1e+20
 20
1e+20
 30
1e+20
  9
$PEXTMAX
 10
-1e+20
 20
-1e+20
 30
-1e+20
  9
$PLIMMIN
 10
0.0
 20
0.0
  9
$PLIMMAX
 10
420.0
 20
297.0
  9
$UNITMODE
 70
0
  9
$VISRETAIN
 70
1
  9
$PLINEGEN
 70
0
  9
$PSLTSCALE
 70
1
  9
$TREEDEPTH
 70
3020
  9
$CMLSTYLE
  2
Standard
  9
$CMLJUST
 70
0
  9
$CMLSCALE
 40
20.0
  9
$PROXYGRAPHICS
 70
1
  9
$MEASUREMENT
 70
1
  9
$CELWEIGHT
370
-1
  9
$ENDCAPS
280
0
  9
$JOINSTYLE
280
0
  9
$LWDISPLAY
290
0
  9
$INSUNITS
 70
4
  9
$HYPERLINKBASE
  1

  9
$STYLESHEET
  1

  9
$XEDIT
290
1
  9
$CEPSNTYPE
380
0
  9
$PSTYLEMODE
290
1
  9
$FINGERPRINTGUID
  2
{C08F9B94-6C0E-44AB-889B-5367E58D3708}
  9
$VERSIONGUID
  2
{9F77BFB9-0E7B-417F-9095-94DFA76D9B05}
  9
$EXTNAMES
290
1
  9
$PSVPSCALE
 40
0.0
  9
$OLESTARTUP
290
0
  9
$SORTENTS
280
127
  9
$INDEXCTL
280
0
  9
$HIDETEXT
280
1
  9
$XCLIPFRAME
280
1
  9
$HALOGAP
280
0
  9
$OBSCOLOR
 70
257
  9
$OBSLTYPE
280
0
  9
$INTERSECTIONDISPLAY
280
0
  9
$INTERSECTIONCOLOR
 70
257
  9
$DIMASSOC
280
2
  9
$PROJECTNAME
  1

  9
$CAMERADISPLAY
290
0
  9
$LENSLENGTH
 40
50.0
  9
$CAMERAHEIGHT
 40
0.0
  9
$STEPSPERSEC
 40
24.0
  9
$STEPSIZE
 40
100.0
  9
$3DDWFPREC
 40
2.0
  9
$PSOLWIDTH
 40
0.005
  9
$PSOLHEIGHT
 40
0.08
  9
$LOFTANG1
 40
1.570796326795
  9
$LOFTANG2
 40
1.570796326795
  9
$LOFTMAG1
 40
0.0
  9
$LOFTMAG2
 40
0.0
  9
$LOFTPARAM
 70
7
  9
$LOFTNORMALS
280
1
  9
$LATITUDE
 40
37.795
  9
$LONGITUDE
 40
-122.394
  9
$NORTHDIRECTION
 40
0.0
  9
$TIMEZONE
 70
-8000
  9
$LIGHTGLYPHDISPLAY
280
1
  9
$TILEMODELIGHTSYNCH
280
1
  9
$CMATERIAL
347
20
  9
$SOLIDHIST
280
0
  9
$SHOWHIST
280
1
  9
$DWFFRAME
280
2
  9
$DGNFRAME
280
2
  9
$REALWORLDSCALE
290
1
  9
$INTERFERECOLOR
 62
256
  9
$CSHADOW
280
0
  9
$SHADOWPLANELOCATION
 40
0.0
  0
ENDSEC
  0
SECTION
  2
CLASSES
  0
CLASS
  1
ACDBDICTIONARYWDFLT
  2
AcDbDictionaryWithDefault
  3
ObjectDBX Classes
 90
0
 91
0
280
0
281
0
  0
CLASS
  1
SUN
  2
AcDbSun
  3
SCENEOE
 90
1153
 91
0
280
0
281
0
  0
CLASS
  1
VISUALSTYLE
  2
AcDbVisualStyle
  3
ObjectDBX Classes
 90
4095
 91
0
280
0
281
0
  0
CLASS
  1
MATERIAL
  2
AcDbMaterial
  3
ObjectDBX Classes
 90
1153
 91
0
280
0
281
0
  0
CLASS
  1
SCALE
  2
AcDbScale
  3
ObjectDBX Classes
 90
1153
 91
0
280
0
281
0
  0
CLASS
  1
TABLESTYLE
  2
AcDbTableStyle
  3
ObjectDBX Classes
 90
4095
 91
0
280
0
281
0
  0
CLASS
  1
MLEADERSTYLE
  2
AcDbMLeaderStyle
  3
ACDB_MLEADERSTYLE_CLASS
 90
4095
 91
0
280
0
281
0
  0
CLASS
  1
DICTIONARYVAR
  2
AcDbDictionaryVar
  3
ObjectDBX Classes
 90
0
 91
0
280
0
281
0
  0
CLASS
  1
CELLSTYLEMAP
  2
AcDbCellStyleMap
  3
ObjectDBX Classes
 90
1152
 91
0
280
0
281
0
  0
CLASS
  1
MENTALRAYRENDERSETTINGS
  2
AcDbMentalRayRenderSettings
  3
SCENEOE
 90
1024
 91
0
280
0
281
0
  0
CLASS
  1
ACDBDETAILVIEWSTYLE
  2
AcDbDetailViewStyle
  3
ObjectDBX Classes
 90
1025
 91
0
280
0
281
0
  0
CLASS
  1
ACDBSECTIONVIEWSTYLE
  2
AcDbSectionViewStyle
  3
ObjectDBX Classes
 90
1025
 91
0
280
0
281
0
  0
CLASS
  1
RASTERVARIABLES
  2
AcDbRasterVariables
  3
ISM
 90
0
 91
0
280
0
281
0
  0
CLASS
  1
LAYOUT
  2
AcDbLayout
  3
ObjectDBX Classes
 90
0
 91
0
280
0
281
0
  0
CLASS
  1
ACDBPLACEHOLDER
  2
AcDbPlaceHolder
  3
ObjectDBX Classes
 90
0
 91
0
280
0
281
0
  0
ENDSEC
  0
SECTION
  2
TABLES
  0
TABLE
  2
VPORT
  5
8
330
0
100
AcDbSymbolTable
 70
1
  0
VPORT
  5
145
330
8
100
AcDbSymbolTableRecord
100
AcDbViewportTableRecord
  2
*Active
 70
0
 10
0.0
 20
0.0
 11
1.0
 21
1.0
 12
78.0868809443009
 22
-395.186598792523
 13
0.0
 23
0.0
 14
0.5
 24
0.5
 15
0.5
 25
0.5
 16
0.0
 26
0.0
 36
1.0
 17
0.0
 27
0.0
 37
0.0
 40
10003.952281185153
 41
1.34
 42
50.0
 43
0.0
 44
0.0
 50
0.0
 51
0.0
 71
0
 72
1000
 73
1
 74
3
 75
0
 76
0
 77
0
 78
0
281
0
 65
1
110
0.0
120
0.0
130
0.0
111
1.0
121
0.0
131
0.0
112
0.0
122
1.0
132
0.0
 79
0
146
0.0
  0
ENDTAB
  0
TABLE
  2
LTYPE
  5
2
330
0
100
AcDbSymbolTable
 70
3
  0
LTYPE
  5
24
330
2
100
AcDbSymbolTableRecord
100
AcDbLinetypeTableRecord
  2
ByBlock
 70
0
  3

 72
65
 73
0
 40
0.0
  0
LTYPE
  5
25
330
2
100
AcDbSymbolTableRecord
100
AcDbLinetypeTableRecord
  2
ByLayer
 70
0
  3

 72
65
 73
0
 40
0.0
  0
LTYPE
  5
26
330
2
100
AcDbSymbolTableRecord
100
AcDbLinetypeTableRecord
  2
Continuous
 70
0
  3

 72
65
 73
0
 40
0.0
  0
ENDTAB
  0
TABLE
  2
LAYER
  5
1
330
0
100
AcDbSymbolTable
 70
3
  0
LAYER
  5
27
330
1
100
AcDbSymbolTableRecord
100
AcDbLayerTableRecord
  2
0
 70
0
 62
7
  6
Continuous
370
-3
390
13
347
21
  0
LAYER
  5
28
330
1
100
AcDbSymbolTableRecord
100
AcDbLayerTableRecord
  2
Defpoints
 70
0
 62
7
  6
Continuous
290
0
370
-3
390
13
347
21
  0
LAYER
  5
2F
330
1
100
AcDbSymbolTableRecord
100
AcDbLayerTableRecord
  2
visible
 70
0
 62
7
  6
Continuous
370
-3
390
13
347
21
  0
ENDTAB
  0
TABLE
  2
STYLE
  5
5
330
0
100
AcDbSymbolTable
 70
1
  0
STYLE
  5
29
330
5
100
AcDbSymbolTableRecord
100
AcDbTextStyleTableRecord
  2
Standard
 70
0
 40
0.0
 41
1.0
 50
0.0
 71
0
 42
2.5
  3
txt
  4

  0
ENDTAB
  0
TABLE
  2
VIEW
  5
7
330
0
100
AcDbSymbolTable
 70
0
  0
ENDTAB
  0
TABLE
  2
UCS
  5
6
330
0
100
AcDbSymbolTable
 70
0
  0
ENDTAB
  0
TABLE
  2
APPID
  5
3
330
0
100
AcDbSymbolTable
 70
3
  0
APPID
  5
2A
330
3
100
AcDbSymbolTableRecord
100
AcDbRegAppTableRecord
  2
ACAD
 70
0
  0
APPID
  5
146
330
3
100
AcDbSymbolTableRecord
100
AcDbRegAppTableRecord
  2
HATCHBACKGROUNDCOLOR
 70
0
  0
APPID
  5
147
330
3
100
AcDbSymbolTableRecord
100
AcDbRegAppTableRecord
  2
EZDXF
 70
0
  0
ENDTAB
  0
TABLE
  2
DIMSTYLE
  5
4
330
0
100
AcDbSymbolTable
 70
1
100
AcDbDimStyleTable
  0
DIMSTYLE
105
2B
330
4
100
AcDbSymbolTableRecord
100
AcDbDimStyleTableRecord
  2
Standard
 70
0
 40
1.0
 41
2.5
 42
0.625
 43
3.75
 44
1.25
 45
0.0
 46
0.0
 47
0.0
 48
0.0
 49
2.5
140
2.5
141
2.5
142
0.0
143
0.03937007874
144
1.0
145
0.0
146
1.0
147
0.625
148
0.0
 69
0
 70
0
 71
0
 72
0
 73
0
 74
0
 75
0
 76
0
 77
1
 78
8
 79
3
170
0
171
3
172
1
173
0
174
0
175
0
176
0
177
0
178
0
179
2
271
2
272
2
273
2
274
3
275
0
276
0
277
2
278
44
279
0
280
0
281
0
282
0
283
0
284
8
285
0
286
0
288
0
289
3
290
0
371
-2
372
-2
  0
ENDTAB
  0
TABLE
  2
BLOCK_RECORD
  5
9
330
0
100
AcDbSymbolTable
 70
2
  0
BLOCK_RECORD
  5
17
330
9
100
AcDbSymbolTableRecord
100
AcDbBlockTableRecord
  2
*Model_Space
340
1A
 70
0
280
1
281
0
  0
BLOCK_RECORD
  5
1B
330
9
100
AcDbSymbolTableRecord
100
AcDbBlockTableRecord
  2
*Paper_Space
340
1E
 70
0
280
1
281
0
  0
ENDTAB
  0
ENDSEC
  0
SECTION
  2
BLOCKS
  0
BLOCK
  5
18
330
17
100
AcDbEntity
  8
0
100
AcDbBlockBegin
  2
*Model_Space
 70
0
 10
0.0
 20
0.0
 30
0.0
  3
*Model_Space
  1

  0
ENDBLK
  5
19
330
17
100
AcDbEntity
  8
0
100
AcDbBlockEnd
  0
BLOCK
  5
1C
330
1B
100
AcDbEntity
  8
0
100
AcDbBlockBegin
  2
*Paper_Space
 70
0
 10
0.0
 20
0.0
 30
0.0
  3
*Paper_Space
  1

  0
ENDBLK
  5
1D
330
1B
100
AcDbEntity
  8
0
100
AcDbBlockEnd
  0
ENDSEC
  0
SECTION
  2
ENTITIES
  0
LINE
  5
30
330
17
100
AcDbEntity
  8
visible
100
AcDbLine
 10
1622.645386022616
 20
-5030.086311433693
 30
0.0
 11
2237.032965292392
 21
-4803.128051630803
 31
0.0
  0
LINE
  5
31
330
17
100
AcDbEntity
  8
visible
100
AcDbLine
 10
-2396.642549942549
 20
47.830717153140085
 30
0.0
 11
-1732.9040619159741
 21
293.0194828273336
 31
0.0
  0
LINE
  5
32
330
17
100
AcDbEntity
  8
visible
100
AcDbLine
 10
1092.591638172687
 20
-5358.942137677063
 30
0.0
 11
1092.591638172687
 21
-2387.4706407343688
 31
0.0
  0
LINE
  5
33
330
17
100
AcDbEntity
  8
visible
100
AcDbLine
 10
1092.591638172687
 20
-2387.4706407343688
 30
0.0
 11
-5840.273999586314
 21
1614.1542437541666
 31
0.0
  0
LINE
  5
34
330
17
100
AcDbEntity
  8
visible
100
AcDbLine
 10
1092.591638172687
 20
-5358.942137677063
 30
0.0
 11
-5840.273999586314
 21
-1357.317253188528
 31
0.0
  0
LINE
  5
35
330
17
100
AcDbEntity
  8
visible
100
AcDbLine
 10
-5840.273999586313
 20
-1357.317253188528
 30
0.0
 11
-5840.273999586313
 21
1614.1542437541666
 31
0.0
  0
LINE
  5
36
330
17
100
AcDbEntity
  8
visible
100
AcDbLine
 10
-5434.222218675937
 20
-1459.5249113032442
 30
0.0
 11
-3873.7339898849855
 21
-2360.23305344168
 31
0.0
  0
LINE
  5
37
330
17
100
AcDbEntity
  8
visible
100
AcDbLine
 10
-5434.222218675937
 20
-1459.524911303244
 30
0.0
 11
-5434.222218675937
 21
761.5391568592954
 31
0.0
  0
LINE
  5
38
330
17
100
AcDbEntity
  8
visible
100
AcDbLine
 10
-5434.222218675937
 20
761.539156859295
 30
0.0
 11
-3873.7339898849855
 21
-139.168985279141
 31
0.0
  0
LINE
  5
39
330
17
100
AcDbEntity
  8
visible
100
AcDbLine
 10
-3873.733989884986
 20
-2360.2330534416797
 30
0.0
 11
-3873.733989884986
 21
-139.1689852791401
 31
0.0
  0
LINE
  5
3A
330
17
100
AcDbEntity
  8
visible
100
AcDbLine
 10
-3747.545590278992
 20
-2433.068539715484
 30
0.0
 11
-937.6672663791919
 21
-4054.920110307431
 31
0.0
  0
LINE
  5
3B
330
17
100
AcDbEntity
  8
visible
100
AcDbLine
 10
-3747.5455902789918
 20
-2433.0685397154843
 30
0.0
 11
-3747.5455902789918
 21
-212.00447155294478
 31
0.0
  0
LINE
  5
3C
330
17
100
AcDbEntity
  8
visible
100
AcDbLine
 10
-937.6672663791919
 20
-4054.9201103074315
 30
0.0
 11
-937.6672663791919
 21
-1833.856042144892
 31
0.0
  0
LINE
  5
3D
330
17
100
AcDbEntity
  8
visible
100
AcDbLine
 10
-3747.545590278992
 20
-212.00447155294523
 30
0.0
 11
-937.6672663791919
 21
-1833.8560421448926
 31
0.0
  0
LINE
  5
3E
330
17
100
AcDbEntity
  8
visible
100
AcDbLine
 10
-811.4788667731981
 20
-4127.755596581237
 30
0.0
 11
749.0093620177537
 21
-5028.463738719673
 31
0.0
  0
LINE
  5
3F
330
17
100
AcDbEntity
  8
visible
100
AcDbLine
 10
-811.4788667731982
 20
-4127.755596581236
 30
0.0
 11
-811.4788667731982
 21
-1906.691528418697
 31
0.0
  0
LINE
  5
40
330
17
100
AcDbEntity
  8
visible
100
AcDbLine
 10
749.0093620177537
 20
-5028.463738719672
 30
0.0
 11
749.0093620177537
 21
-2807.3996705571326
 31
0.0
  0
LINE
  5
41
330
17
100
AcDbEntity
  8
visible
100
AcDbLine
 10
-811.4788667731981
 20
-1906.6915284186973
 30
0.0
 11
749.0093620177537
 21
-2807.399670557133
 31
0.0
  0
LINE
  5
42
330
17
100
AcDbEntity
  8
visible
100
AcDbLine
 10
1092.591638172687
 20
-5358.942137677063
 30
0.0
 11
1247.98453125185
 21
-5301.539120772164
 31
0.0
  0
LINE
  5
43
330
17
100
AcDbEntity
  8
visible
100
AcDbLine
 10
1247.98453125185
 20
-5301.539120772163
 30
0.0
 11
1247.98453125185
 21
-2330.0676238294686
 31
0.0
  0
LINE
  5
44
330
17
100
AcDbEntity
  8
visible
100
AcDbLine
 10
1092.591638172687
 20
-2387.4706407343688
 30
0.0
 11
1247.98453125185
 21
-2330.067623829469
 31
0.0
  0
LINE
  5
45
330
17
100
AcDbEntity
  8
visible
100
AcDbLine
 10
-5840.273999586313
 20
1614.1542437541666
 30
0.0
 11
-5684.88110650715
 21
1671.557260659066
 31
0.0
  0
LINE
  5
46
330
17
100
AcDbEntity
  8
visible
100
AcDbLine
 10
1247.98453125185
 20
-2330.067623829469
 30
0.0
 11
-5684.88110650715
 21
1671.5572606590663
 31
0.0
  0
LINE
  5
47
330
17
100
AcDbEntity
  8
visible
100
AcDbLine
 10
-5434.222218675937
 20
-1459.5249113032442
 30
0.0
 11
-5278.829325596774
 21
-1402.1218943983445
 31
0.0
  0
LINE
  5
48
330
17
100
AcDbEntity
  8
visible
100
AcDbLine
 10
-5278.829325596775
 20
-1402.1218943983445
 30
0.0
 11
-3873.733989884986
 21
-2213.137822622875
 31
0.0
  0
LINE
  5
49
330
17
100
AcDbEntity
  8
visible
100
AcDbLine
 10
-5278.829325596775
 20
-1402.1218943983442
 30
0.0
 11
-5278.829325596775
 21
671.8469429453894
 31
0.0
  0
LINE
  5
4A
330
17
100
AcDbEntity
  8
visible
100
AcDbLine
 10
-3747.5455902789918
 20
-2433.0685397154843
 30
0.0
 11
-3592.1526971998287
 21
-2375.6655228105847
 31
0.0
  0
LINE
  5
4B
330
17
100
AcDbEntity
  8
visible
100
AcDbLine
 10
-3592.152697199829
 20
-2375.6655228105847
 30
0.0
 11
-937.6672663791919
 21
-3907.8248794886267
 31
0.0
  0
LINE
  5
4C
330
17
100
AcDbEntity
  8
visible
100
AcDbLine
 10
-3592.152697199829
 20
-2375.6655228105847
 30
0.0
 11
-3592.152697199829
 21
-301.6966854668508
 31
0.0
  0
LINE
  5
4D
330
17
100
AcDbEntity
  8
visible
100
AcDbLine
 10
-811.478866773198
 20
-4127.755596581236
 30
0.0
 11
-656.085973694035
 21
-4070.352579676337
 31
0.0
  0
LINE
  5
4E
330
17
100
AcDbEntity
  8
visible
100
AcDbLine
 10
-656.0859736940351
 20
-4070.352579676337
 30
0.0
 11
749.0093620177536
 21
-4881.368507900867
 31
0.0
  0
LINE
  5
4F
330
17
100
AcDbEntity
  8
visible
100
AcDbLine
 10
-656.0859736940351
 20
-4070.3525796763374
 30
0.0
 11
-656.0859736940351
 21
-1996.383742332603
 31
0.0
  0
LINE
  5
50
330
17
100
AcDbEntity
  8
visible
100
AcDbLine
 10
1248.7654000612931
 20
-5301.250663400782
 30
0.0
 11
1248.7654000612931
 21
-2329.7791664580877
 31
0.0
  0
LINE
  5
51
330
17
100
AcDbEntity
  8
visible
100
AcDbLine
 10
1248.7654000612931
 20
-2329.7791664580877
 30
0.0
 11
-5684.100237697708
 21
1671.8457180304476
 31
0.0
  0
LINE
  5
52
330
17
100
AcDbEntity
  8
visible
100
AcDbLine
 10
1248.7654000612931
 20
-5301.250663400782
 30
0.0
 11
1247.98453125185
 21
-5300.799948757999
 31
0.0
  0
LINE
  5
53
330
17
100
AcDbEntity
  8
visible
100
AcDbLine
 10
-5684.100237697708
 20
1671.1065460162831
 30
0.0
 11
-5684.100237697708
 21
1671.8457180304476
 31
0.0
  0
LINE
  5
54
330
17
100
AcDbEntity
  8
visible
100
AcDbLine
 10
-5278.048456787332
 20
-1401.833437026963
 30
0.0
 11
-3873.733989884986
 21
-2212.39865060871
 31
0.0
  0
LINE
  5
55
330
17
100
AcDbEntity
  8
visible
100
AcDbLine
 10
-5278.048456787332
 20
-1401.8334370269629
 30
0.0
 11
-5278.048456787332
 21
671.3962283026062
 31
0.0
  0
LINE
  5
56
330
17
100
AcDbEntity
  8
visible
100
AcDbLine
 10
-3591.3718283903863
 20
-2375.3770654392038
 30
0.0
 11
-937.6672663791919
 21
-3907.085707474462
 31
0.0
  0
LINE
  5
57
330
17
100
AcDbEntity
  8
visible
100
AcDbLine
 10
-3591.3718283903863
 20
-2375.3770654392033
 30
0.0
 11
-3591.3718283903863
 21
-302.14740010963396
 31
0.0
  0
LINE
  5
58
330
17
100
AcDbEntity
  8
visible
100
AcDbLine
 10
-655.3051048845919
 20
-4070.064122304956
 30
0.0
 11
749.0093620177538
 21
-4880.629335886702
 31
0.0
  0
LINE
  5
59
330
17
100
AcDbEntity
  8
visible
100
AcDbLine
 10
-655.3051048845923
 20
-4070.0641223049556
 30
0.0
 11
-655.3051048845923
 21
-1996.8344569753858
 31
0.0
  0
LINE
  5
5A
330
17
100
AcDbEntity
  8
visible
100
AcDbLine
 10
1248.7654000612931
 20
-5301.250663400782
 30
0.0
 11
1259.3852158697182
 21
-5297.327643149995
 31
0.0
  0
LINE
  5
5B
330
17
100
AcDbEntity
  8
visible
100
AcDbLine
 10
1248.7654000612931
 20
-2329.7791664580877
 30
0.0
 11
1270.9768790188134
 21
-2321.5741200314674
 31
0.0
  0
LINE
  5
5C
330
17
100
AcDbEntity
  8
visible
100
AcDbLine
 10
-5684.100237697708
 20
1671.8457180304476
 30
0.0
 11
-5597.267626087642
 21
1703.92217772806
 31
0.0
  0
LINE
  5
5D
330
17
100
AcDbEntity
  8
visible
100
AcDbLine
 10
-5278.048456787331
 20
-1401.833437026963
 30
0.0
 11
-5186.374458558719
 21
-1367.9685416267862
 31
0.0
  0
LINE
  5
5E
330
17
100
AcDbEntity
  8
visible
100
AcDbLine
 10
-3591.3718283903854
 20
-2375.3770654392033
 30
0.0
 11
-3499.697830161774
 21
-2341.512170039027
 31
0.0
  0
LINE
  5
5F
330
17
100
AcDbEntity
  8
visible
100
AcDbLine
 10
-655.305104884592
 20
-4070.0641223049556
 30
0.0
 11
-563.6311066559803
 21
-4036.1992269047787
 31
0.0
  0
LINE
  5
60
330
17
100
AcDbEntity
  8
visible
100
AcDbLine
 10
1334.6609691000265
 20
-2242.8195452984114
 30
0.0
 11
1334.6609691000265
 21
-2209.3482139063512
 31
0.0
  0
LINE
  5
61
330
17
100
AcDbEntity
  8
visible
100
AcDbLine
 10
1334.6609691000265
 20
-2209.3482139063512
 30
0.0
 11
-5598.204668658974
 21
1792.2766705821841
 31
0.0
  0
LINE
  5
62
330
17
100
AcDbEntity
  8
visible
100
AcDbLine
 10
-5598.204668658974
 20
1704.4630352994
 30
0.0
 11
-5598.204668658974
 21
1792.2766705821841
 31
0.0
  0
LINE
  5
63
330
17
100
AcDbEntity
  8
visible
100
AcDbLine
 10
1304.7011710145825
 20
-2279.869162468076
 30
0.0
 11
-5598.204668658974
 21
1704.4630352994
 31
0.0
  0
LINE
  5
64
330
17
100
AcDbEntity
  8
visible
100
AcDbLine
 10
1410.1667212977736
 20
-2149.445778056861
 30
0.0
 11
-5488.883035336949
 21
1832.6607025755807
 31
0.0
  0
LINE
  5
65
330
17
100
AcDbEntity
  8
visible
100
AcDbLine
 10
1334.6609691000265
 20
-2209.3482139063512
 30
0.0
 11
1373.2562597461251
 21
-2195.0908944272755
 31
0.0
  0
LINE
  5
66
330
17
100
AcDbEntity
  8
visible
100
AcDbLine
 10
-5598.204668658974
 20
1792.2766705821841
 30
0.0
 11
-5488.883035336949
 21
1832.6607025755807
 31
0.0
  0
LINE
  5
67
330
17
100
AcDbEntity
  8
visible
100
AcDbLine
 10
1414.93428271077
 20
-5397.1627393850995
 30
0.0
 11
1259.3852158697184
 21
-5307.380382542638
 31
0.0
  0
LINE
  5
68
330
17
100
AcDbEntity
  8
visible
100
AcDbLine
 10
1414.93428271077
 20
-5397.1627393850995
 30
0.0
 11
6006.442882235788
 21
-3701.03339566244
 31
0.0
  0
LINE
  5
69
330
17
100
AcDbEntity
  8
visible
100
AcDbLine
 10
1414.93428271077
 20
-2425.691242442405
 30
0.0
 11
1259.3852158697184
 21
-2335.9088855999426
 31
0.0
  0
LINE
  5
6A
330
17
100
AcDbEntity
  8
visible
100
AcDbLine
 10
1414.93428271077
 20
-2425.691242442405
 30
0.0
 11
1414.93428271077
 21
-5397.1627393850995
 31
0.0
  0
LINE
  5
6B
330
17
100
AcDbEntity
  8
visible
100
AcDbLine
 10
1259.3852158697184
 20
-2335.9088855999426
 30
0.0
 11
1259.3852158697184
 21
-5307.380382542637
 31
0.0
  0
LINE
  5
6C
330
17
100
AcDbEntity
  8
visible
100
AcDbLine
 10
6006.442882235788
 20
-729.5618987197458
 30
0.0
 11
5850.893815394736
 21
-639.7795418772837
 31
0.0
  0
LINE
  5
6D
330
17
100
AcDbEntity
  8
visible
100
AcDbLine
 10
6006.442882235788
 20
-3701.03339566244
 30
0.0
 11
6006.442882235788
 21
-729.5618987197454
 31
0.0
  0
LINE
  5
6E
330
17
100
AcDbEntity
  8
visible
100
AcDbLine
 10
3710.688582473279
 20
413.34050534288326
 30
0.0
 11
1414.9342827107698
 21
-2425.6912424424045
 31
0.0
  0
LINE
  5
6F
330
17
100
AcDbEntity
  8
visible
100
AcDbLine
 10
6006.442882235788
 20
-729.5618987197458
 30
0.0
 11
3710.6885824732785
 21
413.3405053428828
 31
0.0
  0
LINE
  5
70
330
17
100
AcDbEntity
  8
visible
100
AcDbLine
 10
2401.9524578467604
 20
-4900.388665826329
 30
0.0
 11
1622.645386022616
 21
-5188.269122464971
 31
0.0
  0
LINE
  5
71
330
17
100
AcDbEntity
  8
visible
100
AcDbLine
 10
2401.9524578467604
 20
-4900.388665826329
 30
0.0
 11
2401.9524578467604
 21
-2723.6749185136805
 31
0.0
  0
LINE
  5
72
330
17
100
AcDbEntity
  8
visible
100
AcDbLine
 10
2401.9524578467604
 20
-2723.67491851368
 30
0.0
 11
1622.645386022616
 21
-3011.555375152322
 31
0.0
  0
LINE
  5
73
330
17
100
AcDbEntity
  8
visible
100
AcDbLine
 10
1622.645386022616
 20
-5188.269122464971
 30
0.0
 11
1622.645386022616
 21
-3011.555375152322
 31
0.0
  0
LINE
  5
74
330
17
100
AcDbEntity
  8
visible
100
AcDbLine
 10
3555.1395156322274
 20
503.1228621853452
 30
0.0
 11
1259.3852158697182
 21
-2335.9088855999426
 31
0.0
  0
LINE
  5
75
330
17
100
AcDbEntity
  8
visible
100
AcDbLine
 10
5850.8938153947365
 20
-639.779541877283
 30
0.0
 11
3555.1395156322274
 21
503.12286218534564
 31
0.0
  0
LINE
  5
76
330
17
100
AcDbEntity
  8
visible
100
AcDbLine
 10
2246.4033910057087
 20
-4810.606308983866
 30
0.0
 11
1622.645386022616
 21
-5041.026057243333
 31
0.0
  0
LINE
  5
77
330
17
100
AcDbEntity
  8
visible
100
AcDbLine
 10
2246.4033910057087
 20
-4810.606308983866
 30
0.0
 11
2246.4033910057087
 21
-2781.1356268928557
 31
0.0
  0
LINE
  5
78
330
17
100
AcDbEntity
  8
visible
100
AcDbLine
 10
3710.688582473279
 20
413.34050534288326
 30
0.0
 11
3555.1395156322274
 21
503.12286218534547
 31
0.0
  0
LINE
  5
79
330
17
100
AcDbEntity
  8
visible
100
AcDbLine
 10
2401.9524578467604
 20
-4900.388665826329
 30
0.0
 11
2246.4033910057087
 21
-4810.606308983867
 31
0.0
  0
LINE
  5
7A
330
17
100
AcDbEntity
  8
visible
100
AcDbLine
 10
-5840.273999586313
 20
-1209.4828503555584
 30
0.0
 11
-5850.269120347185
 21
-1203.71370292793
 31
0.0
  0
LINE
  5
7B
330
17
100
AcDbEntity
  8
visible
100
AcDbLine
 10
-5694.720053506133
 20
1677.975437172302
 30
0.0
 11
-5850.269120347185
 21
1767.7577940147642
 31
0.0
  0
LINE
  5
7C
330
17
100
AcDbEntity
  8
visible
100
AcDbLine
 10
-5694.720053506133
 20
1677.975437172302
 30
0.0
 11
-5694.720053506133
 21
1667.9226977796602
 31
0.0
  0
LINE
  5
7D
330
17
100
AcDbEntity
  8
visible
100
AcDbLine
 10
-5850.269120347185
 20
1767.7577940147648
 30
0.0
 11
-5850.269120347185
 21
-1203.7137029279297
 31
0.0
  0
LINE
  5
7E
330
17
100
AcDbEntity
  8
visible
100
AcDbLine
 10
-1103.2114539811146
 20
3374.1047808949616
 30
0.0
 11
-1258.7605208221662
 21
3463.887137737424
 31
0.0
  0
LINE
  5
7F
330
17
100
AcDbEntity
  8
visible
100
AcDbLine
 10
-1103.2114539811146
 20
2902.2451560980576
 30
0.0
 11
-1103.2114539811146
 21
3374.104780894962
 31
0.0
  0
LINE
  5
80
330
17
100
AcDbEntity
  8
visible
100
AcDbLine
 10
-3398.9657537436233
 20
4517.00718495759
 30
0.0
 11
-5694.720053506133
 21
1677.975437172302
 31
0.0
  0
LINE
  5
81
330
17
100
AcDbEntity
  8
visible
100
AcDbLine
 10
-1103.2114539811146
 20
3374.1047808949616
 30
0.0
 11
-3398.9657537436237
 21
4517.007184957591
 31
0.0
  0
LINE
  5
82
330
17
100
AcDbEntity
  8
visible
100
AcDbLine
 10
-1818.4872834309306
 20
270.5702878995759
 30
0.0
 11
-2406.325323179643
 21
53.41957872365472
 31
0.0
  0
LINE
  5
83
330
17
100
AcDbEntity
  8
visible
100
AcDbLine
 10
-1818.4872834309303
 20
270.57028789957656
 30
0.0
 11
-1818.4872834309303
 21
2170.538033108905
 31
0.0
  0
LINE
  5
84
330
17
100
AcDbEntity
  8
visible
100
AcDbLine
 10
-3554.5148205846754
 20
4606.789541800053
 30
0.0
 11
-5850.269120347184
 21
1767.7577940147648
 31
0.0
  0
LINE
  5
85
330
17
100
AcDbEntity
  8
visible
100
AcDbLine
 10
-1258.7605208221667
 20
3463.8871377374244
 30
0.0
 11
-3554.514820584676
 21
4606.7895418000535
 31
0.0
  0
LINE
  5
86
330
17
100
AcDbEntity
  8
visible
100
AcDbLine
 10
-1974.0363502719817
 20
360.3526447420378
 30
0.0
 11
-2504.4024456456887
 21
164.43239809978746
 31
0.0
  0
LINE
  5
87
330
17
100
AcDbEntity
  8
visible
100
AcDbLine
 10
-1974.0363502719824
 20
360.3526447420385
 30
0.0
 11
-1974.0363502719824
 21
2113.0773247297293
 31
0.0
  0
LINE
  5
88
330
17
100
AcDbEntity
  8
visible
100
AcDbLine
 10
-3398.9657537436233
 20
4517.00718495759
 30
0.0
 11
-3554.514820584675
 21
4606.789541800052
 31
0.0
  0
LINE
  5
89
330
17
100
AcDbEntity
  8
visible
100
AcDbLine
 10
-1818.4872834309306
 20
270.57028789957576
 30
0.0
 11
-1974.0363502719822
 21
360.3526447420379
 31
0.0
  0
LINE
  5
8A
330
17
100
AcDbEntity
  8
visible
100
AcDbLine
 10
3554.514820584673
 20
503.48343389957154
 30
0.0
 11
3541.3259845777175
 21
486.04043606647474
 31
0.0
  0
LINE
  5
8B
330
17
100
AcDbEntity
  8
visible
100
AcDbLine
 10
3555.137267876186
 20
503.12008251037605
 30
0.0
 11
3554.5148205846735
 21
503.48343389957176
 31
0.0
  0
LINE
  5
8C
330
17
100
AcDbEntity
  8
visible
100
AcDbLine
 10
2245.778695958154
 20
-4809.358730852642
 30
0.0
 11
2246.4033910057087
 21
-4809.127964955537
 31
0.0
  0
LINE
  5
8D
330
17
100
AcDbEntity
  8
visible
100
AcDbLine
 10
2245.7786959581545
 20
-4809.358730852642
 30
0.0
 11
2245.7786959581545
 21
-2781.3663927899615
 31
0.0
  0
LINE
  5
8E
330
17
100
AcDbEntity
  8
visible
100
AcDbLine
 10
3545.769089918911
 20
508.53143789874684
 30
0.0
 11
3347.9365498144666
 21
246.88647040215392
 31
0.0
  0
LINE
  5
8F
330
17
100
AcDbEntity
  8
visible
100
AcDbLine
 10
2237.032965292392
 20
-4804.310726853468
 30
0.0
 11
2237.032965292392
 21
-2784.597115349433
 31
0.0
  0
LINE
  5
90
330
17
100
AcDbEntity
  8
visible
100
AcDbLine
 10
3554.514820584673
 20
503.48343389957154
 30
0.0
 11
3545.769089918911
 21
508.5314378987461
 31
0.0
  0
LINE
  5
91
330
17
100
AcDbEntity
  8
visible
100
AcDbLine
 10
2237.032965292392
 20
-4804.310726853467
 30
0.0
 11
2245.778695958154
 21
-4809.358730852642
 31
0.0
  0
LINE
  5
92
330
17
100
AcDbEntity
  8
visible
100
AcDbLine
 10
-3389.5953280303074
 20
4511.598609244188
 30
0.0
 11
-5437.565127513453
 21
1803.04019242925
 31
0.0
  0
LINE
  5
93
330
17
100
AcDbEntity
  8
visible
100
AcDbLine
 10
-1300.7712627702012
 20
3292.2550017654894
 30
0.0
 11
-3389.5953280303074
 21
4511.59860924419
 31
0.0
  0
LINE
  5
94
330
17
100
AcDbEntity
  8
visible
100
AcDbLine
 10
-1300.7712627702012
 20
3015.832457513771
 30
0.0
 11
-1300.7712627702012
 21
3292.2550017654885
 31
0.0
  0
LINE
  5
95
330
17
100
AcDbEntity
  8
visible
100
AcDbLine
 10
-1809.1168577176145
 20
266.04871860317235
 30
0.0
 11
-1732.9040619159741
 21
294.2021580499977
 31
0.0
  0
LINE
  5
96
330
17
100
AcDbEntity
  8
visible
100
AcDbLine
 10
-1809.1168577176145
 20
266.04871860317235
 30
0.0
 11
-1809.1168577176145
 21
2173.9995215654817
 31
0.0
  0
LINE
  5
97
330
17
100
AcDbEntity
  8
visible
100
AcDbLine
 10
-3398.341058696069
 20
4516.6466132433625
 30
0.0
 11
-5446.310858179215
 21
1808.0881964284245
 31
0.0
  0
LINE
  5
98
330
17
100
AcDbEntity
  8
visible
100
AcDbLine
 10
-1817.862588383376
 20
271.09672260234674
 30
0.0
 11
-1817.862588383376
 21
2170.76879900601
 31
0.0
  0
LINE
  5
99
330
17
100
AcDbEntity
  8
visible
100
AcDbLine
 10
-3389.5953280303074
 20
4511.598609244188
 30
0.0
 11
-3398.3410586960695
 21
4516.6466132433625
 31
0.0
  0
LINE
  5
9A
330
17
100
AcDbEntity
  8
visible
100
AcDbLine
 10
-1817.8625883833763
 20
271.0967226023464
 30
0.0
 11
-1809.1168577176143
 21
266.04871860317184
 31
0.0
  0
LINE
  5
9B
330
17
100
AcDbEntity
  8
visible
100
AcDbLine
 10
-565.5051917986436
 20
-4035.1175117620987
 30
0.0
 11
-565.5051917986436
 21
-2048.6666408954825
 31
0.0
  0
LINE
  5
9C
330
17
100
AcDbEntity
  8
visible
100
AcDbLine
 10
749.0093620177537
 20
-4793.850541423749
 30
0.0
 11
-565.5051917986435
 21
-4035.1175117620983
 31
0.0
  0
LINE
  5
9D
330
17
100
AcDbEntity
  8
visible
100
AcDbLine
 10
-3501.5719153044374
 20
-2340.430454896346
 30
0.0
 11
-3501.5719153044374
 21
-353.9795840297302
 31
0.0
  0
LINE
  5
9E
330
17
100
AcDbEntity
  8
visible
100
AcDbLine
 10
-937.6672663791919
 20
-3820.306913011508
 30
0.0
 11
-3501.5719153044374
 21
-2340.4304548963464
 31
0.0
  0
LINE
  5
9F
330
17
100
AcDbEntity
  8
visible
100
AcDbLine
 10
-5188.248543701383
 20
-1366.8868264841058
 30
0.0
 11
-5188.248543701383
 21
619.56404438251
 31
0.0
  0
LINE
  5
A0
330
17
100
AcDbEntity
  8
visible
100
AcDbLine
 10
-3873.733989884986
 20
-2125.6198561457563
 30
0.0
 11
-5188.248543701384
 21
-1366.8868264841053
 31
0.0
  0
LINE
  5
A1
330
17
100
AcDbEntity
  8
visible
100
AcDbLine
 10
3008.1246647693683
 20
-173.34000157596643
 30
0.0
 11
-1369.0191967155215
 21
2353.1315491933337
 31
0.0
  0
LINE
  5
A2
330
17
100
AcDbEntity
  8
visible
100
AcDbLine
 10
3229.992557093801
 20
101.03168976244638
 30
0.0
 11
-1336.2227067189142
 21
2736.6345677537083
 31
0.0
  0
LINE
  5
A3
330
17
100
AcDbEntity
  8
visible
100
AcDbLine
 10
3212.8768186398056
 20
79.86560728458358
 30
0.0
 11
-1369.0191967155215
 21
2724.5193581556896
 31
0.0
  0
LINE
  5
A4
330
17
100
AcDbEntity
  8
visible
100
AcDbLine
 10
-1336.2227067189156
 20
2736.6345677537092
 30
0.0
 11
-1369.0191967155229
 21
2724.51935815569
 31
0.0
  0
LINE
  5
A5
330
17
100
AcDbEntity
  8
visible
100
AcDbLine
 10
-1369.0191967155224
 20
2724.5193581556896
 30
0.0
 11
-1369.0191967155224
 21
2353.1315491933337
 31
0.0
  0
LINE
  5
A6
330
17
100
AcDbEntity
  8
visible
100
AcDbLine
 10
3230.807592258278
 20
102.03959845186887
 30
0.0
 11
3208.7461117632993
 21
114.77340492527696
 31
0.0
  0
LINE
  5
A7
330
17
100
AcDbEntity
  8
visible
100
AcDbLine
 10
3208.746111763299
 20
114.77340492527674
 30
0.0
 11
3208.746111763299
 21
113.29506089694695
 31
0.0
  0
LINE
  5
A8
330
17
100
AcDbEntity
  8
visible
100
AcDbLine
 10
3171.264408910033
 20
134.92936375055234
 30
0.0
 11
3171.264408910033
 21
136.4077077788823
 31
0.0
  0
LINE
  5
A9
330
17
100
AcDbEntity
  8
visible
100
AcDbLine
 10
3171.264408910034
 20
136.40770777888224
 30
0.0
 11
2818.3117070417843
 21
340.13072631699924
 31
0.0
  0
LINE
  5
AA
330
17
100
AcDbEntity
  8
visible
100
AcDbLine
 10
2818.3117070417834
 20
340.13072631699924
 30
0.0
 11
2818.3117070417834
 21
338.65238228866934
 31
0.0
  0
LINE
  5
AB
330
17
100
AcDbEntity
  8
visible
100
AcDbLine
 10
2780.830004188518
 20
360.28668514227473
 30
0.0
 11
2780.830004188518
 21
361.7650291706039
 31
0.0
  0
LINE
  5
AC
330
17
100
AcDbEntity
  8
visible
100
AcDbLine
 10
2780.8300041885186
 20
361.76502917060475
 30
0.0
 11
2427.8773023202693
 21
565.4880477087215
 31
0.0
  0
LINE
  5
AD
330
17
100
AcDbEntity
  8
visible
100
AcDbLine
 10
2427.8773023202684
 20
565.4880477087218
 30
0.0
 11
2427.8773023202684
 21
564.0097036803918
 31
0.0
  0
LINE
  5
AE
330
17
100
AcDbEntity
  8
visible
100
AcDbLine
 10
2390.3955994670027
 20
585.644006533997
 30
0.0
 11
2390.3955994670027
 21
587.1223505623263
 31
0.0
  0
LINE
  5
AF
330
17
100
AcDbEntity
  8
visible
100
AcDbLine
 10
2390.3955994670036
 20
587.122350562327
 30
0.0
 11
2037.442897598754
 21
790.845369100444
 31
0.0
  0
LINE
  5
B0
330
17
100
AcDbEntity
  8
visible
100
AcDbLine
 10
2037.4428975987535
 20
790.8453691004443
 30
0.0
 11
2037.4428975987535
 21
789.3670250721138
 31
0.0
  0
LINE
  5
B1
330
17
100
AcDbEntity
  8
visible
100
AcDbLine
 10
1999.9611947454878
 20
811.0013279257195
 30
0.0
 11
1999.9611947454878
 21
812.4796719540489
 31
0.0
  0
LINE
  5
B2
330
17
100
AcDbEntity
  8
visible
100
AcDbLine
 10
1999.9611947454882
 20
812.4796719540493
 30
0.0
 11
1647.0084928772385
 21
1016.2026904921663
 31
0.0
  0
LINE
  5
B3
330
17
100
AcDbEntity
  8
visible
100
AcDbLine
 10
1647.008492877238
 20
1016.2026904921668
 30
0.0
 11
1647.008492877238
 21
1014.7243464638366
 31
0.0
  0
LINE
  5
B4
330
17
100
AcDbEntity
  8
visible
100
AcDbLine
 10
1609.5267900239728
 20
1036.3586493174416
 30
0.0
 11
1609.5267900239728
 21
1037.8369933457714
 31
0.0
  0
LINE
  5
B5
330
17
100
AcDbEntity
  8
visible
100
AcDbLine
 10
1609.5267900239733
 20
1037.8369933457716
 30
0.0
 11
1256.5740881557235
 21
1241.5600118838888
 31
0.0
  0
LINE
  5
B6
330
17
100
AcDbEntity
  8
visible
100
AcDbLine
 10
1256.574088155723
 20
1241.5600118838893
 30
0.0
 11
1256.574088155723
 21
1240.0816678555586
 31
0.0
  0
LINE
  5
B7
330
17
100
AcDbEntity
  8
visible
100
AcDbLine
 10
1219.0923853024578
 20
1261.7159707091637
 30
0.0
 11
1219.0923853024578
 21
1263.1943147374939
 31
0.0
  0
LINE
  5
B8
330
17
100
AcDbEntity
  8
visible
100
AcDbLine
 10
1219.0923853024583
 20
1263.194314737494
 30
0.0
 11
866.1396834342086
 21
1466.9173332756113
 31
0.0
  0
LINE
  5
B9
330
17
100
AcDbEntity
  8
visible
100
AcDbLine
 10
866.1396834342077
 20
1466.9173332756118
 30
0.0
 11
866.1396834342077
 21
1465.4389892472814
 31
0.0
  0
LINE
  5
BA
330
17
100
AcDbEntity
  8
visible
100
AcDbLine
 10
828.6579805809424
 20
1487.0732921008864
 30
0.0
 11
828.6579805809424
 21
1488.5516361292164
 31
0.0
  0
LINE
  5
BB
330
17
100
AcDbEntity
  8
visible
100
AcDbLine
 10
828.6579805809424
 20
1488.5516361292166
 30
0.0
 11
475.70527871269314
 21
1692.2746546673334
 31
0.0
  0
LINE
  5
BC
330
17
100
AcDbEntity
  8
visible
100
AcDbLine
 10
475.70527871269223
 20
1692.2746546673325
 30
0.0
 11
475.70527871269223
 21
1690.7963106390037
 31
0.0
  0
LINE
  5
BD
330
17
100
AcDbEntity
  8
visible
100
AcDbLine
 10
438.223575859427
 20
1712.4306134926087
 30
0.0
 11
438.223575859427
 21
1713.9089575209389
 31
0.0
  0
LINE
  5
BE
330
17
100
AcDbEntity
  8
visible
100
AcDbLine
 10
438.2235758594279
 20
1713.9089575209387
 30
0.0
 11
85.27087399117772
 21
1917.631976059056
 31
0.0
  0
LINE
  5
BF
330
17
100
AcDbEntity
  8
visible
100
AcDbLine
 10
85.27087399117772
 20
1917.631976059055
 30
0.0
 11
85.27087399117772
 21
1916.1536320307262
 31
0.0
  0
LINE
  5
C0
330
17
100
AcDbEntity
  8
visible
100
AcDbLine
 10
47.78917113791158
 20
1937.7879348843317
 30
0.0
 11
47.78917113791158
 21
1939.2662789126614
 31
0.0
  0
LINE
  5
C1
330
17
100
AcDbEntity
  8
visible
100
AcDbLine
 10
47.78917113791249
 20
1939.2662789126612
 30
0.0
 11
-305.1635307303368
 21
2142.989297450778
 31
0.0
  0
LINE
  5
C2
330
17
100
AcDbEntity
  8
visible
100
AcDbLine
 10
-305.1635307303377
 20
2142.9892974507775
 30
0.0
 11
-305.1635307303377
 21
2141.510953422448
 31
0.0
  0
LINE
  5
C3
330
17
100
AcDbEntity
  8
visible
100
AcDbLine
 10
-342.64523358360293
 20
2163.1452562760533
 30
0.0
 11
-342.64523358360293
 21
2164.623600304384
 31
0.0
  0
LINE
  5
C4
330
17
100
AcDbEntity
  8
visible
100
AcDbLine
 10
-342.645233583602
 20
2164.623600304383
 30
0.0
 11
-695.5979354518522
 21
2368.346618842501
 31
0.0
  0
LINE
  5
C5
330
17
100
AcDbEntity
  8
visible
100
AcDbLine
 10
-695.5979354518531
 20
2368.3466188425
 30
0.0
 11
-695.5979354518531
 21
2366.8682748141705
 31
0.0
  0
LINE
  5
C6
330
17
100
AcDbEntity
  8
visible
100
AcDbLine
 10
-733.0796383051184
 20
2388.5025776677758
 30
0.0
 11
-733.0796383051184
 21
2389.980921696105
 31
0.0
  0
LINE
  5
C7
330
17
100
AcDbEntity
  8
visible
100
AcDbLine
 10
-733.0796383051174
 20
2389.9809216961057
 30
0.0
 11
-1086.0323401733676
 21
2593.703940234223
 31
0.0
  0
LINE
  5
C8
330
17
100
AcDbEntity
  8
visible
100
AcDbLine
 10
-1086.0323401733685
 20
2593.7039402342225
 30
0.0
 11
-1086.0323401733685
 21
2592.2255962058935
 31
0.0
  0
LINE
  5
C9
330
17
100
AcDbEntity
  8
visible
100
AcDbLine
 10
-1123.5140430266338
 20
2613.859899059498
 30
0.0
 11
-1123.5140430266338
 21
2615.3382430878273
 31
0.0
  0
LINE
  5
CA
330
17
100
AcDbEntity
  8
visible
100
AcDbLine
 10
-1123.5140430266329
 20
2615.3382430878282
 30
0.0
 11
-1334.6609691000276
 21
2737.2114824964715
 31
0.0
  0
LINE
  5
CB
330
17
100
AcDbEntity
  8
visible
100
AcDbLine
 10
-1334.6609691000294
 20
2737.211482496471
 30
0.0
 11
-1334.6609691000294
 21
2735.733138468142
 31
0.0
  0
LINE
  5
CC
330
17
100
AcDbEntity
  8
visible
100
AcDbLine
 10
-1019.1899700850454
 20
2853.7482605345585
 30
0.0
 11
-1334.6609691000297
 21
2737.211482496471
 31
0.0
  0
LINE
  5
CD
330
17
100
AcDbEntity
  8
visible
100
AcDbLine
 10
3393.2962148947936
 20
306.87724891277
 30
0.0
 11
-1019.1899700850436
 21
2853.7482605345585
 31
0.0
  0
LINE
  5
CE
330
17
100
AcDbEntity
  8
visible
100
AcDbLine
 10
3208.746111763299
 20
114.77340492527674
 30
0.0
 11
3254.8879769919977
 21
131.8184718988176
 31
0.0
  0
LINE
  5
CF
330
17
100
AcDbEntity
  8
visible
100
AcDbLine
 10
3171.264408910033
 20
136.40770777888247
 30
0.0
 11
3295.799729282923
 21
182.41176214049509
 31
0.0
  0
LINE
  5
D0
330
17
100
AcDbEntity
  8
visible
100
AcDbLine
 10
2818.3117070417834
 20
340.13072631699924
 30
0.0
 11
3122.069673915122
 21
452.3406437843657
 31
0.0
  0
LINE
  5
D1
330
17
100
AcDbEntity
  8
visible
100
AcDbLine
 10
3122.069673915122
 20
452.34064378436506
 30
0.0
 11
3084.5879710618565
 21
473.9749466379704
 31
0.0
  0
LINE
  5
D2
330
17
100
AcDbEntity
  8
visible
100
AcDbLine
 10
2780.830004188518
 20
361.76502917060407
 30
0.0
 11
3084.587971061857
 21
473.9749466379705
 31
0.0
  0
LINE
  5
D3
330
17
100
AcDbEntity
  8
visible
100
AcDbLine
 10
2427.8773023202684
 20
565.4880477087218
 30
0.0
 11
2731.635269193607
 21
677.6979651760881
 31
0.0
  0
LINE
  5
D4
330
17
100
AcDbEntity
  8
visible
100
AcDbLine
 10
2731.635269193607
 20
677.6979651760876
 30
0.0
 11
2694.153566340342
 21
699.332268029693
 31
0.0
  0
LINE
  5
D5
330
17
100
AcDbEntity
  8
visible
100
AcDbLine
 10
2390.3955994670027
 20
587.1223505623266
 30
0.0
 11
2694.1535663403415
 21
699.332268029693
 31
0.0
  0
LINE
  5
D6
330
17
100
AcDbEntity
  8
visible
100
AcDbLine
 10
2037.4428975987535
 20
790.8453691004443
 30
0.0
 11
2341.2008644720922
 21
903.0552865678106
 31
0.0
  0
LINE
  5
D7
330
17
100
AcDbEntity
  8
visible
100
AcDbLine
 10
2341.2008644720922
 20
903.0552865678101
 30
0.0
 11
2303.7191616188265
 21
924.6895894214155
 31
0.0
  0
LINE
  5
D8
330
17
100
AcDbEntity
  8
visible
100
AcDbLine
 10
1999.9611947454878
 20
812.4796719540491
 30
0.0
 11
2303.7191616188265
 21
924.6895894214155
 31
0.0
  0
LINE
  5
D9
330
17
100
AcDbEntity
  8
visible
100
AcDbLine
 10
1647.008492877238
 20
1016.2026904921668
 30
0.0
 11
1950.7664597505768
 21
1128.4126079595333
 31
0.0
  0
LINE
  5
DA
330
17
100
AcDbEntity
  8
visible
100
AcDbLine
 10
1950.7664597505768
 20
1128.4126079595326
 30
0.0
 11
1913.2847568973114
 21
1150.0469108131379
 31
0.0
  0
LINE
  5
DB
330
17
100
AcDbEntity
  8
visible
100
AcDbLine
 10
1609.5267900239728
 20
1037.8369933457716
 30
0.0
 11
1913.2847568973116
 21
1150.046910813138
 31
0.0
  0
LINE
  5
DC
330
17
100
AcDbEntity
  8
visible
100
AcDbLine
 10
1256.574088155723
 20
1241.5600118838893
 30
0.0
 11
1560.3320550290618
 21
1353.7699293512558
 31
0.0
  0
LINE
  5
DD
330
17
100
AcDbEntity
  8
visible
100
AcDbLine
 10
1560.3320550290618
 20
1353.769929351255
 30
0.0
 11
1522.8503521757964
 21
1375.4042322048604
 31
0.0
  0
LINE
  5
DE
330
17
100
AcDbEntity
  8
visible
100
AcDbLine
 10
1219.0923853024578
 20
1263.194314737494
 30
0.0
 11
1522.8503521757966
 21
1375.4042322048606
 31
0.0
  0
LINE
  5
DF
330
17
100
AcDbEntity
  8
visible
100
AcDbLine
 10
866.1396834342077
 20
1466.9173332756118
 30
0.0
 11
1169.8976503075464
 21
1579.1272507429783
 31
0.0
  0
LINE
  5
E0
330
17
100
AcDbEntity
  8
visible
100
AcDbLine
 10
1169.8976503075464
 20
1579.1272507429776
 30
0.0
 11
1132.415947454281
 21
1600.7615535965829
 31
0.0
  0
LINE
  5
E1
330
17
100
AcDbEntity
  8
visible
100
AcDbLine
 10
828.6579805809424
 20
1488.5516361292166
 30
0.0
 11
1132.4159474542812
 21
1600.761553596583
 31
0.0
  0
LINE
  5
E2
330
17
100
AcDbEntity
  8
visible
100
AcDbLine
 10
475.70527871269223
 20
1692.2746546673325
 30
0.0
 11
779.463245586031
 21
1804.484572134699
 31
0.0
  0
LINE
  5
E3
330
17
100
AcDbEntity
  8
visible
100
AcDbLine
 10
779.463245586031
 20
1804.4845721347
 30
0.0
 11
741.9815427327655
 21
1826.1188749883054
 31
0.0
  0
LINE
  5
E4
330
17
100
AcDbEntity
  8
visible
100
AcDbLine
 10
438.223575859427
 20
1713.908957520939
 30
0.0
 11
741.9815427327658
 21
1826.1188749883056
 31
0.0
  0
LINE
  5
E5
330
17
100
AcDbEntity
  8
visible
100
AcDbLine
 10
85.27087399117772
 20
1917.631976059055
 30
0.0
 11
389.0288408645165
 21
2029.8418935264215
 31
0.0
  0
LINE
  5
E6
330
17
100
AcDbEntity
  8
visible
100
AcDbLine
 10
389.0288408645165
 20
2029.8418935264226
 30
0.0
 11
351.54713801125104
 21
2051.476196380028
 31
0.0
  0
LINE
  5
E7
330
17
100
AcDbEntity
  8
visible
100
AcDbLine
 10
47.78917113791158
 20
1939.2662789126616
 30
0.0
 11
351.54713801125035
 21
2051.476196380028
 31
0.0
  0
LINE
  5
E8
330
17
100
AcDbEntity
  8
visible
100
AcDbLine
 10
-305.1635307303377
 20
2142.9892974507775
 30
0.0
 11
-1.4055638569989242
 21
2255.1992149181438
 31
0.0
  0
LINE
  5
E9
330
17
100
AcDbEntity
  8
visible
100
AcDbLine
 10
-1.4055638569989242
 20
2255.199214918145
 30
0.0
 11
-38.887266710264385
 21
2276.8335177717504
 31
0.0
  0
LINE
  5
EA
330
17
100
AcDbEntity
  8
visible
100
AcDbLine
 10
-342.64523358360293
 20
2164.623600304384
 30
0.0
 11
-38.88726671026416
 21
2276.8335177717504
 31
0.0
  0
LINE
  5
EB
330
17
100
AcDbEntity
  8
visible
100
AcDbLine
 10
-695.5979354518531
 20
2368.3466188425
 30
0.0
 11
-391.83996857851434
 21
2480.5565363098663
 31
0.0
  0
LINE
  5
EC
330
17
100
AcDbEntity
  8
visible
100
AcDbLine
 10
-391.83996857851434
 20
2480.556536309866
 30
0.0
 11
-429.3216714317798
 21
2502.190839163471
 31
0.0
  0
LINE
  5
ED
330
17
100
AcDbEntity
  8
visible
100
AcDbLine
 10
-733.0796383051184
 20
2389.980921696105
 30
0.0
 11
-429.3216714317796
 21
2502.190839163471
 31
0.0
  0
LINE
  5
EE
330
17
100
AcDbEntity
  8
visible
100
AcDbLine
 10
-1086.0323401733685
 20
2593.7039402342225
 30
0.0
 11
-782.2743733000298
 21
2705.9138577015888
 31
0.0
  0
LINE
  5
EF
330
17
100
AcDbEntity
  8
visible
100
AcDbLine
 10
-782.2743733000298
 20
2705.9138577015883
 30
0.0
 11
-819.7560761532952
 21
2727.5481605551936
 31
0.0
  0
LINE
  5
F0
330
17
100
AcDbEntity
  8
visible
100
AcDbLine
 10
-1123.5140430266338
 20
2615.3382430878273
 30
0.0
 11
-819.756076153295
 21
2727.5481605551936
 31
0.0
  0
LINE
  5
F1
330
17
100
AcDbEntity
  8
visible
100
AcDbLine
 10
3208.746111763299
 20
113.29506089694695
 30
0.0
 11
3208.746111763299
 21
114.77340492527688
 31
0.0
  0
LINE
  5
F2
330
17
100
AcDbEntity
  8
visible
100
AcDbLine
 10
3208.746111763299
 20
114.77340492527674
 30
0.0
 11
3171.264408910033
 21
136.40770777888207
 31
0.0
  0
LINE
  5
F3
330
17
100
AcDbEntity
  8
visible
100
AcDbLine
 10
3171.264408910033
 20
134.92936375055228
 30
0.0
 11
3171.264408910033
 21
136.4077077788826
 31
0.0
  0
LINE
  5
F4
330
17
100
AcDbEntity
  8
visible
100
AcDbLine
 10
3208.746111763299
 20
114.77340492527674
 30
0.0
 11
3254.8879769919977
 21
131.8184718988176
 31
0.0
  0
LINE
  5
F5
330
17
100
AcDbEntity
  8
visible
100
AcDbLine
 10
3171.264408910033
 20
136.40770777888247
 30
0.0
 11
3295.799729282923
 21
182.41176214049509
 31
0.0
  0
LINE
  5
F6
330
17
100
AcDbEntity
  8
visible
100
AcDbLine
 10
2818.3117070417834
 20
338.65238228866934
 30
0.0
 11
2818.3117070417834
 21
340.13072631699936
 31
0.0
  0
LINE
  5
F7
330
17
100
AcDbEntity
  8
visible
100
AcDbLine
 10
2818.3117070417834
 20
340.13072631699924
 30
0.0
 11
2780.8300041885177
 21
361.7650291706046
 31
0.0
  0
LINE
  5
F8
330
17
100
AcDbEntity
  8
visible
100
AcDbLine
 10
2780.830004188518
 20
360.2866851422747
 30
0.0
 11
2780.830004188518
 21
361.7650291706042
 31
0.0
  0
LINE
  5
F9
330
17
100
AcDbEntity
  8
visible
100
AcDbLine
 10
2818.3117070417834
 20
340.13072631699924
 30
0.0
 11
3122.069673915122
 21
452.3406437843657
 31
0.0
  0
LINE
  5
FA
330
17
100
AcDbEntity
  8
visible
100
AcDbLine
 10
2780.830004188518
 20
361.76502917060407
 30
0.0
 11
3084.587971061857
 21
473.9749466379705
 31
0.0
  0
LINE
  5
FB
330
17
100
AcDbEntity
  8
visible
100
AcDbLine
 10
2427.8773023202684
 20
564.0097036803918
 30
0.0
 11
2427.8773023202684
 21
565.4880477087219
 31
0.0
  0
LINE
  5
FC
330
17
100
AcDbEntity
  8
visible
100
AcDbLine
 10
2427.8773023202684
 20
565.4880477087218
 30
0.0
 11
2390.395599467003
 21
587.1223505623271
 31
0.0
  0
LINE
  5
FD
330
17
100
AcDbEntity
  8
visible
100
AcDbLine
 10
2390.3955994670027
 20
585.644006533997
 30
0.0
 11
2390.3955994670027
 21
587.1223505623267
 31
0.0
  0
LINE
  5
FE
330
17
100
AcDbEntity
  8
visible
100
AcDbLine
 10
2427.8773023202684
 20
565.4880477087218
 30
0.0
 11
2731.635269193607
 21
677.6979651760881
 31
0.0
  0
LINE
  5
FF
330
17
100
AcDbEntity
  8
visible
100
AcDbLine
 10
2390.3955994670027
 20
587.1223505623266
 30
0.0
 11
2694.1535663403415
 21
699.332268029693
 31
0.0
  0
LINE
  5
100
330
17
100
AcDbEntity
  8
visible
100
AcDbLine
 10
2037.4428975987535
 20
789.3670250721138
 30
0.0
 11
2037.4428975987535
 21
790.8453691004444
 31
0.0
  0
LINE
  5
101
330
17
100
AcDbEntity
  8
visible
100
AcDbLine
 10
2037.4428975987535
 20
790.8453691004443
 30
0.0
 11
1999.961194745488
 21
812.4796719540496
 31
0.0
  0
LINE
  5
102
330
17
100
AcDbEntity
  8
visible
100
AcDbLine
 10
1999.9611947454878
 20
811.0013279257195
 30
0.0
 11
1999.9611947454878
 21
812.4796719540492
 31
0.0
  0
LINE
  5
103
330
17
100
AcDbEntity
  8
visible
100
AcDbLine
 10
2037.4428975987535
 20
790.8453691004443
 30
0.0
 11
2341.2008644720922
 21
903.0552865678106
 31
0.0
  0
LINE
  5
104
330
17
100
AcDbEntity
  8
visible
100
AcDbLine
 10
1999.9611947454878
 20
812.4796719540491
 30
0.0
 11
2303.7191616188265
 21
924.6895894214155
 31
0.0
  0
LINE
  5
105
330
17
100
AcDbEntity
  8
visible
100
AcDbLine
 10
1647.008492877238
 20
1014.7243464638366
 30
0.0
 11
1647.008492877238
 21
1016.2026904921669
 31
0.0
  0
LINE
  5
106
330
17
100
AcDbEntity
  8
visible
100
AcDbLine
 10
1647.008492877238
 20
1016.2026904921668
 30
0.0
 11
1609.5267900239726
 21
1037.836993345772
 31
0.0
  0
LINE
  5
107
330
17
100
AcDbEntity
  8
visible
100
AcDbLine
 10
1609.5267900239728
 20
1036.3586493174416
 30
0.0
 11
1609.5267900239728
 21
1037.8369933457718
 31
0.0
  0
LINE
  5
108
330
17
100
AcDbEntity
  8
visible
100
AcDbLine
 10
1647.008492877238
 20
1016.2026904921668
 30
0.0
 11
1950.7664597505768
 21
1128.4126079595333
 31
0.0
  0
LINE
  5
109
330
17
100
AcDbEntity
  8
visible
100
AcDbLine
 10
1609.5267900239728
 20
1037.8369933457716
 30
0.0
 11
1913.2847568973116
 21
1150.046910813138
 31
0.0
  0
LINE
  5
10A
330
17
100
AcDbEntity
  8
visible
100
AcDbLine
 10
1256.574088155723
 20
1240.0816678555586
 30
0.0
 11
1256.574088155723
 21
1241.5600118838895
 31
0.0
  0
LINE
  5
10B
330
17
100
AcDbEntity
  8
visible
100
AcDbLine
 10
1256.574088155723
 20
1241.5600118838893
 30
0.0
 11
1219.0923853024576
 21
1263.1943147374946
 31
0.0
  0
LINE
  5
10C
330
17
100
AcDbEntity
  8
visible
100
AcDbLine
 10
1219.0923853024578
 20
1261.715970709164
 30
0.0
 11
1219.0923853024578
 21
1263.1943147374943
 31
0.0
  0
LINE
  5
10D
330
17
100
AcDbEntity
  8
visible
100
AcDbLine
 10
1256.574088155723
 20
1241.5600118838893
 30
0.0
 11
1560.3320550290618
 21
1353.7699293512558
 31
0.0
  0
LINE
  5
10E
330
17
100
AcDbEntity
  8
visible
100
AcDbLine
 10
1219.0923853024578
 20
1263.194314737494
 30
0.0
 11
1522.8503521757966
 21
1375.4042322048606
 31
0.0
  0
LINE
  5
10F
330
17
100
AcDbEntity
  8
visible
100
AcDbLine
 10
866.1396834342077
 20
1465.4389892472814
 30
0.0
 11
866.1396834342077
 21
1466.917333275612
 31
0.0
  0
LINE
  5
110
330
17
100
AcDbEntity
  8
visible
100
AcDbLine
 10
866.1396834342077
 20
1466.9173332756118
 30
0.0
 11
828.6579805809422
 21
1488.551636129217
 31
0.0
  0
LINE
  5
111
330
17
100
AcDbEntity
  8
visible
100
AcDbLine
 10
828.6579805809424
 20
1487.0732921008862
 30
0.0
 11
828.6579805809424
 21
1488.5516361292168
 31
0.0
  0
LINE
  5
112
330
17
100
AcDbEntity
  8
visible
100
AcDbLine
 10
866.1396834342077
 20
1466.9173332756118
 30
0.0
 11
1169.8976503075464
 21
1579.1272507429783
 31
0.0
  0
LINE
  5
113
330
17
100
AcDbEntity
  8
visible
100
AcDbLine
 10
828.6579805809424
 20
1488.5516361292166
 30
0.0
 11
1132.4159474542812
 21
1600.761553596583
 31
0.0
  0
LINE
  5
114
330
17
100
AcDbEntity
  8
visible
100
AcDbLine
 10
475.70527871269223
 20
1690.7963106390037
 30
0.0
 11
475.70527871269223
 21
1692.2746546673327
 31
0.0
  0
LINE
  5
115
330
17
100
AcDbEntity
  8
visible
100
AcDbLine
 10
475.70527871269223
 20
1692.2746546673325
 30
0.0
 11
438.2235758594268
 21
1713.9089575209377
 31
0.0
  0
LINE
  5
116
330
17
100
AcDbEntity
  8
visible
100
AcDbLine
 10
438.223575859427
 20
1712.4306134926087
 30
0.0
 11
438.223575859427
 21
1713.9089575209393
 31
0.0
  0
LINE
  5
117
330
17
100
AcDbEntity
  8
visible
100
AcDbLine
 10
475.70527871269223
 20
1692.2746546673325
 30
0.0
 11
779.463245586031
 21
1804.484572134699
 31
0.0
  0
LINE
  5
118
330
17
100
AcDbEntity
  8
visible
100
AcDbLine
 10
438.223575859427
 20
1713.908957520939
 30
0.0
 11
741.9815427327658
 21
1826.1188749883056
 31
0.0
  0
LINE
  5
119
330
17
100
AcDbEntity
  8
visible
100
AcDbLine
 10
85.27087399117772
 20
1916.1536320307257
 30
0.0
 11
85.27087399117772
 21
1917.6319760590552
 31
0.0
  0
LINE
  5
11A
330
17
100
AcDbEntity
  8
visible
100
AcDbLine
 10
85.27087399117772
 20
1917.631976059055
 30
0.0
 11
47.78917113791226
 21
1939.2662789126603
 31
0.0
  0
LINE
  5
11B
330
17
100
AcDbEntity
  8
visible
100
AcDbLine
 10
47.78917113791158
 20
1937.7879348843317
 30
0.0
 11
47.78917113791158
 21
1939.2662789126618
 31
0.0
  0
LINE
  5
11C
330
17
100
AcDbEntity
  8
visible
100
AcDbLine
 10
85.27087399117772
 20
1917.631976059055
 30
0.0
 11
389.0288408645165
 21
2029.8418935264215
 31
0.0
  0
LINE
  5
11D
330
17
100
AcDbEntity
  8
visible
100
AcDbLine
 10
47.78917113791158
 20
1939.2662789126616
 30
0.0
 11
351.54713801125035
 21
2051.476196380028
 31
0.0
  0
LINE
  5
11E
330
17
100
AcDbEntity
  8
visible
100
AcDbLine
 10
-305.1635307303377
 20
2141.510953422448
 30
0.0
 11
-305.1635307303377
 21
2142.9892974507775
 31
0.0
  0
LINE
  5
11F
330
17
100
AcDbEntity
  8
visible
100
AcDbLine
 10
-305.1635307303377
 20
2142.9892974507775
 30
0.0
 11
-342.64523358360316
 21
2164.6236003043828
 31
0.0
  0
LINE
  5
120
330
17
100
AcDbEntity
  8
visible
100
AcDbLine
 10
-342.64523358360293
 20
2163.1452562760537
 30
0.0
 11
-342.64523358360293
 21
2164.623600304384
 31
0.0
  0
LINE
  5
121
330
17
100
AcDbEntity
  8
visible
100
AcDbLine
 10
-305.1635307303377
 20
2142.9892974507775
 30
0.0
 11
-1.4055638569989242
 21
2255.1992149181438
 31
0.0
  0
LINE
  5
122
330
17
100
AcDbEntity
  8
visible
100
AcDbLine
 10
-342.64523358360293
 20
2164.623600304384
 30
0.0
 11
-38.88726671026416
 21
2276.8335177717504
 31
0.0
  0
LINE
  5
123
330
17
100
AcDbEntity
  8
visible
100
AcDbLine
 10
-695.5979354518531
 20
2366.8682748141705
 30
0.0
 11
-695.5979354518531
 21
2368.3466188425
 31
0.0
  0
LINE
  5
124
330
17
100
AcDbEntity
  8
visible
100
AcDbLine
 10
-695.5979354518531
 20
2368.3466188425
 30
0.0
 11
-733.0796383051186
 21
2389.9809216961053
 31
0.0
  0
LINE
  5
125
330
17
100
AcDbEntity
  8
visible
100
AcDbLine
 10
-733.0796383051184
 20
2388.5025776677758
 30
0.0
 11
-733.0796383051184
 21
2389.980921696105
 31
0.0
  0
LINE
  5
126
330
17
100
AcDbEntity
  8
visible
100
AcDbLine
 10
-695.5979354518531
 20
2368.3466188425
 30
0.0
 11
-391.83996857851434
 21
2480.5565363098663
 31
0.0
  0
LINE
  5
127
330
17
100
AcDbEntity
  8
visible
100
AcDbLine
 10
-733.0796383051184
 20
2389.980921696105
 30
0.0
 11
-429.3216714317796
 21
2502.190839163471
 31
0.0
  0
LINE
  5
128
330
17
100
AcDbEntity
  8
visible
100
AcDbLine
 10
-1086.0323401733685
 20
2592.2255962058935
 30
0.0
 11
-1086.0323401733685
 21
2593.7039402342225
 31
0.0
  0
LINE
  5
129
330
17
100
AcDbEntity
  8
visible
100
AcDbLine
 10
-1086.0323401733685
 20
2593.7039402342225
 30
0.0
 11
-1123.514043026634
 21
2615.338243087828
 31
0.0
  0
LINE
  5
12A
330
17
100
AcDbEntity
  8
visible
100
AcDbLine
 10
-1123.5140430266338
 20
2613.859899059498
 30
0.0
 11
-1123.5140430266338
 21
2615.3382430878273
 31
0.0
  0
LINE
  5
12B
330
17
100
AcDbEntity
  8
visible
100
AcDbLine
 10
-1086.0323401733685
 20
2593.7039402342225
 30
0.0
 11
-782.2743733000298
 21
2705.9138577015888
 31
0.0
  0
LINE
  5
12C
330
17
100
AcDbEntity
  8
visible
100
AcDbLine
 10
-1123.5140430266338
 20
2615.3382430878273
 30
0.0
 11
-819.756076153295
 21
2727.5481605551936
 31
0.0
  0
LINE
  5
12D
330
17
100
AcDbEntity
  8
visible
100
AcDbLine
 10
2997.4477041147325
 20
-186.5436054073955
 30
0.0
 11
-1369.8000655249643
 21
2334.215957064998
 31
0.0
  0
LINE
  5
12E
330
17
100
AcDbEntity
  8
visible
100
AcDbLine
 10
-1369.8000655249657
 20
161.05023542034087
 30
0.0
 11
-1369.8000655249657
 21
2334.215957064998
 31
0.0
  0
LINE
  5
12F
330
17
100
AcDbEntity
  8
visible
100
AcDbLine
 10
1799.346012335051
 20
-1668.1693788578266
 30
0.0
 11
-1369.8000655249643
 21
161.05023542034087
 31
0.0
  0
LINE
  5
130
330
17
100
AcDbEntity
  8
visible
100
AcDbLine
 10
-1369.8000655249657
 20
2334.2159570649974
 30
0.0
 11
-1349.3413027175568
 21
2341.773540195191
 31
0.0
  0
LINE
  5
131
330
17
100
AcDbEntity
  8
visible
100
AcDbLine
 10
-4413.470510972008
 20
1211.936496534221
 30
0.0
 11
-1351.5277353839988
 21
2343.035541194985
 31
0.0
  0
LINE
  5
132
330
17
100
AcDbEntity
  8
visible
100
AcDbLine
 10
-1020.4393601801539
 20
2854.469403963013
 30
0.0
 11
-1300.302741484536
 21
3016.0055319365997
 31
0.0
  0
LINE
  5
133
330
17
100
AcDbEntity
  8
visible
100
AcDbLine
 10
-1020.4393601801539
 20
2853.2867287403483
 30
0.0
 11
-1020.4393601801539
 21
2854.469403963012
 31
0.0
  0
LINE
  5
134
330
17
100
AcDbEntity
  8
visible
100
AcDbLine
 10
-1020.4393601801539
 20
2854.469403963013
 30
0.0
 11
-1371.0494556200745
 21
2724.9520442127623
 31
0.0
  0
LINE
  5
135
330
17
100
AcDbEntity
  8
visible
100
AcDbLine
 10
-1300.3027414845355
 20
3016.0055319365993
 30
0.0
 11
-1648.9896140409578
 21
2887.1986216380947
 31
0.0
  0
LINE
  5
136
330
17
100
AcDbEntity
  8
visible
100
AcDbLine
 10
-3284.178038755498
 20
3841.73403984746
 30
0.0
 11
-3564.0414200598802
 21
4003.2701678210465
 31
0.0
  0
LINE
  5
137
330
17
100
AcDbEntity
  8
visible
100
AcDbLine
 10
-1371.0494556200742
 20
2724.9520442127623
 30
0.0
 11
-3284.178038755498
 21
3841.73403984746
 31
0.0
  0
LINE
  5
138
330
17
100
AcDbEntity
  8
visible
100
AcDbLine
 10
-3284.178038755498
 20
3841.73403984746
 30
0.0
 11
-5011.2167046940895
 21
1556.95343013511
 31
0.0
  0
LINE
  5
139
330
17
100
AcDbEntity
  8
visible
100
AcDbLine
 10
-3564.04142005988
 20
4003.270167821046
 30
0.0
 11
-5291.080085998471
 21
1718.4895581086957
 31
0.0
  0
LINE
  5
13A
330
17
100
AcDbEntity
  8
visible
100
AcDbLine
 10
2163.006602157193
 20
-4759.217628272269
 30
0.0
 11
2163.006602157193
 21
-2811.94287415639
 31
0.0
  0
LINE
  5
13B
330
17
100
AcDbEntity
  8
visible
100
AcDbLine
 10
2237.032965292392
 20
-4801.94537640814
 30
0.0
 11
2163.006602157193
 21
-4759.217628272269
 31
0.0
  0
LINE
  5
13C
330
17
100
AcDbEntity
  8
visible
100
AcDbLine
 10
2160.8201694907525
 20
-4759.433971300806
 30
0.0
 11
2163.006602157193
 21
-4758.626290660937
 31
0.0
  0
LINE
  5
13D
330
17
100
AcDbEntity
  8
visible
100
AcDbLine
 10
2160.8201694907525
 20
-2812.7505547962583
 30
0.0
 11
2160.8201694907525
 21
-4759.433971300806
 31
0.0
  0
LINE
  5
13E
330
17
100
AcDbEntity
  8
visible
100
AcDbLine
 10
2160.8201694907525
 20
-4759.433971300805
 30
0.0
 11
2153.011481396322
 21
-4754.92682487297
 31
0.0
  0
LINE
  5
13F
330
17
100
AcDbEntity
  8
visible
100
AcDbLine
 10
2153.0114813963223
 20
-2815.6351285100727
 30
0.0
 11
2153.0114813963223
 21
-4754.926824872971
 31
0.0
  0
LINE
  5
140
330
17
100
AcDbEntity
  8
visible
100
AcDbLine
 10
-2504.4024456456887
 20
1917.1570780874786
 30
0.0
 11
-2504.4024456456887
 21
110.02933785725537
 31
0.0
  0
LINE
  5
141
330
17
100
AcDbEntity
  8
visible
100
AcDbLine
 10
-1725.0953738215444
 20
218.43882945667156
 30
0.0
 11
-1369.8000655249662
 21
349.68693343521045
 31
0.0
  0
LINE
  5
142
330
17
100
AcDbEntity
  8
visible
100
AcDbLine
 10
-1725.0953738215444
 20
2205.03753472612
 30
0.0
 11
-1725.0953738215444
 21
218.43882945667158
 31
0.0
  0
LINE
  5
143
330
17
100
AcDbEntity
  8
visible
100
AcDbLine
 10
-1725.0953738215437
 20
218.43882945667144
 30
0.0
 11
-1732.9040619159741
 21
222.9459758845059
 31
0.0
  0
LINE
  5
144
330
17
100
AcDbEntity
  8
visible
100
AcDbLine
 10
-1732.9040619159746
 20
2202.152961012307
 30
0.0
 11
-1732.9040619159746
 21
222.945975884506
 31
0.0
  0
ENDSEC
  0
SECTION
  2
OBJECTS
  0
DICTIONARY
  5
A
330
0
100
AcDbDictionary
281
1
  3
ACAD_COLOR
350
B
  3
ACAD_GROUP
350
C
  3
ACAD_LAYOUT
350
D
  3
ACAD_MATERIAL
350
E
  3
ACAD_MLEADERSTYLE
350
F
  3
ACAD_MLINESTYLE
350
10
  3
ACAD_PLOTSETTINGS
350
11
  3
ACAD_PLOTSTYLENAME
350
12
  3
ACAD_SCALELIST
350
14
  3
ACAD_TABLESTYLE
350
15
  3
ACAD_VISUALSTYLE
350
16
  3
EZDXF_META
350
2D
  0
DICTIONARY
  5
B
330
A
100
AcDbDictionary
281
1
  0
DICTIONARY
  5
C
330
A
100
AcDbDictionary
281
1
  0
DICTIONARY
  5
D
330
A
100
AcDbDictionary
281
1
  3
Model
350
1A
  3
Layout1
350
1E
  0
DICTIONARY
  5
E
330
A
100
AcDbDictionary
281
1
  3
ByBlock
350
1F
  3
ByLayer
350
20
  3
Global
350
21
  0
DICTIONARY
  5
F
330
A
100
AcDbDictionary
281
1
  3
Standard
350
2C
  0
DICTIONARY
  5
10
330
A
100
AcDbDictionary
281
1
  3
Standard
350
22
  0
DICTIONARY
  5
11
330
A
100
AcDbDictionary
281
1
  0
ACDBDICTIONARYWDFLT
  5
12
330
A
100
AcDbDictionary
281
1
  3
Normal
350
13
100
AcDbDictionaryWithDefault
340
13
  0
ACDBPLACEHOLDER
  5
13
330
12
  0
DICTIONARY
  5
14
330
A
100
AcDbDictionary
281
1
  0
DICTIONARY
  5
15
330
A
100
AcDbDictionary
281
1
  0
DICTIONARY
  5
16
330
A
100
AcDbDictionary
281
1
  0
LAYOUT
  5
1A
330
D
100
AcDbPlotSettings
  1

  4
A3
  6

 40
7.5
 41
20.0
 42
7.5
 43
20.0
 44
420.0
 45
297.0
 46
0.0
 47
0.0
 48
0.0
 49
0.0
140
0.0
141
0.0
142
1.0
143
1.0
 70
1024
 72
1
 73
0
 74
5
  7

 75
16
 76
0
 77
2
 78
300
147
1.0
148
0.0
149
0.0
100
AcDbLayout
  1
Model
 70
1
 71
0
 10
0.0
 20
0.0
 11
420.0
 21
297.0
 12
0.0
 22
0.0
 32
0.0
 14
1e+20
 24
1e+20
 34
1e+20
 15
-1e+20
 25
-1e+20
 35
-1e+20
146
0.0
 13
0.0
 23
0.0
 33
0.0
 16
1.0
 26
0.0
 36
0.0
 17
0.0
 27
1.0
 37
0.0
 76
1
330
17
  0
LAYOUT
  5
1E
330
D
100
AcDbPlotSettings
  1

  4
A3
  6

 40
7.5
 41
20.0
 42
7.5
 43
20.0
 44
420.0
 45
297.0
 46
0.0
 47
0.0
 48
0.0
 49
0.0
140
0.0
141
0.0
142
1.0
143
1.0
 70
0
 72
1
 73
0
 74
5
  7

 75
16
 76
0
 77
2
 78
300
147
1.0
148
0.0
149
0.0
100
AcDbLayout
  1
Layout1
 70
1
 71
1
 10
0.0
 20
0.0
 11
420.0
 21
297.0
 12
0.0
 22
0.0
 32
0.0
 14
1e+20
 24
1e+20
 34
1e+20
 15
-1e+20
 25
-1e+20
 35
-1e+20
146
0.0
 13
0.0
 23
0.0
 33
0.0
 16
1.0
 26
0.0
 36
0.0
 17
0.0
 27
1.0
 37
0.0
 76
1
330
1B
  0
MATERIAL
  5
1F
102
{ACAD_REACTORS
330
E
102
}
330
E
100
AcDbMaterial
  1
ByBlock
  2

 70
0
 40
1.0
 71
1
 41
1.0
 91
-1023410177
 42
1.0
 72
1
  3

 73
1
 74
1
 75
1
 44
0.5
 73
0
 45
1.0
 46
1.0
 77
1
  4

 78
1
 79
1
170
1
 48
1.0
171
1
  6

172
1
173
1
174
1
140
1.0
141
1.0
175
1
  7

176
1
177
1
178
1
143
1.0
179
1
  8

270
1
271
1
272
1
145
1.0
146
1.0
273
1
  9

274
1
275
1
276
1
 42
1.0
 72
1
  3

 73
1
 74
1
 75
1
 94
63
  0
MATERIAL
  5
20
102
{ACAD_REACTORS
330
E
102
}
330
E
100
AcDbMaterial
  1
ByLayer
  2

 70
0
 40
1.0
 71
1
 41
1.0
 91
-1023410177
 42
1.0
 72
1
  3

 73
1
 74
1
 75
1
 44
0.5
 73
0
 45
1.0
 46
1.0
 77
1
  4

 78
1
 79
1
170
1
 48
1.0
171
1
  6

172
1
173
1
174
1
140
1.0
141
1.0
175
1
  7

176
1
177
1
178
1
143
1.0
179
1
  8

270
1
271
1
272
1
145
1.0
146
1.0
273
1
  9

274
1
275
1
276
1
 42
1.0
 72
1
  3

 73
1
 74
1
 75
1
 94
63
  0
MATERIAL
  5
21
102
{ACAD_REACTORS
330
E
102
}
330
E
100
AcDbMaterial
  1
Global
  2

 70
0
 40
1.0
 71
1
 41
1.0
 91
-1023410177
 42
1.0
 72
1
  3

 73
1
 74
1
 75
1
 44
0.5
 73
0
 45
1.0
 46
1.0
 77
1
  4

 78
1
 79
1
170
1
 48
1.0
171
1
  6

172
1
173
1
174
1
140
1.0
141
1.0
175
1
  7

176
1
177
1
178
1
143
1.0
179
1
  8

270
1
271
1
272
1
145
1.0
146
1.0
273
1
  9

274
1
275
1
276
1
 42
1.0
 72
1
  3

 73
1
 74
1
 75
1
 94
63
  0
MLINESTYLE
  5
22
102
{ACAD_REACTORS
330
10
102
}
330
10
100
AcDbMlineStyle
  2
Standard
 70
0
  3

 62
256
 51
90.0
 52
90.0
 71
2
 49
0.5
 62
256
  6
BYLAYER
 49
-0.5
 62
256
  6
BYLAYER
  0
MLEADERSTYLE
  5
2C
102
{ACAD_REACTORS
330
F
102
}
330
F
100
AcDbMLeaderStyle
179
2
170
2
171
1
172
0
 90
2
 40
0.0
 41
0.0
173
1
 91
-1056964608
 92
-2
290
1
 42
2.0
291
1
 43
8.0
  3
Standard
 44
4.0
300

342
29
174
1
175
1
176
0
178
1
 93
-1056964608
 45
4.0
292
0
297
0
 46
4.0
 94
-1056964608
 47
1.0
 49
1.0
140
1.0
294
1
141
0.0
177
0
142
1.0
295
0
296
0
143
3.75
271
0
272
9
273
9
  0
DICTIONARY
  5
2D
330
A
100
AcDbDictionary
280
1
281
1
  3
CREATED_BY_EZDXF
350
2E
  3
WRITTEN_BY_EZDXF
350
148
  0
DICTIONARYVAR
  5
2E
330
2D
100
DictionaryVariables
280
0
  1
1.4.4 @ 2026-09-19T08:26:28.753037+00:00
  0
DICTIONARYVAR
  5
148
330
2D
100
DictionaryVariables
280
0
  1
1.4.4 @ 2026-09-19T08:26:28.774465+00:00
  0
ENDSEC
  0
EOF
