  0
SECTION
  2
HEADER
  9
$ACADVER
  1
AC1027
  9
$ACADMAINTVER
 70
105
  9
$DWGCODEPAGE
  3
ANSI_1252
  9
$LASTSAVEDBY
  1
ezdxf
  9
$REQUIREDVERSIONS
160
0
  9
$INSBASE
 10
0.0
 20
0.0
 30
0.0
  9
$EXTMIN
 10
1e+20
 20
1e+20
 30
1e+20
  9
$EXTMAX
 10
-1e+20
 20
-1e+20
 30
-1e+20
  9
$LIMMIN
 10
0.0
 20
0.0
  9
$LIMMAX
 10
420.0
 20
297.0
  9
$ORTHOMODE
 70
0
  9
$REGENMODE
 70
1
  9
$FILLMODE
 70
1
  9
$QTEXTMODE
 70
0
  9
$MIRRTEXT
 70
1
  9
$LTSCALE
 40
1.0
  9
$ATTMODE
 70
1
  9
$TEXTSIZE
 40
2.5
  9
$TRACEWID
 40
1.0
  9
$TEXTSTYLE
  7
Standard
  9
$CLAYER
  8
0
  9
$CELTYPE
  6
ByLayer
  9
$CECOLOR
 62
256
  9
$CELTSCALE
 40
1.0
  9
$DISPSILH
 70
0
  9
$DIMSCALE
 40
1.0
  9
$DIMASZ
 40
2.5
  9
$DIMEXO
 40
0.625
  9
$DIMDLI
 40
3.75
  9
$DIMRND
 40
0.0
  9
$DIMDLE
 40
0.0
  9
$DIMEXE
 40
1.25
  9
$DIMTP
 40
0.0
  9
$DIMTM
 40
0.0
  9
$DIMTXT
 40
2.5
  9
$DIMCEN
 40
2.5
  9
$DIMTSZ
 40
0.0
  9
$DIMTOL
 70
0
  9
$DIMLIM
 70
0
  9
$DIMTIH
 70
0
  9
$DIMTOH
 70
0
  9
$DIMSE1
 70
0
  9
$DIMSE2
 70
0
  9
$DIMTAD
 70
1
  9
$DIMZIN
 70
8
  9
$DIMBLK
  1

  9
$DIMASO
 70
1
  9
$DIMSHO
 70
1
  9
$DIMPOST
  1

  9
$DIMAPOST
  1

  9
$DIMALT
 70
0
  9
$DIMALTD
 70
3
  9
$DIMALTF
 40
0.03937007874
  9
$DIMLFAC
 40
1.0
  9
$DIMTOFL
 70
1
  9
$DIMTVP
 40
0.0
  9
$DIMTIX
 70
0
  9
$DIMSOXD
 70
0
  9
$DIMSAH
 70
0
  9
$DIMBLK1
  1

  9
$DIMBLK2
  1

  9
$DIMSTYLE
  2
ISO-25
  9
$DIMCLRD
 70
0
  9
$DIMCLRE
 70
0
  9
$DIMCLRT
 70
0
  9
$DIMTFAC
 40
1.0
  9
$DIMGAP
 40
0.625
  9
$DIMJUST
 70
0
  9
$DIMSD1
 70
0
  9
$DIMSD2
 70
0
  9
$DIMTOLJ
 70
0
  9
$DIMTZIN
 70
8
  9
$DIMALTZ
 70
0
  9
$DIMALTTZ
 70
0
  9
$DIMUPT
 70
0
  9
$DIMDEC
 70
2
  9
$DIMTDEC
 70
2
  9
$DIMALTU
 70
2
  9
$DIMALTTD
 70
3
  9
$DIMTXSTY
  7
Standard
  9
$DIMAUNIT
 70
0
  9
$DIMADEC
 70
0
  9
$DIMALTRND
 40
0.0
  9
$DIMAZIN
 70
0
  9
$DIMDSEP
 70
44
  9
$DIMATFIT
 70
3
  9
$DIMFRAC
 70
0
  9
$DIMLDRBLK
  1

  9
$DIMLUNIT
 70
2
  9
$DIMLWD
 70
-2
  9
$DIMLWE
 70
-2
  9
$DIMTMOVE
 70
0
  9
$DIMFXL
 40
1.0
  9
$DIMFXLON
 70
0
  9
$DIMJOGANG
 40
0.785398163397
  9
$DIMTFILL
 70
0
  9
$DIMTFILLCLR
 70
0
  9
$DIMARCSYM
 70
0
  9
$DIMLTYPE
  6

  9
$DIMLTEX1
  6

  9
$DIMLTEX2
  6

  9
$DIMTXTDIRECTION
 70
0
  9
$LUNITS
 70
2
  9
$LUPREC
 70
4
  9
$SKETCHINC
 40
1.0
  9
$FILLETRAD
 40
10.0
  9
$AUNITS
 70
0
  9
$AUPREC
 70
2
  9
$MENU
  1
.
  9
$ELEVATION
 40
0.0
  9
$PELEVATION
 40
0.0
  9
$THICKNESS
 40
0.0
  9
$LIMCHECK
 70
0
  9
$CHAMFERA
 40
0.0
  9
$CHAMFERB
 40
0.0
  9
$CHAMFERC
 40
0.0
  9
$CHAMFERD
 40
0.0
  9
$SKPOLY
 70
0
  9
$TDCREATE
 40
2461300.313263889
  9
$TDUCREATE
 40
2458532.153996898
  9
$TDUPDATE
 40
2461300.313263889
  9
$TDUUPDATE
 40
2458532.1544311
  9
$TDINDWG
 40
0.0
  9
$TDUSRTIMER
 40
0.0
  9
$USRTIMER
 70
1
  9
$ANGBASE
 50
0.0
  9
$ANGDIR
 70
0
  9
$PDMODE
 70
0
  9
$PDSIZE
 40
0.0
  9
$PLINEWID
 40
0.0
  9
$SPLFRAME
 70
0
  9
$SPLINETYPE
 70
6
  9
$SPLINESEGS
 70
8
  9
$HANDSEED
  5
BA
  9
$SURFTAB1
 70
6
  9
$SURFTAB2
 70
6
  9
$SURFTYPE
 70
6
  9
$SURFU
 70
6
  9
$SURFV
 70
6
  9
$UCSBASE
  2

  9
$UCSNAME
  2

  9
$UCSORG
 10
0.0
 20
0.0
 30
0.0
  9
$UCSXDIR
 10
1.0
 20
0.0
 30
0.0
  9
$UCSYDIR
 10
0.0
 20
1.0
 30
0.0
  9
$UCSORTHOREF
  2

  9
$UCSORTHOVIEW
 70
0
  9
$UCSORGTOP
 10
0.0
 20
0.0
 30
0.0
  9
$UCSORGBOTTOM
 10
0.0
 20
0.0
 30
0.0
  9
$UCSORGLEFT
 10
0.0
 20
0.0
 30
0.0
  9
$UCSORGRIGHT
 10
0.0
 20
0.0
 30
0.0
  9
$UCSORGFRONT
 10
0.0
 20
0.0
 30
0.0
  9
$UCSORGBACK
 10
0.0
 20
0.0
 30
0.0
  9
$PUCSBASE
  2

  9
$PUCSNAME
  2

  9
$PUCSORG
 10
0.0
 20
0.0
 30
0.0
  9
$PUCSXDIR
 10
1.0
 20
0.0
 30
0.0
  9
$PUCSYDIR
 10
0.0
 20
1.0
 30
0.0
  9
$PUCSORTHOREF
  2

  9
$PUCSORTHOVIEW
 70
0
  9
$PUCSORGTOP
 10
0.0
 20
0.0
 30
0.0
  9
$PUCSORGBOTTOM
 10
0.0
 20
0.0
 30
0.0
  9
$PUCSORGLEFT
 10
0.0
 20
0.0
 30
0.0
  9
$PUCSORGRIGHT
 10
0.0
 20
0.0
 30
0.0
  9
$PUCSORGFRONT
 10
0.0
 20
0.0
 30
0.0
  9
$PUCSORGBACK
 10
0.0
 20
0.0
 30
0.0
  9
$USERI1
 70
0
  9
$USERI2
 70
0
  9
$USERI3
 70
0
  9
$USERI4
 70
0
  9
$USERI5
 70
0
  9
$USERR1
 40
0.0
  9
$USERR2
 40
0.0
  9
$USERR3
 40
0.0
  9
$USERR4
 40
0.0
  9
$USERR5
 40
0.0
  9
$WORLDVIEW
 70
1
  9
$SHADEDGE
 70
3
  9
$SHADEDIF
 70
70
  9
$TILEMODE
 70
1
  9
$MAXACTVP
 70
64
  9
$PINSBASE
 10
0.0
 20
0.0
 30
0.0
  9
$PLIMCHECK
 70
0
  9
$PEXTMIN
 10
1e+20
 20
1e+20
 30
1e+20
  9
$PEXTMAX
 10
-1e+20
 20
-1e+20
 30
-1e+20
  9
$PLIMMIN
 10
0.0
 20
0.0
  9
$PLIMMAX
 10
420.0
 20
297.0
  9
$UNITMODE
 70
0
  9
$VISRETAIN
 70
1
  9
$PLINEGEN
 70
0
  9
$PSLTSCALE
 70
1
  9
$TREEDEPTH
 70
3020
  9
$CMLSTYLE
  2
Standard
  9
$CMLJUST
 70
0
  9
$CMLSCALE
 40
20.0
  9
$PROXYGRAPHICS
 70
1
  9
$MEASUREMENT
 70
1
  9
$CELWEIGHT
370
-1
  9
$ENDCAPS
280
0
  9
$JOINSTYLE
280
0
  9
$LWDISPLAY
290
0
  9
$INSUNITS
 70
4
  9
$HYPERLINKBASE
  1

  9
$STYLESHEET
  1

  9
$XEDIT
290
1
  9
$CEPSNTYPE
380
0
  9
$PSTYLEMODE
290
1
  9
$FINGERPRINTGUID
  2
{D337DB21-E51A-47AB-9C54-3DA0FF24D1BD}
  9
$VERSIONGUID
  2
{38430EA7-0DA5-4C03-98CF-778D1BBB57F2}
  9
$EXTNAMES
290
1
  9
$PSVPSCALE
 40
0.0
  9
$OLESTARTUP
290
0
  9
$SORTENTS
280
127
  9
$INDEXCTL
280
0
  9
$HIDETEXT
280
1
  9
$XCLIPFRAME
280
1
  9
$HALOGAP
280
0
  9
$OBSCOLOR
 70
257
  9
$OBSLTYPE
280
0
  9
$INTERSECTIONDISPLAY
280
0
  9
$INTERSECTIONCOLOR
 70
257
  9
$DIMASSOC
280
2
  9
$PROJECTNAME
  1

  9
$CAMERADISPLAY
290
0
  9
$LENSLENGTH
 40
50.0
  9
$CAMERAHEIGHT
 40
0.0
  9
$STEPSPERSEC
 40
24.0
  9
$STEPSIZE
 40
100.0
  9
$3DDWFPREC
 40
2.0
  9
$PSOLWIDTH
 40
0.005
  9
$PSOLHEIGHT
 40
0.08
  9
$LOFTANG1
 40
1.570796326795
  9
$LOFTANG2
 40
1.570796326795
  9
$LOFTMAG1
 40
0.0
  9
$LOFTMAG2
 40
0.0
  9
$LOFTPARAM
 70
7
  9
$LOFTNORMALS
280
1
  9
$LATITUDE
 40
37.795
  9
$LONGITUDE
 40
-122.394
  9
$NORTHDIRECTION
 40
0.0
  9
$TIMEZONE
 70
-8000
  9
$LIGHTGLYPHDISPLAY
280
1
  9
$TILEMODELIGHTSYNCH
280
1
  9
$CMATERIAL
347
20
  9
$SOLIDHIST
280
0
  9
$SHOWHIST
280
1
  9
$DWFFRAME
280
2
  9
$DGNFRAME
280
2
  9
$REALWORLDSCALE
290
1
  9
$INTERFERECOLOR
 62
256
  9
$CSHADOW
280
0
  9
$SHADOWPLANELOCATION
 40
0.0
  0
ENDSEC
  0
SECTION
  2
CLASSES
  0
CLASS
  1
ACDBDICTIONARYWDFLT
  2
AcDbDictionaryWithDefault
  3
ObjectDBX Classes
 90
0
 91
0
280
0
281
0
  0
CLASS
  1
SUN
  2
AcDbSun
  3
SCENEOE
 90
1153
 91
0
280
0
281
0
  0
CLASS
  1
VISUALSTYLE
  2
AcDbVisualStyle
  3
ObjectDBX Classes
 90
4095
 91
0
280
0
281
0
  0
CLASS
  1
MATERIAL
  2
AcDbMaterial
  3
ObjectDBX Classes
 90
1153
 91
0
280
0
281
0
  0
CLASS
  1
SCALE
  2
AcDbScale
  3
ObjectDBX Classes
 90
1153
 91
0
280
0
281
0
  0
CLASS
  1
TABLESTYLE
  2
AcDbTableStyle
  3
ObjectDBX Classes
 90
4095
 91
0
280
0
281
0
  0
CLASS
  1
MLEADERSTYLE
  2
AcDbMLeaderStyle
  3
ACDB_MLEADERSTYLE_CLASS
 90
4095
 91
0
280
0
281
0
  0
CLASS
  1
DICTIONARYVAR
  2
AcDbDictionaryVar
  3
ObjectDBX Classes
 90
0
 91
0
280
0
281
0
  0
CLASS
  1
CELLSTYLEMAP
  2
AcDbCellStyleMap
  3
ObjectDBX Classes
 90
1152
 91
0
280
0
281
0
  0
CLASS
  1
MENTALRAYRENDERSETTINGS
  2
AcDbMentalRayRenderSettings
  3
SCENEOE
 90
1024
 91
0
280
0
281
0
  0
CLASS
  1
ACDBDETAILVIEWSTYLE
  2
AcDbDetailViewStyle
  3
ObjectDBX Classes
 90
1025
 91
0
280
0
281
0
  0
CLASS
  1
ACDBSECTIONVIEWSTYLE
  2
AcDbSectionViewStyle
  3
ObjectDBX Classes
 90
1025
 91
0
280
0
281
0
  0
CLASS
  1
RASTERVARIABLES
  2
AcDbRasterVariables
  3
ISM
 90
0
 91
0
280
0
281
0
  0
CLASS
  1
LAYOUT
  2
AcDbLayout
  3
ObjectDBX Classes
 90
0
 91
0
280
0
281
0
  0
CLASS
  1
ACDBPLACEHOLDER
  2
AcDbPlaceHolder
  3
ObjectDBX Classes
 90
0
 91
0
280
0
281
0
  0
ENDSEC
  0
SECTION
  2
TABLES
  0
TABLE
  2
VPORT
  5
8
330
0
100
AcDbSymbolTable
 70
1
  0
VPORT
  5
B6
330
8
100
AcDbSymbolTableRecord
100
AcDbViewportTableRecord
  2
*Active
 70
0
 10
0.0
 20
0.0
 11
1.0
 21
1.0
 12
0.0
 22
-414.5132426750779
 13
0.0
 23
0.0
 14
0.5
 24
0.5
 15
0.5
 25
0.5
 16
0.0
 26
0.0
 36
1.0
 17
0.0
 27
0.0
 37
0.0
 40
9831.31054441338
 41
1.34
 42
50.0
 43
0.0
 44
0.0
 50
0.0
 51
0.0
 71
0
 72
1000
 73
1
 74
3
 75
0
 76
0
 77
0
 78
0
281
0
 65
1
110
0.0
120
0.0
130
0.0
111
1.0
121
0.0
131
0.0
112
0.0
122
1.0
132
0.0
 79
0
146
0.0
  0
ENDTAB
  0
TABLE
  2
LTYPE
  5
2
330
0
100
AcDbSymbolTable
 70
3
  0
LTYPE
  5
24
330
2
100
AcDbSymbolTableRecord
100
AcDbLinetypeTableRecord
  2
ByBlock
 70
0
  3

 72
65
 73
0
 40
0.0
  0
LTYPE
  5
25
330
2
100
AcDbSymbolTableRecord
100
AcDbLinetypeTableRecord
  2
ByLayer
 70
0
  3

 72
65
 73
0
 40
0.0
  0
LTYPE
  5
26
330
2
100
AcDbSymbolTableRecord
100
AcDbLinetypeTableRecord
  2
Continuous
 70
0
  3

 72
65
 73
0
 40
0.0
  0
ENDTAB
  0
TABLE
  2
LAYER
  5
1
330
0
100
AcDbSymbolTable
 70
3
  0
LAYER
  5
27
330
1
100
AcDbSymbolTableRecord
100
AcDbLayerTableRecord
  2
0
 70
0
 62
7
  6
Continuous
370
-3
390
13
347
21
  0
LAYER
  5
28
330
1
100
AcDbSymbolTableRecord
100
AcDbLayerTableRecord
  2
Defpoints
 70
0
 62
7
  6
Continuous
290
0
370
-3
390
13
347
21
  0
LAYER
  5
2F
330
1
100
AcDbSymbolTableRecord
100
AcDbLayerTableRecord
  2
visible
 70
0
 62
7
  6
Continuous
370
-3
390
13
347
21
  0
ENDTAB
  0
TABLE
  2
STYLE
  5
5
330
0
100
AcDbSymbolTable
 70
1
  0
STYLE
  5
29
330
5
100
AcDbSymbolTableRecord
100
AcDbTextStyleTableRecord
  2
Standard
 70
0
 40
0.0
 41
1.0
 50
0.0
 71
0
 42
2.5
  3
txt
  4

  0
ENDTAB
  0
TABLE
  2
VIEW
  5
7
330
0
100
AcDbSymbolTable
 70
0
  0
ENDTAB
  0
TABLE
  2
UCS
  5
6
330
0
100
AcDbSymbolTable
 70
0
  0
ENDTAB
  0
TABLE
  2
APPID
  5
3
330
0
100
AcDbSymbolTable
 70
3
  0
APPID
  5
2A
330
3
100
AcDbSymbolTableRecord
100
AcDbRegAppTableRecord
  2
ACAD
 70
0
  0
APPID
  5
B7
330
3
100
AcDbSymbolTableRecord
100
AcDbRegAppTableRecord
  2
HATCHBACKGROUNDCOLOR
 70
0
  0
APPID
  5
B8
330
3
100
AcDbSymbolTableRecord
100
AcDbRegAppTableRecord
  2
EZDXF
 70
0
  0
ENDTAB
  0
TABLE
  2
DIMSTYLE
  5
4
330
0
100
AcDbSymbolTable
 70
1
100
AcDbDimStyleTable
  0
DIMSTYLE
105
2B
330
4
100
AcDbSymbolTableRecord
100
AcDbDimStyleTableRecord
  2
Standard
 70
0
 40
1.0
 41
2.5
 42
0.625
 43
3.75
 44
1.25
 45
0.0
 46
0.0
 47
0.0
 48
0.0
 49
2.5
140
2.5
141
2.5
142
0.0
143
0.03937007874
144
1.0
145
0.0
146
1.0
147
0.625
148
0.0
 69
0
 70
0
 71
0
 72
0
 73
0
 74
0
 75
0
 76
0
 77
1
 78
8
 79
3
170
0
171
3
172
1
173
0
174
0
175
0
176
0
177
0
178
0
179
2
271
2
272
2
273
2
274
3
275
0
276
0
277
2
278
44
279
0
280
0
281
0
282
0
283
0
284
8
285
0
286
0
288
0
289
3
290
0
371
-2
372
-2
  0
ENDTAB
  0
TABLE
  2
BLOCK_RECORD
  5
9
330
0
100
AcDbSymbolTable
 70
2
  0
BLOCK_RECORD
  5
17
330
9
100
AcDbSymbolTableRecord
100
AcDbBlockTableRecord
  2
*Model_Space
340
1A
 70
0
280
1
281
0
  0
BLOCK_RECORD
  5
1B
330
9
100
AcDbSymbolTableRecord
100
AcDbBlockTableRecord
  2
*Paper_Space
340
1E
 70
0
280
1
281
0
  0
ENDTAB
  0
ENDSEC
  0
SECTION
  2
BLOCKS
  0
BLOCK
  5
18
330
17
100
AcDbEntity
  8
0
100
AcDbBlockBegin
  2
*Model_Space
 70
0
 10
0.0
 20
0.0
 30
0.0
  3
*Model_Space
  1

  0
ENDBLK
  5
19
330
17
100
AcDbEntity
  8
0
100
AcDbBlockEnd
  0
BLOCK
  5
1C
330
1B
100
AcDbEntity
  8
0
100
AcDbBlockBegin
  2
*Paper_Space
 70
0
 10
0.0
 20
0.0
 30
0.0
  3
*Paper_Space
  1

  0
ENDBLK
  5
1D
330
1B
100
AcDbEntity
  8
0
100
AcDbBlockEnd
  0
ENDSEC
  0
SECTION
  2
ENTITIES
  0
LINE
  5
30
330
17
100
AcDbEntity
  8
visible
100
AcDbLine
 10
1383.3871828092724
 20
-5330.168514881768
 30
0.0
 11
1383.3871828092724
 21
-5197.117552332095
 31
0.0
  0
LINE
  5
31
330
17
100
AcDbEntity
  8
visible
100
AcDbLine
 10
1383.3871828092724
 20
-5197.117552332095
 30
0.0
 11
1058.5457580809718
 21
-5009.620260934183
 31
0.0
  0
LINE
  5
32
330
17
100
AcDbEntity
  8
visible
100
AcDbLine
 10
279.7072075424933
 20
-4560.077476221974
 30
0.0
 11
-347.0180989164828
 21
-4198.333903923982
 31
0.0
  0
LINE
  5
33
330
17
100
AcDbEntity
  8
visible
100
AcDbLine
 10
-1125.8566494549614
 20
-3748.7911192117745
 30
0.0
 11
-1783.8167082916589
 21
-3369.0189612024433
 31
0.0
  0
LINE
  5
34
330
17
100
AcDbEntity
  8
visible
100
AcDbLine
 10
-2500.1857540746946
 20
-2955.5333479129117
 30
0.0
 11
-5549.478454949728
 21
-1195.49266784356
 31
0.0
  0
LINE
  5
35
330
17
100
AcDbEntity
  8
visible
100
AcDbLine
 10
-5549.478454949728
 20
-1328.543630393233
 30
0.0
 11
-5549.478454949728
 21
-1195.49266784356
 31
0.0
  0
LINE
  5
36
330
17
100
AcDbEntity
  8
visible
100
AcDbLine
 10
1383.3871828092724
 20
-5330.168514881768
 30
0.0
 11
-5549.478454949728
 21
-1328.5436303932324
 31
0.0
  0
LINE
  5
37
330
17
100
AcDbEntity
  8
visible
100
AcDbLine
 10
5559.473575710598
 20
-3787.498492734016
 30
0.0
 11
5559.473575710598
 21
-3654.447530184343
 31
0.0
  0
LINE
  5
38
330
17
100
AcDbEntity
  8
visible
100
AcDbLine
 10
5559.473575710598
 20
-3654.447530184343
 30
0.0
 11
5440.781516675258
 21
-3585.9389044812597
 31
0.0
  0
LINE
  5
39
330
17
100
AcDbEntity
  8
visible
100
AcDbLine
 10
1383.3871828092724
 20
-5330.168514881768
 30
0.0
 11
5559.473575710598
 21
-3787.4984927340156
 31
0.0
  0
LINE
  5
3A
330
17
100
AcDbEntity
  8
visible
100
AcDbLine
 10
1383.3871828092724
 20
-5197.117552332095
 30
0.0
 11
5559.473575710598
 21
-3654.447530184343
 31
0.0
  0
LINE
  5
3B
330
17
100
AcDbEntity
  8
visible
100
AcDbLine
 10
-5549.478454949728
 20
-1195.49266784356
 30
0.0
 11
-1442.889386088832
 21
321.5046482512471
 31
0.0
  0
LINE
  5
3C
330
17
100
AcDbEntity
  8
visible
100
AcDbLine
 10
5560.254444520042
 20
-3654.1590728129618
 30
0.0
 11
5560.254444520042
 21
-815.7385384199401
 31
0.0
  0
LINE
  5
3D
330
17
100
AcDbEntity
  8
visible
100
AcDbLine
 10
5560.254444520042
 20
-815.7385384199406
 30
0.0
 11
-1372.6111932389585
 21
3185.886346068595
 31
0.0
  0
LINE
  5
3E
330
17
100
AcDbEntity
  8
visible
100
AcDbLine
 10
-1372.6111932389585
 20
2909.907305025376
 30
0.0
 11
-1372.6111932389585
 21
3185.8863460685952
 31
0.0
  0
LINE
  5
3F
330
17
100
AcDbEntity
  8
visible
100
AcDbLine
 10
5560.254444520042
 20
-3654.1590728129618
 30
0.0
 11
5440.781516675258
 21
-3585.1997324670942
 31
0.0
  0
LINE
  5
40
330
17
100
AcDbEntity
  8
visible
100
AcDbLine
 10
5571.967476661687
 20
-3649.8322122422405
 30
0.0
 11
5571.967476661687
 21
-811.4116778492189
 31
0.0
  0
LINE
  5
41
330
17
100
AcDbEntity
  8
visible
100
AcDbLine
 10
5571.967476661687
 20
-811.4116778492189
 30
0.0
 11
-1360.8981610973133
 21
3190.2132066393165
 31
0.0
  0
LINE
  5
42
330
17
100
AcDbEntity
  8
visible
100
AcDbLine
 10
5560.254444520042
 20
-3654.1590728129618
 30
0.0
 11
5571.967476661687
 21
-3649.8322122422405
 31
0.0
  0
LINE
  5
43
330
17
100
AcDbEntity
  8
visible
100
AcDbLine
 10
5560.254444520042
 20
-815.7385384199406
 30
0.0
 11
5571.967476661687
 21
-811.4116778492195
 31
0.0
  0
LINE
  5
44
330
17
100
AcDbEntity
  8
visible
100
AcDbLine
 10
-1372.6111932389585
 20
3185.8863460685952
 30
0.0
 11
-1360.898161097313
 21
3190.2132066393165
 31
0.0
  0
LINE
  5
45
330
17
100
AcDbEntity
  8
visible
100
AcDbLine
 10
5572.74834547113
 20
-3782.594717420532
 30
0.0
 11
5572.74834547113
 21
-811.1232204778375
 31
0.0
  0
LINE
  5
46
330
17
100
AcDbEntity
  8
visible
100
AcDbLine
 10
5572.74834547113
 20
-811.123220477838
 30
0.0
 11
-1360.1172922878704
 21
3190.5016640106974
 31
0.0
  0
LINE
  5
47
330
17
100
AcDbEntity
  8
visible
100
AcDbLine
 10
-1360.1172922878704
 20
3189.7624919965333
 30
0.0
 11
-1360.1172922878704
 21
3190.5016640106983
 31
0.0
  0
LINE
  5
48
330
17
100
AcDbEntity
  8
visible
100
AcDbLine
 10
5572.74834547113
 20
-3782.594717420532
 30
0.0
 11
5559.473575710598
 21
-3774.9325684932132
 31
0.0
  0
LINE
  5
49
330
17
100
AcDbEntity
  8
visible
100
AcDbLine
 10
5767.1846790224445
 20
-3710.7688319465624
 30
0.0
 11
5767.1846790224445
 21
-739.2973350038678
 31
0.0
  0
LINE
  5
4A
330
17
100
AcDbEntity
  8
visible
100
AcDbLine
 10
5767.1846790224445
 20
-739.2973350038683
 30
0.0
 11
5681.289109983712
 21
-689.7187242976896
 31
0.0
  0
LINE
  5
4B
330
17
100
AcDbEntity
  8
visible
100
AcDbLine
 10
5572.74834547113
 20
-3782.594717420532
 30
0.0
 11
5767.1846790224445
 21
-3710.7688319465624
 31
0.0
  0
LINE
  5
4C
330
17
100
AcDbEntity
  8
visible
100
AcDbLine
 10
5572.74834547113
 20
-811.123220477838
 30
0.0
 11
5767.1846790224445
 21
-739.2973350038683
 31
0.0
  0
LINE
  5
4D
330
17
100
AcDbEntity
  8
visible
100
AcDbLine
 10
-1360.1172922878704
 20
3190.501664010697
 30
0.0
 11
-1359.9611185259805
 21
3190.559355484974
 31
0.0
  0
LINE
  5
4E
330
17
100
AcDbEntity
  8
visible
100
AcDbLine
 10
5767.965547831887
 20
-3710.480374575181
 30
0.0
 11
5767.965547831887
 21
-739.0088776324865
 31
0.0
  0
LINE
  5
4F
330
17
100
AcDbEntity
  8
visible
100
AcDbLine
 10
5767.965547831887
 20
-739.0088776324865
 30
0.0
 11
5681.289109983712
 21
-688.9795522835245
 31
0.0
  0
LINE
  5
50
330
17
100
AcDbEntity
  8
visible
100
AcDbLine
 10
5767.965547831887
 20
-3710.480374575181
 30
0.0
 11
5767.1846790224445
 21
-3710.029659932398
 31
0.0
  0
LINE
  5
51
330
17
100
AcDbEntity
  8
visible
100
AcDbLine
 10
5923.358440911051
 20
-3653.0773576702813
 30
0.0
 11
5923.358440911051
 21
-681.6058607275868
 31
0.0
  0
LINE
  5
52
330
17
100
AcDbEntity
  8
visible
100
AcDbLine
 10
5923.358440911051
 20
-681.6058607275872
 30
0.0
 11
-1009.5071968479497
 21
3320.019023760948
 31
0.0
  0
LINE
  5
53
330
17
100
AcDbEntity
  8
visible
100
AcDbLine
 10
5767.965547831887
 20
-3710.480374575181
 30
0.0
 11
5923.35844091105
 21
-3653.0773576702813
 31
0.0
  0
LINE
  5
54
330
17
100
AcDbEntity
  8
visible
100
AcDbLine
 10
5767.965547831887
 20
-739.0088776324865
 30
0.0
 11
5923.35844091105
 21
-681.6058607275869
 31
0.0
  0
LINE
  5
55
330
17
100
AcDbEntity
  8
visible
100
AcDbLine
 10
-1157.8722706421242
 20
3265.2121231984806
 30
0.0
 11
-1009.5071968479501
 21
3320.019023760947
 31
0.0
  0
LINE
  5
56
330
17
100
AcDbEntity
  8
visible
100
AcDbLine
 10
5571.967476661687
 20
-810.5246714322211
 30
0.0
 11
5571.967476661687
 21
-722.711036149437
 31
0.0
  0
LINE
  5
57
330
17
100
AcDbEntity
  8
visible
100
AcDbLine
 10
5571.967476661687
 20
-722.711036149437
 30
0.0
 11
-1360.8981610973133
 21
3278.9138483390984
 31
0.0
  0
LINE
  5
58
330
17
100
AcDbEntity
  8
visible
100
AcDbLine
 10
-1360.8981610973133
 20
3191.100213056314
 30
0.0
 11
-1360.8981610973133
 21
3278.913848339098
 31
0.0
  0
LINE
  5
59
330
17
100
AcDbEntity
  8
visible
100
AcDbLine
 10
5571.967476661687
 20
-810.5246714322211
 30
0.0
 11
-1360.8981610973133
 21
3191.1002130563143
 31
0.0
  0
LINE
  5
5A
330
17
100
AcDbEntity
  8
visible
100
AcDbLine
 10
5681.289109983712
 20
-770.140639438825
 30
0.0
 11
5681.289109983712
 21
-682.3270041560409
 31
0.0
  0
LINE
  5
5B
330
17
100
AcDbEntity
  8
visible
100
AcDbLine
 10
5681.289109983712
 20
-682.3270041560409
 30
0.0
 11
-1251.576527775289
 21
3319.2978803324945
 31
0.0
  0
LINE
  5
5C
330
17
100
AcDbEntity
  8
visible
100
AcDbLine
 10
5571.967476661687
 20
-810.5246714322211
 30
0.0
 11
5681.289109983712
 21
-770.1406394388245
 31
0.0
  0
LINE
  5
5D
330
17
100
AcDbEntity
  8
visible
100
AcDbLine
 10
5571.967476661687
 20
-722.711036149437
 30
0.0
 11
5681.289109983712
 21
-682.3270041560403
 31
0.0
  0
LINE
  5
5E
330
17
100
AcDbEntity
  8
visible
100
AcDbLine
 10
-1360.8981610973133
 20
3278.913848339098
 30
0.0
 11
-1251.576527775289
 21
3319.2978803324945
 31
0.0
  0
LINE
  5
5F
330
17
100
AcDbEntity
  8
visible
100
AcDbLine
 10
-5767.80937407
 20
-1399.1435720388317
 30
0.0
 11
-5923.358440911052
 21
-1309.3612151963696
 31
0.0
  0
LINE
  5
60
330
17
100
AcDbEntity
  8
visible
100
AcDbLine
 10
-5767.80937407
 20
-1399.1435720388317
 30
0.0
 11
-5549.478454949728
 21
-1318.4908910005909
 31
0.0
  0
LINE
  5
61
330
17
100
AcDbEntity
  8
visible
100
AcDbLine
 10
-1259.3852158697198
 20
3316.4133066186805
 30
0.0
 11
-1331.849841386033
 21
3358.2396254689843
 31
0.0
  0
LINE
  5
62
330
17
100
AcDbEntity
  8
visible
100
AcDbLine
 10
-3472.05507430749
 20
4411.35967268915
 30
0.0
 11
-3627.6041411485417
 21
4501.142029531612
 31
0.0
  0
LINE
  5
63
330
17
100
AcDbEntity
  8
visible
100
AcDbLine
 10
-1266.9884921231974
 20
3313.604613205085
 30
0.0
 11
-3472.0550743074905
 21
4411.35967268915
 31
0.0
  0
LINE
  5
64
330
17
100
AcDbEntity
  8
visible
100
AcDbLine
 10
-1331.8498413860334
 20
3358.2396254689847
 30
0.0
 11
-3627.6041411485426
 21
4501.142029531613
 31
0.0
  0
LINE
  5
65
330
17
100
AcDbEntity
  8
visible
100
AcDbLine
 10
-5767.80937407
 20
1572.3279249038624
 30
0.0
 11
-5923.358440911052
 21
1662.1102817463245
 31
0.0
  0
LINE
  5
66
330
17
100
AcDbEntity
  8
visible
100
AcDbLine
 10
-3472.05507430749
 20
4411.35967268915
 30
0.0
 11
-5767.809374069999
 21
1572.3279249038624
 31
0.0
  0
LINE
  5
67
330
17
100
AcDbEntity
  8
visible
100
AcDbLine
 10
-3627.604141148542
 20
4501.142029531613
 30
0.0
 11
-5923.358440911052
 21
1662.1102817463252
 31
0.0
  0
LINE
  5
68
330
17
100
AcDbEntity
  8
visible
100
AcDbLine
 10
-5767.80937407
 20
1572.3279249038624
 30
0.0
 11
-5767.80937407
 21
-1399.1435720388322
 31
0.0
  0
LINE
  5
69
330
17
100
AcDbEntity
  8
visible
100
AcDbLine
 10
-5923.358440911052
 20
1662.1102817463252
 30
0.0
 11
-5923.358440911052
 21
-1309.3612151963694
 31
0.0
  0
LINE
  5
6A
330
17
100
AcDbEntity
  8
visible
100
AcDbLine
 10
-5551.50871385428
 20
-1195.0599817864877
 30
0.0
 11
-5560.254444520042
 21
-1190.011977787313
 31
0.0
  0
LINE
  5
6B
330
17
100
AcDbEntity
  8
visible
100
AcDbLine
 10
-5551.50871385428
 20
-1195.0599817864877
 30
0.0
 11
-1442.889386088833
 21
322.68732347391096
 31
0.0
  0
LINE
  5
6C
330
17
100
AcDbEntity
  8
visible
100
AcDbLine
 10
-1373.860583334068
 20
2910.184945245331
 30
0.0
 11
-1373.860583334068
 21
3186.607489497049
 31
0.0
  0
LINE
  5
6D
330
17
100
AcDbEntity
  8
visible
100
AcDbLine
 10
-3462.684648594174
 20
4405.951096975748
 30
0.0
 11
-3471.430379259936
 21
4410.999100974923
 31
0.0
  0
LINE
  5
6E
330
17
100
AcDbEntity
  8
visible
100
AcDbLine
 10
-1373.860583334068
 20
3186.6074894970498
 30
0.0
 11
-3462.684648594174
 21
4405.95109697575
 31
0.0
  0
LINE
  5
6F
330
17
100
AcDbEntity
  8
visible
100
AcDbLine
 10
-5551.50871385428
 20
1643.360552606534
 30
0.0
 11
-5560.254444520042
 21
1648.4085566057086
 31
0.0
  0
LINE
  5
70
330
17
100
AcDbEntity
  8
visible
100
AcDbLine
 10
-3462.684648594174
 20
4405.951096975748
 30
0.0
 11
-5551.50871385428
 21
1643.3605526065326
 31
0.0
  0
LINE
  5
71
330
17
100
AcDbEntity
  8
visible
100
AcDbLine
 10
-3471.4303792599358
 20
4410.999100974923
 30
0.0
 11
-5560.254444520042
 21
1648.408556605707
 31
0.0
  0
LINE
  5
72
330
17
100
AcDbEntity
  8
visible
100
AcDbLine
 10
-5551.50871385428
 20
1643.360552606534
 30
0.0
 11
-5551.50871385428
 21
-1195.0599817864877
 31
0.0
  0
LINE
  5
73
330
17
100
AcDbEntity
  8
visible
100
AcDbLine
 10
-5560.254444520042
 20
1648.4085566057083
 30
0.0
 11
-5560.254444520042
 21
-1190.0119777873133
 31
0.0
  0
LINE
  5
74
330
17
100
AcDbEntity
  8
visible
100
AcDbLine
 10
5090.171421235337
 20
-3715.4562642315104
 30
0.0
 11
5090.171421235337
 21
-1653.7576823229124
 31
0.0
  0
LINE
  5
75
330
17
100
AcDbEntity
  8
visible
100
AcDbLine
 10
2966.441863505213
 20
-316.48154957083784
 30
0.0
 11
-1442.889386088831
 21
2228.568444796558
 31
0.0
  0
LINE
  5
76
330
17
100
AcDbEntity
  8
visible
100
AcDbLine
 10
-1442.8893860888325
 20
55.40272315190123
 30
0.0
 11
-1442.8893860888325
 21
2228.568444796558
 31
0.0
  0
LINE
  5
77
330
17
100
AcDbEntity
  8
visible
100
AcDbLine
 10
5090.171421235337
 20
-3715.4562642315104
 30
0.0
 11
2912.172137936837
 21
-2458.3229825799262
 31
0.0
  0
LINE
  5
78
330
17
100
AcDbEntity
  8
visible
100
AcDbLine
 10
1822.7567272609458
 20
-1829.5163613809182
 30
0.0
 11
-1442.889386088831
 21
55.40272315190123
 31
0.0
  0
LINE
  5
79
330
17
100
AcDbEntity
  8
visible
100
AcDbLine
 10
5440.781516675257
 20
-3585.9389044812597
 30
0.0
 11
5440.781516675257
 21
-1524.240322572662
 31
0.0
  0
LINE
  5
7A
330
17
100
AcDbEntity
  8
visible
100
AcDbLine
 10
5090.171421235337
 20
-3715.4562642315104
 30
0.0
 11
5440.781516675258
 21
-3585.9389044812597
 31
0.0
  0
LINE
  5
7B
330
17
100
AcDbEntity
  8
visible
100
AcDbLine
 10
-1442.8893860888325
 20
2228.5684447965577
 30
0.0
 11
-1423.2114920908666
 21
2235.8375705553694
 31
0.0
  0
LINE
  5
7C
330
17
100
AcDbEntity
  8
visible
100
AcDbLine
 10
3157.2262810093052
 20
-64.08387814307275
 30
0.0
 11
-1442.889386088831
 21
2591.086189588936
 31
0.0
  0
LINE
  5
7D
330
17
100
AcDbEntity
  8
visible
100
AcDbLine
 10
-1442.8893860888325
 20
2247.1955795535123
 30
0.0
 11
-1442.8893860888325
 21
2591.086189588936
 31
0.0
  0
LINE
  5
7E
330
17
100
AcDbEntity
  8
visible
100
AcDbLine
 10
2976.2448789587356
 20
-303.5126797553228
 30
0.0
 11
-1442.889386088831
 21
2247.1955795535127
 31
0.0
  0
LINE
  5
7F
330
17
100
AcDbEntity
  8
visible
100
AcDbLine
 10
5412.982587059084
 20
-1034.2099967611339
 30
0.0
 11
-1092.2792906489112
 21
2720.6035493391864
 31
0.0
  0
LINE
  5
80
330
17
100
AcDbEntity
  8
visible
100
AcDbLine
 10
-1442.8893860888325
 20
2591.0861895889357
 30
0.0
 11
-1092.279290648912
 21
2720.6035493391864
 31
0.0
  0
LINE
  5
81
330
17
100
AcDbEntity
  8
visible
100
AcDbLine
 10
1383.3871828092724
 20
-3023.0648242704406
 30
0.0
 11
1265.9445138690407
 21
-2955.2773419958103
 31
0.0
  0
LINE
  5
82
330
17
100
AcDbEntity
  8
visible
100
AcDbLine
 10
1383.3871828092724
 20
-3023.0648242704406
 30
0.0
 11
5559.473575710598
 21
-1480.3948021226886
 31
0.0
  0
LINE
  5
83
330
17
100
AcDbEntity
  8
visible
100
AcDbLine
 10
5559.473575710598
 20
-1091.2668648203762
 30
0.0
 11
5442.0309067703665
 21
-1023.4793825457461
 31
0.0
  0
LINE
  5
84
330
17
100
AcDbEntity
  8
visible
100
AcDbLine
 10
5559.473575710598
 20
-1480.3948021226884
 30
0.0
 11
5559.473575710598
 21
-1091.266864820376
 31
0.0
  0
LINE
  5
85
330
17
100
AcDbEntity
  8
visible
100
AcDbLine
 10
5559.473575710598
 20
-1091.2668648203762
 30
0.0
 11
5208.863480270677
 21
-1220.784224570627
 31
0.0
  0
LINE
  5
86
330
17
100
AcDbEntity
  8
visible
100
AcDbLine
 10
5442.030906770366
 20
-1023.4793825457455
 30
0.0
 11
5092.227878076199
 21
-1152.69860725821
 31
0.0
  0
LINE
  5
87
330
17
100
AcDbEntity
  8
visible
100
AcDbLine
 10
3295.7348971352535
 20
-104.00222893592854
 30
0.0
 11
3178.292228195022
 21
-36.21474666129846
 31
0.0
  0
LINE
  5
88
330
17
100
AcDbEntity
  8
visible
100
AcDbLine
 10
5208.863480270678
 20
-1220.7842245706265
 30
0.0
 11
3295.734897135254
 21
-104.00222893592877
 31
0.0
  0
LINE
  5
89
330
17
100
AcDbEntity
  8
visible
100
AcDbLine
 10
1383.3871828092724
 20
-2633.936886968128
 30
0.0
 11
1265.9445138690407
 21
-2566.1494046934977
 31
0.0
  0
LINE
  5
8A
330
17
100
AcDbEntity
  8
visible
100
AcDbLine
 10
3295.7348971352535
 20
-104.00222893592854
 30
0.0
 11
1383.3871828092724
 21
-2633.936886968127
 31
0.0
  0
LINE
  5
8B
330
17
100
AcDbEntity
  8
visible
100
AcDbLine
 10
3178.292228195022
 20
-36.214746661298705
 30
0.0
 11
1265.9445138690407
 21
-2566.149404693497
 31
0.0
  0
LINE
  5
8C
330
17
100
AcDbEntity
  8
visible
100
AcDbLine
 10
1383.3871828092724
 20
-2633.936886968128
 30
0.0
 11
1383.3871828092724
 21
-3023.0648242704406
 31
0.0
  0
LINE
  5
8D
330
17
100
AcDbEntity
  8
visible
100
AcDbLine
 10
1265.9445138690407
 20
-2566.1494046934977
 30
0.0
 11
1265.9445138690407
 21
-2955.2773419958103
 31
0.0
  0
LINE
  5
8E
330
17
100
AcDbEntity
  8
visible
100
AcDbLine
 10
-5269.6150736453465
 20
817.0239322445086
 30
0.0
 11
-5549.478454949729
 21
978.5600602180953
 31
0.0
  0
LINE
  5
8F
330
17
100
AcDbEntity
  8
visible
100
AcDbLine
 10
-5269.6150736453465
 20
817.0239322445086
 30
0.0
 11
-1425.3979247573084
 21
2237.0995715551635
 31
0.0
  0
LINE
  5
90
330
17
100
AcDbEntity
  8
visible
100
AcDbLine
 10
-1093.5286807440207
 20
2748.8218916945734
 30
0.0
 11
-1373.3920620484027
 21
2910.35801966816
 31
0.0
  0
LINE
  5
91
330
17
100
AcDbEntity
  8
visible
100
AcDbLine
 10
-1093.5286807440207
 20
2720.142017544976
 30
0.0
 11
-1093.5286807440207
 21
2748.8218916945725
 31
0.0
  0
LINE
  5
92
330
17
100
AcDbEntity
  8
visible
100
AcDbLine
 10
-1093.5286807440207
 20
2748.8218916945734
 30
0.0
 11
-1444.1387761839412
 21
2619.3045319443227
 31
0.0
  0
LINE
  5
93
330
17
100
AcDbEntity
  8
visible
100
AcDbLine
 10
-1373.3920620484023
 20
2910.3580196681596
 30
0.0
 11
-1722.0789346048246
 21
2781.551109369655
 31
0.0
  0
LINE
  5
94
330
17
100
AcDbEntity
  8
visible
100
AcDbLine
 10
-3357.267359319365
 20
3736.08652757902
 30
0.0
 11
-3637.130740623747
 21
3897.622655552607
 31
0.0
  0
LINE
  5
95
330
17
100
AcDbEntity
  8
visible
100
AcDbLine
 10
-1444.138776183941
 20
2619.3045319443227
 30
0.0
 11
-3357.267359319365
 21
3736.08652757902
 31
0.0
  0
LINE
  5
96
330
17
100
AcDbEntity
  8
visible
100
AcDbLine
 10
-5269.6150736453465
 20
1206.1518695468203
 30
0.0
 11
-5549.478454949729
 21
1367.687997520407
 31
0.0
  0
LINE
  5
97
330
17
100
AcDbEntity
  8
visible
100
AcDbLine
 10
-3357.267359319365
 20
3736.08652757902
 30
0.0
 11
-5269.615073645346
 21
1206.1518695468217
 31
0.0
  0
LINE
  5
98
330
17
100
AcDbEntity
  8
visible
100
AcDbLine
 10
-3637.1307406237465
 20
3897.6226555526064
 30
0.0
 11
-5549.478454949727
 21
1367.6879975204079
 31
0.0
  0
LINE
  5
99
330
17
100
AcDbEntity
  8
visible
100
AcDbLine
 10
-5269.6150736453465
 20
1206.1518695468203
 30
0.0
 11
-5269.6150736453465
 21
817.0239322445079
 31
0.0
  0
LINE
  5
9A
330
17
100
AcDbEntity
  8
visible
100
AcDbLine
 10
-5549.478454949728
 20
1367.6879975204074
 30
0.0
 11
-5549.478454949728
 21
978.560060218095
 31
0.0
  0
LINE
  5
9B
330
17
100
AcDbEntity
  8
visible
100
AcDbLine
 10
965.6223697572512
 20
-5054.886433938209
 30
0.0
 11
965.6223697572512
 21
-2882.6077187105498
 31
0.0
  0
LINE
  5
9C
330
17
100
AcDbEntity
  8
visible
100
AcDbLine
 10
965.6223697572512
 20
-2882.60771871055
 30
0.0
 11
279.7072075424934
 21
-2486.6999764895722
 31
0.0
  0
LINE
  5
9D
330
17
100
AcDbEntity
  8
visible
100
AcDbLine
 10
279.7072075424933
 20
-4658.978691717231
 30
0.0
 11
279.7072075424933
 21
-2486.6999764895722
 31
0.0
  0
LINE
  5
9E
330
17
100
AcDbEntity
  8
visible
100
AcDbLine
 10
965.6223697572512
 20
-5054.886433938209
 30
0.0
 11
279.7072075424934
 21
-4658.978691717231
 31
0.0
  0
LINE
  5
9F
330
17
100
AcDbEntity
  8
visible
100
AcDbLine
 10
1058.5457580809718
 20
-5020.560006743822
 30
0.0
 11
1058.5457580809718
 21
-2848.2812915161626
 31
0.0
  0
LINE
  5
A0
330
17
100
AcDbEntity
  8
visible
100
AcDbLine
 10
1058.5457580809718
 20
-2848.281291516163
 30
0.0
 11
372.630595866214
 21
-2452.373549295185
 31
0.0
  0
LINE
  5
A1
330
17
100
AcDbEntity
  8
visible
100
AcDbLine
 10
965.6223697572512
 20
-5054.886433938209
 30
0.0
 11
1058.5457580809718
 21
-5020.560006743822
 31
0.0
  0
LINE
  5
A2
330
17
100
AcDbEntity
  8
visible
100
AcDbLine
 10
965.6223697572512
 20
-2882.60771871055
 30
0.0
 11
1058.5457580809718
 21
-2848.281291516163
 31
0.0
  0
LINE
  5
A3
330
17
100
AcDbEntity
  8
visible
100
AcDbLine
 10
279.7072075424933
 20
-2486.6999764895722
 30
0.0
 11
372.63059586621387
 21
-2452.373549295185
 31
0.0
  0
LINE
  5
A4
330
17
100
AcDbEntity
  8
visible
100
AcDbLine
 10
-439.9414872402033
 20
-4243.600076928009
 30
0.0
 11
-439.9414872402033
 21
-2071.32136170035
 31
0.0
  0
LINE
  5
A5
330
17
100
AcDbEntity
  8
visible
100
AcDbLine
 10
-439.9414872402033
 20
-2071.3213617003494
 30
0.0
 11
-1125.8566494549611
 21
-1675.4136194793716
 31
0.0
  0
LINE
  5
A6
330
17
100
AcDbEntity
  8
visible
100
AcDbLine
 10
-1125.8566494549614
 20
-3847.692334707031
 30
0.0
 11
-1125.8566494549614
 21
-1675.4136194793718
 31
0.0
  0
LINE
  5
A7
330
17
100
AcDbEntity
  8
visible
100
AcDbLine
 10
-439.9414872402033
 20
-4243.600076928009
 30
0.0
 11
-1125.8566494549611
 21
-3847.692334707031
 31
0.0
  0
LINE
  5
A8
330
17
100
AcDbEntity
  8
visible
100
AcDbLine
 10
-347.0180989164828
 20
-4209.273649733622
 30
0.0
 11
-347.0180989164828
 21
-2036.9949345059626
 31
0.0
  0
LINE
  5
A9
330
17
100
AcDbEntity
  8
visible
100
AcDbLine
 10
-347.0180989164828
 20
-2036.9949345059626
 30
0.0
 11
-1032.9332611312407
 21
-1641.087192284985
 31
0.0
  0
LINE
  5
AA
330
17
100
AcDbEntity
  8
visible
100
AcDbLine
 10
-439.9414872402033
 20
-4243.600076928009
 30
0.0
 11
-347.0180989164827
 21
-4209.273649733622
 31
0.0
  0
LINE
  5
AB
330
17
100
AcDbEntity
  8
visible
100
AcDbLine
 10
-439.9414872402033
 20
-2071.3213617003494
 30
0.0
 11
-347.0180989164827
 21
-2036.9949345059622
 31
0.0
  0
LINE
  5
AC
330
17
100
AcDbEntity
  8
visible
100
AcDbLine
 10
-1125.8566494549614
 20
-1675.4136194793718
 30
0.0
 11
-1032.9332611312407
 21
-1641.0871922849847
 31
0.0
  0
LINE
  5
AD
330
17
100
AcDbEntity
  8
visible
100
AcDbLine
 10
-1876.7400966153791
 20
-3414.2851342064705
 30
0.0
 11
-1876.7400966153791
 21
-1242.0064189788113
 31
0.0
  0
LINE
  5
AE
330
17
100
AcDbEntity
  8
visible
100
AcDbLine
 10
-1876.7400966153791
 20
-1242.0064189788113
 30
0.0
 11
-2500.1857540746946
 21
-882.1558481805091
 31
0.0
  0
LINE
  5
AF
330
17
100
AcDbEntity
  8
visible
100
AcDbLine
 10
-2500.1857540746946
 20
-3054.4345634081683
 30
0.0
 11
-2500.1857540746946
 21
-882.1558481805091
 31
0.0
  0
LINE
  5
B0
330
17
100
AcDbEntity
  8
visible
100
AcDbLine
 10
-1876.7400966153791
 20
-3414.2851342064705
 30
0.0
 11
-2500.1857540746946
 21
-3054.4345634081683
 31
0.0
  0
LINE
  5
B1
330
17
100
AcDbEntity
  8
visible
100
AcDbLine
 10
-1783.8167082916584
 20
-3379.9587070120833
 30
0.0
 11
-1783.8167082916584
 21
-1207.6799917844241
 31
0.0
  0
LINE
  5
B2
330
17
100
AcDbEntity
  8
visible
100
AcDbLine
 10
-1783.8167082916584
 20
-1207.6799917844241
 30
0.0
 11
-2407.262365750974
 21
-847.8294209861219
 31
0.0
  0
LINE
  5
B3
330
17
100
AcDbEntity
  8
visible
100
AcDbLine
 10
-1876.7400966153791
 20
-3414.2851342064705
 30
0.0
 11
-1783.8167082916584
 21
-3379.9587070120833
 31
0.0
  0
LINE
  5
B4
330
17
100
AcDbEntity
  8
visible
100
AcDbLine
 10
-1876.7400966153791
 20
-1242.0064189788113
 30
0.0
 11
-1783.8167082916584
 21
-1207.6799917844241
 31
0.0
  0
LINE
  5
B5
330
17
100
AcDbEntity
  8
visible
100
AcDbLine
 10
-2500.1857540746946
 20
-882.1558481805096
 30
0.0
 11
-2407.262365750974
 21
-847.8294209861224
 31
0.0
  0
ENDSEC
  0
SECTION
  2
OBJECTS
  0
DICTIONARY
  5
A
330
0
100
AcDbDictionary
281
1
  3
ACAD_COLOR
350
B
  3
ACAD_GROUP
350
C
  3
ACAD_LAYOUT
350
D
  3
ACAD_MATERIAL
350
E
  3
ACAD_MLEADERSTYLE
350
F
  3
ACAD_MLINESTYLE
350
10
  3
ACAD_PLOTSETTINGS
350
11
  3
ACAD_PLOTSTYLENAME
350
12
  3
ACAD_SCALELIST
350
14
  3
ACAD_TABLESTYLE
350
15
  3
ACAD_VISUALSTYLE
350
16
  3
EZDXF_META
350
2D
  0
DICTIONARY
  5
B
330
A
100
AcDbDictionary
281
1
  0
DICTIONARY
  5
C
330
A
100
AcDbDictionary
281
1
  0
DICTIONARY
  5
D
330
A
100
AcDbDictionary
281
1
  3
Model
350
1A
  3
Layout1
350
1E
  0
DICTIONARY
  5
E
330
A
100
AcDbDictionary
281
1
  3
ByBlock
350
1F
  3
ByLayer
350
20
  3
Global
350
21
  0
DICTIONARY
  5
F
330
A
100
AcDbDictionary
281
1
  3
Standard
350
2C
  0
DICTIONARY
  5
10
330
A
100
AcDbDictionary
281
1
  3
Standard
350
22
  0
DICTIONARY
  5
11
330
A
100
AcDbDictionary
281
1
  0
ACDBDICTIONARYWDFLT
  5
12
330
A
100
AcDbDictionary
281
1
  3
Normal
350
13
100
AcDbDictionaryWithDefault
340
13
  0
ACDBPLACEHOLDER
  5
13
330
12
  0
DICTIONARY
  5
14
330
A
100
AcDbDictionary
281
1
  0
DICTIONARY
  5
15
330
A
100
AcDbDictionary
281
1
  0
DICTIONARY
  5
16
330
A
100
AcDbDictionary
281
1
  0
LAYOUT
  5
1A
330
D
100
AcDbPlotSettings
  1

  4
A3
  6

 40
7.5
 41
20.0
 42
7.5
 43
20.0
 44
420.0
 45
297.0
 46
0.0
 47
0.0
 48
0.0
 49
0.0
140
0.0
141
0.0
142
1.0
143
1.0
 70
1024
 72
1
 73
0
 74
5
  7

 75
16
 76
0
 77
2
 78
300
147
1.0
148
0.0
149
0.0
100
AcDbLayout
  1
Model
 70
1
 71
0
 10
0.0
 20
0.0
 11
420.0
 21
297.0
 12
0.0
 22
0.0
 32
0.0
 14
1e+20
 24
1e+20
 34
1e+20
 15
-1e+20
 25
-1e+20
 35
-1e+20
146
0.0
 13
0.0
 23
0.0
 33
0.0
 16
1.0
 26
0.0
 36
0.0
 17
0.0
 27
1.0
 37
0.0
 76
1
330
17
  0
LAYOUT
  5
1E
330
D
100
AcDbPlotSettings
  1

  4
A3
  6

 40
7.5
 41
20.0
 42
7.5
 43
20.0
 44
420.0
 45
297.0
 46
0.0
 47
0.0
 48
0.0
 49
0.0
140
0.0
141
0.0
142
1.0
143
1.0
 70
0
 72
1
 73
0
 74
5
  7

 75
16
 76
0
 77
2
 78
300
147
1.0
148
0.0
149
0.0
100
AcDbLayout
  1
Layout1
 70
1
 71
1
 10
0.0
 20
0.0
 11
420.0
 21
297.0
 12
0.0
 22
0.0
 32
0.0
 14
1e+20
 24
1e+20
 34
1e+20
 15
-1e+20
 25
-1e+20
 35
-1e+20
146
0.0
 13
0.0
 23
0.0
 33
0.0
 16
1.0
 26
0.0
 36
0.0
 17
0.0
 27
1.0
 37
0.0
 76
1
330
1B
  0
MATERIAL
  5
1F
102
{ACAD_REACTORS
330
E
102
}
330
E
100
AcDbMaterial
  1
ByBlock
  2

 70
0
 40
1.0
 71
1
 41
1.0
 91
-1023410177
 42
1.0
 72
1
  3

 73
1
 74
1
 75
1
 44
0.5
 73
0
 45
1.0
 46
1.0
 77
1
  4

 78
1
 79
1
170
1
 48
1.0
171
1
  6

172
1
173
1
174
1
140
1.0
141
1.0
175
1
  7

176
1
177
1
178
1
143
1.0
179
1
  8

270
1
271
1
272
1
145
1.0
146
1.0
273
1
  9

274
1
275
1
276
1
 42
1.0
 72
1
  3

 73
1
 74
1
 75
1
 94
63
  0
MATERIAL
  5
20
102
{ACAD_REACTORS
330
E
102
}
330
E
100
AcDbMaterial
  1
ByLayer
  2

 70
0
 40
1.0
 71
1
 41
1.0
 91
-1023410177
 42
1.0
 72
1
  3

 73
1
 74
1
 75
1
 44
0.5
 73
0
 45
1.0
 46
1.0
 77
1
  4

 78
1
 79
1
170
1
 48
1.0
171
1
  6

172
1
173
1
174
1
140
1.0
141
1.0
175
1
  7

176
1
177
1
178
1
143
1.0
179
1
  8

270
1
271
1
272
1
145
1.0
146
1.0
273
1
  9

274
1
275
1
276
1
 42
1.0
 72
1
  3

 73
1
 74
1
 75
1
 94
63
  0
MATERIAL
  5
21
102
{ACAD_REACTORS
330
E
102
}
330
E
100
AcDbMaterial
  1
Global
  2

 70
0
 40
1.0
 71
1
 41
1.0
 91
-1023410177
 42
1.0
 72
1
  3

 73
1
 74
1
 75
1
 44
0.5
 73
0
 45
1.0
 46
1.0
 77
1
  4

 78
1
 79
1
170
1
 48
1.0
171
1
  6

172
1
173
1
174
1
140
1.0
141
1.0
175
1
  7

176
1
177
1
178
1
143
1.0
179
1
  8

270
1
271
1
272
1
145
1.0
146
1.0
273
1
  9

274
1
275
1
276
1
 42
1.0
 72
1
  3

 73
1
 74
1
 75
1
 94
63
  0
MLINESTYLE
  5
22
102
{ACAD_REACTORS
330
10
102
}
330
10
100
AcDbMlineStyle
  2
Standard
 70
0
  3

 62
256
 51
90.0
 52
90.0
 71
2
 49
0.5
 62
256
  6
BYLAYER
 49
-0.5
 62
256
  6
BYLAYER
  0
MLEADERSTYLE
  5
2C
102
{ACAD_REACTORS
330
F
102
}
330
F
100
AcDbMLeaderStyle
179
2
170
2
171
1
172
0
 90
2
 40
0.0
 41
0.0
173
1
 91
-1056964608
 92
-2
290
1
 42
2.0
291
1
 43
8.0
  3
Standard
 44
4.0
300

342
29
174
1
175
1
176
0
178
1
 93
-1056964608
 45
4.0
292
0
297
0
 46
4.0
 94
-1056964608
 47
1.0
 49
1.0
140
1.0
294
1
141
0.0
177
0
142
1.0
295
0
296
0
143
3.75
271
0
272
9
273
9
  0
DICTIONARY
  5
2D
330
A
100
AcDbDictionary
280
1
281
1
  3
CREATED_BY_EZDXF
350
2E
  3
WRITTEN_BY_EZDXF
350
B9
  0
DICTIONARYVAR
  5
2E
330
2D
100
DictionaryVariables
280
0
  1
1.4.4 @ 2026-09-16T07:31:06.684364+00:00
  0
DICTIONARYVAR
  5
B9
330
2D
100
DictionaryVariables
280
0
  1
1.4.4 @ 2026-09-16T07:31:06.694811+00:00
  0
ENDSEC
  0
EOF
