  0
SECTION
  2
HEADER
  9
$ACADVER
  1
AC1027
  9
$ACADMAINTVER
 70
105
  9
$DWGCODEPAGE
  3
ANSI_1252
  9
$LASTSAVEDBY
  1
ezdxf
  9
$REQUIREDVERSIONS
160
0
  9
$INSBASE
 10
0.0
 20
0.0
 30
0.0
  9
$EXTMIN
 10
1e+20
 20
1e+20
 30
1e+20
  9
$EXTMAX
 10
-1e+20
 20
-1e+20
 30
-1e+20
  9
$LIMMIN
 10
0.0
 20
0.0
  9
$LIMMAX
 10
420.0
 20
297.0
  9
$ORTHOMODE
 70
0
  9
$REGENMODE
 70
1
  9
$FILLMODE
 70
1
  9
$QTEXTMODE
 70
0
  9
$MIRRTEXT
 70
1
  9
$LTSCALE
 40
1.0
  9
$ATTMODE
 70
1
  9
$TEXTSIZE
 40
2.5
  9
$TRACEWID
 40
1.0
  9
$TEXTSTYLE
  7
Standard
  9
$CLAYER
  8
0
  9
$CELTYPE
  6
ByLayer
  9
$CECOLOR
 62
256
  9
$CELTSCALE
 40
1.0
  9
$DISPSILH
 70
0
  9
$DIMSCALE
 40
1.0
  9
$DIMASZ
 40
2.5
  9
$DIMEXO
 40
0.625
  9
$DIMDLI
 40
3.75
  9
$DIMRND
 40
0.0
  9
$DIMDLE
 40
0.0
  9
$DIMEXE
 40
1.25
  9
$DIMTP
 40
0.0
  9
$DIMTM
 40
0.0
  9
$DIMTXT
 40
2.5
  9
$DIMCEN
 40
2.5
  9
$DIMTSZ
 40
0.0
  9
$DIMTOL
 70
0
  9
$DIMLIM
 70
0
  9
$DIMTIH
 70
0
  9
$DIMTOH
 70
0
  9
$DIMSE1
 70
0
  9
$DIMSE2
 70
0
  9
$DIMTAD
 70
1
  9
$DIMZIN
 70
8
  9
$DIMBLK
  1

  9
$DIMASO
 70
1
  9
$DIMSHO
 70
1
  9
$DIMPOST
  1

  9
$DIMAPOST
  1

  9
$DIMALT
 70
0
  9
$DIMALTD
 70
3
  9
$DIMALTF
 40
0.03937007874
  9
$DIMLFAC
 40
1.0
  9
$DIMTOFL
 70
1
  9
$DIMTVP
 40
0.0
  9
$DIMTIX
 70
0
  9
$DIMSOXD
 70
0
  9
$DIMSAH
 70
0
  9
$DIMBLK1
  1

  9
$DIMBLK2
  1

  9
$DIMSTYLE
  2
ISO-25
  9
$DIMCLRD
 70
0
  9
$DIMCLRE
 70
0
  9
$DIMCLRT
 70
0
  9
$DIMTFAC
 40
1.0
  9
$DIMGAP
 40
0.625
  9
$DIMJUST
 70
0
  9
$DIMSD1
 70
0
  9
$DIMSD2
 70
0
  9
$DIMTOLJ
 70
0
  9
$DIMTZIN
 70
8
  9
$DIMALTZ
 70
0
  9
$DIMALTTZ
 70
0
  9
$DIMUPT
 70
0
  9
$DIMDEC
 70
2
  9
$DIMTDEC
 70
2
  9
$DIMALTU
 70
2
  9
$DIMALTTD
 70
3
  9
$DIMTXSTY
  7
Standard
  9
$DIMAUNIT
 70
0
  9
$DIMADEC
 70
0
  9
$DIMALTRND
 40
0.0
  9
$DIMAZIN
 70
0
  9
$DIMDSEP
 70
44
  9
$DIMATFIT
 70
3
  9
$DIMFRAC
 70
0
  9
$DIMLDRBLK
  1

  9
$DIMLUNIT
 70
2
  9
$DIMLWD
 70
-2
  9
$DIMLWE
 70
-2
  9
$DIMTMOVE
 70
0
  9
$DIMFXL
 40
1.0
  9
$DIMFXLON
 70
0
  9
$DIMJOGANG
 40
0.785398163397
  9
$DIMTFILL
 70
0
  9
$DIMTFILLCLR
 70
0
  9
$DIMARCSYM
 70
0
  9
$DIMLTYPE
  6

  9
$DIMLTEX1
  6

  9
$DIMLTEX2
  6

  9
$DIMTXTDIRECTION
 70
0
  9
$LUNITS
 70
2
  9
$LUPREC
 70
4
  9
$SKETCHINC
 40
1.0
  9
$FILLETRAD
 40
10.0
  9
$AUNITS
 70
0
  9
$AUPREC
 70
2
  9
$MENU
  1
.
  9
$ELEVATION
 40
0.0
  9
$PELEVATION
 40
0.0
  9
$THICKNESS
 40
0.0
  9
$LIMCHECK
 70
0
  9
$CHAMFERA
 40
0.0
  9
$CHAMFERB
 40
0.0
  9
$CHAMFERC
 40
0.0
  9
$CHAMFERD
 40
0.0
  9
$SKPOLY
 70
0
  9
$TDCREATE
 40
2461304.5421064813
  9
$TDUCREATE
 40
2458532.153996898
  9
$TDUPDATE
 40
2461304.5421064813
  9
$TDUUPDATE
 40
2458532.1544311
  9
$TDINDWG
 40
0.0
  9
$TDUSRTIMER
 40
0.0
  9
$USRTIMER
 70
1
  9
$ANGBASE
 50
0.0
  9
$ANGDIR
 70
0
  9
$PDMODE
 70
0
  9
$PDSIZE
 40
0.0
  9
$PLINEWID
 40
0.0
  9
$SPLFRAME
 70
0
  9
$SPLINETYPE
 70
6
  9
$SPLINESEGS
 70
8
  9
$HANDSEED
  5
180
  9
$SURFTAB1
 70
6
  9
$SURFTAB2
 70
6
  9
$SURFTYPE
 70
6
  9
$SURFU
 70
6
  9
$SURFV
 70
6
  9
$UCSBASE
  2

  9
$UCSNAME
  2

  9
$UCSORG
 10
0.0
 20
0.0
 30
0.0
  9
$UCSXDIR
 10
1.0
 20
0.0
 30
0.0
  9
$UCSYDIR
 10
0.0
 20
1.0
 30
0.0
  9
$UCSORTHOREF
  2

  9
$UCSORTHOVIEW
 70
0
  9
$UCSORGTOP
 10
0.0
 20
0.0
 30
0.0
  9
$UCSORGBOTTOM
 10
0.0
 20
0.0
 30
0.0
  9
$UCSORGLEFT
 10
0.0
 20
0.0
 30
0.0
  9
$UCSORGRIGHT
 10
0.0
 20
0.0
 30
0.0
  9
$UCSORGFRONT
 10
0.0
 20
0.0
 30
0.0
  9
$UCSORGBACK
 10
0.0
 20
0.0
 30
0.0
  9
$PUCSBASE
  2

  9
$PUCSNAME
  2

  9
$PUCSORG
 10
0.0
 20
0.0
 30
0.0
  9
$PUCSXDIR
 10
1.0
 20
0.0
 30
0.0
  9
$PUCSYDIR
 10
0.0
 20
1.0
 30
0.0
  9
$PUCSORTHOREF
  2

  9
$PUCSORTHOVIEW
 70
0
  9
$PUCSORGTOP
 10
0.0
 20
0.0
 30
0.0
  9
$PUCSORGBOTTOM
 10
0.0
 20
0.0
 30
0.0
  9
$PUCSORGLEFT
 10
0.0
 20
0.0
 30
0.0
  9
$PUCSORGRIGHT
 10
0.0
 20
0.0
 30
0.0
  9
$PUCSORGFRONT
 10
0.0
 20
0.0
 30
0.0
  9
$PUCSORGBACK
 10
0.0
 20
0.0
 30
0.0
  9
$USERI1
 70
0
  9
$USERI2
 70
0
  9
$USERI3
 70
0
  9
$USERI4
 70
0
  9
$USERI5
 70
0
  9
$USERR1
 40
0.0
  9
$USERR2
 40
0.0
  9
$USERR3
 40
0.0
  9
$USERR4
 40
0.0
  9
$USERR5
 40
0.0
  9
$WORLDVIEW
 70
1
  9
$SHADEDGE
 70
3
  9
$SHADEDIF
 70
70
  9
$TILEMODE
 70
1
  9
$MAXACTVP
 70
64
  9
$PINSBASE
 10
0.0
 20
0.0
 30
0.0
  9
$PLIMCHECK
 70
0
  9
$PEXTMIN
 10
1e+20
 20
1e+20
 30
1e+20
  9
$PEXTMAX
 10
-1e+20
 20
-1e+20
 30
-1e+20
  9
$PLIMMIN
 10
0.0
 20
0.0
  9
$PLIMMAX
 10
420.0
 20
297.0
  9
$UNITMODE
 70
0
  9
$VISRETAIN
 70
1
  9
$PLINEGEN
 70
0
  9
$PSLTSCALE
 70
1
  9
$TREEDEPTH
 70
3020
  9
$CMLSTYLE
  2
Standard
  9
$CMLJUST
 70
0
  9
$CMLSCALE
 40
20.0
  9
$PROXYGRAPHICS
 70
1
  9
$MEASUREMENT
 70
1
  9
$CELWEIGHT
370
-1
  9
$ENDCAPS
280
0
  9
$JOINSTYLE
280
0
  9
$LWDISPLAY
290
0
  9
$INSUNITS
 70
4
  9
$HYPERLINKBASE
  1

  9
$STYLESHEET
  1

  9
$XEDIT
290
1
  9
$CEPSNTYPE
380
0
  9
$PSTYLEMODE
290
1
  9
$FINGERPRINTGUID
  2
{8ACD0B80-8CF5-4E12-B701-324413583E6A}
  9
$VERSIONGUID
  2
{EE3FD173-A21B-4367-891B-DBBAC4641E02}
  9
$EXTNAMES
290
1
  9
$PSVPSCALE
 40
0.0
  9
$OLESTARTUP
290
0
  9
$SORTENTS
280
127
  9
$INDEXCTL
280
0
  9
$HIDETEXT
280
1
  9
$XCLIPFRAME
280
1
  9
$HALOGAP
280
0
  9
$OBSCOLOR
 70
257
  9
$OBSLTYPE
280
0
  9
$INTERSECTIONDISPLAY
280
0
  9
$INTERSECTIONCOLOR
 70
257
  9
$DIMASSOC
280
2
  9
$PROJECTNAME
  1

  9
$CAMERADISPLAY
290
0
  9
$LENSLENGTH
 40
50.0
  9
$CAMERAHEIGHT
 40
0.0
  9
$STEPSPERSEC
 40
24.0
  9
$STEPSIZE
 40
100.0
  9
$3DDWFPREC
 40
2.0
  9
$PSOLWIDTH
 40
0.005
  9
$PSOLHEIGHT
 40
0.08
  9
$LOFTANG1
 40
1.570796326795
  9
$LOFTANG2
 40
1.570796326795
  9
$LOFTMAG1
 40
0.0
  9
$LOFTMAG2
 40
0.0
  9
$LOFTPARAM
 70
7
  9
$LOFTNORMALS
280
1
  9
$LATITUDE
 40
37.795
  9
$LONGITUDE
 40
-122.394
  9
$NORTHDIRECTION
 40
0.0
  9
$TIMEZONE
 70
-8000
  9
$LIGHTGLYPHDISPLAY
280
1
  9
$TILEMODELIGHTSYNCH
280
1
  9
$CMATERIAL
347
20
  9
$SOLIDHIST
280
0
  9
$SHOWHIST
280
1
  9
$DWFFRAME
280
2
  9
$DGNFRAME
280
2
  9
$REALWORLDSCALE
290
1
  9
$INTERFERECOLOR
 62
256
  9
$CSHADOW
280
0
  9
$SHADOWPLANELOCATION
 40
0.0
  0
ENDSEC
  0
SECTION
  2
CLASSES
  0
CLASS
  1
ACDBDICTIONARYWDFLT
  2
AcDbDictionaryWithDefault
  3
ObjectDBX Classes
 90
0
 91
0
280
0
281
0
  0
CLASS
  1
SUN
  2
AcDbSun
  3
SCENEOE
 90
1153
 91
0
280
0
281
0
  0
CLASS
  1
VISUALSTYLE
  2
AcDbVisualStyle
  3
ObjectDBX Classes
 90
4095
 91
0
280
0
281
0
  0
CLASS
  1
MATERIAL
  2
AcDbMaterial
  3
ObjectDBX Classes
 90
1153
 91
0
280
0
281
0
  0
CLASS
  1
SCALE
  2
AcDbScale
  3
ObjectDBX Classes
 90
1153
 91
0
280
0
281
0
  0
CLASS
  1
TABLESTYLE
  2
AcDbTableStyle
  3
ObjectDBX Classes
 90
4095
 91
0
280
0
281
0
  0
CLASS
  1
MLEADERSTYLE
  2
AcDbMLeaderStyle
  3
ACDB_MLEADERSTYLE_CLASS
 90
4095
 91
0
280
0
281
0
  0
CLASS
  1
DICTIONARYVAR
  2
AcDbDictionaryVar
  3
ObjectDBX Classes
 90
0
 91
0
280
0
281
0
  0
CLASS
  1
CELLSTYLEMAP
  2
AcDbCellStyleMap
  3
ObjectDBX Classes
 90
1152
 91
0
280
0
281
0
  0
CLASS
  1
MENTALRAYRENDERSETTINGS
  2
AcDbMentalRayRenderSettings
  3
SCENEOE
 90
1024
 91
0
280
0
281
0
  0
CLASS
  1
ACDBDETAILVIEWSTYLE
  2
AcDbDetailViewStyle
  3
ObjectDBX Classes
 90
1025
 91
0
280
0
281
0
  0
CLASS
  1
ACDBSECTIONVIEWSTYLE
  2
AcDbSectionViewStyle
  3
ObjectDBX Classes
 90
1025
 91
0
280
0
281
0
  0
CLASS
  1
RASTERVARIABLES
  2
AcDbRasterVariables
  3
ISM
 90
0
 91
0
280
0
281
0
  0
CLASS
  1
LAYOUT
  2
AcDbLayout
  3
ObjectDBX Classes
 90
0
 91
0
280
0
281
0
  0
CLASS
  1
ACDBPLACEHOLDER
  2
AcDbPlaceHolder
  3
ObjectDBX Classes
 90
0
 91
0
280
0
281
0
  0
ENDSEC
  0
SECTION
  2
TABLES
  0
TABLE
  2
VPORT
  5
8
330
0
100
AcDbSymbolTable
 70
1
  0
VPORT
  5
17C
330
8
100
AcDbSymbolTableRecord
100
AcDbViewportTableRecord
  2
*Active
 70
0
 10
0.0
 20
0.0
 11
1.0
 21
1.0
 12
78.0868809443009
 22
-395.186598792523
 13
0.0
 23
0.0
 14
0.5
 24
0.5
 15
0.5
 25
0.5
 16
0.0
 26
0.0
 36
1.0
 17
0.0
 27
0.0
 37
0.0
 40
10003.952281185153
 41
1.34
 42
50.0
 43
0.0
 44
0.0
 50
0.0
 51
0.0
 71
0
 72
1000
 73
1
 74
3
 75
0
 76
0
 77
0
 78
0
281
0
 65
1
110
0.0
120
0.0
130
0.0
111
1.0
121
0.0
131
0.0
112
0.0
122
1.0
132
0.0
 79
0
146
0.0
  0
ENDTAB
  0
TABLE
  2
LTYPE
  5
2
330
0
100
AcDbSymbolTable
 70
3
  0
LTYPE
  5
24
330
2
100
AcDbSymbolTableRecord
100
AcDbLinetypeTableRecord
  2
ByBlock
 70
0
  3

 72
65
 73
0
 40
0.0
  0
LTYPE
  5
25
330
2
100
AcDbSymbolTableRecord
100
AcDbLinetypeTableRecord
  2
ByLayer
 70
0
  3

 72
65
 73
0
 40
0.0
  0
LTYPE
  5
26
330
2
100
AcDbSymbolTableRecord
100
AcDbLinetypeTableRecord
  2
Continuous
 70
0
  3

 72
65
 73
0
 40
0.0
  0
ENDTAB
  0
TABLE
  2
LAYER
  5
1
330
0
100
AcDbSymbolTable
 70
3
  0
LAYER
  5
27
330
1
100
AcDbSymbolTableRecord
100
AcDbLayerTableRecord
  2
0
 70
0
 62
7
  6
Continuous
370
-3
390
13
347
21
  0
LAYER
  5
28
330
1
100
AcDbSymbolTableRecord
100
AcDbLayerTableRecord
  2
Defpoints
 70
0
 62
7
  6
Continuous
290
0
370
-3
390
13
347
21
  0
LAYER
  5
2F
330
1
100
AcDbSymbolTableRecord
100
AcDbLayerTableRecord
  2
visible
 70
0
 62
7
  6
Continuous
370
-3
390
13
347
21
  0
ENDTAB
  0
TABLE
  2
STYLE
  5
5
330
0
100
AcDbSymbolTable
 70
1
  0
STYLE
  5
29
330
5
100
AcDbSymbolTableRecord
100
AcDbTextStyleTableRecord
  2
Standard
 70
0
 40
0.0
 41
1.0
 50
0.0
 71
0
 42
2.5
  3
txt
  4

  0
ENDTAB
  0
TABLE
  2
VIEW
  5
7
330
0
100
AcDbSymbolTable
 70
0
  0
ENDTAB
  0
TABLE
  2
UCS
  5
6
330
0
100
AcDbSymbolTable
 70
0
  0
ENDTAB
  0
TABLE
  2
APPID
  5
3
330
0
100
AcDbSymbolTable
 70
3
  0
APPID
  5
2A
330
3
100
AcDbSymbolTableRecord
100
AcDbRegAppTableRecord
  2
ACAD
 70
0
  0
APPID
  5
17D
330
3
100
AcDbSymbolTableRecord
100
AcDbRegAppTableRecord
  2
HATCHBACKGROUNDCOLOR
 70
0
  0
APPID
  5
17E
330
3
100
AcDbSymbolTableRecord
100
AcDbRegAppTableRecord
  2
EZDXF
 70
0
  0
ENDTAB
  0
TABLE
  2
DIMSTYLE
  5
4
330
0
100
AcDbSymbolTable
 70
1
100
AcDbDimStyleTable
  0
DIMSTYLE
105
2B
330
4
100
AcDbSymbolTableRecord
100
AcDbDimStyleTableRecord
  2
Standard
 70
0
 40
1.0
 41
2.5
 42
0.625
 43
3.75
 44
1.25
 45
0.0
 46
0.0
 47
0.0
 48
0.0
 49
2.5
140
2.5
141
2.5
142
0.0
143
0.03937007874
144
1.0
145
0.0
146
1.0
147
0.625
148
0.0
 69
0
 70
0
 71
0
 72
0
 73
0
 74
0
 75
0
 76
0
 77
1
 78
8
 79
3
170
0
171
3
172
1
173
0
174
0
175
0
176
0
177
0
178
0
179
2
271
2
272
2
273
2
274
3
275
0
276
0
277
2
278
44
279
0
280
0
281
0
282
0
283
0
284
8
285
0
286
0
288
0
289
3
290
0
371
-2
372
-2
  0
ENDTAB
  0
TABLE
  2
BLOCK_RECORD
  5
9
330
0
100
AcDbSymbolTable
 70
2
  0
BLOCK_RECORD
  5
17
330
9
100
AcDbSymbolTableRecord
100
AcDbBlockTableRecord
  2
*Model_Space
340
1A
 70
0
280
1
281
0
  0
BLOCK_RECORD
  5
1B
330
9
100
AcDbSymbolTableRecord
100
AcDbBlockTableRecord
  2
*Paper_Space
340
1E
 70
0
280
1
281
0
  0
ENDTAB
  0
ENDSEC
  0
SECTION
  2
BLOCKS
  0
BLOCK
  5
18
330
17
100
AcDbEntity
  8
0
100
AcDbBlockBegin
  2
*Model_Space
 70
0
 10
0.0
 20
0.0
 30
0.0
  3
*Model_Space
  1

  0
ENDBLK
  5
19
330
17
100
AcDbEntity
  8
0
100
AcDbBlockEnd
  0
BLOCK
  5
1C
330
1B
100
AcDbEntity
  8
0
100
AcDbBlockBegin
  2
*Paper_Space
 70
0
 10
0.0
 20
0.0
 30
0.0
  3
*Paper_Space
  1

  0
ENDBLK
  5
1D
330
1B
100
AcDbEntity
  8
0
100
AcDbBlockEnd
  0
ENDSEC
  0
SECTION
  2
ENTITIES
  0
LINE
  5
30
330
17
100
AcDbEntity
  8
visible
100
AcDbLine
 10
1622.645386022616
 20
-5030.086311433693
 30
0.0
 11
2237.032965292392
 21
-4803.128051630803
 31
0.0
  0
LINE
  5
31
330
17
100
AcDbEntity
  8
visible
100
AcDbLine
 10
1092.591638172687
 20
-5358.942137677063
 30
0.0
 11
1092.591638172687
 21
-2387.4706407343688
 31
0.0
  0
LINE
  5
32
330
17
100
AcDbEntity
  8
visible
100
AcDbLine
 10
1092.591638172687
 20
-2387.4706407343688
 30
0.0
 11
-5840.273999586314
 21
1614.1542437541666
 31
0.0
  0
LINE
  5
33
330
17
100
AcDbEntity
  8
visible
100
AcDbLine
 10
1092.591638172687
 20
-5358.942137677063
 30
0.0
 11
-5840.273999586314
 21
-1357.317253188528
 31
0.0
  0
LINE
  5
34
330
17
100
AcDbEntity
  8
visible
100
AcDbLine
 10
-5840.273999586313
 20
-1357.317253188528
 30
0.0
 11
-5840.273999586313
 21
1614.1542437541666
 31
0.0
  0
LINE
  5
35
330
17
100
AcDbEntity
  8
visible
100
AcDbLine
 10
-5434.222218675937
 20
-1459.5249113032442
 30
0.0
 11
-3873.7339898849855
 21
-2360.23305344168
 31
0.0
  0
LINE
  5
36
330
17
100
AcDbEntity
  8
visible
100
AcDbLine
 10
-5434.222218675937
 20
-1459.524911303244
 30
0.0
 11
-5434.222218675937
 21
761.5391568592954
 31
0.0
  0
LINE
  5
37
330
17
100
AcDbEntity
  8
visible
100
AcDbLine
 10
-5434.222218675937
 20
761.539156859295
 30
0.0
 11
-3873.7339898849855
 21
-139.168985279141
 31
0.0
  0
LINE
  5
38
330
17
100
AcDbEntity
  8
visible
100
AcDbLine
 10
-3873.733989884986
 20
-2360.2330534416797
 30
0.0
 11
-3873.733989884986
 21
-139.1689852791401
 31
0.0
  0
LINE
  5
39
330
17
100
AcDbEntity
  8
visible
100
AcDbLine
 10
-3747.545590278992
 20
-2433.068539715484
 30
0.0
 11
-937.6672663791919
 21
-4054.920110307431
 31
0.0
  0
LINE
  5
3A
330
17
100
AcDbEntity
  8
visible
100
AcDbLine
 10
-3747.5455902789918
 20
-2433.0685397154843
 30
0.0
 11
-3747.5455902789918
 21
-212.00447155294478
 31
0.0
  0
LINE
  5
3B
330
17
100
AcDbEntity
  8
visible
100
AcDbLine
 10
-937.6672663791919
 20
-4054.9201103074315
 30
0.0
 11
-937.6672663791919
 21
-1833.856042144892
 31
0.0
  0
LINE
  5
3C
330
17
100
AcDbEntity
  8
visible
100
AcDbLine
 10
-3747.545590278992
 20
-212.00447155294523
 30
0.0
 11
-937.6672663791919
 21
-1833.8560421448926
 31
0.0
  0
LINE
  5
3D
330
17
100
AcDbEntity
  8
visible
100
AcDbLine
 10
-811.4788667731981
 20
-4127.755596581237
 30
0.0
 11
749.0093620177537
 21
-5028.463738719673
 31
0.0
  0
LINE
  5
3E
330
17
100
AcDbEntity
  8
visible
100
AcDbLine
 10
-811.4788667731982
 20
-4127.755596581236
 30
0.0
 11
-811.4788667731982
 21
-1906.691528418697
 31
0.0
  0
LINE
  5
3F
330
17
100
AcDbEntity
  8
visible
100
AcDbLine
 10
749.0093620177537
 20
-5028.463738719672
 30
0.0
 11
749.0093620177537
 21
-2807.3996705571326
 31
0.0
  0
LINE
  5
40
330
17
100
AcDbEntity
  8
visible
100
AcDbLine
 10
-811.4788667731981
 20
-1906.6915284186973
 30
0.0
 11
749.0093620177537
 21
-2807.399670557133
 31
0.0
  0
LINE
  5
41
330
17
100
AcDbEntity
  8
visible
100
AcDbLine
 10
1092.591638172687
 20
-5358.942137677063
 30
0.0
 11
1247.98453125185
 21
-5301.539120772164
 31
0.0
  0
LINE
  5
42
330
17
100
AcDbEntity
  8
visible
100
AcDbLine
 10
1247.98453125185
 20
-5301.539120772163
 30
0.0
 11
1247.98453125185
 21
-2330.0676238294686
 31
0.0
  0
LINE
  5
43
330
17
100
AcDbEntity
  8
visible
100
AcDbLine
 10
1092.591638172687
 20
-2387.4706407343688
 30
0.0
 11
1247.98453125185
 21
-2330.067623829469
 31
0.0
  0
LINE
  5
44
330
17
100
AcDbEntity
  8
visible
100
AcDbLine
 10
-5840.273999586313
 20
1614.1542437541666
 30
0.0
 11
-5684.88110650715
 21
1671.557260659066
 31
0.0
  0
LINE
  5
45
330
17
100
AcDbEntity
  8
visible
100
AcDbLine
 10
1247.98453125185
 20
-2330.067623829469
 30
0.0
 11
-5684.88110650715
 21
1671.5572606590663
 31
0.0
  0
LINE
  5
46
330
17
100
AcDbEntity
  8
visible
100
AcDbLine
 10
-5434.222218675937
 20
-1459.5249113032442
 30
0.0
 11
-5278.829325596774
 21
-1402.1218943983445
 31
0.0
  0
LINE
  5
47
330
17
100
AcDbEntity
  8
visible
100
AcDbLine
 10
-5278.829325596775
 20
-1402.1218943983445
 30
0.0
 11
-3873.733989884986
 21
-2213.137822622875
 31
0.0
  0
LINE
  5
48
330
17
100
AcDbEntity
  8
visible
100
AcDbLine
 10
-5278.829325596775
 20
-1402.1218943983442
 30
0.0
 11
-5278.829325596775
 21
671.8469429453894
 31
0.0
  0
LINE
  5
49
330
17
100
AcDbEntity
  8
visible
100
AcDbLine
 10
-3747.5455902789918
 20
-2433.0685397154843
 30
0.0
 11
-3592.1526971998287
 21
-2375.6655228105847
 31
0.0
  0
LINE
  5
4A
330
17
100
AcDbEntity
  8
visible
100
AcDbLine
 10
-3592.152697199829
 20
-2375.6655228105847
 30
0.0
 11
-937.6672663791919
 21
-3907.8248794886267
 31
0.0
  0
LINE
  5
4B
330
17
100
AcDbEntity
  8
visible
100
AcDbLine
 10
-3592.152697199829
 20
-2375.6655228105847
 30
0.0
 11
-3592.152697199829
 21
-301.6966854668508
 31
0.0
  0
LINE
  5
4C
330
17
100
AcDbEntity
  8
visible
100
AcDbLine
 10
-811.478866773198
 20
-4127.755596581236
 30
0.0
 11
-656.085973694035
 21
-4070.352579676337
 31
0.0
  0
LINE
  5
4D
330
17
100
AcDbEntity
  8
visible
100
AcDbLine
 10
-656.0859736940351
 20
-4070.352579676337
 30
0.0
 11
749.0093620177536
 21
-4881.368507900867
 31
0.0
  0
LINE
  5
4E
330
17
100
AcDbEntity
  8
visible
100
AcDbLine
 10
-656.0859736940351
 20
-4070.3525796763374
 30
0.0
 11
-656.0859736940351
 21
-1996.383742332603
 31
0.0
  0
LINE
  5
4F
330
17
100
AcDbEntity
  8
visible
100
AcDbLine
 10
1248.7654000612931
 20
-5301.250663400782
 30
0.0
 11
1248.7654000612931
 21
-2329.7791664580877
 31
0.0
  0
LINE
  5
50
330
17
100
AcDbEntity
  8
visible
100
AcDbLine
 10
1248.7654000612931
 20
-2329.7791664580877
 30
0.0
 11
-5684.100237697708
 21
1671.8457180304476
 31
0.0
  0
LINE
  5
51
330
17
100
AcDbEntity
  8
visible
100
AcDbLine
 10
1248.7654000612931
 20
-5301.250663400782
 30
0.0
 11
1247.98453125185
 21
-5300.799948757999
 31
0.0
  0
LINE
  5
52
330
17
100
AcDbEntity
  8
visible
100
AcDbLine
 10
-5684.100237697708
 20
1671.1065460162831
 30
0.0
 11
-5684.100237697708
 21
1671.8457180304476
 31
0.0
  0
LINE
  5
53
330
17
100
AcDbEntity
  8
visible
100
AcDbLine
 10
-5278.048456787332
 20
-1401.833437026963
 30
0.0
 11
-3873.733989884986
 21
-2212.39865060871
 31
0.0
  0
LINE
  5
54
330
17
100
AcDbEntity
  8
visible
100
AcDbLine
 10
-5278.048456787332
 20
-1401.8334370269629
 30
0.0
 11
-5278.048456787332
 21
671.3962283026062
 31
0.0
  0
LINE
  5
55
330
17
100
AcDbEntity
  8
visible
100
AcDbLine
 10
-3591.3718283903863
 20
-2375.3770654392038
 30
0.0
 11
-937.6672663791919
 21
-3907.085707474462
 31
0.0
  0
LINE
  5
56
330
17
100
AcDbEntity
  8
visible
100
AcDbLine
 10
-3591.3718283903863
 20
-2375.3770654392033
 30
0.0
 11
-3591.3718283903863
 21
-302.14740010963396
 31
0.0
  0
LINE
  5
57
330
17
100
AcDbEntity
  8
visible
100
AcDbLine
 10
-655.3051048845919
 20
-4070.064122304956
 30
0.0
 11
749.0093620177538
 21
-4880.629335886702
 31
0.0
  0
LINE
  5
58
330
17
100
AcDbEntity
  8
visible
100
AcDbLine
 10
-655.3051048845923
 20
-4070.0641223049556
 30
0.0
 11
-655.3051048845923
 21
-1996.8344569753858
 31
0.0
  0
LINE
  5
59
330
17
100
AcDbEntity
  8
visible
100
AcDbLine
 10
1248.7654000612931
 20
-5301.250663400782
 30
0.0
 11
1259.3852158697182
 21
-5297.327643149995
 31
0.0
  0
LINE
  5
5A
330
17
100
AcDbEntity
  8
visible
100
AcDbLine
 10
1443.2017336126078
 20
-2268.00602037676
 30
0.0
 11
1443.2017336126078
 21
-2257.953280984118
 31
0.0
  0
LINE
  5
5B
330
17
100
AcDbEntity
  8
visible
100
AcDbLine
 10
1248.7654000612931
 20
-2329.7791664580877
 30
0.0
 11
1443.2017336126078
 21
-2257.953280984118
 31
0.0
  0
LINE
  5
5C
330
17
100
AcDbEntity
  8
visible
100
AcDbLine
 10
-5684.100237697708
 20
1671.8457180304476
 30
0.0
 11
-5597.267626087642
 21
1703.92217772806
 31
0.0
  0
LINE
  5
5D
330
17
100
AcDbEntity
  8
visible
100
AcDbLine
 10
1443.2017336126078
 20
-2257.953280984118
 30
0.0
 11
1442.2646910412761
 21
-2257.412423412778
 31
0.0
  0
LINE
  5
5E
330
17
100
AcDbEntity
  8
visible
100
AcDbLine
 10
-5278.048456787331
 20
-1401.833437026963
 30
0.0
 11
-5186.374458558719
 21
-1367.9685416267862
 31
0.0
  0
LINE
  5
5F
330
17
100
AcDbEntity
  8
visible
100
AcDbLine
 10
-3591.3718283903854
 20
-2375.3770654392033
 30
0.0
 11
-3499.697830161774
 21
-2341.512170039027
 31
0.0
  0
LINE
  5
60
330
17
100
AcDbEntity
  8
visible
100
AcDbLine
 10
-655.305104884592
 20
-4070.0641223049556
 30
0.0
 11
-563.6311066559803
 21
-4036.1992269047787
 31
0.0
  0
LINE
  5
61
330
17
100
AcDbEntity
  8
visible
100
AcDbLine
 10
1443.9826024220508
 20
-2267.7175630053785
 30
0.0
 11
1443.9826024220508
 21
-2257.6648236127367
 31
0.0
  0
LINE
  5
62
330
17
100
AcDbEntity
  8
visible
100
AcDbLine
 10
1443.9826024220508
 20
-2257.6648236127367
 30
0.0
 11
1443.0455598507192
 21
-2257.1239660413967
 31
0.0
  0
LINE
  5
63
330
17
100
AcDbEntity
  8
visible
100
AcDbLine
 10
1455.695634563696
 20
-2263.3907024346577
 30
0.0
 11
1455.695634563696
 21
-2253.337963042016
 31
0.0
  0
LINE
  5
64
330
17
100
AcDbEntity
  8
visible
100
AcDbLine
 10
1443.9826024220508
 20
-2257.6648236127367
 30
0.0
 11
1455.6956345636963
 21
-2253.3379630420154
 31
0.0
  0
LINE
  5
65
330
17
100
AcDbEntity
  8
visible
100
AcDbLine
 10
1455.695634563696
 20
-2253.3379630420154
 30
0.0
 11
1443.9826024220506
 21
-2246.577243400264
 31
0.0
  0
LINE
  5
66
330
17
100
AcDbEntity
  8
visible
100
AcDbLine
 10
1334.6609691000265
 20
-2297.1618491891354
 30
0.0
 11
1334.6609691000265
 21
-2209.3482139063512
 31
0.0
  0
LINE
  5
67
330
17
100
AcDbEntity
  8
visible
100
AcDbLine
 10
1334.6609691000265
 20
-2209.3482139063512
 30
0.0
 11
-5598.204668658974
 21
1792.2766705821841
 31
0.0
  0
LINE
  5
68
330
17
100
AcDbEntity
  8
visible
100
AcDbLine
 10
-5598.204668658974
 20
1704.4630352994
 30
0.0
 11
-5598.204668658974
 21
1792.2766705821841
 31
0.0
  0
LINE
  5
69
330
17
100
AcDbEntity
  8
visible
100
AcDbLine
 10
1334.6609691000265
 20
-2297.1618491891354
 30
0.0
 11
-5598.204668658974
 21
1704.4630352994
 31
0.0
  0
LINE
  5
6A
330
17
100
AcDbEntity
  8
visible
100
AcDbLine
 10
1443.9826024220508
 20
-2256.777817195739
 30
0.0
 11
1443.9826024220508
 21
-2168.9641819129547
 31
0.0
  0
LINE
  5
6B
330
17
100
AcDbEntity
  8
visible
100
AcDbLine
 10
1443.9826024220508
 20
-2168.9641819129547
 30
0.0
 11
-5488.883035336949
 21
1832.6607025755807
 31
0.0
  0
LINE
  5
6C
330
17
100
AcDbEntity
  8
visible
100
AcDbLine
 10
1334.6609691000265
 20
-2297.1618491891354
 30
0.0
 11
1443.9826024220506
 21
-2256.777817195739
 31
0.0
  0
LINE
  5
6D
330
17
100
AcDbEntity
  8
visible
100
AcDbLine
 10
1334.6609691000265
 20
-2209.3482139063512
 30
0.0
 11
1443.9826024220506
 21
-2168.9641819129547
 31
0.0
  0
LINE
  5
6E
330
17
100
AcDbEntity
  8
visible
100
AcDbLine
 10
-5598.204668658974
 20
1792.2766705821841
 30
0.0
 11
-5488.883035336949
 21
1832.6607025755807
 31
0.0
  0
LINE
  5
6F
330
17
100
AcDbEntity
  8
visible
100
AcDbLine
 10
1414.93428271077
 20
-5397.1627393850995
 30
0.0
 11
1259.3852158697184
 21
-5307.380382542638
 31
0.0
  0
LINE
  5
70
330
17
100
AcDbEntity
  8
visible
100
AcDbLine
 10
1414.93428271077
 20
-5397.1627393850995
 30
0.0
 11
6006.442882235788
 21
-3701.03339566244
 31
0.0
  0
LINE
  5
71
330
17
100
AcDbEntity
  8
visible
100
AcDbLine
 10
1414.93428271077
 20
-2425.691242442405
 30
0.0
 11
1259.3852158697184
 21
-2335.9088855999426
 31
0.0
  0
LINE
  5
72
330
17
100
AcDbEntity
  8
visible
100
AcDbLine
 10
1414.93428271077
 20
-2425.691242442405
 30
0.0
 11
1414.93428271077
 21
-5397.1627393850995
 31
0.0
  0
LINE
  5
73
330
17
100
AcDbEntity
  8
visible
100
AcDbLine
 10
1259.3852158697184
 20
-2335.9088855999426
 30
0.0
 11
1259.3852158697184
 21
-5307.380382542637
 31
0.0
  0
LINE
  5
74
330
17
100
AcDbEntity
  8
visible
100
AcDbLine
 10
6006.442882235788
 20
-729.5618987197458
 30
0.0
 11
5850.893815394736
 21
-639.7795418772837
 31
0.0
  0
LINE
  5
75
330
17
100
AcDbEntity
  8
visible
100
AcDbLine
 10
6006.442882235788
 20
-3701.03339566244
 30
0.0
 11
6006.442882235788
 21
-729.5618987197454
 31
0.0
  0
LINE
  5
76
330
17
100
AcDbEntity
  8
visible
100
AcDbLine
 10
1621.864517213173
 20
-2349.2500390263326
 30
0.0
 11
1414.93428271077
 21
-2425.691242442405
 31
0.0
  0
LINE
  5
77
330
17
100
AcDbEntity
  8
visible
100
AcDbLine
 10
6006.442882235788
 20
-729.5618987197458
 30
0.0
 11
5799.512647733384
 21
-806.003102135818
 31
0.0
  0
LINE
  5
78
330
17
100
AcDbEntity
  8
visible
100
AcDbLine
 10
3710.688582473279
 20
413.34050534288326
 30
0.0
 11
1621.8645172131728
 21
-2349.2500390263326
 31
0.0
  0
LINE
  5
79
330
17
100
AcDbEntity
  8
visible
100
AcDbLine
 10
5799.512647733385
 20
-806.0031021358182
 30
0.0
 11
3710.688582473279
 21
413.3405053428826
 31
0.0
  0
LINE
  5
7A
330
17
100
AcDbEntity
  8
visible
100
AcDbLine
 10
2401.95245784676
 20
-4900.388665826328
 30
0.0
 11
1622.6453860226159
 21
-5188.26912246497
 31
0.0
  0
LINE
  5
7B
330
17
100
AcDbEntity
  8
visible
100
AcDbLine
 10
2401.9524578467604
 20
-4900.388665826329
 30
0.0
 11
2401.9524578467604
 21
-2723.6749185136805
 31
0.0
  0
LINE
  5
7C
330
17
100
AcDbEntity
  8
visible
100
AcDbLine
 10
2401.95245784676
 20
-2723.67491851368
 30
0.0
 11
1622.6453860226159
 21
-3011.555375152322
 31
0.0
  0
LINE
  5
7D
330
17
100
AcDbEntity
  8
visible
100
AcDbLine
 10
1622.645386022616
 20
-5188.26912246497
 30
0.0
 11
1622.645386022616
 21
-3011.555375152322
 31
0.0
  0
LINE
  5
7E
330
17
100
AcDbEntity
  8
visible
100
AcDbLine
 10
1466.3154503721214
 20
-2259.4676821838702
 30
0.0
 11
1259.3852158697184
 21
-2335.9088855999426
 31
0.0
  0
LINE
  5
7F
330
17
100
AcDbEntity
  8
visible
100
AcDbLine
 10
5850.8938153947365
 20
-639.779541877283
 30
0.0
 11
5645.032515039634
 21
-715.8258749507555
 31
0.0
  0
LINE
  5
80
330
17
100
AcDbEntity
  8
visible
100
AcDbLine
 10
3555.1395156322274
 20
503.1228621853452
 30
0.0
 11
1466.3154503721212
 21
-2259.4676821838707
 31
0.0
  0
LINE
  5
81
330
17
100
AcDbEntity
  8
visible
100
AcDbLine
 10
2246.4033910057087
 20
-4810.606308983866
 30
0.0
 11
1622.6453860226163
 21
-5041.026057243333
 31
0.0
  0
LINE
  5
82
330
17
100
AcDbEntity
  8
visible
100
AcDbLine
 10
2246.4033910057087
 20
-4810.606308983866
 30
0.0
 11
2246.4033910057087
 21
-2781.135626892856
 31
0.0
  0
LINE
  5
83
330
17
100
AcDbEntity
  8
visible
100
AcDbLine
 10
1621.864517213173
 20
-2349.2500390263326
 30
0.0
 11
1466.3154503721214
 21
-2259.4676821838702
 31
0.0
  0
LINE
  5
84
330
17
100
AcDbEntity
  8
visible
100
AcDbLine
 10
3710.688582473279
 20
413.34050534288326
 30
0.0
 11
3555.1395156322274
 21
503.12286218534547
 31
0.0
  0
LINE
  5
85
330
17
100
AcDbEntity
  8
visible
100
AcDbLine
 10
2401.9524578467604
 20
-4900.388665826329
 30
0.0
 11
2246.4033910057087
 21
-4810.606308983867
 31
0.0
  0
LINE
  5
86
330
17
100
AcDbEntity
  8
visible
100
AcDbLine
 10
-5840.273999586313
 20
-1209.4828503555584
 30
0.0
 11
-5850.269120347185
 21
-1203.71370292793
 31
0.0
  0
LINE
  5
87
330
17
100
AcDbEntity
  8
visible
100
AcDbLine
 10
-5694.720053506133
 20
1677.975437172302
 30
0.0
 11
-5850.269120347185
 21
1767.7577940147642
 31
0.0
  0
LINE
  5
88
330
17
100
AcDbEntity
  8
visible
100
AcDbLine
 10
-5694.720053506133
 20
1677.975437172302
 30
0.0
 11
-5694.720053506133
 21
1667.9226977796602
 31
0.0
  0
LINE
  5
89
330
17
100
AcDbEntity
  8
visible
100
AcDbLine
 10
-5850.269120347185
 20
1767.7577940147648
 30
0.0
 11
-5850.269120347185
 21
-1203.7137029279297
 31
0.0
  0
LINE
  5
8A
330
17
100
AcDbEntity
  8
visible
100
AcDbLine
 10
-1103.2114539811146
 20
3374.1047808949616
 30
0.0
 11
-1258.7605208221662
 21
3463.887137737424
 31
0.0
  0
LINE
  5
8B
330
17
100
AcDbEntity
  8
visible
100
AcDbLine
 10
-1103.2114539811146
 20
2857.8948352481666
 30
0.0
 11
-1103.2114539811146
 21
3374.104780894962
 31
0.0
  0
LINE
  5
8C
330
17
100
AcDbEntity
  8
visible
100
AcDbLine
 10
-5598.204668658974
 20
1713.6287682750437
 30
0.0
 11
-5694.720053506133
 21
1677.975437172302
 31
0.0
  0
LINE
  5
8D
330
17
100
AcDbEntity
  8
visible
100
AcDbLine
 10
-1103.2114539811146
 20
3374.1047808949616
 30
0.0
 11
-1310.0772948601848
 21
3297.687364848926
 31
0.0
  0
LINE
  5
8E
330
17
100
AcDbEntity
  8
visible
100
AcDbLine
 10
-3398.9657537436233
 20
4517.00718495759
 30
0.0
 11
-5446.935553226769
 21
1808.4487681426508
 31
0.0
  0
LINE
  5
8F
330
17
100
AcDbEntity
  8
visible
100
AcDbLine
 10
-3398.3432051501786
 20
4516.643774433754
 30
0.0
 11
-3398.9657537436233
 21
4517.007184957592
 31
0.0
  0
LINE
  5
90
330
17
100
AcDbEntity
  8
visible
100
AcDbLine
 10
-5643.3388858447815
 20
1844.1989974308372
 30
0.0
 11
-5850.269120347185
 21
1767.7577940147648
 31
0.0
  0
LINE
  5
91
330
17
100
AcDbEntity
  8
visible
100
AcDbLine
 10
-1258.7605208221667
 20
3463.8871377374244
 30
0.0
 11
-1464.5574275539357
 21
3387.8645920339886
 31
0.0
  0
LINE
  5
92
330
17
100
AcDbEntity
  8
visible
100
AcDbLine
 10
-3554.5148205846754
 20
4606.789541800053
 30
0.0
 11
-5643.3388858447815
 21
1844.1989974308367
 31
0.0
  0
LINE
  5
93
330
17
100
AcDbEntity
  8
visible
100
AcDbLine
 10
-5570.874260328468
 20
1802.3726785805331
 30
0.0
 11
-5643.3388858447815
 21
1844.1989974308365
 31
0.0
  0
LINE
  5
94
330
17
100
AcDbEntity
  8
visible
100
AcDbLine
 10
-3398.9657537436233
 20
4517.00718495759
 30
0.0
 11
-3554.514820584675
 21
4606.789541800052
 31
0.0
  0
LINE
  5
95
330
17
100
AcDbEntity
  8
visible
100
AcDbLine
 10
1465.690755324567
 20
-2259.1071104696434
 30
0.0
 11
1465.690755324567
 21
-2259.698448080975
 31
0.0
  0
LINE
  5
96
330
17
100
AcDbEntity
  8
visible
100
AcDbLine
 10
3554.514820584673
 20
503.48343389957154
 30
0.0
 11
1465.690755324567
 21
-2259.1071104696443
 31
0.0
  0
LINE
  5
97
330
17
100
AcDbEntity
  8
visible
100
AcDbLine
 10
3555.1373691781164
 20
503.1200233757347
 30
0.0
 11
3554.5148205846735
 21
503.48343389957176
 31
0.0
  0
LINE
  5
98
330
17
100
AcDbEntity
  8
visible
100
AcDbLine
 10
2245.778695958154
 20
-4809.358730852642
 30
0.0
 11
2246.4033910057087
 21
-4809.127964955537
 31
0.0
  0
LINE
  5
99
330
17
100
AcDbEntity
  8
visible
100
AcDbLine
 10
2245.7786959581545
 20
-4809.358730852642
 30
0.0
 11
2245.7786959581545
 21
-2781.3663927899615
 31
0.0
  0
LINE
  5
9A
330
17
100
AcDbEntity
  8
visible
100
AcDbLine
 10
1456.945024658805
 20
-2254.059106470469
 30
0.0
 11
1456.945024658805
 21
-2262.929170640447
 31
0.0
  0
LINE
  5
9B
330
17
100
AcDbEntity
  8
visible
100
AcDbLine
 10
3545.769089918911
 20
508.53143789874684
 30
0.0
 11
1456.9450246588049
 21
-2254.059106470469
 31
0.0
  0
LINE
  5
9C
330
17
100
AcDbEntity
  8
visible
100
AcDbLine
 10
2237.032965292392
 20
-4804.310726853468
 30
0.0
 11
2237.032965292392
 21
-2784.597115349433
 31
0.0
  0
LINE
  5
9D
330
17
100
AcDbEntity
  8
visible
100
AcDbLine
 10
1465.690755324567
 20
-2259.1071104696434
 30
0.0
 11
1456.9450246588049
 21
-2254.059106470469
 31
0.0
  0
LINE
  5
9E
330
17
100
AcDbEntity
  8
visible
100
AcDbLine
 10
3554.514820584673
 20
503.48343389957154
 30
0.0
 11
3545.769089918911
 21
508.5314378987461
 31
0.0
  0
LINE
  5
9F
330
17
100
AcDbEntity
  8
visible
100
AcDbLine
 10
2237.032965292392
 20
-4804.310726853467
 30
0.0
 11
2245.778695958154
 21
-4809.358730852642
 31
0.0
  0
LINE
  5
A0
330
17
100
AcDbEntity
  8
visible
100
AcDbLine
 10
-3389.5953280303074
 20
4511.598609244188
 30
0.0
 11
-5437.565127513453
 21
1803.04019242925
 31
0.0
  0
LINE
  5
A1
330
17
100
AcDbEntity
  8
visible
100
AcDbLine
 10
-1300.7712627702012
 20
3292.2550017654894
 30
0.0
 11
-1314.8269013401764
 21
3300.45993071301
 31
0.0
  0
LINE
  5
A2
330
17
100
AcDbEntity
  8
visible
100
AcDbLine
 10
-1342.9381784801249
 20
3316.86978860805
 30
0.0
 11
-1534.326158822861
 21
3428.591840388469
 31
0.0
  0
LINE
  5
A3
330
17
100
AcDbEntity
  8
visible
100
AcDbLine
 10
-1558.7481894941998
 20
3442.8481137989525
 30
0.0
 11
-1908.1887914970903
 21
3646.8328204729805
 31
0.0
  0
LINE
  5
A4
330
17
100
AcDbEntity
  8
visible
100
AcDbLine
 10
-1932.6108221684285
 20
3661.0890938834636
 30
0.0
 11
-2282.0514241713186
 21
3865.0738005574913
 31
0.0
  0
LINE
  5
A5
330
17
100
AcDbEntity
  8
visible
100
AcDbLine
 10
-2306.473454842657
 20
3879.3300739679744
 30
0.0
 11
-2655.914056845547
 21
4083.314780642002
 31
0.0
  0
LINE
  5
A6
330
17
100
AcDbEntity
  8
visible
100
AcDbLine
 10
-2680.3360875168864
 20
4097.571054052486
 30
0.0
 11
-3389.5953280303074
 21
4511.59860924419
 31
0.0
  0
LINE
  5
A7
330
17
100
AcDbEntity
  8
visible
100
AcDbLine
 10
-1300.7712627702012
 20
3015.832457513771
 30
0.0
 11
-1300.7712627702012
 21
3292.2550017654885
 31
0.0
  0
LINE
  5
A8
330
17
100
AcDbEntity
  8
visible
100
AcDbLine
 10
-3398.341058696069
 20
4516.6466132433625
 30
0.0
 11
-5446.310858179215
 21
1808.0881964284245
 31
0.0
  0
LINE
  5
A9
330
17
100
AcDbEntity
  8
visible
100
AcDbLine
 10
-3389.5953280303074
 20
4511.598609244188
 30
0.0
 11
-3398.3410586960695
 21
4516.6466132433625
 31
0.0
  0
LINE
  5
AA
330
17
100
AcDbEntity
  8
visible
100
AcDbLine
 10
-565.5051917986436
 20
-4035.1175117620987
 30
0.0
 11
-565.5051917986436
 21
-2048.6666408954825
 31
0.0
  0
LINE
  5
AB
330
17
100
AcDbEntity
  8
visible
100
AcDbLine
 10
749.0093620177537
 20
-4793.850541423749
 30
0.0
 11
-565.5051917986435
 21
-4035.1175117620983
 31
0.0
  0
LINE
  5
AC
330
17
100
AcDbEntity
  8
visible
100
AcDbLine
 10
-3501.5719153044374
 20
-2340.430454896346
 30
0.0
 11
-3501.5719153044374
 21
-353.9795840297302
 31
0.0
  0
LINE
  5
AD
330
17
100
AcDbEntity
  8
visible
100
AcDbLine
 10
-937.6672663791919
 20
-3820.306913011508
 30
0.0
 11
-3501.5719153044374
 21
-2340.4304548963464
 31
0.0
  0
LINE
  5
AE
330
17
100
AcDbEntity
  8
visible
100
AcDbLine
 10
-5188.248543701383
 20
-1366.8868264841058
 30
0.0
 11
-5188.248543701383
 21
619.56404438251
 31
0.0
  0
LINE
  5
AF
330
17
100
AcDbEntity
  8
visible
100
AcDbLine
 10
-3873.733989884986
 20
-2125.6198561457563
 30
0.0
 11
-5188.248543701384
 21
-1366.8868264841053
 31
0.0
  0
LINE
  5
B0
330
17
100
AcDbEntity
  8
visible
100
AcDbLine
 10
3264.199923805283
 20
136.1399431681592
 30
0.0
 11
-3564.0414200598802
 21
4077.376064936788
 31
0.0
  0
LINE
  5
B1
330
17
100
AcDbEntity
  8
visible
100
AcDbLine
 10
-3564.04142005988
 20
4077.3760649367878
 30
0.0
 11
-5330.442053429399
 21
1741.2091428524363
 31
0.0
  0
LINE
  5
B2
330
17
100
AcDbEntity
  8
visible
100
AcDbLine
 10
-4883.145318996429
 20
1965.840404429443
 30
0.0
 11
-4895.639219947517
 21
1973.051838713978
 31
0.0
  0
LINE
  5
B3
330
17
100
AcDbEntity
  8
visible
100
AcDbLine
 10
-4883.145318996429
 20
1965.840404429443
 30
0.0
 11
-4871.181714750854
 21
1981.6629624490847
 31
0.0
  0
LINE
  5
B4
330
17
100
AcDbEntity
  8
visible
100
AcDbLine
 10
-4910.332472799904
 20
2020.2003844245019
 30
0.0
 11
-4922.826373750992
 21
2027.4118187090369
 31
0.0
  0
LINE
  5
B5
330
17
100
AcDbEntity
  8
visible
100
AcDbLine
 10
-4871.181714750853
 20
1981.662962449086
 30
0.0
 11
-4910.332472799904
 21
2020.2003844245025
 31
0.0
  0
LINE
  5
B6
330
17
100
AcDbEntity
  8
visible
100
AcDbLine
 10
-4922.29607704548
 20
2004.3778264048606
 30
0.0
 11
-4934.789977996568
 21
2011.5892606893956
 31
0.0
  0
LINE
  5
B7
330
17
100
AcDbEntity
  8
visible
100
AcDbLine
 10
-4910.332472799904
 20
2020.2003844245019
 30
0.0
 11
-4922.296077045479
 21
2004.3778264048601
 31
0.0
  0
LINE
  5
B8
330
17
100
AcDbEntity
  8
visible
100
AcDbLine
 10
-4922.826373750992
 20
2027.4118187090362
 30
0.0
 11
-4934.789977996567
 21
2011.5892606893945
 31
0.0
  0
LINE
  5
B9
330
17
100
AcDbEntity
  8
visible
100
AcDbLine
 10
-4922.29607704548
 20
2004.3778264048606
 30
0.0
 11
-4883.145318996429
 21
1965.840404429444
 31
0.0
  0
LINE
  5
BA
330
17
100
AcDbEntity
  8
visible
100
AcDbLine
 10
-4934.789977996568
 20
2011.589260689395
 30
0.0
 11
-4895.639219947517
 21
1973.0518387139784
 31
0.0
  0
LINE
  5
BB
330
17
100
AcDbEntity
  8
visible
100
AcDbLine
 10
-4509.2826863222
 20
2460.295342543245
 30
0.0
 11
-4521.776587273288
 21
2467.5067768277804
 31
0.0
  0
LINE
  5
BC
330
17
100
AcDbEntity
  8
visible
100
AcDbLine
 10
-4509.2826863222
 20
2460.295342543245
 30
0.0
 11
-4497.319082076625
 21
2476.117900562887
 31
0.0
  0
LINE
  5
BD
330
17
100
AcDbEntity
  8
visible
100
AcDbLine
 10
-4536.4698401256765
 20
2514.655322538304
 30
0.0
 11
-4548.963741076765
 21
2521.8667568228393
 31
0.0
  0
LINE
  5
BE
330
17
100
AcDbEntity
  8
visible
100
AcDbLine
 10
-4497.319082076625
 20
2476.1179005628874
 30
0.0
 11
-4536.4698401256765
 21
2514.6553225383036
 31
0.0
  0
LINE
  5
BF
330
17
100
AcDbEntity
  8
visible
100
AcDbLine
 10
-4548.433444371251
 20
2498.832764518661
 30
0.0
 11
-4560.9273453223395
 21
2506.044198803196
 31
0.0
  0
LINE
  5
C0
330
17
100
AcDbEntity
  8
visible
100
AcDbLine
 10
-4536.4698401256765
 20
2514.655322538304
 30
0.0
 11
-4548.433444371251
 21
2498.8327645186623
 31
0.0
  0
LINE
  5
C1
330
17
100
AcDbEntity
  8
visible
100
AcDbLine
 10
-4548.963741076764
 20
2521.8667568228384
 30
0.0
 11
-4560.927345322339
 21
2506.0441988031967
 31
0.0
  0
LINE
  5
C2
330
17
100
AcDbEntity
  8
visible
100
AcDbLine
 10
-4548.433444371251
 20
2498.832764518661
 30
0.0
 11
-4509.2826863222
 21
2460.2953425432447
 31
0.0
  0
LINE
  5
C3
330
17
100
AcDbEntity
  8
visible
100
AcDbLine
 10
-4560.9273453223395
 20
2506.044198803197
 30
0.0
 11
-4521.776587273288
 21
2467.506776827781
 31
0.0
  0
LINE
  5
C4
330
17
100
AcDbEntity
  8
visible
100
AcDbLine
 10
-4135.420053647972
 20
2954.7502806570456
 30
0.0
 11
-4147.91395459906
 21
2961.961714941581
 31
0.0
  0
LINE
  5
C5
330
17
100
AcDbEntity
  8
visible
100
AcDbLine
 10
-4135.420053647972
 20
2954.7502806570456
 30
0.0
 11
-4123.456449402397
 21
2970.5728386766873
 31
0.0
  0
LINE
  5
C6
330
17
100
AcDbEntity
  8
visible
100
AcDbLine
 10
-4162.607207451448
 20
3009.1102606521044
 30
0.0
 11
-4175.101108402536
 21
3016.3216949366397
 31
0.0
  0
LINE
  5
C7
330
17
100
AcDbEntity
  8
visible
100
AcDbLine
 10
-4123.456449402396
 20
2970.5728386766878
 30
0.0
 11
-4162.607207451448
 21
3009.110260652104
 31
0.0
  0
LINE
  5
C8
330
17
100
AcDbEntity
  8
visible
100
AcDbLine
 10
-4174.570811697023
 20
2993.287702632463
 30
0.0
 11
-4187.064712648111
 21
3000.4991369169984
 31
0.0
  0
LINE
  5
C9
330
17
100
AcDbEntity
  8
visible
100
AcDbLine
 10
-4162.607207451448
 20
3009.1102606521044
 30
0.0
 11
-4174.570811697023
 21
2993.2877026324627
 31
0.0
  0
LINE
  5
CA
330
17
100
AcDbEntity
  8
visible
100
AcDbLine
 10
-4175.101108402536
 20
3016.321694936639
 30
0.0
 11
-4187.064712648111
 21
3000.499136916997
 31
0.0
  0
LINE
  5
CB
330
17
100
AcDbEntity
  8
visible
100
AcDbLine
 10
-4174.570811697023
 20
2993.287702632463
 30
0.0
 11
-4135.420053647971
 21
2954.750280657047
 31
0.0
  0
LINE
  5
CC
330
17
100
AcDbEntity
  8
visible
100
AcDbLine
 10
-4187.064712648111
 20
3000.4991369169975
 30
0.0
 11
-4147.913954599059
 21
2961.9617149415812
 31
0.0
  0
LINE
  5
CD
330
17
100
AcDbEntity
  8
visible
100
AcDbLine
 10
-3761.5574209737433
 20
3449.205218770846
 30
0.0
 11
-3774.051321924832
 21
3456.416653055381
 31
0.0
  0
LINE
  5
CE
330
17
100
AcDbEntity
  8
visible
100
AcDbLine
 10
-3761.5574209737433
 20
3449.205218770846
 30
0.0
 11
-3749.593816728168
 21
3465.0277767904877
 31
0.0
  0
LINE
  5
CF
330
17
100
AcDbEntity
  8
visible
100
AcDbLine
 10
-3788.74457477722
 20
3503.5651987659066
 30
0.0
 11
-3801.2384757283085
 21
3510.776633050442
 31
0.0
  0
LINE
  5
D0
330
17
100
AcDbEntity
  8
visible
100
AcDbLine
 10
-3749.5938167281683
 20
3465.027776790489
 30
0.0
 11
-3788.74457477722
 21
3503.5651987659057
 31
0.0
  0
LINE
  5
D1
330
17
100
AcDbEntity
  8
visible
100
AcDbLine
 10
-3800.708179022795
 20
3487.7426407462635
 30
0.0
 11
-3813.2020799738834
 21
3494.954075030799
 31
0.0
  0
LINE
  5
D2
330
17
100
AcDbEntity
  8
visible
100
AcDbLine
 10
-3788.74457477722
 20
3503.5651987659066
 30
0.0
 11
-3800.7081790227953
 21
3487.742640746265
 31
0.0
  0
LINE
  5
D3
330
17
100
AcDbEntity
  8
visible
100
AcDbLine
 10
-3801.238475728308
 20
3510.776633050441
 30
0.0
 11
-3813.2020799738834
 21
3494.9540750307992
 31
0.0
  0
LINE
  5
D4
330
17
100
AcDbEntity
  8
visible
100
AcDbLine
 10
-3800.708179022795
 20
3487.7426407462635
 30
0.0
 11
-3761.5574209737433
 21
3449.205218770847
 31
0.0
  0
LINE
  5
D5
330
17
100
AcDbEntity
  8
visible
100
AcDbLine
 10
-3813.202079973883
 20
3494.954075030798
 30
0.0
 11
-3774.0513219248314
 21
3456.416653055381
 31
0.0
  0
LINE
  5
D6
330
17
100
AcDbEntity
  8
visible
100
AcDbLine
 10
-3222.5588985797976
 20
3996.9627345791514
 30
0.0
 11
-3235.052799530886
 21
4004.1741688636866
 31
0.0
  0
LINE
  5
D7
330
17
100
AcDbEntity
  8
visible
100
AcDbLine
 10
-3210.5952943342227
 20
3989.979023216446
 30
0.0
 11
-3223.0891952853112
 21
3997.190457500981
 31
0.0
  0
LINE
  5
D8
330
17
100
AcDbEntity
  8
visible
100
AcDbLine
 10
-3222.5588985797976
 20
3996.9627345791514
 30
0.0
 11
-3210.595294334222
 21
3989.979023216447
 31
0.0
  0
LINE
  5
D9
330
17
100
AcDbEntity
  8
visible
100
AcDbLine
 10
-3235.0527995308857
 20
4004.1741688636857
 30
0.0
 11
-3223.0891952853103
 21
3997.190457500981
 31
0.0
  0
LINE
  5
DA
330
17
100
AcDbEntity
  8
visible
100
AcDbLine
 10
-3210.5952943342227
 20
3989.979023216446
 30
0.0
 11
-3163.1638304886615
 21
4071.7103294362464
 31
0.0
  0
LINE
  5
DB
330
17
100
AcDbEntity
  8
visible
100
AcDbLine
 10
-3175.127434734236
 20
4078.6940407989523
 30
0.0
 11
-3187.6213356853245
 21
4085.9054750834875
 31
0.0
  0
LINE
  5
DC
330
17
100
AcDbEntity
  8
visible
100
AcDbLine
 10
-3163.163830488661
 20
4071.710329436247
 30
0.0
 11
-3175.1274347342364
 21
4078.6940407989514
 31
0.0
  0
LINE
  5
DD
330
17
100
AcDbEntity
  8
visible
100
AcDbLine
 10
-3175.127434734236
 20
4078.6940407989523
 30
0.0
 11
-3222.558898579797
 21
3996.962734579152
 31
0.0
  0
LINE
  5
DE
330
17
100
AcDbEntity
  8
visible
100
AcDbLine
 10
-3187.621335685325
 20
4085.9054750834866
 30
0.0
 11
-3235.052799530886
 21
4004.174168863686
 31
0.0
  0
LINE
  5
DF
330
17
100
AcDbEntity
  8
visible
100
AcDbLine
 10
-2848.696265905569
 20
3778.721754494639
 30
0.0
 11
-2861.1901668566575
 21
3785.933188779174
 31
0.0
  0
LINE
  5
E0
330
17
100
AcDbEntity
  8
visible
100
AcDbLine
 10
-2836.732661659994
 20
3771.7380431319352
 30
0.0
 11
-2849.2265626110825
 21
3778.9494774164705
 31
0.0
  0
LINE
  5
E1
330
17
100
AcDbEntity
  8
visible
100
AcDbLine
 10
-2848.696265905569
 20
3778.721754494639
 30
0.0
 11
-2836.7326616599935
 21
3771.7380431319343
 31
0.0
  0
LINE
  5
E2
330
17
100
AcDbEntity
  8
visible
100
AcDbLine
 10
-2861.190166856658
 20
3785.933188779173
 30
0.0
 11
-2849.2265626110825
 21
3778.9494774164687
 31
0.0
  0
LINE
  5
E3
330
17
100
AcDbEntity
  8
visible
100
AcDbLine
 10
-2836.732661659994
 20
3771.7380431319352
 30
0.0
 11
-2652.3956217815244
 21
4089.3775556507685
 31
0.0
  0
LINE
  5
E4
330
17
100
AcDbEntity
  8
visible
100
AcDbLine
 10
-2664.3592260271
 20
4096.361267013473
 30
0.0
 11
-2676.8531269781884
 21
4103.572701298008
 31
0.0
  0
LINE
  5
E5
330
17
100
AcDbEntity
  8
visible
100
AcDbLine
 10
-2652.395621781524
 20
4089.377555650769
 30
0.0
 11
-2664.3592260270993
 21
4096.3612670134735
 31
0.0
  0
LINE
  5
E6
330
17
100
AcDbEntity
  8
visible
100
AcDbLine
 10
-2664.3592260271
 20
4096.361267013473
 30
0.0
 11
-2848.6962659055694
 21
3778.7217544946393
 31
0.0
  0
LINE
  5
E7
330
17
100
AcDbEntity
  8
visible
100
AcDbLine
 10
-2676.853126978188
 20
4103.572701298009
 30
0.0
 11
-2861.1901668566575
 21
3785.9331887791755
 31
0.0
  0
LINE
  5
E8
330
17
100
AcDbEntity
  8
visible
100
AcDbLine
 10
-2474.8336332313406
 20
3560.480774410128
 30
0.0
 11
-2487.327534182429
 21
3567.6922086946633
 31
0.0
  0
LINE
  5
E9
330
17
100
AcDbEntity
  8
visible
100
AcDbLine
 10
-2462.8700289857657
 20
3553.4970630474245
 30
0.0
 11
-2475.363929936854
 21
3560.7084973319597
 31
0.0
  0
LINE
  5
EA
330
17
100
AcDbEntity
  8
visible
100
AcDbLine
 10
-2474.8336332313406
 20
3560.480774410128
 30
0.0
 11
-2462.870028985765
 21
3553.4970630474236
 31
0.0
  0
LINE
  5
EB
330
17
100
AcDbEntity
  8
visible
100
AcDbLine
 10
-2487.3275341824287
 20
3567.6922086946643
 30
0.0
 11
-2475.3639299368533
 21
3560.7084973319597
 31
0.0
  0
LINE
  5
EC
330
17
100
AcDbEntity
  8
visible
100
AcDbLine
 10
-2462.8700289857657
 20
3553.4970630474245
 30
0.0
 11
-2278.532989107296
 21
3871.1365755662578
 31
0.0
  0
LINE
  5
ED
330
17
100
AcDbEntity
  8
visible
100
AcDbLine
 10
-2290.496593352871
 20
3878.120286928962
 30
0.0
 11
-2302.9904943039596
 21
3885.331721213497
 31
0.0
  0
LINE
  5
EE
330
17
100
AcDbEntity
  8
visible
100
AcDbLine
 10
-2278.532989107296
 20
3871.136575566258
 30
0.0
 11
-2290.4965933528715
 21
3878.1202869289627
 31
0.0
  0
LINE
  5
EF
330
17
100
AcDbEntity
  8
visible
100
AcDbLine
 10
-2290.496593352871
 20
3878.120286928962
 30
0.0
 11
-2474.8336332313406
 21
3560.4807744101286
 31
0.0
  0
LINE
  5
F0
330
17
100
AcDbEntity
  8
visible
100
AcDbLine
 10
-2302.990494303959
 20
3885.331721213496
 30
0.0
 11
-2487.3275341824287
 21
3567.692208694663
 31
0.0
  0
LINE
  5
F1
330
17
100
AcDbEntity
  8
visible
100
AcDbLine
 10
-2100.9710005571123
 20
3342.2397943256174
 30
0.0
 11
-2113.464901508201
 21
3349.4512286101526
 31
0.0
  0
LINE
  5
F2
330
17
100
AcDbEntity
  8
visible
100
AcDbLine
 10
-2089.0073963115374
 20
3335.2560829629138
 30
0.0
 11
-2101.501297262626
 21
3342.467517247449
 31
0.0
  0
LINE
  5
F3
330
17
100
AcDbEntity
  8
visible
100
AcDbLine
 10
-2100.9710005571123
 20
3342.2397943256174
 30
0.0
 11
-2089.007396311537
 21
3335.256082962913
 31
0.0
  0
LINE
  5
F4
330
17
100
AcDbEntity
  8
visible
100
AcDbLine
 10
-2113.4649015082005
 20
3349.4512286101517
 30
0.0
 11
-2101.501297262625
 21
3342.467517247447
 31
0.0
  0
LINE
  5
F5
330
17
100
AcDbEntity
  8
visible
100
AcDbLine
 10
-2089.0073963115374
 20
3335.2560829629138
 30
0.0
 11
-1904.6703564330678
 21
3652.8955954817475
 31
0.0
  0
LINE
  5
F6
330
17
100
AcDbEntity
  8
visible
100
AcDbLine
 10
-1916.6339606786428
 20
3659.879306844451
 30
0.0
 11
-1929.1278616297313
 21
3667.0907411289863
 31
0.0
  0
LINE
  5
F7
330
17
100
AcDbEntity
  8
visible
100
AcDbLine
 10
-1904.6703564330678
 20
3652.8955954817475
 30
0.0
 11
-1916.633960678643
 21
3659.879306844452
 31
0.0
  0
LINE
  5
F8
330
17
100
AcDbEntity
  8
visible
100
AcDbLine
 10
-1916.6339606786428
 20
3659.879306844451
 30
0.0
 11
-2100.9710005571123
 21
3342.2397943256174
 31
0.0
  0
LINE
  5
F9
330
17
100
AcDbEntity
  8
visible
100
AcDbLine
 10
-1929.127861629731
 20
3667.0907411289854
 30
0.0
 11
-2113.4649015082005
 21
3349.4512286101517
 31
0.0
  0
LINE
  5
FA
330
17
100
AcDbEntity
  8
visible
100
AcDbLine
 10
-1727.1083678828832
 20
3123.9988142411066
 30
0.0
 11
-1739.6022688339717
 21
3131.210248525642
 31
0.0
  0
LINE
  5
FB
330
17
100
AcDbEntity
  8
visible
100
AcDbLine
 10
-1715.1447636373082
 20
3117.015102878403
 30
0.0
 11
-1727.6386645883968
 21
3124.2265371629383
 31
0.0
  0
LINE
  5
FC
330
17
100
AcDbEntity
  8
visible
100
AcDbLine
 10
-1727.1083678828832
 20
3123.9988142411066
 30
0.0
 11
-1715.144763637308
 21
3117.015102878402
 31
0.0
  0
LINE
  5
FD
330
17
100
AcDbEntity
  8
visible
100
AcDbLine
 10
-1739.6022688339713
 20
3131.210248525643
 30
0.0
 11
-1727.638664588396
 21
3124.2265371629383
 31
0.0
  0
LINE
  5
FE
330
17
100
AcDbEntity
  8
visible
100
AcDbLine
 10
-1715.1447636373082
 20
3117.015102878403
 30
0.0
 11
-1530.8077237588386
 21
3434.6546153972363
 31
0.0
  0
LINE
  5
FF
330
17
100
AcDbEntity
  8
visible
100
AcDbLine
 10
-1542.7713280044136
 20
3441.6383267599404
 30
0.0
 11
-1555.2652289555022
 21
3448.8497610444756
 31
0.0
  0
LINE
  5
100
330
17
100
AcDbEntity
  8
visible
100
AcDbLine
 10
-1530.8077237588386
 20
3434.6546153972367
 30
0.0
 11
-1542.7713280044138
 21
3441.6383267599413
 31
0.0
  0
LINE
  5
101
330
17
100
AcDbEntity
  8
visible
100
AcDbLine
 10
-1542.7713280044136
 20
3441.6383267599404
 30
0.0
 11
-1727.1083678828832
 21
3123.998814241107
 31
0.0
  0
LINE
  5
102
330
17
100
AcDbEntity
  8
visible
100
AcDbLine
 10
-1555.2652289555017
 20
3448.8497610444747
 30
0.0
 11
-1739.6022688339713
 21
3131.2102485256414
 31
0.0
  0
LINE
  5
103
330
17
100
AcDbEntity
  8
visible
100
AcDbLine
 10
-1330.4442775290368
 20
2846.9921351063704
 30
0.0
 11
-1330.4442775290368
 21
3310.792096254145
 31
0.0
  0
LINE
  5
104
330
17
100
AcDbEntity
  8
visible
100
AcDbLine
 10
-1330.4442775290368
 20
3310.7920962541457
 30
0.0
 11
-1342.9381784801253
 21
3318.003530538681
 31
0.0
  0
LINE
  5
105
330
17
100
AcDbEntity
  8
visible
100
AcDbLine
 10
-1342.9381784801249
 20
2854.2035693909056
 30
0.0
 11
-1342.9381784801249
 21
3318.003530538679
 31
0.0
  0
LINE
  5
106
330
17
100
AcDbEntity
  8
visible
100
AcDbLine
 10
-1314.8269013401764
 20
2837.977842250702
 30
0.0
 11
-1314.8269013401764
 21
3311.7793953592186
 31
0.0
  0
LINE
  5
107
330
17
100
AcDbEntity
  8
visible
100
AcDbLine
 10
-1319.8437798076102
 20
3314.707980293921
 30
0.0
 11
-1314.826901340176
 21
3311.779395359219
 31
0.0
  0
LINE
  5
108
330
17
100
AcDbEntity
  8
visible
100
AcDbLine
 10
-1330.4442775290368
 20
3310.7920962541457
 30
0.0
 11
-1319.8437798076106
 21
3314.707980293922
 31
0.0
  0
LINE
  5
109
330
17
100
AcDbEntity
  8
visible
100
AcDbLine
 10
-1342.9381784801249
 20
3318.00353053868
 30
0.0
 11
-1332.3376807586988
 21
3321.9194145784563
 31
0.0
  0
LINE
  5
10A
330
17
100
AcDbEntity
  8
visible
100
AcDbLine
 10
-1319.8437798076102
 20
3314.7079802939206
 30
0.0
 11
-1332.3376807586985
 21
3321.9194145784554
 31
0.0
  0
LINE
  5
10B
330
17
100
AcDbEntity
  8
visible
100
AcDbLine
 10
-1019.1899700850454
 20
2853.7482605345585
 30
0.0
 11
-1216.1164213366492
 21
2781.002511445127
 31
0.0
  0
LINE
  5
10C
330
17
100
AcDbEntity
  8
visible
100
AcDbLine
 10
3393.2962148947936
 20
306.87724891277
 30
0.0
 11
-1019.1899700850436
 21
2853.7482605345585
 31
0.0
  0
LINE
  5
10D
330
17
100
AcDbEntity
  8
visible
100
AcDbLine
 10
3289.8089566734125
 20
180.1987367275377
 30
0.0
 11
3300.499136575732
 21
184.14774987408256
 31
0.0
  0
LINE
  5
10E
330
17
100
AcDbEntity
  8
visible
100
AcDbLine
 10
2936.856254805162
 20
383.92175526565507
 30
0.0
 11
3122.069673915122
 21
452.3406437843665
 31
0.0
  0
LINE
  5
10F
330
17
100
AcDbEntity
  8
visible
100
AcDbLine
 10
3122.069673915122
 20
452.34064378436506
 30
0.0
 11
3084.5879710618565
 21
473.9749466379704
 31
0.0
  0
LINE
  5
110
330
17
100
AcDbEntity
  8
visible
100
AcDbLine
 10
2899.374551951897
 20
405.5560581192601
 30
0.0
 11
3084.587971061857
 21
473.9749466379713
 31
0.0
  0
LINE
  5
111
330
17
100
AcDbEntity
  8
visible
100
AcDbLine
 10
2546.4218500836478
 20
609.279076657377
 30
0.0
 11
2731.635269193607
 21
677.697965176088
 31
0.0
  0
LINE
  5
112
330
17
100
AcDbEntity
  8
visible
100
AcDbLine
 10
2731.635269193607
 20
677.6979651760876
 30
0.0
 11
2694.153566340342
 21
699.332268029693
 31
0.0
  0
LINE
  5
113
330
17
100
AcDbEntity
  8
visible
100
AcDbLine
 10
2508.9401472303816
 20
630.9133795109826
 30
0.0
 11
2694.1535663403415
 21
699.3322680296938
 31
0.0
  0
LINE
  5
114
330
17
100
AcDbEntity
  8
visible
100
AcDbLine
 10
2155.9874453621333
 20
834.6363980490987
 30
0.0
 11
2341.2008644720922
 21
903.0552865678096
 31
0.0
  0
LINE
  5
115
330
17
100
AcDbEntity
  8
visible
100
AcDbLine
 10
2341.2008644720922
 20
903.0552865678101
 30
0.0
 11
2303.7191616188265
 21
924.6895894214155
 31
0.0
  0
LINE
  5
116
330
17
100
AcDbEntity
  8
visible
100
AcDbLine
 10
2118.5057425088667
 20
856.270700902705
 30
0.0
 11
2303.7191616188265
 21
924.6895894214163
 31
0.0
  0
LINE
  5
117
330
17
100
AcDbEntity
  8
visible
100
AcDbLine
 10
1765.553040640618
 20
1059.9937194408212
 30
0.0
 11
1950.766459750577
 21
1128.4126079595321
 31
0.0
  0
LINE
  5
118
330
17
100
AcDbEntity
  8
visible
100
AcDbLine
 10
1950.7664597505768
 20
1128.4126079595326
 30
0.0
 11
1913.2847568973114
 21
1150.0469108131379
 31
0.0
  0
LINE
  5
119
330
17
100
AcDbEntity
  8
visible
100
AcDbLine
 10
1728.0713377873524
 20
1081.628022294427
 30
0.0
 11
1913.2847568973118
 21
1150.0469108131379
 31
0.0
  0
LINE
  5
11A
330
17
100
AcDbEntity
  8
visible
100
AcDbLine
 10
1375.1186359191026
 20
1285.3510408325437
 30
0.0
 11
1560.332055029062
 21
1353.7699293512546
 31
0.0
  0
LINE
  5
11B
330
17
100
AcDbEntity
  8
visible
100
AcDbLine
 10
1560.3320550290618
 20
1353.769929351255
 30
0.0
 11
1522.8503521757964
 21
1375.4042322048604
 31
0.0
  0
LINE
  5
11C
330
17
100
AcDbEntity
  8
visible
100
AcDbLine
 10
1337.636933065837
 20
1306.9853436861492
 30
0.0
 11
1522.8503521757968
 21
1375.4042322048604
 31
0.0
  0
LINE
  5
11D
330
17
100
AcDbEntity
  8
visible
100
AcDbLine
 10
984.6842311975876
 20
1510.7083622242662
 30
0.0
 11
1169.8976503075467
 21
1579.1272507429771
 31
0.0
  0
LINE
  5
11E
330
17
100
AcDbEntity
  8
visible
100
AcDbLine
 10
1169.8976503075464
 20
1579.1272507429776
 30
0.0
 11
1132.415947454281
 21
1600.7615535965829
 31
0.0
  0
LINE
  5
11F
330
17
100
AcDbEntity
  8
visible
100
AcDbLine
 10
947.2025283443218
 20
1532.3426650778717
 30
0.0
 11
1132.4159474542814
 21
1600.7615535965829
 31
0.0
  0
LINE
  5
120
330
17
100
AcDbEntity
  8
visible
100
AcDbLine
 10
594.2498264760716
 20
1736.0656836159885
 30
0.0
 11
779.4632455860312
 21
1804.4845721346996
 31
0.0
  0
LINE
  5
121
330
17
100
AcDbEntity
  8
visible
100
AcDbLine
 10
779.463245586031
 20
1804.4845721347
 30
0.0
 11
741.9815427327655
 21
1826.1188749883054
 31
0.0
  0
LINE
  5
122
330
17
100
AcDbEntity
  8
visible
100
AcDbLine
 10
556.7681236228069
 20
1757.6999864695936
 30
0.0
 11
741.981542732766
 21
1826.1188749883045
 31
0.0
  0
LINE
  5
123
330
17
100
AcDbEntity
  8
visible
100
AcDbLine
 10
203.81542175455712
 20
1961.423005007711
 30
0.0
 11
389.02884086451667
 21
2029.8418935264222
 31
0.0
  0
LINE
  5
124
330
17
100
AcDbEntity
  8
visible
100
AcDbLine
 10
389.0288408645165
 20
2029.8418935264226
 30
0.0
 11
351.54713801125104
 21
2051.476196380028
 31
0.0
  0
LINE
  5
125
330
17
100
AcDbEntity
  8
visible
100
AcDbLine
 10
166.33371890129206
 20
1983.0573078613163
 30
0.0
 11
351.5471380112505
 21
2051.476196380027
 31
0.0
  0
LINE
  5
126
330
17
100
AcDbEntity
  8
visible
100
AcDbLine
 10
-186.6189829669583
 20
2186.7803263994338
 30
0.0
 11
-1.4055638569987536
 21
2255.1992149181447
 31
0.0
  0
LINE
  5
127
330
17
100
AcDbEntity
  8
visible
100
AcDbLine
 10
-1.4055638569989242
 20
2255.199214918145
 30
0.0
 11
-38.887266710264385
 21
2276.8335177717504
 31
0.0
  0
LINE
  5
128
330
17
100
AcDbEntity
  8
visible
100
AcDbLine
 10
-224.10068582022353
 20
2208.4146292530386
 30
0.0
 11
-38.88726671026399
 21
2276.8335177717495
 31
0.0
  0
LINE
  5
129
330
17
100
AcDbEntity
  8
visible
100
AcDbLine
 10
-577.0533876884742
 20
2412.137647791156
 30
0.0
 11
-391.8399685785142
 21
2480.556536309867
 31
0.0
  0
LINE
  5
12A
330
17
100
AcDbEntity
  8
visible
100
AcDbLine
 10
-391.83996857851434
 20
2480.556536309866
 30
0.0
 11
-429.3216714317798
 21
2502.190839163471
 31
0.0
  0
LINE
  5
12B
330
17
100
AcDbEntity
  8
visible
100
AcDbLine
 10
-614.535090541739
 20
2433.771950644761
 30
0.0
 11
-429.3216714317794
 21
2502.190839163472
 31
0.0
  0
LINE
  5
12C
330
17
100
AcDbEntity
  8
visible
100
AcDbLine
 10
-967.4877924099892
 20
2637.494969182879
 30
0.0
 11
-782.2743733000295
 21
2705.9138577015897
 31
0.0
  0
LINE
  5
12D
330
17
100
AcDbEntity
  8
visible
100
AcDbLine
 10
-782.2743733000298
 20
2705.9138577015883
 30
0.0
 11
-819.7560761532952
 21
2727.5481605551936
 31
0.0
  0
LINE
  5
12E
330
17
100
AcDbEntity
  8
visible
100
AcDbLine
 10
-1004.9694952632539
 20
2659.1292720364836
 30
0.0
 11
-819.7560761532948
 21
2727.5481605551945
 31
0.0
  0
LINE
  5
12F
330
17
100
AcDbEntity
  8
visible
100
AcDbLine
 10
-1369.0191967155224
 20
2869.257438459873
 30
0.0
 11
-1369.0191967155224
 21
2810.4172040725257
 31
0.0
  0
LINE
  5
130
330
17
100
AcDbEntity
  8
visible
100
AcDbLine
 10
3295.172475692472
 20
177.10293301569277
 30
0.0
 11
-1369.0191967155215
 21
2869.257438459872
 31
0.0
  0
LINE
  5
131
330
17
100
AcDbEntity
  8
visible
100
AcDbLine
 10
3289.8089566734125
 20
180.1987367275377
 30
0.0
 11
3300.499136575732
 21
184.14774987408256
 31
0.0
  0
LINE
  5
132
330
17
100
AcDbEntity
  8
visible
100
AcDbLine
 10
2936.856254805162
 20
383.92175526565507
 30
0.0
 11
3122.069673915122
 21
452.3406437843665
 31
0.0
  0
LINE
  5
133
330
17
100
AcDbEntity
  8
visible
100
AcDbLine
 10
2899.374551951897
 20
405.5560581192601
 30
0.0
 11
3084.587971061857
 21
473.9749466379713
 31
0.0
  0
LINE
  5
134
330
17
100
AcDbEntity
  8
visible
100
AcDbLine
 10
2546.4218500836478
 20
609.279076657377
 30
0.0
 11
2731.635269193607
 21
677.697965176088
 31
0.0
  0
LINE
  5
135
330
17
100
AcDbEntity
  8
visible
100
AcDbLine
 10
2508.9401472303816
 20
630.9133795109826
 30
0.0
 11
2694.1535663403415
 21
699.3322680296938
 31
0.0
  0
LINE
  5
136
330
17
100
AcDbEntity
  8
visible
100
AcDbLine
 10
2155.9874453621333
 20
834.6363980490987
 30
0.0
 11
2341.2008644720922
 21
903.0552865678096
 31
0.0
  0
LINE
  5
137
330
17
100
AcDbEntity
  8
visible
100
AcDbLine
 10
2118.5057425088667
 20
856.270700902705
 30
0.0
 11
2303.7191616188265
 21
924.6895894214163
 31
0.0
  0
LINE
  5
138
330
17
100
AcDbEntity
  8
visible
100
AcDbLine
 10
1765.553040640618
 20
1059.9937194408212
 30
0.0
 11
1950.766459750577
 21
1128.4126079595321
 31
0.0
  0
LINE
  5
139
330
17
100
AcDbEntity
  8
visible
100
AcDbLine
 10
1728.0713377873524
 20
1081.628022294427
 30
0.0
 11
1913.2847568973118
 21
1150.0469108131379
 31
0.0
  0
LINE
  5
13A
330
17
100
AcDbEntity
  8
visible
100
AcDbLine
 10
1375.1186359191026
 20
1285.3510408325437
 30
0.0
 11
1560.332055029062
 21
1353.7699293512546
 31
0.0
  0
LINE
  5
13B
330
17
100
AcDbEntity
  8
visible
100
AcDbLine
 10
1337.636933065837
 20
1306.9853436861492
 30
0.0
 11
1522.8503521757968
 21
1375.4042322048604
 31
0.0
  0
LINE
  5
13C
330
17
100
AcDbEntity
  8
visible
100
AcDbLine
 10
984.6842311975876
 20
1510.7083622242662
 30
0.0
 11
1169.8976503075467
 21
1579.1272507429771
 31
0.0
  0
LINE
  5
13D
330
17
100
AcDbEntity
  8
visible
100
AcDbLine
 10
947.2025283443218
 20
1532.3426650778717
 30
0.0
 11
1132.4159474542814
 21
1600.7615535965829
 31
0.0
  0
LINE
  5
13E
330
17
100
AcDbEntity
  8
visible
100
AcDbLine
 10
594.2498264760716
 20
1736.0656836159885
 30
0.0
 11
779.4632455860312
 21
1804.4845721346996
 31
0.0
  0
LINE
  5
13F
330
17
100
AcDbEntity
  8
visible
100
AcDbLine
 10
556.7681236228069
 20
1757.6999864695936
 30
0.0
 11
741.981542732766
 21
1826.1188749883045
 31
0.0
  0
LINE
  5
140
330
17
100
AcDbEntity
  8
visible
100
AcDbLine
 10
203.81542175455712
 20
1961.423005007711
 30
0.0
 11
389.02884086451667
 21
2029.8418935264222
 31
0.0
  0
LINE
  5
141
330
17
100
AcDbEntity
  8
visible
100
AcDbLine
 10
166.33371890129206
 20
1983.0573078613163
 30
0.0
 11
351.5471380112505
 21
2051.476196380027
 31
0.0
  0
LINE
  5
142
330
17
100
AcDbEntity
  8
visible
100
AcDbLine
 10
-186.6189829669583
 20
2186.7803263994338
 30
0.0
 11
-1.4055638569987536
 21
2255.1992149181447
 31
0.0
  0
LINE
  5
143
330
17
100
AcDbEntity
  8
visible
100
AcDbLine
 10
-224.10068582022353
 20
2208.4146292530386
 30
0.0
 11
-38.88726671026399
 21
2276.8335177717495
 31
0.0
  0
LINE
  5
144
330
17
100
AcDbEntity
  8
visible
100
AcDbLine
 10
-577.0533876884742
 20
2412.137647791156
 30
0.0
 11
-391.8399685785142
 21
2480.556536309867
 31
0.0
  0
LINE
  5
145
330
17
100
AcDbEntity
  8
visible
100
AcDbLine
 10
-614.535090541739
 20
2433.771950644761
 30
0.0
 11
-429.3216714317794
 21
2502.190839163472
 31
0.0
  0
LINE
  5
146
330
17
100
AcDbEntity
  8
visible
100
AcDbLine
 10
-967.4877924099892
 20
2637.494969182879
 30
0.0
 11
-782.2743733000295
 21
2705.9138577015897
 31
0.0
  0
LINE
  5
147
330
17
100
AcDbEntity
  8
visible
100
AcDbLine
 10
-1004.9694952632539
 20
2659.1292720364836
 30
0.0
 11
-819.7560761532948
 21
2727.5481605551945
 31
0.0
  0
LINE
  5
148
330
17
100
AcDbEntity
  8
visible
100
AcDbLine
 10
-1020.4393601801539
 20
2854.469403963013
 30
0.0
 11
-1026.9986581794753
 21
2858.255406962394
 31
0.0
  0
LINE
  5
149
330
17
100
AcDbEntity
  8
visible
100
AcDbLine
 10
-1020.4393601801539
 20
2853.2867287403483
 30
0.0
 11
-1020.4393601801539
 21
2854.469403963012
 31
0.0
  0
LINE
  5
14A
330
17
100
AcDbEntity
  8
visible
100
AcDbLine
 10
-1020.4393601801539
 20
2854.469403963013
 30
0.0
 11
-1217.3658114317589
 21
2781.723654873581
 31
0.0
  0
LINE
  5
14B
330
17
100
AcDbEntity
  8
visible
100
AcDbLine
 10
-1026.9986581794756
 20
2858.255406962394
 30
0.0
 11
-1223.9251094310798
 21
2785.5096578729617
 31
0.0
  0
LINE
  5
14C
330
17
100
AcDbEntity
  8
visible
100
AcDbLine
 10
-1369.0191967155224
 20
2814.402675078136
 30
0.0
 11
-1373.229488690303
 21
2812.847369319849
 31
0.0
  0
LINE
  5
14D
330
17
100
AcDbEntity
  8
visible
100
AcDbLine
 10
-1207.8478744464815
 20
2873.9402765312575
 30
0.0
 11
-1292.181705866329
 21
2842.7868804220657
 31
0.0
  0
LINE
  5
14E
330
17
100
AcDbEntity
  8
visible
100
AcDbLine
 10
-1207.847874446481
 20
2849.991103272316
 30
0.0
 11
-1207.847874446481
 21
2873.940276531257
 31
0.0
  0
LINE
  5
14F
330
17
100
AcDbEntity
  8
visible
100
AcDbLine
 10
-1114.143617313318
 20
2908.555161097026
 30
0.0
 11
-1160.9957458798997
 21
2891.2477188141415
 31
0.0
  0
LINE
  5
150
330
17
100
AcDbEntity
  8
visible
100
AcDbLine
 10
-1114.143617313318
 20
2864.2048402471355
 30
0.0
 11
-1114.143617313318
 21
2908.555161097027
 31
0.0
  0
LINE
  5
151
330
17
100
AcDbEntity
  8
visible
100
AcDbLine
 10
-1300.3027414845355
 20
3016.0055319365993
 30
0.0
 11
-1314.8269013401764
 21
3010.640224828905
 31
0.0
  0
LINE
  5
152
330
17
100
AcDbEntity
  8
visible
100
AcDbLine
 10
-1342.9381784801249
 20
3000.2557594591744
 30
0.0
 11
-1559.3886128615213
 21
2920.2977401594217
 31
0.0
  0
LINE
  5
153
330
17
100
AcDbEntity
  8
visible
100
AcDbLine
 10
-1160.995745879899
 20
2891.2477188141415
 30
0.0
 11
-1285.3100603432292
 21
2963.001489945266
 31
0.0
  0
LINE
  5
154
330
17
100
AcDbEntity
  8
visible
100
AcDbLine
 10
-1314.8269013401764
 20
2952.0978013070485
 30
0.0
 11
-1285.3100603432297
 21
2963.001489945266
 31
0.0
  0
LINE
  5
155
330
17
100
AcDbEntity
  8
visible
100
AcDbLine
 10
-1207.847874446481
 20
2873.9402765312566
 30
0.0
 11
-1314.8269013401764
 21
2935.688182592589
 31
0.0
  0
LINE
  5
156
330
17
100
AcDbEntity
  8
visible
100
AcDbLine
 10
-1292.1817058663287
 20
2842.7868804220648
 30
0.0
 11
-1314.8269013401764
 21
2855.8576050627844
 31
0.0
  0
LINE
  5
157
330
17
100
AcDbEntity
  8
visible
100
AcDbLine
 10
-1342.9381784801249
 20
2872.0833322029885
 30
0.0
 11
-1416.496020329659
 21
2914.540651553189
 31
0.0
  0
LINE
  5
158
330
17
100
AcDbEntity
  8
visible
100
AcDbLine
 10
-1463.3481488962407
 20
2897.2332092703064
 30
0.0
 11
-1416.496020329659
 21
2914.540651553191
 31
0.0
  0
LINE
  5
159
330
17
100
AcDbEntity
  8
visible
100
AcDbLine
 10
-1369.0191967155224
 20
2842.7868804220657
 30
0.0
 11
-1463.3481488962404
 21
2897.233209270306
 31
0.0
  0
LINE
  5
15A
330
17
100
AcDbEntity
  8
visible
100
AcDbLine
 10
-1498.1684982011873
 20
2884.9617121652
 30
0.0
 11
-1464.7537127532382
 21
2897.305323613151
 31
0.0
  0
LINE
  5
15B
330
17
100
AcDbEntity
  8
visible
100
AcDbLine
 10
-1464.7537127532382
 20
2897.305323613152
 30
0.0
 11
-1481.6204790372076
 21
2907.0407598972743
 31
0.0
  0
LINE
  5
15C
330
17
100
AcDbEntity
  8
visible
100
AcDbLine
 10
-1515.0352644851557
 20
2894.6971484493215
 30
0.0
 11
-1481.6204790372071
 21
2907.0407598972724
 31
0.0
  0
LINE
  5
15D
330
17
100
AcDbEntity
  8
visible
100
AcDbLine
 10
-1114.143617313318
 20
2908.555161097026
 30
0.0
 11
-1300.3027414845365
 21
3016.0055319365993
 31
0.0
  0
LINE
  5
15E
330
17
100
AcDbEntity
  8
visible
100
AcDbLine
 10
-1416.33984656777
 20
2915.1896806387986
 30
0.0
 11
-1433.2066128517395
 21
2924.925116922921
 31
0.0
  0
LINE
  5
15F
330
17
100
AcDbEntity
  8
visible
100
AcDbLine
 10
-1433.206612851739
 20
2924.92511692292
 30
0.0
 11
-1350.434519050778
 21
2955.501598289349
 31
0.0
  0
LINE
  5
160
330
17
100
AcDbEntity
  8
visible
100
AcDbLine
 10
-1416.33984656777
 20
2915.1896806387986
 30
0.0
 11
-1342.9381784801249
 21
2942.304673548651
 31
0.0
  0
LINE
  5
161
330
17
100
AcDbEntity
  8
visible
100
AcDbLine
 10
-1342.9381784801249
 20
2951.174737718628
 30
0.0
 11
-1350.4345190507784
 21
2955.501598289349
 31
0.0
  0
LINE
  5
162
330
17
100
AcDbEntity
  8
visible
100
AcDbLine
 10
-1498.1684982011873
 20
2884.9617121652
 30
0.0
 11
-1464.7537127532382
 21
2897.305323613151
 31
0.0
  0
LINE
  5
163
330
17
100
AcDbEntity
  8
visible
100
AcDbLine
 10
-1515.0352644851557
 20
2894.6971484493215
 30
0.0
 11
-1481.6204790372071
 21
2907.0407598972724
 31
0.0
  0
LINE
  5
164
330
17
100
AcDbEntity
  8
visible
100
AcDbLine
 10
-1204.8805729705973
 20
2792.54481776171
 30
0.0
 11
-1204.8805729705973
 21
2793.136155373041
 31
0.0
  0
LINE
  5
165
330
17
100
AcDbEntity
  8
visible
100
AcDbLine
 10
-1204.8805729705973
 20
2793.136155373041
 30
0.0
 11
-1221.7473392545667
 21
2802.8715916571637
 31
0.0
  0
LINE
  5
166
330
17
100
AcDbEntity
  8
visible
100
AcDbLine
 10
-1221.7473392545671
 20
2786.3141385398717
 30
0.0
 11
-1221.7473392545671
 21
2802.8715916571628
 31
0.0
  0
LINE
  5
167
330
17
100
AcDbEntity
  8
visible
100
AcDbLine
 10
-1122.1084791696362
 20
2823.121299128139
 30
0.0
 11
-1122.1084791696362
 21
2823.7126367394712
 31
0.0
  0
LINE
  5
168
330
17
100
AcDbEntity
  8
visible
100
AcDbLine
 10
-1122.1084791696362
 20
2823.7126367394712
 30
0.0
 11
-1138.9752454536056
 21
2833.4480730235937
 31
0.0
  0
LINE
  5
169
330
17
100
AcDbEntity
  8
visible
100
AcDbLine
 10
-1204.8805729705973
 20
2793.136155373041
 30
0.0
 11
-1122.1084791696362
 21
2823.7126367394703
 31
0.0
  0
LINE
  5
16A
330
17
100
AcDbEntity
  8
visible
100
AcDbLine
 10
-1221.7473392545671
 20
2802.8715916571628
 30
0.0
 11
-1138.975245453606
 21
2833.448073023592
 31
0.0
  0
LINE
  5
16B
330
17
100
AcDbEntity
  8
visible
100
AcDbLine
 10
-1369.0191967155224
 20
2842.7868804220657
 30
0.0
 11
-1463.3481488962404
 21
2897.233209270306
 31
0.0
  0
LINE
  5
16C
330
17
100
AcDbEntity
  8
visible
100
AcDbLine
 10
-1223.1529031115647
 20
2785.794915271385
 30
0.0
 11
-1223.1529031115647
 21
2802.943706000008
 31
0.0
  0
LINE
  5
16D
330
17
100
AcDbEntity
  8
visible
100
AcDbLine
 10
-1223.1529031115647
 20
2802.943706000008
 30
0.0
 11
-1314.8269013401764
 21
2855.8576050627844
 31
0.0
  0
LINE
  5
16E
330
17
100
AcDbEntity
  8
visible
100
AcDbLine
 10
-1342.9381784801249
 20
2872.0833322029885
 30
0.0
 11
-1416.496020329659
 21
2914.540651553189
 31
0.0
  0
LINE
  5
16F
330
17
100
AcDbEntity
  8
visible
100
AcDbLine
 10
-1242.0412658101577
 20
2795.966237585538
 30
0.0
 11
-1223.1529031115645
 21
2802.9437060000096
 31
0.0
  0
LINE
  5
170
330
17
100
AcDbEntity
  8
visible
100
AcDbLine
 10
-1138.819071691717
 20
2833.357930095037
 30
0.0
 11
-1138.819071691717
 21
2834.0971021092
 31
0.0
  0
LINE
  5
171
330
17
100
AcDbEntity
  8
visible
100
AcDbLine
 10
-1138.819071691717
 20
2834.0971021092
 30
0.0
 11
-1314.8269013401764
 21
2935.688182592589
 31
0.0
  0
LINE
  5
172
330
17
100
AcDbEntity
  8
visible
100
AcDbLine
 10
-1163.4945260701168
 20
2824.3905115622156
 30
0.0
 11
-1207.8478744464812
 21
2849.9911032723153
 31
0.0
  0
LINE
  5
173
330
17
100
AcDbEntity
  8
visible
100
AcDbLine
 10
-1091.966943125135
 20
2834.2557536634613
 30
0.0
 11
-1091.966943125135
 21
2851.404544392085
 31
0.0
  0
LINE
  5
174
330
17
100
AcDbEntity
  8
visible
100
AcDbLine
 10
-1091.966943125135
 20
2851.404544392085
 30
0.0
 11
-1285.3100603432292
 21
2963.001489945266
 31
0.0
  0
LINE
  5
175
330
17
100
AcDbEntity
  8
visible
100
AcDbLine
 10
-1138.819071691717
 20
2834.0971021092
 30
0.0
 11
-1091.9669431251352
 21
2851.4045443920845
 31
0.0
  0
LINE
  5
176
330
17
100
AcDbEntity
  8
visible
100
AcDbLine
 10
2163.006602157193
 20
-4759.217628272269
 30
0.0
 11
2163.006602157193
 21
-2811.94287415639
 31
0.0
  0
LINE
  5
177
330
17
100
AcDbEntity
  8
visible
100
AcDbLine
 10
2237.032965292392
 20
-4801.94537640814
 30
0.0
 11
2163.006602157193
 21
-4759.217628272269
 31
0.0
  0
LINE
  5
178
330
17
100
AcDbEntity
  8
visible
100
AcDbLine
 10
2160.8201694907525
 20
-4759.433971300806
 30
0.0
 11
2163.006602157193
 21
-4758.626290660937
 31
0.0
  0
LINE
  5
179
330
17
100
AcDbEntity
  8
visible
100
AcDbLine
 10
2160.8201694907525
 20
-2812.7505547962583
 30
0.0
 11
2160.8201694907525
 21
-4759.433971300806
 31
0.0
  0
LINE
  5
17A
330
17
100
AcDbEntity
  8
visible
100
AcDbLine
 10
2160.8201694907525
 20
-4759.433971300805
 30
0.0
 11
2153.011481396322
 21
-4754.92682487297
 31
0.0
  0
LINE
  5
17B
330
17
100
AcDbEntity
  8
visible
100
AcDbLine
 10
2153.0114813963223
 20
-2815.6351285100727
 30
0.0
 11
2153.0114813963223
 21
-4754.926824872971
 31
0.0
  0
ENDSEC
  0
SECTION
  2
OBJECTS
  0
DICTIONARY
  5
A
330
0
100
AcDbDictionary
281
1
  3
ACAD_COLOR
350
B
  3
ACAD_GROUP
350
C
  3
ACAD_LAYOUT
350
D
  3
ACAD_MATERIAL
350
E
  3
ACAD_MLEADERSTYLE
350
F
  3
ACAD_MLINESTYLE
350
10
  3
ACAD_PLOTSETTINGS
350
11
  3
ACAD_PLOTSTYLENAME
350
12
  3
ACAD_SCALELIST
350
14
  3
ACAD_TABLESTYLE
350
15
  3
ACAD_VISUALSTYLE
350
16
  3
EZDXF_META
350
2D
  0
DICTIONARY
  5
B
330
A
100
AcDbDictionary
281
1
  0
DICTIONARY
  5
C
330
A
100
AcDbDictionary
281
1
  0
DICTIONARY
  5
D
330
A
100
AcDbDictionary
281
1
  3
Model
350
1A
  3
Layout1
350
1E
  0
DICTIONARY
  5
E
330
A
100
AcDbDictionary
281
1
  3
ByBlock
350
1F
  3
ByLayer
350
20
  3
Global
350
21
  0
DICTIONARY
  5
F
330
A
100
AcDbDictionary
281
1
  3
Standard
350
2C
  0
DICTIONARY
  5
10
330
A
100
AcDbDictionary
281
1
  3
Standard
350
22
  0
DICTIONARY
  5
11
330
A
100
AcDbDictionary
281
1
  0
ACDBDICTIONARYWDFLT
  5
12
330
A
100
AcDbDictionary
281
1
  3
Normal
350
13
100
AcDbDictionaryWithDefault
340
13
  0
ACDBPLACEHOLDER
  5
13
330
12
  0
DICTIONARY
  5
14
330
A
100
AcDbDictionary
281
1
  0
DICTIONARY
  5
15
330
A
100
AcDbDictionary
281
1
  0
DICTIONARY
  5
16
330
A
100
AcDbDictionary
281
1
  0
LAYOUT
  5
1A
330
D
100
AcDbPlotSettings
  1

  4
A3
  6

 40
7.5
 41
20.0
 42
7.5
 43
20.0
 44
420.0
 45
297.0
 46
0.0
 47
0.0
 48
0.0
 49
0.0
140
0.0
141
0.0
142
1.0
143
1.0
 70
1024
 72
1
 73
0
 74
5
  7

 75
16
 76
0
 77
2
 78
300
147
1.0
148
0.0
149
0.0
100
AcDbLayout
  1
Model
 70
1
 71
0
 10
0.0
 20
0.0
 11
420.0
 21
297.0
 12
0.0
 22
0.0
 32
0.0
 14
1e+20
 24
1e+20
 34
1e+20
 15
-1e+20
 25
-1e+20
 35
-1e+20
146
0.0
 13
0.0
 23
0.0
 33
0.0
 16
1.0
 26
0.0
 36
0.0
 17
0.0
 27
1.0
 37
0.0
 76
1
330
17
  0
LAYOUT
  5
1E
330
D
100
AcDbPlotSettings
  1

  4
A3
  6

 40
7.5
 41
20.0
 42
7.5
 43
20.0
 44
420.0
 45
297.0
 46
0.0
 47
0.0
 48
0.0
 49
0.0
140
0.0
141
0.0
142
1.0
143
1.0
 70
0
 72
1
 73
0
 74
5
  7

 75
16
 76
0
 77
2
 78
300
147
1.0
148
0.0
149
0.0
100
AcDbLayout
  1
Layout1
 70
1
 71
1
 10
0.0
 20
0.0
 11
420.0
 21
297.0
 12
0.0
 22
0.0
 32
0.0
 14
1e+20
 24
1e+20
 34
1e+20
 15
-1e+20
 25
-1e+20
 35
-1e+20
146
0.0
 13
0.0
 23
0.0
 33
0.0
 16
1.0
 26
0.0
 36
0.0
 17
0.0
 27
1.0
 37
0.0
 76
1
330
1B
  0
MATERIAL
  5
1F
102
{ACAD_REACTORS
330
E
102
}
330
E
100
AcDbMaterial
  1
ByBlock
  2

 70
0
 40
1.0
 71
1
 41
1.0
 91
-1023410177
 42
1.0
 72
1
  3

 73
1
 74
1
 75
1
 44
0.5
 73
0
 45
1.0
 46
1.0
 77
1
  4

 78
1
 79
1
170
1
 48
1.0
171
1
  6

172
1
173
1
174
1
140
1.0
141
1.0
175
1
  7

176
1
177
1
178
1
143
1.0
179
1
  8

270
1
271
1
272
1
145
1.0
146
1.0
273
1
  9

274
1
275
1
276
1
 42
1.0
 72
1
  3

 73
1
 74
1
 75
1
 94
63
  0
MATERIAL
  5
20
102
{ACAD_REACTORS
330
E
102
}
330
E
100
AcDbMaterial
  1
ByLayer
  2

 70
0
 40
1.0
 71
1
 41
1.0
 91
-1023410177
 42
1.0
 72
1
  3

 73
1
 74
1
 75
1
 44
0.5
 73
0
 45
1.0
 46
1.0
 77
1
  4

 78
1
 79
1
170
1
 48
1.0
171
1
  6

172
1
173
1
174
1
140
1.0
141
1.0
175
1
  7

176
1
177
1
178
1
143
1.0
179
1
  8

270
1
271
1
272
1
145
1.0
146
1.0
273
1
  9

274
1
275
1
276
1
 42
1.0
 72
1
  3

 73
1
 74
1
 75
1
 94
63
  0
MATERIAL
  5
21
102
{ACAD_REACTORS
330
E
102
}
330
E
100
AcDbMaterial
  1
Global
  2

 70
0
 40
1.0
 71
1
 41
1.0
 91
-1023410177
 42
1.0
 72
1
  3

 73
1
 74
1
 75
1
 44
0.5
 73
0
 45
1.0
 46
1.0
 77
1
  4

 78
1
 79
1
170
1
 48
1.0
171
1
  6

172
1
173
1
174
1
140
1.0
141
1.0
175
1
  7

176
1
177
1
178
1
143
1.0
179
1
  8

270
1
271
1
272
1
145
1.0
146
1.0
273
1
  9

274
1
275
1
276
1
 42
1.0
 72
1
  3

 73
1
 74
1
 75
1
 94
63
  0
MLINESTYLE
  5
22
102
{ACAD_REACTORS
330
10
102
}
330
10
100
AcDbMlineStyle
  2
Standard
 70
0
  3

 62
256
 51
90.0
 52
90.0
 71
2
 49
0.5
 62
256
  6
BYLAYER
 49
-0.5
 62
256
  6
BYLAYER
  0
MLEADERSTYLE
  5
2C
102
{ACAD_REACTORS
330
F
102
}
330
F
100
AcDbMLeaderStyle
179
2
170
2
171
1
172
0
 90
2
 40
0.0
 41
0.0
173
1
 91
-1056964608
 92
-2
290
1
 42
2.0
291
1
 43
8.0
  3
Standard
 44
4.0
300

342
29
174
1
175
1
176
0
178
1
 93
-1056964608
 45
4.0
292
0
297
0
 46
4.0
 94
-1056964608
 47
1.0
 49
1.0
140
1.0
294
1
141
0.0
177
0
142
1.0
295
0
296
0
143
3.75
271
0
272
9
273
9
  0
DICTIONARY
  5
2D
330
A
100
AcDbDictionary
280
1
281
1
  3
CREATED_BY_EZDXF
350
2E
  3
WRITTEN_BY_EZDXF
350
17F
  0
DICTIONARYVAR
  5
2E
330
2D
100
DictionaryVariables
280
0
  1
1.4.4 @ 2026-09-20T13:00:38.911103+00:00
  0
DICTIONARYVAR
  5
17F
330
2D
100
DictionaryVariables
280
0
  1
1.4.4 @ 2026-09-20T13:00:38.935698+00:00
  0
ENDSEC
  0
EOF
