  0
SECTION
  2
HEADER
  9
$ACADVER
  1
AC1027
  9
$ACADMAINTVER
 70
105
  9
$DWGCODEPAGE
  3
ANSI_1252
  9
$LASTSAVEDBY
  1
ezdxf
  9
$REQUIREDVERSIONS
160
0
  9
$INSBASE
 10
0.0
 20
0.0
 30
0.0
  9
$EXTMIN
 10
1e+20
 20
1e+20
 30
1e+20
  9
$EXTMAX
 10
-1e+20
 20
-1e+20
 30
-1e+20
  9
$LIMMIN
 10
0.0
 20
0.0
  9
$LIMMAX
 10
420.0
 20
297.0
  9
$ORTHOMODE
 70
0
  9
$REGENMODE
 70
1
  9
$FILLMODE
 70
1
  9
$QTEXTMODE
 70
0
  9
$MIRRTEXT
 70
1
  9
$LTSCALE
 40
1.0
  9
$ATTMODE
 70
1
  9
$TEXTSIZE
 40
2.5
  9
$TRACEWID
 40
1.0
  9
$TEXTSTYLE
  7
Standard
  9
$CLAYER
  8
0
  9
$CELTYPE
  6
ByLayer
  9
$CECOLOR
 62
256
  9
$CELTSCALE
 40
1.0
  9
$DISPSILH
 70
0
  9
$DIMSCALE
 40
1.0
  9
$DIMASZ
 40
2.5
  9
$DIMEXO
 40
0.625
  9
$DIMDLI
 40
3.75
  9
$DIMRND
 40
0.0
  9
$DIMDLE
 40
0.0
  9
$DIMEXE
 40
1.25
  9
$DIMTP
 40
0.0
  9
$DIMTM
 40
0.0
  9
$DIMTXT
 40
2.5
  9
$DIMCEN
 40
2.5
  9
$DIMTSZ
 40
0.0
  9
$DIMTOL
 70
0
  9
$DIMLIM
 70
0
  9
$DIMTIH
 70
0
  9
$DIMTOH
 70
0
  9
$DIMSE1
 70
0
  9
$DIMSE2
 70
0
  9
$DIMTAD
 70
1
  9
$DIMZIN
 70
8
  9
$DIMBLK
  1

  9
$DIMASO
 70
1
  9
$DIMSHO
 70
1
  9
$DIMPOST
  1

  9
$DIMAPOST
  1

  9
$DIMALT
 70
0
  9
$DIMALTD
 70
3
  9
$DIMALTF
 40
0.03937007874
  9
$DIMLFAC
 40
1.0
  9
$DIMTOFL
 70
1
  9
$DIMTVP
 40
0.0
  9
$DIMTIX
 70
0
  9
$DIMSOXD
 70
0
  9
$DIMSAH
 70
0
  9
$DIMBLK1
  1

  9
$DIMBLK2
  1

  9
$DIMSTYLE
  2
ISO-25
  9
$DIMCLRD
 70
0
  9
$DIMCLRE
 70
0
  9
$DIMCLRT
 70
0
  9
$DIMTFAC
 40
1.0
  9
$DIMGAP
 40
0.625
  9
$DIMJUST
 70
0
  9
$DIMSD1
 70
0
  9
$DIMSD2
 70
0
  9
$DIMTOLJ
 70
0
  9
$DIMTZIN
 70
8
  9
$DIMALTZ
 70
0
  9
$DIMALTTZ
 70
0
  9
$DIMUPT
 70
0
  9
$DIMDEC
 70
2
  9
$DIMTDEC
 70
2
  9
$DIMALTU
 70
2
  9
$DIMALTTD
 70
3
  9
$DIMTXSTY
  7
Standard
  9
$DIMAUNIT
 70
0
  9
$DIMADEC
 70
0
  9
$DIMALTRND
 40
0.0
  9
$DIMAZIN
 70
0
  9
$DIMDSEP
 70
44
  9
$DIMATFIT
 70
3
  9
$DIMFRAC
 70
0
  9
$DIMLDRBLK
  1

  9
$DIMLUNIT
 70
2
  9
$DIMLWD
 70
-2
  9
$DIMLWE
 70
-2
  9
$DIMTMOVE
 70
0
  9
$DIMFXL
 40
1.0
  9
$DIMFXLON
 70
0
  9
$DIMJOGANG
 40
0.785398163397
  9
$DIMTFILL
 70
0
  9
$DIMTFILLCLR
 70
0
  9
$DIMARCSYM
 70
0
  9
$DIMLTYPE
  6

  9
$DIMLTEX1
  6

  9
$DIMLTEX2
  6

  9
$DIMTXTDIRECTION
 70
0
  9
$LUNITS
 70
2
  9
$LUPREC
 70
4
  9
$SKETCHINC
 40
1.0
  9
$FILLETRAD
 40
10.0
  9
$AUNITS
 70
0
  9
$AUPREC
 70
2
  9
$MENU
  1
.
  9
$ELEVATION
 40
0.0
  9
$PELEVATION
 40
0.0
  9
$THICKNESS
 40
0.0
  9
$LIMCHECK
 70
0
  9
$CHAMFERA
 40
0.0
  9
$CHAMFERB
 40
0.0
  9
$CHAMFERC
 40
0.0
  9
$CHAMFERD
 40
0.0
  9
$SKPOLY
 70
0
  9
$TDCREATE
 40
2461307.307962963
  9
$TDUCREATE
 40
2458532.153996898
  9
$TDUPDATE
 40
2461307.307962963
  9
$TDUUPDATE
 40
2458532.1544311
  9
$TDINDWG
 40
0.0
  9
$TDUSRTIMER
 40
0.0
  9
$USRTIMER
 70
1
  9
$ANGBASE
 50
0.0
  9
$ANGDIR
 70
0
  9
$PDMODE
 70
0
  9
$PDSIZE
 40
0.0
  9
$PLINEWID
 40
0.0
  9
$SPLFRAME
 70
0
  9
$SPLINETYPE
 70
6
  9
$SPLINESEGS
 70
8
  9
$HANDSEED
  5
1DF
  9
$SURFTAB1
 70
6
  9
$SURFTAB2
 70
6
  9
$SURFTYPE
 70
6
  9
$SURFU
 70
6
  9
$SURFV
 70
6
  9
$UCSBASE
  2

  9
$UCSNAME
  2

  9
$UCSORG
 10
0.0
 20
0.0
 30
0.0
  9
$UCSXDIR
 10
1.0
 20
0.0
 30
0.0
  9
$UCSYDIR
 10
0.0
 20
1.0
 30
0.0
  9
$UCSORTHOREF
  2

  9
$UCSORTHOVIEW
 70
0
  9
$UCSORGTOP
 10
0.0
 20
0.0
 30
0.0
  9
$UCSORGBOTTOM
 10
0.0
 20
0.0
 30
0.0
  9
$UCSORGLEFT
 10
0.0
 20
0.0
 30
0.0
  9
$UCSORGRIGHT
 10
0.0
 20
0.0
 30
0.0
  9
$UCSORGFRONT
 10
0.0
 20
0.0
 30
0.0
  9
$UCSORGBACK
 10
0.0
 20
0.0
 30
0.0
  9
$PUCSBASE
  2

  9
$PUCSNAME
  2

  9
$PUCSORG
 10
0.0
 20
0.0
 30
0.0
  9
$PUCSXDIR
 10
1.0
 20
0.0
 30
0.0
  9
$PUCSYDIR
 10
0.0
 20
1.0
 30
0.0
  9
$PUCSORTHOREF
  2

  9
$PUCSORTHOVIEW
 70
0
  9
$PUCSORGTOP
 10
0.0
 20
0.0
 30
0.0
  9
$PUCSORGBOTTOM
 10
0.0
 20
0.0
 30
0.0
  9
$PUCSORGLEFT
 10
0.0
 20
0.0
 30
0.0
  9
$PUCSORGRIGHT
 10
0.0
 20
0.0
 30
0.0
  9
$PUCSORGFRONT
 10
0.0
 20
0.0
 30
0.0
  9
$PUCSORGBACK
 10
0.0
 20
0.0
 30
0.0
  9
$USERI1
 70
0
  9
$USERI2
 70
0
  9
$USERI3
 70
0
  9
$USERI4
 70
0
  9
$USERI5
 70
0
  9
$USERR1
 40
0.0
  9
$USERR2
 40
0.0
  9
$USERR3
 40
0.0
  9
$USERR4
 40
0.0
  9
$USERR5
 40
0.0
  9
$WORLDVIEW
 70
1
  9
$SHADEDGE
 70
3
  9
$SHADEDIF
 70
70
  9
$TILEMODE
 70
1
  9
$MAXACTVP
 70
64
  9
$PINSBASE
 10
0.0
 20
0.0
 30
0.0
  9
$PLIMCHECK
 70
0
  9
$PEXTMIN
 10
1e+20
 20
1e+20
 30
1e+20
  9
$PEXTMAX
 10
-1e+20
 20
-1e+20
 30
-1e+20
  9
$PLIMMIN
 10
0.0
 20
0.0
  9
$PLIMMAX
 10
420.0
 20
297.0
  9
$UNITMODE
 70
0
  9
$VISRETAIN
 70
1
  9
$PLINEGEN
 70
0
  9
$PSLTSCALE
 70
1
  9
$TREEDEPTH
 70
3020
  9
$CMLSTYLE
  2
Standard
  9
$CMLJUST
 70
0
  9
$CMLSCALE
 40
20.0
  9
$PROXYGRAPHICS
 70
1
  9
$MEASUREMENT
 70
1
  9
$CELWEIGHT
370
-1
  9
$ENDCAPS
280
0
  9
$JOINSTYLE
280
0
  9
$LWDISPLAY
290
0
  9
$INSUNITS
 70
4
  9
$HYPERLINKBASE
  1

  9
$STYLESHEET
  1

  9
$XEDIT
290
1
  9
$CEPSNTYPE
380
0
  9
$PSTYLEMODE
290
1
  9
$FINGERPRINTGUID
  2
{8972519B-CCCE-44E4-87A1-B4BAC676CCF0}
  9
$VERSIONGUID
  2
{351D5A2A-A955-4BB4-BEE1-B653A04697ED}
  9
$EXTNAMES
290
1
  9
$PSVPSCALE
 40
0.0
  9
$OLESTARTUP
290
0
  9
$SORTENTS
280
127
  9
$INDEXCTL
280
0
  9
$HIDETEXT
280
1
  9
$XCLIPFRAME
280
1
  9
$HALOGAP
280
0
  9
$OBSCOLOR
 70
257
  9
$OBSLTYPE
280
0
  9
$INTERSECTIONDISPLAY
280
0
  9
$INTERSECTIONCOLOR
 70
257
  9
$DIMASSOC
280
2
  9
$PROJECTNAME
  1

  9
$CAMERADISPLAY
290
0
  9
$LENSLENGTH
 40
50.0
  9
$CAMERAHEIGHT
 40
0.0
  9
$STEPSPERSEC
 40
24.0
  9
$STEPSIZE
 40
100.0
  9
$3DDWFPREC
 40
2.0
  9
$PSOLWIDTH
 40
0.005
  9
$PSOLHEIGHT
 40
0.08
  9
$LOFTANG1
 40
1.570796326795
  9
$LOFTANG2
 40
1.570796326795
  9
$LOFTMAG1
 40
0.0
  9
$LOFTMAG2
 40
0.0
  9
$LOFTPARAM
 70
7
  9
$LOFTNORMALS
280
1
  9
$LATITUDE
 40
37.795
  9
$LONGITUDE
 40
-122.394
  9
$NORTHDIRECTION
 40
0.0
  9
$TIMEZONE
 70
-8000
  9
$LIGHTGLYPHDISPLAY
280
1
  9
$TILEMODELIGHTSYNCH
280
1
  9
$CMATERIAL
347
20
  9
$SOLIDHIST
280
0
  9
$SHOWHIST
280
1
  9
$DWFFRAME
280
2
  9
$DGNFRAME
280
2
  9
$REALWORLDSCALE
290
1
  9
$INTERFERECOLOR
 62
256
  9
$CSHADOW
280
0
  9
$SHADOWPLANELOCATION
 40
0.0
  0
ENDSEC
  0
SECTION
  2
CLASSES
  0
CLASS
  1
ACDBDICTIONARYWDFLT
  2
AcDbDictionaryWithDefault
  3
ObjectDBX Classes
 90
0
 91
0
280
0
281
0
  0
CLASS
  1
SUN
  2
AcDbSun
  3
SCENEOE
 90
1153
 91
0
280
0
281
0
  0
CLASS
  1
VISUALSTYLE
  2
AcDbVisualStyle
  3
ObjectDBX Classes
 90
4095
 91
0
280
0
281
0
  0
CLASS
  1
MATERIAL
  2
AcDbMaterial
  3
ObjectDBX Classes
 90
1153
 91
0
280
0
281
0
  0
CLASS
  1
SCALE
  2
AcDbScale
  3
ObjectDBX Classes
 90
1153
 91
0
280
0
281
0
  0
CLASS
  1
TABLESTYLE
  2
AcDbTableStyle
  3
ObjectDBX Classes
 90
4095
 91
0
280
0
281
0
  0
CLASS
  1
MLEADERSTYLE
  2
AcDbMLeaderStyle
  3
ACDB_MLEADERSTYLE_CLASS
 90
4095
 91
0
280
0
281
0
  0
CLASS
  1
DICTIONARYVAR
  2
AcDbDictionaryVar
  3
ObjectDBX Classes
 90
0
 91
0
280
0
281
0
  0
CLASS
  1
CELLSTYLEMAP
  2
AcDbCellStyleMap
  3
ObjectDBX Classes
 90
1152
 91
0
280
0
281
0
  0
CLASS
  1
MENTALRAYRENDERSETTINGS
  2
AcDbMentalRayRenderSettings
  3
SCENEOE
 90
1024
 91
0
280
0
281
0
  0
CLASS
  1
ACDBDETAILVIEWSTYLE
  2
AcDbDetailViewStyle
  3
ObjectDBX Classes
 90
1025
 91
0
280
0
281
0
  0
CLASS
  1
ACDBSECTIONVIEWSTYLE
  2
AcDbSectionViewStyle
  3
ObjectDBX Classes
 90
1025
 91
0
280
0
281
0
  0
CLASS
  1
RASTERVARIABLES
  2
AcDbRasterVariables
  3
ISM
 90
0
 91
0
280
0
281
0
  0
CLASS
  1
ACDBPLACEHOLDER
  2
AcDbPlaceHolder
  3
ObjectDBX Classes
 90
0
 91
0
280
0
281
0
  0
CLASS
  1
LAYOUT
  2
AcDbLayout
  3
ObjectDBX Classes
 90
0
 91
0
280
0
281
0
  0
ENDSEC
  0
SECTION
  2
TABLES
  0
TABLE
  2
VPORT
  5
8
330
0
100
AcDbSymbolTable
 70
1
  0
VPORT
  5
1DB
330
8
100
AcDbSymbolTableRecord
100
AcDbViewportTableRecord
  2
*Active
 70
0
 10
0.0
 20
0.0
 11
1.0
 21
1.0
 12
78.0868809443009
 22
-395.186598792523
 13
0.0
 23
0.0
 14
0.5
 24
0.5
 15
0.5
 25
0.5
 16
0.0
 26
0.0
 36
1.0
 17
0.0
 27
0.0
 37
0.0
 40
10003.952281185153
 41
1.34
 42
50.0
 43
0.0
 44
0.0
 50
0.0
 51
0.0
 71
0
 72
1000
 73
1
 74
3
 75
0
 76
0
 77
0
 78
0
281
0
 65
1
110
0.0
120
0.0
130
0.0
111
1.0
121
0.0
131
0.0
112
0.0
122
1.0
132
0.0
 79
0
146
0.0
  0
ENDTAB
  0
TABLE
  2
LTYPE
  5
2
330
0
100
AcDbSymbolTable
 70
3
  0
LTYPE
  5
24
330
2
100
AcDbSymbolTableRecord
100
AcDbLinetypeTableRecord
  2
ByBlock
 70
0
  3

 72
65
 73
0
 40
0.0
  0
LTYPE
  5
25
330
2
100
AcDbSymbolTableRecord
100
AcDbLinetypeTableRecord
  2
ByLayer
 70
0
  3

 72
65
 73
0
 40
0.0
  0
LTYPE
  5
26
330
2
100
AcDbSymbolTableRecord
100
AcDbLinetypeTableRecord
  2
Continuous
 70
0
  3

 72
65
 73
0
 40
0.0
  0
ENDTAB
  0
TABLE
  2
LAYER
  5
1
330
0
100
AcDbSymbolTable
 70
3
  0
LAYER
  5
27
330
1
100
AcDbSymbolTableRecord
100
AcDbLayerTableRecord
  2
0
 70
0
 62
7
  6
Continuous
370
-3
390
13
347
21
  0
LAYER
  5
28
330
1
100
AcDbSymbolTableRecord
100
AcDbLayerTableRecord
  2
Defpoints
 70
0
 62
7
  6
Continuous
290
0
370
-3
390
13
347
21
  0
LAYER
  5
2F
330
1
100
AcDbSymbolTableRecord
100
AcDbLayerTableRecord
  2
visible
 70
0
 62
7
  6
Continuous
370
-3
390
13
347
21
  0
ENDTAB
  0
TABLE
  2
STYLE
  5
5
330
0
100
AcDbSymbolTable
 70
1
  0
STYLE
  5
29
330
5
100
AcDbSymbolTableRecord
100
AcDbTextStyleTableRecord
  2
Standard
 70
0
 40
0.0
 41
1.0
 50
0.0
 71
0
 42
2.5
  3
txt
  4

  0
ENDTAB
  0
TABLE
  2
VIEW
  5
7
330
0
100
AcDbSymbolTable
 70
0
  0
ENDTAB
  0
TABLE
  2
UCS
  5
6
330
0
100
AcDbSymbolTable
 70
0
  0
ENDTAB
  0
TABLE
  2
APPID
  5
3
330
0
100
AcDbSymbolTable
 70
3
  0
APPID
  5
2A
330
3
100
AcDbSymbolTableRecord
100
AcDbRegAppTableRecord
  2
ACAD
 70
0
  0
APPID
  5
1DC
330
3
100
AcDbSymbolTableRecord
100
AcDbRegAppTableRecord
  2
HATCHBACKGROUNDCOLOR
 70
0
  0
APPID
  5
1DD
330
3
100
AcDbSymbolTableRecord
100
AcDbRegAppTableRecord
  2
EZDXF
 70
0
  0
ENDTAB
  0
TABLE
  2
DIMSTYLE
  5
4
330
0
100
AcDbSymbolTable
 70
1
100
AcDbDimStyleTable
  0
DIMSTYLE
105
2B
330
4
100
AcDbSymbolTableRecord
100
AcDbDimStyleTableRecord
  2
Standard
 70
0
 40
1.0
 41
2.5
 42
0.625
 43
3.75
 44
1.25
 45
0.0
 46
0.0
 47
0.0
 48
0.0
 49
2.5
140
2.5
141
2.5
142
0.0
143
0.03937007874
144
1.0
145
0.0
146
1.0
147
0.625
148
0.0
 69
0
 70
0
 71
0
 72
0
 73
0
 74
0
 75
0
 76
0
 77
1
 78
8
 79
3
170
0
171
3
172
1
173
0
174
0
175
0
176
0
177
0
178
0
179
2
271
2
272
2
273
2
274
3
275
0
276
0
277
2
278
44
279
0
280
0
281
0
282
0
283
0
284
8
285
0
286
0
288
0
289
3
290
0
371
-2
372
-2
  0
ENDTAB
  0
TABLE
  2
BLOCK_RECORD
  5
9
330
0
100
AcDbSymbolTable
 70
2
  0
BLOCK_RECORD
  5
17
330
9
100
AcDbSymbolTableRecord
100
AcDbBlockTableRecord
  2
*Model_Space
340
1A
 70
0
280
1
281
0
  0
BLOCK_RECORD
  5
1B
330
9
100
AcDbSymbolTableRecord
100
AcDbBlockTableRecord
  2
*Paper_Space
340
1E
 70
0
280
1
281
0
  0
ENDTAB
  0
ENDSEC
  0
SECTION
  2
BLOCKS
  0
BLOCK
  5
18
330
17
100
AcDbEntity
  8
0
100
AcDbBlockBegin
  2
*Model_Space
 70
0
 10
0.0
 20
0.0
 30
0.0
  3
*Model_Space
  1

  0
ENDBLK
  5
19
330
17
100
AcDbEntity
  8
0
100
AcDbBlockEnd
  0
BLOCK
  5
1C
330
1B
100
AcDbEntity
  8
0
100
AcDbBlockBegin
  2
*Paper_Space
 70
0
 10
0.0
 20
0.0
 30
0.0
  3
*Paper_Space
  1

  0
ENDBLK
  5
1D
330
1B
100
AcDbEntity
  8
0
100
AcDbBlockEnd
  0
ENDSEC
  0
SECTION
  2
ENTITIES
  0
LINE
  5
30
330
17
100
AcDbEntity
  8
visible
100
AcDbLine
 10
749.0093620177537
 20
-4816.173536251527
 30
0.0
 11
-461.49346638083193
 21
-4117.475697008631
 31
0.0
  0
LINE
  5
31
330
17
100
AcDbEntity
  8
visible
100
AcDbLine
 10
-937.6672663791919
 20
-3842.6299078392867
 30
0.0
 11
-3397.560189886626
 21
-2422.788640142879
 31
0.0
  0
LINE
  5
32
330
17
100
AcDbEntity
  8
visible
100
AcDbLine
 10
-3873.733989884986
 20
-2147.9428509735344
 30
0.0
 11
-5084.236818283572
 21
-1449.2450117306385
 31
0.0
  0
LINE
  5
33
330
17
100
AcDbEntity
  8
visible
100
AcDbLine
 10
1622.645386022616
 20
-5030.086311433693
 30
0.0
 11
2237.032965292392
 21
-4803.128051630803
 31
0.0
  0
LINE
  5
34
330
17
100
AcDbEntity
  8
visible
100
AcDbLine
 10
1092.591638172687
 20
-5358.942137677063
 30
0.0
 11
1092.591638172687
 21
-2387.4706407343688
 31
0.0
  0
LINE
  5
35
330
17
100
AcDbEntity
  8
visible
100
AcDbLine
 10
1092.591638172687
 20
-2387.4706407343688
 30
0.0
 11
-5840.273999586314
 21
1614.1542437541666
 31
0.0
  0
LINE
  5
36
330
17
100
AcDbEntity
  8
visible
100
AcDbLine
 10
1092.591638172687
 20
-5358.942137677063
 30
0.0
 11
-5840.273999586314
 21
-1357.317253188528
 31
0.0
  0
LINE
  5
37
330
17
100
AcDbEntity
  8
visible
100
AcDbLine
 10
-5840.273999586313
 20
-1357.317253188528
 30
0.0
 11
-5840.273999586313
 21
1614.1542437541666
 31
0.0
  0
LINE
  5
38
330
17
100
AcDbEntity
  8
visible
100
AcDbLine
 10
-5434.222218675937
 20
-1459.5249113032442
 30
0.0
 11
-3873.7339898849855
 21
-2360.23305344168
 31
0.0
  0
LINE
  5
39
330
17
100
AcDbEntity
  8
visible
100
AcDbLine
 10
-5434.222218675937
 20
-1459.524911303244
 30
0.0
 11
-5434.222218675937
 21
1160.6920445083142
 31
0.0
  0
LINE
  5
3A
330
17
100
AcDbEntity
  8
visible
100
AcDbLine
 10
-3873.733989884986
 20
-2360.2330534416797
 30
0.0
 11
-3873.733989884986
 21
259.9839023698787
 31
0.0
  0
LINE
  5
3B
330
17
100
AcDbEntity
  8
visible
100
AcDbLine
 10
-5434.222218675937
 20
1160.6920445083142
 30
0.0
 11
-3873.7339898849855
 21
259.98390236987825
 31
0.0
  0
LINE
  5
3C
330
17
100
AcDbEntity
  8
visible
100
AcDbLine
 10
-3747.545590278992
 20
-2433.068539715484
 30
0.0
 11
-937.6672663791919
 21
-4054.920110307431
 31
0.0
  0
LINE
  5
3D
330
17
100
AcDbEntity
  8
visible
100
AcDbLine
 10
-3747.5455902789918
 20
-2433.0685397154843
 30
0.0
 11
-3747.5455902789918
 21
187.14841609607402
 31
0.0
  0
LINE
  5
3E
330
17
100
AcDbEntity
  8
visible
100
AcDbLine
 10
-937.6672663791919
 20
-4054.9201103074315
 30
0.0
 11
-937.6672663791919
 21
-1434.7031544958732
 31
0.0
  0
LINE
  5
3F
330
17
100
AcDbEntity
  8
visible
100
AcDbLine
 10
-3747.545590278992
 20
187.14841609607356
 30
0.0
 11
-937.6672663791919
 21
-1434.7031544958738
 31
0.0
  0
LINE
  5
40
330
17
100
AcDbEntity
  8
visible
100
AcDbLine
 10
-5560.410618281931
 20
1259.4181388356906
 30
0.0
 11
-5560.410618281931
 21
1442.908868791049
 31
0.0
  0
LINE
  5
41
330
17
100
AcDbEntity
  8
visible
100
AcDbLine
 10
-5622.880123037374
 20
1295.475310258366
 30
0.0
 11
-5560.410618281931
 21
1259.4181388356906
 31
0.0
  0
LINE
  5
42
330
17
100
AcDbEntity
  8
visible
100
AcDbLine
 10
-5622.880123037374
 20
1295.4753102583668
 30
0.0
 11
-5622.880123037374
 21
1478.9660402137251
 31
0.0
  0
LINE
  5
43
330
17
100
AcDbEntity
  8
visible
100
AcDbLine
 10
-5560.410618281931
 20
1442.9088687910494
 30
0.0
 11
-5622.880123037374
 21
1478.966040213725
 31
0.0
  0
LINE
  5
44
330
17
100
AcDbEntity
  8
visible
100
AcDbLine
 10
-5013.802451671811
 20
943.9178888872797
 30
0.0
 11
-5013.802451671811
 21
1127.4086188426381
 31
0.0
  0
LINE
  5
45
330
17
100
AcDbEntity
  8
visible
100
AcDbLine
 10
-5076.271956427252
 20
979.9750603099553
 30
0.0
 11
-5013.802451671811
 21
943.9178888872798
 31
0.0
  0
LINE
  5
46
330
17
100
AcDbEntity
  8
visible
100
AcDbLine
 10
-5013.802451671811
 20
1127.4086188426386
 30
0.0
 11
-5076.271956427252
 21
1163.4657902653141
 31
0.0
  0
LINE
  5
47
330
17
100
AcDbEntity
  8
visible
100
AcDbLine
 10
-5076.271956427253
 20
979.975060309955
 30
0.0
 11
-5076.271956427253
 21
1163.4657902653134
 31
0.0
  0
LINE
  5
48
330
17
100
AcDbEntity
  8
visible
100
AcDbLine
 10
-4467.194285061689
 20
628.417638938868
 30
0.0
 11
-4467.194285061689
 21
811.9083688942264
 31
0.0
  0
LINE
  5
49
330
17
100
AcDbEntity
  8
visible
100
AcDbLine
 10
-4529.663789817131
 20
664.4748103615432
 30
0.0
 11
-4467.194285061689
 21
628.4176389388676
 31
0.0
  0
LINE
  5
4A
330
17
100
AcDbEntity
  8
visible
100
AcDbLine
 10
-4467.194285061689
 20
811.9083688942274
 30
0.0
 11
-4529.663789817131
 21
847.9655403169029
 31
0.0
  0
LINE
  5
4B
330
17
100
AcDbEntity
  8
visible
100
AcDbLine
 10
-4529.663789817131
 20
664.4748103615442
 30
0.0
 11
-4529.663789817131
 21
847.9655403169027
 31
0.0
  0
LINE
  5
4C
330
17
100
AcDbEntity
  8
visible
100
AcDbLine
 10
-3920.586118451568
 20
312.9173889904572
 30
0.0
 11
-3920.586118451568
 21
496.40811894581566
 31
0.0
  0
LINE
  5
4D
330
17
100
AcDbEntity
  8
visible
100
AcDbLine
 10
-3983.0556232070103
 20
348.97456041313217
 30
0.0
 11
-3920.586118451568
 21
312.91738899045663
 31
0.0
  0
LINE
  5
4E
330
17
100
AcDbEntity
  8
visible
100
AcDbLine
 10
-3920.586118451568
 20
496.40811894581543
 30
0.0
 11
-3983.0556232070103
 21
532.465290368491
 31
0.0
  0
LINE
  5
4F
330
17
100
AcDbEntity
  8
visible
100
AcDbLine
 10
-3983.0556232070103
 20
348.9745604131325
 30
0.0
 11
-3983.0556232070103
 21
532.465290368491
 31
0.0
  0
LINE
  5
50
330
17
100
AcDbEntity
  8
visible
100
AcDbLine
 10
-3373.977951841446
 20
-2.5828609579544946
 30
0.0
 11
-3373.977951841446
 21
180.90786899740397
 31
0.0
  0
LINE
  5
51
330
17
100
AcDbEntity
  8
visible
100
AcDbLine
 10
-3436.447456596889
 20
33.47431046472116
 30
0.0
 11
-3373.9779518414466
 21
-2.582860957954381
 31
0.0
  0
LINE
  5
52
330
17
100
AcDbEntity
  8
visible
100
AcDbLine
 10
-3373.9779518414466
 20
180.90786899740442
 30
0.0
 11
-3436.447456596889
 21
216.96504042007996
 31
0.0
  0
LINE
  5
53
330
17
100
AcDbEntity
  8
visible
100
AcDbLine
 10
-3436.4474565968885
 20
33.474310464720816
 30
0.0
 11
-3436.4474565968885
 21
216.96504042007928
 31
0.0
  0
LINE
  5
54
330
17
100
AcDbEntity
  8
visible
100
AcDbLine
 10
-2827.3697852313253
 20
-318.0831109063653
 30
0.0
 11
-2827.3697852313253
 21
-134.59238095100682
 31
0.0
  0
LINE
  5
55
330
17
100
AcDbEntity
  8
visible
100
AcDbLine
 10
-2889.8392899867677
 20
-282.0259394836903
 30
0.0
 11
-2827.3697852313253
 21
-318.08311090636585
 31
0.0
  0
LINE
  5
56
330
17
100
AcDbEntity
  8
visible
100
AcDbLine
 10
-2827.3697852313253
 20
-134.5923809510066
 30
0.0
 11
-2889.8392899867677
 21
-98.53520952833105
 31
0.0
  0
LINE
  5
57
330
17
100
AcDbEntity
  8
visible
100
AcDbLine
 10
-2889.8392899867677
 20
-282.02593948368997
 30
0.0
 11
-2889.8392899867677
 21
-98.5352095283315
 31
0.0
  0
LINE
  5
58
330
17
100
AcDbEntity
  8
visible
100
AcDbLine
 10
-811.4788667731981
 20
-4127.755596581237
 30
0.0
 11
749.0093620177537
 21
-5028.463738719673
 31
0.0
  0
LINE
  5
59
330
17
100
AcDbEntity
  8
visible
100
AcDbLine
 10
-811.4788667731982
 20
-4127.755596581236
 30
0.0
 11
-811.4788667731982
 21
-1507.5386407696783
 31
0.0
  0
LINE
  5
5A
330
17
100
AcDbEntity
  8
visible
100
AcDbLine
 10
749.0093620177537
 20
-5028.463738719672
 30
0.0
 11
749.0093620177537
 21
-2408.246782908114
 31
0.0
  0
LINE
  5
5B
330
17
100
AcDbEntity
  8
visible
100
AcDbLine
 10
-811.4788667731981
 20
-1507.5386407696785
 30
0.0
 11
749.0093620177537
 21
-2408.2467829081143
 31
0.0
  0
LINE
  5
5C
330
17
100
AcDbEntity
  8
visible
100
AcDbLine
 10
-2280.7616186212044
 20
-633.583360854777
 30
0.0
 11
-2280.7616186212044
 21
-450.0926308994185
 31
0.0
  0
LINE
  5
5D
330
17
100
AcDbEntity
  8
visible
100
AcDbLine
 10
-2343.231123376647
 20
-597.5261894321018
 30
0.0
 11
-2280.761618621204
 21
-633.5833608547774
 31
0.0
  0
LINE
  5
5E
330
17
100
AcDbEntity
  8
visible
100
AcDbLine
 10
-2280.761618621204
 20
-450.09263089941817
 30
0.0
 11
-2343.231123376647
 21
-414.0354594767425
 31
0.0
  0
LINE
  5
5F
330
17
100
AcDbEntity
  8
visible
100
AcDbLine
 10
-2343.231123376647
 20
-597.5261894321012
 30
0.0
 11
-2343.231123376647
 21
-414.03545947674274
 31
0.0
  0
LINE
  5
60
330
17
100
AcDbEntity
  8
visible
100
AcDbLine
 10
-1734.1534520110827
 20
-949.0836108031878
 30
0.0
 11
-1734.1534520110827
 21
-765.5928808478293
 31
0.0
  0
LINE
  5
61
330
17
100
AcDbEntity
  8
visible
100
AcDbLine
 10
-1796.622956766525
 20
-913.0264393805129
 30
0.0
 11
-1734.1534520110827
 21
-949.0836108031884
 31
0.0
  0
LINE
  5
62
330
17
100
AcDbEntity
  8
visible
100
AcDbLine
 10
-1734.1534520110827
 20
-765.5928808478292
 30
0.0
 11
-1796.622956766525
 21
-729.5357094251536
 31
0.0
  0
LINE
  5
63
330
17
100
AcDbEntity
  8
visible
100
AcDbLine
 10
-1796.622956766525
 20
-913.0264393805124
 30
0.0
 11
-1796.622956766525
 21
-729.535709425154
 31
0.0
  0
LINE
  5
64
330
17
100
AcDbEntity
  8
visible
100
AcDbLine
 10
-1187.5452854009618
 20
-1264.5838607515993
 30
0.0
 11
-1187.5452854009618
 21
-1081.093130796241
 31
0.0
  0
LINE
  5
65
330
17
100
AcDbEntity
  8
visible
100
AcDbLine
 10
-1250.014790156404
 20
-1228.5266893289245
 30
0.0
 11
-1187.5452854009616
 21
-1264.5838607515998
 31
0.0
  0
LINE
  5
66
330
17
100
AcDbEntity
  8
visible
100
AcDbLine
 10
-1187.5452854009616
 20
-1081.0931307962405
 30
0.0
 11
-1250.014790156404
 21
-1045.0359593735652
 31
0.0
  0
LINE
  5
67
330
17
100
AcDbEntity
  8
visible
100
AcDbLine
 10
-1250.0147901564042
 20
-1228.5266893289236
 30
0.0
 11
-1250.0147901564042
 21
-1045.0359593735652
 31
0.0
  0
LINE
  5
68
330
17
100
AcDbEntity
  8
visible
100
AcDbLine
 10
-640.93711879084
 20
-1580.0841107000106
 30
0.0
 11
-640.93711879084
 21
-1396.5933807446522
 31
0.0
  0
LINE
  5
69
330
17
100
AcDbEntity
  8
visible
100
AcDbLine
 10
-703.406623546283
 20
-1544.0269392773357
 30
0.0
 11
-640.9371187908405
 21
-1580.0841107000115
 31
0.0
  0
LINE
  5
6A
330
17
100
AcDbEntity
  8
visible
100
AcDbLine
 10
-640.9371187908405
 20
-1396.5933807446518
 30
0.0
 11
-703.406623546283
 21
-1360.536209321976
 31
0.0
  0
LINE
  5
6B
330
17
100
AcDbEntity
  8
visible
100
AcDbLine
 10
-703.4066235462828
 20
-1544.0269392773348
 30
0.0
 11
-703.4066235462828
 21
-1360.5362093219765
 31
0.0
  0
LINE
  5
6C
330
17
100
AcDbEntity
  8
visible
100
AcDbLine
 10
-94.32895218071917
 20
-1895.5843606484218
 30
0.0
 11
-94.32895218071917
 21
-1712.0936306930635
 31
0.0
  0
LINE
  5
6D
330
17
100
AcDbEntity
  8
visible
100
AcDbLine
 10
-156.79845693616153
 20
-1859.527189225747
 30
0.0
 11
-94.32895218071906
 21
-1895.5843606484225
 31
0.0
  0
LINE
  5
6E
330
17
100
AcDbEntity
  8
visible
100
AcDbLine
 10
-94.32895218071906
 20
-1712.0936306930632
 30
0.0
 11
-156.79845693616153
 21
-1676.0364592703877
 31
0.0
  0
LINE
  5
6F
330
17
100
AcDbEntity
  8
visible
100
AcDbLine
 10
-156.79845693616153
 20
-1859.5271892257465
 30
0.0
 11
-156.79845693616153
 21
-1676.0364592703881
 31
0.0
  0
LINE
  5
70
330
17
100
AcDbEntity
  8
visible
100
AcDbLine
 10
452.27921442940215
 20
-2211.084610596833
 30
0.0
 11
452.27921442940215
 21
-2027.5938806414747
 31
0.0
  0
LINE
  5
71
330
17
100
AcDbEntity
  8
visible
100
AcDbLine
 10
389.8097096739597
 20
-2175.027439174158
 30
0.0
 11
452.27921442940215
 21
-2211.084610596834
 31
0.0
  0
LINE
  5
72
330
17
100
AcDbEntity
  8
visible
100
AcDbLine
 10
452.27921442940215
 20
-2027.5938806414747
 30
0.0
 11
389.8097096739597
 21
-1991.5367092187992
 31
0.0
  0
LINE
  5
73
330
17
100
AcDbEntity
  8
visible
100
AcDbLine
 10
389.8097096739598
 20
-2175.0274391741573
 30
0.0
 11
389.8097096739598
 21
-1991.536709218799
 31
0.0
  0
LINE
  5
74
330
17
100
AcDbEntity
  8
visible
100
AcDbLine
 10
998.8873810395235
 20
-2526.5848605452443
 30
0.0
 11
998.8873810395235
 21
-2343.094130589886
 31
0.0
  0
LINE
  5
75
330
17
100
AcDbEntity
  8
visible
100
AcDbLine
 10
936.417876284081
 20
-2490.5276891225694
 30
0.0
 11
998.8873810395235
 21
-2526.584860545245
 31
0.0
  0
LINE
  5
76
330
17
100
AcDbEntity
  8
visible
100
AcDbLine
 10
998.8873810395235
 20
-2343.094130589886
 30
0.0
 11
936.417876284081
 21
-2307.03695916721
 31
0.0
  0
LINE
  5
77
330
17
100
AcDbEntity
  8
visible
100
AcDbLine
 10
936.417876284081
 20
-2490.527689122569
 30
0.0
 11
936.417876284081
 21
-2307.0369591672106
 31
0.0
  0
LINE
  5
78
330
17
100
AcDbEntity
  8
visible
100
AcDbLine
 10
1092.591638172687
 20
-5358.942137677063
 30
0.0
 11
1247.98453125185
 21
-5301.539120772164
 31
0.0
  0
LINE
  5
79
330
17
100
AcDbEntity
  8
visible
100
AcDbLine
 10
1247.98453125185
 20
-5301.539120772163
 30
0.0
 11
1247.98453125185
 21
-2330.0676238294686
 31
0.0
  0
LINE
  5
7A
330
17
100
AcDbEntity
  8
visible
100
AcDbLine
 10
1092.591638172687
 20
-2387.4706407343688
 30
0.0
 11
1247.98453125185
 21
-2330.067623829469
 31
0.0
  0
LINE
  5
7B
330
17
100
AcDbEntity
  8
visible
100
AcDbLine
 10
545.2026027531228
 20
-1924.4244453243691
 30
0.0
 11
399.99617082268287
 21
-1978.0645256500302
 31
0.0
  0
LINE
  5
7C
330
17
100
AcDbEntity
  8
visible
100
AcDbLine
 10
462.4656755781257
 20
-2014.1216970727055
 30
0.0
 11
399.9961708226832
 21
-1978.06452565003
 31
0.0
  0
LINE
  5
7D
330
17
100
AcDbEntity
  8
visible
100
AcDbLine
 10
607.6721075085652
 20
-1960.4816167470444
 30
0.0
 11
462.46567557812523
 21
-2014.1216970727055
 31
0.0
  0
LINE
  5
7E
330
17
100
AcDbEntity
  8
visible
100
AcDbLine
 10
1091.810769363244
 20
-2239.9246952727804
 30
0.0
 11
607.6721075085652
 21
-1960.4816167470444
 31
0.0
  0
LINE
  5
7F
330
17
100
AcDbEntity
  8
visible
100
AcDbLine
 10
1091.8107693632442
 20
-2239.9246952727804
 30
0.0
 11
946.6043374328042
 21
-2293.5647755984414
 31
0.0
  0
LINE
  5
80
330
17
100
AcDbEntity
  8
visible
100
AcDbLine
 10
1009.073842188247
 20
-2329.621947021117
 30
0.0
 11
946.6043374328045
 21
-2293.5647755984414
 31
0.0
  0
LINE
  5
81
330
17
100
AcDbEntity
  8
visible
100
AcDbLine
 10
1154.2802741186865
 20
-2275.9818666954557
 30
0.0
 11
1009.0738421882465
 21
-2329.6219470211167
 31
0.0
  0
LINE
  5
82
330
17
100
AcDbEntity
  8
visible
100
AcDbLine
 10
1247.98453125185
 20
-2330.067623829469
 30
0.0
 11
1154.2802741186865
 21
-2275.9818666954557
 31
0.0
  0
LINE
  5
83
330
17
100
AcDbEntity
  8
visible
100
AcDbLine
 10
-5840.273999586313
 20
1614.1542437541666
 30
0.0
 11
-5684.88110650715
 21
1671.557260659066
 31
0.0
  0
LINE
  5
84
330
17
100
AcDbEntity
  8
visible
100
AcDbLine
 10
-5467.48722995821
 20
1546.0783041081554
 30
0.0
 11
-5684.88110650715
 21
1671.5572606590663
 31
0.0
  0
LINE
  5
85
330
17
100
AcDbEntity
  8
visible
100
AcDbLine
 10
-5467.487229958211
 20
1546.078304108155
 30
0.0
 11
-5612.693661888651
 21
1492.4382237824939
 31
0.0
  0
LINE
  5
86
330
17
100
AcDbEntity
  8
visible
100
AcDbLine
 10
-5550.224157133208
 20
1456.381052359819
 30
0.0
 11
-5612.69366188865
 21
1492.4382237824946
 31
0.0
  0
LINE
  5
87
330
17
100
AcDbEntity
  8
visible
100
AcDbLine
 10
-5405.017725202769
 20
1510.0211326854796
 30
0.0
 11
-5550.224157133209
 21
1456.3810523598186
 31
0.0
  0
LINE
  5
88
330
17
100
AcDbEntity
  8
visible
100
AcDbLine
 10
-4920.879063348089
 20
1230.5780541597442
 30
0.0
 11
-5405.017725202768
 21
1510.0211326854796
 31
0.0
  0
LINE
  5
89
330
17
100
AcDbEntity
  8
visible
100
AcDbLine
 10
-4920.87906334809
 20
1230.5780541597442
 30
0.0
 11
-5066.08549527853
 21
1176.937973834083
 31
0.0
  0
LINE
  5
8A
330
17
100
AcDbEntity
  8
visible
100
AcDbLine
 10
-5003.615990523087
 20
1140.8808024114073
 30
0.0
 11
-5066.085495278529
 21
1176.9379738340829
 31
0.0
  0
LINE
  5
8B
330
17
100
AcDbEntity
  8
visible
100
AcDbLine
 10
-4858.409558592648
 20
1194.520882737068
 30
0.0
 11
-5003.615990523088
 21
1140.8808024114069
 31
0.0
  0
LINE
  5
8C
330
17
100
AcDbEntity
  8
visible
100
AcDbLine
 10
-4374.2708967379685
 20
915.0778042113329
 30
0.0
 11
-4858.409558592647
 21
1194.5208827370689
 31
0.0
  0
LINE
  5
8D
330
17
100
AcDbEntity
  8
visible
100
AcDbLine
 10
-4374.2708967379685
 20
915.0778042113326
 30
0.0
 11
-4519.4773286684085
 21
861.4377238856714
 31
0.0
  0
LINE
  5
8E
330
17
100
AcDbEntity
  8
visible
100
AcDbLine
 10
-4457.007823912965
 20
825.3805524629961
 30
0.0
 11
-4519.4773286684085
 21
861.4377238856716
 31
0.0
  0
LINE
  5
8F
330
17
100
AcDbEntity
  8
visible
100
AcDbLine
 10
-4311.801391982526
 20
879.0206327886573
 30
0.0
 11
-4457.007823912966
 21
825.3805524629961
 31
0.0
  0
LINE
  5
90
330
17
100
AcDbEntity
  8
visible
100
AcDbLine
 10
-3827.6627301278468
 20
599.5775542629212
 30
0.0
 11
-4311.801391982526
 21
879.0206327886572
 31
0.0
  0
LINE
  5
91
330
17
100
AcDbEntity
  8
visible
100
AcDbLine
 10
-3827.6627301278477
 20
599.5775542629218
 30
0.0
 11
-3972.8691620582877
 21
545.9374739372606
 31
0.0
  0
LINE
  5
92
330
17
100
AcDbEntity
  8
visible
100
AcDbLine
 10
-3910.3996573028444
 20
509.8803025145851
 30
0.0
 11
-3972.8691620582867
 21
545.9374739372606
 31
0.0
  0
LINE
  5
93
330
17
100
AcDbEntity
  8
visible
100
AcDbLine
 10
-3765.1932253724053
 20
563.5203828402465
 30
0.0
 11
-3910.3996573028453
 21
509.88030251458525
 31
0.0
  0
LINE
  5
94
330
17
100
AcDbEntity
  8
visible
100
AcDbLine
 10
-3281.054563517726
 20
284.07730431451046
 30
0.0
 11
-3765.1932253724044
 21
563.5203828402459
 31
0.0
  0
LINE
  5
95
330
17
100
AcDbEntity
  8
visible
100
AcDbLine
 10
-3281.0545635177255
 20
284.0773043145101
 30
0.0
 11
-3426.2609954481654
 21
230.43722398884887
 31
0.0
  0
LINE
  5
96
330
17
100
AcDbEntity
  8
visible
100
AcDbLine
 10
-3363.791490692723
 20
194.38005256617362
 30
0.0
 11
-3426.2609954481654
 21
230.43722398884915
 31
0.0
  0
LINE
  5
97
330
17
100
AcDbEntity
  8
visible
100
AcDbLine
 10
-3218.585058762283
 20
248.0201328918348
 30
0.0
 11
-3363.791490692723
 21
194.38005256617356
 31
0.0
  0
LINE
  5
98
330
17
100
AcDbEntity
  8
visible
100
AcDbLine
 10
-2734.4463969076046
 20
-31.422945633901236
 30
0.0
 11
-3218.5850587622836
 21
248.0201328918347
 31
0.0
  0
LINE
  5
99
330
17
100
AcDbEntity
  8
visible
100
AcDbLine
 10
-2734.4463969076046
 20
-31.422945633901577
 30
0.0
 11
-2879.6528288380446
 21
-85.06302595956282
 31
0.0
  0
LINE
  5
9A
330
17
100
AcDbEntity
  8
visible
100
AcDbLine
 10
-2817.1833240826018
 20
-121.12019738223785
 30
0.0
 11
-2879.652828838044
 21
-85.06302595956231
 31
0.0
  0
LINE
  5
9B
330
17
100
AcDbEntity
  8
visible
100
AcDbLine
 10
-2671.9768921521622
 20
-67.48011705657689
 30
0.0
 11
-2817.183324082602
 21
-121.12019738223813
 31
0.0
  0
LINE
  5
9C
330
17
100
AcDbEntity
  8
visible
100
AcDbLine
 10
-2187.8382302974837
 20
-346.92319558231225
 30
0.0
 11
-2671.9768921521622
 21
-67.48011705657655
 31
0.0
  0
LINE
  5
9D
330
17
100
AcDbEntity
  8
visible
100
AcDbLine
 10
-2187.8382302974833
 20
-346.92319558231236
 30
0.0
 11
-2333.0446622279233
 21
-400.5632759079736
 31
0.0
  0
LINE
  5
9E
330
17
100
AcDbEntity
  8
visible
100
AcDbLine
 10
-2270.5751574724804
 20
-436.620447330649
 30
0.0
 11
-2333.0446622279233
 21
-400.5632759079733
 31
0.0
  0
LINE
  5
9F
330
17
100
AcDbEntity
  8
visible
100
AcDbLine
 10
-2125.368725542041
 20
-382.98036700498767
 30
0.0
 11
-2270.575157472481
 21
-436.6204473306489
 31
0.0
  0
LINE
  5
A0
330
17
100
AcDbEntity
  8
visible
100
AcDbLine
 10
-1641.230063687362
 20
-662.4234455307237
 30
0.0
 11
-2125.368725542041
 21
-382.980367004988
 31
0.0
  0
LINE
  5
A1
330
17
100
AcDbEntity
  8
visible
100
AcDbLine
 10
-1641.230063687362
 20
-662.4234455307231
 30
0.0
 11
-1786.436495617802
 21
-716.0635258563843
 31
0.0
  0
LINE
  5
A2
330
17
100
AcDbEntity
  8
visible
100
AcDbLine
 10
-1723.9669908623591
 20
-752.12069727906
 30
0.0
 11
-1786.4364956178015
 21
-716.0635258563844
 31
0.0
  0
LINE
  5
A3
330
17
100
AcDbEntity
  8
visible
100
AcDbLine
 10
-1578.7605589319196
 20
-698.4806169533994
 30
0.0
 11
-1723.9669908623596
 21
-752.1206972790606
 31
0.0
  0
LINE
  5
A4
330
17
100
AcDbEntity
  8
visible
100
AcDbLine
 10
-1094.621897077241
 20
-977.923695479135
 30
0.0
 11
-1578.7605589319196
 21
-698.4806169533992
 31
0.0
  0
LINE
  5
A5
330
17
100
AcDbEntity
  8
visible
100
AcDbLine
 10
-1094.6218970772406
 20
-977.9236954791348
 30
0.0
 11
-1239.8283290076806
 21
-1031.563775804796
 31
0.0
  0
LINE
  5
A6
330
17
100
AcDbEntity
  8
visible
100
AcDbLine
 10
-1177.358824252238
 20
-1067.6209472274718
 30
0.0
 11
-1239.8283290076804
 21
-1031.5637758047965
 31
0.0
  0
LINE
  5
A7
330
17
100
AcDbEntity
  8
visible
100
AcDbLine
 10
-1032.1523923217983
 20
-1013.9808669018101
 30
0.0
 11
-1177.3588242522383
 21
-1067.6209472274713
 31
0.0
  0
LINE
  5
A8
330
17
100
AcDbEntity
  8
visible
100
AcDbLine
 10
-548.0137304671196
 20
-1293.4239454275464
 30
0.0
 11
-1032.1523923217987
 21
-1013.9808669018105
 31
0.0
  0
LINE
  5
A9
330
17
100
AcDbEntity
  8
visible
100
AcDbLine
 10
-548.0137304671197
 20
-1293.4239454275466
 30
0.0
 11
-693.2201623975596
 21
-1347.0640257532077
 31
0.0
  0
LINE
  5
AA
330
17
100
AcDbEntity
  8
visible
100
AcDbLine
 10
-630.750657642117
 20
-1383.121197175883
 30
0.0
 11
-693.2201623975594
 21
-1347.0640257532073
 31
0.0
  0
LINE
  5
AB
330
17
100
AcDbEntity
  8
visible
100
AcDbLine
 10
-485.5442257116771
 20
-1329.481116850222
 30
0.0
 11
-630.7506576421171
 21
-1383.121197175883
 31
0.0
  0
LINE
  5
AC
330
17
100
AcDbEntity
  8
visible
100
AcDbLine
 10
-1.4055638569984694
 20
-1608.9241953759574
 30
0.0
 11
-485.5442257116774
 21
-1329.481116850222
 31
0.0
  0
LINE
  5
AD
330
17
100
AcDbEntity
  8
visible
100
AcDbLine
 10
-1.4055638569984694
 20
-1608.9241953759574
 30
0.0
 11
-146.61199578743845
 21
-1662.5642757016185
 31
0.0
  0
LINE
  5
AE
330
17
100
AcDbEntity
  8
visible
100
AcDbLine
 10
-84.14249103199563
 20
-1698.621447124294
 30
0.0
 11
-146.6119957874381
 21
-1662.5642757016185
 31
0.0
  0
LINE
  5
AF
330
17
100
AcDbEntity
  8
visible
100
AcDbLine
 10
61.06394089844389
 20
-1644.9813667986332
 30
0.0
 11
-84.14249103199609
 21
-1698.6214471242943
 31
0.0
  0
LINE
  5
B0
330
17
100
AcDbEntity
  8
visible
100
AcDbLine
 10
545.2026027531227
 20
-1924.424445324369
 30
0.0
 11
61.06394089844389
 21
-1644.9813667986332
 31
0.0
  0
LINE
  5
B1
330
17
100
AcDbEntity
  8
visible
100
AcDbLine
 10
-5434.222218675937
 20
-1459.5249113032442
 30
0.0
 11
-5278.829325596774
 21
-1402.1218943983445
 31
0.0
  0
LINE
  5
B2
330
17
100
AcDbEntity
  8
visible
100
AcDbLine
 10
-5278.829325596775
 20
-1402.1218943983445
 30
0.0
 11
-3873.733989884986
 21
-2213.137822622875
 31
0.0
  0
LINE
  5
B3
330
17
100
AcDbEntity
  8
visible
100
AcDbLine
 10
-5278.829325596775
 20
-1402.1218943983442
 30
0.0
 11
-5278.829325596775
 21
1070.9998305944086
 31
0.0
  0
LINE
  5
B4
330
17
100
AcDbEntity
  8
visible
100
AcDbLine
 10
-3747.5455902789918
 20
-2433.0685397154843
 30
0.0
 11
-3592.1526971998287
 21
-2375.6655228105847
 31
0.0
  0
LINE
  5
B5
330
17
100
AcDbEntity
  8
visible
100
AcDbLine
 10
-3592.152697199829
 20
-2375.6655228105847
 30
0.0
 11
-937.6672663791919
 21
-3907.8248794886267
 31
0.0
  0
LINE
  5
B6
330
17
100
AcDbEntity
  8
visible
100
AcDbLine
 10
-3592.152697199829
 20
-2375.6655228105847
 30
0.0
 11
-3592.152697199829
 21
97.456202182168
 31
0.0
  0
LINE
  5
B7
330
17
100
AcDbEntity
  8
visible
100
AcDbLine
 10
-5467.487229958211
 20
1500.9913918768616
 30
0.0
 11
-5482.224488239457
 21
1481.500516099045
 31
0.0
  0
LINE
  5
B8
330
17
100
AcDbEntity
  8
visible
100
AcDbLine
 10
-5560.410618281931
 20
1378.0948405572594
 30
0.0
 11
-5622.880123037374
 21
1295.4753102583668
 31
0.0
  0
LINE
  5
B9
330
17
100
AcDbEntity
  8
visible
100
AcDbLine
 10
-5467.48722995821
 20
1500.9913918768605
 30
0.0
 11
-5452.647996372183
 21
1492.4262401074138
 31
0.0
  0
LINE
  5
BA
330
17
100
AcDbEntity
  8
visible
100
AcDbLine
 10
-5467.487229958211
 20
1500.9913918768611
 30
0.0
 11
-5467.487229958211
 21
1546.0783041081552
 31
0.0
  0
LINE
  5
BB
330
17
100
AcDbEntity
  8
visible
100
AcDbLine
 10
-4920.87906334809
 20
1185.491141928449
 30
0.0
 11
-4935.616321629335
 21
1166.0002661506337
 31
0.0
  0
LINE
  5
BC
330
17
100
AcDbEntity
  8
visible
100
AcDbLine
 10
-5013.802451671811
 20
1062.5945906088468
 30
0.0
 11
-5076.271956427253
 21
979.9750603099542
 31
0.0
  0
LINE
  5
BD
330
17
100
AcDbEntity
  8
visible
100
AcDbLine
 10
-4920.879063348089
 20
1185.4911419284497
 30
0.0
 11
-4906.039829762061
 21
1176.9259901590024
 31
0.0
  0
LINE
  5
BE
330
17
100
AcDbEntity
  8
visible
100
AcDbLine
 10
-4920.87906334809
 20
1185.4911419284504
 30
0.0
 11
-4920.87906334809
 21
1230.5780541597444
 31
0.0
  0
LINE
  5
BF
330
17
100
AcDbEntity
  8
visible
100
AcDbLine
 10
-4374.2708967379685
 20
869.9908919800382
 30
0.0
 11
-4389.0081550192135
 21
850.5000162022229
 31
0.0
  0
LINE
  5
C0
330
17
100
AcDbEntity
  8
visible
100
AcDbLine
 10
-4467.194285061689
 20
747.094340660436
 30
0.0
 11
-4529.663789817131
 21
664.4748103615434
 31
0.0
  0
LINE
  5
C1
330
17
100
AcDbEntity
  8
visible
100
AcDbLine
 10
-4374.2708967379685
 20
869.9908919800384
 30
0.0
 11
-4359.43166315194
 21
861.4257402105909
 31
0.0
  0
LINE
  5
C2
330
17
100
AcDbEntity
  8
visible
100
AcDbLine
 10
-4374.2708967379685
 20
869.9908919800388
 30
0.0
 11
-4374.2708967379685
 21
915.0778042113327
 31
0.0
  0
LINE
  5
C3
330
17
100
AcDbEntity
  8
visible
100
AcDbLine
 10
-3827.6627301278477
 20
554.4906420316274
 30
0.0
 11
-3842.399988409093
 21
534.9997662538121
 31
0.0
  0
LINE
  5
C4
330
17
100
AcDbEntity
  8
visible
100
AcDbLine
 10
-3920.586118451568
 20
431.59409071202526
 30
0.0
 11
-3983.0556232070103
 21
348.9745604131326
 31
0.0
  0
LINE
  5
C5
330
17
100
AcDbEntity
  8
visible
100
AcDbLine
 10
-3827.6627301278468
 20
554.4906420316274
 30
0.0
 11
-3812.8234965418183
 21
545.9254902621803
 31
0.0
  0
LINE
  5
C6
330
17
100
AcDbEntity
  8
visible
100
AcDbLine
 10
-3827.6627301278477
 20
554.490642031628
 30
0.0
 11
-3827.6627301278477
 21
599.5775542629219
 31
0.0
  0
LINE
  5
C7
330
17
100
AcDbEntity
  8
visible
100
AcDbLine
 10
-3281.054563517726
 20
238.99039208321483
 30
0.0
 11
-3295.79182179897
 21
219.4995163054009
 31
0.0
  0
LINE
  5
C8
330
17
100
AcDbEntity
  8
visible
100
AcDbLine
 10
-3373.977951841446
 20
116.09384076361266
 30
0.0
 11
-3436.4474565968885
 21
33.47431046472002
 31
0.0
  0
LINE
  5
C9
330
17
100
AcDbEntity
  8
visible
100
AcDbLine
 10
-3281.0545635177255
 20
238.99039208321597
 30
0.0
 11
-3266.2153299316965
 21
230.42524031376888
 31
0.0
  0
LINE
  5
CA
330
17
100
AcDbEntity
  8
visible
100
AcDbLine
 10
-3281.054563517726
 20
238.9903920832163
 30
0.0
 11
-3281.054563517726
 21
284.07730431451023
 31
0.0
  0
LINE
  5
CB
330
17
100
AcDbEntity
  8
visible
100
AcDbLine
 10
-2734.446396907605
 20
-76.50985786519595
 30
0.0
 11
-2749.1836551888505
 21
-96.00073364301124
 31
0.0
  0
LINE
  5
CC
330
17
100
AcDbEntity
  8
visible
100
AcDbLine
 10
-2827.3697852313253
 20
-199.40640918479812
 30
0.0
 11
-2889.8392899867677
 21
-282.02593948369076
 31
0.0
  0
LINE
  5
CD
330
17
100
AcDbEntity
  8
visible
100
AcDbLine
 10
-2734.446396907605
 20
-76.5098578651955
 30
0.0
 11
-2719.607163321575
 21
-85.07500963464304
 31
0.0
  0
LINE
  5
CE
330
17
100
AcDbEntity
  8
visible
100
AcDbLine
 10
-2734.446396907605
 20
-76.50985786519539
 30
0.0
 11
-2734.446396907605
 21
-31.422945633901463
 31
0.0
  0
LINE
  5
CF
330
17
100
AcDbEntity
  8
visible
100
AcDbLine
 10
-811.478866773198
 20
-4127.755596581236
 30
0.0
 11
-656.085973694035
 21
-4070.352579676337
 31
0.0
  0
LINE
  5
D0
330
17
100
AcDbEntity
  8
visible
100
AcDbLine
 10
-656.0859736940351
 20
-4070.352579676337
 30
0.0
 11
749.0093620177536
 21
-4881.368507900867
 31
0.0
  0
LINE
  5
D1
330
17
100
AcDbEntity
  8
visible
100
AcDbLine
 10
-656.0859736940351
 20
-4070.3525796763374
 30
0.0
 11
-656.0859736940351
 21
-1597.2308546835843
 31
0.0
  0
LINE
  5
D2
330
17
100
AcDbEntity
  8
visible
100
AcDbLine
 10
-2187.8382302974837
 20
-392.01010781360674
 30
0.0
 11
-2202.575488578729
 21
-411.500983591422
 31
0.0
  0
LINE
  5
D3
330
17
100
AcDbEntity
  8
visible
100
AcDbLine
 10
-2280.7616186212044
 20
-514.9066591332098
 30
0.0
 11
-2343.2311233766463
 21
-597.5261894321015
 31
0.0
  0
LINE
  5
D4
330
17
100
AcDbEntity
  8
visible
100
AcDbLine
 10
-2187.8382302974833
 20
-392.0101078136065
 30
0.0
 11
-2172.9989967114543
 21
-400.5752595830538
 31
0.0
  0
LINE
  5
D5
330
17
100
AcDbEntity
  8
visible
100
AcDbLine
 10
-2187.8382302974833
 20
-392.01010781360617
 30
0.0
 11
-2187.8382302974833
 21
-346.92319558231225
 31
0.0
  0
LINE
  5
D6
330
17
100
AcDbEntity
  8
visible
100
AcDbLine
 10
-1641.2300636873624
 20
-707.5103577620184
 30
0.0
 11
-1655.9673219686078
 21
-727.0012335398337
 31
0.0
  0
LINE
  5
D7
330
17
100
AcDbEntity
  8
visible
100
AcDbLine
 10
-1734.1534520110827
 20
-830.4069090816206
 30
0.0
 11
-1796.622956766525
 21
-913.0264393805132
 31
0.0
  0
LINE
  5
D8
330
17
100
AcDbEntity
  8
visible
100
AcDbLine
 10
-1641.230063687362
 20
-707.5103577620181
 30
0.0
 11
-1626.390830101333
 21
-716.0755095314653
 31
0.0
  0
LINE
  5
D9
330
17
100
AcDbEntity
  8
visible
100
AcDbLine
 10
-1641.2300636873624
 20
-707.5103577620179
 30
0.0
 11
-1641.2300636873624
 21
-662.4234455307239
 31
0.0
  0
LINE
  5
DA
330
17
100
AcDbEntity
  8
visible
100
AcDbLine
 10
-1094.621897077241
 20
-1023.0106077104301
 30
0.0
 11
-1109.3591553584852
 21
-1042.501483488244
 31
0.0
  0
LINE
  5
DB
330
17
100
AcDbEntity
  8
visible
100
AcDbLine
 10
-1187.5452854009618
 20
-1145.9071590300332
 30
0.0
 11
-1250.0147901564037
 21
-1228.526689328925
 31
0.0
  0
LINE
  5
DC
330
17
100
AcDbEntity
  8
visible
100
AcDbLine
 10
-1094.6218970772409
 20
-1023.0106077104296
 30
0.0
 11
-1079.7826634912126
 21
-1031.5757594798763
 31
0.0
  0
LINE
  5
DD
330
17
100
AcDbEntity
  8
visible
100
AcDbLine
 10
-1094.6218970772406
 20
-1023.0106077104286
 30
0.0
 11
-1094.6218970772406
 21
-977.9236954791347
 31
0.0
  0
LINE
  5
DE
330
17
100
AcDbEntity
  8
visible
100
AcDbLine
 10
-548.01373046712
 20
-1338.510857658841
 30
0.0
 11
-562.7509887483654
 21
-1358.0017334366562
 31
0.0
  0
LINE
  5
DF
330
17
100
AcDbEntity
  8
visible
100
AcDbLine
 10
-640.9371187908403
 20
-1461.407408978443
 30
0.0
 11
-703.4066235462826
 21
-1544.0269392773357
 31
0.0
  0
LINE
  5
E0
330
17
100
AcDbEntity
  8
visible
100
AcDbLine
 10
-548.0137304671199
 20
-1338.5108576588405
 30
0.0
 11
-533.1744968810905
 21
-1347.076009428288
 31
0.0
  0
LINE
  5
E1
330
17
100
AcDbEntity
  8
visible
100
AcDbLine
 10
-548.0137304671198
 20
-1338.5108576588405
 30
0.0
 11
-548.0137304671198
 21
-1293.4239454275464
 31
0.0
  0
LINE
  5
E2
330
17
100
AcDbEntity
  8
visible
100
AcDbLine
 10
-1.4055638569989242
 20
-1654.0111076072526
 30
0.0
 11
-16.142822138243446
 21
-1673.501983385067
 31
0.0
  0
LINE
  5
E3
330
17
100
AcDbEntity
  8
visible
100
AcDbLine
 10
-94.32895218071917
 20
-1776.9076589268548
 30
0.0
 11
-156.79845693616153
 21
-1859.5271892257474
 31
0.0
  0
LINE
  5
E4
330
17
100
AcDbEntity
  8
visible
100
AcDbLine
 10
-1.4055638569984694
 20
-1654.0111076072517
 30
0.0
 11
13.43366972903084
 21
-1662.576259376699
 31
0.0
  0
LINE
  5
E5
330
17
100
AcDbEntity
  8
visible
100
AcDbLine
 10
-1.4055638569984694
 20
-1654.0111076072517
 30
0.0
 11
-1.4055638569984694
 21
-1608.9241953759577
 31
0.0
  0
LINE
  5
E6
330
17
100
AcDbEntity
  8
visible
100
AcDbLine
 10
545.2026027531228
 20
-1969.5113575556634
 30
0.0
 11
530.4653444718774
 21
-1989.0022333334787
 31
0.0
  0
LINE
  5
E7
330
17
100
AcDbEntity
  8
visible
100
AcDbLine
 10
452.2792144294026
 20
-2092.4079088752655
 30
0.0
 11
389.80970967396024
 21
-2175.027439174158
 31
0.0
  0
LINE
  5
E8
330
17
100
AcDbEntity
  8
visible
100
AcDbLine
 10
545.2026027531227
 20
-1969.5113575556632
 30
0.0
 11
560.041836339152
 21
-1978.0765093251105
 31
0.0
  0
LINE
  5
E9
330
17
100
AcDbEntity
  8
visible
100
AcDbLine
 10
545.2026027531228
 20
-1969.511357555663
 30
0.0
 11
545.2026027531228
 21
-1924.424445324369
 31
0.0
  0
LINE
  5
EA
330
17
100
AcDbEntity
  8
visible
100
AcDbLine
 10
1091.8107693632437
 20
-2285.011607504075
 30
0.0
 11
1077.0735110819992
 21
-2304.5024832818895
 31
0.0
  0
LINE
  5
EB
330
17
100
AcDbEntity
  8
visible
100
AcDbLine
 10
998.8873810395235
 20
-2407.9081588236772
 30
0.0
 11
936.4178762840811
 21
-2490.52768912257
 31
0.0
  0
LINE
  5
EC
330
17
100
AcDbEntity
  8
visible
100
AcDbLine
 10
1091.810769363244
 20
-2285.0116075040746
 30
0.0
 11
1106.650002949273
 21
-2293.576759273522
 31
0.0
  0
LINE
  5
ED
330
17
100
AcDbEntity
  8
visible
100
AcDbLine
 10
1091.8107693632442
 20
-2285.011607504074
 30
0.0
 11
1091.8107693632442
 21
-2239.92469527278
 31
0.0
  0
LINE
  5
EE
330
17
100
AcDbEntity
  8
visible
100
AcDbLine
 10
1248.7654000612931
 20
-5301.250663400782
 30
0.0
 11
1248.7654000612931
 21
-2551.5307707075426
 31
0.0
  0
LINE
  5
EF
330
17
100
AcDbEntity
  8
visible
100
AcDbLine
 10
1248.7654000612931
 20
-2551.5307707075426
 30
0.0
 11
1247.98453125185
 21
-2551.080056064759
 31
0.0
  0
LINE
  5
F0
330
17
100
AcDbEntity
  8
visible
100
AcDbLine
 10
1248.7654000612931
 20
-5301.250663400782
 30
0.0
 11
1247.98453125185
 21
-5300.799948757999
 31
0.0
  0
LINE
  5
F1
330
17
100
AcDbEntity
  8
visible
100
AcDbLine
 10
1248.7654000612931
 20
-5301.250663400782
 30
0.0
 11
1259.3852158697182
 21
-5297.327643149995
 31
0.0
  0
LINE
  5
F2
330
17
100
AcDbEntity
  8
visible
100
AcDbLine
 10
1248.7654000612931
 20
-2551.5307707075426
 30
0.0
 11
1259.3852158697182
 21
-2547.6077504567556
 31
0.0
  0
LINE
  5
F3
330
17
100
AcDbEntity
  8
visible
100
AcDbLine
 10
-5278.673151834887
 20
-1402.2120373269006
 30
0.0
 11
-5278.673151834887
 21
1070.9096876658527
 31
0.0
  0
LINE
  5
F4
330
17
100
AcDbEntity
  8
visible
100
AcDbLine
 10
-5084.236818283572
 20
-1461.8109359714417
 30
0.0
 11
-5084.236818283572
 21
-1426.9220169028602
 31
0.0
  0
LINE
  5
F5
330
17
100
AcDbEntity
  8
visible
100
AcDbLine
 10
-5084.236818283572
 20
804.4904594579866
 30
0.0
 11
-5084.236818283572
 21
958.6817416127747
 31
0.0
  0
LINE
  5
F6
330
17
100
AcDbEntity
  8
visible
100
AcDbLine
 10
-5139.834677515915
 20
-1482.3491008137976
 30
0.0
 11
-5084.236818283573
 21
-1461.8109359714417
 31
0.0
  0
LINE
  5
F7
330
17
100
AcDbEntity
  8
visible
100
AcDbLine
 10
-655.9297999321466
 20
-4070.4427226048933
 30
0.0
 11
-655.9297999321466
 21
-1597.3209976121407
 31
0.0
  0
LINE
  5
F8
330
17
100
AcDbEntity
  8
visible
100
AcDbLine
 10
-461.49346638083193
 20
-4130.041621249434
 30
0.0
 11
-461.49346638083193
 21
-4095.152702180853
 31
0.0
  0
LINE
  5
F9
330
17
100
AcDbEntity
  8
visible
100
AcDbLine
 10
-461.49346638083193
 20
-1863.740225820006
 30
0.0
 11
-461.49346638083193
 21
-1709.5489436652178
 31
0.0
  0
LINE
  5
FA
330
17
100
AcDbEntity
  8
visible
100
AcDbLine
 10
-517.091325613176
 20
-4150.57978609179
 30
0.0
 11
-461.49346638083205
 21
-4130.041621249434
 31
0.0
  0
LINE
  5
FB
330
17
100
AcDbEntity
  8
visible
100
AcDbLine
 10
-3591.9965234379415
 20
-2375.7556657391406
 30
0.0
 11
-3591.9965234379415
 21
97.36605925361164
 31
0.0
  0
LINE
  5
FC
330
17
100
AcDbEntity
  8
visible
100
AcDbLine
 10
-3397.560189886626
 20
-2435.3545643836824
 30
0.0
 11
-3397.560189886626
 21
-2400.465645315101
 31
0.0
  0
LINE
  5
FD
330
17
100
AcDbEntity
  8
visible
100
AcDbLine
 10
-3397.560189886626
 20
-169.05316895425403
 30
0.0
 11
-3397.560189886626
 21
-14.861886799465992
 31
0.0
  0
LINE
  5
FE
330
17
100
AcDbEntity
  8
visible
100
AcDbLine
 10
-3453.1580491189698
 20
-2455.8927292260378
 30
0.0
 11
-3397.560189886627
 21
-2435.3545643836824
 31
0.0
  0
LINE
  5
FF
330
17
100
AcDbEntity
  8
visible
100
AcDbLine
 10
-5684.100237697708
 20
1671.1065460162831
 30
0.0
 11
-5684.100237697708
 21
1671.845718030448
 31
0.0
  0
LINE
  5
100
330
17
100
AcDbEntity
  8
visible
100
AcDbLine
 10
1248.7654000612931
 20
-2550.643764290545
 30
0.0
 11
1247.98453125185
 21
-2550.193049647761
 31
0.0
  0
LINE
  5
101
330
17
100
AcDbEntity
  8
visible
100
AcDbLine
 10
1248.7654000612931
 20
-2550.643764290545
 30
0.0
 11
1248.7654000612931
 21
-2329.7791664580877
 31
0.0
  0
LINE
  5
102
330
17
100
AcDbEntity
  8
visible
100
AcDbLine
 10
1248.7654000612931
 20
-2329.7791664580877
 30
0.0
 11
-5684.100237697708
 21
1671.8457180304476
 31
0.0
  0
LINE
  5
103
330
17
100
AcDbEntity
  8
visible
100
AcDbLine
 10
-5684.100237697708
 20
1671.8457180304476
 30
0.0
 11
-5597.267626087642
 21
1703.92217772806
 31
0.0
  0
LINE
  5
104
330
17
100
AcDbEntity
  8
visible
100
AcDbLine
 10
1248.7654000612931
 20
-2550.643764290545
 30
0.0
 11
1259.3852158697182
 21
-2546.720744039758
 31
0.0
  0
LINE
  5
105
330
17
100
AcDbEntity
  8
visible
100
AcDbLine
 10
1443.2017336126078
 20
-2268.00602037676
 30
0.0
 11
1443.2017336126078
 21
-2257.953280984118
 31
0.0
  0
LINE
  5
106
330
17
100
AcDbEntity
  8
visible
100
AcDbLine
 10
1248.7654000612931
 20
-2329.7791664580877
 30
0.0
 11
1443.2017336126078
 21
-2257.953280984118
 31
0.0
  0
LINE
  5
107
330
17
100
AcDbEntity
  8
visible
100
AcDbLine
 10
1443.2017336126078
 20
-2257.953280984118
 30
0.0
 11
1442.2646910412761
 21
-2257.412423412778
 31
0.0
  0
LINE
  5
108
330
17
100
AcDbEntity
  8
visible
100
AcDbLine
 10
-5082.831254426574
 20
803.6791731009757
 30
0.0
 11
-5082.831254426574
 21
957.8704552557642
 31
0.0
  0
LINE
  5
109
330
17
100
AcDbEntity
  8
visible
100
AcDbLine
 10
-3396.154626029628
 20
-169.86445531126446
 30
0.0
 11
-3396.154626029628
 21
-15.673173156476878
 31
0.0
  0
LINE
  5
10A
330
17
100
AcDbEntity
  8
visible
100
AcDbLine
 10
-460.0879025238346
 20
-1864.5515121770163
 30
0.0
 11
-460.0879025238346
 21
-1710.3602300222287
 31
0.0
  0
LINE
  5
10B
330
17
100
AcDbEntity
  8
visible
100
AcDbLine
 10
1443.9826024220508
 20
-2267.7175630053785
 30
0.0
 11
1443.9826024220508
 21
-2257.6648236127367
 31
0.0
  0
LINE
  5
10C
330
17
100
AcDbEntity
  8
visible
100
AcDbLine
 10
1443.9826024220508
 20
-2257.6648236127367
 30
0.0
 11
1443.0455598507192
 21
-2257.1239660413967
 31
0.0
  0
LINE
  5
10D
330
17
100
AcDbEntity
  8
visible
100
AcDbLine
 10
-5071.118222284928
 20
796.918453459225
 30
0.0
 11
-5071.118222284928
 21
951.1097356140122
 31
0.0
  0
LINE
  5
10E
330
17
100
AcDbEntity
  8
visible
100
AcDbLine
 10
-3384.441593887983
 20
-176.62517495301609
 30
0.0
 11
-3384.441593887983
 21
-22.4338927982285
 31
0.0
  0
LINE
  5
10F
330
17
100
AcDbEntity
  8
visible
100
AcDbLine
 10
-448.3748703821891
 20
-1871.3122318187675
 30
0.0
 11
-448.3748703821891
 21
-1717.1209496639804
 31
0.0
  0
LINE
  5
110
330
17
100
AcDbEntity
  8
visible
100
AcDbLine
 10
1455.695634563696
 20
-2263.3907024346577
 30
0.0
 11
1455.695634563696
 21
-2253.337963042016
 31
0.0
  0
LINE
  5
111
330
17
100
AcDbEntity
  8
visible
100
AcDbLine
 10
1443.9826024220508
 20
-2257.6648236127367
 30
0.0
 11
1455.6956345636963
 21
-2253.3379630420154
 31
0.0
  0
LINE
  5
112
330
17
100
AcDbEntity
  8
visible
100
AcDbLine
 10
1455.695634563696
 20
-2253.3379630420154
 30
0.0
 11
1443.9826024220506
 21
-2246.577243400264
 31
0.0
  0
LINE
  5
113
330
17
100
AcDbEntity
  8
visible
100
AcDbLine
 10
1334.6609691000265
 20
-2297.1618491891354
 30
0.0
 11
1334.6609691000265
 21
-2209.3482139063512
 31
0.0
  0
LINE
  5
114
330
17
100
AcDbEntity
  8
visible
100
AcDbLine
 10
1334.6609691000265
 20
-2209.3482139063512
 30
0.0
 11
-5598.204668658974
 21
1792.2766705821841
 31
0.0
  0
LINE
  5
115
330
17
100
AcDbEntity
  8
visible
100
AcDbLine
 10
-5598.204668658974
 20
1704.4630352994
 30
0.0
 11
-5598.204668658974
 21
1792.2766705821841
 31
0.0
  0
LINE
  5
116
330
17
100
AcDbEntity
  8
visible
100
AcDbLine
 10
1334.6609691000265
 20
-2297.1618491891354
 30
0.0
 11
-5598.204668658974
 21
1704.4630352994
 31
0.0
  0
LINE
  5
117
330
17
100
AcDbEntity
  8
visible
100
AcDbLine
 10
1443.9826024220508
 20
-2256.777817195739
 30
0.0
 11
1443.9826024220508
 21
-2168.9641819129547
 31
0.0
  0
LINE
  5
118
330
17
100
AcDbEntity
  8
visible
100
AcDbLine
 10
1443.9826024220508
 20
-2168.9641819129547
 30
0.0
 11
-5488.883035336949
 21
1832.6607025755807
 31
0.0
  0
LINE
  5
119
330
17
100
AcDbEntity
  8
visible
100
AcDbLine
 10
1334.6609691000265
 20
-2297.1618491891354
 30
0.0
 11
1443.9826024220506
 21
-2256.777817195739
 31
0.0
  0
LINE
  5
11A
330
17
100
AcDbEntity
  8
visible
100
AcDbLine
 10
1334.6609691000265
 20
-2209.3482139063512
 30
0.0
 11
1443.9826024220506
 21
-2168.9641819129547
 31
0.0
  0
LINE
  5
11B
330
17
100
AcDbEntity
  8
visible
100
AcDbLine
 10
-5598.204668658974
 20
1792.2766705821841
 30
0.0
 11
-5488.883035336949
 21
1832.6607025755807
 31
0.0
  0
LINE
  5
11C
330
17
100
AcDbEntity
  8
visible
100
AcDbLine
 10
1414.93428271077
 20
-5397.1627393850995
 30
0.0
 11
1259.3852158697184
 21
-5307.380382542638
 31
0.0
  0
LINE
  5
11D
330
17
100
AcDbEntity
  8
visible
100
AcDbLine
 10
1414.93428271077
 20
-5397.1627393850995
 30
0.0
 11
6006.442882235788
 21
-3701.03339566244
 31
0.0
  0
LINE
  5
11E
330
17
100
AcDbEntity
  8
visible
100
AcDbLine
 10
1414.93428271077
 20
-2425.691242442405
 30
0.0
 11
1259.3852158697184
 21
-2335.9088855999426
 31
0.0
  0
LINE
  5
11F
330
17
100
AcDbEntity
  8
visible
100
AcDbLine
 10
1414.93428271077
 20
-2425.691242442405
 30
0.0
 11
1414.93428271077
 21
-5397.1627393850995
 31
0.0
  0
LINE
  5
120
330
17
100
AcDbEntity
  8
visible
100
AcDbLine
 10
1259.3852158697184
 20
-2335.9088855999426
 30
0.0
 11
1259.3852158697184
 21
-5307.380382542637
 31
0.0
  0
LINE
  5
121
330
17
100
AcDbEntity
  8
visible
100
AcDbLine
 10
6006.442882235788
 20
-729.5618987197458
 30
0.0
 11
5850.893815394736
 21
-639.7795418772837
 31
0.0
  0
LINE
  5
122
330
17
100
AcDbEntity
  8
visible
100
AcDbLine
 10
6006.442882235788
 20
-3701.03339566244
 30
0.0
 11
6006.442882235788
 21
-729.5618987197454
 31
0.0
  0
LINE
  5
123
330
17
100
AcDbEntity
  8
visible
100
AcDbLine
 10
1621.864517213173
 20
-2349.2500390263326
 30
0.0
 11
1414.93428271077
 21
-2425.691242442405
 31
0.0
  0
LINE
  5
124
330
17
100
AcDbEntity
  8
visible
100
AcDbLine
 10
6006.442882235788
 20
-729.5618987197458
 30
0.0
 11
5799.512647733384
 21
-806.003102135818
 31
0.0
  0
LINE
  5
125
330
17
100
AcDbEntity
  8
visible
100
AcDbLine
 10
3710.688582473279
 20
413.34050534288326
 30
0.0
 11
1621.8645172131728
 21
-2349.2500390263326
 31
0.0
  0
LINE
  5
126
330
17
100
AcDbEntity
  8
visible
100
AcDbLine
 10
5799.512647733385
 20
-806.0031021358182
 30
0.0
 11
3710.688582473279
 21
413.3405053428826
 31
0.0
  0
LINE
  5
127
330
17
100
AcDbEntity
  8
visible
100
AcDbLine
 10
2401.95245784676
 20
-4900.388665826328
 30
0.0
 11
1622.6453860226159
 21
-5188.26912246497
 31
0.0
  0
LINE
  5
128
330
17
100
AcDbEntity
  8
visible
100
AcDbLine
 10
2401.9524578467604
 20
-4900.388665826329
 30
0.0
 11
2401.9524578467604
 21
-2723.6749185136805
 31
0.0
  0
LINE
  5
129
330
17
100
AcDbEntity
  8
visible
100
AcDbLine
 10
2401.95245784676
 20
-2723.67491851368
 30
0.0
 11
1622.6453860226159
 21
-3011.555375152322
 31
0.0
  0
LINE
  5
12A
330
17
100
AcDbEntity
  8
visible
100
AcDbLine
 10
1622.645386022616
 20
-5188.26912246497
 30
0.0
 11
1622.645386022616
 21
-3011.555375152322
 31
0.0
  0
LINE
  5
12B
330
17
100
AcDbEntity
  8
visible
100
AcDbLine
 10
1466.3154503721214
 20
-2259.4676821838702
 30
0.0
 11
1259.3852158697184
 21
-2335.9088855999426
 31
0.0
  0
LINE
  5
12C
330
17
100
AcDbEntity
  8
visible
100
AcDbLine
 10
5850.8938153947365
 20
-639.779541877283
 30
0.0
 11
5645.032515039634
 21
-715.8258749507555
 31
0.0
  0
LINE
  5
12D
330
17
100
AcDbEntity
  8
visible
100
AcDbLine
 10
3555.1395156322274
 20
503.1228621853452
 30
0.0
 11
1466.3154503721212
 21
-2259.4676821838707
 31
0.0
  0
LINE
  5
12E
330
17
100
AcDbEntity
  8
visible
100
AcDbLine
 10
2246.4033910057087
 20
-4810.606308983866
 30
0.0
 11
1622.6453860226163
 21
-5041.026057243333
 31
0.0
  0
LINE
  5
12F
330
17
100
AcDbEntity
  8
visible
100
AcDbLine
 10
2246.4033910057087
 20
-4810.606308983866
 30
0.0
 11
2246.4033910057087
 21
-2781.135626892856
 31
0.0
  0
LINE
  5
130
330
17
100
AcDbEntity
  8
visible
100
AcDbLine
 10
1621.864517213173
 20
-2349.2500390263326
 30
0.0
 11
1466.3154503721214
 21
-2259.4676821838702
 31
0.0
  0
LINE
  5
131
330
17
100
AcDbEntity
  8
visible
100
AcDbLine
 10
3710.688582473279
 20
413.34050534288326
 30
0.0
 11
3555.1395156322274
 21
503.12286218534547
 31
0.0
  0
LINE
  5
132
330
17
100
AcDbEntity
  8
visible
100
AcDbLine
 10
2401.9524578467604
 20
-4900.388665826329
 30
0.0
 11
2246.4033910057087
 21
-4810.606308983867
 31
0.0
  0
LINE
  5
133
330
17
100
AcDbEntity
  8
visible
100
AcDbLine
 10
-5840.273999586313
 20
-1209.4828503555584
 30
0.0
 11
-5850.269120347185
 21
-1203.71370292793
 31
0.0
  0
LINE
  5
134
330
17
100
AcDbEntity
  8
visible
100
AcDbLine
 10
-5694.720053506133
 20
1677.975437172302
 30
0.0
 11
-5850.269120347185
 21
1767.7577940147642
 31
0.0
  0
LINE
  5
135
330
17
100
AcDbEntity
  8
visible
100
AcDbLine
 10
-5694.720053506133
 20
1677.975437172302
 30
0.0
 11
-5694.720053506133
 21
1667.9226977796602
 31
0.0
  0
LINE
  5
136
330
17
100
AcDbEntity
  8
visible
100
AcDbLine
 10
-5850.269120347185
 20
1767.7577940147648
 30
0.0
 11
-5850.269120347185
 21
-1203.7137029279297
 31
0.0
  0
LINE
  5
137
330
17
100
AcDbEntity
  8
visible
100
AcDbLine
 10
-1103.2114539811146
 20
3374.1047808949616
 30
0.0
 11
-1258.7605208221662
 21
3463.887137737424
 31
0.0
  0
LINE
  5
138
330
17
100
AcDbEntity
  8
visible
100
AcDbLine
 10
-1103.2114539811146
 20
3001.146371593315
 30
0.0
 11
-1103.2114539811146
 21
3374.104780894962
 31
0.0
  0
LINE
  5
139
330
17
100
AcDbEntity
  8
visible
100
AcDbLine
 10
-5598.204668658974
 20
1713.6287682750437
 30
0.0
 11
-5694.720053506133
 21
1677.975437172302
 31
0.0
  0
LINE
  5
13A
330
17
100
AcDbEntity
  8
visible
100
AcDbLine
 10
-1103.2114539811146
 20
3374.1047808949616
 30
0.0
 11
-1310.0772948601848
 21
3297.687364848926
 31
0.0
  0
LINE
  5
13B
330
17
100
AcDbEntity
  8
visible
100
AcDbLine
 10
-3398.9657537436233
 20
4517.00718495759
 30
0.0
 11
-5446.935553226769
 21
1808.4487681426508
 31
0.0
  0
LINE
  5
13C
330
17
100
AcDbEntity
  8
visible
100
AcDbLine
 10
-3398.3432051501786
 20
4516.643774433754
 30
0.0
 11
-3398.9657537436233
 21
4517.007184957592
 31
0.0
  0
LINE
  5
13D
330
17
100
AcDbEntity
  8
visible
100
AcDbLine
 10
-4629.61499742584
 20
542.0843944294653
 30
0.0
 11
-4629.61499742584
 21
696.2756765842532
 31
0.0
  0
LINE
  5
13E
330
17
100
AcDbEntity
  8
visible
100
AcDbLine
 10
-5643.3388858447815
 20
1844.1989974308372
 30
0.0
 11
-5850.269120347185
 21
1767.7577940147648
 31
0.0
  0
LINE
  5
13F
330
17
100
AcDbEntity
  8
visible
100
AcDbLine
 10
-1258.7605208221667
 20
3463.8871377374244
 30
0.0
 11
-1464.5574275539357
 21
3387.8645920339886
 31
0.0
  0
LINE
  5
140
330
17
100
AcDbEntity
  8
visible
100
AcDbLine
 10
-3554.5148205846754
 20
4606.789541800053
 30
0.0
 11
-5643.3388858447815
 21
1844.1989974308367
 31
0.0
  0
LINE
  5
141
330
17
100
AcDbEntity
  8
visible
100
AcDbLine
 10
-4785.164064266891
 20
631.8667512719272
 30
0.0
 11
-4785.164064266891
 21
786.0580334267152
 31
0.0
  0
LINE
  5
142
330
17
100
AcDbEntity
  8
visible
100
AcDbLine
 10
-5570.874260328468
 20
1802.3726785805331
 30
0.0
 11
-5643.3388858447815
 21
1844.1989974308365
 31
0.0
  0
LINE
  5
143
330
17
100
AcDbEntity
  8
visible
100
AcDbLine
 10
-3398.9657537436233
 20
4517.00718495759
 30
0.0
 11
-3554.514820584675
 21
4606.789541800052
 31
0.0
  0
LINE
  5
144
330
17
100
AcDbEntity
  8
visible
100
AcDbLine
 10
1465.690755324567
 20
-2259.1071104696434
 30
0.0
 11
1465.690755324567
 21
-2259.698448080975
 31
0.0
  0
LINE
  5
145
330
17
100
AcDbEntity
  8
visible
100
AcDbLine
 10
3554.514820584673
 20
503.48343389957154
 30
0.0
 11
1465.690755324567
 21
-2259.1071104696443
 31
0.0
  0
LINE
  5
146
330
17
100
AcDbEntity
  8
visible
100
AcDbLine
 10
3555.1373691781164
 20
503.1200233757347
 30
0.0
 11
3554.5148205846735
 21
503.48343389957176
 31
0.0
  0
LINE
  5
147
330
17
100
AcDbEntity
  8
visible
100
AcDbLine
 10
2245.778695958154
 20
-4809.358730852642
 30
0.0
 11
2246.4033910057087
 21
-4809.127964955537
 31
0.0
  0
LINE
  5
148
330
17
100
AcDbEntity
  8
visible
100
AcDbLine
 10
2245.7786959581545
 20
-4809.358730852642
 30
0.0
 11
2245.7786959581545
 21
-2781.3663927899615
 31
0.0
  0
LINE
  5
149
330
17
100
AcDbEntity
  8
visible
100
AcDbLine
 10
1456.945024658805
 20
-2254.059106470469
 30
0.0
 11
1456.945024658805
 21
-2262.929170640447
 31
0.0
  0
LINE
  5
14A
330
17
100
AcDbEntity
  8
visible
100
AcDbLine
 10
3545.769089918911
 20
508.53143789874684
 30
0.0
 11
1456.9450246588049
 21
-2254.059106470469
 31
0.0
  0
LINE
  5
14B
330
17
100
AcDbEntity
  8
visible
100
AcDbLine
 10
2237.032965292392
 20
-4804.310726853468
 30
0.0
 11
2237.032965292392
 21
-2784.597115349433
 31
0.0
  0
LINE
  5
14C
330
17
100
AcDbEntity
  8
visible
100
AcDbLine
 10
1465.690755324567
 20
-2259.1071104696434
 30
0.0
 11
1456.9450246588049
 21
-2254.059106470469
 31
0.0
  0
LINE
  5
14D
330
17
100
AcDbEntity
  8
visible
100
AcDbLine
 10
3554.514820584673
 20
503.48343389957154
 30
0.0
 11
3545.769089918911
 21
508.5314378987461
 31
0.0
  0
LINE
  5
14E
330
17
100
AcDbEntity
  8
visible
100
AcDbLine
 10
2237.032965292392
 20
-4804.310726853467
 30
0.0
 11
2245.778695958154
 21
-4809.358730852642
 31
0.0
  0
LINE
  5
14F
330
17
100
AcDbEntity
  8
visible
100
AcDbLine
 10
-3389.5953280303074
 20
4511.598609244188
 30
0.0
 11
-5437.565127513453
 21
1803.04019242925
 31
0.0
  0
LINE
  5
150
330
17
100
AcDbEntity
  8
visible
100
AcDbLine
 10
-1300.7712627702012
 20
3292.2550017654894
 30
0.0
 11
-3389.5953280303074
 21
4511.59860924419
 31
0.0
  0
LINE
  5
151
330
17
100
AcDbEntity
  8
visible
100
AcDbLine
 10
-1300.7712627702012
 20
3159.0839938589197
 30
0.0
 11
-1300.7712627702012
 21
3292.2550017654885
 31
0.0
  0
LINE
  5
152
330
17
100
AcDbEntity
  8
visible
100
AcDbLine
 10
-4620.244571712524
 20
536.6758187160642
 30
0.0
 11
-4620.244571712524
 21
690.8671008708519
 31
0.0
  0
LINE
  5
153
330
17
100
AcDbEntity
  8
visible
100
AcDbLine
 10
-3398.341058696069
 20
4516.6466132433625
 30
0.0
 11
-5446.310858179215
 21
1808.0881964284245
 31
0.0
  0
LINE
  5
154
330
17
100
AcDbEntity
  8
visible
100
AcDbLine
 10
-4628.990302378285
 20
541.7238227152386
 30
0.0
 11
-4628.990302378285
 21
695.9151048700263
 31
0.0
  0
LINE
  5
155
330
17
100
AcDbEntity
  8
visible
100
AcDbLine
 10
-3389.5953280303074
 20
4511.598609244188
 30
0.0
 11
-3398.3410586960695
 21
4516.6466132433625
 31
0.0
  0
LINE
  5
156
330
17
100
AcDbEntity
  8
visible
100
AcDbLine
 10
749.0093620177537
 20
-2577.221505346199
 30
0.0
 11
-565.5051917986435
 21
-1818.4884756845481
 31
0.0
  0
LINE
  5
157
330
17
100
AcDbEntity
  8
visible
100
AcDbLine
 10
-565.5051917986436
 20
-4035.1175117620987
 30
0.0
 11
-565.5051917986436
 21
-1818.4884756845486
 31
0.0
  0
LINE
  5
158
330
17
100
AcDbEntity
  8
visible
100
AcDbLine
 10
749.0093620177537
 20
-4793.850541423749
 30
0.0
 11
-565.5051917986435
 21
-4035.1175117620983
 31
0.0
  0
LINE
  5
159
330
17
100
AcDbEntity
  8
visible
100
AcDbLine
 10
749.0093620177537
 20
-2562.4380650629023
 30
0.0
 11
-549.8878156097829
 21
-1812.71932825692
 31
0.0
  0
LINE
  5
15A
330
17
100
AcDbEntity
  8
visible
100
AcDbLine
 10
-565.5051917986436
 20
-1818.4884756845486
 30
0.0
 11
-549.887815609783
 21
-1812.7193282569206
 31
0.0
  0
LINE
  5
15B
330
17
100
AcDbEntity
  8
visible
100
AcDbLine
 10
-937.6672663791919
 20
-1603.6778769339583
 30
0.0
 11
-3501.5719153044374
 21
-123.80141881879604
 31
0.0
  0
LINE
  5
15C
330
17
100
AcDbEntity
  8
visible
100
AcDbLine
 10
-3501.5719153044374
 20
-2340.430454896346
 30
0.0
 11
-3501.5719153044374
 21
-123.80141881879581
 31
0.0
  0
LINE
  5
15D
330
17
100
AcDbEntity
  8
visible
100
AcDbLine
 10
-937.6672663791919
 20
-3820.306913011508
 30
0.0
 11
-3501.5719153044374
 21
-2340.4304548963464
 31
0.0
  0
LINE
  5
15E
330
17
100
AcDbEntity
  8
visible
100
AcDbLine
 10
-937.6672663791919
 20
-1588.8944366506614
 30
0.0
 11
-3485.954539115577
 21
-118.03227139116802
 31
0.0
  0
LINE
  5
15F
330
17
100
AcDbEntity
  8
visible
100
AcDbLine
 10
-3501.5719153044374
 20
-123.80141881879626
 30
0.0
 11
-3485.9545391155766
 21
-118.03227139116817
 31
0.0
  0
LINE
  5
160
330
17
100
AcDbEntity
  8
visible
100
AcDbLine
 10
-3873.733989884986
 20
91.00917993179385
 30
0.0
 11
-5188.248543701384
 21
849.7422095934447
 31
0.0
  0
LINE
  5
161
330
17
100
AcDbEntity
  8
visible
100
AcDbLine
 10
-5188.248543701383
 20
-1366.8868264841058
 30
0.0
 11
-5188.248543701383
 21
849.7422095934444
 31
0.0
  0
LINE
  5
162
330
17
100
AcDbEntity
  8
visible
100
AcDbLine
 10
-3873.733989884986
 20
-2125.6198561457563
 30
0.0
 11
-5188.248543701384
 21
-1366.8868264841053
 31
0.0
  0
LINE
  5
163
330
17
100
AcDbEntity
  8
visible
100
AcDbLine
 10
-3873.733989884986
 20
105.79262021509061
 30
0.0
 11
-5172.6311675125235
 21
855.5113570210727
 31
0.0
  0
LINE
  5
164
330
17
100
AcDbEntity
  8
visible
100
AcDbLine
 10
-5188.248543701383
 20
849.7422095934444
 30
0.0
 11
-5172.631167512523
 21
855.5113570210725
 31
0.0
  0
LINE
  5
165
330
17
100
AcDbEntity
  8
visible
100
AcDbLine
 10
3339.6052257821857
 20
235.86781288262293
 30
0.0
 11
-3564.0414200598802
 21
4220.627601281936
 31
0.0
  0
LINE
  5
166
330
17
100
AcDbEntity
  8
visible
100
AcDbLine
 10
-3564.04142005988
 20
4220.627601281935
 30
0.0
 11
-5405.847355406301
 21
1784.73280948312
 31
0.0
  0
LINE
  5
167
330
17
100
AcDbEntity
  8
visible
100
AcDbLine
 10
-1019.1899700850454
 20
2996.999796879707
 30
0.0
 11
-1216.1164213366492
 21
2924.2540477902753
 31
0.0
  0
LINE
  5
168
330
17
100
AcDbEntity
  8
visible
100
AcDbLine
 10
3468.701516871696
 20
406.6051186272348
 30
0.0
 11
-1019.1899700850436
 21
2996.999796879707
 31
0.0
  0
LINE
  5
169
330
17
100
AcDbEntity
  8
visible
100
AcDbLine
 10
3327.2906595266786
 20
301.8159702190805
 30
0.0
 11
3413.567426469049
 21
333.6870977407875
 31
0.0
  0
LINE
  5
16A
330
17
100
AcDbEntity
  8
visible
100
AcDbLine
 10
3289.8089566734134
 20
323.4502730726856
 30
0.0
 11
3450.7915548289884
 21
382.9181587668625
 31
0.0
  0
LINE
  5
16B
330
17
100
AcDbEntity
  8
visible
100
AcDbLine
 10
2936.856254805163
 20
527.1732916108031
 30
0.0
 11
3122.069673915122
 21
595.592180129514
 31
0.0
  0
LINE
  5
16C
330
17
100
AcDbEntity
  8
visible
100
AcDbLine
 10
3122.069673915122
 20
595.5921801295135
 30
0.0
 11
3084.5879710618565
 21
617.2264829831189
 31
0.0
  0
LINE
  5
16D
330
17
100
AcDbEntity
  8
visible
100
AcDbLine
 10
2899.374551951898
 20
548.8075944644079
 30
0.0
 11
3084.587971061857
 21
617.2264829831188
 31
0.0
  0
LINE
  5
16E
330
17
100
AcDbEntity
  8
visible
100
AcDbLine
 10
2546.4218500836478
 20
752.5306130025255
 30
0.0
 11
2731.635269193607
 21
820.9495015212365
 31
0.0
  0
LINE
  5
16F
330
17
100
AcDbEntity
  8
visible
100
AcDbLine
 10
2731.635269193607
 20
820.949501521236
 30
0.0
 11
2694.153566340342
 21
842.5838043748414
 31
0.0
  0
LINE
  5
170
330
17
100
AcDbEntity
  8
visible
100
AcDbLine
 10
2508.940147230383
 20
774.1649158561305
 30
0.0
 11
2694.1535663403415
 21
842.5838043748413
 31
0.0
  0
LINE
  5
171
330
17
100
AcDbEntity
  8
visible
100
AcDbLine
 10
2155.9874453621333
 20
977.8879343942472
 30
0.0
 11
2341.2008644720922
 21
1046.306822912958
 31
0.0
  0
LINE
  5
172
330
17
100
AcDbEntity
  8
visible
100
AcDbLine
 10
2341.2008644720922
 20
1046.3068229129585
 30
0.0
 11
2303.7191616188265
 21
1067.9411257665638
 31
0.0
  0
LINE
  5
173
330
17
100
AcDbEntity
  8
visible
100
AcDbLine
 10
2118.5057425088676
 20
999.5222372478529
 30
0.0
 11
2303.7191616188265
 21
1067.9411257665638
 31
0.0
  0
LINE
  5
174
330
17
100
AcDbEntity
  8
visible
100
AcDbLine
 10
1765.553040640618
 20
1203.2452557859697
 30
0.0
 11
1950.766459750577
 21
1271.6641443046806
 31
0.0
  0
LINE
  5
175
330
17
100
AcDbEntity
  8
visible
100
AcDbLine
 10
1950.7664597505768
 20
1271.6641443046801
 30
0.0
 11
1913.2847568973114
 21
1293.2984471582854
 31
0.0
  0
LINE
  5
176
330
17
100
AcDbEntity
  8
visible
100
AcDbLine
 10
1728.0713377873524
 20
1224.8795586395754
 30
0.0
 11
1913.2847568973118
 21
1293.2984471582863
 31
0.0
  0
LINE
  5
177
330
17
100
AcDbEntity
  8
visible
100
AcDbLine
 10
1375.1186359191026
 20
1428.6025771776922
 30
0.0
 11
1560.332055029062
 21
1497.021465696403
 31
0.0
  0
LINE
  5
178
330
17
100
AcDbEntity
  8
visible
100
AcDbLine
 10
1560.3320550290618
 20
1497.0214656964026
 30
0.0
 11
1522.8503521757964
 21
1518.655768550008
 31
0.0
  0
LINE
  5
179
330
17
100
AcDbEntity
  8
visible
100
AcDbLine
 10
1337.636933065837
 20
1450.2368800312977
 30
0.0
 11
1522.8503521757968
 21
1518.6557685500088
 31
0.0
  0
LINE
  5
17A
330
17
100
AcDbEntity
  8
visible
100
AcDbLine
 10
984.6842311975876
 20
1653.9598985694147
 30
0.0
 11
1169.8976503075467
 21
1722.3787870881256
 31
0.0
  0
LINE
  5
17B
330
17
100
AcDbEntity
  8
visible
100
AcDbLine
 10
1169.8976503075464
 20
1722.378787088126
 30
0.0
 11
1132.415947454281
 21
1744.0130899417313
 31
0.0
  0
LINE
  5
17C
330
17
100
AcDbEntity
  8
visible
100
AcDbLine
 10
947.2025283443218
 20
1675.5942014230202
 30
0.0
 11
1132.4159474542814
 21
1744.0130899417313
 31
0.0
  0
LINE
  5
17D
330
17
100
AcDbEntity
  8
visible
100
AcDbLine
 10
594.2498264760716
 20
1879.317219961137
 30
0.0
 11
779.4632455860312
 21
1947.736108479848
 31
0.0
  0
LINE
  5
17E
330
17
100
AcDbEntity
  8
visible
100
AcDbLine
 10
779.463245586031
 20
1947.7361084798476
 30
0.0
 11
741.9815427327655
 21
1969.370411333453
 31
0.0
  0
LINE
  5
17F
330
17
100
AcDbEntity
  8
visible
100
AcDbLine
 10
556.7681236228069
 20
1900.951522814742
 30
0.0
 11
741.981542732766
 21
1969.370411333453
 31
0.0
  0
LINE
  5
180
330
17
100
AcDbEntity
  8
visible
100
AcDbLine
 10
203.81542175455712
 20
2104.6745413528597
 30
0.0
 11
389.02884086451667
 21
2173.0934298715706
 31
0.0
  0
LINE
  5
181
330
17
100
AcDbEntity
  8
visible
100
AcDbLine
 10
389.0288408645165
 20
2173.09342987157
 30
0.0
 11
351.54713801125104
 21
2194.7277327251754
 31
0.0
  0
LINE
  5
182
330
17
100
AcDbEntity
  8
visible
100
AcDbLine
 10
166.33371890129206
 20
2126.308844206465
 30
0.0
 11
351.5471380112505
 21
2194.7277327251754
 31
0.0
  0
LINE
  5
183
330
17
100
AcDbEntity
  8
visible
100
AcDbLine
 10
-186.6189829669583
 20
2330.031862744582
 30
0.0
 11
-1.4055638569987536
 21
2398.450751263293
 31
0.0
  0
LINE
  5
184
330
17
100
AcDbEntity
  8
visible
100
AcDbLine
 10
-1.4055638569989242
 20
2398.4507512632927
 30
0.0
 11
-38.887266710264385
 21
2420.085054116898
 31
0.0
  0
LINE
  5
185
330
17
100
AcDbEntity
  8
visible
100
AcDbLine
 10
-224.10068582022353
 20
2351.666165598187
 30
0.0
 11
-38.88726671026399
 21
2420.085054116898
 31
0.0
  0
LINE
  5
186
330
17
100
AcDbEntity
  8
visible
100
AcDbLine
 10
-577.0533876884732
 20
2555.389184136304
 30
0.0
 11
-391.8399685785142
 21
2623.8080726550147
 31
0.0
  0
LINE
  5
187
330
17
100
AcDbEntity
  8
visible
100
AcDbLine
 10
-391.83996857851434
 20
2623.8080726550143
 30
0.0
 11
-429.3216714317798
 21
2645.4423755086195
 31
0.0
  0
LINE
  5
188
330
17
100
AcDbEntity
  8
visible
100
AcDbLine
 10
-614.535090541739
 20
2577.0234869899095
 30
0.0
 11
-429.3216714317794
 21
2645.4423755086204
 31
0.0
  0
LINE
  5
189
330
17
100
AcDbEntity
  8
visible
100
AcDbLine
 10
-967.4877924099881
 20
2780.746505528027
 30
0.0
 11
-782.2743733000295
 21
2849.165394046737
 31
0.0
  0
LINE
  5
18A
330
17
100
AcDbEntity
  8
visible
100
AcDbLine
 10
-782.2743733000298
 20
2849.1653940467368
 30
0.0
 11
-819.7560761532952
 21
2870.799696900342
 31
0.0
  0
LINE
  5
18B
330
17
100
AcDbEntity
  8
visible
100
AcDbLine
 10
-1004.9694952632539
 20
2802.380808381632
 30
0.0
 11
-819.7560761532948
 21
2870.799696900343
 31
0.0
  0
LINE
  5
18C
330
17
100
AcDbEntity
  8
visible
100
AcDbLine
 10
-1369.0191967155224
 20
3012.5089748050204
 30
0.0
 11
-1369.0191967155224
 21
2953.6687404176732
 31
0.0
  0
LINE
  5
18D
330
17
100
AcDbEntity
  8
visible
100
AcDbLine
 10
3370.5777776693744
 20
276.8308027301573
 30
0.0
 11
-1369.0191967155215
 21
3012.5089748050204
 31
0.0
  0
LINE
  5
18E
330
17
100
AcDbEntity
  8
visible
100
AcDbLine
 10
3327.2906595266786
 20
301.8159702190805
 30
0.0
 11
3413.567426469049
 21
333.6870977407875
 31
0.0
  0
LINE
  5
18F
330
17
100
AcDbEntity
  8
visible
100
AcDbLine
 10
3289.8089566734134
 20
323.4502730726856
 30
0.0
 11
3450.7915548289884
 21
382.9181587668625
 31
0.0
  0
LINE
  5
190
330
17
100
AcDbEntity
  8
visible
100
AcDbLine
 10
2936.856254805163
 20
527.1732916108031
 30
0.0
 11
3122.069673915122
 21
595.592180129514
 31
0.0
  0
LINE
  5
191
330
17
100
AcDbEntity
  8
visible
100
AcDbLine
 10
2899.374551951898
 20
548.8075944644079
 30
0.0
 11
3084.587971061857
 21
617.2264829831188
 31
0.0
  0
LINE
  5
192
330
17
100
AcDbEntity
  8
visible
100
AcDbLine
 10
2546.4218500836478
 20
752.5306130025255
 30
0.0
 11
2731.635269193607
 21
820.9495015212365
 31
0.0
  0
LINE
  5
193
330
17
100
AcDbEntity
  8
visible
100
AcDbLine
 10
2508.940147230383
 20
774.1649158561305
 30
0.0
 11
2694.1535663403415
 21
842.5838043748413
 31
0.0
  0
LINE
  5
194
330
17
100
AcDbEntity
  8
visible
100
AcDbLine
 10
2155.9874453621333
 20
977.8879343942472
 30
0.0
 11
2341.2008644720922
 21
1046.306822912958
 31
0.0
  0
LINE
  5
195
330
17
100
AcDbEntity
  8
visible
100
AcDbLine
 10
2118.5057425088676
 20
999.5222372478529
 30
0.0
 11
2303.7191616188265
 21
1067.9411257665638
 31
0.0
  0
LINE
  5
196
330
17
100
AcDbEntity
  8
visible
100
AcDbLine
 10
1765.553040640618
 20
1203.2452557859697
 30
0.0
 11
1950.766459750577
 21
1271.6641443046806
 31
0.0
  0
LINE
  5
197
330
17
100
AcDbEntity
  8
visible
100
AcDbLine
 10
1728.0713377873524
 20
1224.8795586395754
 30
0.0
 11
1913.2847568973118
 21
1293.2984471582863
 31
0.0
  0
LINE
  5
198
330
17
100
AcDbEntity
  8
visible
100
AcDbLine
 10
1375.1186359191026
 20
1428.6025771776922
 30
0.0
 11
1560.332055029062
 21
1497.021465696403
 31
0.0
  0
LINE
  5
199
330
17
100
AcDbEntity
  8
visible
100
AcDbLine
 10
1337.636933065837
 20
1450.2368800312977
 30
0.0
 11
1522.8503521757968
 21
1518.6557685500088
 31
0.0
  0
LINE
  5
19A
330
17
100
AcDbEntity
  8
visible
100
AcDbLine
 10
984.6842311975876
 20
1653.9598985694147
 30
0.0
 11
1169.8976503075467
 21
1722.3787870881256
 31
0.0
  0
LINE
  5
19B
330
17
100
AcDbEntity
  8
visible
100
AcDbLine
 10
947.2025283443218
 20
1675.5942014230202
 30
0.0
 11
1132.4159474542814
 21
1744.0130899417313
 31
0.0
  0
LINE
  5
19C
330
17
100
AcDbEntity
  8
visible
100
AcDbLine
 10
594.2498264760716
 20
1879.317219961137
 30
0.0
 11
779.4632455860312
 21
1947.736108479848
 31
0.0
  0
LINE
  5
19D
330
17
100
AcDbEntity
  8
visible
100
AcDbLine
 10
556.7681236228069
 20
1900.951522814742
 30
0.0
 11
741.981542732766
 21
1969.370411333453
 31
0.0
  0
LINE
  5
19E
330
17
100
AcDbEntity
  8
visible
100
AcDbLine
 10
203.81542175455712
 20
2104.6745413528597
 30
0.0
 11
389.02884086451667
 21
2173.0934298715706
 31
0.0
  0
LINE
  5
19F
330
17
100
AcDbEntity
  8
visible
100
AcDbLine
 10
166.33371890129206
 20
2126.308844206465
 30
0.0
 11
351.5471380112505
 21
2194.7277327251754
 31
0.0
  0
LINE
  5
1A0
330
17
100
AcDbEntity
  8
visible
100
AcDbLine
 10
-186.6189829669583
 20
2330.031862744582
 30
0.0
 11
-1.4055638569987536
 21
2398.450751263293
 31
0.0
  0
LINE
  5
1A1
330
17
100
AcDbEntity
  8
visible
100
AcDbLine
 10
-224.10068582022353
 20
2351.666165598187
 30
0.0
 11
-38.88726671026399
 21
2420.085054116898
 31
0.0
  0
LINE
  5
1A2
330
17
100
AcDbEntity
  8
visible
100
AcDbLine
 10
-577.0533876884732
 20
2555.389184136304
 30
0.0
 11
-391.8399685785142
 21
2623.8080726550147
 31
0.0
  0
LINE
  5
1A3
330
17
100
AcDbEntity
  8
visible
100
AcDbLine
 10
-614.535090541739
 20
2577.0234869899095
 30
0.0
 11
-429.3216714317794
 21
2645.4423755086204
 31
0.0
  0
LINE
  5
1A4
330
17
100
AcDbEntity
  8
visible
100
AcDbLine
 10
-967.4877924099881
 20
2780.746505528027
 30
0.0
 11
-782.2743733000295
 21
2849.165394046737
 31
0.0
  0
LINE
  5
1A5
330
17
100
AcDbEntity
  8
visible
100
AcDbLine
 10
-1004.9694952632539
 20
2802.380808381632
 30
0.0
 11
-819.7560761532948
 21
2870.799696900343
 31
0.0
  0
LINE
  5
1A6
330
17
100
AcDbEntity
  8
visible
100
AcDbLine
 10
-1020.4393601801539
 20
2997.7209403081606
 30
0.0
 11
-1026.9986581794753
 21
3001.5069433075414
 31
0.0
  0
LINE
  5
1A7
330
17
100
AcDbEntity
  8
visible
100
AcDbLine
 10
-1020.4393601801539
 20
2996.5382650854967
 30
0.0
 11
-1020.4393601801539
 21
2997.7209403081597
 31
0.0
  0
LINE
  5
1A8
330
17
100
AcDbEntity
  8
visible
100
AcDbLine
 10
-1020.4393601801539
 20
2997.7209403081606
 30
0.0
 11
-1217.3658114317582
 21
2924.9751912187285
 31
0.0
  0
LINE
  5
1A9
330
17
100
AcDbEntity
  8
visible
100
AcDbLine
 10
-1026.9986581794756
 20
3001.5069433075423
 30
0.0
 11
-1223.9251094310798
 21
2928.76119421811
 31
0.0
  0
LINE
  5
1AA
330
17
100
AcDbEntity
  8
visible
100
AcDbLine
 10
-1369.0191967155224
 20
2957.6542114232843
 30
0.0
 11
-1373.2294886903042
 21
2956.098905664997
 31
0.0
  0
LINE
  5
1AB
330
17
100
AcDbEntity
  8
visible
100
AcDbLine
 10
-1207.8478744464815
 20
3017.191812876406
 30
0.0
 11
-1292.181705866329
 21
2986.038416767214
 31
0.0
  0
LINE
  5
1AC
330
17
100
AcDbEntity
  8
visible
100
AcDbLine
 10
-1207.847874446481
 20
2993.2426396174646
 30
0.0
 11
-1207.847874446481
 21
3017.191812876406
 31
0.0
  0
LINE
  5
1AD
330
17
100
AcDbEntity
  8
visible
100
AcDbLine
 10
-1114.143617313318
 20
3051.8066974421745
 30
0.0
 11
-1160.9957458798997
 21
3034.49925515929
 31
0.0
  0
LINE
  5
1AE
330
17
100
AcDbEntity
  8
visible
100
AcDbLine
 10
-1114.143617313318
 20
3007.456376592284
 30
0.0
 11
-1114.143617313318
 21
3051.8066974421745
 31
0.0
  0
LINE
  5
1AF
330
17
100
AcDbEntity
  8
visible
100
AcDbLine
 10
-1300.3027414845355
 20
3159.2570682817486
 30
0.0
 11
-1559.388612861523
 21
3063.5492765045706
 31
0.0
  0
LINE
  5
1B0
330
17
100
AcDbEntity
  8
visible
100
AcDbLine
 10
-1160.995745879899
 20
3034.49925515929
 30
0.0
 11
-1285.3100603432292
 21
3106.2530262904143
 31
0.0
  0
LINE
  5
1B1
330
17
100
AcDbEntity
  8
visible
100
AcDbLine
 10
-1332.1621889098114
 20
3088.9455840075298
 30
0.0
 11
-1285.3100603432297
 21
3106.2530262904143
 31
0.0
  0
LINE
  5
1B2
330
17
100
AcDbEntity
  8
visible
100
AcDbLine
 10
-1207.847874446481
 20
3017.191812876405
 30
0.0
 11
-1332.1621889098112
 21
3088.9455840075293
 31
0.0
  0
LINE
  5
1B3
330
17
100
AcDbEntity
  8
visible
100
AcDbLine
 10
-1292.1817058663287
 20
2986.038416767213
 30
0.0
 11
-1416.496020329659
 21
3057.7921878983375
 31
0.0
  0
LINE
  5
1B4
330
17
100
AcDbEntity
  8
visible
100
AcDbLine
 10
-1463.3481488962407
 20
3040.484745615454
 30
0.0
 11
-1416.496020329659
 21
3057.7921878983384
 31
0.0
  0
LINE
  5
1B5
330
17
100
AcDbEntity
  8
visible
100
AcDbLine
 10
-1369.0191967155224
 20
2986.038416767213
 30
0.0
 11
-1463.3481488962404
 21
3040.4847456154534
 31
0.0
  0
LINE
  5
1B6
330
17
100
AcDbEntity
  8
visible
100
AcDbLine
 10
-1498.168498201188
 20
3028.213248510348
 30
0.0
 11
-1464.7537127532382
 21
3040.5568599582994
 31
0.0
  0
LINE
  5
1B7
330
17
100
AcDbEntity
  8
visible
100
AcDbLine
 10
-1464.7537127532382
 20
3040.5568599582994
 30
0.0
 11
-1481.6204790372076
 21
3050.292296242422
 31
0.0
  0
LINE
  5
1B8
330
17
100
AcDbEntity
  8
visible
100
AcDbLine
 10
-1515.0352644851562
 20
3037.94868479447
 30
0.0
 11
-1481.6204790372071
 21
3050.292296242421
 31
0.0
  0
LINE
  5
1B9
330
17
100
AcDbEntity
  8
visible
100
AcDbLine
 10
-1114.143617313318
 20
3051.8066974421745
 30
0.0
 11
-1300.3027414845365
 21
3159.2570682817477
 31
0.0
  0
LINE
  5
1BA
330
17
100
AcDbEntity
  8
visible
100
AcDbLine
 10
-1416.33984656777
 20
3058.441216983946
 30
0.0
 11
-1433.2066128517395
 21
3068.1766532680685
 31
0.0
  0
LINE
  5
1BB
330
17
100
AcDbEntity
  8
visible
100
AcDbLine
 10
-1433.206612851739
 20
3068.1766532680685
 30
0.0
 11
-1350.434519050778
 21
3098.7531346344977
 31
0.0
  0
LINE
  5
1BC
330
17
100
AcDbEntity
  8
visible
100
AcDbLine
 10
-1416.33984656777
 20
3058.441216983946
 30
0.0
 11
-1333.567752766809
 21
3089.017698350375
 31
0.0
  0
LINE
  5
1BD
330
17
100
AcDbEntity
  8
visible
100
AcDbLine
 10
-1333.567752766809
 20
3089.017698350375
 30
0.0
 11
-1350.4345190507784
 21
3098.7531346344977
 31
0.0
  0
LINE
  5
1BE
330
17
100
AcDbEntity
  8
visible
100
AcDbLine
 10
-1498.168498201188
 20
3028.213248510348
 30
0.0
 11
-1464.7537127532382
 21
3040.5568599582994
 31
0.0
  0
LINE
  5
1BF
330
17
100
AcDbEntity
  8
visible
100
AcDbLine
 10
-1515.0352644851562
 20
3037.94868479447
 30
0.0
 11
-1481.6204790372071
 21
3050.292296242421
 31
0.0
  0
LINE
  5
1C0
330
17
100
AcDbEntity
  8
visible
100
AcDbLine
 10
-1204.8805729705973
 20
2935.7963541068584
 30
0.0
 11
-1204.8805729705973
 21
2936.3876917181897
 31
0.0
  0
LINE
  5
1C1
330
17
100
AcDbEntity
  8
visible
100
AcDbLine
 10
-1204.8805729705973
 20
2936.3876917181897
 30
0.0
 11
-1221.7473392545667
 21
2946.123128002312
 31
0.0
  0
LINE
  5
1C2
330
17
100
AcDbEntity
  8
visible
100
AcDbLine
 10
-1221.7473392545671
 20
2929.56567488502
 30
0.0
 11
-1221.7473392545671
 21
2946.123128002311
 31
0.0
  0
LINE
  5
1C3
330
17
100
AcDbEntity
  8
visible
100
AcDbLine
 10
-1122.1084791696362
 20
2966.3728354732875
 30
0.0
 11
-1122.1084791696362
 21
2966.964173084619
 31
0.0
  0
LINE
  5
1C4
330
17
100
AcDbEntity
  8
visible
100
AcDbLine
 10
-1122.1084791696362
 20
2966.964173084619
 30
0.0
 11
-1138.9752454536056
 21
2976.699609368741
 31
0.0
  0
LINE
  5
1C5
330
17
100
AcDbEntity
  8
visible
100
AcDbLine
 10
-1204.8805729705973
 20
2936.3876917181897
 30
0.0
 11
-1122.1084791696362
 21
2966.964173084619
 31
0.0
  0
LINE
  5
1C6
330
17
100
AcDbEntity
  8
visible
100
AcDbLine
 10
-1221.7473392545671
 20
2946.123128002311
 30
0.0
 11
-1138.975245453606
 21
2976.6996093687403
 31
0.0
  0
LINE
  5
1C7
330
17
100
AcDbEntity
  8
visible
100
AcDbLine
 10
-1369.0191967155224
 20
2986.038416767213
 30
0.0
 11
-1463.3481488962404
 21
3040.4847456154534
 31
0.0
  0
LINE
  5
1C8
330
17
100
AcDbEntity
  8
visible
100
AcDbLine
 10
-1223.1529031115647
 20
2929.0464516165334
 30
0.0
 11
-1223.1529031115647
 21
2946.1952423451567
 31
0.0
  0
LINE
  5
1C9
330
17
100
AcDbEntity
  8
visible
100
AcDbLine
 10
-1223.1529031115647
 20
2946.1952423451567
 30
0.0
 11
-1416.496020329659
 21
3057.7921878983375
 31
0.0
  0
LINE
  5
1CA
330
17
100
AcDbEntity
  8
visible
100
AcDbLine
 10
-1242.041265810157
 20
2939.2177739306853
 30
0.0
 11
-1223.1529031115645
 21
2946.195242345157
 31
0.0
  0
LINE
  5
1CB
330
17
100
AcDbEntity
  8
visible
100
AcDbLine
 10
-1138.819071691717
 20
2976.6094664401844
 30
0.0
 11
-1138.819071691717
 21
2977.3486384543485
 31
0.0
  0
LINE
  5
1CC
330
17
100
AcDbEntity
  8
visible
100
AcDbLine
 10
-1138.819071691717
 20
2977.3486384543485
 30
0.0
 11
-1332.1621889098112
 21
3088.9455840075293
 31
0.0
  0
LINE
  5
1CD
330
17
100
AcDbEntity
  8
visible
100
AcDbLine
 10
-1163.4945260701168
 20
2967.642047907364
 30
0.0
 11
-1207.8478744464815
 21
2993.242639617464
 31
0.0
  0
LINE
  5
1CE
330
17
100
AcDbEntity
  8
visible
100
AcDbLine
 10
-1091.966943125135
 20
2977.5072900086097
 30
0.0
 11
-1091.966943125135
 21
2994.6560807372334
 31
0.0
  0
LINE
  5
1CF
330
17
100
AcDbEntity
  8
visible
100
AcDbLine
 10
-1091.966943125135
 20
2994.6560807372334
 30
0.0
 11
-1285.3100603432292
 21
3106.2530262904143
 31
0.0
  0
LINE
  5
1D0
330
17
100
AcDbEntity
  8
visible
100
AcDbLine
 10
-1138.819071691717
 20
2977.3486384543485
 30
0.0
 11
-1091.9669431251352
 21
2994.656080737233
 31
0.0
  0
LINE
  5
1D1
330
17
100
AcDbEntity
  8
visible
100
AcDbLine
 10
2163.006602157193
 20
-4759.217628272269
 30
0.0
 11
2163.006602157193
 21
-2811.94287415639
 31
0.0
  0
LINE
  5
1D2
330
17
100
AcDbEntity
  8
visible
100
AcDbLine
 10
2237.032965292392
 20
-4801.94537640814
 30
0.0
 11
2163.006602157193
 21
-4759.217628272269
 31
0.0
  0
LINE
  5
1D3
330
17
100
AcDbEntity
  8
visible
100
AcDbLine
 10
-4617.433443998528
 20
535.0532460020431
 30
0.0
 11
-4617.433443998528
 21
689.2445281568309
 31
0.0
  0
LINE
  5
1D4
330
17
100
AcDbEntity
  8
visible
100
AcDbLine
 10
2160.8201694907525
 20
-4759.433971300806
 30
0.0
 11
2163.006602157193
 21
-4758.626290660937
 31
0.0
  0
LINE
  5
1D5
330
17
100
AcDbEntity
  8
visible
100
AcDbLine
 10
2160.8201694907525
 20
-2812.7505547962583
 30
0.0
 11
2160.8201694907525
 21
-4759.433971300806
 31
0.0
  0
LINE
  5
1D6
330
17
100
AcDbEntity
  8
visible
100
AcDbLine
 10
2160.8201694907525
 20
-4759.433971300805
 30
0.0
 11
2153.011481396322
 21
-4754.92682487297
 31
0.0
  0
LINE
  5
1D7
330
17
100
AcDbEntity
  8
visible
100
AcDbLine
 10
2153.0114813963223
 20
-2815.6351285100727
 30
0.0
 11
2153.0114813963223
 21
-4754.926824872971
 31
0.0
  0
LINE
  5
1D8
330
17
100
AcDbEntity
  8
visible
100
AcDbLine
 10
-3154.241468864178
 20
-309.49585164557504
 30
0.0
 11
-2991.352235214362
 21
-249.32364397541403
 31
0.0
  0
LINE
  5
1D9
330
17
100
AcDbEntity
  8
visible
100
AcDbLine
 10
-4536.223087816453
 20
642.370205307353
 30
0.0
 11
-4536.223087816453
 21
488.1789231525652
 31
0.0
  0
LINE
  5
1DA
330
17
100
AcDbEntity
  8
visible
100
AcDbLine
 10
-4544.031775910883
 20
646.8773517351874
 30
0.0
 11
-4544.031775910883
 21
492.6860695803996
 31
0.0
  0
ENDSEC
  0
SECTION
  2
OBJECTS
  0
DICTIONARY
  5
A
330
0
100
AcDbDictionary
281
1
  3
ACAD_COLOR
350
B
  3
ACAD_GROUP
350
C
  3
ACAD_LAYOUT
350
D
  3
ACAD_MATERIAL
350
E
  3
ACAD_MLEADERSTYLE
350
F
  3
ACAD_MLINESTYLE
350
10
  3
ACAD_PLOTSETTINGS
350
11
  3
ACAD_PLOTSTYLENAME
350
12
  3
ACAD_SCALELIST
350
14
  3
ACAD_TABLESTYLE
350
15
  3
ACAD_VISUALSTYLE
350
16
  3
EZDXF_META
350
2D
  0
DICTIONARY
  5
B
330
A
100
AcDbDictionary
281
1
  0
DICTIONARY
  5
C
330
A
100
AcDbDictionary
281
1
  0
DICTIONARY
  5
D
330
A
100
AcDbDictionary
281
1
  3
Model
350
1A
  3
Layout1
350
1E
  0
DICTIONARY
  5
E
330
A
100
AcDbDictionary
281
1
  3
ByBlock
350
1F
  3
ByLayer
350
20
  3
Global
350
21
  0
DICTIONARY
  5
F
330
A
100
AcDbDictionary
281
1
  3
Standard
350
2C
  0
DICTIONARY
  5
10
330
A
100
AcDbDictionary
281
1
  3
Standard
350
22
  0
DICTIONARY
  5
11
330
A
100
AcDbDictionary
281
1
  0
ACDBDICTIONARYWDFLT
  5
12
330
A
100
AcDbDictionary
281
1
  3
Normal
350
13
100
AcDbDictionaryWithDefault
340
13
  0
ACDBPLACEHOLDER
  5
13
330
12
  0
DICTIONARY
  5
14
330
A
100
AcDbDictionary
281
1
  0
DICTIONARY
  5
15
330
A
100
AcDbDictionary
281
1
  0
DICTIONARY
  5
16
330
A
100
AcDbDictionary
281
1
  0
LAYOUT
  5
1A
330
D
100
AcDbPlotSettings
  1

  4
A3
  6

 40
7.5
 41
20.0
 42
7.5
 43
20.0
 44
420.0
 45
297.0
 46
0.0
 47
0.0
 48
0.0
 49
0.0
140
0.0
141
0.0
142
1.0
143
1.0
 70
1024
 72
1
 73
0
 74
5
  7

 75
16
 76
0
 77
2
 78
300
147
1.0
148
0.0
149
0.0
100
AcDbLayout
  1
Model
 70
1
 71
0
 10
0.0
 20
0.0
 11
420.0
 21
297.0
 12
0.0
 22
0.0
 32
0.0
 14
1e+20
 24
1e+20
 34
1e+20
 15
-1e+20
 25
-1e+20
 35
-1e+20
146
0.0
 13
0.0
 23
0.0
 33
0.0
 16
1.0
 26
0.0
 36
0.0
 17
0.0
 27
1.0
 37
0.0
 76
1
330
17
  0
LAYOUT
  5
1E
330
D
100
AcDbPlotSettings
  1

  4
A3
  6

 40
7.5
 41
20.0
 42
7.5
 43
20.0
 44
420.0
 45
297.0
 46
0.0
 47
0.0
 48
0.0
 49
0.0
140
0.0
141
0.0
142
1.0
143
1.0
 70
0
 72
1
 73
0
 74
5
  7

 75
16
 76
0
 77
2
 78
300
147
1.0
148
0.0
149
0.0
100
AcDbLayout
  1
Layout1
 70
1
 71
1
 10
0.0
 20
0.0
 11
420.0
 21
297.0
 12
0.0
 22
0.0
 32
0.0
 14
1e+20
 24
1e+20
 34
1e+20
 15
-1e+20
 25
-1e+20
 35
-1e+20
146
0.0
 13
0.0
 23
0.0
 33
0.0
 16
1.0
 26
0.0
 36
0.0
 17
0.0
 27
1.0
 37
0.0
 76
1
330
1B
  0
MATERIAL
  5
1F
102
{ACAD_REACTORS
330
E
102
}
330
E
100
AcDbMaterial
  1
ByBlock
  2

 70
0
 40
1.0
 71
1
 41
1.0
 91
-1023410177
 42
1.0
 72
1
  3

 73
1
 74
1
 75
1
 44
0.5
 73
0
 45
1.0
 46
1.0
 77
1
  4

 78
1
 79
1
170
1
 48
1.0
171
1
  6

172
1
173
1
174
1
140
1.0
141
1.0
175
1
  7

176
1
177
1
178
1
143
1.0
179
1
  8

270
1
271
1
272
1
145
1.0
146
1.0
273
1
  9

274
1
275
1
276
1
 42
1.0
 72
1
  3

 73
1
 74
1
 75
1
 94
63
  0
MATERIAL
  5
20
102
{ACAD_REACTORS
330
E
102
}
330
E
100
AcDbMaterial
  1
ByLayer
  2

 70
0
 40
1.0
 71
1
 41
1.0
 91
-1023410177
 42
1.0
 72
1
  3

 73
1
 74
1
 75
1
 44
0.5
 73
0
 45
1.0
 46
1.0
 77
1
  4

 78
1
 79
1
170
1
 48
1.0
171
1
  6

172
1
173
1
174
1
140
1.0
141
1.0
175
1
  7

176
1
177
1
178
1
143
1.0
179
1
  8

270
1
271
1
272
1
145
1.0
146
1.0
273
1
  9

274
1
275
1
276
1
 42
1.0
 72
1
  3

 73
1
 74
1
 75
1
 94
63
  0
MATERIAL
  5
21
102
{ACAD_REACTORS
330
E
102
}
330
E
100
AcDbMaterial
  1
Global
  2

 70
0
 40
1.0
 71
1
 41
1.0
 91
-1023410177
 42
1.0
 72
1
  3

 73
1
 74
1
 75
1
 44
0.5
 73
0
 45
1.0
 46
1.0
 77
1
  4

 78
1
 79
1
170
1
 48
1.0
171
1
  6

172
1
173
1
174
1
140
1.0
141
1.0
175
1
  7

176
1
177
1
178
1
143
1.0
179
1
  8

270
1
271
1
272
1
145
1.0
146
1.0
273
1
  9

274
1
275
1
276
1
 42
1.0
 72
1
  3

 73
1
 74
1
 75
1
 94
63
  0
MLINESTYLE
  5
22
102
{ACAD_REACTORS
330
10
102
}
330
10
100
AcDbMlineStyle
  2
Standard
 70
0
  3

 62
256
 51
90.0
 52
90.0
 71
2
 49
0.5
 62
256
  6
BYLAYER
 49
-0.5
 62
256
  6
BYLAYER
  0
MLEADERSTYLE
  5
2C
102
{ACAD_REACTORS
330
F
102
}
330
F
100
AcDbMLeaderStyle
179
2
170
2
171
1
172
0
 90
2
 40
0.0
 41
0.0
173
1
 91
-1056964608
 92
-2
290
1
 42
2.0
291
1
 43
8.0
  3
Standard
 44
4.0
300

342
29
174
1
175
1
176
0
178
1
 93
-1056964608
 45
4.0
292
0
297
0
 46
4.0
 94
-1056964608
 47
1.0
 49
1.0
140
1.0
294
1
141
0.0
177
0
142
1.0
295
0
296
0
143
3.75
271
0
272
9
273
9
  0
DICTIONARY
  5
2D
330
A
100
AcDbDictionary
280
1
281
1
  3
CREATED_BY_EZDXF
350
2E
  3
WRITTEN_BY_EZDXF
350
1DE
  0
DICTIONARYVAR
  5
2E
330
2D
100
DictionaryVariables
280
0
  1
1.4.4 @ 2026-09-23T07:23:28.011482+00:00
  0
DICTIONARYVAR
  5
1DE
330
2D
100
DictionaryVariables
280
0
  1
1.4.4 @ 2026-09-23T07:23:28.041517+00:00
  0
ENDSEC
  0
EOF
