  0
SECTION
  2
HEADER
  9
$ACADVER
  1
AC1027
  9
$ACADMAINTVER
 70
105
  9
$DWGCODEPAGE
  3
ANSI_1252
  9
$LASTSAVEDBY
  1
ezdxf
  9
$REQUIREDVERSIONS
160
0
  9
$INSBASE
 10
0.0
 20
0.0
 30
0.0
  9
$EXTMIN
 10
1e+20
 20
1e+20
 30
1e+20
  9
$EXTMAX
 10
-1e+20
 20
-1e+20
 30
-1e+20
  9
$LIMMIN
 10
0.0
 20
0.0
  9
$LIMMAX
 10
420.0
 20
297.0
  9
$ORTHOMODE
 70
0
  9
$REGENMODE
 70
1
  9
$FILLMODE
 70
1
  9
$QTEXTMODE
 70
0
  9
$MIRRTEXT
 70
1
  9
$LTSCALE
 40
1.0
  9
$ATTMODE
 70
1
  9
$TEXTSIZE
 40
2.5
  9
$TRACEWID
 40
1.0
  9
$TEXTSTYLE
  7
Standard
  9
$CLAYER
  8
0
  9
$CELTYPE
  6
ByLayer
  9
$CECOLOR
 62
256
  9
$CELTSCALE
 40
1.0
  9
$DISPSILH
 70
0
  9
$DIMSCALE
 40
1.0
  9
$DIMASZ
 40
2.5
  9
$DIMEXO
 40
0.625
  9
$DIMDLI
 40
3.75
  9
$DIMRND
 40
0.0
  9
$DIMDLE
 40
0.0
  9
$DIMEXE
 40
1.25
  9
$DIMTP
 40
0.0
  9
$DIMTM
 40
0.0
  9
$DIMTXT
 40
2.5
  9
$DIMCEN
 40
2.5
  9
$DIMTSZ
 40
0.0
  9
$DIMTOL
 70
0
  9
$DIMLIM
 70
0
  9
$DIMTIH
 70
0
  9
$DIMTOH
 70
0
  9
$DIMSE1
 70
0
  9
$DIMSE2
 70
0
  9
$DIMTAD
 70
1
  9
$DIMZIN
 70
8
  9
$DIMBLK
  1

  9
$DIMASO
 70
1
  9
$DIMSHO
 70
1
  9
$DIMPOST
  1

  9
$DIMAPOST
  1

  9
$DIMALT
 70
0
  9
$DIMALTD
 70
3
  9
$DIMALTF
 40
0.03937007874
  9
$DIMLFAC
 40
1.0
  9
$DIMTOFL
 70
1
  9
$DIMTVP
 40
0.0
  9
$DIMTIX
 70
0
  9
$DIMSOXD
 70
0
  9
$DIMSAH
 70
0
  9
$DIMBLK1
  1

  9
$DIMBLK2
  1

  9
$DIMSTYLE
  2
ISO-25
  9
$DIMCLRD
 70
0
  9
$DIMCLRE
 70
0
  9
$DIMCLRT
 70
0
  9
$DIMTFAC
 40
1.0
  9
$DIMGAP
 40
0.625
  9
$DIMJUST
 70
0
  9
$DIMSD1
 70
0
  9
$DIMSD2
 70
0
  9
$DIMTOLJ
 70
0
  9
$DIMTZIN
 70
8
  9
$DIMALTZ
 70
0
  9
$DIMALTTZ
 70
0
  9
$DIMUPT
 70
0
  9
$DIMDEC
 70
2
  9
$DIMTDEC
 70
2
  9
$DIMALTU
 70
2
  9
$DIMALTTD
 70
3
  9
$DIMTXSTY
  7
Standard
  9
$DIMAUNIT
 70
0
  9
$DIMADEC
 70
0
  9
$DIMALTRND
 40
0.0
  9
$DIMAZIN
 70
0
  9
$DIMDSEP
 70
44
  9
$DIMATFIT
 70
3
  9
$DIMFRAC
 70
0
  9
$DIMLDRBLK
  1

  9
$DIMLUNIT
 70
2
  9
$DIMLWD
 70
-2
  9
$DIMLWE
 70
-2
  9
$DIMTMOVE
 70
0
  9
$DIMFXL
 40
1.0
  9
$DIMFXLON
 70
0
  9
$DIMJOGANG
 40
0.785398163397
  9
$DIMTFILL
 70
0
  9
$DIMTFILLCLR
 70
0
  9
$DIMARCSYM
 70
0
  9
$DIMLTYPE
  6

  9
$DIMLTEX1
  6

  9
$DIMLTEX2
  6

  9
$DIMTXTDIRECTION
 70
0
  9
$LUNITS
 70
2
  9
$LUPREC
 70
4
  9
$SKETCHINC
 40
1.0
  9
$FILLETRAD
 40
10.0
  9
$AUNITS
 70
0
  9
$AUPREC
 70
2
  9
$MENU
  1
.
  9
$ELEVATION
 40
0.0
  9
$PELEVATION
 40
0.0
  9
$THICKNESS
 40
0.0
  9
$LIMCHECK
 70
0
  9
$CHAMFERA
 40
0.0
  9
$CHAMFERB
 40
0.0
  9
$CHAMFERC
 40
0.0
  9
$CHAMFERD
 40
0.0
  9
$SKPOLY
 70
0
  9
$TDCREATE
 40
2461307.3070949074
  9
$TDUCREATE
 40
2458532.153996898
  9
$TDUPDATE
 40
2461307.3070949074
  9
$TDUUPDATE
 40
2458532.1544311
  9
$TDINDWG
 40
0.0
  9
$TDUSRTIMER
 40
0.0
  9
$USRTIMER
 70
1
  9
$ANGBASE
 50
0.0
  9
$ANGDIR
 70
0
  9
$PDMODE
 70
0
  9
$PDSIZE
 40
0.0
  9
$PLINEWID
 40
0.0
  9
$SPLFRAME
 70
0
  9
$SPLINETYPE
 70
6
  9
$SPLINESEGS
 70
8
  9
$HANDSEED
  5
13D
  9
$SURFTAB1
 70
6
  9
$SURFTAB2
 70
6
  9
$SURFTYPE
 70
6
  9
$SURFU
 70
6
  9
$SURFV
 70
6
  9
$UCSBASE
  2

  9
$UCSNAME
  2

  9
$UCSORG
 10
0.0
 20
0.0
 30
0.0
  9
$UCSXDIR
 10
1.0
 20
0.0
 30
0.0
  9
$UCSYDIR
 10
0.0
 20
1.0
 30
0.0
  9
$UCSORTHOREF
  2

  9
$UCSORTHOVIEW
 70
0
  9
$UCSORGTOP
 10
0.0
 20
0.0
 30
0.0
  9
$UCSORGBOTTOM
 10
0.0
 20
0.0
 30
0.0
  9
$UCSORGLEFT
 10
0.0
 20
0.0
 30
0.0
  9
$UCSORGRIGHT
 10
0.0
 20
0.0
 30
0.0
  9
$UCSORGFRONT
 10
0.0
 20
0.0
 30
0.0
  9
$UCSORGBACK
 10
0.0
 20
0.0
 30
0.0
  9
$PUCSBASE
  2

  9
$PUCSNAME
  2

  9
$PUCSORG
 10
0.0
 20
0.0
 30
0.0
  9
$PUCSXDIR
 10
1.0
 20
0.0
 30
0.0
  9
$PUCSYDIR
 10
0.0
 20
1.0
 30
0.0
  9
$PUCSORTHOREF
  2

  9
$PUCSORTHOVIEW
 70
0
  9
$PUCSORGTOP
 10
0.0
 20
0.0
 30
0.0
  9
$PUCSORGBOTTOM
 10
0.0
 20
0.0
 30
0.0
  9
$PUCSORGLEFT
 10
0.0
 20
0.0
 30
0.0
  9
$PUCSORGRIGHT
 10
0.0
 20
0.0
 30
0.0
  9
$PUCSORGFRONT
 10
0.0
 20
0.0
 30
0.0
  9
$PUCSORGBACK
 10
0.0
 20
0.0
 30
0.0
  9
$USERI1
 70
0
  9
$USERI2
 70
0
  9
$USERI3
 70
0
  9
$USERI4
 70
0
  9
$USERI5
 70
0
  9
$USERR1
 40
0.0
  9
$USERR2
 40
0.0
  9
$USERR3
 40
0.0
  9
$USERR4
 40
0.0
  9
$USERR5
 40
0.0
  9
$WORLDVIEW
 70
1
  9
$SHADEDGE
 70
3
  9
$SHADEDIF
 70
70
  9
$TILEMODE
 70
1
  9
$MAXACTVP
 70
64
  9
$PINSBASE
 10
0.0
 20
0.0
 30
0.0
  9
$PLIMCHECK
 70
0
  9
$PEXTMIN
 10
1e+20
 20
1e+20
 30
1e+20
  9
$PEXTMAX
 10
-1e+20
 20
-1e+20
 30
-1e+20
  9
$PLIMMIN
 10
0.0
 20
0.0
  9
$PLIMMAX
 10
420.0
 20
297.0
  9
$UNITMODE
 70
0
  9
$VISRETAIN
 70
1
  9
$PLINEGEN
 70
0
  9
$PSLTSCALE
 70
1
  9
$TREEDEPTH
 70
3020
  9
$CMLSTYLE
  2
Standard
  9
$CMLJUST
 70
0
  9
$CMLSCALE
 40
20.0
  9
$PROXYGRAPHICS
 70
1
  9
$MEASUREMENT
 70
1
  9
$CELWEIGHT
370
-1
  9
$ENDCAPS
280
0
  9
$JOINSTYLE
280
0
  9
$LWDISPLAY
290
0
  9
$INSUNITS
 70
4
  9
$HYPERLINKBASE
  1

  9
$STYLESHEET
  1

  9
$XEDIT
290
1
  9
$CEPSNTYPE
380
0
  9
$PSTYLEMODE
290
1
  9
$FINGERPRINTGUID
  2
{43A1A961-2D38-45E2-84CD-D31F9EE4E780}
  9
$VERSIONGUID
  2
{08ED2DEE-E975-48B5-A10A-87D41C22474E}
  9
$EXTNAMES
290
1
  9
$PSVPSCALE
 40
0.0
  9
$OLESTARTUP
290
0
  9
$SORTENTS
280
127
  9
$INDEXCTL
280
0
  9
$HIDETEXT
280
1
  9
$XCLIPFRAME
280
1
  9
$HALOGAP
280
0
  9
$OBSCOLOR
 70
257
  9
$OBSLTYPE
280
0
  9
$INTERSECTIONDISPLAY
280
0
  9
$INTERSECTIONCOLOR
 70
257
  9
$DIMASSOC
280
2
  9
$PROJECTNAME
  1

  9
$CAMERADISPLAY
290
0
  9
$LENSLENGTH
 40
50.0
  9
$CAMERAHEIGHT
 40
0.0
  9
$STEPSPERSEC
 40
24.0
  9
$STEPSIZE
 40
100.0
  9
$3DDWFPREC
 40
2.0
  9
$PSOLWIDTH
 40
0.005
  9
$PSOLHEIGHT
 40
0.08
  9
$LOFTANG1
 40
1.570796326795
  9
$LOFTANG2
 40
1.570796326795
  9
$LOFTMAG1
 40
0.0
  9
$LOFTMAG2
 40
0.0
  9
$LOFTPARAM
 70
7
  9
$LOFTNORMALS
280
1
  9
$LATITUDE
 40
37.795
  9
$LONGITUDE
 40
-122.394
  9
$NORTHDIRECTION
 40
0.0
  9
$TIMEZONE
 70
-8000
  9
$LIGHTGLYPHDISPLAY
280
1
  9
$TILEMODELIGHTSYNCH
280
1
  9
$CMATERIAL
347
20
  9
$SOLIDHIST
280
0
  9
$SHOWHIST
280
1
  9
$DWFFRAME
280
2
  9
$DGNFRAME
280
2
  9
$REALWORLDSCALE
290
1
  9
$INTERFERECOLOR
 62
256
  9
$CSHADOW
280
0
  9
$SHADOWPLANELOCATION
 40
0.0
  0
ENDSEC
  0
SECTION
  2
CLASSES
  0
CLASS
  1
ACDBDICTIONARYWDFLT
  2
AcDbDictionaryWithDefault
  3
ObjectDBX Classes
 90
0
 91
0
280
0
281
0
  0
CLASS
  1
SUN
  2
AcDbSun
  3
SCENEOE
 90
1153
 91
0
280
0
281
0
  0
CLASS
  1
VISUALSTYLE
  2
AcDbVisualStyle
  3
ObjectDBX Classes
 90
4095
 91
0
280
0
281
0
  0
CLASS
  1
MATERIAL
  2
AcDbMaterial
  3
ObjectDBX Classes
 90
1153
 91
0
280
0
281
0
  0
CLASS
  1
SCALE
  2
AcDbScale
  3
ObjectDBX Classes
 90
1153
 91
0
280
0
281
0
  0
CLASS
  1
TABLESTYLE
  2
AcDbTableStyle
  3
ObjectDBX Classes
 90
4095
 91
0
280
0
281
0
  0
CLASS
  1
MLEADERSTYLE
  2
AcDbMLeaderStyle
  3
ACDB_MLEADERSTYLE_CLASS
 90
4095
 91
0
280
0
281
0
  0
CLASS
  1
DICTIONARYVAR
  2
AcDbDictionaryVar
  3
ObjectDBX Classes
 90
0
 91
0
280
0
281
0
  0
CLASS
  1
CELLSTYLEMAP
  2
AcDbCellStyleMap
  3
ObjectDBX Classes
 90
1152
 91
0
280
0
281
0
  0
CLASS
  1
MENTALRAYRENDERSETTINGS
  2
AcDbMentalRayRenderSettings
  3
SCENEOE
 90
1024
 91
0
280
0
281
0
  0
CLASS
  1
ACDBDETAILVIEWSTYLE
  2
AcDbDetailViewStyle
  3
ObjectDBX Classes
 90
1025
 91
0
280
0
281
0
  0
CLASS
  1
ACDBSECTIONVIEWSTYLE
  2
AcDbSectionViewStyle
  3
ObjectDBX Classes
 90
1025
 91
0
280
0
281
0
  0
CLASS
  1
RASTERVARIABLES
  2
AcDbRasterVariables
  3
ISM
 90
0
 91
0
280
0
281
0
  0
CLASS
  1
ACDBPLACEHOLDER
  2
AcDbPlaceHolder
  3
ObjectDBX Classes
 90
0
 91
0
280
0
281
0
  0
CLASS
  1
LAYOUT
  2
AcDbLayout
  3
ObjectDBX Classes
 90
0
 91
0
280
0
281
0
  0
ENDSEC
  0
SECTION
  2
TABLES
  0
TABLE
  2
VPORT
  5
8
330
0
100
AcDbSymbolTable
 70
1
  0
VPORT
  5
139
330
8
100
AcDbSymbolTableRecord
100
AcDbViewportTableRecord
  2
*Active
 70
0
 10
0.0
 20
0.0
 11
1.0
 21
1.0
 12
0.0
 22
-351.91799308531427
 13
0.0
 23
0.0
 14
0.5
 24
0.5
 15
0.5
 25
0.5
 16
0.0
 26
0.0
 36
1.0
 17
0.0
 27
0.0
 37
0.0
 40
10651.032432341264
 41
1.34
 42
50.0
 43
0.0
 44
0.0
 50
0.0
 51
0.0
 71
0
 72
1000
 73
1
 74
3
 75
0
 76
0
 77
0
 78
0
281
0
 65
1
110
0.0
120
0.0
130
0.0
111
1.0
121
0.0
131
0.0
112
0.0
122
1.0
132
0.0
 79
0
146
0.0
  0
ENDTAB
  0
TABLE
  2
LTYPE
  5
2
330
0
100
AcDbSymbolTable
 70
3
  0
LTYPE
  5
24
330
2
100
AcDbSymbolTableRecord
100
AcDbLinetypeTableRecord
  2
ByBlock
 70
0
  3

 72
65
 73
0
 40
0.0
  0
LTYPE
  5
25
330
2
100
AcDbSymbolTableRecord
100
AcDbLinetypeTableRecord
  2
ByLayer
 70
0
  3

 72
65
 73
0
 40
0.0
  0
LTYPE
  5
26
330
2
100
AcDbSymbolTableRecord
100
AcDbLinetypeTableRecord
  2
Continuous
 70
0
  3

 72
65
 73
0
 40
0.0
  0
ENDTAB
  0
TABLE
  2
LAYER
  5
1
330
0
100
AcDbSymbolTable
 70
3
  0
LAYER
  5
27
330
1
100
AcDbSymbolTableRecord
100
AcDbLayerTableRecord
  2
0
 70
0
 62
7
  6
Continuous
370
-3
390
13
347
21
  0
LAYER
  5
28
330
1
100
AcDbSymbolTableRecord
100
AcDbLayerTableRecord
  2
Defpoints
 70
0
 62
7
  6
Continuous
290
0
370
-3
390
13
347
21
  0
LAYER
  5
2F
330
1
100
AcDbSymbolTableRecord
100
AcDbLayerTableRecord
  2
visible
 70
0
 62
7
  6
Continuous
370
-3
390
13
347
21
  0
ENDTAB
  0
TABLE
  2
STYLE
  5
5
330
0
100
AcDbSymbolTable
 70
1
  0
STYLE
  5
29
330
5
100
AcDbSymbolTableRecord
100
AcDbTextStyleTableRecord
  2
Standard
 70
0
 40
0.0
 41
1.0
 50
0.0
 71
0
 42
2.5
  3
txt
  4

  0
ENDTAB
  0
TABLE
  2
VIEW
  5
7
330
0
100
AcDbSymbolTable
 70
0
  0
ENDTAB
  0
TABLE
  2
UCS
  5
6
330
0
100
AcDbSymbolTable
 70
0
  0
ENDTAB
  0
TABLE
  2
APPID
  5
3
330
0
100
AcDbSymbolTable
 70
3
  0
APPID
  5
2A
330
3
100
AcDbSymbolTableRecord
100
AcDbRegAppTableRecord
  2
ACAD
 70
0
  0
APPID
  5
13A
330
3
100
AcDbSymbolTableRecord
100
AcDbRegAppTableRecord
  2
HATCHBACKGROUNDCOLOR
 70
0
  0
APPID
  5
13B
330
3
100
AcDbSymbolTableRecord
100
AcDbRegAppTableRecord
  2
EZDXF
 70
0
  0
ENDTAB
  0
TABLE
  2
DIMSTYLE
  5
4
330
0
100
AcDbSymbolTable
 70
1
100
AcDbDimStyleTable
  0
DIMSTYLE
105
2B
330
4
100
AcDbSymbolTableRecord
100
AcDbDimStyleTableRecord
  2
Standard
 70
0
 40
1.0
 41
2.5
 42
0.625
 43
3.75
 44
1.25
 45
0.0
 46
0.0
 47
0.0
 48
0.0
 49
2.5
140
2.5
141
2.5
142
0.0
143
0.03937007874
144
1.0
145
0.0
146
1.0
147
0.625
148
0.0
 69
0
 70
0
 71
0
 72
0
 73
0
 74
0
 75
0
 76
0
 77
1
 78
8
 79
3
170
0
171
3
172
1
173
0
174
0
175
0
176
0
177
0
178
0
179
2
271
2
272
2
273
2
274
3
275
0
276
0
277
2
278
44
279
0
280
0
281
0
282
0
283
0
284
8
285
0
286
0
288
0
289
3
290
0
371
-2
372
-2
  0
ENDTAB
  0
TABLE
  2
BLOCK_RECORD
  5
9
330
0
100
AcDbSymbolTable
 70
2
  0
BLOCK_RECORD
  5
17
330
9
100
AcDbSymbolTableRecord
100
AcDbBlockTableRecord
  2
*Model_Space
340
1A
 70
0
280
1
281
0
  0
BLOCK_RECORD
  5
1B
330
9
100
AcDbSymbolTableRecord
100
AcDbBlockTableRecord
  2
*Paper_Space
340
1E
 70
0
280
1
281
0
  0
ENDTAB
  0
ENDSEC
  0
SECTION
  2
BLOCKS
  0
BLOCK
  5
18
330
17
100
AcDbEntity
  8
0
100
AcDbBlockBegin
  2
*Model_Space
 70
0
 10
0.0
 20
0.0
 30
0.0
  3
*Model_Space
  1

  0
ENDBLK
  5
19
330
17
100
AcDbEntity
  8
0
100
AcDbBlockEnd
  0
BLOCK
  5
1C
330
1B
100
AcDbEntity
  8
0
100
AcDbBlockBegin
  2
*Paper_Space
 70
0
 10
0.0
 20
0.0
 30
0.0
  3
*Paper_Space
  1

  0
ENDBLK
  5
1D
330
1B
100
AcDbEntity
  8
0
100
AcDbBlockEnd
  0
ENDSEC
  0
SECTION
  2
ENTITIES
  0
LINE
  5
30
330
17
100
AcDbEntity
  8
visible
100
AcDbLine
 10
670.9224810734519
 20
-5096.445006122374
 30
0.0
 11
-539.5803473251337
 21
-4397.747166879478
 31
0.0
  0
LINE
  5
31
330
17
100
AcDbEntity
  8
visible
100
AcDbLine
 10
-1015.7541473234937
 20
-4122.901377710134
 30
0.0
 11
-3475.647070830928
 21
-2703.060110013726
 31
0.0
  0
LINE
  5
32
330
17
100
AcDbEntity
  8
visible
100
AcDbLine
 10
-3951.8208708292877
 20
-2428.2143208443813
 30
0.0
 11
-5162.3236992278735
 21
-1729.5164816014853
 31
0.0
  0
LINE
  5
33
330
17
100
AcDbEntity
  8
visible
100
AcDbLine
 10
1544.5585050783143
 20
-5310.3577813045395
 30
0.0
 11
2158.94608434809
 21
-5083.39952150165
 31
0.0
  0
LINE
  5
34
330
17
100
AcDbEntity
  8
visible
100
AcDbLine
 10
1014.5047572283852
 20
-5639.21360754791
 30
0.0
 11
1014.5047572283852
 21
-2794.3540464823195
 31
0.0
  0
LINE
  5
35
330
17
100
AcDbEntity
  8
visible
100
AcDbLine
 10
1014.5047572283852
 20
-5639.21360754791
 30
0.0
 11
-5918.360880530616
 21
-1637.5887230593748
 31
0.0
  0
LINE
  5
36
330
17
100
AcDbEntity
  8
visible
100
AcDbLine
 10
-5918.360880530615
 20
-1637.5887230593748
 30
0.0
 11
-5918.360880530615
 21
1207.2708380062163
 31
0.0
  0
LINE
  5
37
330
17
100
AcDbEntity
  8
visible
100
AcDbLine
 10
-5512.309099620239
 20
-1739.796381174091
 30
0.0
 11
-3951.8208708292873
 21
-2640.504523312527
 31
0.0
  0
LINE
  5
38
330
17
100
AcDbEntity
  8
visible
100
AcDbLine
 10
-5512.309099620239
 20
-1739.7963811740908
 30
0.0
 11
-5512.309099620239
 21
880.4205746374673
 31
0.0
  0
LINE
  5
39
330
17
100
AcDbEntity
  8
visible
100
AcDbLine
 10
-3951.8208708292877
 20
-2640.5045233125265
 30
0.0
 11
-3951.8208708292877
 21
-20.28756750096818
 31
0.0
  0
LINE
  5
3A
330
17
100
AcDbEntity
  8
visible
100
AcDbLine
 10
-5512.309099620239
 20
880.4205746374673
 30
0.0
 11
-5216.828342126997
 21
709.8701538082119
 31
0.0
  0
LINE
  5
3B
330
17
100
AcDbEntity
  8
visible
100
AcDbLine
 10
-5105.517731783444
 20
645.622073500348
 30
0.0
 11
-4670.220175516875
 21
394.3699038598006
 31
0.0
  0
LINE
  5
3C
330
17
100
AcDbEntity
  8
visible
100
AcDbLine
 10
-4558.909565173322
 20
330.12182355193704
 30
0.0
 11
-4123.612008906754
 21
78.86965391138938
 31
0.0
  0
LINE
  5
3D
330
17
100
AcDbEntity
  8
visible
100
AcDbLine
 10
-4012.3013985632006
 20
14.621573603525349
 30
0.0
 11
-3951.8208708292873
 21
-20.287567500968635
 31
0.0
  0
LINE
  5
3E
330
17
100
AcDbEntity
  8
visible
100
AcDbLine
 10
-3825.632471223294
 20
-2713.3400095863317
 30
0.0
 11
-1015.7541473234937
 21
-4335.191580178279
 31
0.0
  0
LINE
  5
3F
330
17
100
AcDbEntity
  8
visible
100
AcDbLine
 10
-3825.6324712232936
 20
-2713.3400095863312
 30
0.0
 11
-3825.6324712232936
 21
-93.12305377477287
 31
0.0
  0
LINE
  5
40
330
17
100
AcDbEntity
  8
visible
100
AcDbLine
 10
-1015.7541473234937
 20
-4335.191580178279
 30
0.0
 11
-1015.7541473234937
 21
-1714.974624366721
 31
0.0
  0
LINE
  5
41
330
17
100
AcDbEntity
  8
visible
100
AcDbLine
 10
-3825.632471223294
 20
-93.12305377477333
 30
0.0
 11
-3577.0038422966327
 21
-236.63059603702231
 31
0.0
  0
LINE
  5
42
330
17
100
AcDbEntity
  8
visible
100
AcDbLine
 10
-3465.6932319530792
 20
-300.8786763448861
 30
0.0
 11
-3030.3956756865123
 21
-552.1308459854333
 31
0.0
  0
LINE
  5
43
330
17
100
AcDbEntity
  8
visible
100
AcDbLine
 10
-2919.0850653429584
 20
-616.3789262932974
 30
0.0
 11
-2483.787509076391
 21
-867.6310959338446
 31
0.0
  0
LINE
  5
44
330
17
100
AcDbEntity
  8
visible
100
AcDbLine
 10
-2372.476898732837
 20
-931.8791762417086
 30
0.0
 11
-1937.1793424662696
 21
-1183.131345882256
 31
0.0
  0
LINE
  5
45
330
17
100
AcDbEntity
  8
visible
100
AcDbLine
 10
-1825.8687321227162
 20
-1247.3794261901198
 30
0.0
 11
-1390.5711758561483
 21
-1498.6315958306673
 31
0.0
  0
LINE
  5
46
330
17
100
AcDbEntity
  8
visible
100
AcDbLine
 10
-1279.260565512595
 20
-1562.879676138531
 30
0.0
 11
-1015.7541473234937
 21
-1714.9746243667207
 31
0.0
  0
LINE
  5
47
330
17
100
AcDbEntity
  8
visible
100
AcDbLine
 10
-5638.497499226233
 20
979.1466689648436
 30
0.0
 11
-5638.497499226233
 21
1045.7347100326303
 31
0.0
  0
LINE
  5
48
330
17
100
AcDbEntity
  8
visible
100
AcDbLine
 10
-5091.889332616112
 20
663.6464190164328
 30
0.0
 11
-5091.889332616112
 21
730.2344600842185
 31
0.0
  0
LINE
  5
49
330
17
100
AcDbEntity
  8
visible
100
AcDbLine
 10
-4545.281166005991
 20
348.1461690680211
 30
0.0
 11
-4545.281166005991
 21
414.7342101358074
 31
0.0
  0
LINE
  5
4A
330
17
100
AcDbEntity
  8
visible
100
AcDbLine
 10
-3998.6729993958697
 20
32.64591911961031
 30
0.0
 11
-3998.6729993958697
 21
99.23396018739629
 31
0.0
  0
LINE
  5
4B
330
17
100
AcDbEntity
  8
visible
100
AcDbLine
 10
-3452.064832785748
 20
-282.8543308288014
 30
0.0
 11
-3452.064832785748
 21
-216.26628976101506
 31
0.0
  0
LINE
  5
4C
330
17
100
AcDbEntity
  8
visible
100
AcDbLine
 10
-2905.456666175627
 20
-598.3545807772122
 30
0.0
 11
-2905.456666175627
 21
-531.7665397094266
 31
0.0
  0
LINE
  5
4D
330
17
100
AcDbEntity
  8
visible
100
AcDbLine
 10
-889.5657477174999
 20
-4408.027066452084
 30
0.0
 11
670.9224810734519
 21
-5308.7352085905195
 31
0.0
  0
LINE
  5
4E
330
17
100
AcDbEntity
  8
visible
100
AcDbLine
 10
-889.5657477175
 20
-4408.027066452083
 30
0.0
 11
-889.5657477175
 21
-1787.8101106405252
 31
0.0
  0
LINE
  5
4F
330
17
100
AcDbEntity
  8
visible
100
AcDbLine
 10
670.9224810734519
 20
-5308.735208590519
 30
0.0
 11
670.9224810734519
 21
-2688.5182527789607
 31
0.0
  0
LINE
  5
50
330
17
100
AcDbEntity
  8
visible
100
AcDbLine
 10
-889.5657477174999
 20
-1787.8101106405254
 30
0.0
 11
-843.9630092460269
 21
-1814.1318457790785
 31
0.0
  0
LINE
  5
51
330
17
100
AcDbEntity
  8
visible
100
AcDbLine
 10
-732.6523989024735
 20
-1878.3799260869425
 30
0.0
 11
-297.3548426359056
 21
-2129.63209572749
 31
0.0
  0
LINE
  5
52
330
17
100
AcDbEntity
  8
visible
100
AcDbLine
 10
-186.04423229235238
 20
-2193.8801760353535
 30
0.0
 11
249.25332397421562
 21
-2445.132345675901
 31
0.0
  0
LINE
  5
53
330
17
100
AcDbEntity
  8
visible
100
AcDbLine
 10
360.5639343177689
 20
-2509.3804259837652
 30
0.0
 11
670.9224810734519
 21
-2688.518252778961
 31
0.0
  0
LINE
  5
54
330
17
100
AcDbEntity
  8
visible
100
AcDbLine
 10
-2358.8484995655062
 20
-913.8548307256239
 30
0.0
 11
-2358.8484995655062
 21
-847.2667896578375
 31
0.0
  0
LINE
  5
55
330
17
100
AcDbEntity
  8
visible
100
AcDbLine
 10
-1812.2403329553845
 20
-1229.3550806740345
 30
0.0
 11
-1812.2403329553845
 21
-1162.767039606249
 31
0.0
  0
LINE
  5
56
330
17
100
AcDbEntity
  8
visible
100
AcDbLine
 10
-1265.6321663452636
 20
-1544.8553306224462
 30
0.0
 11
-1265.6321663452636
 21
-1478.2672895546605
 31
0.0
  0
LINE
  5
57
330
17
100
AcDbEntity
  8
visible
100
AcDbLine
 10
-719.0239997351418
 20
-1860.3555805708575
 30
0.0
 11
-719.0239997351418
 21
-1793.767539503072
 31
0.0
  0
LINE
  5
58
330
17
100
AcDbEntity
  8
visible
100
AcDbLine
 10
-172.41583312502098
 20
-2175.8558305192687
 30
0.0
 11
-172.41583312502098
 21
-2109.2677894514827
 31
0.0
  0
LINE
  5
59
330
17
100
AcDbEntity
  8
visible
100
AcDbLine
 10
374.19233348510033
 20
-2491.35608046768
 30
0.0
 11
374.19233348510033
 21
-2424.7680393998944
 31
0.0
  0
LINE
  5
5A
330
17
100
AcDbEntity
  8
visible
100
AcDbLine
 10
920.8005000952217
 20
-2806.856330416091
 30
0.0
 11
920.8005000952217
 21
-2740.268289348305
 31
0.0
  0
LINE
  5
5B
330
17
100
AcDbEntity
  8
visible
100
AcDbLine
 10
1014.5047572283852
 20
-5639.21360754791
 30
0.0
 11
1169.8976503075482
 21
-5581.810590643011
 31
0.0
  0
LINE
  5
5C
330
17
100
AcDbEntity
  8
visible
100
AcDbLine
 10
1169.8976503075482
 20
-5581.81059064301
 30
0.0
 11
1169.8976503075482
 21
-2884.046260396224
 31
0.0
  0
LINE
  5
5D
330
17
100
AcDbEntity
  8
visible
100
AcDbLine
 10
-5512.309099620239
 20
-1739.796381174091
 30
0.0
 11
-5356.916206541076
 21
-1682.3933642691914
 31
0.0
  0
LINE
  5
5E
330
17
100
AcDbEntity
  8
visible
100
AcDbLine
 10
-5356.9162065410765
 20
-1682.3933642691914
 30
0.0
 11
-3951.8208708292877
 21
-2493.4092924937218
 31
0.0
  0
LINE
  5
5F
330
17
100
AcDbEntity
  8
visible
100
AcDbLine
 10
-5356.9162065410765
 20
-1682.3933642691911
 30
0.0
 11
-5356.9162065410765
 21
790.7283607235618
 31
0.0
  0
LINE
  5
60
330
17
100
AcDbEntity
  8
visible
100
AcDbLine
 10
-3825.6324712232936
 20
-2713.3400095863312
 30
0.0
 11
-3670.2395781441305
 21
-2655.9369926814315
 31
0.0
  0
LINE
  5
61
330
17
100
AcDbEntity
  8
visible
100
AcDbLine
 10
-3670.239578144131
 20
-2655.9369926814315
 30
0.0
 11
-1015.7541473234937
 21
-4188.096349359474
 31
0.0
  0
LINE
  5
62
330
17
100
AcDbEntity
  8
visible
100
AcDbLine
 10
-3670.239578144131
 20
-2655.9369926814315
 30
0.0
 11
-3670.239578144131
 21
-182.8152676886789
 31
0.0
  0
LINE
  5
63
330
17
100
AcDbEntity
  8
visible
100
AcDbLine
 10
-889.5657477174998
 20
-4408.027066452083
 30
0.0
 11
-734.1728546383368
 21
-4350.624049547184
 31
0.0
  0
LINE
  5
64
330
17
100
AcDbEntity
  8
visible
100
AcDbLine
 10
-734.1728546383368
 20
-4350.624049547184
 30
0.0
 11
670.9224810734519
 21
-5161.639977771714
 31
0.0
  0
LINE
  5
65
330
17
100
AcDbEntity
  8
visible
100
AcDbLine
 10
-734.172854638337
 20
-4350.624049547184
 30
0.0
 11
-734.172854638337
 21
-1880.39081666834
 31
0.0
  0
LINE
  5
66
330
17
100
AcDbEntity
  8
visible
100
AcDbLine
 10
1170.6785191169913
 20
-5581.522133271629
 30
0.0
 11
1170.6785191169913
 21
-2884.4969750390082
 31
0.0
  0
LINE
  5
67
330
17
100
AcDbEntity
  8
visible
100
AcDbLine
 10
1170.6785191169913
 20
-5581.522133271629
 30
0.0
 11
1169.8976503075482
 21
-5581.071418628846
 31
0.0
  0
LINE
  5
68
330
17
100
AcDbEntity
  8
visible
100
AcDbLine
 10
1170.6785191169913
 20
-5581.522133271629
 30
0.0
 11
1181.2983349254164
 21
-5577.599113020842
 31
0.0
  0
LINE
  5
69
330
17
100
AcDbEntity
  8
visible
100
AcDbLine
 10
-5356.760032779189
 20
-1682.4835071977475
 30
0.0
 11
-5356.760032779189
 21
790.6382177950059
 31
0.0
  0
LINE
  5
6A
330
17
100
AcDbEntity
  8
visible
100
AcDbLine
 10
-5162.3236992278735
 20
-1742.0824058422886
 30
0.0
 11
-5162.3236992278735
 21
-1707.193486773707
 31
0.0
  0
LINE
  5
6B
330
17
100
AcDbEntity
  8
visible
100
AcDbLine
 10
-5162.3236992278735
 20
524.2189895871397
 30
0.0
 11
-5162.3236992278735
 21
585.624178073932
 31
0.0
  0
LINE
  5
6C
330
17
100
AcDbEntity
  8
visible
100
AcDbLine
 10
-5217.921558460217
 20
-1762.6205706846445
 30
0.0
 11
-5162.323699227874
 21
-1742.0824058422886
 31
0.0
  0
LINE
  5
6D
330
17
100
AcDbEntity
  8
visible
100
AcDbLine
 10
-734.0166808764484
 20
-4350.714192475741
 30
0.0
 11
-734.0166808764484
 21
-1880.1842678425924
 31
0.0
  0
LINE
  5
6E
330
17
100
AcDbEntity
  8
visible
100
AcDbLine
 10
-539.5803473251337
 20
-4410.313091120281
 30
0.0
 11
-539.5803473251337
 21
-4375.4241720517
 31
0.0
  0
LINE
  5
6F
330
17
100
AcDbEntity
  8
visible
100
AcDbLine
 10
-539.5803473251337
 20
-2144.011695690853
 30
0.0
 11
-539.5803473251337
 21
-1989.8204135360647
 31
0.0
  0
LINE
  5
70
330
17
100
AcDbEntity
  8
visible
100
AcDbLine
 10
-595.1782065574778
 20
-4430.851255962637
 30
0.0
 11
-539.5803473251339
 21
-4410.313091120281
 31
0.0
  0
LINE
  5
71
330
17
100
AcDbEntity
  8
visible
100
AcDbLine
 10
-3670.0834043822433
 20
-2656.0271356099875
 30
0.0
 11
-3670.0834043822433
 21
-182.90541061723525
 31
0.0
  0
LINE
  5
72
330
17
100
AcDbEntity
  8
visible
100
AcDbLine
 10
-3475.647070830928
 20
-2715.6260342545293
 30
0.0
 11
-3475.647070830928
 21
-2680.737115185948
 31
0.0
  0
LINE
  5
73
330
17
100
AcDbEntity
  8
visible
100
AcDbLine
 10
-3475.647070830928
 20
-449.3246388251009
 30
0.0
 11
-3475.647070830928
 21
-314.043203516635
 31
0.0
  0
LINE
  5
74
330
17
100
AcDbEntity
  8
visible
100
AcDbLine
 10
-3531.2449300632716
 20
-2736.1641990968847
 30
0.0
 11
-3475.647070830929
 21
-2715.6260342545293
 31
0.0
  0
LINE
  5
75
330
17
100
AcDbEntity
  8
visible
100
AcDbLine
 10
-5160.9181353708755
 20
523.4077032301288
 30
0.0
 11
-5160.9181353708755
 21
584.8128917169211
 31
0.0
  0
LINE
  5
76
330
17
100
AcDbEntity
  8
visible
100
AcDbLine
 10
-3474.24150697393
 20
-450.13592518211135
 30
0.0
 11
-3474.24150697393
 21
-312.1842640849095
 31
0.0
  0
LINE
  5
77
330
17
100
AcDbEntity
  8
visible
100
AcDbLine
 10
-538.1747834681364
 20
-2144.822982047863
 30
0.0
 11
-538.1747834681364
 21
-1990.6316998930756
 31
0.0
  0
LINE
  5
78
330
17
100
AcDbEntity
  8
visible
100
AcDbLine
 10
-5149.20510322923
 20
516.6469835883781
 30
0.0
 11
-5149.20510322923
 21
587.8429999671998
 31
0.0
  0
LINE
  5
79
330
17
100
AcDbEntity
  8
visible
100
AcDbLine
 10
-3462.5284748322847
 20
-456.89664482386297
 30
0.0
 11
-3462.5284748322847
 21
-302.7053626690754
 31
0.0
  0
LINE
  5
7A
330
17
100
AcDbEntity
  8
visible
100
AcDbLine
 10
-526.4617513264909
 20
-2151.5837016896144
 30
0.0
 11
-526.4617513264909
 21
-1997.3924195348272
 31
0.0
  0
LINE
  5
7B
330
17
100
AcDbEntity
  8
visible
100
AcDbLine
 10
5566.969916281252
 20
-996.088374844268
 30
0.0
 11
5566.969916281252
 21
-986.0356354516261
 31
0.0
  0
LINE
  5
7C
330
17
100
AcDbEntity
  8
visible
100
AcDbLine
 10
5566.969916281252
 20
-986.0356354516261
 30
0.0
 11
5554.476015330163
 21
-978.8242011670907
 31
0.0
  0
LINE
  5
7D
330
17
100
AcDbEntity
  8
visible
100
AcDbLine
 10
5556.398797726683
 20
-989.9406666603737
 30
0.0
 11
5566.969916281252
 21
-986.0356354516267
 31
0.0
  0
LINE
  5
7E
330
17
100
AcDbEntity
  8
visible
100
AcDbLine
 10
5567.750785090695
 20
-995.7999174728868
 30
0.0
 11
5567.750785090695
 21
-985.7471780802449
 31
0.0
  0
LINE
  5
7F
330
17
100
AcDbEntity
  8
visible
100
AcDbLine
 10
5567.750785090695
 20
-985.7471780802452
 30
0.0
 11
5554.476015330163
 21
-978.0850291529265
 31
0.0
  0
LINE
  5
80
330
17
100
AcDbEntity
  8
visible
100
AcDbLine
 10
5762.187118642009
 20
-923.9740319989171
 30
0.0
 11
5762.187118642009
 21
-913.9212926062752
 31
0.0
  0
LINE
  5
81
330
17
100
AcDbEntity
  8
visible
100
AcDbLine
 10
5762.187118642009
 20
-913.9212926062755
 30
0.0
 11
5676.2915496032765
 21
-864.3426819000969
 31
0.0
  0
LINE
  5
82
330
17
100
AcDbEntity
  8
visible
100
AcDbLine
 10
5567.750785090695
 20
-985.7471780802452
 30
0.0
 11
5762.187118642009
 21
-913.9212926062755
 31
0.0
  0
LINE
  5
83
330
17
100
AcDbEntity
  8
visible
100
AcDbLine
 10
5762.967987451452
 20
-913.6328352348937
 30
0.0
 11
5676.2915496032765
 21
-863.6035098859318
 31
0.0
  0
LINE
  5
84
330
17
100
AcDbEntity
  8
visible
100
AcDbLine
 10
5762.967987451452
 20
-923.685574627536
 30
0.0
 11
5762.967987451452
 21
-913.6328352348937
 31
0.0
  0
LINE
  5
85
330
17
100
AcDbEntity
  8
visible
100
AcDbLine
 10
5814.470162248727
 20
-805.9069977752192
 30
0.0
 11
5676.291549603276
 21
-856.9509617584472
 31
0.0
  0
LINE
  5
86
330
17
100
AcDbEntity
  8
visible
100
AcDbLine
 10
5762.967987451452
 20
-913.6328352348937
 30
0.0
 11
5910.035625799889
 21
-859.3052146919244
 31
0.0
  0
LINE
  5
87
330
17
100
AcDbEntity
  8
visible
100
AcDbLine
 10
5918.360880530616
 20
-1004.0642211629647
 30
0.0
 11
5918.360880530616
 21
-864.1650524855295
 31
0.0
  0
LINE
  5
88
330
17
100
AcDbEntity
  8
visible
100
AcDbLine
 10
5566.969916281252
 20
-985.1486290346284
 30
0.0
 11
5566.969916281252
 21
-897.3349937518442
 31
0.0
  0
LINE
  5
89
330
17
100
AcDbEntity
  8
visible
100
AcDbLine
 10
5566.969916281252
 20
-897.3349937518442
 30
0.0
 11
5554.476015330163
 21
-890.1235594673087
 31
0.0
  0
LINE
  5
8A
330
17
100
AcDbEntity
  8
visible
100
AcDbLine
 10
5566.969916281252
 20
-985.1486290346284
 30
0.0
 11
5554.476015330163
 21
-977.9371947500929
 31
0.0
  0
LINE
  5
8B
330
17
100
AcDbEntity
  8
visible
100
AcDbLine
 10
5676.2915496032765
 20
-944.7645970412323
 30
0.0
 11
5676.2915496032765
 21
-856.9509617584481
 31
0.0
  0
LINE
  5
8C
330
17
100
AcDbEntity
  8
visible
100
AcDbLine
 10
5676.2915496032765
 20
-856.9509617584481
 30
0.0
 11
5582.5872924701125
 21
-802.8652046244347
 31
0.0
  0
LINE
  5
8D
330
17
100
AcDbEntity
  8
visible
100
AcDbLine
 10
5566.969916281252
 20
-985.1486290346284
 30
0.0
 11
5676.2915496032765
 21
-944.7645970412317
 31
0.0
  0
LINE
  5
8E
330
17
100
AcDbEntity
  8
visible
100
AcDbLine
 10
5566.969916281252
 20
-897.3349937518442
 30
0.0
 11
5676.2915496032765
 21
-856.9509617584475
 31
0.0
  0
LINE
  5
8F
330
17
100
AcDbEntity
  8
visible
100
AcDbLine
 10
1336.8474017664682
 20
-5677.434209255946
 30
0.0
 11
1181.2983349254166
 21
-5587.651852413484
 31
0.0
  0
LINE
  5
90
330
17
100
AcDbEntity
  8
visible
100
AcDbLine
 10
1336.8474017664682
 20
-5677.434209255946
 30
0.0
 11
5928.356001291486
 21
-3981.304865533287
 31
0.0
  0
LINE
  5
91
330
17
100
AcDbEntity
  8
visible
100
AcDbLine
 10
1336.8474017664682
 20
-2980.409051023325
 30
0.0
 11
1336.8474017664682
 21
-5677.434209255946
 31
0.0
  0
LINE
  5
92
330
17
100
AcDbEntity
  8
visible
100
AcDbLine
 10
1181.2983349254166
 20
-2890.6266941808626
 30
0.0
 11
1181.2983349254166
 21
-5587.651852413484
 31
0.0
  0
LINE
  5
93
330
17
100
AcDbEntity
  8
visible
100
AcDbLine
 10
5928.356001291486
 20
-1009.8333685905927
 30
0.0
 11
5772.806934450434
 21
-920.0510117481306
 31
0.0
  0
LINE
  5
94
330
17
100
AcDbEntity
  8
visible
100
AcDbLine
 10
5928.356001291486
 20
-3981.304865533287
 30
0.0
 11
5928.356001291486
 21
-1009.8333685905923
 31
0.0
  0
LINE
  5
95
330
17
100
AcDbEntity
  8
visible
100
AcDbLine
 10
5928.356001291486
 20
-1009.8333685905927
 30
0.0
 11
5721.425766789082
 21
-1086.274572006665
 31
0.0
  0
LINE
  5
96
330
17
100
AcDbEntity
  8
visible
100
AcDbLine
 10
5721.425766789083
 20
-1086.274572006665
 30
0.0
 11
3704.231768076186
 21
91.25523927913446
 31
0.0
  0
LINE
  5
97
330
17
100
AcDbEntity
  8
visible
100
AcDbLine
 10
2323.865576902458
 20
-5180.660135697175
 30
0.0
 11
1544.558505078314
 21
-5468.540592335817
 31
0.0
  0
LINE
  5
98
330
17
100
AcDbEntity
  8
visible
100
AcDbLine
 10
2323.8655769024585
 20
-5180.660135697175
 30
0.0
 11
2323.8655769024585
 21
-3003.9463883845274
 31
0.0
  0
LINE
  5
99
330
17
100
AcDbEntity
  8
visible
100
AcDbLine
 10
2323.865576902458
 20
-3003.946388384527
 30
0.0
 11
1544.558505078314
 21
-3291.826845023169
 31
0.0
  0
LINE
  5
9A
330
17
100
AcDbEntity
  8
visible
100
AcDbLine
 10
1544.5585050783143
 20
-5468.540592335818
 30
0.0
 11
1544.5585050783143
 21
-3291.82684502317
 31
0.0
  0
LINE
  5
9B
330
17
100
AcDbEntity
  8
visible
100
AcDbLine
 10
5772.806934450435
 20
-920.0510117481299
 30
0.0
 11
5566.945634095332
 21
-996.0973448216024
 31
0.0
  0
LINE
  5
9C
330
17
100
AcDbEntity
  8
visible
100
AcDbLine
 10
2168.316510061407
 20
-5090.877778854713
 30
0.0
 11
1544.5585050783145
 21
-5321.2975271141795
 31
0.0
  0
LINE
  5
9D
330
17
100
AcDbEntity
  8
visible
100
AcDbLine
 10
2168.316510061407
 20
-5090.877778854714
 30
0.0
 11
2168.316510061407
 21
-3061.407096763703
 31
0.0
  0
LINE
  5
9E
330
17
100
AcDbEntity
  8
visible
100
AcDbLine
 10
2323.8655769024585
 20
-5180.660135697176
 30
0.0
 11
2168.316510061407
 21
-5090.877778854714
 31
0.0
  0
LINE
  5
9F
330
17
100
AcDbEntity
  8
visible
100
AcDbLine
 10
-5918.360880530615
 20
-1489.7543202264053
 30
0.0
 11
-5928.356001291487
 21
-1483.9851727987768
 31
0.0
  0
LINE
  5
A0
330
17
100
AcDbEntity
  8
visible
100
AcDbLine
 10
-5928.356001291487
 20
1213.0399854338445
 30
0.0
 11
-5928.356001291487
 21
-1483.9851727987766
 31
0.0
  0
LINE
  5
A1
330
17
100
AcDbEntity
  8
visible
100
AcDbLine
 10
-4707.7018783701415
 20
261.8129245586184
 30
0.0
 11
-4707.7018783701415
 21
416.00420671340635
 31
0.0
  0
LINE
  5
A2
330
17
100
AcDbEntity
  8
visible
100
AcDbLine
 10
-4863.250945211193
 20
351.59528140108034
 30
0.0
 11
-4863.250945211193
 21
505.78656355586827
 31
0.0
  0
LINE
  5
A3
330
17
100
AcDbEntity
  8
visible
100
AcDbLine
 10
2167.691815013852
 20
-5089.630200723489
 30
0.0
 11
2168.316510061407
 21
-5089.399434826384
 31
0.0
  0
LINE
  5
A4
330
17
100
AcDbEntity
  8
visible
100
AcDbLine
 10
2167.6918150138526
 20
-5089.630200723489
 30
0.0
 11
2167.6918150138526
 21
-3061.6378626608084
 31
0.0
  0
LINE
  5
A5
330
17
100
AcDbEntity
  8
visible
100
AcDbLine
 10
2158.94608434809
 20
-5084.582196724314
 30
0.0
 11
2158.94608434809
 21
-3064.8685852202793
 31
0.0
  0
LINE
  5
A6
330
17
100
AcDbEntity
  8
visible
100
AcDbLine
 10
2158.94608434809
 20
-5084.582196724314
 30
0.0
 11
2167.691815013852
 21
-5089.630200723489
 31
0.0
  0
LINE
  5
A7
330
17
100
AcDbEntity
  8
visible
100
AcDbLine
 10
-4698.331452656826
 20
256.4043488452174
 30
0.0
 11
-4698.331452656826
 21
410.595631000005
 31
0.0
  0
LINE
  5
A8
330
17
100
AcDbEntity
  8
visible
100
AcDbLine
 10
-4707.077183322587
 20
261.4523528443918
 30
0.0
 11
-4707.077183322587
 21
415.6436349991794
 31
0.0
  0
LINE
  5
A9
330
17
100
AcDbEntity
  8
visible
100
AcDbLine
 10
670.9224810734519
 20
-2857.492975217046
 30
0.0
 11
-643.5920727429453
 21
-2098.759945555395
 31
0.0
  0
LINE
  5
AA
330
17
100
AcDbEntity
  8
visible
100
AcDbLine
 10
-643.5920727429454
 20
-4315.388981632946
 30
0.0
 11
-643.5920727429454
 21
-2098.7599455553955
 31
0.0
  0
LINE
  5
AB
330
17
100
AcDbEntity
  8
visible
100
AcDbLine
 10
670.9224810734519
 20
-5074.122011294596
 30
0.0
 11
-643.5920727429453
 21
-4315.388981632946
 31
0.0
  0
LINE
  5
AC
330
17
100
AcDbEntity
  8
visible
100
AcDbLine
 10
670.9224810734519
 20
-2842.709534933749
 30
0.0
 11
-627.9746965540847
 21
-2092.990798127767
 31
0.0
  0
LINE
  5
AD
330
17
100
AcDbEntity
  8
visible
100
AcDbLine
 10
-643.5920727429454
 20
-2098.7599455553955
 30
0.0
 11
-627.9746965540849
 21
-2092.9907981277674
 31
0.0
  0
LINE
  5
AE
330
17
100
AcDbEntity
  8
visible
100
AcDbLine
 10
-1015.7541473234937
 20
-1883.9493468048051
 30
0.0
 11
-3579.6587962487392
 21
-404.0728886896429
 31
0.0
  0
LINE
  5
AF
330
17
100
AcDbEntity
  8
visible
100
AcDbLine
 10
-3579.6587962487392
 20
-2620.701924767193
 30
0.0
 11
-3579.6587962487392
 21
-404.0728886896427
 31
0.0
  0
LINE
  5
B0
330
17
100
AcDbEntity
  8
visible
100
AcDbLine
 10
-1015.7541473234937
 20
-4100.578382882355
 30
0.0
 11
-3579.6587962487392
 21
-2620.7019247671933
 31
0.0
  0
LINE
  5
B1
330
17
100
AcDbEntity
  8
visible
100
AcDbLine
 10
-1015.7541473234937
 20
-1869.1659065215083
 30
0.0
 11
-3564.041420059879
 21
-398.3037412620149
 31
0.0
  0
LINE
  5
B2
330
17
100
AcDbEntity
  8
visible
100
AcDbLine
 10
-3579.6587962487392
 20
-404.07288868964315
 30
0.0
 11
-3564.0414200598784
 21
-398.3037412620151
 31
0.0
  0
LINE
  5
B3
330
17
100
AcDbEntity
  8
visible
100
AcDbLine
 10
-3951.8208708292877
 20
-189.26228993905303
 30
0.0
 11
-5266.335424645686
 21
569.4707397225978
 31
0.0
  0
LINE
  5
B4
330
17
100
AcDbEntity
  8
visible
100
AcDbLine
 10
-5266.335424645685
 20
-1647.1582963549527
 30
0.0
 11
-5266.335424645685
 21
569.4707397225975
 31
0.0
  0
LINE
  5
B5
330
17
100
AcDbEntity
  8
visible
100
AcDbLine
 10
-3951.8208708292877
 20
-2405.891326016603
 30
0.0
 11
-5266.335424645686
 21
-1647.1582963549522
 31
0.0
  0
LINE
  5
B6
330
17
100
AcDbEntity
  8
visible
100
AcDbLine
 10
-3951.8208708292877
 20
-174.47884965575628
 30
0.0
 11
-5250.718048456825
 21
575.2398871502259
 31
0.0
  0
LINE
  5
B7
330
17
100
AcDbEntity
  8
visible
100
AcDbLine
 10
-5266.335424645685
 20
569.4707397225975
 30
0.0
 11
-5250.718048456824
 21
575.2398871502256
 31
0.0
  0
LINE
  5
B8
330
17
100
AcDbEntity
  8
visible
100
AcDbLine
 10
858.3309953397792
 20
-2705.9851307596255
 30
0.0
 11
795.8614905843367
 21
-2669.9279593369497
 31
0.0
  0
LINE
  5
B9
330
17
100
AcDbEntity
  8
visible
100
AcDbLine
 10
858.3309953397792
 20
-2705.9851307596255
 30
0.0
 11
859.2648071289668
 21
-2704.750110701242
 31
0.0
  0
LINE
  5
BA
330
17
100
AcDbEntity
  8
visible
100
AcDbLine
 10
795.8614905843367
 20
-2669.92795933695
 30
0.0
 11
796.7953023735245
 21
-2668.6929392785664
 31
0.0
  0
LINE
  5
BB
330
17
100
AcDbEntity
  8
visible
100
AcDbLine
 10
858.3309953397792
 20
-2889.4758607149834
 30
0.0
 11
795.8614905843367
 21
-2853.4186892923076
 31
0.0
  0
LINE
  5
BC
330
17
100
AcDbEntity
  8
visible
100
AcDbLine
 10
858.3309953397792
 20
-2889.4758607149834
 30
0.0
 11
858.3309953397792
 21
-2705.9851307596255
 31
0.0
  0
LINE
  5
BD
330
17
100
AcDbEntity
  8
visible
100
AcDbLine
 10
795.8614905843367
 20
-2853.418689292308
 30
0.0
 11
795.8614905843367
 21
-2669.92795933695
 31
0.0
  0
LINE
  5
BE
330
17
100
AcDbEntity
  8
visible
100
AcDbLine
 10
3879.7976107871336
 20
323.4512126279385
 30
0.0
 11
5814.470162248728
 21
-805.9069977752192
 31
0.0
  0
LINE
  5
BF
330
17
100
AcDbEntity
  8
visible
100
AcDbLine
 10
5528.900453766452
 20
-822.697427634188
 30
0.0
 11
3783.5429169959207
 21
196.14881730358843
 31
0.0
  0
LINE
  5
C0
330
17
100
AcDbEntity
  8
visible
100
AcDbLine
 10
5528.900453766451
 20
-822.6974276341887
 30
0.0
 11
5582.587292470112
 21
-802.8652046244347
 31
0.0
  0
LINE
  5
C1
330
17
100
AcDbEntity
  8
visible
100
AcDbLine
 10
920.8005000952207
 20
-2806.856330416093
 30
0.0
 11
858.3309953397793
 21
-2889.4758607149843
 31
0.0
  0
LINE
  5
C2
330
17
100
AcDbEntity
  8
visible
100
AcDbLine
 10
5466.43094901101
 20
-786.6402562115127
 30
0.0
 11
5166.384217036977
 21
-611.4890452205311
 31
0.0
  0
LINE
  5
C3
330
17
100
AcDbEntity
  8
visible
100
AcDbLine
 10
5148.70172128957
 20
-601.1669513149418
 30
0.0
 11
3783.3282715848163
 21
195.86493634253816
 31
0.0
  0
LINE
  5
C4
330
17
100
AcDbEntity
  8
visible
100
AcDbLine
 10
5466.430949011011
 20
-786.6402562115122
 30
0.0
 11
5528.900453766453
 21
-822.6974276341878
 31
0.0
  0
LINE
  5
C5
330
17
100
AcDbEntity
  8
visible
100
AcDbLine
 10
311.722828729658
 20
-2390.484880811214
 30
0.0
 11
249.25332397421556
 21
-2354.4277093885385
 31
0.0
  0
LINE
  5
C6
330
17
100
AcDbEntity
  8
visible
100
AcDbLine
 10
311.722828729658
 20
-2390.484880811214
 30
0.0
 11
312.6566405188456
 21
-2389.249860752831
 31
0.0
  0
LINE
  5
C7
330
17
100
AcDbEntity
  8
visible
100
AcDbLine
 10
249.25332397421562
 20
-2354.427709388539
 30
0.0
 11
250.18713576340338
 21
-2353.192689330155
 31
0.0
  0
LINE
  5
C8
330
17
100
AcDbEntity
  8
visible
100
AcDbLine
 10
311.722828729658
 20
-2573.975610766572
 30
0.0
 11
249.25332397421556
 21
-2537.9184393438964
 31
0.0
  0
LINE
  5
C9
330
17
100
AcDbEntity
  8
visible
100
AcDbLine
 10
311.722828729658
 20
-2573.975610766572
 30
0.0
 11
311.722828729658
 21
-2390.4848808112138
 31
0.0
  0
LINE
  5
CA
330
17
100
AcDbEntity
  8
visible
100
AcDbLine
 10
249.25332397421562
 20
-2537.918439343897
 30
0.0
 11
249.25332397421562
 21
-2354.4277093885385
 31
0.0
  0
LINE
  5
CB
330
17
100
AcDbEntity
  8
visible
100
AcDbLine
 10
4984.2636860612
 20
-506.4689317382298
 30
0.0
 11
4985.619291028454
 21
-505.9681635672428
 31
0.0
  0
LINE
  5
CC
330
17
100
AcDbEntity
  8
visible
100
AcDbLine
 10
374.1923334851008
 20
-2491.3560804676813
 30
0.0
 11
311.72282872965843
 21
-2573.9756107665735
 31
0.0
  0
LINE
  5
CD
330
17
100
AcDbEntity
  8
visible
100
AcDbLine
 10
-234.88533788046334
 20
-2074.984630862803
 30
0.0
 11
-297.35484263590575
 21
-2038.9274594401274
 31
0.0
  0
LINE
  5
CE
330
17
100
AcDbEntity
  8
visible
100
AcDbLine
 10
-234.88533788046334
 20
-2074.984630862803
 30
0.0
 11
-233.95152609127572
 21
-2073.7496108044197
 31
0.0
  0
LINE
  5
CF
330
17
100
AcDbEntity
  8
visible
100
AcDbLine
 10
-297.3548426359057
 20
-2038.9274594401277
 30
0.0
 11
-296.4210308467179
 21
-2037.692439381744
 31
0.0
  0
LINE
  5
D0
330
17
100
AcDbEntity
  8
visible
100
AcDbLine
 10
-234.88533788046334
 20
-2258.475360818161
 30
0.0
 11
-297.35484263590575
 21
-2222.418189395485
 31
0.0
  0
LINE
  5
D1
330
17
100
AcDbEntity
  8
visible
100
AcDbLine
 10
-234.88533788046334
 20
-2258.475360818161
 30
0.0
 11
-234.88533788046334
 21
-2074.984630862803
 31
0.0
  0
LINE
  5
D2
330
17
100
AcDbEntity
  8
visible
100
AcDbLine
 10
-297.3548426359057
 20
-2222.4181893954856
 30
0.0
 11
-297.3548426359057
 21
-2038.9274594401274
 31
0.0
  0
LINE
  5
D3
330
17
100
AcDbEntity
  8
visible
100
AcDbLine
 10
-172.41583312502098
 20
-2175.8558305192696
 30
0.0
 11
-234.88533788046334
 21
-2258.475360818162
 31
0.0
  0
LINE
  5
D4
330
17
100
AcDbEntity
  8
visible
100
AcDbLine
 10
-781.4935044905847
 20
-1759.4843809143917
 30
0.0
 11
-843.9630092460271
 21
-1723.4272094917162
 31
0.0
  0
LINE
  5
D5
330
17
100
AcDbEntity
  8
visible
100
AcDbLine
 10
-781.4935044905847
 20
-1759.4843809143917
 30
0.0
 11
-780.5596927013969
 21
-1758.2493608560083
 31
0.0
  0
LINE
  5
D6
330
17
100
AcDbEntity
  8
visible
100
AcDbLine
 10
-843.963009246027
 20
-1723.4272094917164
 30
0.0
 11
-843.0291974568391
 21
-1722.1921894333327
 31
0.0
  0
LINE
  5
D7
330
17
100
AcDbEntity
  8
visible
100
AcDbLine
 10
-781.4935044905847
 20
-1942.9751108697496
 30
0.0
 11
-843.9630092460271
 21
-1906.917939447074
 31
0.0
  0
LINE
  5
D8
330
17
100
AcDbEntity
  8
visible
100
AcDbLine
 10
-781.4935044905847
 20
-1942.9751108697496
 30
0.0
 11
-781.4935044905847
 21
-1759.4843809143915
 31
0.0
  0
LINE
  5
D9
330
17
100
AcDbEntity
  8
visible
100
AcDbLine
 10
-843.963009246027
 20
-1906.9179394470743
 30
0.0
 11
-843.963009246027
 21
-1723.4272094917162
 31
0.0
  0
LINE
  5
DA
330
17
100
AcDbEntity
  8
visible
100
AcDbLine
 10
-719.0239997351428
 20
-1860.3555805708588
 30
0.0
 11
-781.4935044905842
 21
-1942.97511086975
 31
0.0
  0
LINE
  5
DB
330
17
100
AcDbEntity
  8
visible
100
AcDbLine
 10
-1328.101671100706
 20
-1443.9841309659805
 30
0.0
 11
-1390.5711758561483
 21
-1407.926959543305
 31
0.0
  0
LINE
  5
DC
330
17
100
AcDbEntity
  8
visible
100
AcDbLine
 10
-1328.101671100706
 20
-1443.9841309659805
 30
0.0
 11
-1327.1678593115182
 21
-1442.749110907597
 31
0.0
  0
LINE
  5
DD
330
17
100
AcDbEntity
  8
visible
100
AcDbLine
 10
-1390.5711758561483
 20
-1407.9269595433047
 30
0.0
 11
-1389.6373640669608
 21
-1406.6919394849212
 31
0.0
  0
LINE
  5
DE
330
17
100
AcDbEntity
  8
visible
100
AcDbLine
 10
-1328.101671100706
 20
-1627.4748609213384
 30
0.0
 11
-1390.5711758561483
 21
-1591.4176894986629
 31
0.0
  0
LINE
  5
DF
330
17
100
AcDbEntity
  8
visible
100
AcDbLine
 10
-1328.101671100706
 20
-1627.4748609213384
 30
0.0
 11
-1328.101671100706
 21
-1443.9841309659803
 31
0.0
  0
LINE
  5
E0
330
17
100
AcDbEntity
  8
visible
100
AcDbLine
 10
-1390.5711758561483
 20
-1591.4176894986626
 30
0.0
 11
-1390.5711758561483
 21
-1407.9269595433045
 31
0.0
  0
LINE
  5
E1
330
17
100
AcDbEntity
  8
visible
100
AcDbLine
 10
-1265.6321663452632
 20
-1544.8553306224471
 30
0.0
 11
-1328.1016711007055
 21
-1627.4748609213393
 31
0.0
  0
LINE
  5
E2
330
17
100
AcDbEntity
  8
visible
100
AcDbLine
 10
-1874.7098377108273
 20
-1128.4838810175697
 30
0.0
 11
-1937.1793424662696
 21
-1092.4267095948942
 31
0.0
  0
LINE
  5
E3
330
17
100
AcDbEntity
  8
visible
100
AcDbLine
 10
-1874.7098377108273
 20
-1128.4838810175697
 30
0.0
 11
-1873.776025921639
 21
-1127.2488609591855
 31
0.0
  0
LINE
  5
E4
330
17
100
AcDbEntity
  8
visible
100
AcDbLine
 10
-1937.1793424662696
 20
-1092.4267095948935
 30
0.0
 11
-1936.245530677082
 21
-1091.19168953651
 31
0.0
  0
LINE
  5
E5
330
17
100
AcDbEntity
  8
visible
100
AcDbLine
 10
-1874.7098377108273
 20
-1311.9746109729272
 30
0.0
 11
-1937.1793424662696
 21
-1275.9174395502516
 31
0.0
  0
LINE
  5
E6
330
17
100
AcDbEntity
  8
visible
100
AcDbLine
 10
-1874.7098377108273
 20
-1311.9746109729272
 30
0.0
 11
-1874.7098377108273
 21
-1128.483881017569
 31
0.0
  0
LINE
  5
E7
330
17
100
AcDbEntity
  8
visible
100
AcDbLine
 10
-1937.1793424662696
 20
-1275.9174395502514
 30
0.0
 11
-1937.1793424662696
 21
-1092.4267095948933
 31
0.0
  0
LINE
  5
E8
330
17
100
AcDbEntity
  8
visible
100
AcDbLine
 10
-1812.2403329553854
 20
-1229.3550806740363
 30
0.0
 11
-1874.7098377108268
 21
-1311.9746109729276
 31
0.0
  0
LINE
  5
E9
330
17
100
AcDbEntity
  8
visible
100
AcDbLine
 10
-2421.3180043209486
 20
-812.983631069158
 30
0.0
 11
-2483.787509076391
 21
-776.9264596464825
 31
0.0
  0
LINE
  5
EA
330
17
100
AcDbEntity
  8
visible
100
AcDbLine
 10
-2421.3180043209486
 20
-812.983631069158
 30
0.0
 11
-2420.3841925317606
 21
-811.7486110107742
 31
0.0
  0
LINE
  5
EB
330
17
100
AcDbEntity
  8
visible
100
AcDbLine
 10
-2483.787509076391
 20
-776.9264596464818
 30
0.0
 11
-2482.8536972872034
 21
-775.6914395880985
 31
0.0
  0
LINE
  5
EC
330
17
100
AcDbEntity
  8
visible
100
AcDbLine
 10
-2421.3180043209486
 20
-996.4743610245159
 30
0.0
 11
-2483.787509076391
 21
-960.4171896018404
 31
0.0
  0
LINE
  5
ED
330
17
100
AcDbEntity
  8
visible
100
AcDbLine
 10
-2421.3180043209486
 20
-996.4743610245159
 30
0.0
 11
-2421.3180043209486
 21
-812.9836310691578
 31
0.0
  0
LINE
  5
EE
330
17
100
AcDbEntity
  8
visible
100
AcDbLine
 10
-2483.787509076391
 20
-960.4171896018397
 30
0.0
 11
-2483.787509076391
 21
-776.9264596464816
 31
0.0
  0
LINE
  5
EF
330
17
100
AcDbEntity
  8
visible
100
AcDbLine
 10
-2358.8484995655067
 20
-913.8548307256256
 30
0.0
 11
-2421.318004320948
 21
-996.4743610245168
 31
0.0
  0
LINE
  5
F0
330
17
100
AcDbEntity
  8
visible
100
AcDbLine
 10
-2967.9261709310695
 20
-497.48338112074634
 30
0.0
 11
-3030.395675686512
 21
-461.42620969807075
 31
0.0
  0
LINE
  5
F1
330
17
100
AcDbEntity
  8
visible
100
AcDbLine
 10
-2967.9261709310695
 20
-497.48338112074634
 30
0.0
 11
-2966.992359141882
 21
-496.2483610623629
 31
0.0
  0
LINE
  5
F2
330
17
100
AcDbEntity
  8
visible
100
AcDbLine
 10
-3030.395675686512
 20
-461.42620969807103
 30
0.0
 11
-3029.4618638973243
 21
-460.1911896396876
 31
0.0
  0
LINE
  5
F3
330
17
100
AcDbEntity
  8
visible
100
AcDbLine
 10
-2967.9261709310695
 20
-680.9741110761042
 30
0.0
 11
-3030.395675686512
 21
-644.9169396534287
 31
0.0
  0
LINE
  5
F4
330
17
100
AcDbEntity
  8
visible
100
AcDbLine
 10
-2967.9261709310695
 20
-680.9741110761042
 30
0.0
 11
-2967.9261709310695
 21
-497.4833811207461
 31
0.0
  0
LINE
  5
F5
330
17
100
AcDbEntity
  8
visible
100
AcDbLine
 10
-3030.395675686512
 20
-644.9169396534289
 30
0.0
 11
-3030.395675686512
 21
-461.4262096980708
 31
0.0
  0
LINE
  5
F6
330
17
100
AcDbEntity
  8
visible
100
AcDbLine
 10
-2905.456666175627
 20
-598.354580777213
 30
0.0
 11
-2967.9261709310695
 21
-680.9741110761051
 31
0.0
  0
LINE
  5
F7
330
17
100
AcDbEntity
  8
visible
100
AcDbLine
 10
-3514.5343375411903
 20
-181.98313117233556
 30
0.0
 11
-3577.0038422966327
 21
-145.92595974965997
 31
0.0
  0
LINE
  5
F8
330
17
100
AcDbEntity
  8
visible
100
AcDbLine
 10
-3514.5343375411903
 20
-181.98313117233556
 30
0.0
 11
-3513.600525752003
 21
-180.74811111395215
 31
0.0
  0
LINE
  5
F9
330
17
100
AcDbEntity
  8
visible
100
AcDbLine
 10
-3577.0038422966327
 20
-145.92595974966025
 30
0.0
 11
-3576.0700305074447
 21
-144.69093969127647
 31
0.0
  0
LINE
  5
FA
330
17
100
AcDbEntity
  8
visible
100
AcDbLine
 10
-3514.5343375411903
 20
-365.47386112769345
 30
0.0
 11
-3577.0038422966327
 21
-329.41668970501786
 31
0.0
  0
LINE
  5
FB
330
17
100
AcDbEntity
  8
visible
100
AcDbLine
 10
-3514.5343375411903
 20
-365.47386112769345
 30
0.0
 11
-3514.5343375411903
 21
-181.98313117233533
 31
0.0
  0
LINE
  5
FC
330
17
100
AcDbEntity
  8
visible
100
AcDbLine
 10
-3577.0038422966327
 20
-329.41668970501814
 30
0.0
 11
-3577.0038422966327
 21
-145.92595974966002
 31
0.0
  0
LINE
  5
FD
330
17
100
AcDbEntity
  8
visible
100
AcDbLine
 10
-3452.064832785748
 20
-282.8543308288022
 30
0.0
 11
-3514.5343375411903
 21
-365.47386112769436
 31
0.0
  0
LINE
  5
FE
330
17
100
AcDbEntity
  8
visible
100
AcDbLine
 10
-4061.142504151312
 20
133.51711877607613
 30
0.0
 11
-4123.612008906754
 21
169.57429019875173
 31
0.0
  0
LINE
  5
FF
330
17
100
AcDbEntity
  8
visible
100
AcDbLine
 10
-4061.142504151312
 20
133.51711877607613
 30
0.0
 11
-4060.2086923621246
 21
134.75213883445954
 31
0.0
  0
LINE
  5
100
330
17
100
AcDbEntity
  8
visible
100
AcDbLine
 10
-4123.612008906754
 20
169.57429019875235
 30
0.0
 11
-4122.678197117567
 21
170.8093102571354
 31
0.0
  0
LINE
  5
101
330
17
100
AcDbEntity
  8
visible
100
AcDbLine
 10
-4061.142504151312
 20
-49.97361117928176
 30
0.0
 11
-4123.612008906754
 21
-13.91643975660618
 31
0.0
  0
LINE
  5
102
330
17
100
AcDbEntity
  8
visible
100
AcDbLine
 10
-4061.142504151312
 20
-49.97361117928176
 30
0.0
 11
-4061.142504151312
 21
133.51711877607636
 31
0.0
  0
LINE
  5
103
330
17
100
AcDbEntity
  8
visible
100
AcDbLine
 10
-4123.612008906754
 20
-13.916439756605541
 30
0.0
 11
-4123.612008906754
 21
169.57429019875258
 31
0.0
  0
LINE
  5
104
330
17
100
AcDbEntity
  8
visible
100
AcDbLine
 10
-3998.6729993958697
 20
32.64591911960861
 30
0.0
 11
-4061.142504151312
 21
-49.97361117928358
 31
0.0
  0
LINE
  5
105
330
17
100
AcDbEntity
  8
visible
100
AcDbLine
 10
-4607.750670761433
 20
449.0173687244878
 30
0.0
 11
-4670.220175516875
 21
485.0745401471634
 31
0.0
  0
LINE
  5
106
330
17
100
AcDbEntity
  8
visible
100
AcDbLine
 10
-4607.750670761433
 20
449.0173687244878
 30
0.0
 11
-4606.816858972245
 21
450.25238878287087
 31
0.0
  0
LINE
  5
107
330
17
100
AcDbEntity
  8
visible
100
AcDbLine
 10
-4670.220175516875
 20
485.07454014716313
 30
0.0
 11
-4669.286363727688
 21
486.3095602055462
 31
0.0
  0
LINE
  5
108
330
17
100
AcDbEntity
  8
visible
100
AcDbLine
 10
-4607.750670761433
 20
265.52663876912993
 30
0.0
 11
-4670.220175516875
 21
301.5838101918055
 31
0.0
  0
LINE
  5
109
330
17
100
AcDbEntity
  8
visible
100
AcDbLine
 10
-4607.750670761433
 20
265.52663876912993
 30
0.0
 11
-4607.750670761433
 21
449.01736872448805
 31
0.0
  0
LINE
  5
10A
330
17
100
AcDbEntity
  8
visible
100
AcDbLine
 10
-4670.220175516875
 20
301.58381019180524
 30
0.0
 11
-4670.220175516875
 21
485.07454014716336
 31
0.0
  0
LINE
  5
10B
330
17
100
AcDbEntity
  8
visible
100
AcDbLine
 10
-4545.2811660059915
 20
348.1461690680203
 30
0.0
 11
-4607.750670761433
 21
265.526638769129
 31
0.0
  0
LINE
  5
10C
330
17
100
AcDbEntity
  8
visible
100
AcDbLine
 10
-5154.358837371555
 20
764.5176186728986
 30
0.0
 11
-5216.828342126997
 21
800.5747900955741
 31
0.0
  0
LINE
  5
10D
330
17
100
AcDbEntity
  8
visible
100
AcDbLine
 10
-5154.358837371555
 20
764.5176186728986
 30
0.0
 11
-5153.425025582367
 21
765.7526387312824
 31
0.0
  0
LINE
  5
10E
330
17
100
AcDbEntity
  8
visible
100
AcDbLine
 10
-5216.828342126997
 20
800.5747900955739
 30
0.0
 11
-5215.89453033781
 21
801.8098101539573
 31
0.0
  0
LINE
  5
10F
330
17
100
AcDbEntity
  8
visible
100
AcDbLine
 10
-5154.358837371555
 20
581.0268887175407
 30
0.0
 11
-5216.828342126997
 21
617.0840601402163
 31
0.0
  0
LINE
  5
110
330
17
100
AcDbEntity
  8
visible
100
AcDbLine
 10
-5154.358837371555
 20
581.0268887175407
 30
0.0
 11
-5154.358837371555
 21
764.5176186728988
 31
0.0
  0
LINE
  5
111
330
17
100
AcDbEntity
  8
visible
100
AcDbLine
 10
-5216.828342126997
 20
617.084060140216
 30
0.0
 11
-5216.828342126997
 21
800.5747900955741
 31
0.0
  0
LINE
  5
112
330
17
100
AcDbEntity
  8
visible
100
AcDbLine
 10
-5091.889332616112
 20
663.6464190164324
 30
0.0
 11
-5154.358837371555
 21
581.0268887175398
 31
0.0
  0
LINE
  5
113
330
17
100
AcDbEntity
  8
visible
100
AcDbLine
 10
-5700.967003981676
 20
1080.0178686213094
 30
0.0
 11
-5763.436508737118
 21
1116.075040043985
 31
0.0
  0
LINE
  5
114
330
17
100
AcDbEntity
  8
visible
100
AcDbLine
 10
-5700.967003981676
 20
1080.0178686213094
 30
0.0
 11
-5700.033192192488
 21
1081.2528886796931
 31
0.0
  0
LINE
  5
115
330
17
100
AcDbEntity
  8
visible
100
AcDbLine
 10
-5763.436508737118
 20
1116.0750400439856
 30
0.0
 11
-5762.50269694793
 21
1117.3100601023693
 31
0.0
  0
LINE
  5
116
330
17
100
AcDbEntity
  8
visible
100
AcDbLine
 10
-5700.967003981676
 20
896.5271386659515
 30
0.0
 11
-5763.436508737118
 21
932.584310088627
 31
0.0
  0
LINE
  5
117
330
17
100
AcDbEntity
  8
visible
100
AcDbLine
 10
-5700.967003981676
 20
896.5271386659515
 30
0.0
 11
-5700.967003981676
 21
1080.0178686213096
 31
0.0
  0
LINE
  5
118
330
17
100
AcDbEntity
  8
visible
100
AcDbLine
 10
-5763.436508737118
 20
932.5843100886277
 30
0.0
 11
-5763.436508737118
 21
1116.0750400439858
 31
0.0
  0
LINE
  5
119
330
17
100
AcDbEntity
  8
visible
100
AcDbLine
 10
-5638.497499226233
 20
979.1466689648428
 30
0.0
 11
-5700.967003981676
 21
896.5271386659506
 31
0.0
  0
LINE
  5
11A
330
17
100
AcDbEntity
  8
visible
100
AcDbLine
 10
1368.0821541441894
 20
-2998.4376367346626
 30
0.0
 11
-6396.877286957305
 21
1483.4687711039119
 31
0.0
  0
LINE
  5
11B
330
17
100
AcDbEntity
  8
visible
100
AcDbLine
 10
1368.0821541441894
 20
-2998.4376367346626
 30
0.0
 11
3882.4797205507475
 21
326.99845779575753
 31
0.0
  0
LINE
  5
11C
330
17
100
AcDbEntity
  8
visible
100
AcDbLine
 10
1368.0821541441894
 20
-2833.7442792836755
 30
0.0
 11
-6396.877286957305
 21
1648.162128554899
 31
0.0
  0
LINE
  5
11D
330
17
100
AcDbEntity
  8
visible
100
AcDbLine
 10
1368.0821541441894
 20
-2833.7442792836755
 30
0.0
 11
1368.0821541441894
 21
-2998.437636734662
 31
0.0
  0
LINE
  5
11E
330
17
100
AcDbEntity
  8
visible
100
AcDbLine
 10
-6396.877286957304
 20
1648.162128554899
 30
0.0
 11
-6396.877286957304
 21
1483.4687711039123
 31
0.0
  0
LINE
  5
11F
330
17
100
AcDbEntity
  8
visible
100
AcDbLine
 10
3882.479720550747
 20
326.9984577957566
 30
0.0
 11
6396.877286957304
 21
-1140.7721650384176
 31
0.0
  0
LINE
  5
120
330
17
100
AcDbEntity
  8
visible
100
AcDbLine
 10
6396.877286957305
 20
-1140.7721650384174
 30
0.0
 11
6396.877286957305
 21
-976.0788075874306
 31
0.0
  0
LINE
  5
121
330
17
100
AcDbEntity
  8
visible
100
AcDbLine
 10
6396.877286957305
 20
-976.0788075874298
 30
0.0
 11
3882.4797205507475
 21
491.69181524674536
 31
0.0
  0
LINE
  5
122
330
17
100
AcDbEntity
  8
visible
100
AcDbLine
 10
3882.479720550747
 20
491.6918152467442
 30
0.0
 11
1368.0821541441896
 21
-2833.7442792836764
 31
0.0
  0
LINE
  5
123
330
17
100
AcDbEntity
  8
visible
100
AcDbLine
 10
-3882.4797205507466
 20
4973.598223085319
 30
0.0
 11
-6396.877286957304
 21
1648.1621285548981
 31
0.0
  0
LINE
  5
124
330
17
100
AcDbEntity
  8
visible
100
AcDbLine
 10
6396.877286957305
 20
-1140.7721650384174
 30
0.0
 11
5918.360880530616
 21
-864.5742319407224
 31
0.0
  0
LINE
  5
125
330
17
100
AcDbEntity
  8
visible
100
AcDbLine
 10
5910.03562579989
 20
-859.3052146919247
 30
0.0
 11
5918.360880530617
 21
-864.1650524855297
 31
0.0
  0
LINE
  5
126
330
17
100
AcDbEntity
  8
visible
100
AcDbLine
 10
5910.035625799889
 20
-859.3052146919249
 30
0.0
 11
5545.492494027996
 21
-648.8922420788676
 31
0.0
  0
LINE
  5
127
330
17
100
AcDbEntity
  8
visible
100
AcDbLine
 10
3882.479720550747
 20
491.6918152467442
 30
0.0
 11
-3882.479720550747
 21
4973.598223085319
 31
0.0
  0
LINE
  5
128
330
17
100
AcDbEntity
  8
visible
100
AcDbLine
 10
5554.476015330163
 20
-988.8182492855634
 30
0.0
 11
5554.476015330163
 21
-839.5316010026539
 31
0.0
  0
LINE
  5
129
330
17
100
AcDbEntity
  8
visible
100
AcDbLine
 10
5554.476015330163
 20
-839.5316010026545
 30
0.0
 11
3782.8751116917597
 21
195.265606194793
 31
0.0
  0
LINE
  5
12A
330
17
100
AcDbEntity
  8
visible
100
AcDbLine
 10
5166.384217036977
 20
-612.8460601535555
 30
0.0
 11
5166.384217036977
 21
-611.2435375474163
 31
0.0
  0
LINE
  5
12B
330
17
100
AcDbEntity
  8
visible
100
AcDbLine
 10
5161.367338569542
 20
-608.3149526127138
 30
0.0
 11
5166.384217036976
 21
-611.2435375474158
 31
0.0
  0
LINE
  5
12C
330
17
100
AcDbEntity
  8
visible
100
AcDbLine
 10
5159.688555193806
 20
-608.9351047225535
 30
0.0
 11
5161.367338569543
 21
-608.3149526127139
 31
0.0
  0
LINE
  5
12D
330
17
100
AcDbEntity
  8
visible
100
AcDbLine
 10
5147.285150927826
 20
-601.6902404487681
 30
0.0
 11
5148.873437618454
 21
-601.1035183281787
 31
0.0
  0
LINE
  5
12E
330
17
100
AcDbEntity
  8
visible
100
AcDbLine
 10
5161.367338569543
 20
-608.3149526127137
 30
0.0
 11
5148.873437618454
 21
-601.1035183281786
 31
0.0
  0
LINE
  5
12F
330
17
100
AcDbEntity
  8
visible
100
AcDbLine
 10
2084.919721212891
 20
-5039.489098143116
 30
0.0
 11
2084.919721212891
 21
-3092.214344027237
 31
0.0
  0
LINE
  5
130
330
17
100
AcDbEntity
  8
visible
100
AcDbLine
 10
2158.94608434809
 20
-5082.216846278987
 30
0.0
 11
2084.919721212891
 21
-5039.489098143116
 31
0.0
  0
LINE
  5
131
330
17
100
AcDbEntity
  8
visible
100
AcDbLine
 10
-4695.52032494283
 20
254.78177613119624
 30
0.0
 11
-4695.52032494283
 21
408.97305828598405
 31
0.0
  0
LINE
  5
132
330
17
100
AcDbEntity
  8
visible
100
AcDbLine
 10
2082.7332885464507
 20
-5039.705441171653
 30
0.0
 11
2084.919721212891
 21
-5038.897760531784
 31
0.0
  0
LINE
  5
133
330
17
100
AcDbEntity
  8
visible
100
AcDbLine
 10
2082.7332885464507
 20
-3093.022024667105
 30
0.0
 11
2082.7332885464507
 21
-5039.705441171653
 31
0.0
  0
LINE
  5
134
330
17
100
AcDbEntity
  8
visible
100
AcDbLine
 10
2082.7332885464507
 20
-5039.705441171653
 30
0.0
 11
2074.92460045202
 21
-5035.198294743817
 31
0.0
  0
LINE
  5
135
330
17
100
AcDbEntity
  8
visible
100
AcDbLine
 10
2074.9246004520205
 20
-3095.9065983809196
 30
0.0
 11
2074.9246004520205
 21
-5035.198294743818
 31
0.0
  0
LINE
  5
136
330
17
100
AcDbEntity
  8
visible
100
AcDbLine
 10
-3232.3283498084797
 20
-589.7673215164219
 30
0.0
 11
-3069.4391161586636
 21
-529.5951138462609
 31
0.0
  0
LINE
  5
137
330
17
100
AcDbEntity
  8
visible
100
AcDbLine
 10
-4614.309968760755
 20
269.31264176851096
 30
0.0
 11
-4614.309968760755
 21
207.9074532817183
 31
0.0
  0
LINE
  5
138
330
17
100
AcDbEntity
  8
visible
100
AcDbLine
 10
-4622.118656855185
 20
273.81978819634537
 30
0.0
 11
-4622.118656855185
 21
212.4145997095527
 31
0.0
  0
ENDSEC
  0
SECTION
  2
OBJECTS
  0
DICTIONARY
  5
A
330
0
100
AcDbDictionary
281
1
  3
ACAD_COLOR
350
B
  3
ACAD_GROUP
350
C
  3
ACAD_LAYOUT
350
D
  3
ACAD_MATERIAL
350
E
  3
ACAD_MLEADERSTYLE
350
F
  3
ACAD_MLINESTYLE
350
10
  3
ACAD_PLOTSETTINGS
350
11
  3
ACAD_PLOTSTYLENAME
350
12
  3
ACAD_SCALELIST
350
14
  3
ACAD_TABLESTYLE
350
15
  3
ACAD_VISUALSTYLE
350
16
  3
EZDXF_META
350
2D
  0
DICTIONARY
  5
B
330
A
100
AcDbDictionary
281
1
  0
DICTIONARY
  5
C
330
A
100
AcDbDictionary
281
1
  0
DICTIONARY
  5
D
330
A
100
AcDbDictionary
281
1
  3
Model
350
1A
  3
Layout1
350
1E
  0
DICTIONARY
  5
E
330
A
100
AcDbDictionary
281
1
  3
ByBlock
350
1F
  3
ByLayer
350
20
  3
Global
350
21
  0
DICTIONARY
  5
F
330
A
100
AcDbDictionary
281
1
  3
Standard
350
2C
  0
DICTIONARY
  5
10
330
A
100
AcDbDictionary
281
1
  3
Standard
350
22
  0
DICTIONARY
  5
11
330
A
100
AcDbDictionary
281
1
  0
ACDBDICTIONARYWDFLT
  5
12
330
A
100
AcDbDictionary
281
1
  3
Normal
350
13
100
AcDbDictionaryWithDefault
340
13
  0
ACDBPLACEHOLDER
  5
13
330
12
  0
DICTIONARY
  5
14
330
A
100
AcDbDictionary
281
1
  0
DICTIONARY
  5
15
330
A
100
AcDbDictionary
281
1
  0
DICTIONARY
  5
16
330
A
100
AcDbDictionary
281
1
  0
LAYOUT
  5
1A
330
D
100
AcDbPlotSettings
  1

  4
A3
  6

 40
7.5
 41
20.0
 42
7.5
 43
20.0
 44
420.0
 45
297.0
 46
0.0
 47
0.0
 48
0.0
 49
0.0
140
0.0
141
0.0
142
1.0
143
1.0
 70
1024
 72
1
 73
0
 74
5
  7

 75
16
 76
0
 77
2
 78
300
147
1.0
148
0.0
149
0.0
100
AcDbLayout
  1
Model
 70
1
 71
0
 10
0.0
 20
0.0
 11
420.0
 21
297.0
 12
0.0
 22
0.0
 32
0.0
 14
1e+20
 24
1e+20
 34
1e+20
 15
-1e+20
 25
-1e+20
 35
-1e+20
146
0.0
 13
0.0
 23
0.0
 33
0.0
 16
1.0
 26
0.0
 36
0.0
 17
0.0
 27
1.0
 37
0.0
 76
1
330
17
  0
LAYOUT
  5
1E
330
D
100
AcDbPlotSettings
  1

  4
A3
  6

 40
7.5
 41
20.0
 42
7.5
 43
20.0
 44
420.0
 45
297.0
 46
0.0
 47
0.0
 48
0.0
 49
0.0
140
0.0
141
0.0
142
1.0
143
1.0
 70
0
 72
1
 73
0
 74
5
  7

 75
16
 76
0
 77
2
 78
300
147
1.0
148
0.0
149
0.0
100
AcDbLayout
  1
Layout1
 70
1
 71
1
 10
0.0
 20
0.0
 11
420.0
 21
297.0
 12
0.0
 22
0.0
 32
0.0
 14
1e+20
 24
1e+20
 34
1e+20
 15
-1e+20
 25
-1e+20
 35
-1e+20
146
0.0
 13
0.0
 23
0.0
 33
0.0
 16
1.0
 26
0.0
 36
0.0
 17
0.0
 27
1.0
 37
0.0
 76
1
330
1B
  0
MATERIAL
  5
1F
102
{ACAD_REACTORS
330
E
102
}
330
E
100
AcDbMaterial
  1
ByBlock
  2

 70
0
 40
1.0
 71
1
 41
1.0
 91
-1023410177
 42
1.0
 72
1
  3

 73
1
 74
1
 75
1
 44
0.5
 73
0
 45
1.0
 46
1.0
 77
1
  4

 78
1
 79
1
170
1
 48
1.0
171
1
  6

172
1
173
1
174
1
140
1.0
141
1.0
175
1
  7

176
1
177
1
178
1
143
1.0
179
1
  8

270
1
271
1
272
1
145
1.0
146
1.0
273
1
  9

274
1
275
1
276
1
 42
1.0
 72
1
  3

 73
1
 74
1
 75
1
 94
63
  0
MATERIAL
  5
20
102
{ACAD_REACTORS
330
E
102
}
330
E
100
AcDbMaterial
  1
ByLayer
  2

 70
0
 40
1.0
 71
1
 41
1.0
 91
-1023410177
 42
1.0
 72
1
  3

 73
1
 74
1
 75
1
 44
0.5
 73
0
 45
1.0
 46
1.0
 77
1
  4

 78
1
 79
1
170
1
 48
1.0
171
1
  6

172
1
173
1
174
1
140
1.0
141
1.0
175
1
  7

176
1
177
1
178
1
143
1.0
179
1
  8

270
1
271
1
272
1
145
1.0
146
1.0
273
1
  9

274
1
275
1
276
1
 42
1.0
 72
1
  3

 73
1
 74
1
 75
1
 94
63
  0
MATERIAL
  5
21
102
{ACAD_REACTORS
330
E
102
}
330
E
100
AcDbMaterial
  1
Global
  2

 70
0
 40
1.0
 71
1
 41
1.0
 91
-1023410177
 42
1.0
 72
1
  3

 73
1
 74
1
 75
1
 44
0.5
 73
0
 45
1.0
 46
1.0
 77
1
  4

 78
1
 79
1
170
1
 48
1.0
171
1
  6

172
1
173
1
174
1
140
1.0
141
1.0
175
1
  7

176
1
177
1
178
1
143
1.0
179
1
  8

270
1
271
1
272
1
145
1.0
146
1.0
273
1
  9

274
1
275
1
276
1
 42
1.0
 72
1
  3

 73
1
 74
1
 75
1
 94
63
  0
MLINESTYLE
  5
22
102
{ACAD_REACTORS
330
10
102
}
330
10
100
AcDbMlineStyle
  2
Standard
 70
0
  3

 62
256
 51
90.0
 52
90.0
 71
2
 49
0.5
 62
256
  6
BYLAYER
 49
-0.5
 62
256
  6
BYLAYER
  0
MLEADERSTYLE
  5
2C
102
{ACAD_REACTORS
330
F
102
}
330
F
100
AcDbMLeaderStyle
179
2
170
2
171
1
172
0
 90
2
 40
0.0
 41
0.0
173
1
 91
-1056964608
 92
-2
290
1
 42
2.0
291
1
 43
8.0
  3
Standard
 44
4.0
300

342
29
174
1
175
1
176
0
178
1
 93
-1056964608
 45
4.0
292
0
297
0
 46
4.0
 94
-1056964608
 47
1.0
 49
1.0
140
1.0
294
1
141
0.0
177
0
142
1.0
295
0
296
0
143
3.75
271
0
272
9
273
9
  0
DICTIONARY
  5
2D
330
A
100
AcDbDictionary
280
1
281
1
  3
CREATED_BY_EZDXF
350
2E
  3
WRITTEN_BY_EZDXF
350
13C
  0
DICTIONARYVAR
  5
2E
330
2D
100
DictionaryVariables
280
0
  1
1.4.4 @ 2026-09-23T07:22:13.404175+00:00
  0
DICTIONARYVAR
  5
13C
330
2D
100
DictionaryVariables
280
0
  1
1.4.4 @ 2026-09-23T07:22:13.423066+00:00
  0
ENDSEC
  0
EOF
