  0
SECTION
  2
HEADER
  9
$ACADVER
  1
AC1027
  9
$ACADMAINTVER
 70
105
  9
$DWGCODEPAGE
  3
ANSI_1252
  9
$LASTSAVEDBY
  1
ezdxf
  9
$REQUIREDVERSIONS
160
0
  9
$INSBASE
 10
0.0
 20
0.0
 30
0.0
  9
$EXTMIN
 10
1e+20
 20
1e+20
 30
1e+20
  9
$EXTMAX
 10
-1e+20
 20
-1e+20
 30
-1e+20
  9
$LIMMIN
 10
0.0
 20
0.0
  9
$LIMMAX
 10
420.0
 20
297.0
  9
$ORTHOMODE
 70
0
  9
$REGENMODE
 70
1
  9
$FILLMODE
 70
1
  9
$QTEXTMODE
 70
0
  9
$MIRRTEXT
 70
1
  9
$LTSCALE
 40
1.0
  9
$ATTMODE
 70
1
  9
$TEXTSIZE
 40
2.5
  9
$TRACEWID
 40
1.0
  9
$TEXTSTYLE
  7
Standard
  9
$CLAYER
  8
0
  9
$CELTYPE
  6
ByLayer
  9
$CECOLOR
 62
256
  9
$CELTSCALE
 40
1.0
  9
$DISPSILH
 70
0
  9
$DIMSCALE
 40
1.0
  9
$DIMASZ
 40
2.5
  9
$DIMEXO
 40
0.625
  9
$DIMDLI
 40
3.75
  9
$DIMRND
 40
0.0
  9
$DIMDLE
 40
0.0
  9
$DIMEXE
 40
1.25
  9
$DIMTP
 40
0.0
  9
$DIMTM
 40
0.0
  9
$DIMTXT
 40
2.5
  9
$DIMCEN
 40
2.5
  9
$DIMTSZ
 40
0.0
  9
$DIMTOL
 70
0
  9
$DIMLIM
 70
0
  9
$DIMTIH
 70
0
  9
$DIMTOH
 70
0
  9
$DIMSE1
 70
0
  9
$DIMSE2
 70
0
  9
$DIMTAD
 70
1
  9
$DIMZIN
 70
8
  9
$DIMBLK
  1

  9
$DIMASO
 70
1
  9
$DIMSHO
 70
1
  9
$DIMPOST
  1

  9
$DIMAPOST
  1

  9
$DIMALT
 70
0
  9
$DIMALTD
 70
3
  9
$DIMALTF
 40
0.03937007874
  9
$DIMLFAC
 40
1.0
  9
$DIMTOFL
 70
1
  9
$DIMTVP
 40
0.0
  9
$DIMTIX
 70
0
  9
$DIMSOXD
 70
0
  9
$DIMSAH
 70
0
  9
$DIMBLK1
  1

  9
$DIMBLK2
  1

  9
$DIMSTYLE
  2
ISO-25
  9
$DIMCLRD
 70
0
  9
$DIMCLRE
 70
0
  9
$DIMCLRT
 70
0
  9
$DIMTFAC
 40
1.0
  9
$DIMGAP
 40
0.625
  9
$DIMJUST
 70
0
  9
$DIMSD1
 70
0
  9
$DIMSD2
 70
0
  9
$DIMTOLJ
 70
0
  9
$DIMTZIN
 70
8
  9
$DIMALTZ
 70
0
  9
$DIMALTTZ
 70
0
  9
$DIMUPT
 70
0
  9
$DIMDEC
 70
2
  9
$DIMTDEC
 70
2
  9
$DIMALTU
 70
2
  9
$DIMALTTD
 70
3
  9
$DIMTXSTY
  7
Standard
  9
$DIMAUNIT
 70
0
  9
$DIMADEC
 70
0
  9
$DIMALTRND
 40
0.0
  9
$DIMAZIN
 70
0
  9
$DIMDSEP
 70
44
  9
$DIMATFIT
 70
3
  9
$DIMFRAC
 70
0
  9
$DIMLDRBLK
  1

  9
$DIMLUNIT
 70
2
  9
$DIMLWD
 70
-2
  9
$DIMLWE
 70
-2
  9
$DIMTMOVE
 70
0
  9
$DIMFXL
 40
1.0
  9
$DIMFXLON
 70
0
  9
$DIMJOGANG
 40
0.785398163397
  9
$DIMTFILL
 70
0
  9
$DIMTFILLCLR
 70
0
  9
$DIMARCSYM
 70
0
  9
$DIMLTYPE
  6

  9
$DIMLTEX1
  6

  9
$DIMLTEX2
  6

  9
$DIMTXTDIRECTION
 70
0
  9
$LUNITS
 70
2
  9
$LUPREC
 70
4
  9
$SKETCHINC
 40
1.0
  9
$FILLETRAD
 40
10.0
  9
$AUNITS
 70
0
  9
$AUPREC
 70
2
  9
$MENU
  1
.
  9
$ELEVATION
 40
0.0
  9
$PELEVATION
 40
0.0
  9
$THICKNESS
 40
0.0
  9
$LIMCHECK
 70
0
  9
$CHAMFERA
 40
0.0
  9
$CHAMFERB
 40
0.0
  9
$CHAMFERC
 40
0.0
  9
$CHAMFERD
 40
0.0
  9
$SKPOLY
 70
0
  9
$TDCREATE
 40
2461304.514699074
  9
$TDUCREATE
 40
2458532.153996898
  9
$TDUPDATE
 40
2461304.514699074
  9
$TDUUPDATE
 40
2458532.1544311
  9
$TDINDWG
 40
0.0
  9
$TDUSRTIMER
 40
0.0
  9
$USRTIMER
 70
1
  9
$ANGBASE
 50
0.0
  9
$ANGDIR
 70
0
  9
$PDMODE
 70
0
  9
$PDSIZE
 40
0.0
  9
$PLINEWID
 40
0.0
  9
$SPLFRAME
 70
0
  9
$SPLINETYPE
 70
6
  9
$SPLINESEGS
 70
8
  9
$HANDSEED
  5
120
  9
$SURFTAB1
 70
6
  9
$SURFTAB2
 70
6
  9
$SURFTYPE
 70
6
  9
$SURFU
 70
6
  9
$SURFV
 70
6
  9
$UCSBASE
  2

  9
$UCSNAME
  2

  9
$UCSORG
 10
0.0
 20
0.0
 30
0.0
  9
$UCSXDIR
 10
1.0
 20
0.0
 30
0.0
  9
$UCSYDIR
 10
0.0
 20
1.0
 30
0.0
  9
$UCSORTHOREF
  2

  9
$UCSORTHOVIEW
 70
0
  9
$UCSORGTOP
 10
0.0
 20
0.0
 30
0.0
  9
$UCSORGBOTTOM
 10
0.0
 20
0.0
 30
0.0
  9
$UCSORGLEFT
 10
0.0
 20
0.0
 30
0.0
  9
$UCSORGRIGHT
 10
0.0
 20
0.0
 30
0.0
  9
$UCSORGFRONT
 10
0.0
 20
0.0
 30
0.0
  9
$UCSORGBACK
 10
0.0
 20
0.0
 30
0.0
  9
$PUCSBASE
  2

  9
$PUCSNAME
  2

  9
$PUCSORG
 10
0.0
 20
0.0
 30
0.0
  9
$PUCSXDIR
 10
1.0
 20
0.0
 30
0.0
  9
$PUCSYDIR
 10
0.0
 20
1.0
 30
0.0
  9
$PUCSORTHOREF
  2

  9
$PUCSORTHOVIEW
 70
0
  9
$PUCSORGTOP
 10
0.0
 20
0.0
 30
0.0
  9
$PUCSORGBOTTOM
 10
0.0
 20
0.0
 30
0.0
  9
$PUCSORGLEFT
 10
0.0
 20
0.0
 30
0.0
  9
$PUCSORGRIGHT
 10
0.0
 20
0.0
 30
0.0
  9
$PUCSORGFRONT
 10
0.0
 20
0.0
 30
0.0
  9
$PUCSORGBACK
 10
0.0
 20
0.0
 30
0.0
  9
$USERI1
 70
0
  9
$USERI2
 70
0
  9
$USERI3
 70
0
  9
$USERI4
 70
0
  9
$USERI5
 70
0
  9
$USERR1
 40
0.0
  9
$USERR2
 40
0.0
  9
$USERR3
 40
0.0
  9
$USERR4
 40
0.0
  9
$USERR5
 40
0.0
  9
$WORLDVIEW
 70
1
  9
$SHADEDGE
 70
3
  9
$SHADEDIF
 70
70
  9
$TILEMODE
 70
1
  9
$MAXACTVP
 70
64
  9
$PINSBASE
 10
0.0
 20
0.0
 30
0.0
  9
$PLIMCHECK
 70
0
  9
$PEXTMIN
 10
1e+20
 20
1e+20
 30
1e+20
  9
$PEXTMAX
 10
-1e+20
 20
-1e+20
 30
-1e+20
  9
$PLIMMIN
 10
0.0
 20
0.0
  9
$PLIMMAX
 10
420.0
 20
297.0
  9
$UNITMODE
 70
0
  9
$VISRETAIN
 70
1
  9
$PLINEGEN
 70
0
  9
$PSLTSCALE
 70
1
  9
$TREEDEPTH
 70
3020
  9
$CMLSTYLE
  2
Standard
  9
$CMLJUST
 70
0
  9
$CMLSCALE
 40
20.0
  9
$PROXYGRAPHICS
 70
1
  9
$MEASUREMENT
 70
1
  9
$CELWEIGHT
370
-1
  9
$ENDCAPS
280
0
  9
$JOINSTYLE
280
0
  9
$LWDISPLAY
290
0
  9
$INSUNITS
 70
4
  9
$HYPERLINKBASE
  1

  9
$STYLESHEET
  1

  9
$XEDIT
290
1
  9
$CEPSNTYPE
380
0
  9
$PSTYLEMODE
290
1
  9
$FINGERPRINTGUID
  2
{348EC0DC-4EE9-4BA6-AD4D-B890E3EC19A4}
  9
$VERSIONGUID
  2
{74D58397-94CA-492B-B937-1C8CBE49D53C}
  9
$EXTNAMES
290
1
  9
$PSVPSCALE
 40
0.0
  9
$OLESTARTUP
290
0
  9
$SORTENTS
280
127
  9
$INDEXCTL
280
0
  9
$HIDETEXT
280
1
  9
$XCLIPFRAME
280
1
  9
$HALOGAP
280
0
  9
$OBSCOLOR
 70
257
  9
$OBSLTYPE
280
0
  9
$INTERSECTIONDISPLAY
280
0
  9
$INTERSECTIONCOLOR
 70
257
  9
$DIMASSOC
280
2
  9
$PROJECTNAME
  1

  9
$CAMERADISPLAY
290
0
  9
$LENSLENGTH
 40
50.0
  9
$CAMERAHEIGHT
 40
0.0
  9
$STEPSPERSEC
 40
24.0
  9
$STEPSIZE
 40
100.0
  9
$3DDWFPREC
 40
2.0
  9
$PSOLWIDTH
 40
0.005
  9
$PSOLHEIGHT
 40
0.08
  9
$LOFTANG1
 40
1.570796326795
  9
$LOFTANG2
 40
1.570796326795
  9
$LOFTMAG1
 40
0.0
  9
$LOFTMAG2
 40
0.0
  9
$LOFTPARAM
 70
7
  9
$LOFTNORMALS
280
1
  9
$LATITUDE
 40
37.795
  9
$LONGITUDE
 40
-122.394
  9
$NORTHDIRECTION
 40
0.0
  9
$TIMEZONE
 70
-8000
  9
$LIGHTGLYPHDISPLAY
280
1
  9
$TILEMODELIGHTSYNCH
280
1
  9
$CMATERIAL
347
20
  9
$SOLIDHIST
280
0
  9
$SHOWHIST
280
1
  9
$DWFFRAME
280
2
  9
$DGNFRAME
280
2
  9
$REALWORLDSCALE
290
1
  9
$INTERFERECOLOR
 62
256
  9
$CSHADOW
280
0
  9
$SHADOWPLANELOCATION
 40
0.0
  0
ENDSEC
  0
SECTION
  2
CLASSES
  0
CLASS
  1
ACDBDICTIONARYWDFLT
  2
AcDbDictionaryWithDefault
  3
ObjectDBX Classes
 90
0
 91
0
280
0
281
0
  0
CLASS
  1
SUN
  2
AcDbSun
  3
SCENEOE
 90
1153
 91
0
280
0
281
0
  0
CLASS
  1
VISUALSTYLE
  2
AcDbVisualStyle
  3
ObjectDBX Classes
 90
4095
 91
0
280
0
281
0
  0
CLASS
  1
MATERIAL
  2
AcDbMaterial
  3
ObjectDBX Classes
 90
1153
 91
0
280
0
281
0
  0
CLASS
  1
SCALE
  2
AcDbScale
  3
ObjectDBX Classes
 90
1153
 91
0
280
0
281
0
  0
CLASS
  1
TABLESTYLE
  2
AcDbTableStyle
  3
ObjectDBX Classes
 90
4095
 91
0
280
0
281
0
  0
CLASS
  1
MLEADERSTYLE
  2
AcDbMLeaderStyle
  3
ACDB_MLEADERSTYLE_CLASS
 90
4095
 91
0
280
0
281
0
  0
CLASS
  1
DICTIONARYVAR
  2
AcDbDictionaryVar
  3
ObjectDBX Classes
 90
0
 91
0
280
0
281
0
  0
CLASS
  1
CELLSTYLEMAP
  2
AcDbCellStyleMap
  3
ObjectDBX Classes
 90
1152
 91
0
280
0
281
0
  0
CLASS
  1
MENTALRAYRENDERSETTINGS
  2
AcDbMentalRayRenderSettings
  3
SCENEOE
 90
1024
 91
0
280
0
281
0
  0
CLASS
  1
ACDBDETAILVIEWSTYLE
  2
AcDbDetailViewStyle
  3
ObjectDBX Classes
 90
1025
 91
0
280
0
281
0
  0
CLASS
  1
ACDBSECTIONVIEWSTYLE
  2
AcDbSectionViewStyle
  3
ObjectDBX Classes
 90
1025
 91
0
280
0
281
0
  0
CLASS
  1
RASTERVARIABLES
  2
AcDbRasterVariables
  3
ISM
 90
0
 91
0
280
0
281
0
  0
CLASS
  1
LAYOUT
  2
AcDbLayout
  3
ObjectDBX Classes
 90
0
 91
0
280
0
281
0
  0
CLASS
  1
ACDBPLACEHOLDER
  2
AcDbPlaceHolder
  3
ObjectDBX Classes
 90
0
 91
0
280
0
281
0
  0
ENDSEC
  0
SECTION
  2
TABLES
  0
TABLE
  2
VPORT
  5
8
330
0
100
AcDbSymbolTable
 70
1
  0
VPORT
  5
11C
330
8
100
AcDbSymbolTableRecord
100
AcDbViewportTableRecord
  2
*Active
 70
0
 10
0.0
 20
0.0
 11
1.0
 21
1.0
 12
1.8189894035458565e-12
 22
-351.91799308531336
 13
0.0
 23
0.0
 14
0.5
 24
0.5
 15
0.5
 25
0.5
 16
0.0
 26
0.0
 36
1.0
 17
0.0
 27
0.0
 37
0.0
 40
10507.780895996117
 41
1.34
 42
50.0
 43
0.0
 44
0.0
 50
0.0
 51
0.0
 71
0
 72
1000
 73
1
 74
3
 75
0
 76
0
 77
0
 78
0
281
0
 65
1
110
0.0
120
0.0
130
0.0
111
1.0
121
0.0
131
0.0
112
0.0
122
1.0
132
0.0
 79
0
146
0.0
  0
ENDTAB
  0
TABLE
  2
LTYPE
  5
2
330
0
100
AcDbSymbolTable
 70
3
  0
LTYPE
  5
24
330
2
100
AcDbSymbolTableRecord
100
AcDbLinetypeTableRecord
  2
ByBlock
 70
0
  3

 72
65
 73
0
 40
0.0
  0
LTYPE
  5
25
330
2
100
AcDbSymbolTableRecord
100
AcDbLinetypeTableRecord
  2
ByLayer
 70
0
  3

 72
65
 73
0
 40
0.0
  0
LTYPE
  5
26
330
2
100
AcDbSymbolTableRecord
100
AcDbLinetypeTableRecord
  2
Continuous
 70
0
  3

 72
65
 73
0
 40
0.0
  0
ENDTAB
  0
TABLE
  2
LAYER
  5
1
330
0
100
AcDbSymbolTable
 70
3
  0
LAYER
  5
27
330
1
100
AcDbSymbolTableRecord
100
AcDbLayerTableRecord
  2
0
 70
0
 62
7
  6
Continuous
370
-3
390
13
347
21
  0
LAYER
  5
28
330
1
100
AcDbSymbolTableRecord
100
AcDbLayerTableRecord
  2
Defpoints
 70
0
 62
7
  6
Continuous
290
0
370
-3
390
13
347
21
  0
LAYER
  5
2F
330
1
100
AcDbSymbolTableRecord
100
AcDbLayerTableRecord
  2
visible
 70
0
 62
7
  6
Continuous
370
-3
390
13
347
21
  0
ENDTAB
  0
TABLE
  2
STYLE
  5
5
330
0
100
AcDbSymbolTable
 70
1
  0
STYLE
  5
29
330
5
100
AcDbSymbolTableRecord
100
AcDbTextStyleTableRecord
  2
Standard
 70
0
 40
0.0
 41
1.0
 50
0.0
 71
0
 42
2.5
  3
txt
  4

  0
ENDTAB
  0
TABLE
  2
VIEW
  5
7
330
0
100
AcDbSymbolTable
 70
0
  0
ENDTAB
  0
TABLE
  2
UCS
  5
6
330
0
100
AcDbSymbolTable
 70
0
  0
ENDTAB
  0
TABLE
  2
APPID
  5
3
330
0
100
AcDbSymbolTable
 70
3
  0
APPID
  5
2A
330
3
100
AcDbSymbolTableRecord
100
AcDbRegAppTableRecord
  2
ACAD
 70
0
  0
APPID
  5
11D
330
3
100
AcDbSymbolTableRecord
100
AcDbRegAppTableRecord
  2
HATCHBACKGROUNDCOLOR
 70
0
  0
APPID
  5
11E
330
3
100
AcDbSymbolTableRecord
100
AcDbRegAppTableRecord
  2
EZDXF
 70
0
  0
ENDTAB
  0
TABLE
  2
DIMSTYLE
  5
4
330
0
100
AcDbSymbolTable
 70
1
100
AcDbDimStyleTable
  0
DIMSTYLE
105
2B
330
4
100
AcDbSymbolTableRecord
100
AcDbDimStyleTableRecord
  2
Standard
 70
0
 40
1.0
 41
2.5
 42
0.625
 43
3.75
 44
1.25
 45
0.0
 46
0.0
 47
0.0
 48
0.0
 49
2.5
140
2.5
141
2.5
142
0.0
143
0.03937007874
144
1.0
145
0.0
146
1.0
147
0.625
148
0.0
 69
0
 70
0
 71
0
 72
0
 73
0
 74
0
 75
0
 76
0
 77
1
 78
8
 79
3
170
0
171
3
172
1
173
0
174
0
175
0
176
0
177
0
178
0
179
2
271
2
272
2
273
2
274
3
275
0
276
0
277
2
278
44
279
0
280
0
281
0
282
0
283
0
284
8
285
0
286
0
288
0
289
3
290
0
371
-2
372
-2
  0
ENDTAB
  0
TABLE
  2
BLOCK_RECORD
  5
9
330
0
100
AcDbSymbolTable
 70
2
  0
BLOCK_RECORD
  5
17
330
9
100
AcDbSymbolTableRecord
100
AcDbBlockTableRecord
  2
*Model_Space
340
1A
 70
0
280
1
281
0
  0
BLOCK_RECORD
  5
1B
330
9
100
AcDbSymbolTableRecord
100
AcDbBlockTableRecord
  2
*Paper_Space
340
1E
 70
0
280
1
281
0
  0
ENDTAB
  0
ENDSEC
  0
SECTION
  2
BLOCKS
  0
BLOCK
  5
18
330
17
100
AcDbEntity
  8
0
100
AcDbBlockBegin
  2
*Model_Space
 70
0
 10
0.0
 20
0.0
 30
0.0
  3
*Model_Space
  1

  0
ENDBLK
  5
19
330
17
100
AcDbEntity
  8
0
100
AcDbBlockEnd
  0
BLOCK
  5
1C
330
1B
100
AcDbEntity
  8
0
100
AcDbBlockBegin
  2
*Paper_Space
 70
0
 10
0.0
 20
0.0
 30
0.0
  3
*Paper_Space
  1

  0
ENDBLK
  5
1D
330
1B
100
AcDbEntity
  8
0
100
AcDbBlockEnd
  0
ENDSEC
  0
SECTION
  2
ENTITIES
  0
LINE
  5
30
330
17
100
AcDbEntity
  8
visible
100
AcDbLine
 10
1544.5585050783152
 20
-5238.732013131965
 30
0.0
 11
2158.9460843480915
 21
-5011.773753329076
 31
0.0
  0
LINE
  5
31
330
17
100
AcDbEntity
  8
visible
100
AcDbLine
 10
1014.5047572283861
 20
-5567.5878393753355
 30
0.0
 11
1014.5047572283861
 21
-3162.671568958812
 31
0.0
  0
LINE
  5
32
330
17
100
AcDbEntity
  8
visible
100
AcDbLine
 10
1014.5047572283861
 20
-5567.5878393753355
 30
0.0
 11
-5918.360880530614
 21
-1565.9629548868006
 31
0.0
  0
LINE
  5
33
330
17
100
AcDbEntity
  8
visible
100
AcDbLine
 10
-5918.360880530614
 20
-1565.9629548868002
 30
0.0
 11
-5918.360880530614
 21
653.6885727403687
 31
0.0
  0
LINE
  5
34
330
17
100
AcDbEntity
  8
visible
100
AcDbLine
 10
-5512.309099620238
 20
-1668.1706130015168
 30
0.0
 11
-3951.8208708292864
 21
-2568.8787551399523
 31
0.0
  0
LINE
  5
35
330
17
100
AcDbEntity
  8
visible
100
AcDbLine
 10
-5512.309099620238
 20
-1668.1706130015161
 30
0.0
 11
-5512.309099620238
 21
552.8934551610232
 31
0.0
  0
LINE
  5
36
330
17
100
AcDbEntity
  8
visible
100
AcDbLine
 10
-5512.309099620238
 20
552.8934551610223
 30
0.0
 11
-5373.0021040156025
 21
472.48596288845647
 31
0.0
  0
LINE
  5
37
330
17
100
AcDbEntity
  8
visible
100
AcDbLine
 10
-5240.220082373763
 20
395.84466190596186
 30
0.0
 11
-4826.393937405481
 21
156.98571294004478
 31
0.0
  0
LINE
  5
38
330
17
100
AcDbEntity
  8
visible
100
AcDbLine
 10
-4693.611915763641
 20
80.34441195755062
 30
0.0
 11
-4279.78577079536
 21
-158.51453700836623
 31
0.0
  0
LINE
  5
39
330
17
100
AcDbEntity
  8
visible
100
AcDbLine
 10
-4147.0037491535195
 20
-235.15583799086107
 30
0.0
 11
-3951.8208708292864
 21
-347.8146869774132
 31
0.0
  0
LINE
  5
3A
330
17
100
AcDbEntity
  8
visible
100
AcDbLine
 10
-3951.820870829287
 20
-2568.878755139952
 30
0.0
 11
-3951.820870829287
 21
-347.8146869774123
 31
0.0
  0
LINE
  5
3B
330
17
100
AcDbEntity
  8
visible
100
AcDbLine
 10
-3825.632471223293
 20
-2641.714241413757
 30
0.0
 11
-1015.7541473234928
 21
-4263.565812005704
 31
0.0
  0
LINE
  5
3C
330
17
100
AcDbEntity
  8
visible
100
AcDbLine
 10
-3825.6324712232927
 20
-2641.714241413757
 30
0.0
 11
-3825.6324712232927
 21
-420.65017325121744
 31
0.0
  0
LINE
  5
3D
330
17
100
AcDbEntity
  8
visible
100
AcDbLine
 10
-1015.7541473234928
 20
-4263.565812005704
 30
0.0
 11
-1015.7541473234928
 21
-2042.501743843165
 31
0.0
  0
LINE
  5
3E
330
17
100
AcDbEntity
  8
visible
100
AcDbLine
 10
-3825.632471223293
 20
-420.65017325121744
 30
0.0
 11
-3733.1776041852377
 21
-474.0147869567777
 31
0.0
  0
LINE
  5
3F
330
17
100
AcDbEntity
  8
visible
100
AcDbLine
 10
-3600.3955825433986
 20
-550.6560879392719
 30
0.0
 11
-3186.5694375751173
 21
-789.5150369051887
 31
0.0
  0
LINE
  5
40
330
17
100
AcDbEntity
  8
visible
100
AcDbLine
 10
-3053.7874159332773
 20
-866.1563378876833
 30
0.0
 11
-2639.961270964996
 21
-1105.0152868536
 31
0.0
  0
LINE
  5
41
330
17
100
AcDbEntity
  8
visible
100
AcDbLine
 10
-2507.179249323156
 20
-1181.6565878360943
 30
0.0
 11
-2093.3531043548746
 21
-1420.5155368020114
 31
0.0
  0
LINE
  5
42
330
17
100
AcDbEntity
  8
visible
100
AcDbLine
 10
-1960.5710827130347
 20
-1497.1568377845058
 30
0.0
 11
-1546.7449377447535
 21
-1736.0157867504226
 31
0.0
  0
LINE
  5
43
330
17
100
AcDbEntity
  8
visible
100
AcDbLine
 10
-1413.9629161029138
 20
-1812.6570877329168
 30
0.0
 11
-1015.7541473234928
 21
-2042.501743843165
 31
0.0
  0
LINE
  5
44
330
17
100
AcDbEntity
  8
visible
100
AcDbLine
 10
-889.565747717499
 20
-4336.401298279509
 30
0.0
 11
670.9224810734528
 21
-5237.109440417945
 31
0.0
  0
LINE
  5
45
330
17
100
AcDbEntity
  8
visible
100
AcDbLine
 10
-889.5657477174991
 20
-4336.401298279508
 30
0.0
 11
-889.5657477174991
 21
-2157.5326664594068
 31
0.0
  0
LINE
  5
46
330
17
100
AcDbEntity
  8
visible
100
AcDbLine
 10
670.9224810734528
 20
-5237.109440417944
 30
0.0
 11
670.9224810734528
 21
-3149.6218689234493
 31
0.0
  0
LINE
  5
47
330
17
100
AcDbEntity
  8
visible
100
AcDbLine
 10
-867.3547494927917
 20
-2128.1573376813285
 30
0.0
 11
-453.5286045245108
 21
-2367.016286647245
 31
0.0
  0
LINE
  5
48
330
17
100
AcDbEntity
  8
visible
100
AcDbLine
 10
-320.74658288267085
 20
-2443.6575876297397
 30
0.0
 11
93.0795620856104
 21
-2682.5165365956564
 31
0.0
  0
LINE
  5
49
330
17
100
AcDbEntity
  8
visible
100
AcDbLine
 10
225.86158372745035
 20
-2759.157837578151
 30
0.0
 11
639.6877286957316
 21
-2998.0167865440676
 31
0.0
  0
LINE
  5
4A
330
17
100
AcDbEntity
  8
visible
100
AcDbLine
 10
1014.5047572283861
 20
-5567.5878393753355
 30
0.0
 11
1169.8976503075492
 21
-5510.184822470436
 31
0.0
  0
LINE
  5
4B
330
17
100
AcDbEntity
  8
visible
100
AcDbLine
 10
1169.8976503075492
 20
-5510.184822470435
 30
0.0
 11
1169.8976503075492
 21
-3252.363782872717
 31
0.0
  0
LINE
  5
4C
330
17
100
AcDbEntity
  8
visible
100
AcDbLine
 10
-5512.309099620239
 20
-1668.1706130015168
 30
0.0
 11
-5356.916206541076
 21
-1610.7675960966174
 31
0.0
  0
LINE
  5
4D
330
17
100
AcDbEntity
  8
visible
100
AcDbLine
 10
-5356.916206541076
 20
-1610.7675960966176
 30
0.0
 11
-3951.820870829287
 21
-2421.7835243211475
 31
0.0
  0
LINE
  5
4E
330
17
100
AcDbEntity
  8
visible
100
AcDbLine
 10
-5356.916206541076
 20
-1610.767596096617
 30
0.0
 11
-5356.916206541076
 21
329.6247445790725
 31
0.0
  0
LINE
  5
4F
330
17
100
AcDbEntity
  8
visible
100
AcDbLine
 10
-3825.6324712232927
 20
-2641.714241413757
 30
0.0
 11
-3670.2395781441296
 21
-2584.3112245088573
 31
0.0
  0
LINE
  5
50
330
17
100
AcDbEntity
  8
visible
100
AcDbLine
 10
-3670.23957814413
 20
-2584.311224508857
 30
0.0
 11
-1015.7541473234928
 21
-4116.470581186899
 31
0.0
  0
LINE
  5
51
330
17
100
AcDbEntity
  8
visible
100
AcDbLine
 10
-3670.23957814413
 20
-2584.3112245088573
 30
0.0
 11
-3670.23957814413
 21
-643.0288085702555
 31
0.0
  0
LINE
  5
52
330
17
100
AcDbEntity
  8
visible
100
AcDbLine
 10
-889.5657477174989
 20
-4336.401298279508
 30
0.0
 11
-734.1728546383358
 21
-4278.998281374609
 31
0.0
  0
LINE
  5
53
330
17
100
AcDbEntity
  8
visible
100
AcDbLine
 10
-734.1728546383359
 20
-4278.998281374609
 30
0.0
 11
670.9224810734528
 21
-5090.01420959914
 31
0.0
  0
LINE
  5
54
330
17
100
AcDbEntity
  8
visible
100
AcDbLine
 10
-734.172854638336
 20
-4278.998281374609
 30
0.0
 11
-734.172854638336
 21
-2205.029444030875
 31
0.0
  0
LINE
  5
55
330
17
100
AcDbEntity
  8
visible
100
AcDbLine
 10
1170.6785191169922
 20
-5509.8963650990545
 30
0.0
 11
1170.6785191169922
 21
-3252.814497515501
 31
0.0
  0
LINE
  5
56
330
17
100
AcDbEntity
  8
visible
100
AcDbLine
 10
1170.6785191169922
 20
-5509.8963650990545
 30
0.0
 11
1169.8976503075492
 21
-5509.445650456271
 31
0.0
  0
LINE
  5
57
330
17
100
AcDbEntity
  8
visible
100
AcDbLine
 10
-5356.135337731632
 20
-1610.4791387252358
 30
0.0
 11
-3951.820870829287
 21
-2421.0443523069825
 31
0.0
  0
LINE
  5
58
330
17
100
AcDbEntity
  8
visible
100
AcDbLine
 10
-5356.135337731633
 20
-1610.4791387252355
 30
0.0
 11
-5356.135337731633
 21
329.1740299362889
 31
0.0
  0
LINE
  5
59
330
17
100
AcDbEntity
  8
visible
100
AcDbLine
 10
-3669.4587093346872
 20
-2584.022767137476
 30
0.0
 11
-1015.7541473234928
 21
-4115.731409172735
 31
0.0
  0
LINE
  5
5A
330
17
100
AcDbEntity
  8
visible
100
AcDbLine
 10
-3669.4587093346872
 20
-2584.022767137476
 30
0.0
 11
-3669.4587093346872
 21
-641.9960644415198
 31
0.0
  0
LINE
  5
5B
330
17
100
AcDbEntity
  8
visible
100
AcDbLine
 10
-733.391985828893
 20
-4278.709824003228
 30
0.0
 11
670.9224810734527
 21
-5089.275037584975
 31
0.0
  0
LINE
  5
5C
330
17
100
AcDbEntity
  8
visible
100
AcDbLine
 10
-733.3919858288932
 20
-4278.709824003227
 30
0.0
 11
-733.3919858288932
 21
-2205.480158673658
 31
0.0
  0
LINE
  5
5D
330
17
100
AcDbEntity
  8
visible
100
AcDbLine
 10
1170.6785191169922
 20
-5509.8963650990545
 30
0.0
 11
1181.2983349254173
 21
-5505.9733448482675
 31
0.0
  0
LINE
  5
5E
330
17
100
AcDbEntity
  8
visible
100
AcDbLine
 10
-5356.135337731633
 20
-1610.4791387252358
 30
0.0
 11
-5264.46133950302
 21
-1576.6142433250586
 31
0.0
  0
LINE
  5
5F
330
17
100
AcDbEntity
  8
visible
100
AcDbLine
 10
-3669.4587093346863
 20
-2584.022767137476
 30
0.0
 11
-3577.7847111060755
 21
-2550.1578717372995
 31
0.0
  0
LINE
  5
60
330
17
100
AcDbEntity
  8
visible
100
AcDbLine
 10
-733.3919858288929
 20
-4278.709824003228
 30
0.0
 11
-641.717987600281
 21
-4244.844928603051
 31
0.0
  0
LINE
  5
61
330
17
100
AcDbEntity
  8
visible
100
AcDbLine
 10
5566.969916281253
 20
-924.4626066716937
 30
0.0
 11
5566.969916281253
 21
-914.4098672790519
 31
0.0
  0
LINE
  5
62
330
17
100
AcDbEntity
  8
visible
100
AcDbLine
 10
5566.969916281253
 20
-914.4098672790515
 30
0.0
 11
5473.265659148089
 21
-860.324110145038
 31
0.0
  0
LINE
  5
63
330
17
100
AcDbEntity
  8
visible
100
AcDbLine
 10
5178.359993076341
 20
-690.1056299970753
 30
0.0
 11
5166.384217036979
 21
-683.1932555311446
 31
0.0
  0
LINE
  5
64
330
17
100
AcDbEntity
  8
visible
100
AcDbLine
 10
5148.49649917518
 20
-672.868529701665
 30
0.0
 11
4981.258715809696
 21
-576.3394881034569
 31
0.0
  0
LINE
  5
65
330
17
100
AcDbEntity
  8
visible
100
AcDbLine
 10
5556.398797726684
 20
-918.314898487799
 30
0.0
 11
5566.969916281253
 21
-914.409867279052
 31
0.0
  0
LINE
  5
66
330
17
100
AcDbEntity
  8
visible
100
AcDbLine
 10
5567.750785090697
 20
-924.1741493003119
 30
0.0
 11
5567.750785090697
 21
-914.1214099076706
 31
0.0
  0
LINE
  5
67
330
17
100
AcDbEntity
  8
visible
100
AcDbLine
 10
5567.750785090697
 20
-914.1214099076706
 30
0.0
 11
5474.046527957533
 21
-860.0356527736571
 31
0.0
  0
LINE
  5
68
330
17
100
AcDbEntity
  8
visible
100
AcDbLine
 10
5065.5104619768945
 20
-624.2301181999893
 30
0.0
 11
4927.438361347412
 21
-544.5354028252459
 31
0.0
  0
LINE
  5
69
330
17
100
AcDbEntity
  8
visible
100
AcDbLine
 10
5762.187118642011
 20
-852.3482638263422
 30
0.0
 11
5762.187118642011
 21
-844.6249434634333
 31
0.0
  0
LINE
  5
6A
330
17
100
AcDbEntity
  8
visible
100
AcDbLine
 10
5567.750785090697
 20
-914.1214099076706
 30
0.0
 11
5759.743207546635
 21
-843.1983190669824
 31
0.0
  0
LINE
  5
6B
330
17
100
AcDbEntity
  8
visible
100
AcDbLine
 10
5762.967987451454
 20
-852.0598064549613
 30
0.0
 11
5762.967987451454
 21
-845.0807728494065
 31
0.0
  0
LINE
  5
6C
330
17
100
AcDbEntity
  8
visible
100
AcDbLine
 10
5566.969916281253
 20
-913.5228608620546
 30
0.0
 11
5566.969916281253
 21
-825.7092255792704
 31
0.0
  0
LINE
  5
6D
330
17
100
AcDbEntity
  8
visible
100
AcDbLine
 10
5566.969916281253
 20
-825.7092255792704
 30
0.0
 11
5473.26565914809
 21
-771.6234684452572
 31
0.0
  0
LINE
  5
6E
330
17
100
AcDbEntity
  8
visible
100
AcDbLine
 10
5566.969916281253
 20
-913.5228608620546
 30
0.0
 11
5473.26565914809
 21
-859.4371037280414
 31
0.0
  0
LINE
  5
6F
330
17
100
AcDbEntity
  8
visible
100
AcDbLine
 10
5042.940555757136
 20
-611.0550158406486
 30
0.0
 11
4926.657492537968
 21
-543.9368537796299
 31
0.0
  0
LINE
  5
70
330
17
100
AcDbEntity
  8
visible
100
AcDbLine
 10
5676.291549603277
 20
-873.1388288686576
 30
0.0
 11
5676.291549603277
 21
-794.4837110063651
 31
0.0
  0
LINE
  5
71
330
17
100
AcDbEntity
  8
visible
100
AcDbLine
 10
5566.969916281253
 20
-913.5228608620546
 30
0.0
 11
5676.291549603277
 21
-873.1388288686579
 31
0.0
  0
LINE
  5
72
330
17
100
AcDbEntity
  8
visible
100
AcDbLine
 10
5566.969916281253
 20
-825.7092255792704
 30
0.0
 11
5666.682886646785
 21
-788.8746882326079
 31
0.0
  0
LINE
  5
73
330
17
100
AcDbEntity
  8
visible
100
AcDbLine
 10
1336.8474017664691
 20
-5605.808441083372
 30
0.0
 11
1181.2983349254175
 21
-5516.02608424091
 31
0.0
  0
LINE
  5
74
330
17
100
AcDbEntity
  8
visible
100
AcDbLine
 10
1336.8474017664691
 20
-5605.808441083372
 30
0.0
 11
5928.356001291488
 21
-3909.6790973607126
 31
0.0
  0
LINE
  5
75
330
17
100
AcDbEntity
  8
visible
100
AcDbLine
 10
1336.8474017664691
 20
-3111.373170056682
 30
0.0
 11
1336.8474017664691
 21
-5605.808441083371
 31
0.0
  0
LINE
  5
76
330
17
100
AcDbEntity
  8
visible
100
AcDbLine
 10
1181.2983349254175
 20
-3258.944216657356
 30
0.0
 11
1181.2983349254175
 21
-5516.02608424091
 31
0.0
  0
LINE
  5
77
330
17
100
AcDbEntity
  8
visible
100
AcDbLine
 10
5928.356001291488
 20
-3909.679097360712
 30
0.0
 11
5928.356001291488
 21
-940.53701944775
 31
0.0
  0
LINE
  5
78
330
17
100
AcDbEntity
  8
visible
100
AcDbLine
 10
5925.912090196111
 20
-939.1103950512995
 30
0.0
 11
5721.425766789084
 21
-1014.6488038340902
 31
0.0
  0
LINE
  5
79
330
17
100
AcDbEntity
  8
visible
100
AcDbLine
 10
5721.425766789084
 20
-1014.6488038340904
 30
0.0
 11
3779.377977202816
 21
119.01467555295153
 31
0.0
  0
LINE
  5
7A
330
17
100
AcDbEntity
  8
visible
100
AcDbLine
 10
2323.865576902459
 20
-5109.034367524601
 30
0.0
 11
1544.5585050783147
 21
-5396.914824163243
 31
0.0
  0
LINE
  5
7B
330
17
100
AcDbEntity
  8
visible
100
AcDbLine
 10
2323.8655769024595
 20
-5109.0343675246
 30
0.0
 11
2323.8655769024595
 21
-2932.3206202119527
 31
0.0
  0
LINE
  5
7C
330
17
100
AcDbEntity
  8
visible
100
AcDbLine
 10
2323.865576902459
 20
-2932.3206202119522
 30
0.0
 11
1544.5585050783147
 21
-3220.2010768505943
 31
0.0
  0
LINE
  5
7D
330
17
100
AcDbEntity
  8
visible
100
AcDbLine
 10
1544.5585050783152
 20
-5396.914824163243
 30
0.0
 11
1544.5585050783152
 21
-3220.201076850595
 31
0.0
  0
LINE
  5
7E
330
17
100
AcDbEntity
  8
visible
100
AcDbLine
 10
5770.363023355059
 20
-849.328038208837
 30
0.0
 11
5566.945634095334
 21
-924.471576649028
 31
0.0
  0
LINE
  5
7F
330
17
100
AcDbEntity
  8
visible
100
AcDbLine
 10
2168.316510061408
 20
-5019.2520106821385
 30
0.0
 11
1544.5585050783154
 21
-5249.671758941605
 31
0.0
  0
LINE
  5
80
330
17
100
AcDbEntity
  8
visible
100
AcDbLine
 10
2168.316510061408
 20
-5019.252010682139
 30
0.0
 11
2168.316510061408
 21
-2989.781328591128
 31
0.0
  0
LINE
  5
81
330
17
100
AcDbEntity
  8
visible
100
AcDbLine
 10
2323.8655769024595
 20
-5109.034367524601
 30
0.0
 11
2168.316510061408
 21
-5019.252010682139
 31
0.0
  0
LINE
  5
82
330
17
100
AcDbEntity
  8
visible
100
AcDbLine
 10
-5918.360880530614
 20
-1418.128552053831
 30
0.0
 11
-5928.356001291486
 21
-1412.3594046262026
 31
0.0
  0
LINE
  5
83
330
17
100
AcDbEntity
  8
visible
100
AcDbLine
 10
-5928.356001291486
 20
844.7224629573517
 30
0.0
 11
-5928.356001291486
 21
-1412.3594046262028
 31
0.0
  0
LINE
  5
84
330
17
100
AcDbEntity
  8
visible
100
AcDbLine
 10
2167.6918150138536
 20
-5018.004432550914
 30
0.0
 11
2168.316510061408
 21
-5017.773666653809
 31
0.0
  0
LINE
  5
85
330
17
100
AcDbEntity
  8
visible
100
AcDbLine
 10
2167.6918150138536
 20
-5018.004432550914
 30
0.0
 11
2167.6918150138536
 21
-2990.0120944882333
 31
0.0
  0
LINE
  5
86
330
17
100
AcDbEntity
  8
visible
100
AcDbLine
 10
2158.9460843480915
 20
-5012.95642855174
 30
0.0
 11
2158.9460843480915
 21
-2993.242817047705
 31
0.0
  0
LINE
  5
87
330
17
100
AcDbEntity
  8
visible
100
AcDbLine
 10
2158.946084348091
 20
-5012.956428551739
 30
0.0
 11
2167.691815013853
 21
-5018.004432550914
 31
0.0
  0
LINE
  5
88
330
17
100
AcDbEntity
  8
visible
100
AcDbLine
 10
-643.5920727429445
 20
-4243.763213460371
 30
0.0
 11
-643.5920727429445
 21
-2257.3123425937547
 31
0.0
  0
LINE
  5
89
330
17
100
AcDbEntity
  8
visible
100
AcDbLine
 10
670.9224810734528
 20
-5002.496243122021
 30
0.0
 11
-643.5920727429444
 21
-4243.763213460371
 31
0.0
  0
LINE
  5
8A
330
17
100
AcDbEntity
  8
visible
100
AcDbLine
 10
-3579.6587962487383
 20
-2549.0761565946186
 30
0.0
 11
-3579.6587962487383
 21
-562.6252857280024
 31
0.0
  0
LINE
  5
8B
330
17
100
AcDbEntity
  8
visible
100
AcDbLine
 10
-1015.7541473234928
 20
-4028.9526147097818
 30
0.0
 11
-3579.658796248739
 21
-2549.0761565946195
 31
0.0
  0
LINE
  5
8C
330
17
100
AcDbEntity
  8
visible
100
AcDbLine
 10
-5266.335424645684
 20
-1575.5325281823784
 30
0.0
 11
-5266.335424645684
 21
361.3056124842051
 31
0.0
  0
LINE
  5
8D
330
17
100
AcDbEntity
  8
visible
100
AcDbLine
 10
-3951.820870829287
 20
-2334.265557844029
 30
0.0
 11
-5266.335424645684
 21
-1575.5325281823782
 31
0.0
  0
LINE
  5
8E
330
17
100
AcDbEntity
  8
visible
100
AcDbLine
 10
702.1572334511741
 20
-2984.15972467943
 30
0.0
 11
703.0910452403618
 21
-2982.924704621046
 31
0.0
  0
LINE
  5
8F
330
17
100
AcDbEntity
  8
visible
100
AcDbLine
 10
639.6877286957316
 20
-2948.1025532567546
 30
0.0
 11
640.6215404849196
 21
-2946.867533198371
 31
0.0
  0
LINE
  5
90
330
17
100
AcDbEntity
  8
visible
100
AcDbLine
 10
702.1572334511741
 20
-2984.15972467943
 30
0.0
 11
639.6877286957316
 21
-2948.102553256754
 31
0.0
  0
LINE
  5
91
330
17
100
AcDbEntity
  8
visible
100
AcDbLine
 10
702.1572334511741
 20
-3167.650454634788
 30
0.0
 11
702.1572334511741
 21
-2984.15972467943
 31
0.0
  0
LINE
  5
92
330
17
100
AcDbEntity
  8
visible
100
AcDbLine
 10
799.6776107687715
 20
-3038.6741196999606
 30
0.0
 11
702.1572334511734
 21
-3167.650454634788
 31
0.0
  0
LINE
  5
93
330
17
100
AcDbEntity
  8
visible
100
AcDbLine
 10
639.6877286957316
 20
-3131.5932832121125
 30
0.0
 11
639.6877286957316
 21
-2948.1025532567546
 31
0.0
  0
LINE
  5
94
330
17
100
AcDbEntity
  8
visible
100
AcDbLine
 10
702.1572334511741
 20
-3167.650454634788
 30
0.0
 11
639.6877286957316
 21
-3131.593283212112
 31
0.0
  0
LINE
  5
95
330
17
100
AcDbEntity
  8
visible
100
AcDbLine
 10
5471.668356413046
 20
-860.9141628436207
 30
0.0
 11
3783.542916995922
 21
124.52304913101466
 31
0.0
  0
LINE
  5
96
330
17
100
AcDbEntity
  8
visible
100
AcDbLine
 10
5471.668356413047
 20
-860.9141628436214
 30
0.0
 11
5473.26565914809
 21
-860.3241101450387
 31
0.0
  0
LINE
  5
97
330
17
100
AcDbEntity
  8
visible
100
AcDbLine
 10
5474.046527957533
 20
-860.0356527736574
 30
0.0
 11
5474.046527957533
 21
-860.7748247878217
 31
0.0
  0
LINE
  5
98
330
17
100
AcDbEntity
  8
visible
100
AcDbLine
 10
5474.046527957533
 20
-860.0356527736573
 30
0.0
 11
5474.202701719421
 21
-859.9779612993811
 31
0.0
  0
LINE
  5
99
330
17
100
AcDbEntity
  8
visible
100
AcDbLine
 10
5473.265659148089
 20
-771.6234684452565
 30
0.0
 11
5473.265659148089
 21
-859.4371037280407
 31
0.0
  0
LINE
  5
9A
330
17
100
AcDbEntity
  8
visible
100
AcDbLine
 10
5473.265659148089
 20
-771.6234684452569
 30
0.0
 11
5571.117423095623
 21
-735.476471315903
 31
0.0
  0
LINE
  5
9B
330
17
100
AcDbEntity
  8
visible
100
AcDbLine
 10
3879.7976107871345
 20
251.82544445536558
 30
0.0
 11
5571.117423095623
 21
-735.4764713159027
 31
0.0
  0
LINE
  5
9C
330
17
100
AcDbEntity
  8
visible
100
AcDbLine
 10
5409.198851657604
 20
-824.8569914209454
 30
0.0
 11
5166.384217036979
 21
-683.1148133931051
 31
0.0
  0
LINE
  5
9D
330
17
100
AcDbEntity
  8
visible
100
AcDbLine
 10
5148.701721289572
 20
-672.7927194875156
 30
0.0
 11
3783.3282715848163
 21
124.23916816996507
 31
0.0
  0
LINE
  5
9E
330
17
100
AcDbEntity
  8
visible
100
AcDbLine
 10
5409.198851657604
 20
-824.8569914209452
 30
0.0
 11
5471.668356413046
 21
-860.9141628436207
 31
0.0
  0
LINE
  5
9F
330
17
100
AcDbEntity
  8
visible
100
AcDbLine
 10
6043.299890041501
 20
-1194.60203438598
 30
0.0
 11
5928.356001291488
 21
-1127.5039487707036
 31
0.0
  0
LINE
  5
A0
330
17
100
AcDbEntity
  8
visible
100
AcDbLine
 10
6043.299890041501
 20
-1011.1113044306221
 30
0.0
 11
6043.299890041501
 21
-1194.6020343859802
 31
0.0
  0
LINE
  5
A1
330
17
100
AcDbEntity
  8
visible
100
AcDbLine
 10
5928.356001291488
 20
-944.0132188153461
 30
0.0
 11
6043.2998900415005
 21
-1011.1113044306223
 31
0.0
  0
LINE
  5
A2
330
17
100
AcDbEntity
  8
visible
100
AcDbLine
 10
5980.830385286059
 20
-1158.5448629633047
 30
0.0
 11
5928.356001291488
 21
-1127.9131282258961
 31
0.0
  0
LINE
  5
A3
330
17
100
AcDbEntity
  8
visible
100
AcDbLine
 10
6043.299890041501
 20
-1194.60203438598
 30
0.0
 11
5980.830385286059
 21
-1158.5448629633045
 31
0.0
  0
LINE
  5
A4
330
17
100
AcDbEntity
  8
visible
100
AcDbLine
 10
155.54906684105276
 20
-2668.6594747310187
 30
0.0
 11
156.4828786302406
 21
-2667.424454672635
 31
0.0
  0
LINE
  5
A5
330
17
100
AcDbEntity
  8
visible
100
AcDbLine
 10
93.0795620856104
 20
-2632.6023033083434
 30
0.0
 11
94.0133738747983
 21
-2631.3672832499597
 31
0.0
  0
LINE
  5
A6
330
17
100
AcDbEntity
  8
visible
100
AcDbLine
 10
155.54906684105276
 20
-2668.6594747310187
 30
0.0
 11
93.07956208561033
 21
-2632.602303308343
 31
0.0
  0
LINE
  5
A7
330
17
100
AcDbEntity
  8
visible
100
AcDbLine
 10
155.54906684105276
 20
-2852.1502046863766
 30
0.0
 11
155.54906684105276
 21
-2668.6594747310182
 31
0.0
  0
LINE
  5
A8
330
17
100
AcDbEntity
  8
visible
100
AcDbLine
 10
253.06944415865064
 20
-2723.17386975155
 30
0.0
 11
155.54906684105254
 21
-2852.150204686377
 31
0.0
  0
LINE
  5
A9
330
17
100
AcDbEntity
  8
visible
100
AcDbLine
 10
93.0795620856104
 20
-2816.0930332637013
 30
0.0
 11
93.0795620856104
 21
-2632.602303308343
 31
0.0
  0
LINE
  5
AA
330
17
100
AcDbEntity
  8
visible
100
AcDbLine
 10
155.54906684105276
 20
-2852.1502046863766
 30
0.0
 11
93.07956208561033
 21
-2816.093033263701
 31
0.0
  0
LINE
  5
AB
330
17
100
AcDbEntity
  8
visible
100
AcDbLine
 10
4927.438361347412
 20
-544.5354028252457
 30
0.0
 11
4927.438361347412
 21
-544.9028635377497
 31
0.0
  0
LINE
  5
AC
330
17
100
AcDbEntity
  8
visible
100
AcDbLine
 10
4927.438361347411
 20
-544.5354028252456
 30
0.0
 11
4927.594535109299
 21
-544.4777113509697
 31
0.0
  0
LINE
  5
AD
330
17
100
AcDbEntity
  8
visible
100
AcDbLine
 10
4926.657492537968
 20
-543.1751918992875
 30
0.0
 11
4926.657492537968
 21
-543.936853779629
 31
0.0
  0
LINE
  5
AE
330
17
100
AcDbEntity
  8
visible
100
AcDbLine
 10
-391.05909976906855
 20
-2353.1592247826075
 30
0.0
 11
-390.1252879798806
 21
-2351.9242047242237
 31
0.0
  0
LINE
  5
AF
330
17
100
AcDbEntity
  8
visible
100
AcDbLine
 10
-453.5286045245109
 20
-2317.102053359932
 30
0.0
 11
-452.5947927353229
 21
-2315.8670333015484
 31
0.0
  0
LINE
  5
B0
330
17
100
AcDbEntity
  8
visible
100
AcDbLine
 10
-391.05909976906855
 20
-2353.1592247826075
 30
0.0
 11
-453.52860452451097
 21
-2317.1020533599317
 31
0.0
  0
LINE
  5
B1
330
17
100
AcDbEntity
  8
visible
100
AcDbLine
 10
-391.05909976906855
 20
-2536.6499547379653
 30
0.0
 11
-391.05909976906855
 21
-2353.1592247826075
 31
0.0
  0
LINE
  5
B2
330
17
100
AcDbEntity
  8
visible
100
AcDbLine
 10
-293.53872245147113
 20
-2407.673619803139
 30
0.0
 11
-391.05909976906923
 21
-2536.6499547379663
 31
0.0
  0
LINE
  5
B3
330
17
100
AcDbEntity
  8
visible
100
AcDbLine
 10
-453.5286045245109
 20
-2500.59278331529
 30
0.0
 11
-453.5286045245109
 21
-2317.102053359932
 31
0.0
  0
LINE
  5
B4
330
17
100
AcDbEntity
  8
visible
100
AcDbLine
 10
-391.05909976906855
 20
-2536.6499547379653
 30
0.0
 11
-453.52860452451097
 21
-2500.5927833152896
 31
0.0
  0
LINE
  5
B5
330
17
100
AcDbEntity
  8
visible
100
AcDbLine
 10
-937.6672663791896
 20
-2037.6589748341962
 30
0.0
 11
-936.7334545900018
 21
-2036.4239547758125
 31
0.0
  0
LINE
  5
B6
330
17
100
AcDbEntity
  8
visible
100
AcDbLine
 10
-1000.136771134632
 20
-2001.6018034115205
 30
0.0
 11
-999.2029593454442
 21
-2000.366783353137
 31
0.0
  0
LINE
  5
B7
330
17
100
AcDbEntity
  8
visible
100
AcDbLine
 10
-937.6672663791896
 20
-2037.6589748341962
 30
0.0
 11
-1000.1367711346321
 21
-2001.6018034115207
 31
0.0
  0
LINE
  5
B8
330
17
100
AcDbEntity
  8
visible
100
AcDbLine
 10
-937.6672663791896
 20
-2221.149704789554
 30
0.0
 11
-937.6672663791896
 21
-2037.658974834196
 31
0.0
  0
LINE
  5
B9
330
17
100
AcDbEntity
  8
visible
100
AcDbLine
 10
-840.146889061592
 20
-2092.1733698547273
 30
0.0
 11
-937.6672663791901
 21
-2221.1497047895546
 31
0.0
  0
LINE
  5
BA
330
17
100
AcDbEntity
  8
visible
100
AcDbLine
 10
-1000.136771134632
 20
-2185.0925333668783
 30
0.0
 11
-1000.136771134632
 21
-2001.6018034115202
 31
0.0
  0
LINE
  5
BB
330
17
100
AcDbEntity
  8
visible
100
AcDbLine
 10
-937.6672663791896
 20
-2221.149704789554
 30
0.0
 11
-1000.1367711346321
 21
-2185.0925333668783
 31
0.0
  0
LINE
  5
BC
330
17
100
AcDbEntity
  8
visible
100
AcDbLine
 10
-1484.275432989311
 20
-1722.158724885785
 30
0.0
 11
-1483.341621200123
 21
-1720.9237048274013
 31
0.0
  0
LINE
  5
BD
330
17
100
AcDbEntity
  8
visible
100
AcDbLine
 10
-1546.7449377447533
 20
-1686.1015534631097
 30
0.0
 11
-1545.8111259555653
 21
-1684.8665334047257
 31
0.0
  0
LINE
  5
BE
330
17
100
AcDbEntity
  8
visible
100
AcDbLine
 10
-1484.275432989311
 20
-1722.158724885785
 30
0.0
 11
-1546.7449377447533
 21
-1686.1015534631094
 31
0.0
  0
LINE
  5
BF
330
17
100
AcDbEntity
  8
visible
100
AcDbLine
 10
-1484.275432989311
 20
-1905.6494548411429
 30
0.0
 11
-1484.275432989311
 21
-1722.1587248857847
 31
0.0
  0
LINE
  5
C0
330
17
100
AcDbEntity
  8
visible
100
AcDbLine
 10
-1386.7550556717133
 20
-1776.6731199063156
 30
0.0
 11
-1484.2754329893114
 21
-1905.6494548411429
 31
0.0
  0
LINE
  5
C1
330
17
100
AcDbEntity
  8
visible
100
AcDbLine
 10
-1546.7449377447533
 20
-1869.5922834184676
 30
0.0
 11
-1546.7449377447533
 21
-1686.1015534631094
 31
0.0
  0
LINE
  5
C2
330
17
100
AcDbEntity
  8
visible
100
AcDbLine
 10
-1484.275432989311
 20
-1905.6494548411429
 30
0.0
 11
-1546.7449377447533
 21
-1869.5922834184673
 31
0.0
  0
LINE
  5
C3
330
17
100
AcDbEntity
  8
visible
100
AcDbLine
 10
-2030.8835995994323
 20
-1406.6584749373737
 30
0.0
 11
-2029.9497878102443
 21
-1405.42345487899
 31
0.0
  0
LINE
  5
C4
330
17
100
AcDbEntity
  8
visible
100
AcDbLine
 10
-2093.3531043548746
 20
-1370.601303514698
 30
0.0
 11
-2092.4192925656866
 21
-1369.3662834563145
 31
0.0
  0
LINE
  5
C5
330
17
100
AcDbEntity
  8
visible
100
AcDbLine
 10
-2030.8835995994323
 20
-1406.6584749373737
 30
0.0
 11
-2093.3531043548746
 21
-1370.6013035146982
 31
0.0
  0
LINE
  5
C6
330
17
100
AcDbEntity
  8
visible
100
AcDbLine
 10
-2030.8835995994323
 20
-1590.1492048927316
 30
0.0
 11
-2030.8835995994323
 21
-1406.6584749373735
 31
0.0
  0
LINE
  5
C7
330
17
100
AcDbEntity
  8
visible
100
AcDbLine
 10
-1933.3632222818346
 20
-1461.1728699579048
 30
0.0
 11
-2030.8835995994327
 21
-1590.149204892732
 31
0.0
  0
LINE
  5
C8
330
17
100
AcDbEntity
  8
visible
100
AcDbLine
 10
-2093.3531043548746
 20
-1554.0920334700559
 30
0.0
 11
-2093.3531043548746
 21
-1370.6013035146977
 31
0.0
  0
LINE
  5
C9
330
17
100
AcDbEntity
  8
visible
100
AcDbLine
 10
-2030.8835995994323
 20
-1590.1492048927316
 30
0.0
 11
-2093.3531043548746
 21
-1554.092033470056
 31
0.0
  0
LINE
  5
CA
330
17
100
AcDbEntity
  8
visible
100
AcDbLine
 10
-2577.4917662095536
 20
-1091.1582249889625
 30
0.0
 11
-2576.5579544203656
 21
-1089.9232049305785
 31
0.0
  0
LINE
  5
CB
330
17
100
AcDbEntity
  8
visible
100
AcDbLine
 10
-2639.961270964996
 20
-1055.1010535662872
 30
0.0
 11
-2639.027459175808
 21
-1053.8660335079032
 31
0.0
  0
LINE
  5
CC
330
17
100
AcDbEntity
  8
visible
100
AcDbLine
 10
-2577.4917662095536
 20
-1091.1582249889625
 30
0.0
 11
-2639.961270964996
 21
-1055.101053566287
 31
0.0
  0
LINE
  5
CD
330
17
100
AcDbEntity
  8
visible
100
AcDbLine
 10
-2577.4917662095536
 20
-1274.6489549443204
 30
0.0
 11
-2577.4917662095536
 21
-1091.1582249889623
 31
0.0
  0
LINE
  5
CE
330
17
100
AcDbEntity
  8
visible
100
AcDbLine
 10
-2479.9713888919564
 20
-1145.6726200094936
 30
0.0
 11
-2577.491766209554
 21
-1274.6489549443204
 31
0.0
  0
LINE
  5
CF
330
17
100
AcDbEntity
  8
visible
100
AcDbLine
 10
-2639.961270964996
 20
-1238.591783521645
 30
0.0
 11
-2639.961270964996
 21
-1055.101053566287
 31
0.0
  0
LINE
  5
D0
330
17
100
AcDbEntity
  8
visible
100
AcDbLine
 10
-2577.4917662095536
 20
-1274.6489549443204
 30
0.0
 11
-2639.961270964996
 21
-1238.5917835216449
 31
0.0
  0
LINE
  5
D1
330
17
100
AcDbEntity
  8
visible
100
AcDbLine
 10
-3124.099932819675
 20
-775.6579750405508
 30
0.0
 11
-3123.1661210304874
 21
-774.4229549821674
 31
0.0
  0
LINE
  5
D2
330
17
100
AcDbEntity
  8
visible
100
AcDbLine
 10
-3186.5694375751173
 20
-739.6008036178755
 30
0.0
 11
-3185.6356257859293
 21
-738.3657835594917
 31
0.0
  0
LINE
  5
D3
330
17
100
AcDbEntity
  8
visible
100
AcDbLine
 10
-3124.099932819675
 20
-775.6579750405508
 30
0.0
 11
-3186.5694375751173
 21
-739.6008036178753
 31
0.0
  0
LINE
  5
D4
330
17
100
AcDbEntity
  8
visible
100
AcDbLine
 10
-3124.099932819675
 20
-959.1487049959087
 30
0.0
 11
-3124.099932819675
 21
-775.6579750405506
 31
0.0
  0
LINE
  5
D5
330
17
100
AcDbEntity
  8
visible
100
AcDbLine
 10
-3026.5795555020773
 20
-830.1723700610823
 30
0.0
 11
-3124.0999328196754
 21
-959.1487049959096
 31
0.0
  0
LINE
  5
D6
330
17
100
AcDbEntity
  8
visible
100
AcDbLine
 10
-3186.5694375751173
 20
-923.0915335732334
 30
0.0
 11
-3186.5694375751173
 21
-739.6008036178753
 31
0.0
  0
LINE
  5
D7
330
17
100
AcDbEntity
  8
visible
100
AcDbLine
 10
-3124.099932819675
 20
-959.1487049959087
 30
0.0
 11
-3186.5694375751173
 21
-923.0915335732332
 31
0.0
  0
LINE
  5
D8
330
17
100
AcDbEntity
  8
visible
100
AcDbLine
 10
-3670.7080994297958
 20
-460.15772509214
 30
0.0
 11
-3669.774287640608
 21
-458.92270503375585
 31
0.0
  0
LINE
  5
D9
330
17
100
AcDbEntity
  8
visible
100
AcDbLine
 10
-3733.177604185238
 20
-424.1005536694647
 30
0.0
 11
-3732.24379239605
 21
-422.86553361108054
 31
0.0
  0
LINE
  5
DA
330
17
100
AcDbEntity
  8
visible
100
AcDbLine
 10
-3670.7080994297958
 20
-460.15772509214
 30
0.0
 11
-3733.177604185238
 21
-424.10055366946443
 31
0.0
  0
LINE
  5
DB
330
17
100
AcDbEntity
  8
visible
100
AcDbLine
 10
-3670.7080994297958
 20
-643.6484550474979
 30
0.0
 11
-3670.7080994297958
 21
-460.1577250921398
 31
0.0
  0
LINE
  5
DC
330
17
100
AcDbEntity
  8
visible
100
AcDbLine
 10
-3573.187722112198
 20
-514.6721201126707
 30
0.0
 11
-3670.708099429796
 21
-643.6484550474979
 31
0.0
  0
LINE
  5
DD
330
17
100
AcDbEntity
  8
visible
100
AcDbLine
 10
-3733.177604185238
 20
-607.5912836248226
 30
0.0
 11
-3733.177604185238
 21
-424.1005536694645
 31
0.0
  0
LINE
  5
DE
330
17
100
AcDbEntity
  8
visible
100
AcDbLine
 10
-3670.7080994297958
 20
-643.6484550474979
 30
0.0
 11
-3733.177604185238
 21
-607.5912836248224
 31
0.0
  0
LINE
  5
DF
330
17
100
AcDbEntity
  8
visible
100
AcDbLine
 10
-4217.3162660399175
 20
-144.65747514372924
 30
0.0
 11
-4216.382454250729
 21
-143.42245508534472
 31
0.0
  0
LINE
  5
E0
330
17
100
AcDbEntity
  8
visible
100
AcDbLine
 10
-4279.78577079536
 20
-108.60030372105302
 30
0.0
 11
-4278.851959006172
 21
-107.36528366266924
 31
0.0
  0
LINE
  5
E1
330
17
100
AcDbEntity
  8
visible
100
AcDbLine
 10
-4217.3162660399175
 20
-144.65747514372924
 30
0.0
 11
-4279.78577079536
 21
-108.60030372105368
 31
0.0
  0
LINE
  5
E2
330
17
100
AcDbEntity
  8
visible
100
AcDbLine
 10
-4217.3162660399175
 20
-328.14820509908714
 30
0.0
 11
-4217.3162660399175
 21
-144.65747514372902
 31
0.0
  0
LINE
  5
E3
330
17
100
AcDbEntity
  8
visible
100
AcDbLine
 10
-4119.795888722319
 20
-199.17187016425896
 30
0.0
 11
-4217.3162660399175
 21
-328.14820509908714
 31
0.0
  0
LINE
  5
E4
330
17
100
AcDbEntity
  8
visible
100
AcDbLine
 10
-4279.78577079536
 20
-292.0910336764109
 30
0.0
 11
-4279.78577079536
 21
-108.6003037210528
 31
0.0
  0
LINE
  5
E5
330
17
100
AcDbEntity
  8
visible
100
AcDbLine
 10
-4217.3162660399175
 20
-328.14820509908714
 30
0.0
 11
-4279.78577079536
 21
-292.09103367641154
 31
0.0
  0
LINE
  5
E6
330
17
100
AcDbEntity
  8
visible
100
AcDbLine
 10
-4763.924432650038
 20
170.84277480468245
 30
0.0
 11
-4762.99062086085
 21
172.0777948630666
 31
0.0
  0
LINE
  5
E7
330
17
100
AcDbEntity
  8
visible
100
AcDbLine
 10
-4826.393937405481
 20
206.89994622735867
 30
0.0
 11
-4825.460125616293
 21
208.13496628574245
 31
0.0
  0
LINE
  5
E8
330
17
100
AcDbEntity
  8
visible
100
AcDbLine
 10
-4763.924432650038
 20
170.84277480468245
 30
0.0
 11
-4826.393937405481
 21
206.89994622735801
 31
0.0
  0
LINE
  5
E9
330
17
100
AcDbEntity
  8
visible
100
AcDbLine
 10
-4763.924432650038
 20
-12.647955150675443
 30
0.0
 11
-4763.924432650038
 21
170.84277480468268
 31
0.0
  0
LINE
  5
EA
330
17
100
AcDbEntity
  8
visible
100
AcDbLine
 10
-4666.404055332441
 20
116.32837978415228
 30
0.0
 11
-4763.924432650039
 21
-12.647955150674534
 31
0.0
  0
LINE
  5
EB
330
17
100
AcDbEntity
  8
visible
100
AcDbLine
 10
-4826.393937405481
 20
23.409216272000776
 30
0.0
 11
-4826.393937405481
 21
206.8999462273589
 31
0.0
  0
LINE
  5
EC
330
17
100
AcDbEntity
  8
visible
100
AcDbLine
 10
-4763.924432650038
 20
-12.647955150675443
 30
0.0
 11
-4826.393937405481
 21
23.40921627200013
 31
0.0
  0
LINE
  5
ED
330
17
100
AcDbEntity
  8
visible
100
AcDbLine
 10
-5310.53259926016
 20
486.34302475309414
 30
0.0
 11
-5309.598787470973
 21
487.5780448114779
 31
0.0
  0
LINE
  5
EE
330
17
100
AcDbEntity
  8
visible
100
AcDbLine
 10
-5373.0021040156025
 20
522.4001961757695
 30
0.0
 11
-5372.068292226414
 21
523.6352162341536
 31
0.0
  0
LINE
  5
EF
330
17
100
AcDbEntity
  8
visible
100
AcDbLine
 10
-5310.53259926016
 20
486.34302475309414
 30
0.0
 11
-5373.0021040156025
 21
522.4001961757697
 31
0.0
  0
LINE
  5
F0
330
17
100
AcDbEntity
  8
visible
100
AcDbLine
 10
-5310.53259926016
 20
302.85229479773625
 30
0.0
 11
-5310.53259926016
 21
486.34302475309437
 31
0.0
  0
LINE
  5
F1
330
17
100
AcDbEntity
  8
visible
100
AcDbLine
 10
-5213.012221942563
 20
431.82862973256306
 30
0.0
 11
-5310.532599260161
 21
302.85229479773625
 31
0.0
  0
LINE
  5
F2
330
17
100
AcDbEntity
  8
visible
100
AcDbLine
 10
-5373.0021040156025
 20
338.90946622041156
 30
0.0
 11
-5373.0021040156025
 21
522.4001961757697
 31
0.0
  0
LINE
  5
F3
330
17
100
AcDbEntity
  8
visible
100
AcDbLine
 10
-5310.53259926016
 20
302.85229479773625
 30
0.0
 11
-5373.0021040156025
 21
338.90946622041184
 31
0.0
  0
LINE
  5
F4
330
17
100
AcDbEntity
  8
visible
100
AcDbLine
 10
-5857.140765870281
 20
801.8432747015049
 30
0.0
 11
-5856.206954081093
 21
803.0782947598891
 31
0.0
  0
LINE
  5
F5
330
17
100
AcDbEntity
  8
visible
100
AcDbLine
 10
-5919.610270625723
 20
837.9004461241802
 30
0.0
 11
-5918.676458836535
 21
839.1354661825648
 31
0.0
  0
LINE
  5
F6
330
17
100
AcDbEntity
  8
visible
100
AcDbLine
 10
-5857.140765870281
 20
801.8432747015049
 30
0.0
 11
-5919.610270625723
 21
837.9004461241805
 31
0.0
  0
LINE
  5
F7
330
17
100
AcDbEntity
  8
visible
100
AcDbLine
 10
-5857.140765870281
 20
618.352544746147
 30
0.0
 11
-5857.140765870281
 21
801.8432747015052
 31
0.0
  0
LINE
  5
F8
330
17
100
AcDbEntity
  8
visible
100
AcDbLine
 10
-5759.620388552683
 20
747.3288796809752
 30
0.0
 11
-5857.140765870281
 21
618.352544746147
 31
0.0
  0
LINE
  5
F9
330
17
100
AcDbEntity
  8
visible
100
AcDbLine
 10
-5919.610270625723
 20
654.4097161688223
 30
0.0
 11
-5919.610270625723
 21
837.9004461241805
 31
0.0
  0
LINE
  5
FA
330
17
100
AcDbEntity
  8
visible
100
AcDbLine
 10
-5857.140765870281
 20
618.352544746147
 30
0.0
 11
-5919.610270625723
 21
654.4097161688226
 31
0.0
  0
LINE
  5
FB
330
17
100
AcDbEntity
  8
visible
100
AcDbLine
 10
1211.9083922555842
 20
-3276.6122306544667
 30
0.0
 11
-6553.0510488459095
 21
1205.294177184107
 31
0.0
  0
LINE
  5
FC
330
17
100
AcDbEntity
  8
visible
100
AcDbLine
 10
1211.9083922555842
 20
-3276.6122306544667
 30
0.0
 11
3882.4797205507475
 21
255.37268962318467
 31
0.0
  0
LINE
  5
FD
330
17
100
AcDbEntity
  8
visible
100
AcDbLine
 10
1211.9083922555842
 20
-3111.91887320348
 30
0.0
 11
-6553.0510488459095
 21
1369.9875346350937
 31
0.0
  0
LINE
  5
FE
330
17
100
AcDbEntity
  8
visible
100
AcDbLine
 10
1211.9083922555842
 20
-3111.91887320348
 30
0.0
 11
1211.9083922555842
 21
-3276.6122306544667
 31
0.0
  0
LINE
  5
FF
330
17
100
AcDbEntity
  8
visible
100
AcDbLine
 10
-6553.0510488459095
 20
1369.9875346350927
 30
0.0
 11
-6553.0510488459095
 21
1205.294177184106
 31
0.0
  0
LINE
  5
100
330
17
100
AcDbEntity
  8
visible
100
AcDbLine
 10
3882.479720550748
 20
255.37268962318376
 30
0.0
 11
6553.051048845911
 21
-1303.56381040566
 31
0.0
  0
LINE
  5
101
330
17
100
AcDbEntity
  8
visible
100
AcDbLine
 10
6553.051048845912
 20
-1303.5638104056593
 30
0.0
 11
6553.051048845912
 21
-1138.8704529546726
 31
0.0
  0
LINE
  5
102
330
17
100
AcDbEntity
  8
visible
100
AcDbLine
 10
6553.051048845912
 20
-1138.8704529546721
 30
0.0
 11
3882.479720550748
 21
420.0660470741716
 31
0.0
  0
LINE
  5
103
330
17
100
AcDbEntity
  8
visible
100
AcDbLine
 10
3882.479720550748
 20
420.06604707417137
 30
0.0
 11
1211.9083922555837
 21
-3111.91887320348
 31
0.0
  0
LINE
  5
104
330
17
100
AcDbEntity
  8
visible
100
AcDbLine
 10
-3882.4797205507457
 20
4901.972454912744
 30
0.0
 11
-6553.0510488459095
 21
1369.9875346350927
 31
0.0
  0
LINE
  5
105
330
17
100
AcDbEntity
  8
visible
100
AcDbLine
 10
6553.051048845912
 20
-1303.5638104056593
 30
0.0
 11
5928.356001291488
 21
-942.9920961789035
 31
0.0
  0
LINE
  5
106
330
17
100
AcDbEntity
  8
visible
100
AcDbLine
 10
5666.682886646785
 20
-788.8746882326079
 30
0.0
 11
5676.291549603277
 21
-794.4837110063655
 31
0.0
  0
LINE
  5
107
330
17
100
AcDbEntity
  8
visible
100
AcDbLine
 10
5666.682886646785
 20
-788.8746882326082
 30
0.0
 11
5302.139754874831
 21
-578.4617156195158
 31
0.0
  0
LINE
  5
108
330
17
100
AcDbEntity
  8
visible
100
AcDbLine
 10
5759.743207546634
 20
-843.1983190669821
 30
0.0
 11
5762.18711864201
 21
-844.6249434634328
 31
0.0
  0
LINE
  5
109
330
17
100
AcDbEntity
  8
visible
100
AcDbLine
 10
5759.743207546635
 20
-843.1983190669821
 30
0.0
 11
5676.291549603277
 21
-795.0303249753052
 31
0.0
  0
LINE
  5
10A
330
17
100
AcDbEntity
  8
visible
100
AcDbLine
 10
5928.356001291489
 20
-940.5370194477501
 30
0.0
 11
5925.912090196111
 21
-939.1103950512991
 31
0.0
  0
LINE
  5
10B
330
17
100
AcDbEntity
  8
visible
100
AcDbLine
 10
5925.912090196111
 20
-939.1103950512992
 30
0.0
 11
5770.363023355059
 21
-849.328038208837
 31
0.0
  0
LINE
  5
10C
330
17
100
AcDbEntity
  8
visible
100
AcDbLine
 10
5762.187118642011
 20
-844.6300582066235
 30
0.0
 11
5762.967987451454
 21
-845.0807728494069
 31
0.0
  0
LINE
  5
10D
330
17
100
AcDbEntity
  8
visible
100
AcDbLine
 10
5762.967987451454
 20
-845.0807728494065
 30
0.0
 11
5770.290043915284
 21
-849.3549972282112
 31
0.0
  0
LINE
  5
10E
330
17
100
AcDbEntity
  8
visible
100
AcDbLine
 10
3882.479720550748
 20
420.06604707417137
 30
0.0
 11
-3882.479720550746
 21
4901.972454912745
 31
0.0
  0
LINE
  5
10F
330
17
100
AcDbEntity
  8
visible
100
AcDbLine
 10
5554.476015330165
 20
-917.1924811129893
 30
0.0
 11
5554.476015330165
 21
-911.1573691752286
 31
0.0
  0
LINE
  5
110
330
17
100
AcDbEntity
  8
visible
100
AcDbLine
 10
5554.476015330165
 20
-911.1573691752274
 30
0.0
 11
3782.8751116917606
 21
123.63983802222083
 31
0.0
  0
LINE
  5
111
330
17
100
AcDbEntity
  8
visible
100
AcDbLine
 10
5166.384217036979
 20
-684.4718283261284
 30
0.0
 11
5166.384217036979
 21
-682.86930571999
 31
0.0
  0
LINE
  5
112
330
17
100
AcDbEntity
  8
visible
100
AcDbLine
 10
5161.367338569544
 20
-679.9407207852869
 30
0.0
 11
5166.384217036978
 21
-682.8693057199888
 31
0.0
  0
LINE
  5
113
330
17
100
AcDbEntity
  8
visible
100
AcDbLine
 10
5159.6885551938085
 20
-680.5608728951269
 30
0.0
 11
5161.367338569545
 21
-679.9407207852877
 31
0.0
  0
LINE
  5
114
330
17
100
AcDbEntity
  8
visible
100
AcDbLine
 10
5147.285150927829
 20
-673.3160086213414
 30
0.0
 11
5148.873437618456
 21
-672.7292865007524
 31
0.0
  0
LINE
  5
115
330
17
100
AcDbEntity
  8
visible
100
AcDbLine
 10
5161.367338569545
 20
-679.9407207852875
 30
0.0
 11
5148.873437618456
 21
-672.7292865007523
 31
0.0
  0
LINE
  5
116
330
17
100
AcDbEntity
  8
visible
100
AcDbLine
 10
2084.919721212892
 20
-4967.863329970542
 30
0.0
 11
2084.919721212892
 21
-3020.588575854662
 31
0.0
  0
LINE
  5
117
330
17
100
AcDbEntity
  8
visible
100
AcDbLine
 10
2158.946084348091
 20
-5010.591078106412
 30
0.0
 11
2084.919721212892
 21
-4967.863329970542
 31
0.0
  0
LINE
  5
118
330
17
100
AcDbEntity
  8
visible
100
AcDbLine
 10
2082.7332885464516
 20
-4968.079672999078
 30
0.0
 11
2084.919721212892
 21
-4967.271992359209
 31
0.0
  0
LINE
  5
119
330
17
100
AcDbEntity
  8
visible
100
AcDbLine
 10
2082.7332885464516
 20
-3021.3962564945305
 30
0.0
 11
2082.7332885464516
 21
-4968.079672999078
 31
0.0
  0
LINE
  5
11A
330
17
100
AcDbEntity
  8
visible
100
AcDbLine
 10
2082.733288546452
 20
-4968.079672999078
 30
0.0
 11
2074.924600452022
 21
-4963.572526571243
 31
0.0
  0
LINE
  5
11B
330
17
100
AcDbEntity
  8
visible
100
AcDbLine
 10
2074.9246004520214
 20
-3024.280830208345
 30
0.0
 11
2074.9246004520214
 21
-4963.5725265712435
 31
0.0
  0
ENDSEC
  0
SECTION
  2
OBJECTS
  0
DICTIONARY
  5
A
330
0
100
AcDbDictionary
281
1
  3
ACAD_COLOR
350
B
  3
ACAD_GROUP
350
C
  3
ACAD_LAYOUT
350
D
  3
ACAD_MATERIAL
350
E
  3
ACAD_MLEADERSTYLE
350
F
  3
ACAD_MLINESTYLE
350
10
  3
ACAD_PLOTSETTINGS
350
11
  3
ACAD_PLOTSTYLENAME
350
12
  3
ACAD_SCALELIST
350
14
  3
ACAD_TABLESTYLE
350
15
  3
ACAD_VISUALSTYLE
350
16
  3
EZDXF_META
350
2D
  0
DICTIONARY
  5
B
330
A
100
AcDbDictionary
281
1
  0
DICTIONARY
  5
C
330
A
100
AcDbDictionary
281
1
  0
DICTIONARY
  5
D
330
A
100
AcDbDictionary
281
1
  3
Model
350
1A
  3
Layout1
350
1E
  0
DICTIONARY
  5
E
330
A
100
AcDbDictionary
281
1
  3
ByBlock
350
1F
  3
ByLayer
350
20
  3
Global
350
21
  0
DICTIONARY
  5
F
330
A
100
AcDbDictionary
281
1
  3
Standard
350
2C
  0
DICTIONARY
  5
10
330
A
100
AcDbDictionary
281
1
  3
Standard
350
22
  0
DICTIONARY
  5
11
330
A
100
AcDbDictionary
281
1
  0
ACDBDICTIONARYWDFLT
  5
12
330
A
100
AcDbDictionary
281
1
  3
Normal
350
13
100
AcDbDictionaryWithDefault
340
13
  0
ACDBPLACEHOLDER
  5
13
330
12
  0
DICTIONARY
  5
14
330
A
100
AcDbDictionary
281
1
  0
DICTIONARY
  5
15
330
A
100
AcDbDictionary
281
1
  0
DICTIONARY
  5
16
330
A
100
AcDbDictionary
281
1
  0
LAYOUT
  5
1A
330
D
100
AcDbPlotSettings
  1

  4
A3
  6

 40
7.5
 41
20.0
 42
7.5
 43
20.0
 44
420.0
 45
297.0
 46
0.0
 47
0.0
 48
0.0
 49
0.0
140
0.0
141
0.0
142
1.0
143
1.0
 70
1024
 72
1
 73
0
 74
5
  7

 75
16
 76
0
 77
2
 78
300
147
1.0
148
0.0
149
0.0
100
AcDbLayout
  1
Model
 70
1
 71
0
 10
0.0
 20
0.0
 11
420.0
 21
297.0
 12
0.0
 22
0.0
 32
0.0
 14
1e+20
 24
1e+20
 34
1e+20
 15
-1e+20
 25
-1e+20
 35
-1e+20
146
0.0
 13
0.0
 23
0.0
 33
0.0
 16
1.0
 26
0.0
 36
0.0
 17
0.0
 27
1.0
 37
0.0
 76
1
330
17
  0
LAYOUT
  5
1E
330
D
100
AcDbPlotSettings
  1

  4
A3
  6

 40
7.5
 41
20.0
 42
7.5
 43
20.0
 44
420.0
 45
297.0
 46
0.0
 47
0.0
 48
0.0
 49
0.0
140
0.0
141
0.0
142
1.0
143
1.0
 70
0
 72
1
 73
0
 74
5
  7

 75
16
 76
0
 77
2
 78
300
147
1.0
148
0.0
149
0.0
100
AcDbLayout
  1
Layout1
 70
1
 71
1
 10
0.0
 20
0.0
 11
420.0
 21
297.0
 12
0.0
 22
0.0
 32
0.0
 14
1e+20
 24
1e+20
 34
1e+20
 15
-1e+20
 25
-1e+20
 35
-1e+20
146
0.0
 13
0.0
 23
0.0
 33
0.0
 16
1.0
 26
0.0
 36
0.0
 17
0.0
 27
1.0
 37
0.0
 76
1
330
1B
  0
MATERIAL
  5
1F
102
{ACAD_REACTORS
330
E
102
}
330
E
100
AcDbMaterial
  1
ByBlock
  2

 70
0
 40
1.0
 71
1
 41
1.0
 91
-1023410177
 42
1.0
 72
1
  3

 73
1
 74
1
 75
1
 44
0.5
 73
0
 45
1.0
 46
1.0
 77
1
  4

 78
1
 79
1
170
1
 48
1.0
171
1
  6

172
1
173
1
174
1
140
1.0
141
1.0
175
1
  7

176
1
177
1
178
1
143
1.0
179
1
  8

270
1
271
1
272
1
145
1.0
146
1.0
273
1
  9

274
1
275
1
276
1
 42
1.0
 72
1
  3

 73
1
 74
1
 75
1
 94
63
  0
MATERIAL
  5
20
102
{ACAD_REACTORS
330
E
102
}
330
E
100
AcDbMaterial
  1
ByLayer
  2

 70
0
 40
1.0
 71
1
 41
1.0
 91
-1023410177
 42
1.0
 72
1
  3

 73
1
 74
1
 75
1
 44
0.5
 73
0
 45
1.0
 46
1.0
 77
1
  4

 78
1
 79
1
170
1
 48
1.0
171
1
  6

172
1
173
1
174
1
140
1.0
141
1.0
175
1
  7

176
1
177
1
178
1
143
1.0
179
1
  8

270
1
271
1
272
1
145
1.0
146
1.0
273
1
  9

274
1
275
1
276
1
 42
1.0
 72
1
  3

 73
1
 74
1
 75
1
 94
63
  0
MATERIAL
  5
21
102
{ACAD_REACTORS
330
E
102
}
330
E
100
AcDbMaterial
  1
Global
  2

 70
0
 40
1.0
 71
1
 41
1.0
 91
-1023410177
 42
1.0
 72
1
  3

 73
1
 74
1
 75
1
 44
0.5
 73
0
 45
1.0
 46
1.0
 77
1
  4

 78
1
 79
1
170
1
 48
1.0
171
1
  6

172
1
173
1
174
1
140
1.0
141
1.0
175
1
  7

176
1
177
1
178
1
143
1.0
179
1
  8

270
1
271
1
272
1
145
1.0
146
1.0
273
1
  9

274
1
275
1
276
1
 42
1.0
 72
1
  3

 73
1
 74
1
 75
1
 94
63
  0
MLINESTYLE
  5
22
102
{ACAD_REACTORS
330
10
102
}
330
10
100
AcDbMlineStyle
  2
Standard
 70
0
  3

 62
256
 51
90.0
 52
90.0
 71
2
 49
0.5
 62
256
  6
BYLAYER
 49
-0.5
 62
256
  6
BYLAYER
  0
MLEADERSTYLE
  5
2C
102
{ACAD_REACTORS
330
F
102
}
330
F
100
AcDbMLeaderStyle
179
2
170
2
171
1
172
0
 90
2
 40
0.0
 41
0.0
173
1
 91
-1056964608
 92
-2
290
1
 42
2.0
291
1
 43
8.0
  3
Standard
 44
4.0
300

342
29
174
1
175
1
176
0
178
1
 93
-1056964608
 45
4.0
292
0
297
0
 46
4.0
 94
-1056964608
 47
1.0
 49
1.0
140
1.0
294
1
141
0.0
177
0
142
1.0
295
0
296
0
143
3.75
271
0
272
9
273
9
  0
DICTIONARY
  5
2D
330
A
100
AcDbDictionary
280
1
281
1
  3
CREATED_BY_EZDXF
350
2E
  3
WRITTEN_BY_EZDXF
350
11F
  0
DICTIONARYVAR
  5
2E
330
2D
100
DictionaryVariables
280
0
  1
1.4.4 @ 2026-09-20T12:21:10.896238+00:00
  0
DICTIONARYVAR
  5
11F
330
2D
100
DictionaryVariables
280
0
  1
1.4.4 @ 2026-09-20T12:21:10.913956+00:00
  0
ENDSEC
  0
EOF
