  0
SECTION
  2
HEADER
  9
$ACADVER
  1
AC1027
  9
$ACADMAINTVER
 70
105
  9
$DWGCODEPAGE
  3
ANSI_1252
  9
$LASTSAVEDBY
  1
ezdxf
  9
$REQUIREDVERSIONS
160
0
  9
$INSBASE
 10
0.0
 20
0.0
 30
0.0
  9
$EXTMIN
 10
1e+20
 20
1e+20
 30
1e+20
  9
$EXTMAX
 10
-1e+20
 20
-1e+20
 30
-1e+20
  9
$LIMMIN
 10
0.0
 20
0.0
  9
$LIMMAX
 10
420.0
 20
297.0
  9
$ORTHOMODE
 70
0
  9
$REGENMODE
 70
1
  9
$FILLMODE
 70
1
  9
$QTEXTMODE
 70
0
  9
$MIRRTEXT
 70
1
  9
$LTSCALE
 40
1.0
  9
$ATTMODE
 70
1
  9
$TEXTSIZE
 40
2.5
  9
$TRACEWID
 40
1.0
  9
$TEXTSTYLE
  7
Standard
  9
$CLAYER
  8
0
  9
$CELTYPE
  6
ByLayer
  9
$CECOLOR
 62
256
  9
$CELTSCALE
 40
1.0
  9
$DISPSILH
 70
0
  9
$DIMSCALE
 40
1.0
  9
$DIMASZ
 40
2.5
  9
$DIMEXO
 40
0.625
  9
$DIMDLI
 40
3.75
  9
$DIMRND
 40
0.0
  9
$DIMDLE
 40
0.0
  9
$DIMEXE
 40
1.25
  9
$DIMTP
 40
0.0
  9
$DIMTM
 40
0.0
  9
$DIMTXT
 40
2.5
  9
$DIMCEN
 40
2.5
  9
$DIMTSZ
 40
0.0
  9
$DIMTOL
 70
0
  9
$DIMLIM
 70
0
  9
$DIMTIH
 70
0
  9
$DIMTOH
 70
0
  9
$DIMSE1
 70
0
  9
$DIMSE2
 70
0
  9
$DIMTAD
 70
1
  9
$DIMZIN
 70
8
  9
$DIMBLK
  1

  9
$DIMASO
 70
1
  9
$DIMSHO
 70
1
  9
$DIMPOST
  1

  9
$DIMAPOST
  1

  9
$DIMALT
 70
0
  9
$DIMALTD
 70
3
  9
$DIMALTF
 40
0.03937007874
  9
$DIMLFAC
 40
1.0
  9
$DIMTOFL
 70
1
  9
$DIMTVP
 40
0.0
  9
$DIMTIX
 70
0
  9
$DIMSOXD
 70
0
  9
$DIMSAH
 70
0
  9
$DIMBLK1
  1

  9
$DIMBLK2
  1

  9
$DIMSTYLE
  2
ISO-25
  9
$DIMCLRD
 70
0
  9
$DIMCLRE
 70
0
  9
$DIMCLRT
 70
0
  9
$DIMTFAC
 40
1.0
  9
$DIMGAP
 40
0.625
  9
$DIMJUST
 70
0
  9
$DIMSD1
 70
0
  9
$DIMSD2
 70
0
  9
$DIMTOLJ
 70
0
  9
$DIMTZIN
 70
8
  9
$DIMALTZ
 70
0
  9
$DIMALTTZ
 70
0
  9
$DIMUPT
 70
0
  9
$DIMDEC
 70
2
  9
$DIMTDEC
 70
2
  9
$DIMALTU
 70
2
  9
$DIMALTTD
 70
3
  9
$DIMTXSTY
  7
Standard
  9
$DIMAUNIT
 70
0
  9
$DIMADEC
 70
0
  9
$DIMALTRND
 40
0.0
  9
$DIMAZIN
 70
0
  9
$DIMDSEP
 70
44
  9
$DIMATFIT
 70
3
  9
$DIMFRAC
 70
0
  9
$DIMLDRBLK
  1

  9
$DIMLUNIT
 70
2
  9
$DIMLWD
 70
-2
  9
$DIMLWE
 70
-2
  9
$DIMTMOVE
 70
0
  9
$DIMFXL
 40
1.0
  9
$DIMFXLON
 70
0
  9
$DIMJOGANG
 40
0.785398163397
  9
$DIMTFILL
 70
0
  9
$DIMTFILLCLR
 70
0
  9
$DIMARCSYM
 70
0
  9
$DIMLTYPE
  6

  9
$DIMLTEX1
  6

  9
$DIMLTEX2
  6

  9
$DIMTXTDIRECTION
 70
0
  9
$LUNITS
 70
2
  9
$LUPREC
 70
4
  9
$SKETCHINC
 40
1.0
  9
$FILLETRAD
 40
10.0
  9
$AUNITS
 70
0
  9
$AUPREC
 70
2
  9
$MENU
  1
.
  9
$ELEVATION
 40
0.0
  9
$PELEVATION
 40
0.0
  9
$THICKNESS
 40
0.0
  9
$LIMCHECK
 70
0
  9
$CHAMFERA
 40
0.0
  9
$CHAMFERB
 40
0.0
  9
$CHAMFERC
 40
0.0
  9
$CHAMFERD
 40
0.0
  9
$SKPOLY
 70
0
  9
$TDCREATE
 40
2461307.325324074
  9
$TDUCREATE
 40
2458532.153996898
  9
$TDUPDATE
 40
2461307.325324074
  9
$TDUUPDATE
 40
2458532.1544311
  9
$TDINDWG
 40
0.0
  9
$TDUSRTIMER
 40
0.0
  9
$USRTIMER
 70
1
  9
$ANGBASE
 50
0.0
  9
$ANGDIR
 70
0
  9
$PDMODE
 70
0
  9
$PDSIZE
 40
0.0
  9
$PLINEWID
 40
0.0
  9
$SPLFRAME
 70
0
  9
$SPLINETYPE
 70
6
  9
$SPLINESEGS
 70
8
  9
$HANDSEED
  5
144
  9
$SURFTAB1
 70
6
  9
$SURFTAB2
 70
6
  9
$SURFTYPE
 70
6
  9
$SURFU
 70
6
  9
$SURFV
 70
6
  9
$UCSBASE
  2

  9
$UCSNAME
  2

  9
$UCSORG
 10
0.0
 20
0.0
 30
0.0
  9
$UCSXDIR
 10
1.0
 20
0.0
 30
0.0
  9
$UCSYDIR
 10
0.0
 20
1.0
 30
0.0
  9
$UCSORTHOREF
  2

  9
$UCSORTHOVIEW
 70
0
  9
$UCSORGTOP
 10
0.0
 20
0.0
 30
0.0
  9
$UCSORGBOTTOM
 10
0.0
 20
0.0
 30
0.0
  9
$UCSORGLEFT
 10
0.0
 20
0.0
 30
0.0
  9
$UCSORGRIGHT
 10
0.0
 20
0.0
 30
0.0
  9
$UCSORGFRONT
 10
0.0
 20
0.0
 30
0.0
  9
$UCSORGBACK
 10
0.0
 20
0.0
 30
0.0
  9
$PUCSBASE
  2

  9
$PUCSNAME
  2

  9
$PUCSORG
 10
0.0
 20
0.0
 30
0.0
  9
$PUCSXDIR
 10
1.0
 20
0.0
 30
0.0
  9
$PUCSYDIR
 10
0.0
 20
1.0
 30
0.0
  9
$PUCSORTHOREF
  2

  9
$PUCSORTHOVIEW
 70
0
  9
$PUCSORGTOP
 10
0.0
 20
0.0
 30
0.0
  9
$PUCSORGBOTTOM
 10
0.0
 20
0.0
 30
0.0
  9
$PUCSORGLEFT
 10
0.0
 20
0.0
 30
0.0
  9
$PUCSORGRIGHT
 10
0.0
 20
0.0
 30
0.0
  9
$PUCSORGFRONT
 10
0.0
 20
0.0
 30
0.0
  9
$PUCSORGBACK
 10
0.0
 20
0.0
 30
0.0
  9
$USERI1
 70
0
  9
$USERI2
 70
0
  9
$USERI3
 70
0
  9
$USERI4
 70
0
  9
$USERI5
 70
0
  9
$USERR1
 40
0.0
  9
$USERR2
 40
0.0
  9
$USERR3
 40
0.0
  9
$USERR4
 40
0.0
  9
$USERR5
 40
0.0
  9
$WORLDVIEW
 70
1
  9
$SHADEDGE
 70
3
  9
$SHADEDIF
 70
70
  9
$TILEMODE
 70
1
  9
$MAXACTVP
 70
64
  9
$PINSBASE
 10
0.0
 20
0.0
 30
0.0
  9
$PLIMCHECK
 70
0
  9
$PEXTMIN
 10
1e+20
 20
1e+20
 30
1e+20
  9
$PEXTMAX
 10
-1e+20
 20
-1e+20
 30
-1e+20
  9
$PLIMMIN
 10
0.0
 20
0.0
  9
$PLIMMAX
 10
420.0
 20
297.0
  9
$UNITMODE
 70
0
  9
$VISRETAIN
 70
1
  9
$PLINEGEN
 70
0
  9
$PSLTSCALE
 70
1
  9
$TREEDEPTH
 70
3020
  9
$CMLSTYLE
  2
Standard
  9
$CMLJUST
 70
0
  9
$CMLSCALE
 40
20.0
  9
$PROXYGRAPHICS
 70
1
  9
$MEASUREMENT
 70
1
  9
$CELWEIGHT
370
-1
  9
$ENDCAPS
280
0
  9
$JOINSTYLE
280
0
  9
$LWDISPLAY
290
0
  9
$INSUNITS
 70
4
  9
$HYPERLINKBASE
  1

  9
$STYLESHEET
  1

  9
$XEDIT
290
1
  9
$CEPSNTYPE
380
0
  9
$PSTYLEMODE
290
1
  9
$FINGERPRINTGUID
  2
{E47CAE23-7DD7-45A3-8C24-40EB22B0051C}
  9
$VERSIONGUID
  2
{8D639F48-7A39-46FF-8AE3-A16398176920}
  9
$EXTNAMES
290
1
  9
$PSVPSCALE
 40
0.0
  9
$OLESTARTUP
290
0
  9
$SORTENTS
280
127
  9
$INDEXCTL
280
0
  9
$HIDETEXT
280
1
  9
$XCLIPFRAME
280
1
  9
$HALOGAP
280
0
  9
$OBSCOLOR
 70
257
  9
$OBSLTYPE
280
0
  9
$INTERSECTIONDISPLAY
280
0
  9
$INTERSECTIONCOLOR
 70
257
  9
$DIMASSOC
280
2
  9
$PROJECTNAME
  1

  9
$CAMERADISPLAY
290
0
  9
$LENSLENGTH
 40
50.0
  9
$CAMERAHEIGHT
 40
0.0
  9
$STEPSPERSEC
 40
24.0
  9
$STEPSIZE
 40
100.0
  9
$3DDWFPREC
 40
2.0
  9
$PSOLWIDTH
 40
0.005
  9
$PSOLHEIGHT
 40
0.08
  9
$LOFTANG1
 40
1.570796326795
  9
$LOFTANG2
 40
1.570796326795
  9
$LOFTMAG1
 40
0.0
  9
$LOFTMAG2
 40
0.0
  9
$LOFTPARAM
 70
7
  9
$LOFTNORMALS
280
1
  9
$LATITUDE
 40
37.795
  9
$LONGITUDE
 40
-122.394
  9
$NORTHDIRECTION
 40
0.0
  9
$TIMEZONE
 70
-8000
  9
$LIGHTGLYPHDISPLAY
280
1
  9
$TILEMODELIGHTSYNCH
280
1
  9
$CMATERIAL
347
20
  9
$SOLIDHIST
280
0
  9
$SHOWHIST
280
1
  9
$DWFFRAME
280
2
  9
$DGNFRAME
280
2
  9
$REALWORLDSCALE
290
1
  9
$INTERFERECOLOR
 62
256
  9
$CSHADOW
280
0
  9
$SHADOWPLANELOCATION
 40
0.0
  0
ENDSEC
  0
SECTION
  2
CLASSES
  0
CLASS
  1
ACDBDICTIONARYWDFLT
  2
AcDbDictionaryWithDefault
  3
ObjectDBX Classes
 90
0
 91
0
280
0
281
0
  0
CLASS
  1
SUN
  2
AcDbSun
  3
SCENEOE
 90
1153
 91
0
280
0
281
0
  0
CLASS
  1
VISUALSTYLE
  2
AcDbVisualStyle
  3
ObjectDBX Classes
 90
4095
 91
0
280
0
281
0
  0
CLASS
  1
MATERIAL
  2
AcDbMaterial
  3
ObjectDBX Classes
 90
1153
 91
0
280
0
281
0
  0
CLASS
  1
SCALE
  2
AcDbScale
  3
ObjectDBX Classes
 90
1153
 91
0
280
0
281
0
  0
CLASS
  1
TABLESTYLE
  2
AcDbTableStyle
  3
ObjectDBX Classes
 90
4095
 91
0
280
0
281
0
  0
CLASS
  1
MLEADERSTYLE
  2
AcDbMLeaderStyle
  3
ACDB_MLEADERSTYLE_CLASS
 90
4095
 91
0
280
0
281
0
  0
CLASS
  1
DICTIONARYVAR
  2
AcDbDictionaryVar
  3
ObjectDBX Classes
 90
0
 91
0
280
0
281
0
  0
CLASS
  1
CELLSTYLEMAP
  2
AcDbCellStyleMap
  3
ObjectDBX Classes
 90
1152
 91
0
280
0
281
0
  0
CLASS
  1
MENTALRAYRENDERSETTINGS
  2
AcDbMentalRayRenderSettings
  3
SCENEOE
 90
1024
 91
0
280
0
281
0
  0
CLASS
  1
ACDBDETAILVIEWSTYLE
  2
AcDbDetailViewStyle
  3
ObjectDBX Classes
 90
1025
 91
0
280
0
281
0
  0
CLASS
  1
ACDBSECTIONVIEWSTYLE
  2
AcDbSectionViewStyle
  3
ObjectDBX Classes
 90
1025
 91
0
280
0
281
0
  0
CLASS
  1
RASTERVARIABLES
  2
AcDbRasterVariables
  3
ISM
 90
0
 91
0
280
0
281
0
  0
CLASS
  1
LAYOUT
  2
AcDbLayout
  3
ObjectDBX Classes
 90
0
 91
0
280
0
281
0
  0
CLASS
  1
ACDBPLACEHOLDER
  2
AcDbPlaceHolder
  3
ObjectDBX Classes
 90
0
 91
0
280
0
281
0
  0
ENDSEC
  0
SECTION
  2
TABLES
  0
TABLE
  2
VPORT
  5
8
330
0
100
AcDbSymbolTable
 70
1
  0
VPORT
  5
140
330
8
100
AcDbSymbolTableRecord
100
AcDbViewportTableRecord
  2
*Active
 70
0
 10
0.0
 20
0.0
 11
1.0
 21
1.0
 12
-9.094947017729282e-13
 22
-351.91799308531154
 13
0.0
 23
0.0
 14
0.5
 24
0.5
 15
0.5
 25
0.5
 16
0.0
 26
0.0
 36
1.0
 17
0.0
 27
0.0
 37
0.0
 40
10691.923428164866
 41
1.34
 42
50.0
 43
0.0
 44
0.0
 50
0.0
 51
0.0
 71
0
 72
1000
 73
1
 74
3
 75
0
 76
0
 77
0
 78
0
281
0
 65
1
110
0.0
120
0.0
130
0.0
111
1.0
121
0.0
131
0.0
112
0.0
122
1.0
132
0.0
 79
0
146
0.0
  0
ENDTAB
  0
TABLE
  2
LTYPE
  5
2
330
0
100
AcDbSymbolTable
 70
3
  0
LTYPE
  5
24
330
2
100
AcDbSymbolTableRecord
100
AcDbLinetypeTableRecord
  2
ByBlock
 70
0
  3

 72
65
 73
0
 40
0.0
  0
LTYPE
  5
25
330
2
100
AcDbSymbolTableRecord
100
AcDbLinetypeTableRecord
  2
ByLayer
 70
0
  3

 72
65
 73
0
 40
0.0
  0
LTYPE
  5
26
330
2
100
AcDbSymbolTableRecord
100
AcDbLinetypeTableRecord
  2
Continuous
 70
0
  3

 72
65
 73
0
 40
0.0
  0
ENDTAB
  0
TABLE
  2
LAYER
  5
1
330
0
100
AcDbSymbolTable
 70
3
  0
LAYER
  5
27
330
1
100
AcDbSymbolTableRecord
100
AcDbLayerTableRecord
  2
0
 70
0
 62
7
  6
Continuous
370
-3
390
13
347
21
  0
LAYER
  5
28
330
1
100
AcDbSymbolTableRecord
100
AcDbLayerTableRecord
  2
Defpoints
 70
0
 62
7
  6
Continuous
290
0
370
-3
390
13
347
21
  0
LAYER
  5
2F
330
1
100
AcDbSymbolTableRecord
100
AcDbLayerTableRecord
  2
visible
 70
0
 62
7
  6
Continuous
370
-3
390
13
347
21
  0
ENDTAB
  0
TABLE
  2
STYLE
  5
5
330
0
100
AcDbSymbolTable
 70
1
  0
STYLE
  5
29
330
5
100
AcDbSymbolTableRecord
100
AcDbTextStyleTableRecord
  2
Standard
 70
0
 40
0.0
 41
1.0
 50
0.0
 71
0
 42
2.5
  3
txt
  4

  0
ENDTAB
  0
TABLE
  2
VIEW
  5
7
330
0
100
AcDbSymbolTable
 70
0
  0
ENDTAB
  0
TABLE
  2
UCS
  5
6
330
0
100
AcDbSymbolTable
 70
0
  0
ENDTAB
  0
TABLE
  2
APPID
  5
3
330
0
100
AcDbSymbolTable
 70
3
  0
APPID
  5
2A
330
3
100
AcDbSymbolTableRecord
100
AcDbRegAppTableRecord
  2
ACAD
 70
0
  0
APPID
  5
141
330
3
100
AcDbSymbolTableRecord
100
AcDbRegAppTableRecord
  2
HATCHBACKGROUNDCOLOR
 70
0
  0
APPID
  5
142
330
3
100
AcDbSymbolTableRecord
100
AcDbRegAppTableRecord
  2
EZDXF
 70
0
  0
ENDTAB
  0
TABLE
  2
DIMSTYLE
  5
4
330
0
100
AcDbSymbolTable
 70
1
100
AcDbDimStyleTable
  0
DIMSTYLE
105
2B
330
4
100
AcDbSymbolTableRecord
100
AcDbDimStyleTableRecord
  2
Standard
 70
0
 40
1.0
 41
2.5
 42
0.625
 43
3.75
 44
1.25
 45
0.0
 46
0.0
 47
0.0
 48
0.0
 49
2.5
140
2.5
141
2.5
142
0.0
143
0.03937007874
144
1.0
145
0.0
146
1.0
147
0.625
148
0.0
 69
0
 70
0
 71
0
 72
0
 73
0
 74
0
 75
0
 76
0
 77
1
 78
8
 79
3
170
0
171
3
172
1
173
0
174
0
175
0
176
0
177
0
178
0
179
2
271
2
272
2
273
2
274
3
275
0
276
0
277
2
278
44
279
0
280
0
281
0
282
0
283
0
284
8
285
0
286
0
288
0
289
3
290
0
371
-2
372
-2
  0
ENDTAB
  0
TABLE
  2
BLOCK_RECORD
  5
9
330
0
100
AcDbSymbolTable
 70
2
  0
BLOCK_RECORD
  5
17
330
9
100
AcDbSymbolTableRecord
100
AcDbBlockTableRecord
  2
*Model_Space
340
1A
 70
0
280
1
281
0
  0
BLOCK_RECORD
  5
1B
330
9
100
AcDbSymbolTableRecord
100
AcDbBlockTableRecord
  2
*Paper_Space
340
1E
 70
0
280
1
281
0
  0
ENDTAB
  0
ENDSEC
  0
SECTION
  2
BLOCKS
  0
BLOCK
  5
18
330
17
100
AcDbEntity
  8
0
100
AcDbBlockBegin
  2
*Model_Space
 70
0
 10
0.0
 20
0.0
 30
0.0
  3
*Model_Space
  1

  0
ENDBLK
  5
19
330
17
100
AcDbEntity
  8
0
100
AcDbBlockEnd
  0
BLOCK
  5
1C
330
1B
100
AcDbEntity
  8
0
100
AcDbBlockBegin
  2
*Paper_Space
 70
0
 10
0.0
 20
0.0
 30
0.0
  3
*Paper_Space
  1

  0
ENDBLK
  5
1D
330
1B
100
AcDbEntity
  8
0
100
AcDbBlockEnd
  0
ENDSEC
  0
SECTION
  2
ENTITIES
  0
LINE
  5
30
330
17
100
AcDbEntity
  8
visible
100
AcDbLine
 10
-721.5227799253607
 20
-4180.125190473062
 30
0.0
 11
-734.1728546383379
 21
-4172.8236132599695
 31
0.0
  0
LINE
  5
31
330
17
100
AcDbEntity
  8
visible
100
AcDbLine
 10
-3657.589503431155
 20
-2485.438133607309
 30
0.0
 11
-3670.239578144132
 21
-2478.1365563942168
 31
0.0
  0
LINE
  5
32
330
17
100
AcDbEntity
  8
visible
100
AcDbLine
 10
670.922481073451
 20
-5116.890504034172
 30
0.0
 11
-581.7472630350585
 21
-4393.85407408097
 31
0.0
  0
LINE
  5
33
330
17
100
AcDbEntity
  8
visible
100
AcDbLine
 10
-721.5227799253607
 20
-4313.176153022734
 30
0.0
 11
-734.1728546383379
 21
-4305.874575809642
 31
0.0
  0
LINE
  5
34
330
17
100
AcDbEntity
  8
visible
100
AcDbLine
 10
-1015.7541473234946
 20
-4143.346875621932
 30
0.0
 11
-3517.813986540852
 21
-2699.167017215218
 31
0.0
  0
LINE
  5
35
330
17
100
AcDbEntity
  8
visible
100
AcDbLine
 10
-3657.589503431155
 20
-2618.4890961569813
 30
0.0
 11
-3670.239578144132
 21
-2611.1875189438892
 31
0.0
  0
LINE
  5
36
330
17
100
AcDbEntity
  8
visible
100
AcDbLine
 10
-3951.8208708292887
 20
-2448.659818756179
 30
0.0
 11
-5162.323699227874
 21
-1749.961979513283
 31
0.0
  0
LINE
  5
37
330
17
100
AcDbEntity
  8
visible
100
AcDbLine
 10
1544.5585050783134
 20
-5330.803279216338
 30
0.0
 11
2158.9460843480892
 21
-5103.845019413448
 31
0.0
  0
LINE
  5
38
330
17
100
AcDbEntity
  8
visible
100
AcDbLine
 10
920.8005000952207
 20
-2786.4108325042903
 30
0.0
 11
920.8005000952207
 21
-2719.8227914365043
 31
0.0
  0
LINE
  5
39
330
17
100
AcDbEntity
  8
visible
100
AcDbLine
 10
374.1923334850994
 20
-2470.9105825558786
 30
0.0
 11
374.1923334850994
 21
-2404.3225414880926
 31
0.0
  0
LINE
  5
3A
330
17
100
AcDbEntity
  8
visible
100
AcDbLine
 10
-172.4158331250219
 20
-2155.4103326074674
 30
0.0
 11
-172.4158331250219
 21
-2088.8222915396814
 31
0.0
  0
LINE
  5
3B
330
17
100
AcDbEntity
  8
visible
100
AcDbLine
 10
-719.0239997351428
 20
-1839.9100826590561
 30
0.0
 11
-719.0239997351428
 21
-1773.3220415912704
 31
0.0
  0
LINE
  5
3C
330
17
100
AcDbEntity
  8
visible
100
AcDbLine
 10
-1265.6321663452645
 20
-1524.4098327106444
 30
0.0
 11
-1265.6321663452645
 21
-1457.821791642859
 31
0.0
  0
LINE
  5
3D
330
17
100
AcDbEntity
  8
visible
100
AcDbLine
 10
-1812.2403329553854
 20
-1208.9095827622332
 30
0.0
 11
-1812.2403329553854
 21
-1142.3215416944477
 31
0.0
  0
LINE
  5
3E
330
17
100
AcDbEntity
  8
visible
100
AcDbLine
 10
-2358.848499565507
 20
-893.4093328138218
 30
0.0
 11
-2358.848499565507
 21
-826.8212917460362
 31
0.0
  0
LINE
  5
3F
330
17
100
AcDbEntity
  8
visible
100
AcDbLine
 10
-2905.456666175628
 20
-577.909082865411
 30
0.0
 11
-2905.456666175628
 21
-511.32104179762484
 31
0.0
  0
LINE
  5
40
330
17
100
AcDbEntity
  8
visible
100
AcDbLine
 10
-3452.064832785749
 20
-262.40883291699936
 30
0.0
 11
-3452.064832785749
 21
-195.82079184921395
 31
0.0
  0
LINE
  5
41
330
17
100
AcDbEntity
  8
visible
100
AcDbLine
 10
-3998.6729993958706
 20
53.091417031412334
 30
0.0
 11
-3998.6729993958706
 21
119.67945809919797
 31
0.0
  0
LINE
  5
42
330
17
100
AcDbEntity
  8
visible
100
AcDbLine
 10
-4545.2811660059915
 20
368.5916669798231
 30
0.0
 11
-4545.2811660059915
 21
435.1797080476091
 31
0.0
  0
LINE
  5
43
330
17
100
AcDbEntity
  8
visible
100
AcDbLine
 10
-5091.889332616113
 20
684.0919169282348
 30
0.0
 11
-5091.889332616113
 21
750.6799579960208
 31
0.0
  0
LINE
  5
44
330
17
100
AcDbEntity
  8
visible
100
AcDbLine
 10
-5638.497499226234
 20
999.5921668766465
 30
0.0
 11
-5638.497499226234
 21
1066.1802079444315
 31
0.0
  0
LINE
  5
45
330
17
100
AcDbEntity
  8
visible
100
AcDbLine
 10
-5918.360880530616
 20
-1658.034220971172
 30
0.0
 11
-5918.360880530616
 21
1227.7163359180176
 31
0.0
  0
LINE
  5
46
330
17
100
AcDbEntity
  8
visible
100
AcDbLine
 10
1014.5047572283843
 20
-5659.659105459708
 30
0.0
 11
-5918.360880530616
 21
-1658.0342209711725
 31
0.0
  0
LINE
  5
47
330
17
100
AcDbEntity
  8
visible
100
AcDbLine
 10
1014.5047572283843
 20
-5659.659105459708
 30
0.0
 11
1014.5047572283843
 21
-2773.9085485705173
 31
0.0
  0
LINE
  5
48
330
17
100
AcDbEntity
  8
visible
100
AcDbLine
 10
-5512.30909962024
 20
-1760.2418790858883
 30
0.0
 11
-3951.820870829288
 21
-2660.9500212243247
 31
0.0
  0
LINE
  5
49
330
17
100
AcDbEntity
  8
visible
100
AcDbLine
 10
-5512.30909962024
 20
-1760.241879085888
 30
0.0
 11
-5512.30909962024
 21
859.9750767256701
 31
0.0
  0
LINE
  5
4A
330
17
100
AcDbEntity
  8
visible
100
AcDbLine
 10
-3951.8208708292887
 20
-2660.9500212243247
 30
0.0
 11
-3951.8208708292887
 21
-40.73306541276634
 31
0.0
  0
LINE
  5
4B
330
17
100
AcDbEntity
  8
visible
100
AcDbLine
 10
-5512.30909962024
 20
859.9750767256696
 30
0.0
 11
-5216.828342126998
 21
689.4246558964142
 31
0.0
  0
LINE
  5
4C
330
17
100
AcDbEntity
  8
visible
100
AcDbLine
 10
-5127.042093524222
 20
637.6003590664118
 30
0.0
 11
-4670.220175516876
 21
373.9244059480027
 31
0.0
  0
LINE
  5
4D
330
17
100
AcDbEntity
  8
visible
100
AcDbLine
 10
-4580.433926914098
 20
322.10010911799964
 30
0.0
 11
-4123.612008906755
 21
58.42415599959145
 31
0.0
  0
LINE
  5
4E
330
17
100
AcDbEntity
  8
visible
100
AcDbLine
 10
-4033.8257603039774
 20
6.599859169588626
 30
0.0
 11
-3951.820870829288
 21
-40.733065412766564
 31
0.0
  0
LINE
  5
4F
330
17
100
AcDbEntity
  8
visible
100
AcDbLine
 10
-3825.632471223295
 20
-2733.7855074981294
 30
0.0
 11
-1015.7541473234946
 21
-4355.637078090077
 31
0.0
  0
LINE
  5
50
330
17
100
AcDbEntity
  8
visible
100
AcDbLine
 10
-3825.6324712232945
 20
-2733.785507498129
 30
0.0
 11
-3825.6324712232945
 21
-113.56855168657057
 31
0.0
  0
LINE
  5
51
330
17
100
AcDbEntity
  8
visible
100
AcDbLine
 10
-1015.7541473234946
 20
-4355.637078090076
 30
0.0
 11
-1015.7541473234946
 21
-1735.4201222785182
 31
0.0
  0
LINE
  5
52
330
17
100
AcDbEntity
  8
visible
100
AcDbLine
 10
-3825.632471223295
 20
-113.56855168657103
 30
0.0
 11
-3577.0038422966336
 21
-257.07609394882
 31
0.0
  0
LINE
  5
53
330
17
100
AcDbEntity
  8
visible
100
AcDbLine
 10
-3487.217593693856
 20
-308.90039077882307
 30
0.0
 11
-3030.395675686513
 21
-572.5763438972313
 31
0.0
  0
LINE
  5
54
330
17
100
AcDbEntity
  8
visible
100
AcDbLine
 10
-2940.6094270837348
 20
-624.4006407272343
 30
0.0
 11
-2483.787509076392
 21
-888.0765938456425
 31
0.0
  0
LINE
  5
55
330
17
100
AcDbEntity
  8
visible
100
AcDbLine
 10
-2394.0012604736144
 20
-939.9008906756453
 30
0.0
 11
-1937.1793424662706
 21
-1203.576843794054
 31
0.0
  0
LINE
  5
56
330
17
100
AcDbEntity
  8
visible
100
AcDbLine
 10
-1847.3930938634926
 20
-1255.4011406240568
 30
0.0
 11
-1390.5711758561492
 21
-1519.0770937424654
 31
0.0
  0
LINE
  5
57
330
17
100
AcDbEntity
  8
visible
100
AcDbLine
 10
-1300.7849272533715
 20
-1570.9013905724682
 30
0.0
 11
-1015.7541473234946
 21
-1735.4201222785186
 31
0.0
  0
LINE
  5
58
330
17
100
AcDbEntity
  8
visible
100
AcDbLine
 10
-889.5657477175008
 20
-4428.472564363882
 30
0.0
 11
670.922481073451
 21
-5329.180706502318
 31
0.0
  0
LINE
  5
59
330
17
100
AcDbEntity
  8
visible
100
AcDbLine
 10
-889.5657477175009
 20
-4428.472564363881
 30
0.0
 11
-889.5657477175009
 21
-1808.2556085523233
 31
0.0
  0
LINE
  5
5A
330
17
100
AcDbEntity
  8
visible
100
AcDbLine
 10
670.922481073451
 20
-5329.180706502317
 30
0.0
 11
670.922481073451
 21
-2708.963750690759
 31
0.0
  0
LINE
  5
5B
330
17
100
AcDbEntity
  8
visible
100
AcDbLine
 10
-889.5657477175008
 20
-1808.2556085523233
 30
0.0
 11
-843.9630092460278
 21
-1834.5773436908767
 31
0.0
  0
LINE
  5
5C
330
17
100
AcDbEntity
  8
visible
100
AcDbLine
 10
-754.1767606432501
 20
-1886.4016405208795
 30
0.0
 11
-297.3548426359065
 21
-2150.077593639288
 31
0.0
  0
LINE
  5
5D
330
17
100
AcDbEntity
  8
visible
100
AcDbLine
 10
-207.568594033129
 20
-2201.9018904692907
 30
0.0
 11
249.2533239742147
 21
-2465.577843587699
 31
0.0
  0
LINE
  5
5E
330
17
100
AcDbEntity
  8
visible
100
AcDbLine
 10
339.0395725769924
 20
-2517.402140417702
 30
0.0
 11
670.922481073451
 21
-2708.9637506907593
 31
0.0
  0
LINE
  5
5F
330
17
100
AcDbEntity
  8
visible
100
AcDbLine
 10
1014.5047572283843
 20
-5659.659105459708
 30
0.0
 11
1169.8976503075473
 21
-5602.256088554809
 31
0.0
  0
LINE
  5
60
330
17
100
AcDbEntity
  8
visible
100
AcDbLine
 10
1169.8976503075473
 20
-5602.256088554808
 30
0.0
 11
1169.8976503075473
 21
-2863.6007624844224
 31
0.0
  0
LINE
  5
61
330
17
100
AcDbEntity
  8
visible
100
AcDbLine
 10
-5512.30909962024
 20
-1760.2418790858883
 30
0.0
 11
-5356.9162065410765
 21
-1702.8388621809886
 31
0.0
  0
LINE
  5
62
330
17
100
AcDbEntity
  8
visible
100
AcDbLine
 10
-5356.916206541077
 20
-1702.8388621809886
 30
0.0
 11
-3951.8208708292887
 21
-2513.8547904055195
 31
0.0
  0
LINE
  5
63
330
17
100
AcDbEntity
  8
visible
100
AcDbLine
 10
-5356.916206541077
 20
-1702.8388621809884
 30
0.0
 11
-5356.916206541077
 21
770.2828628117641
 31
0.0
  0
LINE
  5
64
330
17
100
AcDbEntity
  8
visible
100
AcDbLine
 10
-3825.6324712232945
 20
-2733.785507498129
 30
0.0
 11
-3670.2395781441314
 21
-2676.3824905932292
 31
0.0
  0
LINE
  5
65
330
17
100
AcDbEntity
  8
visible
100
AcDbLine
 10
-3670.239578144132
 20
-2676.3824905932292
 30
0.0
 11
-1015.7541473234946
 21
-4208.541847271272
 31
0.0
  0
LINE
  5
66
330
17
100
AcDbEntity
  8
visible
100
AcDbLine
 10
-3670.239578144132
 20
-2676.3824905932292
 30
0.0
 11
-3670.239578144132
 21
-203.2607656004766
 31
0.0
  0
LINE
  5
67
330
17
100
AcDbEntity
  8
visible
100
AcDbLine
 10
-889.5657477175007
 20
-4428.472564363881
 30
0.0
 11
-734.1728546383378
 21
-4371.069547458982
 31
0.0
  0
LINE
  5
68
330
17
100
AcDbEntity
  8
visible
100
AcDbLine
 10
-734.1728546383378
 20
-4371.069547458982
 30
0.0
 11
670.922481073451
 21
-5182.085475683512
 31
0.0
  0
LINE
  5
69
330
17
100
AcDbEntity
  8
visible
100
AcDbLine
 10
-734.1728546383379
 20
-4371.069547458982
 30
0.0
 11
-734.1728546383379
 21
-1897.9478224662294
 31
0.0
  0
LINE
  5
6A
330
17
100
AcDbEntity
  8
visible
100
AcDbLine
 10
1170.6785191169904
 20
-5601.967631183427
 30
0.0
 11
1170.6785191169904
 21
-2864.051477127206
 31
0.0
  0
LINE
  5
6B
330
17
100
AcDbEntity
  8
visible
100
AcDbLine
 10
1170.6785191169904
 20
-5601.967631183427
 30
0.0
 11
1169.8976503075473
 21
-5601.516916540644
 31
0.0
  0
LINE
  5
6C
330
17
100
AcDbEntity
  8
visible
100
AcDbLine
 10
1170.6785191169904
 20
-5601.967631183427
 30
0.0
 11
1181.2983349254155
 21
-5598.04461093264
 31
0.0
  0
LINE
  5
6D
330
17
100
AcDbEntity
  8
visible
100
AcDbLine
 10
-5356.76003277919
 20
-1702.9290051095447
 30
0.0
 11
-5356.76003277919
 21
770.1927198832082
 31
0.0
  0
LINE
  5
6E
330
17
100
AcDbEntity
  8
visible
100
AcDbLine
 10
-5162.323699227874
 20
-1762.5279037540859
 30
0.0
 11
-5162.323699227874
 21
-1727.6389846855052
 31
0.0
  0
LINE
  5
6F
330
17
100
AcDbEntity
  8
visible
100
AcDbLine
 10
-5162.323699227874
 20
503.77349167534203
 30
0.0
 11
-5162.323699227874
 21
606.0696759857333
 31
0.0
  0
LINE
  5
70
330
17
100
AcDbEntity
  8
visible
100
AcDbLine
 10
-5217.921558460218
 20
-1783.0660685964417
 30
0.0
 11
-5162.323699227875
 21
-1762.5279037540859
 31
0.0
  0
LINE
  5
71
330
17
100
AcDbEntity
  8
visible
100
AcDbLine
 10
-5160.918135370876
 20
502.96220531833114
 30
0.0
 11
-5160.918135370876
 21
605.2583896287229
 31
0.0
  0
LINE
  5
72
330
17
100
AcDbEntity
  8
visible
100
AcDbLine
 10
-3474.241506973931
 20
-470.5814230939095
 30
0.0
 11
-3474.241506973931
 21
-316.39014093912147
 31
0.0
  0
LINE
  5
73
330
17
100
AcDbEntity
  8
visible
100
AcDbLine
 10
-538.1747834681373
 20
-2165.2684799596614
 30
0.0
 11
-538.1747834681373
 21
-2011.0771978048738
 31
0.0
  0
LINE
  5
74
330
17
100
AcDbEntity
  8
visible
100
AcDbLine
 10
-5149.205103229231
 20
496.2014856765795
 30
0.0
 11
-5149.205103229231
 21
608.2884978790021
 31
0.0
  0
LINE
  5
75
330
17
100
AcDbEntity
  8
visible
100
AcDbLine
 10
-3462.5284748322856
 20
-477.3421427356607
 30
0.0
 11
-3462.5284748322856
 21
-323.1508605808731
 31
0.0
  0
LINE
  5
76
330
17
100
AcDbEntity
  8
visible
100
AcDbLine
 10
-526.4617513264918
 20
-2172.0291996014134
 30
0.0
 11
-526.4617513264918
 21
-2017.8379174466254
 31
0.0
  0
LINE
  5
77
330
17
100
AcDbEntity
  8
visible
100
AcDbLine
 10
-659.0532751699184
 20
-4414.428296094749
 30
0.0
 11
-659.0532751699184
 21
-1941.3065711019963
 31
0.0
  0
LINE
  5
78
330
17
100
AcDbEntity
  8
visible
100
AcDbLine
 10
-721.5227799253607
 20
-4378.371124672074
 30
0.0
 11
-721.5227799253607
 21
-1905.249399679321
 31
0.0
  0
LINE
  5
79
330
17
100
AcDbEntity
  8
visible
100
AcDbLine
 10
-581.7472630350585
 20
-4416.768406520081
 30
0.0
 11
-581.7472630350585
 21
-4371.531079253192
 31
0.0
  0
LINE
  5
7A
330
17
100
AcDbEntity
  8
visible
100
AcDbLine
 10
-581.7472630350585
 20
-2140.1186028923453
 30
0.0
 11
-581.7472630350585
 21
-1985.9273207375572
 31
0.0
  0
LINE
  5
7B
330
17
100
AcDbEntity
  8
visible
100
AcDbLine
 10
-626.4129589351998
 20
-4433.2681681630975
 30
0.0
 11
-581.7472630350584
 21
-4416.768406520081
 31
0.0
  0
LINE
  5
7C
330
17
100
AcDbEntity
  8
visible
100
AcDbLine
 10
-3595.119998675713
 20
-2719.741239228997
 30
0.0
 11
-3595.119998675713
 21
-246.6195142362435
 31
0.0
  0
LINE
  5
7D
330
17
100
AcDbEntity
  8
visible
100
AcDbLine
 10
-3657.589503431155
 20
-2683.6840678063213
 30
0.0
 11
-3657.589503431155
 21
-210.5623428135682
 31
0.0
  0
LINE
  5
7E
330
17
100
AcDbEntity
  8
visible
100
AcDbLine
 10
-3517.813986540852
 20
-2722.0813496543283
 30
0.0
 11
-3517.813986540852
 21
-2676.8440223874395
 31
0.0
  0
LINE
  5
7F
330
17
100
AcDbEntity
  8
visible
100
AcDbLine
 10
-3517.813986540852
 20
-445.43154602659297
 30
0.0
 11
-3517.813986540852
 21
-343.1353617162008
 31
0.0
  0
LINE
  5
80
330
17
100
AcDbEntity
  8
visible
100
AcDbLine
 10
-3562.4796824409946
 20
-2738.5811112973447
 30
0.0
 11
-3517.813986540853
 21
-2722.0813496543283
 31
0.0
  0
LINE
  5
81
330
17
100
AcDbEntity
  8
visible
100
AcDbLine
 10
5566.969916281251
 20
-1016.5338727560661
 30
0.0
 11
5566.969916281251
 21
-1006.4811333634243
 31
0.0
  0
LINE
  5
82
330
17
100
AcDbEntity
  8
visible
100
AcDbLine
 10
5566.969916281251
 20
-1006.4811333634243
 30
0.0
 11
5554.476015330162
 21
-999.2696990788888
 31
0.0
  0
LINE
  5
83
330
17
100
AcDbEntity
  8
visible
100
AcDbLine
 10
5556.3987977266825
 20
-1010.386164572171
 30
0.0
 11
5566.969916281251
 21
-1006.481133363424
 31
0.0
  0
LINE
  5
84
330
17
100
AcDbEntity
  8
visible
100
AcDbLine
 10
5567.750785090694
 20
-1016.245415384685
 30
0.0
 11
5567.750785090694
 21
-1006.1926759920431
 31
0.0
  0
LINE
  5
85
330
17
100
AcDbEntity
  8
visible
100
AcDbLine
 10
5567.750785090694
 20
-1006.1926759920425
 30
0.0
 11
5554.476015330162
 21
-998.5305270647237
 31
0.0
  0
LINE
  5
86
330
17
100
AcDbEntity
  8
visible
100
AcDbLine
 10
5762.1871186420085
 20
-944.4195299107153
 30
0.0
 11
5762.1871186420085
 21
-934.3667905180733
 31
0.0
  0
LINE
  5
87
330
17
100
AcDbEntity
  8
visible
100
AcDbLine
 10
5762.1871186420085
 20
-934.3667905180728
 30
0.0
 11
5719.239334122642
 21
-909.5774851649832
 31
0.0
  0
LINE
  5
88
330
17
100
AcDbEntity
  8
visible
100
AcDbLine
 10
5567.750785090694
 20
-1006.1926759920425
 30
0.0
 11
5762.1871186420085
 21
-934.3667905180728
 31
0.0
  0
LINE
  5
89
330
17
100
AcDbEntity
  8
visible
100
AcDbLine
 10
5762.967987451451
 20
-934.0783331466919
 30
0.0
 11
5719.239334122642
 21
-908.838313150819
 31
0.0
  0
LINE
  5
8A
330
17
100
AcDbEntity
  8
visible
100
AcDbLine
 10
5762.967987451451
 20
-944.1310725393341
 30
0.0
 11
5762.967987451451
 21
-934.0783331466914
 31
0.0
  0
LINE
  5
8B
330
17
100
AcDbEntity
  8
visible
100
AcDbLine
 10
5824.656623397451
 20
-822.5895591077788
 30
0.0
 11
5719.239334122642
 21
-861.5313042442682
 31
0.0
  0
LINE
  5
8C
330
17
100
AcDbEntity
  8
visible
100
AcDbLine
 10
5918.360880530615
 20
-876.6753162417917
 30
0.0
 11
5824.656623397451
 21
-822.5895591077783
 31
0.0
  0
LINE
  5
8D
330
17
100
AcDbEntity
  8
visible
100
AcDbLine
 10
5762.967987451451
 20
-934.0783331466919
 30
0.0
 11
5918.360880530614
 21
-876.6753162417923
 31
0.0
  0
LINE
  5
8E
330
17
100
AcDbEntity
  8
visible
100
AcDbLine
 10
5918.360880530615
 20
-1024.5097190747624
 30
0.0
 11
5918.360880530615
 21
-876.6753162417922
 31
0.0
  0
LINE
  5
8F
330
17
100
AcDbEntity
  8
visible
100
AcDbLine
 10
5609.917700800618
 20
-989.7289715204497
 30
0.0
 11
5609.917700800618
 21
-901.9153362376655
 31
0.0
  0
LINE
  5
90
330
17
100
AcDbEntity
  8
visible
100
AcDbLine
 10
5609.917700800618
 20
-901.9153362376655
 30
0.0
 11
5554.476015330162
 21
-869.9145966000406
 31
0.0
  0
LINE
  5
91
330
17
100
AcDbEntity
  8
visible
100
AcDbLine
 10
5609.917700800618
 20
-989.7289715204497
 30
0.0
 11
5554.476015330162
 21
-957.7282318828247
 31
0.0
  0
LINE
  5
92
330
17
100
AcDbEntity
  8
visible
100
AcDbLine
 10
5719.239334122642
 20
-949.3449395270527
 30
0.0
 11
5719.239334122642
 21
-861.5313042442685
 31
0.0
  0
LINE
  5
93
330
17
100
AcDbEntity
  8
visible
100
AcDbLine
 10
5719.239334122642
 20
-861.5313042442685
 30
0.0
 11
5625.5350769894785
 21
-807.4455471102553
 31
0.0
  0
LINE
  5
94
330
17
100
AcDbEntity
  8
visible
100
AcDbLine
 10
5609.917700800618
 20
-989.7289715204497
 30
0.0
 11
5719.2393341226425
 21
-949.344939527053
 31
0.0
  0
LINE
  5
95
330
17
100
AcDbEntity
  8
visible
100
AcDbLine
 10
5609.917700800618
 20
-901.9153362376655
 30
0.0
 11
5719.2393341226425
 21
-861.5313042442689
 31
0.0
  0
LINE
  5
96
330
17
100
AcDbEntity
  8
visible
100
AcDbLine
 10
1336.8474017664673
 20
-5697.8797071677445
 30
0.0
 11
1181.2983349254157
 21
-5608.097350325283
 31
0.0
  0
LINE
  5
97
330
17
100
AcDbEntity
  8
visible
100
AcDbLine
 10
1336.8474017664673
 20
-5697.8797071677445
 30
0.0
 11
5928.356001291485
 21
-4001.750363445085
 31
0.0
  0
LINE
  5
98
330
17
100
AcDbEntity
  8
visible
100
AcDbLine
 10
1336.8474017664673
 20
-2959.9635531115237
 30
0.0
 11
1336.8474017664673
 21
-5697.8797071677445
 31
0.0
  0
LINE
  5
99
330
17
100
AcDbEntity
  8
visible
100
AcDbLine
 10
1181.2983349254157
 20
-2870.1811962690613
 30
0.0
 11
1181.2983349254157
 21
-5608.097350325283
 31
0.0
  0
LINE
  5
9A
330
17
100
AcDbEntity
  8
visible
100
AcDbLine
 10
5928.356001291485
 20
-1030.27886650239
 30
0.0
 11
5772.806934450433
 21
-940.4965096599278
 31
0.0
  0
LINE
  5
9B
330
17
100
AcDbEntity
  8
visible
100
AcDbLine
 10
5928.356001291485
 20
-4001.750363445085
 30
0.0
 11
5928.356001291485
 21
-1030.2788665023904
 31
0.0
  0
LINE
  5
9C
330
17
100
AcDbEntity
  8
visible
100
AcDbLine
 10
5928.356001291485
 20
-1030.27886650239
 30
0.0
 11
5721.4257667890815
 21
-1106.7200699184623
 31
0.0
  0
LINE
  5
9D
330
17
100
AcDbEntity
  8
visible
100
AcDbLine
 10
5721.425766789082
 20
-1106.7200699184623
 30
0.0
 11
3682.7813641087705
 21
83.33133827466054
 31
0.0
  0
LINE
  5
9E
330
17
100
AcDbEntity
  8
visible
100
AcDbLine
 10
2323.865576902457
 20
-5201.105633608973
 30
0.0
 11
1544.5585050783131
 21
-5488.986090247615
 31
0.0
  0
LINE
  5
9F
330
17
100
AcDbEntity
  8
visible
100
AcDbLine
 10
2323.8655769024576
 20
-5201.105633608973
 30
0.0
 11
2323.8655769024576
 21
-3024.3918862963255
 31
0.0
  0
LINE
  5
A0
330
17
100
AcDbEntity
  8
visible
100
AcDbLine
 10
2323.865576902457
 20
-3024.391886296325
 30
0.0
 11
1544.5585050783131
 21
-3312.272342934967
 31
0.0
  0
LINE
  5
A1
330
17
100
AcDbEntity
  8
visible
100
AcDbLine
 10
1544.5585050783134
 20
-5488.986090247616
 30
0.0
 11
1544.5585050783134
 21
-3312.272342934968
 31
0.0
  0
LINE
  5
A2
330
17
100
AcDbEntity
  8
visible
100
AcDbLine
 10
5772.806934450434
 20
-940.496509659928
 30
0.0
 11
5566.945634095332
 21
-1016.5428427334002
 31
0.0
  0
LINE
  5
A3
330
17
100
AcDbEntity
  8
visible
100
AcDbLine
 10
2168.316510061406
 20
-5111.323276766511
 30
0.0
 11
1544.5585050783136
 21
-5341.743025025978
 31
0.0
  0
LINE
  5
A4
330
17
100
AcDbEntity
  8
visible
100
AcDbLine
 10
2168.316510061406
 20
-5111.323276766512
 30
0.0
 11
2168.316510061406
 21
-3081.8525946755017
 31
0.0
  0
LINE
  5
A5
330
17
100
AcDbEntity
  8
visible
100
AcDbLine
 10
2323.8655769024576
 20
-5201.105633608974
 30
0.0
 11
2168.316510061406
 21
-5111.323276766512
 31
0.0
  0
LINE
  5
A6
330
17
100
AcDbEntity
  8
visible
100
AcDbLine
 10
-5918.360880530616
 20
-1510.1998181382025
 30
0.0
 11
-5928.356001291488
 21
-1504.430670710574
 31
0.0
  0
LINE
  5
A7
330
17
100
AcDbEntity
  8
visible
100
AcDbLine
 10
-5928.356001291488
 20
1233.485483345647
 30
0.0
 11
-5928.356001291488
 21
-1504.4306707105738
 31
0.0
  0
LINE
  5
A8
330
17
100
AcDbEntity
  8
visible
100
AcDbLine
 10
-4707.701878370142
 20
241.36742664682032
 30
0.0
 11
-4707.701878370142
 21
395.5587088016083
 31
0.0
  0
LINE
  5
A9
330
17
100
AcDbEntity
  8
visible
100
AcDbLine
 10
-4863.2509452111935
 20
331.1497834892823
 30
0.0
 11
-4863.2509452111935
 21
485.3410656440702
 31
0.0
  0
LINE
  5
AA
330
17
100
AcDbEntity
  8
visible
100
AcDbLine
 10
2167.6918150138513
 20
-5110.075698635287
 30
0.0
 11
2168.316510061406
 21
-5109.844932738182
 31
0.0
  0
LINE
  5
AB
330
17
100
AcDbEntity
  8
visible
100
AcDbLine
 10
2167.6918150138517
 20
-5110.075698635287
 30
0.0
 11
2167.6918150138517
 21
-3082.0833605726066
 31
0.0
  0
LINE
  5
AC
330
17
100
AcDbEntity
  8
visible
100
AcDbLine
 10
2158.9460843480892
 20
-5105.027694636112
 30
0.0
 11
2158.9460843480892
 21
-3085.3140831320775
 31
0.0
  0
LINE
  5
AD
330
17
100
AcDbEntity
  8
visible
100
AcDbLine
 10
2158.9460843480892
 20
-5105.027694636112
 30
0.0
 11
2167.6918150138513
 21
-5110.075698635287
 31
0.0
  0
LINE
  5
AE
330
17
100
AcDbEntity
  8
visible
100
AcDbLine
 10
-4698.3314526568265
 20
235.95885093341928
 30
0.0
 11
-4698.3314526568265
 21
390.15013308820727
 31
0.0
  0
LINE
  5
AF
330
17
100
AcDbEntity
  8
visible
100
AcDbLine
 10
-4707.077183322588
 20
241.00685493259363
 30
0.0
 11
-4707.077183322588
 21
395.19813708738167
 31
0.0
  0
LINE
  5
B0
330
17
100
AcDbEntity
  8
visible
100
AcDbLine
 10
670.922481073451
 20
-2877.938473128844
 30
0.0
 11
-643.5920727429462
 21
-2119.205443467193
 31
0.0
  0
LINE
  5
B1
330
17
100
AcDbEntity
  8
visible
100
AcDbLine
 10
-643.5920727429464
 20
-4335.834479544743
 30
0.0
 11
-643.5920727429464
 21
-2119.2054434671927
 31
0.0
  0
LINE
  5
B2
330
17
100
AcDbEntity
  8
visible
100
AcDbLine
 10
670.922481073451
 20
-5094.567509206394
 30
0.0
 11
-643.5920727429462
 21
-4335.834479544743
 31
0.0
  0
LINE
  5
B3
330
17
100
AcDbEntity
  8
visible
100
AcDbLine
 10
670.922481073451
 20
-2863.155032845547
 30
0.0
 11
-627.9746965540857
 21
-2113.436296039565
 31
0.0
  0
LINE
  5
B4
330
17
100
AcDbEntity
  8
visible
100
AcDbLine
 10
-643.5920727429464
 20
-2119.205443467193
 30
0.0
 11
-627.9746965540858
 21
-2113.436296039565
 31
0.0
  0
LINE
  5
B5
330
17
100
AcDbEntity
  8
visible
100
AcDbLine
 10
-1015.7541473234946
 20
-1904.3948447166033
 30
0.0
 11
-3579.65879624874
 21
-424.51838660144085
 31
0.0
  0
LINE
  5
B6
330
17
100
AcDbEntity
  8
visible
100
AcDbLine
 10
-3579.65879624874
 20
-2641.1474226789906
 30
0.0
 11
-3579.65879624874
 21
-424.5183866014404
 31
0.0
  0
LINE
  5
B7
330
17
100
AcDbEntity
  8
visible
100
AcDbLine
 10
-1015.7541473234946
 20
-4121.023880794153
 30
0.0
 11
-3579.65879624874
 21
-2641.147422678991
 31
0.0
  0
LINE
  5
B8
330
17
100
AcDbEntity
  8
visible
100
AcDbLine
 10
-1015.7541473234946
 20
-1889.6114044333065
 30
0.0
 11
-3564.04142005988
 21
-418.74923917381284
 31
0.0
  0
LINE
  5
B9
330
17
100
AcDbEntity
  8
visible
100
AcDbLine
 10
-3579.65879624874
 20
-424.5183866014404
 30
0.0
 11
-3564.0414200598793
 21
-418.7492391738123
 31
0.0
  0
LINE
  5
BA
330
17
100
AcDbEntity
  8
visible
100
AcDbLine
 10
-3951.8208708292887
 20
-209.70778785085116
 30
0.0
 11
-5266.335424645686
 21
549.0252418107998
 31
0.0
  0
LINE
  5
BB
330
17
100
AcDbEntity
  8
visible
100
AcDbLine
 10
-5266.335424645686
 20
-1667.60379426675
 30
0.0
 11
-5266.335424645686
 21
549.0252418108003
 31
0.0
  0
LINE
  5
BC
330
17
100
AcDbEntity
  8
visible
100
AcDbLine
 10
-3951.8208708292887
 20
-2426.3368239284014
 30
0.0
 11
-5266.335424645686
 21
-1667.6037942667504
 31
0.0
  0
LINE
  5
BD
330
17
100
AcDbEntity
  8
visible
100
AcDbLine
 10
-3951.8208708292887
 20
-194.9243475675544
 30
0.0
 11
-5250.718048456825
 21
554.7943892384278
 31
0.0
  0
LINE
  5
BE
330
17
100
AcDbEntity
  8
visible
100
AcDbLine
 10
-5266.335424645686
 20
549.0252418108003
 30
0.0
 11
-5250.718048456825
 21
554.7943892384284
 31
0.0
  0
LINE
  5
BF
330
17
100
AcDbEntity
  8
visible
100
AcDbLine
 10
858.3309953397783
 20
-2685.539632847824
 30
0.0
 11
795.8614905843358
 21
-2649.4824614251484
 31
0.0
  0
LINE
  5
C0
330
17
100
AcDbEntity
  8
visible
100
AcDbLine
 10
858.3309953397783
 20
-2685.539632847824
 30
0.0
 11
859.2648071289659
 21
-2684.304612789441
 31
0.0
  0
LINE
  5
C1
330
17
100
AcDbEntity
  8
visible
100
AcDbLine
 10
795.8614905843358
 20
-2649.4824614251484
 30
0.0
 11
796.7953023735233
 21
-2648.247441366765
 31
0.0
  0
LINE
  5
C2
330
17
100
AcDbEntity
  8
visible
100
AcDbLine
 10
858.3309953397783
 20
-2869.0303628031825
 30
0.0
 11
795.8614905843358
 21
-2832.9731913805067
 31
0.0
  0
LINE
  5
C3
330
17
100
AcDbEntity
  8
visible
100
AcDbLine
 10
858.3309953397783
 20
-2869.0303628031825
 30
0.0
 11
858.3309953397783
 21
-2685.5396328478246
 31
0.0
  0
LINE
  5
C4
330
17
100
AcDbEntity
  8
visible
100
AcDbLine
 10
795.8614905843358
 20
-2832.9731913805067
 30
0.0
 11
795.8614905843358
 21
-2649.4824614251484
 31
0.0
  0
LINE
  5
C5
330
17
100
AcDbEntity
  8
visible
100
AcDbLine
 10
3879.797610787133
 20
343.8967105397403
 30
0.0
 11
5887.126128152893
 21
-827.8741611515779
 31
0.0
  0
LINE
  5
C6
330
17
100
AcDbEntity
  8
visible
100
AcDbLine
 10
5571.801261701283
 20
-827.2951235370333
 30
0.0
 11
3783.54291699592
 21
216.59431521538977
 31
0.0
  0
LINE
  5
C7
330
17
100
AcDbEntity
  8
visible
100
AcDbLine
 10
5571.801261701282
 20
-827.2951235370338
 30
0.0
 11
5625.535076989478
 21
-807.4455471102553
 31
0.0
  0
LINE
  5
C8
330
17
100
AcDbEntity
  8
visible
100
AcDbLine
 10
5887.126128152893
 20
-827.8741611515779
 30
0.0
 11
5887.126128152893
 21
-858.6467305304537
 31
0.0
  0
LINE
  5
C9
330
17
100
AcDbEntity
  8
visible
100
AcDbLine
 10
920.8005000952198
 20
-2786.410832504291
 30
0.0
 11
858.3309953397784
 21
-2869.0303628031825
 31
0.0
  0
LINE
  5
CA
330
17
100
AcDbEntity
  8
visible
100
AcDbLine
 10
5509.33175694584
 20
-791.237952114358
 30
0.0
 11
5166.384217036976
 21
-591.0435473087297
 31
0.0
  0
LINE
  5
CB
330
17
100
AcDbEntity
  8
visible
100
AcDbLine
 10
5148.701721289569
 20
-580.7214534031401
 30
0.0
 11
3783.3282715848154
 21
216.31043425433973
 31
0.0
  0
LINE
  5
CC
330
17
100
AcDbEntity
  8
visible
100
AcDbLine
 10
5509.33175694584
 20
-791.2379521143571
 30
0.0
 11
5571.801261701283
 21
-827.2951235370326
 31
0.0
  0
LINE
  5
CD
330
17
100
AcDbEntity
  8
visible
100
AcDbLine
 10
311.72282872965707
 20
-2370.0393828994124
 30
0.0
 11
249.25332397421465
 21
-2333.9822114767367
 31
0.0
  0
LINE
  5
CE
330
17
100
AcDbEntity
  8
visible
100
AcDbLine
 10
311.72282872965707
 20
-2370.0393828994124
 30
0.0
 11
312.6566405188445
 21
-2368.804362841029
 31
0.0
  0
LINE
  5
CF
330
17
100
AcDbEntity
  8
visible
100
AcDbLine
 10
249.2533239742147
 20
-2333.982211476737
 30
0.0
 11
250.18713576340218
 21
-2332.747191418354
 31
0.0
  0
LINE
  5
D0
330
17
100
AcDbEntity
  8
visible
100
AcDbLine
 10
311.72282872965707
 20
-2553.530112854771
 30
0.0
 11
249.25332397421465
 21
-2517.472941432095
 31
0.0
  0
LINE
  5
D1
330
17
100
AcDbEntity
  8
visible
100
AcDbLine
 10
311.72282872965707
 20
-2553.530112854771
 30
0.0
 11
311.72282872965707
 21
-2370.039382899413
 31
0.0
  0
LINE
  5
D2
330
17
100
AcDbEntity
  8
visible
100
AcDbLine
 10
249.2533239742147
 20
-2517.4729414320955
 30
0.0
 11
249.2533239742147
 21
-2333.9822114767376
 31
0.0
  0
LINE
  5
D3
330
17
100
AcDbEntity
  8
visible
100
AcDbLine
 10
5027.1484563108215
 20
-511.07255205304085
 30
0.0
 11
5028.520098963284
 21
-510.565859470088
 31
0.0
  0
LINE
  5
D4
330
17
100
AcDbEntity
  8
visible
100
AcDbLine
 10
374.1923334850999
 20
-2470.9105825558795
 30
0.0
 11
311.7228287296575
 21
-2553.5301128547717
 31
0.0
  0
LINE
  5
D5
330
17
100
AcDbEntity
  8
visible
100
AcDbLine
 10
-234.88533788046425
 20
-2054.539132951001
 30
0.0
 11
-297.35484263590666
 21
-2018.4819615283257
 31
0.0
  0
LINE
  5
D6
330
17
100
AcDbEntity
  8
visible
100
AcDbLine
 10
-234.88533788046425
 20
-2054.539132951001
 30
0.0
 11
-233.95152609127678
 21
-2053.304112892618
 31
0.0
  0
LINE
  5
D7
330
17
100
AcDbEntity
  8
visible
100
AcDbLine
 10
-297.3548426359066
 20
-2018.4819615283259
 30
0.0
 11
-296.42103084671896
 21
-2017.2469414699424
 31
0.0
  0
LINE
  5
D8
330
17
100
AcDbEntity
  8
visible
100
AcDbLine
 10
-234.88533788046425
 20
-2238.0298629063595
 30
0.0
 11
-297.35484263590666
 21
-2201.972691483684
 31
0.0
  0
LINE
  5
D9
330
17
100
AcDbEntity
  8
visible
100
AcDbLine
 10
-234.88533788046425
 20
-2238.0298629063595
 30
0.0
 11
-234.88533788046425
 21
-2054.539132951001
 31
0.0
  0
LINE
  5
DA
330
17
100
AcDbEntity
  8
visible
100
AcDbLine
 10
-297.3548426359066
 20
-2201.972691483684
 30
0.0
 11
-297.3548426359066
 21
-2018.4819615283257
 31
0.0
  0
LINE
  5
DB
330
17
100
AcDbEntity
  8
visible
100
AcDbLine
 10
-172.4158331250228
 20
-2155.4103326074687
 30
0.0
 11
-234.88533788046425
 21
-2238.02986290636
 31
0.0
  0
LINE
  5
DC
330
17
100
AcDbEntity
  8
visible
100
AcDbLine
 10
-781.4935044905856
 20
-1739.03888300259
 30
0.0
 11
-843.963009246028
 21
-1702.9817115799144
 31
0.0
  0
LINE
  5
DD
330
17
100
AcDbEntity
  8
visible
100
AcDbLine
 10
-781.4935044905856
 20
-1739.03888300259
 30
0.0
 11
-780.5596927013979
 21
-1737.8038629442065
 31
0.0
  0
LINE
  5
DE
330
17
100
AcDbEntity
  8
visible
100
AcDbLine
 10
-843.9630092460279
 20
-1702.9817115799142
 30
0.0
 11
-843.0291974568404
 21
-1701.746691521531
 31
0.0
  0
LINE
  5
DF
330
17
100
AcDbEntity
  8
visible
100
AcDbLine
 10
-781.4935044905856
 20
-1922.5296129579483
 30
0.0
 11
-843.963009246028
 21
-1886.4724415352728
 31
0.0
  0
LINE
  5
E0
330
17
100
AcDbEntity
  8
visible
100
AcDbLine
 10
-781.4935044905856
 20
-1922.5296129579483
 30
0.0
 11
-781.4935044905856
 21
-1739.0388830025902
 31
0.0
  0
LINE
  5
E1
330
17
100
AcDbEntity
  8
visible
100
AcDbLine
 10
-843.9630092460279
 20
-1886.4724415352725
 30
0.0
 11
-843.9630092460279
 21
-1702.9817115799144
 31
0.0
  0
LINE
  5
E2
330
17
100
AcDbEntity
  8
visible
100
AcDbLine
 10
-719.0239997351437
 20
-1839.910082659057
 30
0.0
 11
-781.4935044905851
 21
-1922.5296129579483
 31
0.0
  0
LINE
  5
E3
330
17
100
AcDbEntity
  8
visible
100
AcDbLine
 10
-1328.1016711007069
 20
-1423.5386330541787
 30
0.0
 11
-1390.5711758561492
 21
-1387.4814616315032
 31
0.0
  0
LINE
  5
E4
330
17
100
AcDbEntity
  8
visible
100
AcDbLine
 10
-1328.1016711007069
 20
-1423.5386330541787
 30
0.0
 11
-1327.1678593115194
 21
-1422.3036129957954
 31
0.0
  0
LINE
  5
E5
330
17
100
AcDbEntity
  8
visible
100
AcDbLine
 10
-1390.5711758561492
 20
-1387.481461631503
 30
0.0
 11
-1389.637364066962
 21
-1386.24644157312
 31
0.0
  0
LINE
  5
E6
330
17
100
AcDbEntity
  8
visible
100
AcDbLine
 10
-1328.1016711007069
 20
-1607.029363009537
 30
0.0
 11
-1390.5711758561492
 21
-1570.9721915868615
 31
0.0
  0
LINE
  5
E7
330
17
100
AcDbEntity
  8
visible
100
AcDbLine
 10
-1328.1016711007069
 20
-1607.029363009537
 30
0.0
 11
-1328.1016711007069
 21
-1423.538633054179
 31
0.0
  0
LINE
  5
E8
330
17
100
AcDbEntity
  8
visible
100
AcDbLine
 10
-1390.5711758561492
 20
-1570.9721915868613
 30
0.0
 11
-1390.5711758561492
 21
-1387.4814616315032
 31
0.0
  0
LINE
  5
E9
330
17
100
AcDbEntity
  8
visible
100
AcDbLine
 10
-1265.632166345264
 20
-1524.4098327106453
 30
0.0
 11
-1328.1016711007064
 21
-1607.0293630095375
 31
0.0
  0
LINE
  5
EA
330
17
100
AcDbEntity
  8
visible
100
AcDbLine
 10
-1874.7098377108282
 20
-1108.038383105767
 30
0.0
 11
-1937.1793424662706
 21
-1071.9812116830915
 31
0.0
  0
LINE
  5
EB
330
17
100
AcDbEntity
  8
visible
100
AcDbLine
 10
-1874.7098377108282
 20
-1108.038383105767
 30
0.0
 11
-1873.7760259216407
 21
-1106.8033630473835
 31
0.0
  0
LINE
  5
EC
330
17
100
AcDbEntity
  8
visible
100
AcDbLine
 10
-1937.1793424662706
 20
-1071.9812116830917
 30
0.0
 11
-1936.245530677083
 21
-1070.7461916247082
 31
0.0
  0
LINE
  5
ED
330
17
100
AcDbEntity
  8
visible
100
AcDbLine
 10
-1874.7098377108282
 20
-1291.5291130611258
 30
0.0
 11
-1937.1793424662706
 21
-1255.4719416384503
 31
0.0
  0
LINE
  5
EE
330
17
100
AcDbEntity
  8
visible
100
AcDbLine
 10
-1874.7098377108282
 20
-1291.5291130611258
 30
0.0
 11
-1874.7098377108282
 21
-1108.0383831057677
 31
0.0
  0
LINE
  5
EF
330
17
100
AcDbEntity
  8
visible
100
AcDbLine
 10
-1937.1793424662706
 20
-1255.4719416384505
 30
0.0
 11
-1937.1793424662706
 21
-1071.9812116830924
 31
0.0
  0
LINE
  5
F0
330
17
100
AcDbEntity
  8
visible
100
AcDbLine
 10
-1812.2403329553863
 20
-1208.9095827622345
 30
0.0
 11
-1874.7098377108277
 21
-1291.5291130611258
 31
0.0
  0
LINE
  5
F1
330
17
100
AcDbEntity
  8
visible
100
AcDbLine
 10
-2421.3180043209495
 20
-792.5381331573562
 30
0.0
 11
-2483.787509076392
 21
-756.4809617346807
 31
0.0
  0
LINE
  5
F2
330
17
100
AcDbEntity
  8
visible
100
AcDbLine
 10
-2421.3180043209495
 20
-792.5381331573562
 30
0.0
 11
-2420.384192531762
 21
-791.3031130989729
 31
0.0
  0
LINE
  5
F3
330
17
100
AcDbEntity
  8
visible
100
AcDbLine
 10
-2483.787509076392
 20
-756.48096173468
 30
0.0
 11
-2482.8536972872043
 21
-755.2459416762968
 31
0.0
  0
LINE
  5
F4
330
17
100
AcDbEntity
  8
visible
100
AcDbLine
 10
-2421.3180043209495
 20
-976.0288631127141
 30
0.0
 11
-2483.787509076392
 21
-939.9716916900386
 31
0.0
  0
LINE
  5
F5
330
17
100
AcDbEntity
  8
visible
100
AcDbLine
 10
-2421.3180043209495
 20
-976.0288631127141
 30
0.0
 11
-2421.3180043209495
 21
-792.538133157356
 31
0.0
  0
LINE
  5
F6
330
17
100
AcDbEntity
  8
visible
100
AcDbLine
 10
-2483.787509076392
 20
-939.9716916900388
 30
0.0
 11
-2483.787509076392
 21
-756.4809617346807
 31
0.0
  0
LINE
  5
F7
330
17
100
AcDbEntity
  8
visible
100
AcDbLine
 10
-2358.8484995655076
 20
-893.4093328138229
 30
0.0
 11
-2421.318004320949
 21
-976.0288631127141
 31
0.0
  0
LINE
  5
F8
330
17
100
AcDbEntity
  8
visible
100
AcDbLine
 10
-2967.9261709310704
 20
-477.03788320894455
 30
0.0
 11
-3030.3956756865127
 21
-440.98071178626896
 31
0.0
  0
LINE
  5
F9
330
17
100
AcDbEntity
  8
visible
100
AcDbLine
 10
-2967.9261709310704
 20
-477.03788320894455
 30
0.0
 11
-2966.992359141883
 21
-475.8028631505611
 31
0.0
  0
LINE
  5
FA
330
17
100
AcDbEntity
  8
visible
100
AcDbLine
 10
-3030.3956756865127
 20
-440.98071178626924
 30
0.0
 11
-3029.461863897325
 21
-439.7456917278858
 31
0.0
  0
LINE
  5
FB
330
17
100
AcDbEntity
  8
visible
100
AcDbLine
 10
-2967.9261709310704
 20
-660.5286131643024
 30
0.0
 11
-3030.3956756865127
 21
-624.4714417416269
 31
0.0
  0
LINE
  5
FC
330
17
100
AcDbEntity
  8
visible
100
AcDbLine
 10
-2967.9261709310704
 20
-660.5286131643024
 30
0.0
 11
-2967.9261709310704
 21
-477.0378832089443
 31
0.0
  0
LINE
  5
FD
330
17
100
AcDbEntity
  8
visible
100
AcDbLine
 10
-3030.3956756865127
 20
-624.4714417416271
 30
0.0
 11
-3030.3956756865127
 21
-440.980711786269
 31
0.0
  0
LINE
  5
FE
330
17
100
AcDbEntity
  8
visible
100
AcDbLine
 10
-2905.456666175628
 20
-577.9090828654112
 30
0.0
 11
-2967.9261709310704
 21
-660.5286131643034
 31
0.0
  0
LINE
  5
FF
330
17
100
AcDbEntity
  8
visible
100
AcDbLine
 10
-3514.5343375411912
 20
-161.53763326053286
 30
0.0
 11
-3577.0038422966336
 21
-125.48046183785728
 31
0.0
  0
LINE
  5
100
330
17
100
AcDbEntity
  8
visible
100
AcDbLine
 10
-3514.5343375411912
 20
-161.53763326053286
 30
0.0
 11
-3513.600525752004
 21
-160.30261320215016
 31
0.0
  0
LINE
  5
101
330
17
100
AcDbEntity
  8
visible
100
AcDbLine
 10
-3577.0038422966336
 20
-125.48046183785755
 30
0.0
 11
-3576.0700305074465
 21
-124.24544177947486
 31
0.0
  0
LINE
  5
102
330
17
100
AcDbEntity
  8
visible
100
AcDbLine
 10
-3514.5343375411912
 20
-345.02836321589166
 30
0.0
 11
-3577.0038422966336
 21
-308.97119179321606
 31
0.0
  0
LINE
  5
103
330
17
100
AcDbEntity
  8
visible
100
AcDbLine
 10
-3514.5343375411912
 20
-345.02836321589166
 30
0.0
 11
-3514.5343375411912
 21
-161.53763326053354
 31
0.0
  0
LINE
  5
104
330
17
100
AcDbEntity
  8
visible
100
AcDbLine
 10
-3577.0038422966336
 20
-308.97119179321635
 30
0.0
 11
-3577.0038422966336
 21
-125.48046183785823
 31
0.0
  0
LINE
  5
105
330
17
100
AcDbEntity
  8
visible
100
AcDbLine
 10
-3452.064832785749
 20
-262.4088329170004
 30
0.0
 11
-3514.5343375411912
 21
-345.02836321589257
 31
0.0
  0
LINE
  5
106
330
17
100
AcDbEntity
  8
visible
100
AcDbLine
 10
-4061.142504151313
 20
153.96261668787884
 30
0.0
 11
-4123.612008906755
 21
190.01978811055443
 31
0.0
  0
LINE
  5
107
330
17
100
AcDbEntity
  8
visible
100
AcDbLine
 10
-4061.142504151313
 20
153.96261668787884
 30
0.0
 11
-4060.208692362126
 21
155.19763674626154
 31
0.0
  0
LINE
  5
108
330
17
100
AcDbEntity
  8
visible
100
AcDbLine
 10
-4123.612008906755
 20
190.01978811055415
 30
0.0
 11
-4122.678197117568
 21
191.2548081689372
 31
0.0
  0
LINE
  5
109
330
17
100
AcDbEntity
  8
visible
100
AcDbLine
 10
-4061.142504151313
 20
-29.528113267479966
 30
0.0
 11
-4123.612008906755
 21
6.529058155195614
 31
0.0
  0
LINE
  5
10A
330
17
100
AcDbEntity
  8
visible
100
AcDbLine
 10
-4061.142504151313
 20
-29.528113267479966
 30
0.0
 11
-4061.142504151313
 21
153.96261668787815
 31
0.0
  0
LINE
  5
10B
330
17
100
AcDbEntity
  8
visible
100
AcDbLine
 10
-4123.612008906755
 20
6.529058155196253
 30
0.0
 11
-4123.612008906755
 21
190.01978811055437
 31
0.0
  0
LINE
  5
10C
330
17
100
AcDbEntity
  8
visible
100
AcDbLine
 10
-3998.6729993958716
 20
53.09141703141131
 30
0.0
 11
-4061.142504151313
 21
-29.528113267479966
 31
0.0
  0
LINE
  5
10D
330
17
100
AcDbEntity
  8
visible
100
AcDbLine
 10
-4607.750670761434
 20
469.4628666362896
 30
0.0
 11
-4670.220175516876
 21
505.5200380589652
 31
0.0
  0
LINE
  5
10E
330
17
100
AcDbEntity
  8
visible
100
AcDbLine
 10
-4607.750670761434
 20
469.4628666362896
 30
0.0
 11
-4606.816858972247
 21
470.6978866946723
 31
0.0
  0
LINE
  5
10F
330
17
100
AcDbEntity
  8
visible
100
AcDbLine
 10
-4670.220175516876
 20
505.52003805896493
 30
0.0
 11
-4669.286363727689
 21
506.75505811734797
 31
0.0
  0
LINE
  5
110
330
17
100
AcDbEntity
  8
visible
100
AcDbLine
 10
-4607.750670761434
 20
285.9721366809317
 30
0.0
 11
-4670.220175516876
 21
322.0293081036073
 31
0.0
  0
LINE
  5
111
330
17
100
AcDbEntity
  8
visible
100
AcDbLine
 10
-4607.750670761434
 20
285.9721366809317
 30
0.0
 11
-4607.750670761434
 21
469.46286663628985
 31
0.0
  0
LINE
  5
112
330
17
100
AcDbEntity
  8
visible
100
AcDbLine
 10
-4670.220175516876
 20
322.02930810360704
 30
0.0
 11
-4670.220175516876
 21
505.52003805896516
 31
0.0
  0
LINE
  5
113
330
17
100
AcDbEntity
  8
visible
100
AcDbLine
 10
-4545.281166005992
 20
368.5916669798221
 30
0.0
 11
-4607.750670761434
 21
285.9721366809308
 31
0.0
  0
LINE
  5
114
330
17
100
AcDbEntity
  8
visible
100
AcDbLine
 10
-5154.358837371556
 20
784.9631165847004
 30
0.0
 11
-5216.828342126998
 21
821.0202880073759
 31
0.0
  0
LINE
  5
115
330
17
100
AcDbEntity
  8
visible
100
AcDbLine
 10
-5154.358837371556
 20
784.9631165847004
 30
0.0
 11
-5153.425025582368
 21
786.1981366430842
 31
0.0
  0
LINE
  5
116
330
17
100
AcDbEntity
  8
visible
100
AcDbLine
 10
-5216.828342126998
 20
821.0202880073766
 30
0.0
 11
-5215.8945303378105
 21
822.2553080657597
 31
0.0
  0
LINE
  5
117
330
17
100
AcDbEntity
  8
visible
100
AcDbLine
 10
-5154.358837371556
 20
601.4723866293425
 30
0.0
 11
-5216.828342126998
 21
637.529558052018
 31
0.0
  0
LINE
  5
118
330
17
100
AcDbEntity
  8
visible
100
AcDbLine
 10
-5154.358837371556
 20
601.4723866293425
 30
0.0
 11
-5154.358837371556
 21
784.9631165847006
 31
0.0
  0
LINE
  5
119
330
17
100
AcDbEntity
  8
visible
100
AcDbLine
 10
-5216.828342126998
 20
637.5295580520178
 30
0.0
 11
-5216.828342126998
 21
821.0202880073759
 31
0.0
  0
LINE
  5
11A
330
17
100
AcDbEntity
  8
visible
100
AcDbLine
 10
-5091.889332616114
 20
684.0919169282347
 30
0.0
 11
-5154.358837371556
 21
601.4723866293434
 31
0.0
  0
LINE
  5
11B
330
17
100
AcDbEntity
  8
visible
100
AcDbLine
 10
-5700.9670039816765
 20
1100.463366533113
 30
0.0
 11
-5763.436508737119
 21
1136.5205379557885
 31
0.0
  0
LINE
  5
11C
330
17
100
AcDbEntity
  8
visible
100
AcDbLine
 10
-5700.9670039816765
 20
1100.463366533113
 30
0.0
 11
-5700.03319219249
 21
1101.6983865914956
 31
0.0
  0
LINE
  5
11D
330
17
100
AcDbEntity
  8
visible
100
AcDbLine
 10
-5763.436508737119
 20
1136.5205379557883
 30
0.0
 11
-5762.502696947932
 21
1137.755558014171
 31
0.0
  0
LINE
  5
11E
330
17
100
AcDbEntity
  8
visible
100
AcDbLine
 10
-5700.9670039816765
 20
916.9726365777542
 30
0.0
 11
-5763.436508737119
 21
953.0298080004297
 31
0.0
  0
LINE
  5
11F
330
17
100
AcDbEntity
  8
visible
100
AcDbLine
 10
-5700.9670039816765
 20
916.9726365777542
 30
0.0
 11
-5700.9670039816765
 21
1100.4633665331123
 31
0.0
  0
LINE
  5
120
330
17
100
AcDbEntity
  8
visible
100
AcDbLine
 10
-5763.436508737119
 20
953.0298080004295
 30
0.0
 11
-5763.436508737119
 21
1136.5205379557876
 31
0.0
  0
LINE
  5
121
330
17
100
AcDbEntity
  8
visible
100
AcDbLine
 10
-5638.497499226235
 20
999.5921668766455
 30
0.0
 11
-5700.9670039816765
 21
916.9726365777542
 31
0.0
  0
LINE
  5
122
330
17
100
AcDbEntity
  8
visible
100
AcDbLine
 10
1368.0821541441885
 20
-2977.9921388228613
 30
0.0
 11
-6396.877286957306
 21
1503.9142690157141
 31
0.0
  0
LINE
  5
123
330
17
100
AcDbEntity
  8
visible
100
AcDbLine
 10
1368.0821541441885
 20
-2977.9921388228613
 30
0.0
 11
3882.4797205507457
 21
347.44395570755887
 31
0.0
  0
LINE
  5
124
330
17
100
AcDbEntity
  8
visible
100
AcDbLine
 10
6396.877286957304
 20
-1120.3266671266147
 30
0.0
 11
5616.287253514101
 21
-669.7729328385013
 31
0.0
  0
LINE
  5
125
330
17
100
AcDbEntity
  8
visible
100
AcDbLine
 10
3882.479720550746
 20
347.4439557075584
 30
0.0
 11
6396.877286957304
 21
-1120.3266671266156
 31
0.0
  0
LINE
  5
126
330
17
100
AcDbEntity
  8
visible
100
AcDbLine
 10
6396.877286957304
 20
-1120.3266671266147
 30
0.0
 11
6396.877286957304
 21
-955.6333096756279
 31
0.0
  0
LINE
  5
127
330
17
100
AcDbEntity
  8
visible
100
AcDbLine
 10
3882.479720550746
 20
512.137313158546
 30
0.0
 11
-3882.479720550748
 21
4994.043720997121
 31
0.0
  0
LINE
  5
128
330
17
100
AcDbEntity
  8
visible
100
AcDbLine
 10
6396.877286957304
 20
-955.633309675628
 30
0.0
 11
3882.4797205507466
 21
512.1373131585467
 31
0.0
  0
LINE
  5
129
330
17
100
AcDbEntity
  8
visible
100
AcDbLine
 10
1368.0821541441885
 20
-2813.2987813718746
 30
0.0
 11
-6396.877286957306
 21
1668.6076264667008
 31
0.0
  0
LINE
  5
12A
330
17
100
AcDbEntity
  8
visible
100
AcDbLine
 10
3882.479720550746
 20
512.137313158546
 30
0.0
 11
1368.0821541441887
 21
-2813.2987813718746
 31
0.0
  0
LINE
  5
12B
330
17
100
AcDbEntity
  8
visible
100
AcDbLine
 10
-3882.4797205507475
 20
4994.0437209971205
 30
0.0
 11
-6396.877286957305
 21
1668.6076264667
 31
0.0
  0
LINE
  5
12C
330
17
100
AcDbEntity
  8
visible
100
AcDbLine
 10
1368.0821541441885
 20
-2813.2987813718746
 30
0.0
 11
1368.0821541441885
 21
-2977.9921388228613
 31
0.0
  0
LINE
  5
12D
330
17
100
AcDbEntity
  8
visible
100
AcDbLine
 10
-6396.877286957305
 20
1668.6076264667008
 30
0.0
 11
-6396.877286957305
 21
1503.9142690157141
 31
0.0
  0
LINE
  5
12E
330
17
100
AcDbEntity
  8
visible
100
AcDbLine
 10
5554.476015330162
 20
-1009.2637471973607
 30
0.0
 11
5554.476015330162
 21
-819.0861030908521
 31
0.0
  0
LINE
  5
12F
330
17
100
AcDbEntity
  8
visible
100
AcDbLine
 10
5554.476015330162
 20
-819.0861030908527
 30
0.0
 11
3782.8751116917583
 21
215.71110410659503
 31
0.0
  0
LINE
  5
130
330
17
100
AcDbEntity
  8
visible
100
AcDbLine
 10
5166.384217036976
 20
-592.4005622417537
 30
0.0
 11
5166.384217036976
 21
-590.7980396356145
 31
0.0
  0
LINE
  5
131
330
17
100
AcDbEntity
  8
visible
100
AcDbLine
 10
5161.367338569541
 20
-587.8694547009121
 30
0.0
 11
5166.384217036975
 21
-590.7980396356141
 31
0.0
  0
LINE
  5
132
330
17
100
AcDbEntity
  8
visible
100
AcDbLine
 10
5159.688555193805
 20
-588.4896068107518
 30
0.0
 11
5161.367338569542
 21
-587.8694547009121
 31
0.0
  0
LINE
  5
133
330
17
100
AcDbEntity
  8
visible
100
AcDbLine
 10
5147.285150927826
 20
-581.2447425369663
 30
0.0
 11
5148.873437618454
 21
-580.6580204163769
 31
0.0
  0
LINE
  5
134
330
17
100
AcDbEntity
  8
visible
100
AcDbLine
 10
5161.367338569543
 20
-587.8694547009119
 30
0.0
 11
5148.873437618454
 21
-580.6580204163768
 31
0.0
  0
LINE
  5
135
330
17
100
AcDbEntity
  8
visible
100
AcDbLine
 10
2084.91972121289
 20
-5059.934596054914
 30
0.0
 11
2084.91972121289
 21
-3112.6598419390352
 31
0.0
  0
LINE
  5
136
330
17
100
AcDbEntity
  8
visible
100
AcDbLine
 10
2158.9460843480892
 20
-5102.662344190785
 30
0.0
 11
2084.91972121289
 21
-5059.934596054914
 31
0.0
  0
LINE
  5
137
330
17
100
AcDbEntity
  8
visible
100
AcDbLine
 10
-4695.5203249428305
 20
234.3362782193983
 30
0.0
 11
-4695.5203249428305
 21
388.52756037418635
 31
0.0
  0
LINE
  5
138
330
17
100
AcDbEntity
  8
visible
100
AcDbLine
 10
2082.73328854645
 20
-5060.150939083451
 30
0.0
 11
2084.91972121289
 21
-5059.343258443582
 31
0.0
  0
LINE
  5
139
330
17
100
AcDbEntity
  8
visible
100
AcDbLine
 10
2082.73328854645
 20
-3113.4675225789024
 30
0.0
 11
2082.73328854645
 21
-5060.15093908345
 31
0.0
  0
LINE
  5
13A
330
17
100
AcDbEntity
  8
visible
100
AcDbLine
 10
2082.73328854645
 20
-5060.15093908345
 30
0.0
 11
2074.924600452019
 21
-5055.6437926556155
 31
0.0
  0
LINE
  5
13B
330
17
100
AcDbEntity
  8
visible
100
AcDbLine
 10
2074.9246004520196
 20
-3116.3520962927178
 30
0.0
 11
2074.9246004520196
 21
-5055.643792655616
 31
0.0
  0
LINE
  5
13C
330
17
100
AcDbEntity
  8
visible
100
AcDbLine
 10
-3670.239578144132
 20
-771.9797132989112
 30
0.0
 11
-3657.589503431155
 21
-767.3067038825326
 31
0.0
  0
LINE
  5
13D
330
17
100
AcDbEntity
  8
visible
100
AcDbLine
 10
-3232.328349808482
 20
-610.21281942822
 30
0.0
 11
-3069.439116158665
 21
-550.0406117580586
 31
0.0
  0
LINE
  5
13E
330
17
100
AcDbEntity
  8
visible
100
AcDbLine
 10
-4614.3099687607555
 20
289.7581396803125
 30
0.0
 11
-4614.3099687607555
 21
187.46195536992036
 31
0.0
  0
LINE
  5
13F
330
17
100
AcDbEntity
  8
visible
100
AcDbLine
 10
-4622.118656855186
 20
294.26528610814694
 30
0.0
 11
-4622.118656855186
 21
191.96910179775477
 31
0.0
  0
ENDSEC
  0
SECTION
  2
OBJECTS
  0
DICTIONARY
  5
A
330
0
100
AcDbDictionary
281
1
  3
ACAD_COLOR
350
B
  3
ACAD_GROUP
350
C
  3
ACAD_LAYOUT
350
D
  3
ACAD_MATERIAL
350
E
  3
ACAD_MLEADERSTYLE
350
F
  3
ACAD_MLINESTYLE
350
10
  3
ACAD_PLOTSETTINGS
350
11
  3
ACAD_PLOTSTYLENAME
350
12
  3
ACAD_SCALELIST
350
14
  3
ACAD_TABLESTYLE
350
15
  3
ACAD_VISUALSTYLE
350
16
  3
EZDXF_META
350
2D
  0
DICTIONARY
  5
B
330
A
100
AcDbDictionary
281
1
  0
DICTIONARY
  5
C
330
A
100
AcDbDictionary
281
1
  0
DICTIONARY
  5
D
330
A
100
AcDbDictionary
281
1
  3
Model
350
1A
  3
Layout1
350
1E
  0
DICTIONARY
  5
E
330
A
100
AcDbDictionary
281
1
  3
ByBlock
350
1F
  3
ByLayer
350
20
  3
Global
350
21
  0
DICTIONARY
  5
F
330
A
100
AcDbDictionary
281
1
  3
Standard
350
2C
  0
DICTIONARY
  5
10
330
A
100
AcDbDictionary
281
1
  3
Standard
350
22
  0
DICTIONARY
  5
11
330
A
100
AcDbDictionary
281
1
  0
ACDBDICTIONARYWDFLT
  5
12
330
A
100
AcDbDictionary
281
1
  3
Normal
350
13
100
AcDbDictionaryWithDefault
340
13
  0
ACDBPLACEHOLDER
  5
13
330
12
  0
DICTIONARY
  5
14
330
A
100
AcDbDictionary
281
1
  0
DICTIONARY
  5
15
330
A
100
AcDbDictionary
281
1
  0
DICTIONARY
  5
16
330
A
100
AcDbDictionary
281
1
  0
LAYOUT
  5
1A
330
D
100
AcDbPlotSettings
  1

  4
A3
  6

 40
7.5
 41
20.0
 42
7.5
 43
20.0
 44
420.0
 45
297.0
 46
0.0
 47
0.0
 48
0.0
 49
0.0
140
0.0
141
0.0
142
1.0
143
1.0
 70
1024
 72
1
 73
0
 74
5
  7

 75
16
 76
0
 77
2
 78
300
147
1.0
148
0.0
149
0.0
100
AcDbLayout
  1
Model
 70
1
 71
0
 10
0.0
 20
0.0
 11
420.0
 21
297.0
 12
0.0
 22
0.0
 32
0.0
 14
1e+20
 24
1e+20
 34
1e+20
 15
-1e+20
 25
-1e+20
 35
-1e+20
146
0.0
 13
0.0
 23
0.0
 33
0.0
 16
1.0
 26
0.0
 36
0.0
 17
0.0
 27
1.0
 37
0.0
 76
1
330
17
  0
LAYOUT
  5
1E
330
D
100
AcDbPlotSettings
  1

  4
A3
  6

 40
7.5
 41
20.0
 42
7.5
 43
20.0
 44
420.0
 45
297.0
 46
0.0
 47
0.0
 48
0.0
 49
0.0
140
0.0
141
0.0
142
1.0
143
1.0
 70
0
 72
1
 73
0
 74
5
  7

 75
16
 76
0
 77
2
 78
300
147
1.0
148
0.0
149
0.0
100
AcDbLayout
  1
Layout1
 70
1
 71
1
 10
0.0
 20
0.0
 11
420.0
 21
297.0
 12
0.0
 22
0.0
 32
0.0
 14
1e+20
 24
1e+20
 34
1e+20
 15
-1e+20
 25
-1e+20
 35
-1e+20
146
0.0
 13
0.0
 23
0.0
 33
0.0
 16
1.0
 26
0.0
 36
0.0
 17
0.0
 27
1.0
 37
0.0
 76
1
330
1B
  0
MATERIAL
  5
1F
102
{ACAD_REACTORS
330
E
102
}
330
E
100
AcDbMaterial
  1
ByBlock
  2

 70
0
 40
1.0
 71
1
 41
1.0
 91
-1023410177
 42
1.0
 72
1
  3

 73
1
 74
1
 75
1
 44
0.5
 73
0
 45
1.0
 46
1.0
 77
1
  4

 78
1
 79
1
170
1
 48
1.0
171
1
  6

172
1
173
1
174
1
140
1.0
141
1.0
175
1
  7

176
1
177
1
178
1
143
1.0
179
1
  8

270
1
271
1
272
1
145
1.0
146
1.0
273
1
  9

274
1
275
1
276
1
 42
1.0
 72
1
  3

 73
1
 74
1
 75
1
 94
63
  0
MATERIAL
  5
20
102
{ACAD_REACTORS
330
E
102
}
330
E
100
AcDbMaterial
  1
ByLayer
  2

 70
0
 40
1.0
 71
1
 41
1.0
 91
-1023410177
 42
1.0
 72
1
  3

 73
1
 74
1
 75
1
 44
0.5
 73
0
 45
1.0
 46
1.0
 77
1
  4

 78
1
 79
1
170
1
 48
1.0
171
1
  6

172
1
173
1
174
1
140
1.0
141
1.0
175
1
  7

176
1
177
1
178
1
143
1.0
179
1
  8

270
1
271
1
272
1
145
1.0
146
1.0
273
1
  9

274
1
275
1
276
1
 42
1.0
 72
1
  3

 73
1
 74
1
 75
1
 94
63
  0
MATERIAL
  5
21
102
{ACAD_REACTORS
330
E
102
}
330
E
100
AcDbMaterial
  1
Global
  2

 70
0
 40
1.0
 71
1
 41
1.0
 91
-1023410177
 42
1.0
 72
1
  3

 73
1
 74
1
 75
1
 44
0.5
 73
0
 45
1.0
 46
1.0
 77
1
  4

 78
1
 79
1
170
1
 48
1.0
171
1
  6

172
1
173
1
174
1
140
1.0
141
1.0
175
1
  7

176
1
177
1
178
1
143
1.0
179
1
  8

270
1
271
1
272
1
145
1.0
146
1.0
273
1
  9

274
1
275
1
276
1
 42
1.0
 72
1
  3

 73
1
 74
1
 75
1
 94
63
  0
MLINESTYLE
  5
22
102
{ACAD_REACTORS
330
10
102
}
330
10
100
AcDbMlineStyle
  2
Standard
 70
0
  3

 62
256
 51
90.0
 52
90.0
 71
2
 49
0.5
 62
256
  6
BYLAYER
 49
-0.5
 62
256
  6
BYLAYER
  0
MLEADERSTYLE
  5
2C
102
{ACAD_REACTORS
330
F
102
}
330
F
100
AcDbMLeaderStyle
179
2
170
2
171
1
172
0
 90
2
 40
0.0
 41
0.0
173
1
 91
-1056964608
 92
-2
290
1
 42
2.0
291
1
 43
8.0
  3
Standard
 44
4.0
300

342
29
174
1
175
1
176
0
178
1
 93
-1056964608
 45
4.0
292
0
297
0
 46
4.0
 94
-1056964608
 47
1.0
 49
1.0
140
1.0
294
1
141
0.0
177
0
142
1.0
295
0
296
0
143
3.75
271
0
272
9
273
9
  0
DICTIONARY
  5
2D
330
A
100
AcDbDictionary
280
1
281
1
  3
CREATED_BY_EZDXF
350
2E
  3
WRITTEN_BY_EZDXF
350
143
  0
DICTIONARYVAR
  5
2E
330
2D
100
DictionaryVariables
280
0
  1
1.4.4 @ 2026-09-23T07:48:28.163921+00:00
  0
DICTIONARYVAR
  5
143
330
2D
100
DictionaryVariables
280
0
  1
1.4.4 @ 2026-09-23T07:48:28.183091+00:00
  0
ENDSEC
  0
EOF
