  0
SECTION
  2
HEADER
  9
$ACADVER
  1
AC1027
  9
$ACADMAINTVER
 70
105
  9
$DWGCODEPAGE
  3
ANSI_1252
  9
$LASTSAVEDBY
  1
ezdxf
  9
$REQUIREDVERSIONS
160
0
  9
$INSBASE
 10
0.0
 20
0.0
 30
0.0
  9
$EXTMIN
 10
1e+20
 20
1e+20
 30
1e+20
  9
$EXTMAX
 10
-1e+20
 20
-1e+20
 30
-1e+20
  9
$LIMMIN
 10
0.0
 20
0.0
  9
$LIMMAX
 10
420.0
 20
297.0
  9
$ORTHOMODE
 70
0
  9
$REGENMODE
 70
1
  9
$FILLMODE
 70
1
  9
$QTEXTMODE
 70
0
  9
$MIRRTEXT
 70
1
  9
$LTSCALE
 40
1.0
  9
$ATTMODE
 70
1
  9
$TEXTSIZE
 40
2.5
  9
$TRACEWID
 40
1.0
  9
$TEXTSTYLE
  7
Standard
  9
$CLAYER
  8
0
  9
$CELTYPE
  6
ByLayer
  9
$CECOLOR
 62
256
  9
$CELTSCALE
 40
1.0
  9
$DISPSILH
 70
0
  9
$DIMSCALE
 40
1.0
  9
$DIMASZ
 40
2.5
  9
$DIMEXO
 40
0.625
  9
$DIMDLI
 40
3.75
  9
$DIMRND
 40
0.0
  9
$DIMDLE
 40
0.0
  9
$DIMEXE
 40
1.25
  9
$DIMTP
 40
0.0
  9
$DIMTM
 40
0.0
  9
$DIMTXT
 40
2.5
  9
$DIMCEN
 40
2.5
  9
$DIMTSZ
 40
0.0
  9
$DIMTOL
 70
0
  9
$DIMLIM
 70
0
  9
$DIMTIH
 70
0
  9
$DIMTOH
 70
0
  9
$DIMSE1
 70
0
  9
$DIMSE2
 70
0
  9
$DIMTAD
 70
1
  9
$DIMZIN
 70
8
  9
$DIMBLK
  1

  9
$DIMASO
 70
1
  9
$DIMSHO
 70
1
  9
$DIMPOST
  1

  9
$DIMAPOST
  1

  9
$DIMALT
 70
0
  9
$DIMALTD
 70
3
  9
$DIMALTF
 40
0.03937007874
  9
$DIMLFAC
 40
1.0
  9
$DIMTOFL
 70
1
  9
$DIMTVP
 40
0.0
  9
$DIMTIX
 70
0
  9
$DIMSOXD
 70
0
  9
$DIMSAH
 70
0
  9
$DIMBLK1
  1

  9
$DIMBLK2
  1

  9
$DIMSTYLE
  2
ISO-25
  9
$DIMCLRD
 70
0
  9
$DIMCLRE
 70
0
  9
$DIMCLRT
 70
0
  9
$DIMTFAC
 40
1.0
  9
$DIMGAP
 40
0.625
  9
$DIMJUST
 70
0
  9
$DIMSD1
 70
0
  9
$DIMSD2
 70
0
  9
$DIMTOLJ
 70
0
  9
$DIMTZIN
 70
8
  9
$DIMALTZ
 70
0
  9
$DIMALTTZ
 70
0
  9
$DIMUPT
 70
0
  9
$DIMDEC
 70
2
  9
$DIMTDEC
 70
2
  9
$DIMALTU
 70
2
  9
$DIMALTTD
 70
3
  9
$DIMTXSTY
  7
Standard
  9
$DIMAUNIT
 70
0
  9
$DIMADEC
 70
0
  9
$DIMALTRND
 40
0.0
  9
$DIMAZIN
 70
0
  9
$DIMDSEP
 70
44
  9
$DIMATFIT
 70
3
  9
$DIMFRAC
 70
0
  9
$DIMLDRBLK
  1

  9
$DIMLUNIT
 70
2
  9
$DIMLWD
 70
-2
  9
$DIMLWE
 70
-2
  9
$DIMTMOVE
 70
0
  9
$DIMFXL
 40
1.0
  9
$DIMFXLON
 70
0
  9
$DIMJOGANG
 40
0.785398163397
  9
$DIMTFILL
 70
0
  9
$DIMTFILLCLR
 70
0
  9
$DIMARCSYM
 70
0
  9
$DIMLTYPE
  6

  9
$DIMLTEX1
  6

  9
$DIMLTEX2
  6

  9
$DIMTXTDIRECTION
 70
0
  9
$LUNITS
 70
2
  9
$LUPREC
 70
4
  9
$SKETCHINC
 40
1.0
  9
$FILLETRAD
 40
10.0
  9
$AUNITS
 70
0
  9
$AUPREC
 70
2
  9
$MENU
  1
.
  9
$ELEVATION
 40
0.0
  9
$PELEVATION
 40
0.0
  9
$THICKNESS
 40
0.0
  9
$LIMCHECK
 70
0
  9
$CHAMFERA
 40
0.0
  9
$CHAMFERB
 40
0.0
  9
$CHAMFERC
 40
0.0
  9
$CHAMFERD
 40
0.0
  9
$SKPOLY
 70
0
  9
$TDCREATE
 40
2461307.3516435185
  9
$TDUCREATE
 40
2458532.153996898
  9
$TDUPDATE
 40
2461307.3516435185
  9
$TDUUPDATE
 40
2458532.1544311
  9
$TDINDWG
 40
0.0
  9
$TDUSRTIMER
 40
0.0
  9
$USRTIMER
 70
1
  9
$ANGBASE
 50
0.0
  9
$ANGDIR
 70
0
  9
$PDMODE
 70
0
  9
$PDSIZE
 40
0.0
  9
$PLINEWID
 40
0.0
  9
$SPLFRAME
 70
0
  9
$SPLINETYPE
 70
6
  9
$SPLINESEGS
 70
8
  9
$HANDSEED
  5
171
  9
$SURFTAB1
 70
6
  9
$SURFTAB2
 70
6
  9
$SURFTYPE
 70
6
  9
$SURFU
 70
6
  9
$SURFV
 70
6
  9
$UCSBASE
  2

  9
$UCSNAME
  2

  9
$UCSORG
 10
0.0
 20
0.0
 30
0.0
  9
$UCSXDIR
 10
1.0
 20
0.0
 30
0.0
  9
$UCSYDIR
 10
0.0
 20
1.0
 30
0.0
  9
$UCSORTHOREF
  2

  9
$UCSORTHOVIEW
 70
0
  9
$UCSORGTOP
 10
0.0
 20
0.0
 30
0.0
  9
$UCSORGBOTTOM
 10
0.0
 20
0.0
 30
0.0
  9
$UCSORGLEFT
 10
0.0
 20
0.0
 30
0.0
  9
$UCSORGRIGHT
 10
0.0
 20
0.0
 30
0.0
  9
$UCSORGFRONT
 10
0.0
 20
0.0
 30
0.0
  9
$UCSORGBACK
 10
0.0
 20
0.0
 30
0.0
  9
$PUCSBASE
  2

  9
$PUCSNAME
  2

  9
$PUCSORG
 10
0.0
 20
0.0
 30
0.0
  9
$PUCSXDIR
 10
1.0
 20
0.0
 30
0.0
  9
$PUCSYDIR
 10
0.0
 20
1.0
 30
0.0
  9
$PUCSORTHOREF
  2

  9
$PUCSORTHOVIEW
 70
0
  9
$PUCSORGTOP
 10
0.0
 20
0.0
 30
0.0
  9
$PUCSORGBOTTOM
 10
0.0
 20
0.0
 30
0.0
  9
$PUCSORGLEFT
 10
0.0
 20
0.0
 30
0.0
  9
$PUCSORGRIGHT
 10
0.0
 20
0.0
 30
0.0
  9
$PUCSORGFRONT
 10
0.0
 20
0.0
 30
0.0
  9
$PUCSORGBACK
 10
0.0
 20
0.0
 30
0.0
  9
$USERI1
 70
0
  9
$USERI2
 70
0
  9
$USERI3
 70
0
  9
$USERI4
 70
0
  9
$USERI5
 70
0
  9
$USERR1
 40
0.0
  9
$USERR2
 40
0.0
  9
$USERR3
 40
0.0
  9
$USERR4
 40
0.0
  9
$USERR5
 40
0.0
  9
$WORLDVIEW
 70
1
  9
$SHADEDGE
 70
3
  9
$SHADEDIF
 70
70
  9
$TILEMODE
 70
1
  9
$MAXACTVP
 70
64
  9
$PINSBASE
 10
0.0
 20
0.0
 30
0.0
  9
$PLIMCHECK
 70
0
  9
$PEXTMIN
 10
1e+20
 20
1e+20
 30
1e+20
  9
$PEXTMAX
 10
-1e+20
 20
-1e+20
 30
-1e+20
  9
$PLIMMIN
 10
0.0
 20
0.0
  9
$PLIMMAX
 10
420.0
 20
297.0
  9
$UNITMODE
 70
0
  9
$VISRETAIN
 70
1
  9
$PLINEGEN
 70
0
  9
$PSLTSCALE
 70
1
  9
$TREEDEPTH
 70
3020
  9
$CMLSTYLE
  2
Standard
  9
$CMLJUST
 70
0
  9
$CMLSCALE
 40
20.0
  9
$PROXYGRAPHICS
 70
1
  9
$MEASUREMENT
 70
1
  9
$CELWEIGHT
370
-1
  9
$ENDCAPS
280
0
  9
$JOINSTYLE
280
0
  9
$LWDISPLAY
290
0
  9
$INSUNITS
 70
4
  9
$HYPERLINKBASE
  1

  9
$STYLESHEET
  1

  9
$XEDIT
290
1
  9
$CEPSNTYPE
380
0
  9
$PSTYLEMODE
290
1
  9
$FINGERPRINTGUID
  2
{2E305644-B274-4CE4-9716-A5D8D2A2D7E0}
  9
$VERSIONGUID
  2
{F9973EF8-E5CD-4A51-B3A0-E272EECF585E}
  9
$EXTNAMES
290
1
  9
$PSVPSCALE
 40
0.0
  9
$OLESTARTUP
290
0
  9
$SORTENTS
280
127
  9
$INDEXCTL
280
0
  9
$HIDETEXT
280
1
  9
$XCLIPFRAME
280
1
  9
$HALOGAP
280
0
  9
$OBSCOLOR
 70
257
  9
$OBSLTYPE
280
0
  9
$INTERSECTIONDISPLAY
280
0
  9
$INTERSECTIONCOLOR
 70
257
  9
$DIMASSOC
280
2
  9
$PROJECTNAME
  1

  9
$CAMERADISPLAY
290
0
  9
$LENSLENGTH
 40
50.0
  9
$CAMERAHEIGHT
 40
0.0
  9
$STEPSPERSEC
 40
24.0
  9
$STEPSIZE
 40
100.0
  9
$3DDWFPREC
 40
2.0
  9
$PSOLWIDTH
 40
0.005
  9
$PSOLHEIGHT
 40
0.08
  9
$LOFTANG1
 40
1.570796326795
  9
$LOFTANG2
 40
1.570796326795
  9
$LOFTMAG1
 40
0.0
  9
$LOFTMAG2
 40
0.0
  9
$LOFTPARAM
 70
7
  9
$LOFTNORMALS
280
1
  9
$LATITUDE
 40
37.795
  9
$LONGITUDE
 40
-122.394
  9
$NORTHDIRECTION
 40
0.0
  9
$TIMEZONE
 70
-8000
  9
$LIGHTGLYPHDISPLAY
280
1
  9
$TILEMODELIGHTSYNCH
280
1
  9
$CMATERIAL
347
20
  9
$SOLIDHIST
280
0
  9
$SHOWHIST
280
1
  9
$DWFFRAME
280
2
  9
$DGNFRAME
280
2
  9
$REALWORLDSCALE
290
1
  9
$INTERFERECOLOR
 62
256
  9
$CSHADOW
280
0
  9
$SHADOWPLANELOCATION
 40
0.0
  0
ENDSEC
  0
SECTION
  2
CLASSES
  0
CLASS
  1
ACDBDICTIONARYWDFLT
  2
AcDbDictionaryWithDefault
  3
ObjectDBX Classes
 90
0
 91
0
280
0
281
0
  0
CLASS
  1
SUN
  2
AcDbSun
  3
SCENEOE
 90
1153
 91
0
280
0
281
0
  0
CLASS
  1
VISUALSTYLE
  2
AcDbVisualStyle
  3
ObjectDBX Classes
 90
4095
 91
0
280
0
281
0
  0
CLASS
  1
MATERIAL
  2
AcDbMaterial
  3
ObjectDBX Classes
 90
1153
 91
0
280
0
281
0
  0
CLASS
  1
SCALE
  2
AcDbScale
  3
ObjectDBX Classes
 90
1153
 91
0
280
0
281
0
  0
CLASS
  1
TABLESTYLE
  2
AcDbTableStyle
  3
ObjectDBX Classes
 90
4095
 91
0
280
0
281
0
  0
CLASS
  1
MLEADERSTYLE
  2
AcDbMLeaderStyle
  3
ACDB_MLEADERSTYLE_CLASS
 90
4095
 91
0
280
0
281
0
  0
CLASS
  1
DICTIONARYVAR
  2
AcDbDictionaryVar
  3
ObjectDBX Classes
 90
0
 91
0
280
0
281
0
  0
CLASS
  1
CELLSTYLEMAP
  2
AcDbCellStyleMap
  3
ObjectDBX Classes
 90
1152
 91
0
280
0
281
0
  0
CLASS
  1
MENTALRAYRENDERSETTINGS
  2
AcDbMentalRayRenderSettings
  3
SCENEOE
 90
1024
 91
0
280
0
281
0
  0
CLASS
  1
ACDBDETAILVIEWSTYLE
  2
AcDbDetailViewStyle
  3
ObjectDBX Classes
 90
1025
 91
0
280
0
281
0
  0
CLASS
  1
ACDBSECTIONVIEWSTYLE
  2
AcDbSectionViewStyle
  3
ObjectDBX Classes
 90
1025
 91
0
280
0
281
0
  0
CLASS
  1
RASTERVARIABLES
  2
AcDbRasterVariables
  3
ISM
 90
0
 91
0
280
0
281
0
  0
CLASS
  1
ACDBPLACEHOLDER
  2
AcDbPlaceHolder
  3
ObjectDBX Classes
 90
0
 91
0
280
0
281
0
  0
CLASS
  1
LAYOUT
  2
AcDbLayout
  3
ObjectDBX Classes
 90
0
 91
0
280
0
281
0
  0
ENDSEC
  0
SECTION
  2
TABLES
  0
TABLE
  2
VPORT
  5
8
330
0
100
AcDbSymbolTable
 70
1
  0
VPORT
  5
16D
330
8
100
AcDbSymbolTableRecord
100
AcDbViewportTableRecord
  2
*Active
 70
0
 10
0.0
 20
0.0
 11
1.0
 21
1.0
 12
2675.0000000000005
 22
2953.8
 13
0.0
 23
0.0
 14
0.5
 24
0.5
 15
0.5
 25
0.5
 16
0.0
 26
0.0
 36
1.0
 17
0.0
 27
0.0
 37
0.0
 40
6207.6
 41
1.34
 42
50.0
 43
0.0
 44
0.0
 50
0.0
 51
0.0
 71
0
 72
1000
 73
1
 74
3
 75
0
 76
0
 77
0
 78
0
281
0
 65
1
110
0.0
120
0.0
130
0.0
111
1.0
121
0.0
131
0.0
112
0.0
122
1.0
132
0.0
 79
0
146
0.0
  0
ENDTAB
  0
TABLE
  2
LTYPE
  5
2
330
0
100
AcDbSymbolTable
 70
3
  0
LTYPE
  5
24
330
2
100
AcDbSymbolTableRecord
100
AcDbLinetypeTableRecord
  2
ByBlock
 70
0
  3

 72
65
 73
0
 40
0.0
  0
LTYPE
  5
25
330
2
100
AcDbSymbolTableRecord
100
AcDbLinetypeTableRecord
  2
ByLayer
 70
0
  3

 72
65
 73
0
 40
0.0
  0
LTYPE
  5
26
330
2
100
AcDbSymbolTableRecord
100
AcDbLinetypeTableRecord
  2
Continuous
 70
0
  3

 72
65
 73
0
 40
0.0
  0
ENDTAB
  0
TABLE
  2
LAYER
  5
1
330
0
100
AcDbSymbolTable
 70
23
  0
LAYER
  5
27
330
1
100
AcDbSymbolTableRecord
100
AcDbLayerTableRecord
  2
0
 70
0
 62
7
  6
Continuous
370
-3
390
13
347
21
  0
LAYER
  5
28
330
1
100
AcDbSymbolTableRecord
100
AcDbLayerTableRecord
  2
Defpoints
 70
0
 62
7
  6
Continuous
290
0
370
-3
390
13
347
21
  0
LAYER
  5
2F
330
1
100
AcDbSymbolTableRecord
100
AcDbLayerTableRecord
  2
floor
 70
0
 62
2
  6
Continuous
370
35
390
13
347
21
  0
LAYER
  5
34
330
1
100
AcDbSymbolTableRecord
100
AcDbLayerTableRecord
  2
eps
 70
0
 62
3
  6
Continuous
370
35
390
13
347
21
  0
LAYER
  5
41
330
1
100
AcDbSymbolTableRecord
100
AcDbLayerTableRecord
  2
masonry
 70
0
 62
1
  6
Continuous
370
35
390
13
347
21
  0
LAYER
  5
4E
330
1
100
AcDbSymbolTableRecord
100
AcDbLayerTableRecord
  2
plaster
 70
0
 62
2
  6
Continuous
370
35
390
13
347
21
  0
LAYER
  5
57
330
1
100
AcDbSymbolTableRecord
100
AcDbLayerTableRecord
  2
furniture
 70
0
 62
2
  6
Continuous
370
35
390
13
347
21
  0
LAYER
  5
5C
330
1
100
AcDbSymbolTableRecord
100
AcDbLayerTableRecord
  2
wall_plate
 70
0
 62
2
  6
Continuous
370
35
390
13
347
21
  0
LAYER
  5
65
330
1
100
AcDbSymbolTableRecord
100
AcDbLayerTableRecord
  2
rafters
 70
0
 62
2
  6
Continuous
370
35
390
13
347
21
  0
LAYER
  5
78
330
1
100
AcDbSymbolTableRecord
100
AcDbLayerTableRecord
  2
plenum_wool
 70
0
 62
3
  6
Continuous
370
35
390
13
347
21
  0
LAYER
  5
C4
330
1
100
AcDbSymbolTableRecord
100
AcDbLayerTableRecord
  2
racking_strap
 70
0
 62
4
  6
Continuous
370
35
390
13
347
21
  0
LAYER
  5
D9
330
1
100
AcDbSymbolTableRecord
100
AcDbLayerTableRecord
  2
roofing
 70
0
 62
1
  6
Continuous
370
35
390
13
347
21
  0
LAYER
  5
E0
330
1
100
AcDbSymbolTableRecord
100
AcDbLayerTableRecord
  2
glazing
 70
0
 62
4
  6
Continuous
370
35
390
13
347
21
  0
LAYER
  5
E5
330
1
100
AcDbSymbolTableRecord
100
AcDbLayerTableRecord
  2
slope_naturheld_140
 70
0
 62
5
  6
Continuous
370
35
390
13
347
21
  0
LAYER
  5
EC
330
1
100
AcDbSymbolTableRecord
100
AcDbLayerTableRecord
  2
slope_naturheld_flex_50
 70
0
 62
3
  6
Continuous
370
35
390
13
347
21
  0
LAYER
  5
F3
330
1
100
AcDbSymbolTableRecord
100
AcDbLayerTableRecord
  2
slope_gkf
 70
0
 62
4
  6
Continuous
370
35
390
13
347
21
  0
LAYER
  5
FB
330
1
100
AcDbSymbolTableRecord
100
AcDbLayerTableRecord
  2
slope_cd
 70
0
 62
4
  6
Continuous
370
35
390
13
347
21
  0
LAYER
  5
120
330
1
100
AcDbSymbolTableRecord
100
AcDbLayerTableRecord
  2
slope_nonius
 70
0
 62
4
  6
Continuous
370
35
390
13
347
21
  0
LAYER
  5
145
330
1
100
AcDbSymbolTableRecord
100
AcDbLayerTableRecord
  2
soffit_naturheld_140
 70
0
 62
5
  6
Continuous
370
35
390
13
347
21
  0
LAYER
  5
14C
330
1
100
AcDbSymbolTableRecord
100
AcDbLayerTableRecord
  2
soffit_naturheld_flex_50
 70
0
 62
3
  6
Continuous
370
35
390
13
347
21
  0
LAYER
  5
155
330
1
100
AcDbSymbolTableRecord
100
AcDbLayerTableRecord
  2
soffit_gkf
 70
0
 62
4
  6
Continuous
370
35
390
13
347
21
  0
LAYER
  5
15E
330
1
100
AcDbSymbolTableRecord
100
AcDbLayerTableRecord
  2
soffit_cd
 70
0
 62
4
  6
Continuous
370
35
390
13
347
21
  0
LAYER
  5
167
330
1
100
AcDbSymbolTableRecord
100
AcDbLayerTableRecord
  2
soffit_nonius
 70
0
 62
4
  6
Continuous
370
35
390
13
347
21
  0
ENDTAB
  0
TABLE
  2
STYLE
  5
5
330
0
100
AcDbSymbolTable
 70
1
  0
STYLE
  5
29
330
5
100
AcDbSymbolTableRecord
100
AcDbTextStyleTableRecord
  2
Standard
 70
0
 40
0.0
 41
1.0
 50
0.0
 71
0
 42
2.5
  3
txt
  4

  0
ENDTAB
  0
TABLE
  2
VIEW
  5
7
330
0
100
AcDbSymbolTable
 70
0
  0
ENDTAB
  0
TABLE
  2
UCS
  5
6
330
0
100
AcDbSymbolTable
 70
0
  0
ENDTAB
  0
TABLE
  2
APPID
  5
3
330
0
100
AcDbSymbolTable
 70
3
  0
APPID
  5
2A
330
3
100
AcDbSymbolTableRecord
100
AcDbRegAppTableRecord
  2
ACAD
 70
0
  0
APPID
  5
16E
330
3
100
AcDbSymbolTableRecord
100
AcDbRegAppTableRecord
  2
HATCHBACKGROUNDCOLOR
 70
0
  0
APPID
  5
16F
330
3
100
AcDbSymbolTableRecord
100
AcDbRegAppTableRecord
  2
EZDXF
 70
0
  0
ENDTAB
  0
TABLE
  2
DIMSTYLE
  5
4
330
0
100
AcDbSymbolTable
 70
1
100
AcDbDimStyleTable
  0
DIMSTYLE
105
2B
330
4
100
AcDbSymbolTableRecord
100
AcDbDimStyleTableRecord
  2
Standard
 70
0
 40
1.0
 41
2.5
 42
0.625
 43
3.75
 44
1.25
 45
0.0
 46
0.0
 47
0.0
 48
0.0
 49
2.5
140
2.5
141
2.5
142
0.0
143
0.03937007874
144
1.0
145
0.0
146
1.0
147
0.625
148
0.0
 69
0
 70
0
 71
0
 72
0
 73
0
 74
0
 75
0
 76
0
 77
1
 78
8
 79
3
170
0
171
3
172
1
173
0
174
0
175
0
176
0
177
0
178
0
179
2
271
2
272
2
273
2
274
3
275
0
276
0
277
2
278
44
279
0
280
0
281
0
282
0
283
0
284
8
285
0
286
0
288
0
289
3
290
0
371
-2
372
-2
  0
ENDTAB
  0
TABLE
  2
BLOCK_RECORD
  5
9
330
0
100
AcDbSymbolTable
 70
2
  0
BLOCK_RECORD
  5
17
330
9
100
AcDbSymbolTableRecord
100
AcDbBlockTableRecord
  2
*Model_Space
340
1A
 70
0
280
1
281
0
  0
BLOCK_RECORD
  5
1B
330
9
100
AcDbSymbolTableRecord
100
AcDbBlockTableRecord
  2
*Paper_Space
340
1E
 70
0
280
1
281
0
  0
ENDTAB
  0
ENDSEC
  0
SECTION
  2
BLOCKS
  0
BLOCK
  5
18
330
17
100
AcDbEntity
  8
0
100
AcDbBlockBegin
  2
*Model_Space
 70
0
 10
0.0
 20
0.0
 30
0.0
  3
*Model_Space
  1

  0
ENDBLK
  5
19
330
17
100
AcDbEntity
  8
0
100
AcDbBlockEnd
  0
BLOCK
  5
1C
330
1B
100
AcDbEntity
  8
0
100
AcDbBlockBegin
  2
*Paper_Space
 70
0
 10
0.0
 20
0.0
 30
0.0
  3
*Paper_Space
  1

  0
ENDBLK
  5
1D
330
1B
100
AcDbEntity
  8
0
100
AcDbBlockEnd
  0
ENDSEC
  0
SECTION
  2
ENTITIES
  0
LINE
  5
30
330
17
100
AcDbEntity
  8
floor
100
AcDbLine
 10
5349.0
 20
0.0
 30
0.0
 11
1.0
 21
0.0
 31
0.0
  0
LINE
  5
31
330
17
100
AcDbEntity
  8
floor
100
AcDbLine
 10
5349.0
 20
-150.0
 30
0.0
 11
5349.0
 21
0.0
 31
0.0
  0
LINE
  5
32
330
17
100
AcDbEntity
  8
floor
100
AcDbLine
 10
1.0
 20
-150.0
 30
0.0
 11
5349.0
 21
-150.0
 31
0.0
  0
LINE
  5
33
330
17
100
AcDbEntity
  8
floor
100
AcDbLine
 10
1.0
 20
0.0
 30
0.0
 11
1.0
 21
-150.0
 31
0.0
  0
LINE
  5
35
330
17
100
AcDbEntity
  8
eps
100
AcDbLine
 10
-265.9999999999998
 20
3195.2695760399392
 30
0.0
 11
-465.00000000000045
 21
3028.28874943566
 31
0.0
  0
LINE
  5
36
330
17
100
AcDbEntity
  8
eps
100
AcDbLine
 10
-266.0
 20
2953.0
 30
0.0
 11
-266.0
 21
3195.2695760399392
 31
0.0
  0
LINE
  5
37
330
17
100
AcDbEntity
  8
eps
100
AcDbLine
 10
-465.0
 20
2953.0
 30
0.0
 11
-266.0
 21
2953.0
 31
0.0
  0
LINE
  5
38
330
17
100
AcDbEntity
  8
eps
100
AcDbLine
 10
-465.0
 20
3028.28874943566
 30
0.0
 11
-465.0
 21
2953.0
 31
0.0
  0
LINE
  5
39
330
17
100
AcDbEntity
  8
eps
100
AcDbLine
 10
-266.0
 20
-1.0
 30
0.0
 11
-465.0
 21
-1.0
 31
0.0
  0
LINE
  5
3A
330
17
100
AcDbEntity
  8
eps
100
AcDbLine
 10
-266.0
 20
-150.0
 30
0.0
 11
-266.0
 21
-1.0
 31
0.0
  0
LINE
  5
3B
330
17
100
AcDbEntity
  8
eps
100
AcDbLine
 10
-465.0
 20
-150.0
 30
0.0
 11
-266.0
 21
-150.0
 31
0.0
  0
LINE
  5
3C
330
17
100
AcDbEntity
  8
eps
100
AcDbLine
 10
-465.0
 20
-1.0
 30
0.0
 11
-465.0
 21
-150.0
 31
0.0
  0
LINE
  5
3D
330
17
100
AcDbEntity
  8
eps
100
AcDbLine
 10
5815.0
 20
3028.288749435661
 30
0.0
 11
5616.0
 21
3195.2695760399397
 31
0.0
  0
LINE
  5
3E
330
17
100
AcDbEntity
  8
eps
100
AcDbLine
 10
5815.0
 20
-150.0
 30
0.0
 11
5815.0
 21
3028.288749435661
 31
0.0
  0
LINE
  5
3F
330
17
100
AcDbEntity
  8
eps
100
AcDbLine
 10
5616.0
 20
-150.0
 30
0.0
 11
5815.0
 21
-150.0
 31
0.0
  0
LINE
  5
40
330
17
100
AcDbEntity
  8
eps
100
AcDbLine
 10
5616.0
 20
3195.2695760399392
 30
0.0
 11
5616.0
 21
-150.0
 31
0.0
  0
LINE
  5
42
330
17
100
AcDbEntity
  8
masonry
100
AcDbLine
 10
-16.0
 20
3200.0
 30
0.0
 11
-265.0
 21
3200.0
 31
0.0
  0
LINE
  5
43
330
17
100
AcDbEntity
  8
masonry
100
AcDbLine
 10
-16.0
 20
2953.0
 30
0.0
 11
-16.0
 21
3200.0
 31
0.0
  0
LINE
  5
44
330
17
100
AcDbEntity
  8
masonry
100
AcDbLine
 10
-265.0
 20
2953.0
 30
0.0
 11
-16.0
 21
2953.0
 31
0.0
  0
LINE
  5
45
330
17
100
AcDbEntity
  8
masonry
100
AcDbLine
 10
-265.0
 20
3200.0
 30
0.0
 11
-265.0
 21
2953.0
 31
0.0
  0
LINE
  5
46
330
17
100
AcDbEntity
  8
masonry
100
AcDbLine
 10
5615.0
 20
2950.0
 30
0.0
 11
5366.0
 21
2950.0
 31
0.0
  0
LINE
  5
47
330
17
100
AcDbEntity
  8
masonry
100
AcDbLine
 10
5615.0
 20
-150.0
 30
0.0
 11
5615.0
 21
2950.0
 31
0.0
  0
LINE
  5
48
330
17
100
AcDbEntity
  8
masonry
100
AcDbLine
 10
5366.0
 20
-150.0
 30
0.0
 11
5615.0
 21
-150.0
 31
0.0
  0
LINE
  5
49
330
17
100
AcDbEntity
  8
masonry
100
AcDbLine
 10
5366.0
 20
2950.0
 30
0.0
 11
5366.0
 21
-150.0
 31
0.0
  0
LINE
  5
4A
330
17
100
AcDbEntity
  8
masonry
100
AcDbLine
 10
5615.0
 20
3200.0
 30
0.0
 11
5366.0
 21
3200.0
 31
0.0
  0
LINE
  5
4B
330
17
100
AcDbEntity
  8
masonry
100
AcDbLine
 10
5615.0
 20
2951.0
 30
0.0
 11
5615.0
 21
3200.0
 31
0.0
  0
LINE
  5
4C
330
17
100
AcDbEntity
  8
masonry
100
AcDbLine
 10
5366.0
 20
2951.0
 30
0.0
 11
5615.0
 21
2951.0
 31
0.0
  0
LINE
  5
4D
330
17
100
AcDbEntity
  8
masonry
100
AcDbLine
 10
5366.0
 20
3200.0
 30
0.0
 11
5366.0
 21
2951.0
 31
0.0
  0
LINE
  5
4F
330
17
100
AcDbEntity
  8
plaster
100
AcDbLine
 10
0.0
 20
3200.0
 30
0.0
 11
-15.0
 21
3200.0
 31
0.0
  0
LINE
  5
50
330
17
100
AcDbEntity
  8
plaster
100
AcDbLine
 10
0.0
 20
2953.0
 30
0.0
 11
0.0
 21
3200.0
 31
0.0
  0
LINE
  5
51
330
17
100
AcDbEntity
  8
plaster
100
AcDbLine
 10
-15.0
 20
2953.0
 30
0.0
 11
0.0
 21
2953.0
 31
0.0
  0
LINE
  5
52
330
17
100
AcDbEntity
  8
plaster
100
AcDbLine
 10
-15.0
 20
3200.0
 30
0.0
 11
-15.0
 21
2953.0
 31
0.0
  0
LINE
  5
53
330
17
100
AcDbEntity
  8
plaster
100
AcDbLine
 10
5365.0
 20
3200.0
 30
0.0
 11
5350.0
 21
3200.0
 31
0.0
  0
LINE
  5
54
330
17
100
AcDbEntity
  8
plaster
100
AcDbLine
 10
5365.0
 20
0.0
 30
0.0
 11
5365.0
 21
3200.0
 31
0.0
  0
LINE
  5
55
330
17
100
AcDbEntity
  8
plaster
100
AcDbLine
 10
5350.0
 20
0.0
 30
0.0
 11
5365.0
 21
0.0
 31
0.0
  0
LINE
  5
56
330
17
100
AcDbEntity
  8
plaster
100
AcDbLine
 10
5350.0
 20
3200.0
 30
0.0
 11
5350.0
 21
0.0
 31
0.0
  0
LINE
  5
58
330
17
100
AcDbEntity
  8
furniture
100
AcDbLine
 10
5349.0
 20
2450.0
 30
0.0
 11
4900.0
 21
2450.0
 31
0.0
  0
LINE
  5
59
330
17
100
AcDbEntity
  8
furniture
100
AcDbLine
 10
5349.0
 20
0.0
 30
0.0
 11
5349.0
 21
2450.0
 31
0.0
  0
LINE
  5
5A
330
17
100
AcDbEntity
  8
furniture
100
AcDbLine
 10
4900.0
 20
0.0
 30
0.0
 11
5349.0
 21
0.0
 31
0.0
  0
LINE
  5
5B
330
17
100
AcDbEntity
  8
furniture
100
AcDbLine
 10
4900.0
 20
2450.0
 30
0.0
 11
4900.0
 21
0.0
 31
0.0
  0
LINE
  5
5D
330
17
100
AcDbEntity
  8
wall_plate
100
AcDbLine
 10
-70.0
 20
3300.0
 30
0.0
 11
-210.0
 21
3300.0
 31
0.0
  0
LINE
  5
5E
330
17
100
AcDbEntity
  8
wall_plate
100
AcDbLine
 10
-70.0
 20
3201.0
 30
0.0
 11
-70.0
 21
3300.0
 31
0.0
  0
LINE
  5
5F
330
17
100
AcDbEntity
  8
wall_plate
100
AcDbLine
 10
-210.0
 20
3201.0
 30
0.0
 11
-70.0
 21
3201.0
 31
0.0
  0
LINE
  5
60
330
17
100
AcDbEntity
  8
wall_plate
100
AcDbLine
 10
-210.0
 20
3300.0
 30
0.0
 11
-210.0
 21
3201.0
 31
0.0
  0
LINE
  5
61
330
17
100
AcDbEntity
  8
wall_plate
100
AcDbLine
 10
5560.0
 20
3300.0
 30
0.0
 11
5420.0
 21
3300.0
 31
0.0
  0
LINE
  5
62
330
17
100
AcDbEntity
  8
wall_plate
100
AcDbLine
 10
5560.0
 20
3201.0
 30
0.0
 11
5560.0
 21
3300.0
 31
0.0
  0
LINE
  5
63
330
17
100
AcDbEntity
  8
wall_plate
100
AcDbLine
 10
5420.0
 20
3201.0
 30
0.0
 11
5560.0
 21
3201.0
 31
0.0
  0
LINE
  5
64
330
17
100
AcDbEntity
  8
wall_plate
100
AcDbLine
 10
5420.0
 20
3300.0
 30
0.0
 11
5420.0
 21
3201.0
 31
0.0
  0
LINE
  5
66
330
17
100
AcDbEntity
  8
rafters
100
AcDbLine
 10
5895.0
 20
3168.025945234643
 30
0.0
 11
2675.0
 21
5869.926757625484
 31
0.0
  0
LINE
  5
67
330
17
100
AcDbEntity
  8
rafters
100
AcDbLine
 10
5895.0
 20
2961.1607789414784
 30
0.0
 11
5895.0
 21
3168.025945234643
 31
0.0
  0
LINE
  5
68
330
17
100
AcDbEntity
  8
rafters
100
AcDbLine
 10
5615.0
 20
3196.108675671117
 30
0.0
 11
5895.0
 21
2961.1607789414784
 31
0.0
  0
LINE
  5
69
330
17
100
AcDbEntity
  8
rafters
100
AcDbLine
 10
5615.0
 20
3200.0
 30
0.0
 11
5615.0
 21
3196.108675671117
 31
0.0
  0
LINE
  5
6A
330
17
100
AcDbEntity
  8
rafters
100
AcDbLine
 10
5610.362500251104
 20
3200.0
 30
0.0
 11
5615.0
 21
3200.0
 31
0.0
  0
LINE
  5
6B
330
17
100
AcDbEntity
  8
rafters
100
AcDbLine
 10
5560.0
 20
3242.2591553858674
 30
0.0
 11
5610.362500251105
 21
3199.9999999999995
 31
0.0
  0
LINE
  5
6C
330
17
100
AcDbEntity
  8
rafters
100
AcDbLine
 10
5560.0
 20
3300.0
 30
0.0
 11
5560.0
 21
3242.2591553858674
 31
0.0
  0
LINE
  5
6D
330
17
100
AcDbEntity
  8
rafters
100
AcDbLine
 10
5491.187140991683
 20
3300.0
 30
0.0
 11
5560.0
 21
3300.0
 31
0.0
  0
LINE
  5
6E
330
17
100
AcDbEntity
  8
rafters
100
AcDbLine
 10
2675.0
 20
5663.06159133232
 30
0.0
 11
5491.187140991684
 21
3299.9999999999995
 31
0.0
  0
LINE
  5
6F
330
17
100
AcDbEntity
  8
rafters
100
AcDbLine
 10
-141.18714099168278
 20
3300.0
 30
0.0
 11
2675.0000000000005
 21
5663.06159133232
 31
0.0
  0
LINE
  5
70
330
17
100
AcDbEntity
  8
rafters
100
AcDbLine
 10
-210.0
 20
3300.0
 30
0.0
 11
-141.18714099168255
 21
3300.0
 31
0.0
  0
LINE
  5
71
330
17
100
AcDbEntity
  8
rafters
100
AcDbLine
 10
-210.0
 20
3242.2591553858665
 30
0.0
 11
-210.0
 21
3300.0
 31
0.0
  0
LINE
  5
72
330
17
100
AcDbEntity
  8
rafters
100
AcDbLine
 10
-260.3625002511038
 20
3200.0
 30
0.0
 11
-209.99999999999966
 21
3242.259155385867
 31
0.0
  0
LINE
  5
73
330
17
100
AcDbEntity
  8
rafters
100
AcDbLine
 10
-265.0
 20
3200.0
 30
0.0
 11
-260.3625002511035
 21
3200.0
 31
0.0
  0
LINE
  5
74
330
17
100
AcDbEntity
  8
rafters
100
AcDbLine
 10
-265.0
 20
3196.1086756711165
 30
0.0
 11
-265.0
 21
3200.0
 31
0.0
  0
LINE
  5
75
330
17
100
AcDbEntity
  8
rafters
100
AcDbLine
 10
-544.9999999999997
 20
2961.1607789414784
 30
0.0
 11
-264.99999999999966
 21
3196.1086756711165
 31
0.0
  0
LINE
  5
76
330
17
100
AcDbEntity
  8
rafters
100
AcDbLine
 10
-545.0
 20
3168.025945234643
 30
0.0
 11
-545.0
 21
2961.1607789414784
 31
0.0
  0
LINE
  5
77
330
17
100
AcDbEntity
  8
rafters
100
AcDbLine
 10
2675.0
 20
5869.926757625485
 30
0.0
 11
-545.0000000000001
 21
3168.0259452346436
 31
0.0
  0
LINE
  5
79
330
17
100
AcDbEntity
  8
plenum_wool
100
AcDbLine
 10
1885.5798109497698
 20
4896.033431705928
 30
0.0
 11
2450.0
 21
5369.8315911708505
 31
0.0
  0
LINE
  5
7A
330
17
100
AcDbEntity
  8
plenum_wool
100
AcDbLine
 10
1835.839556760357
 20
4955.311558332708
 30
0.0
 11
1885.5798109497691
 21
4896.033431705927
 31
0.0
  0
LINE
  5
7B
330
17
100
AcDbEntity
  8
plenum_wool
100
AcDbLine
 10
1820.5186678979771
 20
4942.455806138978
 30
0.0
 11
1835.8395567603566
 21
4955.311558332709
 31
0.0
  0
LINE
  5
7C
330
17
100
AcDbEntity
  8
plenum_wool
100
AcDbLine
 10
1870.261506470571
 20
4883.174599564256
 30
0.0
 11
1820.5186678979776
 21
4942.455806138978
 31
0.0
  0
LINE
  5
7D
330
17
100
AcDbEntity
  8
plenum_wool
100
AcDbLine
 10
1406.8827959748203
 20
4494.19492727869
 30
0.0
 11
1870.2615064705717
 21
4883.174599564256
 31
0.0
  0
LINE
  5
7E
330
17
100
AcDbEntity
  8
plenum_wool
100
AcDbLine
 10
1357.0617798109956
 20
4553.569302278621
 30
0.0
 11
1406.8827959748198
 21
4494.19492727869
 31
0.0
  0
LINE
  5
7F
330
17
100
AcDbEntity
  8
plenum_wool
100
AcDbLine
 10
1341.7408909486162
 20
4540.713550084891
 30
0.0
 11
1357.0617798109956
 21
4553.569302278622
 31
0.0
  0
LINE
  5
80
330
17
100
AcDbEntity
  8
plenum_wool
100
AcDbLine
 10
1391.5644914956217
 20
4481.336095137018
 30
0.0
 11
1341.7408909486167
 21
4540.71355008489
 31
0.0
  0
LINE
  5
81
330
17
100
AcDbEntity
  8
plenum_wool
100
AcDbLine
 10
928.1857809998712
 20
4092.356422851453
 30
0.0
 11
1391.5644914956217
 21
4481.336095137018
 31
0.0
  0
LINE
  5
82
330
17
100
AcDbEntity
  8
plenum_wool
100
AcDbLine
 10
878.2840028616346
 20
4151.827046224535
 30
0.0
 11
928.1857809998708
 21
4092.3564228514524
 31
0.0
  0
LINE
  5
83
330
17
100
AcDbEntity
  8
plenum_wool
100
AcDbLine
 10
862.963113999255
 20
4138.971294030804
 30
0.0
 11
878.2840028616347
 21
4151.827046224535
 31
0.0
  0
LINE
  5
84
330
17
100
AcDbEntity
  8
plenum_wool
100
AcDbLine
 10
912.8674765206723
 20
4079.4975907097805
 30
0.0
 11
862.9631139992548
 21
4138.971294030804
 31
0.0
  0
LINE
  5
85
330
17
100
AcDbEntity
  8
plenum_wool
100
AcDbLine
 10
449.48876602492146
 20
3690.517918424215
 30
0.0
 11
912.8674765206727
 21
4079.497590709781
 31
0.0
  0
LINE
  5
86
330
17
100
AcDbEntity
  8
plenum_wool
100
AcDbLine
 10
399.5062259122733
 20
3750.0847901704474
 30
0.0
 11
449.48876602492146
 21
3690.517918424215
 31
0.0
  0
LINE
  5
87
330
17
100
AcDbEntity
  8
plenum_wool
100
AcDbLine
 10
384.18533704989386
 20
3737.2290379767164
 30
0.0
 11
399.5062259122735
 21
3750.0847901704474
 31
0.0
  0
LINE
  5
88
330
17
100
AcDbEntity
  8
plenum_wool
100
AcDbLine
 10
434.17046154572324
 20
3677.6590862825433
 30
0.0
 11
384.1853370498941
 21
3737.229037976717
 31
0.0
  0
LINE
  5
89
330
17
100
AcDbEntity
  8
plenum_wool
100
AcDbLine
 10
1.0000000000001137
 20
3314.0374947865143
 30
0.0
 11
434.17046154572336
 21
3677.6590862825433
 31
0.0
  0
LINE
  5
8A
330
17
100
AcDbEntity
  8
plenum_wool
100
AcDbLine
 10
1.0
 20
3416.470077933096
 30
0.0
 11
1.0
 21
3314.037494786514
 31
0.0
  0
LINE
  5
8B
330
17
100
AcDbEntity
  8
plenum_wool
100
AcDbLine
 10
2675.0
 20
5661.06159133232
 30
0.0
 11
1.0000000000001137
 21
3416.470077933096
 31
0.0
  0
LINE
  5
8C
330
17
100
AcDbEntity
  8
plenum_wool
100
AcDbLine
 10
4994.324392189383
 20
3714.1895466322085
 30
0.0
 11
2675.0000000000005
 21
5661.061591332321
 31
0.0
  0
LINE
  5
8D
330
17
100
AcDbEntity
  8
plenum_wool
100
AcDbLine
 10
4984.0
 20
3714.1895466322076
 30
0.0
 11
4994.324392189382
 21
3714.1895466322076
 31
0.0
  0
LINE
  5
8E
330
17
100
AcDbEntity
  8
plenum_wool
100
AcDbLine
 10
4984.0
 20
3137.797995691354
 30
0.0
 11
4984.0
 21
3714.1895466322076
 31
0.0
  0
LINE
  5
8F
330
17
100
AcDbEntity
  8
plenum_wool
100
AcDbLine
 10
4964.0
 20
3137.797995691354
 30
0.0
 11
4984.0
 21
3137.797995691354
 31
0.0
  0
LINE
  5
90
330
17
100
AcDbEntity
  8
plenum_wool
100
AcDbLine
 10
4964.0
 20
3260.335118391168
 30
0.0
 11
4964.0
 21
3137.797995691354
 31
0.0
  0
LINE
  5
91
330
17
100
AcDbEntity
  8
plenum_wool
100
AcDbLine
 10
4491.8354025260915
 20
3656.528257986494
 30
0.0
 11
4964.000000000001
 21
3260.335118391168
 31
0.0
  0
LINE
  5
92
330
17
100
AcDbEntity
  8
plenum_wool
100
AcDbLine
 10
4727.409592230077
 20
3937.2746448886874
 30
0.0
 11
4491.8354025260915
 21
3656.5282579864934
 31
0.0
  0
LINE
  5
93
330
17
100
AcDbEntity
  8
plenum_wool
100
AcDbLine
 10
4712.088703367697
 20
3950.130397082418
 30
0.0
 11
4727.409592230077
 21
3937.274644888687
 31
0.0
  0
LINE
  5
94
330
17
100
AcDbEntity
  8
plenum_wool
100
AcDbLine
 10
4476.514513663711
 20
3669.3840101802234
 30
0.0
 11
4712.088703367697
 21
3950.1303970824183
 31
0.0
  0
LINE
  5
95
330
17
100
AcDbEntity
  8
plenum_wool
100
AcDbLine
 10
4013.0576255767305
 20
4058.2705140405806
 30
0.0
 11
4476.514513663712
 21
3669.384010180225
 31
0.0
  0
LINE
  5
96
330
17
100
AcDbEntity
  8
plenum_wool
100
AcDbLine
 10
4248.631815280714
 20
4339.016900942775
 30
0.0
 11
4013.0576255767296
 21
4058.2705140405806
 31
0.0
  0
LINE
  5
97
330
17
100
AcDbEntity
  8
plenum_wool
100
AcDbLine
 10
4233.310926418335
 20
4351.8726531365055
 30
0.0
 11
4248.631815280714
 21
4339.016900942775
 31
0.0
  0
LINE
  5
98
330
17
100
AcDbEntity
  8
plenum_wool
100
AcDbLine
 10
3997.7367367143497
 20
4071.1262662343106
 30
0.0
 11
4233.310926418335
 21
4351.872653136505
 31
0.0
  0
LINE
  5
99
330
17
100
AcDbEntity
  8
plenum_wool
100
AcDbLine
 10
3534.2798486273696
 20
4460.012770094668
 30
0.0
 11
3997.7367367143506
 21
4071.1262662343115
 31
0.0
  0
LINE
  5
9A
330
17
100
AcDbEntity
  8
plenum_wool
100
AcDbLine
 10
3755.594634703238
 20
4723.765461494804
 30
0.0
 11
3534.2798486273687
 21
4460.012770094667
 31
0.0
  0
LINE
  5
9B
330
17
100
AcDbEntity
  8
plenum_wool
100
AcDbLine
 10
3768.005492569837
 20
4713.497402414131
 30
0.0
 11
3755.5946347032377
 21
4723.765461494803
 31
0.0
  0
LINE
  5
9C
330
17
100
AcDbEntity
  8
plenum_wool
100
AcDbLine
 10
3769.2911304061854
 20
4715.029565924375
 30
0.0
 11
3768.005492569837
 21
4713.49740241413
 31
0.0
  0
LINE
  5
9D
330
17
100
AcDbEntity
  8
plenum_wool
100
AcDbLine
 10
3756.880272539587
 20
4725.297625005047
 30
0.0
 11
3769.2911304061863
 21
4715.029565924374
 31
0.0
  0
LINE
  5
9E
330
17
100
AcDbEntity
  8
plenum_wool
100
AcDbLine
 10
3769.8540383313534
 20
4740.759156996861
 30
0.0
 11
3756.8802725395863
 21
4725.297625005047
 31
0.0
  0
LINE
  5
9F
330
17
100
AcDbEntity
  8
plenum_wool
100
AcDbLine
 10
3754.5331494689744
 20
4753.614909190592
 30
0.0
 11
3769.854038331354
 21
4740.759156996861
 31
0.0
  0
LINE
  5
A0
330
17
100
AcDbEntity
  8
plenum_wool
100
AcDbLine
 10
3741.4701884135034
 20
4738.047078422816
 30
0.0
 11
3754.5331494689744
 21
4753.614909190592
 31
0.0
  0
LINE
  5
A1
330
17
100
AcDbEntity
  8
plenum_wool
100
AcDbLine
 10
3725.957855851485
 20
4750.88112655534
 30
0.0
 11
3741.470188413503
 21
4738.047078422816
 31
0.0
  0
LINE
  5
A2
330
17
100
AcDbEntity
  8
plenum_wool
100
AcDbLine
 10
3724.6722180151355
 20
4749.348963045097
 30
0.0
 11
3725.957855851484
 21
4750.8811265553395
 31
0.0
  0
LINE
  5
A3
330
17
100
AcDbEntity
  8
plenum_wool
100
AcDbLine
 10
3740.1845505771544
 20
4736.514914912573
 30
0.0
 11
3724.6722180151355
 21
4749.348963045097
 31
0.0
  0
LINE
  5
A4
330
17
100
AcDbEntity
  8
plenum_wool
100
AcDbLine
 10
3518.9589597649892
 20
4472.868522288398
 30
0.0
 11
3740.1845505771544
 21
4736.514914912572
 31
0.0
  0
LINE
  5
A5
330
17
100
AcDbEntity
  8
plenum_wool
100
AcDbLine
 10
3055.502071678008
 20
4861.755026148755
 30
0.0
 11
3518.95895976499
 21
4472.868522288399
 31
0.0
  0
LINE
  5
A6
330
17
100
AcDbEntity
  8
plenum_wool
100
AcDbLine
 10
3291.076261381992
 20
5142.501413050948
 30
0.0
 11
3055.5020716780073
 21
4861.755026148754
 31
0.0
  0
LINE
  5
A7
330
17
100
AcDbEntity
  8
plenum_wool
100
AcDbLine
 10
3275.755372519613
 20
5155.35716524468
 30
0.0
 11
3291.0762613819925
 21
5142.501413050949
 31
0.0
  0
LINE
  5
A8
330
17
100
AcDbEntity
  8
plenum_wool
100
AcDbLine
 10
3040.181182815628
 20
4874.610778342485
 30
0.0
 11
3275.755372519613
 21
5155.357165244679
 31
0.0
  0
LINE
  5
A9
330
17
100
AcDbEntity
  8
plenum_wool
100
AcDbLine
 10
2576.724294728647
 20
5263.497282202842
 30
0.0
 11
3040.1811828156283
 21
4874.610778342486
 31
0.0
  0
LINE
  5
AA
330
17
100
AcDbEntity
  8
plenum_wool
100
AcDbLine
 10
2636.9738020054265
 20
5335.299848951976
 30
0.0
 11
2576.724294728646
 21
5263.497282202841
 31
0.0
  0
LINE
  5
AB
330
17
100
AcDbEntity
  8
plenum_wool
100
AcDbLine
 10
2621.6529131430475
 20
5348.155601145708
 30
0.0
 11
2636.973802005427
 21
5335.299848951977
 31
0.0
  0
LINE
  5
AC
330
17
100
AcDbEntity
  8
plenum_wool
100
AcDbLine
 10
2561.403405866266
 20
5276.353034396572
 30
0.0
 11
2621.652913143047
 21
5348.155601145707
 31
0.0
  0
LINE
  5
AD
330
17
100
AcDbEntity
  8
plenum_wool
100
AcDbLine
 10
2450.0
 20
5369.8315911708505
 30
0.0
 11
2561.403405866267
 21
5276.353034396573
 31
0.0
  0
LINE
  5
AE
330
17
100
AcDbEntity
  8
plenum_wool
100
AcDbLine
 10
1130.0657417531797
 20
4360.48619588694
 30
0.0
 11
1128.7801665338066
 21
4362.018284773178
 31
0.0
  0
LINE
  5
AF
330
17
100
AcDbEntity
  8
plenum_wool
100
AcDbLine
 10
1173.3997593867552
 20
4396.847754100702
 30
0.0
 11
1130.0657417531793
 21
4360.486195886939
 31
0.0
  0
LINE
  5
B0
330
17
100
AcDbEntity
  8
plenum_wool
100
AcDbLine
 10
1172.114184167383
 20
4398.379842986941
 30
0.0
 11
1173.3997593867562
 21
4396.847754100703
 31
0.0
  0
LINE
  5
B1
330
17
100
AcDbEntity
  8
plenum_wool
100
AcDbLine
 10
1128.780166533812
 20
4362.01828477317
 30
0.0
 11
1172.1141841673875
 21
4398.379842986934
 31
0.0
  0
LINE
  5
B2
330
17
100
AcDbEntity
  8
plenum_wool
100
AcDbLine
 10
1325.7193467340003
 20
4523.353656375521
 30
0.0
 11
1327.0049219533735
 21
4521.821567489283
 31
0.0
  0
LINE
  5
B3
330
17
100
AcDbEntity
  8
plenum_wool
100
AcDbLine
 10
1282.3853291004239
 20
4486.992098161758
 30
0.0
 11
1325.7193467339998
 21
4523.353656375521
 31
0.0
  0
LINE
  5
B4
330
17
100
AcDbEntity
  8
plenum_wool
100
AcDbLine
 10
1283.670904319797
 20
4485.460009275519
 30
0.0
 11
1282.3853291004239
 21
4486.992098161757
 31
0.0
  0
LINE
  5
B5
330
17
100
AcDbEntity
  8
plenum_wool
100
AcDbLine
 10
1327.004921953373
 20
4521.821567489283
 30
0.0
 11
1283.670904319797
 21
4485.460009275519
 31
0.0
  0
LINE
  5
B6
330
17
100
AcDbEntity
  8
plenum_wool
100
AcDbLine
 10
3576.2094189429868
 20
4876.864339299598
 30
0.0
 11
3619.5426934976886
 21
4841.012778668632
 31
0.0
  0
LINE
  5
B7
330
17
100
AcDbEntity
  8
plenum_wool
100
AcDbLine
 10
3574.9237811066387
 20
4875.332175789355
 30
0.0
 11
3576.209418942987
 21
4876.864339299598
 31
0.0
  0
LINE
  5
B8
330
17
100
AcDbEntity
  8
plenum_wool
100
AcDbLine
 10
3618.2570556613396
 20
4839.480615158388
 30
0.0
 11
3574.923781106638
 21
4875.332175789355
 31
0.0
  0
LINE
  5
B9
330
17
100
AcDbEntity
  8
plenum_wool
100
AcDbLine
 10
3619.542693497688
 20
4841.012778668632
 30
0.0
 11
3618.2570556613396
 21
4839.480615158389
 31
0.0
  0
LINE
  5
BA
330
17
100
AcDbEntity
  8
plenum_wool
100
AcDbLine
 10
5335.0
 20
3136.797995691354
 30
0.0
 11
5349.0
 21
3136.797995691354
 31
0.0
  0
LINE
  5
BB
330
17
100
AcDbEntity
  8
plenum_wool
100
AcDbLine
 10
5335.0
 20
3137.797995691354
 30
0.0
 11
5335.0
 21
3136.797995691354
 31
0.0
  0
LINE
  5
BC
330
17
100
AcDbEntity
  8
plenum_wool
100
AcDbLine
 10
5308.0
 20
3137.797995691354
 30
0.0
 11
5335.0
 21
3137.797995691354
 31
0.0
  0
LINE
  5
BD
330
17
100
AcDbEntity
  8
plenum_wool
100
AcDbLine
 10
5308.0
 20
3136.797995691354
 30
0.0
 11
5308.0
 21
3137.797995691354
 31
0.0
  0
LINE
  5
BE
330
17
100
AcDbEntity
  8
plenum_wool
100
AcDbLine
 10
5024.0
 20
3136.797995691354
 30
0.0
 11
5308.0
 21
3136.797995691354
 31
0.0
  0
LINE
  5
BF
330
17
100
AcDbEntity
  8
plenum_wool
100
AcDbLine
 10
5024.0
 20
3137.797995691354
 30
0.0
 11
5024.0
 21
3136.797995691354
 31
0.0
  0
LINE
  5
C0
330
17
100
AcDbEntity
  8
plenum_wool
100
AcDbLine
 10
5004.0
 20
3137.797995691354
 30
0.0
 11
5024.0
 21
3137.797995691354
 31
0.0
  0
LINE
  5
C1
330
17
100
AcDbEntity
  8
plenum_wool
100
AcDbLine
 10
5004.0
 20
3706.0677114868477
 30
0.0
 11
5004.0
 21
3137.797995691354
 31
0.0
  0
LINE
  5
C2
330
17
100
AcDbEntity
  8
plenum_wool
100
AcDbLine
 10
5349.000000000001
 20
3416.4700779330965
 30
0.0
 11
5004.000000000001
 21
3706.067711486848
 31
0.0
  0
LINE
  5
C3
330
17
100
AcDbEntity
  8
plenum_wool
100
AcDbLine
 10
5349.0
 20
3136.797995691354
 30
0.0
 11
5349.0
 21
3416.470077933096
 31
0.0
  0
LINE
  5
C5
330
17
100
AcDbEntity
  8
racking_strap
100
AcDbLine
 10
1172.114184167382
 20
4398.37984298694
 30
0.0
 11
1128.7801665338054
 21
4362.018284773177
 31
0.0
  0
LINE
  5
C6
330
17
100
AcDbEntity
  8
racking_strap
100
AcDbLine
 10
1173.3997593867562
 20
4396.847754100703
 30
0.0
 11
1172.114184167383
 21
4398.379842986941
 31
0.0
  0
LINE
  5
C7
330
17
100
AcDbEntity
  8
racking_strap
100
AcDbLine
 10
1130.0657417531793
 20
4360.486195886939
 30
0.0
 11
1173.3997593867552
 21
4396.847754100702
 31
0.0
  0
LINE
  5
C8
330
17
100
AcDbEntity
  8
racking_strap
100
AcDbLine
 10
1128.7801665338066
 20
4362.018284773178
 30
0.0
 11
1130.0657417531797
 21
4360.48619588694
 31
0.0
  0
LINE
  5
C9
330
17
100
AcDbEntity
  8
racking_strap
100
AcDbLine
 10
1283.670904319797
 20
4485.460009275519
 30
0.0
 11
1327.004921953373
 21
4521.821567489283
 31
0.0
  0
LINE
  5
CA
330
17
100
AcDbEntity
  8
racking_strap
100
AcDbLine
 10
1282.3853291004239
 20
4486.992098161757
 30
0.0
 11
1283.670904319797
 21
4485.460009275519
 31
0.0
  0
LINE
  5
CB
330
17
100
AcDbEntity
  8
racking_strap
100
AcDbLine
 10
1325.7193467339998
 20
4523.353656375521
 30
0.0
 11
1282.3853291004239
 21
4486.992098161758
 31
0.0
  0
LINE
  5
CC
330
17
100
AcDbEntity
  8
racking_strap
100
AcDbLine
 10
1327.0049219533735
 20
4521.821567489283
 30
0.0
 11
1325.7193467340003
 21
4523.353656375521
 31
0.0
  0
LINE
  5
CD
330
17
100
AcDbEntity
  8
racking_strap
100
AcDbLine
 10
3619.5426934976886
 20
4841.012778668632
 30
0.0
 11
3576.209418942987
 21
4876.864339299598
 31
0.0
  0
LINE
  5
CE
330
17
100
AcDbEntity
  8
racking_strap
100
AcDbLine
 10
3618.2570556613396
 20
4839.480615158389
 30
0.0
 11
3619.542693497688
 21
4841.012778668632
 31
0.0
  0
LINE
  5
CF
330
17
100
AcDbEntity
  8
racking_strap
100
AcDbLine
 10
3574.923781106638
 20
4875.332175789355
 30
0.0
 11
3618.2570556613396
 21
4839.480615158388
 31
0.0
  0
LINE
  5
D0
330
17
100
AcDbEntity
  8
racking_strap
100
AcDbLine
 10
3576.209418942987
 20
4876.864339299598
 30
0.0
 11
3574.9237811066387
 21
4875.332175789355
 31
0.0
  0
LINE
  5
D1
330
17
100
AcDbEntity
  8
racking_strap
100
AcDbLine
 10
3755.5946347032377
 20
4723.765461494803
 30
0.0
 11
3768.005492569837
 21
4713.497402414131
 31
0.0
  0
LINE
  5
D2
330
17
100
AcDbEntity
  8
racking_strap
100
AcDbLine
 10
3756.8802725395863
 20
4725.297625005047
 30
0.0
 11
3755.594634703238
 21
4723.765461494804
 31
0.0
  0
LINE
  5
D3
330
17
100
AcDbEntity
  8
racking_strap
100
AcDbLine
 10
3769.2911304061863
 20
4715.029565924374
 30
0.0
 11
3756.880272539587
 21
4725.297625005047
 31
0.0
  0
LINE
  5
D4
330
17
100
AcDbEntity
  8
racking_strap
100
AcDbLine
 10
3768.005492569837
 20
4713.49740241413
 30
0.0
 11
3769.2911304061854
 21
4715.029565924375
 31
0.0
  0
LINE
  5
D5
330
17
100
AcDbEntity
  8
racking_strap
100
AcDbLine
 10
3724.6722180151355
 20
4749.348963045097
 30
0.0
 11
3740.1845505771544
 21
4736.514914912573
 31
0.0
  0
LINE
  5
D6
330
17
100
AcDbEntity
  8
racking_strap
100
AcDbLine
 10
3725.957855851484
 20
4750.8811265553395
 30
0.0
 11
3724.6722180151355
 21
4749.348963045097
 31
0.0
  0
LINE
  5
D7
330
17
100
AcDbEntity
  8
racking_strap
100
AcDbLine
 10
3741.470188413503
 20
4738.047078422816
 30
0.0
 11
3725.957855851485
 21
4750.88112655534
 31
0.0
  0
LINE
  5
D8
330
17
100
AcDbEntity
  8
racking_strap
100
AcDbLine
 10
3740.1845505771544
 20
4736.514914912572
 30
0.0
 11
3741.4701884135034
 21
4738.047078422816
 31
0.0
  0
LINE
  5
DA
330
17
100
AcDbEntity
  8
roofing
100
AcDbLine
 10
-544.9999999999998
 20
3170.025945234643
 30
0.0
 11
2675.000000000001
 21
5871.926757625485
 31
0.0
  0
LINE
  5
DB
330
17
100
AcDbEntity
  8
roofing
100
AcDbLine
 10
-545.0
 20
3355.699187609159
 30
0.0
 11
-545.0
 21
3170.025945234643
 31
0.0
  0
LINE
  5
DC
330
17
100
AcDbEntity
  8
roofing
100
AcDbLine
 10
2675.0
 20
6057.6
 30
0.0
 11
-544.9999999999999
 21
3355.699187609159
 31
0.0
  0
LINE
  5
DD
330
17
100
AcDbEntity
  8
roofing
100
AcDbLine
 10
5895.0
 20
3355.699187609159
 30
0.0
 11
2675.0
 21
6057.6
 31
0.0
  0
LINE
  5
DE
330
17
100
AcDbEntity
  8
roofing
100
AcDbLine
 10
5895.0
 20
3170.025945234643
 30
0.0
 11
5895.0
 21
3355.699187609159
 31
0.0
  0
LINE
  5
DF
330
17
100
AcDbEntity
  8
roofing
100
AcDbLine
 10
2675.0000000000005
 20
5871.926757625485
 30
0.0
 11
5895.000000000001
 21
3170.025945234643
 31
0.0
  0
LINE
  5
E1
330
17
100
AcDbEntity
  8
glazing
100
AcDbLine
 10
-130.0
 20
2500.0
 30
0.0
 11
-150.0
 21
2500.0
 31
0.0
  0
LINE
  5
E2
330
17
100
AcDbEntity
  8
glazing
100
AcDbLine
 10
-130.0
 20
1.0
 30
0.0
 11
-130.0
 21
2500.0
 31
0.0
  0
LINE
  5
E3
330
17
100
AcDbEntity
  8
glazing
100
AcDbLine
 10
-150.0
 20
1.0
 30
0.0
 11
-130.0
 21
1.0
 31
0.0
  0
LINE
  5
E4
330
17
100
AcDbEntity
  8
glazing
100
AcDbLine
 10
-150.0
 20
2500.0
 30
0.0
 11
-150.0
 21
1.0
 31
0.0
  0
LINE
  5
E6
330
17
100
AcDbEntity
  8
slope_naturheld_140
100
AcDbLine
 10
0.0
 20
3099.297995691354
 30
0.0
 11
2450.0000000000005
 21
5155.092092075691
 31
0.0
  0
LINE
  5
E7
330
17
100
AcDbEntity
  8
slope_naturheld_140
100
AcDbLine
 10
0.0
 20
3180.84406220862
 30
0.0
 11
0.0
 21
3099.297995691354
 31
0.0
  0
LINE
  5
E8
330
17
100
AcDbEntity
  8
slope_naturheld_140
100
AcDbLine
 10
2450.0000000000005
 20
5236.638158592956
 30
0.0
 11
2.2737367544323206e-13
 21
3180.84406220862
 31
0.0
  0
LINE
  5
E9
330
17
100
AcDbEntity
  8
slope_naturheld_140
100
AcDbLine
 10
4900.0
 20
3180.8440622086205
 30
0.0
 11
2450.0
 21
5236.638158592957
 31
0.0
  0
LINE
  5
EA
330
17
100
AcDbEntity
  8
slope_naturheld_140
100
AcDbLine
 10
4900.0
 20
3099.297995691354
 30
0.0
 11
4900.0
 21
3180.84406220862
 31
0.0
  0
LINE
  5
EB
330
17
100
AcDbEntity
  8
slope_naturheld_140
100
AcDbLine
 10
2450.0000000000005
 20
5155.092092075691
 30
0.0
 11
4900.0
 21
3099.297995691354
 31
0.0
  0
LINE
  5
ED
330
17
100
AcDbEntity
  8
slope_naturheld_flex_50
100
AcDbLine
 10
0.0
 20
3260.473906857889
 30
0.0
 11
0.0
 21
3182.84406220862
 31
0.0
  0
LINE
  5
EE
330
17
100
AcDbEntity
  8
slope_naturheld_flex_50
100
AcDbLine
 10
2450.0
 20
5316.268003242225
 30
0.0
 11
-3.979039320256561e-13
 21
3260.4739068578892
 31
0.0
  0
LINE
  5
EF
330
17
100
AcDbEntity
  8
slope_naturheld_flex_50
100
AcDbLine
 10
4900.0
 20
3260.4739068578892
 30
0.0
 11
2450.0
 21
5316.268003242225
 31
0.0
  0
LINE
  5
F0
330
17
100
AcDbEntity
  8
slope_naturheld_flex_50
100
AcDbLine
 10
4900.0
 20
3182.84406220862
 30
0.0
 11
4900.0
 21
3260.473906857889
 31
0.0
  0
LINE
  5
F1
330
17
100
AcDbEntity
  8
slope_naturheld_flex_50
100
AcDbLine
 10
2450.0
 20
5238.638158592956
 30
0.0
 11
4900.0
 21
3182.84406220862
 31
0.0
  0
LINE
  5
F2
330
17
100
AcDbEntity
  8
slope_naturheld_flex_50
100
AcDbLine
 10
0.0
 20
3182.8440622086205
 30
0.0
 11
2450.0000000000005
 21
5238.638158592957
 31
0.0
  0
LINE
  5
F4
330
17
100
AcDbEntity
  8
slope_gkf
100
AcDbLine
 10
1.1368683772161603e-13
 20
3262.4739068578892
 30
0.0
 11
2450.0000000000005
 21
5318.268003242225
 31
0.0
  0
LINE
  5
F5
330
17
100
AcDbEntity
  8
slope_gkf
100
AcDbLine
 10
2450.0
 20
5318.268003242225
 30
0.0
 11
4964.0
 21
3208.771530462543
 31
0.0
  0
LINE
  5
F6
330
17
100
AcDbEntity
  8
slope_gkf
100
AcDbLine
 10
4964.000000000001
 20
3208.7715304625435
 30
0.0
 11
4955.965154878919
 21
3216.347086001531
 31
0.0
  0
LINE
  5
F7
330
17
100
AcDbEntity
  8
slope_gkf
100
AcDbLine
 10
4955.965154878918
 20
3216.3470860015304
 30
0.0
 11
4900.0
 21
3276.7914979745424
 31
0.0
  0
LINE
  5
F8
330
17
100
AcDbEntity
  8
slope_gkf
100
AcDbLine
 10
4900.0
 20
3276.7914979745424
 30
0.0
 11
2449.9999999999995
 21
5332.585594358879
 31
0.0
  0
LINE
  5
F9
330
17
100
AcDbEntity
  8
slope_gkf
100
AcDbLine
 10
2450.0
 20
5332.5855943588795
 30
0.0
 11
-3.410605131648481e-13
 21
3276.791497974543
 31
0.0
  0
LINE
  5
FA
330
17
100
AcDbEntity
  8
slope_gkf
100
AcDbLine
 10
0.0
 20
3276.7914979745424
 30
0.0
 11
0.0
 21
3262.473906857889
 31
0.0
  0
LINE
  5
FC
330
17
100
AcDbEntity
  8
slope_cd
100
AcDbLine
 10
436.3571472046008
 20
3643.938619255493
 30
0.0
 11
482.31981379173953
 21
3682.5058758366854
 31
0.0
  0
LINE
  5
FD
330
17
100
AcDbEntity
  8
slope_cd
100
AcDbLine
 10
419.00188174306425
 20
3664.6218192197052
 30
0.0
 11
436.3571472046009
 21
3643.938619255493
 31
0.0
  0
LINE
  5
FE
330
17
100
AcDbEntity
  8
slope_cd
100
AcDbLine
 10
464.9645483302029
 20
3703.189075800897
 30
0.0
 11
419.00188174306425
 21
3664.6218192197052
 31
0.0
  0
LINE
  5
FF
330
17
100
AcDbEntity
  8
slope_cd
100
AcDbLine
 10
482.31981379173953
 20
3682.505875836685
 30
0.0
 11
464.9645483302029
 21
3703.189075800897
 31
0.0
  0
LINE
  5
100
330
17
100
AcDbEntity
  8
slope_cd
100
AcDbLine
 10
915.1349241539622
 20
4045.68087530958
 30
0.0
 11
961.0975907411009
 21
4084.248131890772
 31
0.0
  0
LINE
  5
101
330
17
100
AcDbEntity
  8
slope_cd
100
AcDbLine
 10
897.7796586924256
 20
4066.364075273793
 30
0.0
 11
915.1349241539622
 21
4045.6808753095806
 31
0.0
  0
LINE
  5
102
330
17
100
AcDbEntity
  8
slope_cd
100
AcDbLine
 10
943.7423252795643
 20
4104.931331854985
 30
0.0
 11
897.7796586924255
 21
4066.364075273793
 31
0.0
  0
LINE
  5
103
330
17
100
AcDbEntity
  8
slope_cd
100
AcDbLine
 10
961.0975907411009
 20
4084.2481318907726
 30
0.0
 11
943.7423252795644
 21
4104.931331854985
 31
0.0
  0
LINE
  5
104
330
17
100
AcDbEntity
  8
slope_cd
100
AcDbLine
 10
1393.9127011033233
 20
4447.423131363668
 30
0.0
 11
1439.875367690462
 21
4485.990387944861
 31
0.0
  0
LINE
  5
105
330
17
100
AcDbEntity
  8
slope_cd
100
AcDbLine
 10
1376.557435641787
 20
4468.10633132788
 30
0.0
 11
1393.9127011033233
 21
4447.423131363667
 31
0.0
  0
LINE
  5
106
330
17
100
AcDbEntity
  8
slope_cd
100
AcDbLine
 10
1422.5201022289257
 20
4506.673587909074
 30
0.0
 11
1376.5574356417865
 21
4468.106331327881
 31
0.0
  0
LINE
  5
107
330
17
100
AcDbEntity
  8
slope_cd
100
AcDbLine
 10
1439.8753676904626
 20
4485.990387944861
 30
0.0
 11
1422.5201022289257
 21
4506.673587909074
 31
0.0
  0
LINE
  5
108
330
17
100
AcDbEntity
  8
slope_cd
100
AcDbLine
 10
1872.6904780526847
 20
4849.165387417754
 30
0.0
 11
1918.6531446398235
 21
4887.7326439989465
 31
0.0
  0
LINE
  5
109
330
17
100
AcDbEntity
  8
slope_cd
100
AcDbLine
 10
1855.3352125911479
 20
4869.848587381966
 30
0.0
 11
1872.6904780526843
 21
4849.165387417754
 31
0.0
  0
LINE
  5
10A
330
17
100
AcDbEntity
  8
slope_cd
100
AcDbLine
 10
1901.2978791782866
 20
4908.415843963159
 30
0.0
 11
1855.3352125911479
 21
4869.848587381966
 31
0.0
  0
LINE
  5
10B
330
17
100
AcDbEntity
  8
slope_cd
100
AcDbLine
 10
1918.6531446398235
 20
4887.7326439989465
 30
0.0
 11
1901.2978791782866
 21
4908.415843963159
 31
0.0
  0
LINE
  5
10C
330
17
100
AcDbEntity
  8
slope_cd
100
AcDbLine
 10
2528.2348476658444
 20
5267.938762537258
 30
0.0
 11
2574.1975142529827
 21
5229.371505956065
 31
0.0
  0
LINE
  5
10D
330
17
100
AcDbEntity
  8
slope_cd
100
AcDbLine
 10
2545.5901131273813
 20
5288.621962501471
 30
0.0
 11
2528.234847665845
 21
5267.938762537258
 31
0.0
  0
LINE
  5
10E
330
17
100
AcDbEntity
  8
slope_cd
100
AcDbLine
 10
2591.5527797145196
 20
5250.054705920279
 30
0.0
 11
2545.5901131273813
 21
5288.621962501472
 31
0.0
  0
LINE
  5
10F
330
17
100
AcDbEntity
  8
slope_cd
100
AcDbLine
 10
2574.1975142529827
 20
5229.371505956065
 30
0.0
 11
2591.5527797145196
 21
5250.054705920278
 31
0.0
  0
LINE
  5
110
330
17
100
AcDbEntity
  8
slope_cd
100
AcDbLine
 10
3007.012624615206
 20
4866.196506483171
 30
0.0
 11
3052.975291202344
 21
4827.629249901978
 31
0.0
  0
LINE
  5
111
330
17
100
AcDbEntity
  8
slope_cd
100
AcDbLine
 10
3024.3678900767422
 20
4886.879706447384
 30
0.0
 11
3007.012624615206
 21
4866.196506483171
 31
0.0
  0
LINE
  5
112
330
17
100
AcDbEntity
  8
slope_cd
100
AcDbLine
 10
3070.330556663881
 20
4848.312449866192
 30
0.0
 11
3024.3678900767427
 21
4886.879706447385
 31
0.0
  0
LINE
  5
113
330
17
100
AcDbEntity
  8
slope_cd
100
AcDbLine
 10
3052.9752912023446
 20
4827.629249901978
 30
0.0
 11
3070.330556663881
 21
4848.312449866191
 31
0.0
  0
LINE
  5
114
330
17
100
AcDbEntity
  8
slope_cd
100
AcDbLine
 10
3485.7904015645677
 20
4464.454250429085
 30
0.0
 11
3531.753068151706
 21
4425.886993847892
 31
0.0
  0
LINE
  5
115
330
17
100
AcDbEntity
  8
slope_cd
100
AcDbLine
 10
3503.145667026104
 20
4485.137450393297
 30
0.0
 11
3485.7904015645677
 21
4464.454250429084
 31
0.0
  0
LINE
  5
116
330
17
100
AcDbEntity
  8
slope_cd
100
AcDbLine
 10
3549.108333613242
 20
4446.570193812104
 30
0.0
 11
3503.1456670261036
 21
4485.137450393297
 31
0.0
  0
LINE
  5
117
330
17
100
AcDbEntity
  8
slope_cd
100
AcDbLine
 10
3531.7530681517055
 20
4425.886993847891
 30
0.0
 11
3549.108333613242
 21
4446.570193812104
 31
0.0
  0
LINE
  5
118
330
17
100
AcDbEntity
  8
slope_cd
100
AcDbLine
 10
3964.568178513928
 20
4062.711994374996
 30
0.0
 11
4010.5308451010665
 21
4024.144737793804
 31
0.0
  0
LINE
  5
119
330
17
100
AcDbEntity
  8
slope_cd
100
AcDbLine
 10
3981.9234439754646
 20
4083.395194339208
 30
0.0
 11
3964.568178513928
 21
4062.711994374996
 31
0.0
  0
LINE
  5
11A
330
17
100
AcDbEntity
  8
slope_cd
100
AcDbLine
 10
4027.886110562603
 20
4044.827937758016
 30
0.0
 11
3981.9234439754646
 21
4083.395194339208
 31
0.0
  0
LINE
  5
11B
330
17
100
AcDbEntity
  8
slope_cd
100
AcDbLine
 10
4010.530845101066
 20
4024.144737793804
 30
0.0
 11
4027.886110562603
 21
4044.8279377580166
 31
0.0
  0
LINE
  5
11C
330
17
100
AcDbEntity
  8
slope_cd
100
AcDbLine
 10
4443.34595546329
 20
3660.969738320909
 30
0.0
 11
4489.308622050428
 21
3622.402481739717
 31
0.0
  0
LINE
  5
11D
330
17
100
AcDbEntity
  8
slope_cd
100
AcDbLine
 10
4460.701220924827
 20
3681.6529382851218
 30
0.0
 11
4443.34595546329
 21
3660.9697383209095
 31
0.0
  0
LINE
  5
11E
330
17
100
AcDbEntity
  8
slope_cd
100
AcDbLine
 10
4506.663887511965
 20
3643.0856817039294
 30
0.0
 11
4460.701220924827
 21
3681.6529382851213
 31
0.0
  0
LINE
  5
11F
330
17
100
AcDbEntity
  8
slope_cd
100
AcDbLine
 10
4489.308622050428
 20
3622.4024817397176
 30
0.0
 11
4506.663887511966
 21
3643.0856817039294
 31
0.0
  0
LINE
  5
121
330
17
100
AcDbEntity
  8
slope_nonius
100
AcDbLine
 10
434.32277060544357
 20
3677.477571413436
 30
0.0
 11
449.643659467823
 21
3690.333323607167
 31
0.0
  0
LINE
  5
122
330
17
100
AcDbEntity
  8
slope_nonius
100
AcDbLine
 10
384.1853370498941
 20
3737.229037976717
 30
0.0
 11
434.32277060544413
 21
3677.4775714134366
 31
0.0
  0
LINE
  5
123
330
17
100
AcDbEntity
  8
slope_nonius
100
AcDbLine
 10
399.5062259122735
 20
3750.0847901704474
 30
0.0
 11
384.18533704989386
 21
3737.2290379767164
 31
0.0
  0
LINE
  5
124
330
17
100
AcDbEntity
  8
slope_nonius
100
AcDbLine
 10
449.64365946782334
 20
3690.333323607167
 30
0.0
 11
399.5062259122733
 21
3750.0847901704474
 31
0.0
  0
LINE
  5
125
330
17
100
AcDbEntity
  8
slope_nonius
100
AcDbLine
 10
913.1005475548052
 20
4079.219827467524
 30
0.0
 11
928.4214364171849
 21
4092.075579661255
 31
0.0
  0
LINE
  5
126
330
17
100
AcDbEntity
  8
slope_nonius
100
AcDbLine
 10
862.9631139992548
 20
4138.971294030804
 30
0.0
 11
913.1005475548048
 21
4079.219827467523
 31
0.0
  0
LINE
  5
127
330
17
100
AcDbEntity
  8
slope_nonius
100
AcDbLine
 10
878.2840028616347
 20
4151.827046224535
 30
0.0
 11
862.963113999255
 21
4138.971294030804
 31
0.0
  0
LINE
  5
128
330
17
100
AcDbEntity
  8
slope_nonius
100
AcDbLine
 10
928.4214364171845
 20
4092.0755796612543
 30
0.0
 11
878.2840028616346
 21
4151.827046224535
 31
0.0
  0
LINE
  5
129
330
17
100
AcDbEntity
  8
slope_nonius
100
AcDbLine
 10
1391.8783245041666
 20
4480.96208352161
 30
0.0
 11
1407.199213366546
 21
4493.817835715341
 31
0.0
  0
LINE
  5
12A
330
17
100
AcDbEntity
  8
slope_nonius
100
AcDbLine
 10
1341.7408909486167
 20
4540.71355008489
 30
0.0
 11
1391.8783245041664
 21
4480.96208352161
 31
0.0
  0
LINE
  5
12B
330
17
100
AcDbEntity
  8
slope_nonius
100
AcDbLine
 10
1357.0617798109956
 20
4553.569302278622
 30
0.0
 11
1341.7408909486162
 21
4540.713550084891
 31
0.0
  0
LINE
  5
12C
330
17
100
AcDbEntity
  8
slope_nonius
100
AcDbLine
 10
1407.1992133665456
 20
4493.817835715341
 30
0.0
 11
1357.0617798109956
 21
4553.569302278621
 31
0.0
  0
LINE
  5
12D
330
17
100
AcDbEntity
  8
slope_nonius
100
AcDbLine
 10
1870.6561014535275
 20
4882.704339575696
 30
0.0
 11
1885.976990315907
 21
4895.560091769427
 31
0.0
  0
LINE
  5
12E
330
17
100
AcDbEntity
  8
slope_nonius
100
AcDbLine
 10
1820.5186678979776
 20
4942.455806138978
 30
0.0
 11
1870.6561014535278
 21
4882.704339575697
 31
0.0
  0
LINE
  5
12F
330
17
100
AcDbEntity
  8
slope_nonius
100
AcDbLine
 10
1835.8395567603566
 20
4955.311558332709
 30
0.0
 11
1820.5186678979771
 21
4942.455806138978
 31
0.0
  0
LINE
  5
130
330
17
100
AcDbEntity
  8
slope_nonius
100
AcDbLine
 10
1885.9769903159072
 20
4895.560091769427
 30
0.0
 11
1835.839556760357
 21
4955.311558332708
 31
0.0
  0
LINE
  5
131
330
17
100
AcDbEntity
  8
slope_nonius
100
AcDbLine
 10
2560.9110019897607
 20
5275.766210307739
 30
0.0
 11
2576.23189085214
 21
5262.910458114008
 31
0.0
  0
LINE
  5
132
330
17
100
AcDbEntity
  8
slope_nonius
100
AcDbLine
 10
2621.652913143047
 20
5348.155601145707
 30
0.0
 11
2560.9110019897603
 21
5275.766210307739
 31
0.0
  0
LINE
  5
133
330
17
100
AcDbEntity
  8
slope_nonius
100
AcDbLine
 10
2636.973802005427
 20
5335.299848951977
 30
0.0
 11
2621.6529131430475
 21
5348.155601145708
 31
0.0
  0
LINE
  5
134
330
17
100
AcDbEntity
  8
slope_nonius
100
AcDbLine
 10
2576.2318908521397
 20
5262.910458114008
 30
0.0
 11
2636.9738020054265
 21
5335.299848951976
 31
0.0
  0
LINE
  5
135
330
17
100
AcDbEntity
  8
slope_nonius
100
AcDbLine
 10
3039.688778939121
 20
4874.023954253652
 30
0.0
 11
3055.0096678015007
 21
4861.168202059921
 31
0.0
  0
LINE
  5
136
330
17
100
AcDbEntity
  8
slope_nonius
100
AcDbLine
 10
3275.755372519613
 20
5155.357165244679
 30
0.0
 11
3039.688778939122
 21
4874.023954253652
 31
0.0
  0
LINE
  5
137
330
17
100
AcDbEntity
  8
slope_nonius
100
AcDbLine
 10
3291.0762613819925
 20
5142.501413050949
 30
0.0
 11
3275.755372519613
 21
5155.35716524468
 31
0.0
  0
LINE
  5
138
330
17
100
AcDbEntity
  8
slope_nonius
100
AcDbLine
 10
3055.0096678015016
 20
4861.168202059922
 30
0.0
 11
3291.076261381992
 21
5142.501413050948
 31
0.0
  0
LINE
  5
139
330
17
100
AcDbEntity
  8
slope_nonius
100
AcDbLine
 10
3518.466555888483
 20
4472.281698199565
 30
0.0
 11
3533.7874447508625
 21
4459.425946005834
 31
0.0
  0
LINE
  5
13A
330
17
100
AcDbEntity
  8
slope_nonius
100
AcDbLine
 10
3754.5331494689744
 20
4753.614909190592
 30
0.0
 11
3518.4665558884835
 21
4472.281698199565
 31
0.0
  0
LINE
  5
13B
330
17
100
AcDbEntity
  8
slope_nonius
100
AcDbLine
 10
3769.854038331354
 20
4740.759156996861
 30
0.0
 11
3754.5331494689744
 21
4753.614909190592
 31
0.0
  0
LINE
  5
13C
330
17
100
AcDbEntity
  8
slope_nonius
100
AcDbLine
 10
3533.787444750863
 20
4459.425946005835
 30
0.0
 11
3769.8540383313534
 21
4740.759156996861
 31
0.0
  0
LINE
  5
13D
330
17
100
AcDbEntity
  8
slope_nonius
100
AcDbLine
 10
3997.244332837844
 20
4070.539442145478
 30
0.0
 11
4012.5652217002234
 21
4057.683689951747
 31
0.0
  0
LINE
  5
13E
330
17
100
AcDbEntity
  8
slope_nonius
100
AcDbLine
 10
4233.310926418335
 20
4351.872653136505
 30
0.0
 11
3997.244332837844
 21
4070.5394421454776
 31
0.0
  0
LINE
  5
13F
330
17
100
AcDbEntity
  8
slope_nonius
100
AcDbLine
 10
4248.631815280714
 20
4339.016900942775
 30
0.0
 11
4233.310926418335
 21
4351.8726531365055
 31
0.0
  0
LINE
  5
140
330
17
100
AcDbEntity
  8
slope_nonius
100
AcDbLine
 10
4012.5652217002234
 20
4057.6836899517466
 30
0.0
 11
4248.631815280714
 21
4339.016900942775
 31
0.0
  0
LINE
  5
141
330
17
100
AcDbEntity
  8
slope_nonius
100
AcDbLine
 10
4476.022109787206
 20
3668.7971860913917
 30
0.0
 11
4491.342998649586
 21
3655.9414338976608
 31
0.0
  0
LINE
  5
142
330
17
100
AcDbEntity
  8
slope_nonius
100
AcDbLine
 10
4712.088703367697
 20
3950.1303970824183
 30
0.0
 11
4476.022109787206
 21
3668.7971860913913
 31
0.0
  0
LINE
  5
143
330
17
100
AcDbEntity
  8
slope_nonius
100
AcDbLine
 10
4727.409592230077
 20
3937.274644888687
 30
0.0
 11
4712.088703367697
 21
3950.130397082418
 31
0.0
  0
LINE
  5
144
330
17
100
AcDbEntity
  8
slope_nonius
100
AcDbLine
 10
4491.342998649586
 20
3655.9414338976603
 30
0.0
 11
4727.409592230077
 21
3937.2746448886874
 31
0.0
  0
LINE
  5
146
330
17
100
AcDbEntity
  8
soffit_naturheld_140
100
AcDbLine
 10
4901.0
 20
2471.0
 30
0.0
 11
5349.0
 21
2471.0
 31
0.0
  0
LINE
  5
147
330
17
100
AcDbEntity
  8
soffit_naturheld_140
100
AcDbLine
 10
4901.0
 20
3097.297995691354
 30
0.0
 11
4901.0
 21
2471.0
 31
0.0
  0
LINE
  5
148
330
17
100
AcDbEntity
  8
soffit_naturheld_140
100
AcDbLine
 10
4963.0
 20
3097.297995691354
 30
0.0
 11
4901.0
 21
3097.297995691354
 31
0.0
  0
LINE
  5
149
330
17
100
AcDbEntity
  8
soffit_naturheld_140
100
AcDbLine
 10
4963.0
 20
2533.0
 30
0.0
 11
4963.0
 21
3097.297995691354
 31
0.0
  0
LINE
  5
14A
330
17
100
AcDbEntity
  8
soffit_naturheld_140
100
AcDbLine
 10
5349.0
 20
2533.0
 30
0.0
 11
4963.0
 21
2533.0
 31
0.0
  0
LINE
  5
14B
330
17
100
AcDbEntity
  8
soffit_naturheld_140
100
AcDbLine
 10
5349.0
 20
2471.0
 30
0.0
 11
5349.0
 21
2533.0
 31
0.0
  0
LINE
  5
14D
330
17
100
AcDbEntity
  8
soffit_naturheld_flex_50
100
AcDbLine
 10
4965.0
 20
2535.0
 30
0.0
 11
5349.0
 21
2535.0
 31
0.0
  0
LINE
  5
14E
330
17
100
AcDbEntity
  8
soffit_naturheld_flex_50
100
AcDbLine
 10
4965.0
 20
3097.297995691354
 30
0.0
 11
4965.0
 21
2535.0
 31
0.0
  0
LINE
  5
14F
330
17
100
AcDbEntity
  8
soffit_naturheld_flex_50
100
AcDbLine
 10
5349.0
 20
3097.297995691354
 30
0.0
 11
4965.0
 21
3097.297995691354
 31
0.0
  0
LINE
  5
150
330
17
100
AcDbEntity
  8
soffit_naturheld_flex_50
100
AcDbLine
 10
5349.0
 20
2535.0
 30
0.0
 11
5349.0
 21
3097.297995691354
 31
0.0
  0
LINE
  5
151
330
17
100
AcDbEntity
  8
soffit_naturheld_flex_50
100
AcDbLine
 10
4901.0
 20
3099.297995691354
 30
0.0
 11
4950.5
 21
3099.297995691354
 31
0.0
  0
LINE
  5
152
330
17
100
AcDbEntity
  8
soffit_naturheld_flex_50
100
AcDbLine
 10
4901.0
 20
3260.473906857889
 30
0.0
 11
4901.0
 21
3099.297995691354
 31
0.0
  0
LINE
  5
153
330
17
100
AcDbEntity
  8
soffit_naturheld_flex_50
100
AcDbLine
 10
4950.500000000001
 20
3217.260275852259
 30
0.0
 11
4901.000000000001
 21
3260.4739068578892
 31
0.0
  0
LINE
  5
154
330
17
100
AcDbEntity
  8
soffit_naturheld_flex_50
100
AcDbLine
 10
4950.5
 20
3099.297995691354
 30
0.0
 11
4950.5
 21
3217.260275852259
 31
0.0
  0
LINE
  5
156
330
17
100
AcDbEntity
  8
soffit_gkf
100
AcDbLine
 10
4952.5
 20
3111.797995691354
 30
0.0
 11
4963.0
 21
3111.797995691354
 31
0.0
  0
LINE
  5
157
330
17
100
AcDbEntity
  8
soffit_gkf
100
AcDbLine
 10
4952.5
 20
3217.260275852259
 30
0.0
 11
4952.5
 21
3111.797995691354
 31
0.0
  0
LINE
  5
158
330
17
100
AcDbEntity
  8
soffit_gkf
100
AcDbLine
 10
4963.0
 20
3206.7715304625435
 30
0.0
 11
4952.5
 21
3217.2602758522594
 31
0.0
  0
LINE
  5
159
330
17
100
AcDbEntity
  8
soffit_gkf
100
AcDbLine
 10
4963.0
 20
3111.797995691354
 30
0.0
 11
4963.0
 21
3206.771530462543
 31
0.0
  0
LINE
  5
15A
330
17
100
AcDbEntity
  8
soffit_gkf
100
AcDbLine
 10
4952.5
 20
3099.297995691354
 30
0.0
 11
5349.0
 21
3099.297995691354
 31
0.0
  0
LINE
  5
15B
330
17
100
AcDbEntity
  8
soffit_gkf
100
AcDbLine
 10
4952.5
 20
3109.797995691354
 30
0.0
 11
4952.5
 21
3099.297995691354
 31
0.0
  0
LINE
  5
15C
330
17
100
AcDbEntity
  8
soffit_gkf
100
AcDbLine
 10
5349.0
 20
3109.797995691354
 30
0.0
 11
4952.5
 21
3109.797995691354
 31
0.0
  0
LINE
  5
15D
330
17
100
AcDbEntity
  8
soffit_gkf
100
AcDbLine
 10
5349.0
 20
3099.297995691354
 30
0.0
 11
5349.0
 21
3109.797995691354
 31
0.0
  0
LINE
  5
15F
330
17
100
AcDbEntity
  8
soffit_cd
100
AcDbLine
 10
4964.0
 20
3110.797995691354
 30
0.0
 11
5024.0
 21
3110.797995691354
 31
0.0
  0
LINE
  5
160
330
17
100
AcDbEntity
  8
soffit_cd
100
AcDbLine
 10
4964.0
 20
3137.797995691354
 30
0.0
 11
4964.0
 21
3110.797995691354
 31
0.0
  0
LINE
  5
161
330
17
100
AcDbEntity
  8
soffit_cd
100
AcDbLine
 10
5024.0
 20
3137.797995691354
 30
0.0
 11
4964.0
 21
3137.797995691354
 31
0.0
  0
LINE
  5
162
330
17
100
AcDbEntity
  8
soffit_cd
100
AcDbLine
 10
5024.0
 20
3110.797995691354
 30
0.0
 11
5024.0
 21
3137.797995691354
 31
0.0
  0
LINE
  5
163
330
17
100
AcDbEntity
  8
soffit_cd
100
AcDbLine
 10
5308.0
 20
3110.797995691354
 30
0.0
 11
5335.0
 21
3110.797995691354
 31
0.0
  0
LINE
  5
164
330
17
100
AcDbEntity
  8
soffit_cd
100
AcDbLine
 10
5308.0
 20
3137.797995691354
 30
0.0
 11
5308.0
 21
3110.797995691354
 31
0.0
  0
LINE
  5
165
330
17
100
AcDbEntity
  8
soffit_cd
100
AcDbLine
 10
5335.0
 20
3137.797995691354
 30
0.0
 11
5308.0
 21
3137.797995691354
 31
0.0
  0
LINE
  5
166
330
17
100
AcDbEntity
  8
soffit_cd
100
AcDbLine
 10
5335.0
 20
3110.797995691354
 30
0.0
 11
5335.0
 21
3137.797995691354
 31
0.0
  0
LINE
  5
168
330
17
100
AcDbEntity
  8
soffit_nonius
100
AcDbLine
 10
4997.575260777783
 20
3714.1895466322076
 30
0.0
 11
4984.0
 21
3714.1895466322076
 31
0.0
  0
LINE
  5
169
330
17
100
AcDbEntity
  8
soffit_nonius
100
AcDbLine
 10
5004.0
 20
3708.798550320435
 30
0.0
 11
4997.575260777783
 21
3714.1895466322076
 31
0.0
  0
LINE
  5
16A
330
17
100
AcDbEntity
  8
soffit_nonius
100
AcDbLine
 10
5004.0
 20
3137.797995691354
 30
0.0
 11
5004.0
 21
3708.798550320435
 31
0.0
  0
LINE
  5
16B
330
17
100
AcDbEntity
  8
soffit_nonius
100
AcDbLine
 10
4984.0
 20
3137.797995691354
 30
0.0
 11
5004.0
 21
3137.797995691354
 31
0.0
  0
LINE
  5
16C
330
17
100
AcDbEntity
  8
soffit_nonius
100
AcDbLine
 10
4984.0
 20
3714.1895466322076
 30
0.0
 11
4984.0
 21
3137.797995691354
 31
0.0
  0
ENDSEC
  0
SECTION
  2
OBJECTS
  0
DICTIONARY
  5
A
330
0
100
AcDbDictionary
281
1
  3
ACAD_COLOR
350
B
  3
ACAD_GROUP
350
C
  3
ACAD_LAYOUT
350
D
  3
ACAD_MATERIAL
350
E
  3
ACAD_MLEADERSTYLE
350
F
  3
ACAD_MLINESTYLE
350
10
  3
ACAD_PLOTSETTINGS
350
11
  3
ACAD_PLOTSTYLENAME
350
12
  3
ACAD_SCALELIST
350
14
  3
ACAD_TABLESTYLE
350
15
  3
ACAD_VISUALSTYLE
350
16
  3
EZDXF_META
350
2D
  0
DICTIONARY
  5
B
330
A
100
AcDbDictionary
281
1
  0
DICTIONARY
  5
C
330
A
100
AcDbDictionary
281
1
  0
DICTIONARY
  5
D
330
A
100
AcDbDictionary
281
1
  3
Model
350
1A
  3
Layout1
350
1E
  0
DICTIONARY
  5
E
330
A
100
AcDbDictionary
281
1
  3
ByBlock
350
1F
  3
ByLayer
350
20
  3
Global
350
21
  0
DICTIONARY
  5
F
330
A
100
AcDbDictionary
281
1
  3
Standard
350
2C
  0
DICTIONARY
  5
10
330
A
100
AcDbDictionary
281
1
  3
Standard
350
22
  0
DICTIONARY
  5
11
330
A
100
AcDbDictionary
281
1
  0
ACDBDICTIONARYWDFLT
  5
12
330
A
100
AcDbDictionary
281
1
  3
Normal
350
13
100
AcDbDictionaryWithDefault
340
13
  0
ACDBPLACEHOLDER
  5
13
330
12
  0
DICTIONARY
  5
14
330
A
100
AcDbDictionary
281
1
  0
DICTIONARY
  5
15
330
A
100
AcDbDictionary
281
1
  0
DICTIONARY
  5
16
330
A
100
AcDbDictionary
281
1
  0
LAYOUT
  5
1A
330
D
100
AcDbPlotSettings
  1

  4
A3
  6

 40
7.5
 41
20.0
 42
7.5
 43
20.0
 44
420.0
 45
297.0
 46
0.0
 47
0.0
 48
0.0
 49
0.0
140
0.0
141
0.0
142
1.0
143
1.0
 70
1024
 72
1
 73
0
 74
5
  7

 75
16
 76
0
 77
2
 78
300
147
1.0
148
0.0
149
0.0
100
AcDbLayout
  1
Model
 70
1
 71
0
 10
0.0
 20
0.0
 11
420.0
 21
297.0
 12
0.0
 22
0.0
 32
0.0
 14
1e+20
 24
1e+20
 34
1e+20
 15
-1e+20
 25
-1e+20
 35
-1e+20
146
0.0
 13
0.0
 23
0.0
 33
0.0
 16
1.0
 26
0.0
 36
0.0
 17
0.0
 27
1.0
 37
0.0
 76
1
330
17
  0
LAYOUT
  5
1E
330
D
100
AcDbPlotSettings
  1

  4
A3
  6

 40
7.5
 41
20.0
 42
7.5
 43
20.0
 44
420.0
 45
297.0
 46
0.0
 47
0.0
 48
0.0
 49
0.0
140
0.0
141
0.0
142
1.0
143
1.0
 70
0
 72
1
 73
0
 74
5
  7

 75
16
 76
0
 77
2
 78
300
147
1.0
148
0.0
149
0.0
100
AcDbLayout
  1
Layout1
 70
1
 71
1
 10
0.0
 20
0.0
 11
420.0
 21
297.0
 12
0.0
 22
0.0
 32
0.0
 14
1e+20
 24
1e+20
 34
1e+20
 15
-1e+20
 25
-1e+20
 35
-1e+20
146
0.0
 13
0.0
 23
0.0
 33
0.0
 16
1.0
 26
0.0
 36
0.0
 17
0.0
 27
1.0
 37
0.0
 76
1
330
1B
  0
MATERIAL
  5
1F
102
{ACAD_REACTORS
330
E
102
}
330
E
100
AcDbMaterial
  1
ByBlock
  2

 70
0
 40
1.0
 71
1
 41
1.0
 91
-1023410177
 42
1.0
 72
1
  3

 73
1
 74
1
 75
1
 44
0.5
 73
0
 45
1.0
 46
1.0
 77
1
  4

 78
1
 79
1
170
1
 48
1.0
171
1
  6

172
1
173
1
174
1
140
1.0
141
1.0
175
1
  7

176
1
177
1
178
1
143
1.0
179
1
  8

270
1
271
1
272
1
145
1.0
146
1.0
273
1
  9

274
1
275
1
276
1
 42
1.0
 72
1
  3

 73
1
 74
1
 75
1
 94
63
  0
MATERIAL
  5
20
102
{ACAD_REACTORS
330
E
102
}
330
E
100
AcDbMaterial
  1
ByLayer
  2

 70
0
 40
1.0
 71
1
 41
1.0
 91
-1023410177
 42
1.0
 72
1
  3

 73
1
 74
1
 75
1
 44
0.5
 73
0
 45
1.0
 46
1.0
 77
1
  4

 78
1
 79
1
170
1
 48
1.0
171
1
  6

172
1
173
1
174
1
140
1.0
141
1.0
175
1
  7

176
1
177
1
178
1
143
1.0
179
1
  8

270
1
271
1
272
1
145
1.0
146
1.0
273
1
  9

274
1
275
1
276
1
 42
1.0
 72
1
  3

 73
1
 74
1
 75
1
 94
63
  0
MATERIAL
  5
21
102
{ACAD_REACTORS
330
E
102
}
330
E
100
AcDbMaterial
  1
Global
  2

 70
0
 40
1.0
 71
1
 41
1.0
 91
-1023410177
 42
1.0
 72
1
  3

 73
1
 74
1
 75
1
 44
0.5
 73
0
 45
1.0
 46
1.0
 77
1
  4

 78
1
 79
1
170
1
 48
1.0
171
1
  6

172
1
173
1
174
1
140
1.0
141
1.0
175
1
  7

176
1
177
1
178
1
143
1.0
179
1
  8

270
1
271
1
272
1
145
1.0
146
1.0
273
1
  9

274
1
275
1
276
1
 42
1.0
 72
1
  3

 73
1
 74
1
 75
1
 94
63
  0
MLINESTYLE
  5
22
102
{ACAD_REACTORS
330
10
102
}
330
10
100
AcDbMlineStyle
  2
Standard
 70
0
  3

 62
256
 51
90.0
 52
90.0
 71
2
 49
0.5
 62
256
  6
BYLAYER
 49
-0.5
 62
256
  6
BYLAYER
  0
MLEADERSTYLE
  5
2C
102
{ACAD_REACTORS
330
F
102
}
330
F
100
AcDbMLeaderStyle
179
2
170
2
171
1
172
0
 90
2
 40
0.0
 41
0.0
173
1
 91
-1056964608
 92
-2
290
1
 42
2.0
291
1
 43
8.0
  3
Standard
 44
4.0
300

342
29
174
1
175
1
176
0
178
1
 93
-1056964608
 45
4.0
292
0
297
0
 46
4.0
 94
-1056964608
 47
1.0
 49
1.0
140
1.0
294
1
141
0.0
177
0
142
1.0
295
0
296
0
143
3.75
271
0
272
9
273
9
  0
DICTIONARY
  5
2D
330
A
100
AcDbDictionary
280
1
281
1
  3
CREATED_BY_EZDXF
350
2E
  3
WRITTEN_BY_EZDXF
350
170
  0
DICTIONARYVAR
  5
2E
330
2D
100
DictionaryVariables
280
0
  1
1.4.4 @ 2026-09-23T08:26:22.850418+00:00
  0
DICTIONARYVAR
  5
170
330
2D
100
DictionaryVariables
280
0
  1
1.4.4 @ 2026-09-23T08:26:22.870125+00:00
  0
ENDSEC
  0
EOF
