  0
SECTION
  2
HEADER
  9
$ACADVER
  1
AC1027
  9
$ACADMAINTVER
 70
105
  9
$DWGCODEPAGE
  3
ANSI_1252
  9
$LASTSAVEDBY
  1
ezdxf
  9
$REQUIREDVERSIONS
160
0
  9
$INSBASE
 10
0.0
 20
0.0
 30
0.0
  9
$EXTMIN
 10
1e+20
 20
1e+20
 30
1e+20
  9
$EXTMAX
 10
-1e+20
 20
-1e+20
 30
-1e+20
  9
$LIMMIN
 10
0.0
 20
0.0
  9
$LIMMAX
 10
420.0
 20
297.0
  9
$ORTHOMODE
 70
0
  9
$REGENMODE
 70
1
  9
$FILLMODE
 70
1
  9
$QTEXTMODE
 70
0
  9
$MIRRTEXT
 70
1
  9
$LTSCALE
 40
1.0
  9
$ATTMODE
 70
1
  9
$TEXTSIZE
 40
2.5
  9
$TRACEWID
 40
1.0
  9
$TEXTSTYLE
  7
Standard
  9
$CLAYER
  8
0
  9
$CELTYPE
  6
ByLayer
  9
$CECOLOR
 62
256
  9
$CELTSCALE
 40
1.0
  9
$DISPSILH
 70
0
  9
$DIMSCALE
 40
1.0
  9
$DIMASZ
 40
2.5
  9
$DIMEXO
 40
0.625
  9
$DIMDLI
 40
3.75
  9
$DIMRND
 40
0.0
  9
$DIMDLE
 40
0.0
  9
$DIMEXE
 40
1.25
  9
$DIMTP
 40
0.0
  9
$DIMTM
 40
0.0
  9
$DIMTXT
 40
2.5
  9
$DIMCEN
 40
2.5
  9
$DIMTSZ
 40
0.0
  9
$DIMTOL
 70
0
  9
$DIMLIM
 70
0
  9
$DIMTIH
 70
0
  9
$DIMTOH
 70
0
  9
$DIMSE1
 70
0
  9
$DIMSE2
 70
0
  9
$DIMTAD
 70
1
  9
$DIMZIN
 70
8
  9
$DIMBLK
  1

  9
$DIMASO
 70
1
  9
$DIMSHO
 70
1
  9
$DIMPOST
  1

  9
$DIMAPOST
  1

  9
$DIMALT
 70
0
  9
$DIMALTD
 70
3
  9
$DIMALTF
 40
0.03937007874
  9
$DIMLFAC
 40
1.0
  9
$DIMTOFL
 70
1
  9
$DIMTVP
 40
0.0
  9
$DIMTIX
 70
0
  9
$DIMSOXD
 70
0
  9
$DIMSAH
 70
0
  9
$DIMBLK1
  1

  9
$DIMBLK2
  1

  9
$DIMSTYLE
  2
ISO-25
  9
$DIMCLRD
 70
0
  9
$DIMCLRE
 70
0
  9
$DIMCLRT
 70
0
  9
$DIMTFAC
 40
1.0
  9
$DIMGAP
 40
0.625
  9
$DIMJUST
 70
0
  9
$DIMSD1
 70
0
  9
$DIMSD2
 70
0
  9
$DIMTOLJ
 70
0
  9
$DIMTZIN
 70
8
  9
$DIMALTZ
 70
0
  9
$DIMALTTZ
 70
0
  9
$DIMUPT
 70
0
  9
$DIMDEC
 70
2
  9
$DIMTDEC
 70
2
  9
$DIMALTU
 70
2
  9
$DIMALTTD
 70
3
  9
$DIMTXSTY
  7
Standard
  9
$DIMAUNIT
 70
0
  9
$DIMADEC
 70
0
  9
$DIMALTRND
 40
0.0
  9
$DIMAZIN
 70
0
  9
$DIMDSEP
 70
44
  9
$DIMATFIT
 70
3
  9
$DIMFRAC
 70
0
  9
$DIMLDRBLK
  1

  9
$DIMLUNIT
 70
2
  9
$DIMLWD
 70
-2
  9
$DIMLWE
 70
-2
  9
$DIMTMOVE
 70
0
  9
$DIMFXL
 40
1.0
  9
$DIMFXLON
 70
0
  9
$DIMJOGANG
 40
0.785398163397
  9
$DIMTFILL
 70
0
  9
$DIMTFILLCLR
 70
0
  9
$DIMARCSYM
 70
0
  9
$DIMLTYPE
  6

  9
$DIMLTEX1
  6

  9
$DIMLTEX2
  6

  9
$DIMTXTDIRECTION
 70
0
  9
$LUNITS
 70
2
  9
$LUPREC
 70
4
  9
$SKETCHINC
 40
1.0
  9
$FILLETRAD
 40
10.0
  9
$AUNITS
 70
0
  9
$AUPREC
 70
2
  9
$MENU
  1
.
  9
$ELEVATION
 40
0.0
  9
$PELEVATION
 40
0.0
  9
$THICKNESS
 40
0.0
  9
$LIMCHECK
 70
0
  9
$CHAMFERA
 40
0.0
  9
$CHAMFERB
 40
0.0
  9
$CHAMFERC
 40
0.0
  9
$CHAMFERD
 40
0.0
  9
$SKPOLY
 70
0
  9
$TDCREATE
 40
2461304.542141204
  9
$TDUCREATE
 40
2458532.153996898
  9
$TDUPDATE
 40
2461304.542141204
  9
$TDUUPDATE
 40
2458532.1544311
  9
$TDINDWG
 40
0.0
  9
$TDUSRTIMER
 40
0.0
  9
$USRTIMER
 70
1
  9
$ANGBASE
 50
0.0
  9
$ANGDIR
 70
0
  9
$PDMODE
 70
0
  9
$PDSIZE
 40
0.0
  9
$PLINEWID
 40
0.0
  9
$SPLFRAME
 70
0
  9
$SPLINETYPE
 70
6
  9
$SPLINESEGS
 70
8
  9
$HANDSEED
  5
196
  9
$SURFTAB1
 70
6
  9
$SURFTAB2
 70
6
  9
$SURFTYPE
 70
6
  9
$SURFU
 70
6
  9
$SURFV
 70
6
  9
$UCSBASE
  2

  9
$UCSNAME
  2

  9
$UCSORG
 10
0.0
 20
0.0
 30
0.0
  9
$UCSXDIR
 10
1.0
 20
0.0
 30
0.0
  9
$UCSYDIR
 10
0.0
 20
1.0
 30
0.0
  9
$UCSORTHOREF
  2

  9
$UCSORTHOVIEW
 70
0
  9
$UCSORGTOP
 10
0.0
 20
0.0
 30
0.0
  9
$UCSORGBOTTOM
 10
0.0
 20
0.0
 30
0.0
  9
$UCSORGLEFT
 10
0.0
 20
0.0
 30
0.0
  9
$UCSORGRIGHT
 10
0.0
 20
0.0
 30
0.0
  9
$UCSORGFRONT
 10
0.0
 20
0.0
 30
0.0
  9
$UCSORGBACK
 10
0.0
 20
0.0
 30
0.0
  9
$PUCSBASE
  2

  9
$PUCSNAME
  2

  9
$PUCSORG
 10
0.0
 20
0.0
 30
0.0
  9
$PUCSXDIR
 10
1.0
 20
0.0
 30
0.0
  9
$PUCSYDIR
 10
0.0
 20
1.0
 30
0.0
  9
$PUCSORTHOREF
  2

  9
$PUCSORTHOVIEW
 70
0
  9
$PUCSORGTOP
 10
0.0
 20
0.0
 30
0.0
  9
$PUCSORGBOTTOM
 10
0.0
 20
0.0
 30
0.0
  9
$PUCSORGLEFT
 10
0.0
 20
0.0
 30
0.0
  9
$PUCSORGRIGHT
 10
0.0
 20
0.0
 30
0.0
  9
$PUCSORGFRONT
 10
0.0
 20
0.0
 30
0.0
  9
$PUCSORGBACK
 10
0.0
 20
0.0
 30
0.0
  9
$USERI1
 70
0
  9
$USERI2
 70
0
  9
$USERI3
 70
0
  9
$USERI4
 70
0
  9
$USERI5
 70
0
  9
$USERR1
 40
0.0
  9
$USERR2
 40
0.0
  9
$USERR3
 40
0.0
  9
$USERR4
 40
0.0
  9
$USERR5
 40
0.0
  9
$WORLDVIEW
 70
1
  9
$SHADEDGE
 70
3
  9
$SHADEDIF
 70
70
  9
$TILEMODE
 70
1
  9
$MAXACTVP
 70
64
  9
$PINSBASE
 10
0.0
 20
0.0
 30
0.0
  9
$PLIMCHECK
 70
0
  9
$PEXTMIN
 10
1e+20
 20
1e+20
 30
1e+20
  9
$PEXTMAX
 10
-1e+20
 20
-1e+20
 30
-1e+20
  9
$PLIMMIN
 10
0.0
 20
0.0
  9
$PLIMMAX
 10
420.0
 20
297.0
  9
$UNITMODE
 70
0
  9
$VISRETAIN
 70
1
  9
$PLINEGEN
 70
0
  9
$PSLTSCALE
 70
1
  9
$TREEDEPTH
 70
3020
  9
$CMLSTYLE
  2
Standard
  9
$CMLJUST
 70
0
  9
$CMLSCALE
 40
20.0
  9
$PROXYGRAPHICS
 70
1
  9
$MEASUREMENT
 70
1
  9
$CELWEIGHT
370
-1
  9
$ENDCAPS
280
0
  9
$JOINSTYLE
280
0
  9
$LWDISPLAY
290
0
  9
$INSUNITS
 70
4
  9
$HYPERLINKBASE
  1

  9
$STYLESHEET
  1

  9
$XEDIT
290
1
  9
$CEPSNTYPE
380
0
  9
$PSTYLEMODE
290
1
  9
$FINGERPRINTGUID
  2
{FA1174B7-F649-4EF0-86EE-B3C14D3A780F}
  9
$VERSIONGUID
  2
{3EB1A704-CC66-4DA1-B612-835F0FA0B746}
  9
$EXTNAMES
290
1
  9
$PSVPSCALE
 40
0.0
  9
$OLESTARTUP
290
0
  9
$SORTENTS
280
127
  9
$INDEXCTL
280
0
  9
$HIDETEXT
280
1
  9
$XCLIPFRAME
280
1
  9
$HALOGAP
280
0
  9
$OBSCOLOR
 70
257
  9
$OBSLTYPE
280
0
  9
$INTERSECTIONDISPLAY
280
0
  9
$INTERSECTIONCOLOR
 70
257
  9
$DIMASSOC
280
2
  9
$PROJECTNAME
  1

  9
$CAMERADISPLAY
290
0
  9
$LENSLENGTH
 40
50.0
  9
$CAMERAHEIGHT
 40
0.0
  9
$STEPSPERSEC
 40
24.0
  9
$STEPSIZE
 40
100.0
  9
$3DDWFPREC
 40
2.0
  9
$PSOLWIDTH
 40
0.005
  9
$PSOLHEIGHT
 40
0.08
  9
$LOFTANG1
 40
1.570796326795
  9
$LOFTANG2
 40
1.570796326795
  9
$LOFTMAG1
 40
0.0
  9
$LOFTMAG2
 40
0.0
  9
$LOFTPARAM
 70
7
  9
$LOFTNORMALS
280
1
  9
$LATITUDE
 40
37.795
  9
$LONGITUDE
 40
-122.394
  9
$NORTHDIRECTION
 40
0.0
  9
$TIMEZONE
 70
-8000
  9
$LIGHTGLYPHDISPLAY
280
1
  9
$TILEMODELIGHTSYNCH
280
1
  9
$CMATERIAL
347
20
  9
$SOLIDHIST
280
0
  9
$SHOWHIST
280
1
  9
$DWFFRAME
280
2
  9
$DGNFRAME
280
2
  9
$REALWORLDSCALE
290
1
  9
$INTERFERECOLOR
 62
256
  9
$CSHADOW
280
0
  9
$SHADOWPLANELOCATION
 40
0.0
  0
ENDSEC
  0
SECTION
  2
CLASSES
  0
CLASS
  1
ACDBDICTIONARYWDFLT
  2
AcDbDictionaryWithDefault
  3
ObjectDBX Classes
 90
0
 91
0
280
0
281
0
  0
CLASS
  1
SUN
  2
AcDbSun
  3
SCENEOE
 90
1153
 91
0
280
0
281
0
  0
CLASS
  1
VISUALSTYLE
  2
AcDbVisualStyle
  3
ObjectDBX Classes
 90
4095
 91
0
280
0
281
0
  0
CLASS
  1
MATERIAL
  2
AcDbMaterial
  3
ObjectDBX Classes
 90
1153
 91
0
280
0
281
0
  0
CLASS
  1
SCALE
  2
AcDbScale
  3
ObjectDBX Classes
 90
1153
 91
0
280
0
281
0
  0
CLASS
  1
TABLESTYLE
  2
AcDbTableStyle
  3
ObjectDBX Classes
 90
4095
 91
0
280
0
281
0
  0
CLASS
  1
MLEADERSTYLE
  2
AcDbMLeaderStyle
  3
ACDB_MLEADERSTYLE_CLASS
 90
4095
 91
0
280
0
281
0
  0
CLASS
  1
DICTIONARYVAR
  2
AcDbDictionaryVar
  3
ObjectDBX Classes
 90
0
 91
0
280
0
281
0
  0
CLASS
  1
CELLSTYLEMAP
  2
AcDbCellStyleMap
  3
ObjectDBX Classes
 90
1152
 91
0
280
0
281
0
  0
CLASS
  1
MENTALRAYRENDERSETTINGS
  2
AcDbMentalRayRenderSettings
  3
SCENEOE
 90
1024
 91
0
280
0
281
0
  0
CLASS
  1
ACDBDETAILVIEWSTYLE
  2
AcDbDetailViewStyle
  3
ObjectDBX Classes
 90
1025
 91
0
280
0
281
0
  0
CLASS
  1
ACDBSECTIONVIEWSTYLE
  2
AcDbSectionViewStyle
  3
ObjectDBX Classes
 90
1025
 91
0
280
0
281
0
  0
CLASS
  1
RASTERVARIABLES
  2
AcDbRasterVariables
  3
ISM
 90
0
 91
0
280
0
281
0
  0
CLASS
  1
LAYOUT
  2
AcDbLayout
  3
ObjectDBX Classes
 90
0
 91
0
280
0
281
0
  0
CLASS
  1
ACDBPLACEHOLDER
  2
AcDbPlaceHolder
  3
ObjectDBX Classes
 90
0
 91
0
280
0
281
0
  0
ENDSEC
  0
SECTION
  2
TABLES
  0
TABLE
  2
VPORT
  5
8
330
0
100
AcDbSymbolTable
 70
1
  0
VPORT
  5
192
330
8
100
AcDbSymbolTableRecord
100
AcDbViewportTableRecord
  2
*Active
 70
0
 10
0.0
 20
0.0
 11
1.0
 21
1.0
 12
2675.0000000000005
 22
2850.0000000000005
 13
0.0
 23
0.0
 14
0.5
 24
0.5
 15
0.5
 25
0.5
 16
0.0
 26
0.0
 36
1.0
 17
0.0
 27
0.0
 37
0.0
 40
6000.000000000001
 41
1.34
 42
50.0
 43
0.0
 44
0.0
 50
0.0
 51
0.0
 71
0
 72
1000
 73
1
 74
3
 75
0
 76
0
 77
0
 78
0
281
0
 65
1
110
0.0
120
0.0
130
0.0
111
1.0
121
0.0
131
0.0
112
0.0
122
1.0
132
0.0
 79
0
146
0.0
  0
ENDTAB
  0
TABLE
  2
LTYPE
  5
2
330
0
100
AcDbSymbolTable
 70
3
  0
LTYPE
  5
24
330
2
100
AcDbSymbolTableRecord
100
AcDbLinetypeTableRecord
  2
ByBlock
 70
0
  3

 72
65
 73
0
 40
0.0
  0
LTYPE
  5
25
330
2
100
AcDbSymbolTableRecord
100
AcDbLinetypeTableRecord
  2
ByLayer
 70
0
  3

 72
65
 73
0
 40
0.0
  0
LTYPE
  5
26
330
2
100
AcDbSymbolTableRecord
100
AcDbLinetypeTableRecord
  2
Continuous
 70
0
  3

 72
65
 73
0
 40
0.0
  0
ENDTAB
  0
TABLE
  2
LAYER
  5
1
330
0
100
AcDbSymbolTable
 70
18
  0
LAYER
  5
27
330
1
100
AcDbSymbolTableRecord
100
AcDbLayerTableRecord
  2
0
 70
0
 62
7
  6
Continuous
370
-3
390
13
347
21
  0
LAYER
  5
28
330
1
100
AcDbSymbolTableRecord
100
AcDbLayerTableRecord
  2
Defpoints
 70
0
 62
7
  6
Continuous
290
0
370
-3
390
13
347
21
  0
LAYER
  5
2F
330
1
100
AcDbSymbolTableRecord
100
AcDbLayerTableRecord
  2
podlaha
 70
0
 62
2
  6
Continuous
370
35
390
13
347
21
  0
LAYER
  5
34
330
1
100
AcDbSymbolTableRecord
100
AcDbLayerTableRecord
  2
eps
 70
0
 62
3
  6
Continuous
370
35
390
13
347
21
  0
LAYER
  5
41
330
1
100
AcDbSymbolTableRecord
100
AcDbLayerTableRecord
  2
zdivo
 70
0
 62
1
  6
Continuous
370
35
390
13
347
21
  0
LAYER
  5
4E
330
1
100
AcDbSymbolTableRecord
100
AcDbLayerTableRecord
  2
omitka
 70
0
 62
2
  6
Continuous
370
35
390
13
347
21
  0
LAYER
  5
57
330
1
100
AcDbSymbolTableRecord
100
AcDbLayerTableRecord
  2
vata
 70
0
 62
3
  6
Continuous
370
35
390
13
347
21
  0
LAYER
  5
A3
330
1
100
AcDbSymbolTableRecord
100
AcDbLayerTableRecord
  2
nabytek
 70
0
 62
2
  6
Continuous
370
35
390
13
347
21
  0
LAYER
  5
A8
330
1
100
AcDbSymbolTableRecord
100
AcDbLayerTableRecord
  2
sdk
 70
0
 62
4
  6
Continuous
370
35
390
13
347
21
  0
LAYER
  5
B8
330
1
100
AcDbSymbolTableRecord
100
AcDbLayerTableRecord
  2
pozednice
 70
0
 62
2
  6
Continuous
370
35
390
13
347
21
  0
LAYER
  5
C1
330
1
100
AcDbSymbolTableRecord
100
AcDbLayerTableRecord
  2
krov
 70
0
 62
2
  6
Continuous
370
35
390
13
347
21
  0
LAYER
  5
EA
330
1
100
AcDbSymbolTableRecord
100
AcDbLayerTableRecord
  2
cd
 70
0
 62
4
  6
Continuous
370
35
390
13
347
21
  0
LAYER
  5
117
330
1
100
AcDbSymbolTableRecord
100
AcDbLayerTableRecord
  2
zaves
 70
0
 62
4
  6
Continuous
370
35
390
13
347
21
  0
LAYER
  5
141
330
1
100
AcDbSymbolTableRecord
100
AcDbLayerTableRecord
  2
paska
 70
0
 62
4
  6
Continuous
370
35
390
13
347
21
  0
LAYER
  5
156
330
1
100
AcDbSymbolTableRecord
100
AcDbLayerTableRecord
  2
NaturHeld Flex 50
 70
0
 62
3
  6
Continuous
370
35
390
13
347
21
  0
LAYER
  5
165
330
1
100
AcDbSymbolTableRecord
100
AcDbLayerTableRecord
  2
sklo
 70
0
 62
4
  6
Continuous
370
35
390
13
347
21
  0
LAYER
  5
16A
330
1
100
AcDbSymbolTableRecord
100
AcDbLayerTableRecord
  2
NaturHeld 140
 70
0
 62
5
  6
Continuous
370
35
390
13
347
21
  0
LAYER
  5
177
330
1
100
AcDbSymbolTableRecord
100
AcDbLayerTableRecord
  2
krytina
 70
0
 62
1
  6
Continuous
370
35
390
13
347
21
  0
ENDTAB
  0
TABLE
  2
STYLE
  5
5
330
0
100
AcDbSymbolTable
 70
1
  0
STYLE
  5
29
330
5
100
AcDbSymbolTableRecord
100
AcDbTextStyleTableRecord
  2
Standard
 70
0
 40
0.0
 41
1.0
 50
0.0
 71
0
 42
2.5
  3
txt
  4

  0
ENDTAB
  0
TABLE
  2
VIEW
  5
7
330
0
100
AcDbSymbolTable
 70
0
  0
ENDTAB
  0
TABLE
  2
UCS
  5
6
330
0
100
AcDbSymbolTable
 70
0
  0
ENDTAB
  0
TABLE
  2
APPID
  5
3
330
0
100
AcDbSymbolTable
 70
3
  0
APPID
  5
2A
330
3
100
AcDbSymbolTableRecord
100
AcDbRegAppTableRecord
  2
ACAD
 70
0
  0
APPID
  5
193
330
3
100
AcDbSymbolTableRecord
100
AcDbRegAppTableRecord
  2
HATCHBACKGROUNDCOLOR
 70
0
  0
APPID
  5
194
330
3
100
AcDbSymbolTableRecord
100
AcDbRegAppTableRecord
  2
EZDXF
 70
0
  0
ENDTAB
  0
TABLE
  2
DIMSTYLE
  5
4
330
0
100
AcDbSymbolTable
 70
1
100
AcDbDimStyleTable
  0
DIMSTYLE
105
2B
330
4
100
AcDbSymbolTableRecord
100
AcDbDimStyleTableRecord
  2
Standard
 70
0
 40
1.0
 41
2.5
 42
0.625
 43
3.75
 44
1.25
 45
0.0
 46
0.0
 47
0.0
 48
0.0
 49
2.5
140
2.5
141
2.5
142
0.0
143
0.03937007874
144
1.0
145
0.0
146
1.0
147
0.625
148
0.0
 69
0
 70
0
 71
0
 72
0
 73
0
 74
0
 75
0
 76
0
 77
1
 78
8
 79
3
170
0
171
3
172
1
173
0
174
0
175
0
176
0
177
0
178
0
179
2
271
2
272
2
273
2
274
3
275
0
276
0
277
2
278
44
279
0
280
0
281
0
282
0
283
0
284
8
285
0
286
0
288
0
289
3
290
0
371
-2
372
-2
  0
ENDTAB
  0
TABLE
  2
BLOCK_RECORD
  5
9
330
0
100
AcDbSymbolTable
 70
2
  0
BLOCK_RECORD
  5
17
330
9
100
AcDbSymbolTableRecord
100
AcDbBlockTableRecord
  2
*Model_Space
340
1A
 70
0
280
1
281
0
  0
BLOCK_RECORD
  5
1B
330
9
100
AcDbSymbolTableRecord
100
AcDbBlockTableRecord
  2
*Paper_Space
340
1E
 70
0
280
1
281
0
  0
ENDTAB
  0
ENDSEC
  0
SECTION
  2
BLOCKS
  0
BLOCK
  5
18
330
17
100
AcDbEntity
  8
0
100
AcDbBlockBegin
  2
*Model_Space
 70
0
 10
0.0
 20
0.0
 30
0.0
  3
*Model_Space
  1

  0
ENDBLK
  5
19
330
17
100
AcDbEntity
  8
0
100
AcDbBlockEnd
  0
BLOCK
  5
1C
330
1B
100
AcDbEntity
  8
0
100
AcDbBlockBegin
  2
*Paper_Space
 70
0
 10
0.0
 20
0.0
 30
0.0
  3
*Paper_Space
  1

  0
ENDBLK
  5
1D
330
1B
100
AcDbEntity
  8
0
100
AcDbBlockEnd
  0
ENDSEC
  0
SECTION
  2
ENTITIES
  0
LINE
  5
30
330
17
100
AcDbEntity
  8
podlaha
100
AcDbLine
 10
5349.0
 20
0.0
 30
0.0
 11
1.0
 21
0.0
 31
0.0
  0
LINE
  5
31
330
17
100
AcDbEntity
  8
podlaha
100
AcDbLine
 10
5349.0
 20
-150.0
 30
0.0
 11
5349.0
 21
0.0
 31
0.0
  0
LINE
  5
32
330
17
100
AcDbEntity
  8
podlaha
100
AcDbLine
 10
1.0
 20
-150.0
 30
0.0
 11
5349.0
 21
-150.0
 31
0.0
  0
LINE
  5
33
330
17
100
AcDbEntity
  8
podlaha
100
AcDbLine
 10
1.0
 20
0.0
 30
0.0
 11
1.0
 21
-150.0
 31
0.0
  0
LINE
  5
35
330
17
100
AcDbEntity
  8
eps
100
AcDbLine
 10
-266.0
 20
3200.0
 30
0.0
 11
-465.0
 21
3200.0
 31
0.0
  0
LINE
  5
36
330
17
100
AcDbEntity
  8
eps
100
AcDbLine
 10
-266.0
 20
2503.0
 30
0.0
 11
-266.0
 21
3200.0
 31
0.0
  0
LINE
  5
37
330
17
100
AcDbEntity
  8
eps
100
AcDbLine
 10
-465.0
 20
2503.0
 30
0.0
 11
-266.0
 21
2503.0
 31
0.0
  0
LINE
  5
38
330
17
100
AcDbEntity
  8
eps
100
AcDbLine
 10
-465.0
 20
3200.0
 30
0.0
 11
-465.0
 21
2503.0
 31
0.0
  0
LINE
  5
39
330
17
100
AcDbEntity
  8
eps
100
AcDbLine
 10
-266.0
 20
-1.0
 30
0.0
 11
-465.0
 21
-1.0
 31
0.0
  0
LINE
  5
3A
330
17
100
AcDbEntity
  8
eps
100
AcDbLine
 10
-266.0
 20
-150.0
 30
0.0
 11
-266.0
 21
-1.0
 31
0.0
  0
LINE
  5
3B
330
17
100
AcDbEntity
  8
eps
100
AcDbLine
 10
-465.0
 20
-150.0
 30
0.0
 11
-266.0
 21
-150.0
 31
0.0
  0
LINE
  5
3C
330
17
100
AcDbEntity
  8
eps
100
AcDbLine
 10
-465.0
 20
-1.0
 30
0.0
 11
-465.0
 21
-150.0
 31
0.0
  0
LINE
  5
3D
330
17
100
AcDbEntity
  8
eps
100
AcDbLine
 10
5815.0
 20
3200.0
 30
0.0
 11
5616.0
 21
3200.0
 31
0.0
  0
LINE
  5
3E
330
17
100
AcDbEntity
  8
eps
100
AcDbLine
 10
5815.0
 20
-150.0
 30
0.0
 11
5815.0
 21
3200.0
 31
0.0
  0
LINE
  5
3F
330
17
100
AcDbEntity
  8
eps
100
AcDbLine
 10
5616.0
 20
-150.0
 30
0.0
 11
5815.0
 21
-150.0
 31
0.0
  0
LINE
  5
40
330
17
100
AcDbEntity
  8
eps
100
AcDbLine
 10
5616.0
 20
3200.0
 30
0.0
 11
5616.0
 21
-150.0
 31
0.0
  0
LINE
  5
42
330
17
100
AcDbEntity
  8
zdivo
100
AcDbLine
 10
-16.0
 20
3200.0
 30
0.0
 11
-265.0
 21
3200.0
 31
0.0
  0
LINE
  5
43
330
17
100
AcDbEntity
  8
zdivo
100
AcDbLine
 10
-16.0
 20
2503.0
 30
0.0
 11
-16.0
 21
3200.0
 31
0.0
  0
LINE
  5
44
330
17
100
AcDbEntity
  8
zdivo
100
AcDbLine
 10
-265.0
 20
2503.0
 30
0.0
 11
-16.0
 21
2503.0
 31
0.0
  0
LINE
  5
45
330
17
100
AcDbEntity
  8
zdivo
100
AcDbLine
 10
-265.0
 20
3200.0
 30
0.0
 11
-265.0
 21
2503.0
 31
0.0
  0
LINE
  5
46
330
17
100
AcDbEntity
  8
zdivo
100
AcDbLine
 10
-16.0
 20
-1.0
 30
0.0
 11
-265.0
 21
-1.0
 31
0.0
  0
LINE
  5
47
330
17
100
AcDbEntity
  8
zdivo
100
AcDbLine
 10
-16.0
 20
-150.0
 30
0.0
 11
-16.0
 21
-1.0
 31
0.0
  0
LINE
  5
48
330
17
100
AcDbEntity
  8
zdivo
100
AcDbLine
 10
-265.0
 20
-150.0
 30
0.0
 11
-16.0
 21
-150.0
 31
0.0
  0
LINE
  5
49
330
17
100
AcDbEntity
  8
zdivo
100
AcDbLine
 10
-265.0
 20
-1.0
 30
0.0
 11
-265.0
 21
-150.0
 31
0.0
  0
LINE
  5
4A
330
17
100
AcDbEntity
  8
zdivo
100
AcDbLine
 10
5615.0
 20
3200.0
 30
0.0
 11
5366.0
 21
3200.0
 31
0.0
  0
LINE
  5
4B
330
17
100
AcDbEntity
  8
zdivo
100
AcDbLine
 10
5615.0
 20
-150.0
 30
0.0
 11
5615.0
 21
3200.0
 31
0.0
  0
LINE
  5
4C
330
17
100
AcDbEntity
  8
zdivo
100
AcDbLine
 10
5366.0
 20
-150.0
 30
0.0
 11
5615.0
 21
-150.0
 31
0.0
  0
LINE
  5
4D
330
17
100
AcDbEntity
  8
zdivo
100
AcDbLine
 10
5366.0
 20
3200.0
 30
0.0
 11
5366.0
 21
-150.0
 31
0.0
  0
LINE
  5
4F
330
17
100
AcDbEntity
  8
omitka
100
AcDbLine
 10
0.0
 20
3200.0
 30
0.0
 11
-15.0
 21
3200.0
 31
0.0
  0
LINE
  5
50
330
17
100
AcDbEntity
  8
omitka
100
AcDbLine
 10
0.0
 20
2503.0
 30
0.0
 11
0.0
 21
3200.0
 31
0.0
  0
LINE
  5
51
330
17
100
AcDbEntity
  8
omitka
100
AcDbLine
 10
-15.0
 20
2503.0
 30
0.0
 11
0.0
 21
2503.0
 31
0.0
  0
LINE
  5
52
330
17
100
AcDbEntity
  8
omitka
100
AcDbLine
 10
-15.0
 20
3200.0
 30
0.0
 11
-15.0
 21
2503.0
 31
0.0
  0
LINE
  5
53
330
17
100
AcDbEntity
  8
omitka
100
AcDbLine
 10
5365.0
 20
3200.0
 30
0.0
 11
5350.0
 21
3200.0
 31
0.0
  0
LINE
  5
54
330
17
100
AcDbEntity
  8
omitka
100
AcDbLine
 10
5365.0
 20
0.0
 30
0.0
 11
5365.0
 21
3200.0
 31
0.0
  0
LINE
  5
55
330
17
100
AcDbEntity
  8
omitka
100
AcDbLine
 10
5350.0
 20
0.0
 30
0.0
 11
5365.0
 21
0.0
 31
0.0
  0
LINE
  5
56
330
17
100
AcDbEntity
  8
omitka
100
AcDbLine
 10
5350.0
 20
3200.0
 30
0.0
 11
5350.0
 21
0.0
 31
0.0
  0
LINE
  5
58
330
17
100
AcDbEntity
  8
vata
100
AcDbLine
 10
1885.5798109497696
 20
4688.433431705927
 30
0.0
 11
2450.0000000000005
 21
5162.23159117085
 31
0.0
  0
LINE
  5
59
330
17
100
AcDbEntity
  8
vata
100
AcDbLine
 10
1835.8395567603566
 20
4747.711558332708
 30
0.0
 11
1885.579810949769
 21
4688.4334317059265
 31
0.0
  0
LINE
  5
5A
330
17
100
AcDbEntity
  8
vata
100
AcDbLine
 10
1820.5186678979771
 20
4734.855806138977
 30
0.0
 11
1835.8395567603566
 21
4747.711558332708
 31
0.0
  0
LINE
  5
5B
330
17
100
AcDbEntity
  8
vata
100
AcDbLine
 10
1870.261506470571
 20
4675.574599564255
 30
0.0
 11
1820.5186678979774
 21
4734.855806138977
 31
0.0
  0
LINE
  5
5C
330
17
100
AcDbEntity
  8
vata
100
AcDbLine
 10
1406.88279597482
 20
4286.59492727869
 30
0.0
 11
1870.261506470571
 21
4675.574599564256
 31
0.0
  0
LINE
  5
5D
330
17
100
AcDbEntity
  8
vata
100
AcDbLine
 10
1357.0617798109959
 20
4345.9693022786205
 30
0.0
 11
1406.88279597482
 21
4286.594927278689
 31
0.0
  0
LINE
  5
5E
330
17
100
AcDbEntity
  8
vata
100
AcDbLine
 10
1341.7408909486164
 20
4333.11355008489
 30
0.0
 11
1357.0617798109959
 21
4345.969302278621
 31
0.0
  0
LINE
  5
5F
330
17
100
AcDbEntity
  8
vata
100
AcDbLine
 10
1391.5644914956215
 20
4273.736095137017
 30
0.0
 11
1341.7408909486162
 21
4333.1135500848895
 31
0.0
  0
LINE
  5
60
330
17
100
AcDbEntity
  8
vata
100
AcDbLine
 10
928.1857809998709
 20
3884.756422851453
 30
0.0
 11
1391.5644914956215
 21
4273.736095137018
 31
0.0
  0
LINE
  5
61
330
17
100
AcDbEntity
  8
vata
100
AcDbLine
 10
878.2840028616347
 20
3944.227046224534
 30
0.0
 11
928.1857809998709
 21
3884.756422851452
 31
0.0
  0
LINE
  5
62
330
17
100
AcDbEntity
  8
vata
100
AcDbLine
 10
862.9631139992553
 20
3931.3712940308033
 30
0.0
 11
878.2840028616349
 21
3944.227046224534
 31
0.0
  0
LINE
  5
63
330
17
100
AcDbEntity
  8
vata
100
AcDbLine
 10
912.8674765206724
 20
3871.89759070978
 30
0.0
 11
862.963113999255
 21
3931.3712940308033
 31
0.0
  0
LINE
  5
64
330
17
100
AcDbEntity
  8
vata
100
AcDbLine
 10
449.48876602492135
 20
3482.917918424215
 30
0.0
 11
912.8674765206725
 21
3871.897590709781
 31
0.0
  0
LINE
  5
65
330
17
100
AcDbEntity
  8
vata
100
AcDbLine
 10
399.5062259122734
 20
3542.484790170447
 30
0.0
 11
449.48876602492146
 21
3482.9179184242143
 31
0.0
  0
LINE
  5
66
330
17
100
AcDbEntity
  8
vata
100
AcDbLine
 10
384.1853370498941
 20
3529.629037976716
 30
0.0
 11
399.5062259122735
 21
3542.484790170447
 31
0.0
  0
LINE
  5
67
330
17
100
AcDbEntity
  8
vata
100
AcDbLine
 10
434.1704615457228
 20
3470.059086282543
 30
0.0
 11
384.18533704989375
 21
3529.629037976716
 31
0.0
  0
LINE
  5
68
330
17
100
AcDbEntity
  8
vata
100
AcDbLine
 10
0.9999999999998863
 20
3106.437494786514
 30
0.0
 11
434.17046154572324
 21
3470.0590862825434
 31
0.0
  0
LINE
  5
69
330
17
100
AcDbEntity
  8
vata
100
AcDbLine
 10
1.0
 20
3208.8700779330957
 30
0.0
 11
1.0
 21
3106.4374947865135
 31
0.0
  0
LINE
  5
6A
330
17
100
AcDbEntity
  8
vata
100
AcDbLine
 10
2675.0000000000005
 20
5453.46159133232
 30
0.0
 11
1.0000000000002274
 21
3208.8700779330957
 31
0.0
  0
LINE
  5
6B
330
17
100
AcDbEntity
  8
vata
100
AcDbLine
 10
4994.324392189383
 20
3506.589546632208
 30
0.0
 11
2675.0000000000005
 21
5453.4615913323205
 31
0.0
  0
LINE
  5
6C
330
17
100
AcDbEntity
  8
vata
100
AcDbLine
 10
4984.0
 20
3506.589546632207
 30
0.0
 11
4994.324392189382
 21
3506.589546632207
 31
0.0
  0
LINE
  5
6D
330
17
100
AcDbEntity
  8
vata
100
AcDbLine
 10
4984.0
 20
2930.1979956913538
 30
0.0
 11
4984.0
 21
3506.589546632207
 31
0.0
  0
LINE
  5
6E
330
17
100
AcDbEntity
  8
vata
100
AcDbLine
 10
4964.0
 20
2930.1979956913538
 30
0.0
 11
4984.0
 21
2930.1979956913538
 31
0.0
  0
LINE
  5
6F
330
17
100
AcDbEntity
  8
vata
100
AcDbLine
 10
4964.0
 20
3052.735118391168
 30
0.0
 11
4964.0
 21
2930.1979956913538
 31
0.0
  0
LINE
  5
70
330
17
100
AcDbEntity
  8
vata
100
AcDbLine
 10
4491.8354025260915
 20
3448.928257986493
 30
0.0
 11
4964.0
 21
3052.7351183911674
 31
0.0
  0
LINE
  5
71
330
17
100
AcDbEntity
  8
vata
100
AcDbLine
 10
4727.409592230077
 20
3729.674644888687
 30
0.0
 11
4491.8354025260915
 21
3448.9282579864935
 31
0.0
  0
LINE
  5
72
330
17
100
AcDbEntity
  8
vata
100
AcDbLine
 10
4712.088703367697
 20
3742.5303970824184
 30
0.0
 11
4727.409592230077
 21
3729.6746448886875
 31
0.0
  0
LINE
  5
73
330
17
100
AcDbEntity
  8
vata
100
AcDbLine
 10
4476.514513663711
 20
3461.7840101802235
 30
0.0
 11
4712.088703367697
 21
3742.530397082418
 31
0.0
  0
LINE
  5
74
330
17
100
AcDbEntity
  8
vata
100
AcDbLine
 10
4013.05762557673
 20
3850.67051404058
 30
0.0
 11
4476.514513663712
 21
3461.784010180224
 31
0.0
  0
LINE
  5
75
330
17
100
AcDbEntity
  8
vata
100
AcDbLine
 10
4248.631815280714
 20
4131.416900942774
 30
0.0
 11
4013.057625576729
 21
3850.67051404058
 31
0.0
  0
LINE
  5
76
330
17
100
AcDbEntity
  8
vata
100
AcDbLine
 10
4233.310926418335
 20
4144.272653136505
 30
0.0
 11
4248.631815280714
 21
4131.416900942774
 31
0.0
  0
LINE
  5
77
330
17
100
AcDbEntity
  8
vata
100
AcDbLine
 10
3997.7367367143497
 20
3863.526266234311
 30
0.0
 11
4233.310926418335
 21
4144.272653136505
 31
0.0
  0
LINE
  5
78
330
17
100
AcDbEntity
  8
vata
100
AcDbLine
 10
3534.2798486273696
 20
4252.412770094667
 30
0.0
 11
3997.7367367143506
 21
3863.526266234311
 31
0.0
  0
LINE
  5
79
330
17
100
AcDbEntity
  8
vata
100
AcDbLine
 10
3755.5946347032386
 20
4516.165461494804
 30
0.0
 11
3534.2798486273687
 21
4252.4127700946665
 31
0.0
  0
LINE
  5
7A
330
17
100
AcDbEntity
  8
vata
100
AcDbLine
 10
3768.0054925698378
 20
4505.897402414132
 30
0.0
 11
3755.594634703239
 21
4516.165461494804
 31
0.0
  0
LINE
  5
7B
330
17
100
AcDbEntity
  8
vata
100
AcDbLine
 10
3769.291130406186
 20
4507.429565924374
 30
0.0
 11
3768.0054925698378
 21
4505.897402414132
 31
0.0
  0
LINE
  5
7C
330
17
100
AcDbEntity
  8
vata
100
AcDbLine
 10
3756.8802725395876
 20
4517.6976250050475
 30
0.0
 11
3769.2911304061863
 21
4507.429565924375
 31
0.0
  0
LINE
  5
7D
330
17
100
AcDbEntity
  8
vata
100
AcDbLine
 10
3769.854038331354
 20
4533.1591569968605
 30
0.0
 11
3756.8802725395867
 21
4517.697625005047
 31
0.0
  0
LINE
  5
7E
330
17
100
AcDbEntity
  8
vata
100
AcDbLine
 10
3754.5331494689744
 20
4546.014909190592
 30
0.0
 11
3769.854038331354
 21
4533.159156996861
 31
0.0
  0
LINE
  5
7F
330
17
100
AcDbEntity
  8
vata
100
AcDbLine
 10
3741.470188413504
 20
4530.447078422816
 30
0.0
 11
3754.5331494689744
 21
4546.014909190591
 31
0.0
  0
LINE
  5
80
330
17
100
AcDbEntity
  8
vata
100
AcDbLine
 10
3725.957855851485
 20
4543.281126555341
 30
0.0
 11
3741.4701884135043
 21
4530.447078422817
 31
0.0
  0
LINE
  5
81
330
17
100
AcDbEntity
  8
vata
100
AcDbLine
 10
3724.6722180151355
 20
4541.748963045097
 30
0.0
 11
3725.957855851484
 21
4543.281126555341
 31
0.0
  0
LINE
  5
82
330
17
100
AcDbEntity
  8
vata
100
AcDbLine
 10
3740.1845505771553
 20
4528.914914912573
 30
0.0
 11
3724.672218015136
 21
4541.748963045098
 31
0.0
  0
LINE
  5
83
330
17
100
AcDbEntity
  8
vata
100
AcDbLine
 10
3518.9589597649892
 20
4265.268522288397
 30
0.0
 11
3740.184550577155
 21
4528.914914912572
 31
0.0
  0
LINE
  5
84
330
17
100
AcDbEntity
  8
vata
100
AcDbLine
 10
3055.5020716780077
 20
4654.155026148755
 30
0.0
 11
3518.9589597649897
 21
4265.268522288397
 31
0.0
  0
LINE
  5
85
330
17
100
AcDbEntity
  8
vata
100
AcDbLine
 10
3291.0762613819916
 20
4934.901413050948
 30
0.0
 11
3055.502071678007
 21
4654.155026148754
 31
0.0
  0
LINE
  5
86
330
17
100
AcDbEntity
  8
vata
100
AcDbLine
 10
3275.755372519613
 20
4947.757165244679
 30
0.0
 11
3291.0762613819925
 21
4934.901413050948
 31
0.0
  0
LINE
  5
87
330
17
100
AcDbEntity
  8
vata
100
AcDbLine
 10
3040.181182815628
 20
4667.010778342485
 30
0.0
 11
3275.755372519613
 21
4947.757165244679
 31
0.0
  0
LINE
  5
88
330
17
100
AcDbEntity
  8
vata
100
AcDbLine
 10
2576.7242947286463
 20
5055.897282202842
 30
0.0
 11
3040.181182815628
 21
4667.0107783424855
 31
0.0
  0
LINE
  5
89
330
17
100
AcDbEntity
  8
vata
100
AcDbLine
 10
2636.9738020054265
 20
5127.699848951976
 30
0.0
 11
2576.7242947286454
 21
5055.897282202841
 31
0.0
  0
LINE
  5
8A
330
17
100
AcDbEntity
  8
vata
100
AcDbLine
 10
2621.6529131430475
 20
5140.555601145707
 30
0.0
 11
2636.973802005427
 21
5127.6998489519765
 31
0.0
  0
LINE
  5
8B
330
17
100
AcDbEntity
  8
vata
100
AcDbLine
 10
2561.403405866267
 20
5068.753034396573
 30
0.0
 11
2621.652913143047
 21
5140.5556011457065
 31
0.0
  0
LINE
  5
8C
330
17
100
AcDbEntity
  8
vata
100
AcDbLine
 10
2450.0
 20
5162.231591170849
 30
0.0
 11
2561.4034058662664
 21
5068.753034396573
 31
0.0
  0
LINE
  5
8D
330
17
100
AcDbEntity
  8
vata
100
AcDbLine
 10
1130.0657417531793
 20
4152.886195886938
 30
0.0
 11
1128.7801665338063
 21
4154.418284773176
 31
0.0
  0
LINE
  5
8E
330
17
100
AcDbEntity
  8
vata
100
AcDbLine
 10
1173.3997593867552
 20
4189.247754100702
 30
0.0
 11
1130.0657417531788
 21
4152.886195886938
 31
0.0
  0
LINE
  5
8F
330
17
100
AcDbEntity
  8
vata
100
AcDbLine
 10
1172.114184167383
 20
4190.779842986941
 30
0.0
 11
1173.3997593867562
 21
4189.247754100703
 31
0.0
  0
LINE
  5
90
330
17
100
AcDbEntity
  8
vata
100
AcDbLine
 10
1128.780166533812
 20
4154.418284773169
 30
0.0
 11
1172.114184167388
 21
4190.7798429869335
 31
0.0
  0
LINE
  5
91
330
17
100
AcDbEntity
  8
vata
100
AcDbLine
 10
1325.719346733999
 20
4315.753656375518
 30
0.0
 11
1327.004921953372
 21
4314.22156748928
 31
0.0
  0
LINE
  5
92
330
17
100
AcDbEntity
  8
vata
100
AcDbLine
 10
1282.385329100422
 20
4279.392098161754
 30
0.0
 11
1325.7193467339985
 21
4315.753656375518
 31
0.0
  0
LINE
  5
93
330
17
100
AcDbEntity
  8
vata
100
AcDbLine
 10
1283.6709043197957
 20
4277.860009275517
 30
0.0
 11
1282.3853291004225
 21
4279.392098161754
 31
0.0
  0
LINE
  5
94
330
17
100
AcDbEntity
  8
vata
100
AcDbLine
 10
1327.0049219533716
 20
4314.22156748928
 30
0.0
 11
1283.6709043197957
 21
4277.860009275517
 31
0.0
  0
LINE
  5
95
330
17
100
AcDbEntity
  8
vata
100
AcDbLine
 10
3576.2094189429854
 20
4669.264339299597
 30
0.0
 11
3619.5426934976867
 21
4633.41277866863
 31
0.0
  0
LINE
  5
96
330
17
100
AcDbEntity
  8
vata
100
AcDbLine
 10
3574.9237811066378
 20
4667.732175789353
 30
0.0
 11
3576.2094189429863
 21
4669.264339299597
 31
0.0
  0
LINE
  5
97
330
17
100
AcDbEntity
  8
vata
100
AcDbLine
 10
3618.257055661338
 20
4631.880615158388
 30
0.0
 11
3574.923781106637
 21
4667.732175789353
 31
0.0
  0
LINE
  5
98
330
17
100
AcDbEntity
  8
vata
100
AcDbLine
 10
3619.542693497687
 20
4633.412778668631
 30
0.0
 11
3618.257055661338
 21
4631.880615158387
 31
0.0
  0
LINE
  5
99
330
17
100
AcDbEntity
  8
vata
100
AcDbLine
 10
5335.0
 20
2929.1979956913538
 30
0.0
 11
5349.0
 21
2929.1979956913538
 31
0.0
  0
LINE
  5
9A
330
17
100
AcDbEntity
  8
vata
100
AcDbLine
 10
5335.0
 20
2930.1979956913538
 30
0.0
 11
5335.0
 21
2929.1979956913538
 31
0.0
  0
LINE
  5
9B
330
17
100
AcDbEntity
  8
vata
100
AcDbLine
 10
5308.0
 20
2930.1979956913538
 30
0.0
 11
5335.0
 21
2930.1979956913538
 31
0.0
  0
LINE
  5
9C
330
17
100
AcDbEntity
  8
vata
100
AcDbLine
 10
5308.0
 20
2929.1979956913538
 30
0.0
 11
5308.0
 21
2930.1979956913538
 31
0.0
  0
LINE
  5
9D
330
17
100
AcDbEntity
  8
vata
100
AcDbLine
 10
5024.0
 20
2929.1979956913538
 30
0.0
 11
5308.0
 21
2929.1979956913538
 31
0.0
  0
LINE
  5
9E
330
17
100
AcDbEntity
  8
vata
100
AcDbLine
 10
5024.0
 20
2930.1979956913538
 30
0.0
 11
5024.0
 21
2929.1979956913538
 31
0.0
  0
LINE
  5
9F
330
17
100
AcDbEntity
  8
vata
100
AcDbLine
 10
5004.0
 20
2930.1979956913538
 30
0.0
 11
5024.0
 21
2930.1979956913538
 31
0.0
  0
LINE
  5
A0
330
17
100
AcDbEntity
  8
vata
100
AcDbLine
 10
5004.0
 20
3498.4677114868473
 30
0.0
 11
5004.0
 21
2930.1979956913538
 31
0.0
  0
LINE
  5
A1
330
17
100
AcDbEntity
  8
vata
100
AcDbLine
 10
5349.000000000001
 20
3208.870077933096
 30
0.0
 11
5004.000000000001
 21
3498.4677114868477
 31
0.0
  0
LINE
  5
A2
330
17
100
AcDbEntity
  8
vata
100
AcDbLine
 10
5349.0
 20
2929.1979956913538
 30
0.0
 11
5349.0
 21
3208.8700779330957
 31
0.0
  0
LINE
  5
A4
330
17
100
AcDbEntity
  8
nabytek
100
AcDbLine
 10
5349.0
 20
2450.0
 30
0.0
 11
4900.0
 21
2450.0
 31
0.0
  0
LINE
  5
A5
330
17
100
AcDbEntity
  8
nabytek
100
AcDbLine
 10
5349.0
 20
0.0
 30
0.0
 11
5349.0
 21
2450.0
 31
0.0
  0
LINE
  5
A6
330
17
100
AcDbEntity
  8
nabytek
100
AcDbLine
 10
4900.0
 20
0.0
 30
0.0
 11
5349.0
 21
0.0
 31
0.0
  0
LINE
  5
A7
330
17
100
AcDbEntity
  8
nabytek
100
AcDbLine
 10
4900.0
 20
2450.0
 30
0.0
 11
4900.0
 21
0.0
 31
0.0
  0
LINE
  5
A9
330
17
100
AcDbEntity
  8
sdk
100
AcDbLine
 10
-2.2737367544323206e-13
 20
3054.8739068578884
 30
0.0
 11
2450.000000000001
 21
5110.668003242225
 31
0.0
  0
LINE
  5
AA
330
17
100
AcDbEntity
  8
sdk
100
AcDbLine
 10
2450.0
 20
5110.668003242225
 30
0.0
 11
4964.0
 21
3001.1715304625427
 31
0.0
  0
LINE
  5
AB
330
17
100
AcDbEntity
  8
sdk
100
AcDbLine
 10
4964.0
 20
3001.1715304625427
 30
0.0
 11
4955.965154878918
 21
3008.74708600153
 31
0.0
  0
LINE
  5
AC
330
17
100
AcDbEntity
  8
sdk
100
AcDbLine
 10
4955.965154878919
 20
3008.7470860015305
 30
0.0
 11
4900.000000000001
 21
3069.1914979745425
 31
0.0
  0
LINE
  5
AD
330
17
100
AcDbEntity
  8
sdk
100
AcDbLine
 10
4900.000000000001
 20
3069.1914979745425
 30
0.0
 11
2450.0
 21
5124.985594358879
 31
0.0
  0
LINE
  5
AE
330
17
100
AcDbEntity
  8
sdk
100
AcDbLine
 10
2450.0000000000005
 20
5124.985594358879
 30
0.0
 11
0.0
 21
3069.1914979745425
 31
0.0
  0
LINE
  5
AF
330
17
100
AcDbEntity
  8
sdk
100
AcDbLine
 10
0.0
 20
3069.191497974542
 30
0.0
 11
0.0
 21
3054.8739068578884
 31
0.0
  0
LINE
  5
B0
330
17
100
AcDbEntity
  8
sdk
100
AcDbLine
 10
4952.5
 20
2904.1979956913538
 30
0.0
 11
4963.0
 21
2904.1979956913538
 31
0.0
  0
LINE
  5
B1
330
17
100
AcDbEntity
  8
sdk
100
AcDbLine
 10
4952.5
 20
3009.6602758522586
 30
0.0
 11
4952.5
 21
2904.1979956913538
 31
0.0
  0
LINE
  5
B2
330
17
100
AcDbEntity
  8
sdk
100
AcDbLine
 10
4963.0
 20
2999.1715304625427
 30
0.0
 11
4952.5
 21
3009.6602758522586
 31
0.0
  0
LINE
  5
B3
330
17
100
AcDbEntity
  8
sdk
100
AcDbLine
 10
4963.0
 20
2904.1979956913538
 30
0.0
 11
4963.0
 21
2999.1715304625427
 31
0.0
  0
LINE
  5
B4
330
17
100
AcDbEntity
  8
sdk
100
AcDbLine
 10
4952.5
 20
2891.6979956913538
 30
0.0
 11
5349.0
 21
2891.6979956913538
 31
0.0
  0
LINE
  5
B5
330
17
100
AcDbEntity
  8
sdk
100
AcDbLine
 10
4952.5
 20
2902.1979956913538
 30
0.0
 11
4952.5
 21
2891.6979956913538
 31
0.0
  0
LINE
  5
B6
330
17
100
AcDbEntity
  8
sdk
100
AcDbLine
 10
5349.0
 20
2902.1979956913538
 30
0.0
 11
4952.5
 21
2902.1979956913538
 31
0.0
  0
LINE
  5
B7
330
17
100
AcDbEntity
  8
sdk
100
AcDbLine
 10
5349.0
 20
2891.6979956913538
 30
0.0
 11
5349.0
 21
2902.1979956913538
 31
0.0
  0
LINE
  5
B9
330
17
100
AcDbEntity
  8
pozednice
100
AcDbLine
 10
-15.0
 20
3300.0
 30
0.0
 11
-155.0
 21
3300.0
 31
0.0
  0
LINE
  5
BA
330
17
100
AcDbEntity
  8
pozednice
100
AcDbLine
 10
-15.0
 20
3201.0
 30
0.0
 11
-15.0
 21
3300.0
 31
0.0
  0
LINE
  5
BB
330
17
100
AcDbEntity
  8
pozednice
100
AcDbLine
 10
-155.0
 20
3201.0
 30
0.0
 11
-15.0
 21
3201.0
 31
0.0
  0
LINE
  5
BC
330
17
100
AcDbEntity
  8
pozednice
100
AcDbLine
 10
-155.0
 20
3300.0
 30
0.0
 11
-155.0
 21
3201.0
 31
0.0
  0
LINE
  5
BD
330
17
100
AcDbEntity
  8
pozednice
100
AcDbLine
 10
5505.0
 20
3300.0
 30
0.0
 11
5365.0
 21
3300.0
 31
0.0
  0
LINE
  5
BE
330
17
100
AcDbEntity
  8
pozednice
100
AcDbLine
 10
5505.0
 20
3201.0
 30
0.0
 11
5505.0
 21
3300.0
 31
0.0
  0
LINE
  5
BF
330
17
100
AcDbEntity
  8
pozednice
100
AcDbLine
 10
5365.0
 20
3201.0
 30
0.0
 11
5505.0
 21
3201.0
 31
0.0
  0
LINE
  5
C0
330
17
100
AcDbEntity
  8
pozednice
100
AcDbLine
 10
5365.0
 20
3300.0
 30
0.0
 11
5365.0
 21
3201.0
 31
0.0
  0
LINE
  5
C2
330
17
100
AcDbEntity
  8
krov
100
AcDbLine
 10
-265.0
 20
2988.5086756711166
 30
0.0
 11
-265.0
 21
3195.373841964282
 31
0.0
  0
LINE
  5
C3
330
17
100
AcDbEntity
  8
krov
100
AcDbLine
 10
-265.9999999999999
 20
2987.6695760399393
 30
0.0
 11
-264.99999999999943
 21
2988.508675671117
 31
0.0
  0
LINE
  5
C4
330
17
100
AcDbEntity
  8
krov
100
AcDbLine
 10
-266.0
 20
3194.5347423331045
 30
0.0
 11
-266.0
 21
2987.6695760399393
 31
0.0
  0
LINE
  5
C5
330
17
100
AcDbEntity
  8
krov
100
AcDbLine
 10
-264.99999999999955
 20
3195.373841964282
 30
0.0
 11
-266.0
 21
3194.534742333104
 31
0.0
  0
LINE
  5
C6
330
17
100
AcDbEntity
  8
krov
100
AcDbLine
 10
-465.0
 20
2820.6887494356606
 30
0.0
 11
-465.0
 21
3027.553915728826
 31
0.0
  0
LINE
  5
C7
330
17
100
AcDbEntity
  8
krov
100
AcDbLine
 10
-745.0
 20
2585.7408527060225
 30
0.0
 11
-464.9999999999992
 21
2820.6887494356615
 31
0.0
  0
LINE
  5
C8
330
17
100
AcDbEntity
  8
krov
100
AcDbLine
 10
-745.0
 20
2792.6060189991867
 30
0.0
 11
-745.0
 21
2585.740852706022
 31
0.0
  0
LINE
  5
C9
330
17
100
AcDbEntity
  8
krov
100
AcDbLine
 10
-464.9999999999998
 20
3027.553915728826
 30
0.0
 11
-745.0000000000001
 21
2792.606018999187
 31
0.0
  0
LINE
  5
CA
330
17
100
AcDbEntity
  8
krov
100
AcDbLine
 10
6095.000000000001
 20
2792.6060189991863
 30
0.0
 11
5815.000000000001
 21
3027.553915728825
 31
0.0
  0
LINE
  5
CB
330
17
100
AcDbEntity
  8
krov
100
AcDbLine
 10
6095.0
 20
2585.740852706022
 30
0.0
 11
6095.0
 21
2792.6060189991867
 31
0.0
  0
LINE
  5
CC
330
17
100
AcDbEntity
  8
krov
100
AcDbLine
 10
5815.0
 20
2820.6887494356615
 30
0.0
 11
6095.000000000001
 21
2585.7408527060225
 31
0.0
  0
LINE
  5
CD
330
17
100
AcDbEntity
  8
krov
100
AcDbLine
 10
5815.0
 20
3027.553915728825
 30
0.0
 11
5815.0
 21
2820.6887494356606
 31
0.0
  0
LINE
  5
CE
330
17
100
AcDbEntity
  8
krov
100
AcDbLine
 10
-155.0
 20
3201.0
 30
0.0
 11
-155.0
 21
3287.674801393782
 31
0.0
  0
LINE
  5
CF
330
17
100
AcDbEntity
  8
krov
100
AcDbLine
 10
-15.0
 20
3201.0
 30
0.0
 11
-155.0
 21
3201.0
 31
0.0
  0
LINE
  5
D0
330
17
100
AcDbEntity
  8
krov
100
AcDbLine
 10
-15.0
 20
3300.0
 30
0.0
 11
-15.0
 21
3201.0
 31
0.0
  0
LINE
  5
D1
330
17
100
AcDbEntity
  8
krov
100
AcDbLine
 10
-140.3114002816024
 20
3300.0
 30
0.0
 11
-15.0
 21
3300.0
 31
0.0
  0
LINE
  5
D2
330
17
100
AcDbEntity
  8
krov
100
AcDbLine
 10
2675.0000000000005
 20
5662.326757625485
 30
0.0
 11
-140.31140028160257
 21
3300.0
 31
0.0
  0
LINE
  5
D3
330
17
100
AcDbEntity
  8
krov
100
AcDbLine
 10
5490.311400281604
 20
3299.999999999999
 30
0.0
 11
2675.0
 21
5662.326757625485
 31
0.0
  0
LINE
  5
D4
330
17
100
AcDbEntity
  8
krov
100
AcDbLine
 10
5365.0
 20
3300.0
 30
0.0
 11
5490.311400281603
 21
3300.0
 31
0.0
  0
LINE
  5
D5
330
17
100
AcDbEntity
  8
krov
100
AcDbLine
 10
5365.0
 20
3201.0
 30
0.0
 11
5365.0
 21
3300.0
 31
0.0
  0
LINE
  5
D6
330
17
100
AcDbEntity
  8
krov
100
AcDbLine
 10
5505.0
 20
3201.0
 30
0.0
 11
5365.0
 21
3201.0
 31
0.0
  0
LINE
  5
D7
330
17
100
AcDbEntity
  8
krov
100
AcDbLine
 10
5505.0
 20
3287.6748013937813
 30
0.0
 11
5505.0
 21
3201.0
 31
0.0
  0
LINE
  5
D8
330
17
100
AcDbEntity
  8
krov
100
AcDbLine
 10
5609.486759541024
 20
3200.0
 30
0.0
 11
5505.000000000001
 21
3287.6748013937813
 31
0.0
  0
LINE
  5
D9
330
17
100
AcDbEntity
  8
krov
100
AcDbLine
 10
5366.0
 20
3200.0
 30
0.0
 11
5609.486759541023
 21
3200.0
 31
0.0
  0
LINE
  5
DA
330
17
100
AcDbEntity
  8
krov
100
AcDbLine
 10
5366.0
 20
3197.444483834259
 30
0.0
 11
5366.0
 21
3200.0
 31
0.0
  0
LINE
  5
DB
330
17
100
AcDbEntity
  8
krov
100
AcDbLine
 10
5365.0
 20
3198.2835834654375
 30
0.0
 11
5366.000000000001
 21
3197.4444838342597
 31
0.0
  0
LINE
  5
DC
330
17
100
AcDbEntity
  8
krov
100
AcDbLine
 10
5365.0
 20
3200.0
 30
0.0
 11
5365.0
 21
3198.283583465436
 31
0.0
  0
LINE
  5
DD
330
17
100
AcDbEntity
  8
krov
100
AcDbLine
 10
5362.954454428545
 20
3200.0
 30
0.0
 11
5365.0
 21
3200.0
 31
0.0
  0
LINE
  5
DE
330
17
100
AcDbEntity
  8
krov
100
AcDbLine
 10
2675.0
 20
5455.4615913323205
 30
0.0
 11
5362.954454428546
 21
3200.000000000001
 31
0.0
  0
LINE
  5
DF
330
17
100
AcDbEntity
  8
krov
100
AcDbLine
 10
-12.954454428546342
 20
3199.9999999999995
 30
0.0
 11
2675.000000000001
 21
5455.46159133232
 31
0.0
  0
LINE
  5
E0
330
17
100
AcDbEntity
  8
krov
100
AcDbLine
 10
-15.0
 20
3200.0
 30
0.0
 11
-12.954454428545887
 21
3200.0
 31
0.0
  0
LINE
  5
E1
330
17
100
AcDbEntity
  8
krov
100
AcDbLine
 10
-15.0
 20
3198.2835834654365
 30
0.0
 11
-15.0
 21
3200.0
 31
0.0
  0
LINE
  5
E2
330
17
100
AcDbEntity
  8
krov
100
AcDbLine
 10
-15.999999999999773
 20
3197.4444838342597
 30
0.0
 11
-14.999999999999318
 21
3198.283583465437
 31
0.0
  0
LINE
  5
E3
330
17
100
AcDbEntity
  8
krov
100
AcDbLine
 10
-16.0
 20
3200.0
 30
0.0
 11
-16.0
 21
3197.4444838342592
 31
0.0
  0
LINE
  5
E4
330
17
100
AcDbEntity
  8
krov
100
AcDbLine
 10
-259.4867595410236
 20
3200.0
 30
0.0
 11
-16.0
 21
3200.0
 31
0.0
  0
LINE
  5
E5
330
17
100
AcDbEntity
  8
krov
100
AcDbLine
 10
-154.99999999999977
 20
3287.674801393782
 30
0.0
 11
-259.4867595410236
 21
3200.0
 31
0.0
  0
LINE
  5
E6
330
17
100
AcDbEntity
  8
krov
100
AcDbLine
 10
5616.000000000001
 20
3194.534742333103
 30
0.0
 11
5615.000000000001
 21
3195.373841964281
 31
0.0
  0
LINE
  5
E7
330
17
100
AcDbEntity
  8
krov
100
AcDbLine
 10
5616.0
 20
2987.669576039939
 30
0.0
 11
5616.0
 21
3194.5347423331036
 31
0.0
  0
LINE
  5
E8
330
17
100
AcDbEntity
  8
krov
100
AcDbLine
 10
5615.0
 20
2988.5086756711175
 30
0.0
 11
5616.000000000001
 21
2987.66957603994
 31
0.0
  0
LINE
  5
E9
330
17
100
AcDbEntity
  8
krov
100
AcDbLine
 10
5615.0
 20
3195.373841964281
 30
0.0
 11
5615.0
 21
2988.508675671116
 31
0.0
  0
LINE
  5
EB
330
17
100
AcDbEntity
  8
cd
100
AcDbLine
 10
436.357147204601
 20
3436.3386192554926
 30
0.0
 11
482.31981379173976
 21
3474.9058758366846
 31
0.0
  0
LINE
  5
EC
330
17
100
AcDbEntity
  8
cd
100
AcDbLine
 10
419.00188174306436
 20
3457.021819219705
 30
0.0
 11
436.3571472046009
 21
3436.3386192554926
 31
0.0
  0
LINE
  5
ED
330
17
100
AcDbEntity
  8
cd
100
AcDbLine
 10
464.9645483302031
 20
3495.589075800897
 30
0.0
 11
419.00188174306436
 21
3457.021819219705
 31
0.0
  0
LINE
  5
EE
330
17
100
AcDbEntity
  8
cd
100
AcDbLine
 10
482.3198137917393
 20
3474.9058758366846
 30
0.0
 11
464.96454833020255
 21
3495.589075800897
 31
0.0
  0
LINE
  5
EF
330
17
100
AcDbEntity
  8
cd
100
AcDbLine
 10
915.1349241539621
 20
3838.08087530958
 30
0.0
 11
961.0975907411008
 21
3876.6481318907718
 31
0.0
  0
LINE
  5
F0
330
17
100
AcDbEntity
  8
cd
100
AcDbLine
 10
897.7796586924258
 20
3858.7640752737925
 30
0.0
 11
915.1349241539622
 21
3838.0808753095807
 31
0.0
  0
LINE
  5
F1
330
17
100
AcDbEntity
  8
cd
100
AcDbLine
 10
943.7423252795638
 20
3897.331331854984
 30
0.0
 11
897.7796586924251
 21
3858.764075273792
 31
0.0
  0
LINE
  5
F2
330
17
100
AcDbEntity
  8
cd
100
AcDbLine
 10
961.0975907411009
 20
3876.648131890772
 30
0.0
 11
943.7423252795644
 21
3897.3313318549845
 31
0.0
  0
LINE
  5
F3
330
17
100
AcDbEntity
  8
cd
100
AcDbLine
 10
1393.9127011033233
 20
4239.823131363667
 30
0.0
 11
1439.875367690462
 21
4278.39038794486
 31
0.0
  0
LINE
  5
F4
330
17
100
AcDbEntity
  8
cd
100
AcDbLine
 10
1376.5574356417865
 20
4260.50633132788
 30
0.0
 11
1393.9127011033233
 21
4239.823131363667
 31
0.0
  0
LINE
  5
F5
330
17
100
AcDbEntity
  8
cd
100
AcDbLine
 10
1422.5201022289257
 20
4299.073587909073
 30
0.0
 11
1376.557435641787
 21
4260.50633132788
 31
0.0
  0
LINE
  5
F6
330
17
100
AcDbEntity
  8
cd
100
AcDbLine
 10
1439.875367690462
 20
4278.39038794486
 30
0.0
 11
1422.5201022289257
 21
4299.073587909073
 31
0.0
  0
LINE
  5
F7
330
17
100
AcDbEntity
  8
cd
100
AcDbLine
 10
1872.6904780526847
 20
4641.565387417753
 30
0.0
 11
1918.6531446398235
 21
4680.132643998946
 31
0.0
  0
LINE
  5
F8
330
17
100
AcDbEntity
  8
cd
100
AcDbLine
 10
1855.335212591148
 20
4662.248587381966
 30
0.0
 11
1872.6904780526847
 21
4641.565387417753
 31
0.0
  0
LINE
  5
F9
330
17
100
AcDbEntity
  8
cd
100
AcDbLine
 10
1901.2978791782868
 20
4700.815843963159
 30
0.0
 11
1855.335212591148
 21
4662.248587381966
 31
0.0
  0
LINE
  5
FA
330
17
100
AcDbEntity
  8
cd
100
AcDbLine
 10
1918.6531446398235
 20
4680.132643998946
 30
0.0
 11
1901.2978791782866
 21
4700.815843963159
 31
0.0
  0
LINE
  5
FB
330
17
100
AcDbEntity
  8
cd
100
AcDbLine
 10
2528.234847665845
 20
5060.338762537259
 30
0.0
 11
2574.197514252983
 21
5021.771505956066
 31
0.0
  0
LINE
  5
FC
330
17
100
AcDbEntity
  8
cd
100
AcDbLine
 10
2545.5901131273813
 20
5081.021962501471
 30
0.0
 11
2528.2348476658444
 21
5060.338762537258
 31
0.0
  0
LINE
  5
FD
330
17
100
AcDbEntity
  8
cd
100
AcDbLine
 10
2591.552779714519
 20
5042.454705920278
 30
0.0
 11
2545.5901131273813
 21
5081.021962501471
 31
0.0
  0
LINE
  5
FE
330
17
100
AcDbEntity
  8
cd
100
AcDbLine
 10
2574.197514252983
 20
5021.771505956065
 30
0.0
 11
2591.552779714519
 21
5042.454705920278
 31
0.0
  0
LINE
  5
FF
330
17
100
AcDbEntity
  8
cd
100
AcDbLine
 10
3007.012624615206
 20
4658.596506483171
 30
0.0
 11
3052.975291202344
 21
4620.029249901978
 31
0.0
  0
LINE
  5
100
330
17
100
AcDbEntity
  8
cd
100
AcDbLine
 10
3024.3678900767427
 20
4679.279706447383
 30
0.0
 11
3007.0126246152067
 21
4658.596506483171
 31
0.0
  0
LINE
  5
101
330
17
100
AcDbEntity
  8
cd
100
AcDbLine
 10
3070.33055666388
 20
4640.712449866191
 30
0.0
 11
3024.367890076742
 21
4679.279706447383
 31
0.0
  0
LINE
  5
102
330
17
100
AcDbEntity
  8
cd
100
AcDbLine
 10
3052.975291202344
 20
4620.029249901978
 30
0.0
 11
3070.3305566638805
 21
4640.712449866191
 31
0.0
  0
LINE
  5
103
330
17
100
AcDbEntity
  8
cd
100
AcDbLine
 10
3485.7904015645677
 20
4256.8542504290845
 30
0.0
 11
3531.753068151706
 21
4218.286993847892
 31
0.0
  0
LINE
  5
104
330
17
100
AcDbEntity
  8
cd
100
AcDbLine
 10
3503.145667026104
 20
4277.537450393296
 30
0.0
 11
3485.7904015645677
 21
4256.854250429084
 31
0.0
  0
LINE
  5
105
330
17
100
AcDbEntity
  8
cd
100
AcDbLine
 10
3549.1083336132424
 20
4238.970193812104
 30
0.0
 11
3503.145667026104
 21
4277.537450393297
 31
0.0
  0
LINE
  5
106
330
17
100
AcDbEntity
  8
cd
100
AcDbLine
 10
3531.7530681517055
 20
4218.286993847891
 30
0.0
 11
3549.1083336132424
 21
4238.970193812103
 31
0.0
  0
LINE
  5
107
330
17
100
AcDbEntity
  8
cd
100
AcDbLine
 10
3964.568178513928
 20
3855.1119943749954
 30
0.0
 11
4010.5308451010665
 21
3816.5447377938035
 31
0.0
  0
LINE
  5
108
330
17
100
AcDbEntity
  8
cd
100
AcDbLine
 10
3981.9234439754646
 20
3875.7951943392077
 30
0.0
 11
3964.5681785139277
 21
3855.1119943749954
 31
0.0
  0
LINE
  5
109
330
17
100
AcDbEntity
  8
cd
100
AcDbLine
 10
4027.886110562603
 20
3837.2279377580157
 30
0.0
 11
3981.9234439754646
 21
3875.7951943392077
 31
0.0
  0
LINE
  5
10A
330
17
100
AcDbEntity
  8
cd
100
AcDbLine
 10
4010.530845101067
 20
3816.5447377938035
 30
0.0
 11
4027.8861105626033
 21
3837.227937758016
 31
0.0
  0
LINE
  5
10B
330
17
100
AcDbEntity
  8
cd
100
AcDbLine
 10
4443.34595546329
 20
3453.3697383209083
 30
0.0
 11
4489.308622050428
 21
3414.8024817397163
 31
0.0
  0
LINE
  5
10C
330
17
100
AcDbEntity
  8
cd
100
AcDbLine
 10
4460.701220924827
 20
3474.052938285121
 30
0.0
 11
4443.34595546329
 21
3453.369738320909
 31
0.0
  0
LINE
  5
10D
330
17
100
AcDbEntity
  8
cd
100
AcDbLine
 10
4506.663887511965
 20
3435.485681703929
 30
0.0
 11
4460.701220924827
 21
3474.052938285121
 31
0.0
  0
LINE
  5
10E
330
17
100
AcDbEntity
  8
cd
100
AcDbLine
 10
4489.308622050428
 20
3414.8024817397168
 30
0.0
 11
4506.663887511966
 21
3435.485681703929
 31
0.0
  0
LINE
  5
10F
330
17
100
AcDbEntity
  8
cd
100
AcDbLine
 10
4964.0
 20
2903.1979956913538
 30
0.0
 11
5024.0
 21
2903.1979956913538
 31
0.0
  0
LINE
  5
110
330
17
100
AcDbEntity
  8
cd
100
AcDbLine
 10
4964.0
 20
2930.1979956913538
 30
0.0
 11
4964.0
 21
2903.1979956913538
 31
0.0
  0
LINE
  5
111
330
17
100
AcDbEntity
  8
cd
100
AcDbLine
 10
5024.0
 20
2930.1979956913538
 30
0.0
 11
4964.0
 21
2930.1979956913538
 31
0.0
  0
LINE
  5
112
330
17
100
AcDbEntity
  8
cd
100
AcDbLine
 10
5024.0
 20
2903.1979956913538
 30
0.0
 11
5024.0
 21
2930.1979956913538
 31
0.0
  0
LINE
  5
113
330
17
100
AcDbEntity
  8
cd
100
AcDbLine
 10
5308.0
 20
2903.1979956913538
 30
0.0
 11
5335.0
 21
2903.1979956913538
 31
0.0
  0
LINE
  5
114
330
17
100
AcDbEntity
  8
cd
100
AcDbLine
 10
5308.0
 20
2930.1979956913538
 30
0.0
 11
5308.0
 21
2903.1979956913538
 31
0.0
  0
LINE
  5
115
330
17
100
AcDbEntity
  8
cd
100
AcDbLine
 10
5335.0
 20
2930.1979956913538
 30
0.0
 11
5308.0
 21
2930.1979956913538
 31
0.0
  0
LINE
  5
116
330
17
100
AcDbEntity
  8
cd
100
AcDbLine
 10
5335.0
 20
2903.1979956913538
 30
0.0
 11
5335.0
 21
2930.1979956913538
 31
0.0
  0
LINE
  5
118
330
17
100
AcDbEntity
  8
zaves
100
AcDbLine
 10
434.3227706054439
 20
3469.8775714134354
 30
0.0
 11
449.64365946782334
 21
3482.7333236071663
 31
0.0
  0
LINE
  5
119
330
17
100
AcDbEntity
  8
zaves
100
AcDbLine
 10
384.18533704989375
 20
3529.629037976716
 30
0.0
 11
434.3227706054438
 21
3469.877571413436
 31
0.0
  0
LINE
  5
11A
330
17
100
AcDbEntity
  8
zaves
100
AcDbLine
 10
399.5062259122735
 20
3542.484790170447
 30
0.0
 11
384.1853370498941
 21
3529.629037976716
 31
0.0
  0
LINE
  5
11B
330
17
100
AcDbEntity
  8
zaves
100
AcDbLine
 10
449.64365946782345
 20
3482.7333236071668
 30
0.0
 11
399.5062259122734
 21
3542.484790170447
 31
0.0
  0
LINE
  5
11C
330
17
100
AcDbEntity
  8
zaves
100
AcDbLine
 10
913.1005475548048
 20
3871.6198274675235
 30
0.0
 11
928.4214364171845
 21
3884.4755796612544
 31
0.0
  0
LINE
  5
11D
330
17
100
AcDbEntity
  8
zaves
100
AcDbLine
 10
862.963113999255
 20
3931.3712940308033
 30
0.0
 11
913.1005475548051
 21
3871.619827467523
 31
0.0
  0
LINE
  5
11E
330
17
100
AcDbEntity
  8
zaves
100
AcDbLine
 10
878.2840028616349
 20
3944.227046224534
 30
0.0
 11
862.9631139992553
 21
3931.3712940308033
 31
0.0
  0
LINE
  5
11F
330
17
100
AcDbEntity
  8
zaves
100
AcDbLine
 10
928.4214364171847
 20
3884.475579661254
 30
0.0
 11
878.2840028616347
 21
3944.227046224534
 31
0.0
  0
LINE
  5
120
330
17
100
AcDbEntity
  8
zaves
100
AcDbLine
 10
1391.8783245041664
 20
4273.36208352161
 30
0.0
 11
1407.1992133665458
 21
4286.217835715341
 31
0.0
  0
LINE
  5
121
330
17
100
AcDbEntity
  8
zaves
100
AcDbLine
 10
1341.7408909486162
 20
4333.1135500848895
 30
0.0
 11
1391.878324504166
 21
4273.36208352161
 31
0.0
  0
LINE
  5
122
330
17
100
AcDbEntity
  8
zaves
100
AcDbLine
 10
1357.0617798109959
 20
4345.969302278621
 30
0.0
 11
1341.7408909486164
 21
4333.11355008489
 31
0.0
  0
LINE
  5
123
330
17
100
AcDbEntity
  8
zaves
100
AcDbLine
 10
1407.1992133665458
 20
4286.217835715341
 30
0.0
 11
1357.0617798109959
 21
4345.9693022786205
 31
0.0
  0
LINE
  5
124
330
17
100
AcDbEntity
  8
zaves
100
AcDbLine
 10
1870.6561014535275
 20
4675.104339575696
 30
0.0
 11
1885.976990315907
 21
4687.960091769427
 31
0.0
  0
LINE
  5
125
330
17
100
AcDbEntity
  8
zaves
100
AcDbLine
 10
1820.5186678979774
 20
4734.855806138977
 30
0.0
 11
1870.6561014535278
 21
4675.104339575697
 31
0.0
  0
LINE
  5
126
330
17
100
AcDbEntity
  8
zaves
100
AcDbLine
 10
1835.8395567603566
 20
4747.711558332708
 30
0.0
 11
1820.5186678979771
 21
4734.855806138977
 31
0.0
  0
LINE
  5
127
330
17
100
AcDbEntity
  8
zaves
100
AcDbLine
 10
1885.9769903159072
 20
4687.960091769428
 30
0.0
 11
1835.8395567603566
 21
4747.711558332708
 31
0.0
  0
LINE
  5
128
330
17
100
AcDbEntity
  8
zaves
100
AcDbLine
 10
2560.9110019897607
 20
5068.16621030774
 30
0.0
 11
2576.23189085214
 21
5055.310458114009
 31
0.0
  0
LINE
  5
129
330
17
100
AcDbEntity
  8
zaves
100
AcDbLine
 10
2621.652913143047
 20
5140.5556011457065
 30
0.0
 11
2560.9110019897603
 21
5068.166210307739
 31
0.0
  0
LINE
  5
12A
330
17
100
AcDbEntity
  8
zaves
100
AcDbLine
 10
2636.973802005427
 20
5127.6998489519765
 30
0.0
 11
2621.6529131430475
 21
5140.555601145707
 31
0.0
  0
LINE
  5
12B
330
17
100
AcDbEntity
  8
zaves
100
AcDbLine
 10
2576.2318908521393
 20
5055.310458114008
 30
0.0
 11
2636.9738020054265
 21
5127.699848951976
 31
0.0
  0
LINE
  5
12C
330
17
100
AcDbEntity
  8
zaves
100
AcDbLine
 10
3039.688778939122
 20
4666.423954253652
 30
0.0
 11
3055.009667801501
 21
4653.568202059921
 31
0.0
  0
LINE
  5
12D
330
17
100
AcDbEntity
  8
zaves
100
AcDbLine
 10
3275.755372519613
 20
4947.757165244679
 30
0.0
 11
3039.688778939122
 21
4666.423954253652
 31
0.0
  0
LINE
  5
12E
330
17
100
AcDbEntity
  8
zaves
100
AcDbLine
 10
3291.0762613819925
 20
4934.901413050948
 30
0.0
 11
3275.755372519613
 21
4947.757165244679
 31
0.0
  0
LINE
  5
12F
330
17
100
AcDbEntity
  8
zaves
100
AcDbLine
 10
3055.009667801501
 20
4653.568202059921
 30
0.0
 11
3291.0762613819916
 21
4934.901413050948
 31
0.0
  0
LINE
  5
130
330
17
100
AcDbEntity
  8
zaves
100
AcDbLine
 10
3518.466555888483
 20
4264.681698199564
 30
0.0
 11
3533.7874447508625
 21
4251.825946005833
 31
0.0
  0
LINE
  5
131
330
17
100
AcDbEntity
  8
zaves
100
AcDbLine
 10
3754.5331494689744
 20
4546.014909190591
 30
0.0
 11
3518.4665558884835
 21
4264.681698199564
 31
0.0
  0
LINE
  5
132
330
17
100
AcDbEntity
  8
zaves
100
AcDbLine
 10
3769.854038331354
 20
4533.159156996861
 30
0.0
 11
3754.5331494689744
 21
4546.014909190592
 31
0.0
  0
LINE
  5
133
330
17
100
AcDbEntity
  8
zaves
100
AcDbLine
 10
3533.787444750863
 20
4251.825946005833
 30
0.0
 11
3769.854038331354
 21
4533.1591569968605
 31
0.0
  0
LINE
  5
134
330
17
100
AcDbEntity
  8
zaves
100
AcDbLine
 10
3997.2443328378445
 20
3862.939442145478
 30
0.0
 11
4012.565221700224
 21
3850.083689951747
 31
0.0
  0
LINE
  5
135
330
17
100
AcDbEntity
  8
zaves
100
AcDbLine
 10
4233.310926418335
 20
4144.272653136505
 30
0.0
 11
3997.244332837844
 21
3862.939442145477
 31
0.0
  0
LINE
  5
136
330
17
100
AcDbEntity
  8
zaves
100
AcDbLine
 10
4248.631815280714
 20
4131.416900942774
 30
0.0
 11
4233.310926418335
 21
4144.272653136505
 31
0.0
  0
LINE
  5
137
330
17
100
AcDbEntity
  8
zaves
100
AcDbLine
 10
4012.5652217002234
 20
3850.083689951747
 30
0.0
 11
4248.631815280714
 21
4131.416900942774
 31
0.0
  0
LINE
  5
138
330
17
100
AcDbEntity
  8
zaves
100
AcDbLine
 10
4476.022109787206
 20
3461.197186091391
 30
0.0
 11
4491.342998649586
 21
3448.34143389766
 31
0.0
  0
LINE
  5
139
330
17
100
AcDbEntity
  8
zaves
100
AcDbLine
 10
4712.088703367697
 20
3742.530397082418
 30
0.0
 11
4476.022109787206
 21
3461.197186091391
 31
0.0
  0
LINE
  5
13A
330
17
100
AcDbEntity
  8
zaves
100
AcDbLine
 10
4727.409592230077
 20
3729.6746448886875
 30
0.0
 11
4712.088703367697
 21
3742.5303970824184
 31
0.0
  0
LINE
  5
13B
330
17
100
AcDbEntity
  8
zaves
100
AcDbLine
 10
4491.342998649586
 20
3448.34143389766
 30
0.0
 11
4727.409592230077
 21
3729.674644888687
 31
0.0
  0
LINE
  5
13C
330
17
100
AcDbEntity
  8
zaves
100
AcDbLine
 10
4997.575260777783
 20
3506.589546632207
 30
0.0
 11
4984.0
 21
3506.589546632207
 31
0.0
  0
LINE
  5
13D
330
17
100
AcDbEntity
  8
zaves
100
AcDbLine
 10
5004.0
 20
3501.1985503204355
 30
0.0
 11
4997.575260777783
 21
3506.5895466322077
 31
0.0
  0
LINE
  5
13E
330
17
100
AcDbEntity
  8
zaves
100
AcDbLine
 10
5004.0
 20
2930.1979956913538
 30
0.0
 11
5004.0
 21
3501.198550320435
 31
0.0
  0
LINE
  5
13F
330
17
100
AcDbEntity
  8
zaves
100
AcDbLine
 10
4984.0
 20
2930.1979956913538
 30
0.0
 11
5004.0
 21
2930.1979956913538
 31
0.0
  0
LINE
  5
140
330
17
100
AcDbEntity
  8
zaves
100
AcDbLine
 10
4984.0
 20
3506.589546632207
 30
0.0
 11
4984.0
 21
2930.1979956913538
 31
0.0
  0
LINE
  5
142
330
17
100
AcDbEntity
  8
paska
100
AcDbLine
 10
1172.1141841673823
 20
4190.77984298694
 30
0.0
 11
1128.7801665338059
 21
4154.418284773176
 31
0.0
  0
LINE
  5
143
330
17
100
AcDbEntity
  8
paska
100
AcDbLine
 10
1173.3997593867562
 20
4189.247754100703
 30
0.0
 11
1172.114184167383
 21
4190.779842986941
 31
0.0
  0
LINE
  5
144
330
17
100
AcDbEntity
  8
paska
100
AcDbLine
 10
1130.0657417531788
 20
4152.886195886938
 30
0.0
 11
1173.3997593867552
 21
4189.247754100702
 31
0.0
  0
LINE
  5
145
330
17
100
AcDbEntity
  8
paska
100
AcDbLine
 10
1128.7801665338063
 20
4154.418284773176
 30
0.0
 11
1130.0657417531793
 21
4152.886195886938
 31
0.0
  0
LINE
  5
146
330
17
100
AcDbEntity
  8
paska
100
AcDbLine
 10
1283.6709043197957
 20
4277.860009275517
 30
0.0
 11
1327.0049219533716
 21
4314.22156748928
 31
0.0
  0
LINE
  5
147
330
17
100
AcDbEntity
  8
paska
100
AcDbLine
 10
1282.3853291004225
 20
4279.392098161754
 30
0.0
 11
1283.6709043197957
 21
4277.860009275517
 31
0.0
  0
LINE
  5
148
330
17
100
AcDbEntity
  8
paska
100
AcDbLine
 10
1325.7193467339985
 20
4315.753656375518
 30
0.0
 11
1282.385329100422
 21
4279.392098161754
 31
0.0
  0
LINE
  5
149
330
17
100
AcDbEntity
  8
paska
100
AcDbLine
 10
1327.004921953372
 20
4314.22156748928
 30
0.0
 11
1325.719346733999
 21
4315.753656375518
 31
0.0
  0
LINE
  5
14A
330
17
100
AcDbEntity
  8
paska
100
AcDbLine
 10
3619.5426934976867
 20
4633.41277866863
 30
0.0
 11
3576.2094189429854
 21
4669.264339299597
 31
0.0
  0
LINE
  5
14B
330
17
100
AcDbEntity
  8
paska
100
AcDbLine
 10
3618.257055661338
 20
4631.880615158387
 30
0.0
 11
3619.542693497687
 21
4633.412778668631
 31
0.0
  0
LINE
  5
14C
330
17
100
AcDbEntity
  8
paska
100
AcDbLine
 10
3574.923781106637
 20
4667.732175789353
 30
0.0
 11
3618.257055661338
 21
4631.880615158388
 31
0.0
  0
LINE
  5
14D
330
17
100
AcDbEntity
  8
paska
100
AcDbLine
 10
3576.2094189429863
 20
4669.264339299597
 30
0.0
 11
3574.9237811066378
 21
4667.732175789353
 31
0.0
  0
LINE
  5
14E
330
17
100
AcDbEntity
  8
paska
100
AcDbLine
 10
3724.672218015136
 20
4541.748963045098
 30
0.0
 11
3740.1845505771553
 21
4528.914914912573
 31
0.0
  0
LINE
  5
14F
330
17
100
AcDbEntity
  8
paska
100
AcDbLine
 10
3725.957855851484
 20
4543.281126555341
 30
0.0
 11
3724.6722180151355
 21
4541.748963045097
 31
0.0
  0
LINE
  5
150
330
17
100
AcDbEntity
  8
paska
100
AcDbLine
 10
3741.4701884135043
 20
4530.447078422817
 30
0.0
 11
3725.957855851485
 21
4543.281126555341
 31
0.0
  0
LINE
  5
151
330
17
100
AcDbEntity
  8
paska
100
AcDbLine
 10
3740.184550577155
 20
4528.914914912572
 30
0.0
 11
3741.470188413504
 21
4530.447078422816
 31
0.0
  0
LINE
  5
152
330
17
100
AcDbEntity
  8
paska
100
AcDbLine
 10
3755.594634703239
 20
4516.165461494804
 30
0.0
 11
3768.0054925698378
 21
4505.897402414132
 31
0.0
  0
LINE
  5
153
330
17
100
AcDbEntity
  8
paska
100
AcDbLine
 10
3756.8802725395867
 20
4517.697625005047
 30
0.0
 11
3755.5946347032386
 21
4516.165461494804
 31
0.0
  0
LINE
  5
154
330
17
100
AcDbEntity
  8
paska
100
AcDbLine
 10
3769.2911304061863
 20
4507.429565924375
 30
0.0
 11
3756.8802725395876
 21
4517.6976250050475
 31
0.0
  0
LINE
  5
155
330
17
100
AcDbEntity
  8
paska
100
AcDbLine
 10
3768.0054925698378
 20
4505.897402414132
 30
0.0
 11
3769.291130406186
 21
4507.429565924374
 31
0.0
  0
LINE
  5
157
330
17
100
AcDbEntity
  8
NaturHeld Flex 50
100
AcDbLine
 10
0.0
 20
3052.8739068578884
 30
0.0
 11
0.0
 21
2975.2440622086197
 31
0.0
  0
LINE
  5
158
330
17
100
AcDbEntity
  8
NaturHeld Flex 50
100
AcDbLine
 10
2450.0000000000005
 20
5108.668003242225
 30
0.0
 11
-1.1368683772161603e-13
 21
3052.873906857889
 31
0.0
  0
LINE
  5
159
330
17
100
AcDbEntity
  8
NaturHeld Flex 50
100
AcDbLine
 10
4900.000000000001
 20
3052.873906857889
 30
0.0
 11
2450.0
 21
5108.6680032422255
 31
0.0
  0
LINE
  5
15A
330
17
100
AcDbEntity
  8
NaturHeld Flex 50
100
AcDbLine
 10
4900.0
 20
2975.2440622086197
 30
0.0
 11
4900.0
 21
3052.8739068578884
 31
0.0
  0
LINE
  5
15B
330
17
100
AcDbEntity
  8
NaturHeld Flex 50
100
AcDbLine
 10
2450.0
 20
5031.038158592955
 30
0.0
 11
4900.0
 21
2975.244062208619
 31
0.0
  0
LINE
  5
15C
330
17
100
AcDbEntity
  8
NaturHeld Flex 50
100
AcDbLine
 10
0.0
 20
2975.2440622086197
 30
0.0
 11
2450.0
 21
5031.038158592955
 31
0.0
  0
LINE
  5
15D
330
17
100
AcDbEntity
  8
NaturHeld Flex 50
100
AcDbLine
 10
4901.0
 20
2891.6979956913538
 30
0.0
 11
4950.5
 21
2891.6979956913538
 31
0.0
  0
LINE
  5
15E
330
17
100
AcDbEntity
  8
NaturHeld Flex 50
100
AcDbLine
 10
4901.0
 20
3052.8739068578884
 30
0.0
 11
4901.0
 21
2891.6979956913538
 31
0.0
  0
LINE
  5
15F
330
17
100
AcDbEntity
  8
NaturHeld Flex 50
100
AcDbLine
 10
4950.5
 20
3009.6602758522586
 30
0.0
 11
4901.0
 21
3052.873906857889
 31
0.0
  0
LINE
  5
160
330
17
100
AcDbEntity
  8
NaturHeld Flex 50
100
AcDbLine
 10
4950.5
 20
2891.6979956913538
 30
0.0
 11
4950.5
 21
3009.6602758522586
 31
0.0
  0
LINE
  5
161
330
17
100
AcDbEntity
  8
NaturHeld Flex 50
100
AcDbLine
 10
4965.0
 20
2535.0
 30
0.0
 11
5349.0
 21
2535.0
 31
0.0
  0
LINE
  5
162
330
17
100
AcDbEntity
  8
NaturHeld Flex 50
100
AcDbLine
 10
4965.0
 20
2889.6979956913538
 30
0.0
 11
4965.0
 21
2535.0
 31
0.0
  0
LINE
  5
163
330
17
100
AcDbEntity
  8
NaturHeld Flex 50
100
AcDbLine
 10
5349.0
 20
2889.6979956913538
 30
0.0
 11
4965.0
 21
2889.6979956913538
 31
0.0
  0
LINE
  5
164
330
17
100
AcDbEntity
  8
NaturHeld Flex 50
100
AcDbLine
 10
5349.0
 20
2535.0
 30
0.0
 11
5349.0
 21
2889.6979956913538
 31
0.0
  0
LINE
  5
166
330
17
100
AcDbEntity
  8
sklo
100
AcDbLine
 10
-130.0
 20
2500.0
 30
0.0
 11
-150.0
 21
2500.0
 31
0.0
  0
LINE
  5
167
330
17
100
AcDbEntity
  8
sklo
100
AcDbLine
 10
-130.0
 20
1.0
 30
0.0
 11
-130.0
 21
2500.0
 31
0.0
  0
LINE
  5
168
330
17
100
AcDbEntity
  8
sklo
100
AcDbLine
 10
-150.0
 20
1.0
 30
0.0
 11
-130.0
 21
1.0
 31
0.0
  0
LINE
  5
169
330
17
100
AcDbEntity
  8
sklo
100
AcDbLine
 10
-150.0
 20
2500.0
 30
0.0
 11
-150.0
 21
1.0
 31
0.0
  0
LINE
  5
16B
330
17
100
AcDbEntity
  8
NaturHeld 140
100
AcDbLine
 10
-1.1368683772161603e-13
 20
2891.697995691354
 30
0.0
 11
2450.0
 21
4947.49209207569
 31
0.0
  0
LINE
  5
16C
330
17
100
AcDbEntity
  8
NaturHeld 140
100
AcDbLine
 10
0.0
 20
2973.2440622086197
 30
0.0
 11
0.0
 21
2891.6979956913538
 31
0.0
  0
LINE
  5
16D
330
17
100
AcDbEntity
  8
NaturHeld 140
100
AcDbLine
 10
2450.0000000000005
 20
5029.038158592956
 30
0.0
 11
2.8421709430404007e-13
 21
2973.24406220862
 31
0.0
  0
LINE
  5
16E
330
17
100
AcDbEntity
  8
NaturHeld 140
100
AcDbLine
 10
4900.000000000001
 20
2973.2440622086206
 30
0.0
 11
2450.0000000000005
 21
5029.038158592956
 31
0.0
  0
LINE
  5
16F
330
17
100
AcDbEntity
  8
NaturHeld 140
100
AcDbLine
 10
4900.0
 20
2891.6979956913538
 30
0.0
 11
4900.0
 21
2973.2440622086197
 31
0.0
  0
LINE
  5
170
330
17
100
AcDbEntity
  8
NaturHeld 140
100
AcDbLine
 10
2450.0000000000005
 20
4947.49209207569
 30
0.0
 11
4900.0
 21
2891.6979956913538
 31
0.0
  0
LINE
  5
171
330
17
100
AcDbEntity
  8
NaturHeld 140
100
AcDbLine
 10
4901.0
 20
2471.0
 30
0.0
 11
5349.0
 21
2471.0
 31
0.0
  0
LINE
  5
172
330
17
100
AcDbEntity
  8
NaturHeld 140
100
AcDbLine
 10
4901.0
 20
2889.6979956913538
 30
0.0
 11
4901.0
 21
2471.0
 31
0.0
  0
LINE
  5
173
330
17
100
AcDbEntity
  8
NaturHeld 140
100
AcDbLine
 10
4963.0
 20
2889.6979956913538
 30
0.0
 11
4901.0
 21
2889.6979956913538
 31
0.0
  0
LINE
  5
174
330
17
100
AcDbEntity
  8
NaturHeld 140
100
AcDbLine
 10
4963.0
 20
2533.0
 30
0.0
 11
4963.0
 21
2889.6979956913538
 31
0.0
  0
LINE
  5
175
330
17
100
AcDbEntity
  8
NaturHeld 140
100
AcDbLine
 10
5349.0
 20
2533.0
 30
0.0
 11
4963.0
 21
2533.0
 31
0.0
  0
LINE
  5
176
330
17
100
AcDbEntity
  8
NaturHeld 140
100
AcDbLine
 10
5349.0
 20
2471.0
 30
0.0
 11
5349.0
 21
2533.0
 31
0.0
  0
LINE
  5
178
330
17
100
AcDbEntity
  8
krytina
100
AcDbLine
 10
-142.69490746679094
 20
3300.0000000000005
 30
0.0
 11
2675.0000000000005
 21
5664.326757625486
 31
0.0
  0
LINE
  5
179
330
17
100
AcDbEntity
  8
krytina
100
AcDbLine
 10
-155.0
 20
3300.0
 30
0.0
 11
-142.69490746679082
 21
3300.0
 31
0.0
  0
LINE
  5
17A
330
17
100
AcDbEntity
  8
krytina
100
AcDbLine
 10
-155.0
 20
3289.674801393782
 30
0.0
 11
-155.0
 21
3300.0
 31
0.0
  0
LINE
  5
17B
330
17
100
AcDbEntity
  8
krytina
100
AcDbLine
 10
-261.8702667262121
 20
3200.0
 30
0.0
 11
-155.0
 21
3289.674801393782
 31
0.0
  0
LINE
  5
17C
330
17
100
AcDbEntity
  8
krytina
100
AcDbLine
 10
-265.0
 20
3200.0
 30
0.0
 11
-261.87026672621204
 21
3200.0
 31
0.0
  0
LINE
  5
17D
330
17
100
AcDbEntity
  8
krytina
100
AcDbLine
 10
-265.0
 20
3197.3738419642814
 30
0.0
 11
-265.0
 21
3200.0
 31
0.0
  0
LINE
  5
17E
330
17
100
AcDbEntity
  8
krytina
100
AcDbLine
 10
-265.99999999999943
 20
3196.534742333105
 30
0.0
 11
-264.9999999999998
 21
3197.373841964282
 31
0.0
  0
LINE
  5
17F
330
17
100
AcDbEntity
  8
krytina
100
AcDbLine
 10
-266.0
 20
3200.0
 30
0.0
 11
-266.0
 21
3196.534742333104
 31
0.0
  0
LINE
  5
180
330
17
100
AcDbEntity
  8
krytina
100
AcDbLine
 10
-465.0
 20
3200.0
 30
0.0
 11
-266.0
 21
3200.0
 31
0.0
  0
LINE
  5
181
330
17
100
AcDbEntity
  8
krytina
100
AcDbLine
 10
-465.0
 20
3029.553915728825
 30
0.0
 11
-465.0
 21
3200.0
 31
0.0
  0
LINE
  5
182
330
17
100
AcDbEntity
  8
krytina
100
AcDbLine
 10
-745.0000000000001
 20
2794.606018999187
 30
0.0
 11
-464.9999999999998
 21
3029.553915728826
 31
0.0
  0
LINE
  5
183
330
17
100
AcDbEntity
  8
krytina
100
AcDbLine
 10
-745.0
 20
2980.2792613737024
 30
0.0
 11
-745.0
 21
2794.6060189991867
 31
0.0
  0
LINE
  5
184
330
17
100
AcDbEntity
  8
krytina
100
AcDbLine
 10
2675.0000000000005
 20
5850.0
 30
0.0
 11
-745.0000000000001
 21
2980.2792613737024
 31
0.0
  0
LINE
  5
185
330
17
100
AcDbEntity
  8
krytina
100
AcDbLine
 10
6095.0
 20
2980.279261373703
 30
0.0
 11
2675.0
 21
5850.000000000001
 31
0.0
  0
LINE
  5
186
330
17
100
AcDbEntity
  8
krytina
100
AcDbLine
 10
6095.0
 20
2794.6060189991867
 30
0.0
 11
6095.0
 21
2980.2792613737024
 31
0.0
  0
LINE
  5
187
330
17
100
AcDbEntity
  8
krytina
100
AcDbLine
 10
5815.000000000001
 20
3029.5539157288254
 30
0.0
 11
6095.000000000001
 21
2794.606018999187
 31
0.0
  0
LINE
  5
188
330
17
100
AcDbEntity
  8
krytina
100
AcDbLine
 10
5815.0
 20
3200.0
 30
0.0
 11
5815.0
 21
3029.553915728825
 31
0.0
  0
LINE
  5
189
330
17
100
AcDbEntity
  8
krytina
100
AcDbLine
 10
5616.0
 20
3200.0
 30
0.0
 11
5815.0
 21
3200.0
 31
0.0
  0
LINE
  5
18A
330
17
100
AcDbEntity
  8
krytina
100
AcDbLine
 10
5616.0
 20
3196.534742333103
 30
0.0
 11
5616.0
 21
3200.0
 31
0.0
  0
LINE
  5
18B
330
17
100
AcDbEntity
  8
krytina
100
AcDbLine
 10
5615.000000000001
 20
3197.3738419642814
 30
0.0
 11
5616.000000000001
 21
3196.534742333104
 31
0.0
  0
LINE
  5
18C
330
17
100
AcDbEntity
  8
krytina
100
AcDbLine
 10
5615.0
 20
3200.0
 30
0.0
 11
5615.0
 21
3197.3738419642805
 31
0.0
  0
LINE
  5
18D
330
17
100
AcDbEntity
  8
krytina
100
AcDbLine
 10
5611.8702667262105
 20
3200.0
 30
0.0
 11
5615.0
 21
3200.0
 31
0.0
  0
LINE
  5
18E
330
17
100
AcDbEntity
  8
krytina
100
AcDbLine
 10
5505.000000000001
 20
3289.674801393782
 30
0.0
 11
5611.870266726213
 21
3200.0
 31
0.0
  0
LINE
  5
18F
330
17
100
AcDbEntity
  8
krytina
100
AcDbLine
 10
5505.0
 20
3300.0
 30
0.0
 11
5505.0
 21
3289.6748013937813
 31
0.0
  0
LINE
  5
190
330
17
100
AcDbEntity
  8
krytina
100
AcDbLine
 10
5492.69490746679
 20
3300.0
 30
0.0
 11
5505.0
 21
3300.0
 31
0.0
  0
LINE
  5
191
330
17
100
AcDbEntity
  8
krytina
100
AcDbLine
 10
2675.000000000001
 20
5664.326757625485
 30
0.0
 11
5492.694907466792
 21
3300.0
 31
0.0
  0
ENDSEC
  0
SECTION
  2
OBJECTS
  0
DICTIONARY
  5
A
330
0
100
AcDbDictionary
281
1
  3
ACAD_COLOR
350
B
  3
ACAD_GROUP
350
C
  3
ACAD_LAYOUT
350
D
  3
ACAD_MATERIAL
350
E
  3
ACAD_MLEADERSTYLE
350
F
  3
ACAD_MLINESTYLE
350
10
  3
ACAD_PLOTSETTINGS
350
11
  3
ACAD_PLOTSTYLENAME
350
12
  3
ACAD_SCALELIST
350
14
  3
ACAD_TABLESTYLE
350
15
  3
ACAD_VISUALSTYLE
350
16
  3
EZDXF_META
350
2D
  0
DICTIONARY
  5
B
330
A
100
AcDbDictionary
281
1
  0
DICTIONARY
  5
C
330
A
100
AcDbDictionary
281
1
  0
DICTIONARY
  5
D
330
A
100
AcDbDictionary
281
1
  3
Model
350
1A
  3
Layout1
350
1E
  0
DICTIONARY
  5
E
330
A
100
AcDbDictionary
281
1
  3
ByBlock
350
1F
  3
ByLayer
350
20
  3
Global
350
21
  0
DICTIONARY
  5
F
330
A
100
AcDbDictionary
281
1
  3
Standard
350
2C
  0
DICTIONARY
  5
10
330
A
100
AcDbDictionary
281
1
  3
Standard
350
22
  0
DICTIONARY
  5
11
330
A
100
AcDbDictionary
281
1
  0
ACDBDICTIONARYWDFLT
  5
12
330
A
100
AcDbDictionary
281
1
  3
Normal
350
13
100
AcDbDictionaryWithDefault
340
13
  0
ACDBPLACEHOLDER
  5
13
330
12
  0
DICTIONARY
  5
14
330
A
100
AcDbDictionary
281
1
  0
DICTIONARY
  5
15
330
A
100
AcDbDictionary
281
1
  0
DICTIONARY
  5
16
330
A
100
AcDbDictionary
281
1
  0
LAYOUT
  5
1A
330
D
100
AcDbPlotSettings
  1

  4
A3
  6

 40
7.5
 41
20.0
 42
7.5
 43
20.0
 44
420.0
 45
297.0
 46
0.0
 47
0.0
 48
0.0
 49
0.0
140
0.0
141
0.0
142
1.0
143
1.0
 70
1024
 72
1
 73
0
 74
5
  7

 75
16
 76
0
 77
2
 78
300
147
1.0
148
0.0
149
0.0
100
AcDbLayout
  1
Model
 70
1
 71
0
 10
0.0
 20
0.0
 11
420.0
 21
297.0
 12
0.0
 22
0.0
 32
0.0
 14
1e+20
 24
1e+20
 34
1e+20
 15
-1e+20
 25
-1e+20
 35
-1e+20
146
0.0
 13
0.0
 23
0.0
 33
0.0
 16
1.0
 26
0.0
 36
0.0
 17
0.0
 27
1.0
 37
0.0
 76
1
330
17
  0
LAYOUT
  5
1E
330
D
100
AcDbPlotSettings
  1

  4
A3
  6

 40
7.5
 41
20.0
 42
7.5
 43
20.0
 44
420.0
 45
297.0
 46
0.0
 47
0.0
 48
0.0
 49
0.0
140
0.0
141
0.0
142
1.0
143
1.0
 70
0
 72
1
 73
0
 74
5
  7

 75
16
 76
0
 77
2
 78
300
147
1.0
148
0.0
149
0.0
100
AcDbLayout
  1
Layout1
 70
1
 71
1
 10
0.0
 20
0.0
 11
420.0
 21
297.0
 12
0.0
 22
0.0
 32
0.0
 14
1e+20
 24
1e+20
 34
1e+20
 15
-1e+20
 25
-1e+20
 35
-1e+20
146
0.0
 13
0.0
 23
0.0
 33
0.0
 16
1.0
 26
0.0
 36
0.0
 17
0.0
 27
1.0
 37
0.0
 76
1
330
1B
  0
MATERIAL
  5
1F
102
{ACAD_REACTORS
330
E
102
}
330
E
100
AcDbMaterial
  1
ByBlock
  2

 70
0
 40
1.0
 71
1
 41
1.0
 91
-1023410177
 42
1.0
 72
1
  3

 73
1
 74
1
 75
1
 44
0.5
 73
0
 45
1.0
 46
1.0
 77
1
  4

 78
1
 79
1
170
1
 48
1.0
171
1
  6

172
1
173
1
174
1
140
1.0
141
1.0
175
1
  7

176
1
177
1
178
1
143
1.0
179
1
  8

270
1
271
1
272
1
145
1.0
146
1.0
273
1
  9

274
1
275
1
276
1
 42
1.0
 72
1
  3

 73
1
 74
1
 75
1
 94
63
  0
MATERIAL
  5
20
102
{ACAD_REACTORS
330
E
102
}
330
E
100
AcDbMaterial
  1
ByLayer
  2

 70
0
 40
1.0
 71
1
 41
1.0
 91
-1023410177
 42
1.0
 72
1
  3

 73
1
 74
1
 75
1
 44
0.5
 73
0
 45
1.0
 46
1.0
 77
1
  4

 78
1
 79
1
170
1
 48
1.0
171
1
  6

172
1
173
1
174
1
140
1.0
141
1.0
175
1
  7

176
1
177
1
178
1
143
1.0
179
1
  8

270
1
271
1
272
1
145
1.0
146
1.0
273
1
  9

274
1
275
1
276
1
 42
1.0
 72
1
  3

 73
1
 74
1
 75
1
 94
63
  0
MATERIAL
  5
21
102
{ACAD_REACTORS
330
E
102
}
330
E
100
AcDbMaterial
  1
Global
  2

 70
0
 40
1.0
 71
1
 41
1.0
 91
-1023410177
 42
1.0
 72
1
  3

 73
1
 74
1
 75
1
 44
0.5
 73
0
 45
1.0
 46
1.0
 77
1
  4

 78
1
 79
1
170
1
 48
1.0
171
1
  6

172
1
173
1
174
1
140
1.0
141
1.0
175
1
  7

176
1
177
1
178
1
143
1.0
179
1
  8

270
1
271
1
272
1
145
1.0
146
1.0
273
1
  9

274
1
275
1
276
1
 42
1.0
 72
1
  3

 73
1
 74
1
 75
1
 94
63
  0
MLINESTYLE
  5
22
102
{ACAD_REACTORS
330
10
102
}
330
10
100
AcDbMlineStyle
  2
Standard
 70
0
  3

 62
256
 51
90.0
 52
90.0
 71
2
 49
0.5
 62
256
  6
BYLAYER
 49
-0.5
 62
256
  6
BYLAYER
  0
MLEADERSTYLE
  5
2C
102
{ACAD_REACTORS
330
F
102
}
330
F
100
AcDbMLeaderStyle
179
2
170
2
171
1
172
0
 90
2
 40
0.0
 41
0.0
173
1
 91
-1056964608
 92
-2
290
1
 42
2.0
291
1
 43
8.0
  3
Standard
 44
4.0
300

342
29
174
1
175
1
176
0
178
1
 93
-1056964608
 45
4.0
292
0
297
0
 46
4.0
 94
-1056964608
 47
1.0
 49
1.0
140
1.0
294
1
141
0.0
177
0
142
1.0
295
0
296
0
143
3.75
271
0
272
9
273
9
  0
DICTIONARY
  5
2D
330
A
100
AcDbDictionary
280
1
281
1
  3
CREATED_BY_EZDXF
350
2E
  3
WRITTEN_BY_EZDXF
350
195
  0
DICTIONARYVAR
  5
2E
330
2D
100
DictionaryVariables
280
0
  1
1.4.4 @ 2026-09-20T13:00:41.927293+00:00
  0
DICTIONARYVAR
  5
195
330
2D
100
DictionaryVariables
280
0
  1
1.4.4 @ 2026-09-20T13:00:41.949745+00:00
  0
ENDSEC
  0
EOF
