<svg xmlns="http://www.w3.org/2000/svg" width="1360" height="760" viewBox="0 0 1360 760">
<rect width="100%" height="100%" fill="#f7f5f1"/>
<style>text{font-family:system-ui,sans-serif;fill:#222}</style>
<text x="64" y="34" font-size="15" font-weight="600">Absorption area (m²)</text>
<rect x="64" y="48" width="440" height="280" fill="#fff" stroke="#ddd"/>
<line x1="134.4" y1="48" x2="134.4" y2="328" stroke="#eee"/>
<text x="134.4" y="344" font-size="10" text-anchor="middle">31.5</text>
<line x1="185.0" y1="48" x2="185.0" y2="328" stroke="#eee"/>
<text x="185.0" y="344" font-size="10" text-anchor="middle">63</text>
<line x1="234.9" y1="48" x2="234.9" y2="328" stroke="#eee"/>
<text x="234.9" y="344" font-size="10" text-anchor="middle">125</text>
<line x1="285.5" y1="48" x2="285.5" y2="328" stroke="#eee"/>
<text x="285.5" y="344" font-size="10" text-anchor="middle">250</text>
<line x1="336.0" y1="48" x2="336.0" y2="328" stroke="#eee"/>
<text x="336.0" y="344" font-size="10" text-anchor="middle">500</text>
<line x1="386.6" y1="48" x2="386.6" y2="328" stroke="#eee"/>
<text x="386.6" y="344" font-size="10" text-anchor="middle">1000</text>
<line x1="437.2" y1="48" x2="437.2" y2="328" stroke="#eee"/>
<text x="437.2" y="344" font-size="10" text-anchor="middle">2000</text>
<line x1="487.7" y1="48" x2="487.7" y2="328" stroke="#eee"/>
<text x="487.7" y="344" font-size="10" text-anchor="middle">4000</text>
<line x1="82.4" y1="48" x2="82.4" y2="328" stroke="#c4b8a5" stroke-dasharray="3 3"/>
<text x="85.4" y="62.0" font-size="10" fill="#7a6a52">Y1</text>
<line x1="134.3" y1="48" x2="134.3" y2="328" stroke="#c4b8a5" stroke-dasharray="3 3"/>
<text x="137.3" y="75.0" font-size="10" fill="#7a6a52">Y2 X1</text>
<line x1="162.6" y1="48" x2="162.6" y2="328" stroke="#c4b8a5" stroke-dasharray="3 3"/>
<text x="165.6" y="88.0" font-size="10" fill="#7a6a52">Y3</text>
<path d="M134.4,325.3 L151.8,316.5 L168.1,309.1 L185.0,320.9 L202.4,325.6 L218.7,326.9 L234.9,327.4 L252.9,327.7 L269.2,327.8 L285.5,327.9 L302.3,327.9 L319.8,328.0 L336.0,328.0 L352.9,328.0 L370.3,328.0 L386.6,328.0 L402.9,328.0 L420.9,328.0 L437.2,328.0 L453.4,328.0 L470.3,328.0 L487.7,328.0" fill="none" stroke="#1f4e79" stroke-width="2.0"/>
<line x1="516" y1="58" x2="532" y2="58" stroke="#1f4e79" stroke-width="2.0"/>
<text x="538" y="62" font-size="11" fill="#1f4e79">kitchen trap</text>
<path d="M134.4,296.0 L151.8,307.4 L168.1,316.6 L185.0,321.8 L202.4,324.7 L218.7,326.1 L234.9,326.9 L252.9,327.4 L269.2,327.7 L285.5,327.8 L302.3,327.9 L319.8,327.9 L336.0,328.0 L352.9,328.0 L370.3,328.0 L386.6,328.0 L402.9,328.0 L420.9,328.0 L437.2,328.0 L453.4,328.0 L470.3,328.0 L487.7,328.0" fill="none" stroke="#2e7d4f" stroke-width="2.0"/>
<line x1="516" y1="76" x2="532" y2="76" stroke="#2e7d4f" stroke-width="2.0"/>
<text x="538" y="80" font-size="11" fill="#2e7d4f">living trap</text>
<path d="M134.4,303.5 L151.8,292.4 L168.1,278.8 L185.0,260.9 L202.4,238.5 L218.7,214.8 L234.9,189.4 L252.9,161.4 L269.2,137.7 L285.5,117.0 L302.3,99.6 L319.8,86.4 L336.0,78.4 L352.9,74.0 L370.3,72.6 L386.6,72.2 L402.9,70.6 L420.9,66.7 L437.2,63.9 L453.4,63.5 L470.3,62.3 L487.7,61.3" fill="none" stroke="#b36b00" stroke-width="2.0"/>
<line x1="516" y1="94" x2="532" y2="94" stroke="#b36b00" stroke-width="2.0"/>
<text x="538" y="98" font-size="11" fill="#b36b00">slopes</text>
<path d="M134.4,308.7 L151.8,306.6 L168.1,304.7 L185.0,302.7 L202.4,300.8 L218.7,299.0 L234.9,297.3 L252.9,295.4 L269.2,293.8 L285.5,292.3 L302.3,291.2 L319.8,290.7 L336.0,289.2 L352.9,287.9 L370.3,287.2 L386.6,286.3 L402.9,285.8 L420.9,285.4 L437.2,285.2 L453.4,284.9 L470.3,284.7 L487.7,284.6" fill="none" stroke="#6b3fa0" stroke-width="2.0"/>
<line x1="516" y1="112" x2="532" y2="112" stroke="#6b3fa0" stroke-width="2.0"/>
<text x="538" y="116" font-size="11" fill="#6b3fa0">soffit</text>
<text x="700" y="34" font-size="15" font-weight="600">Who covers the mid band</text>
<rect x="700" y="48" width="440" height="280" fill="#fff" stroke="#ddd"/>
<line x1="770.4" y1="48" x2="770.4" y2="328" stroke="#eee"/>
<text x="770.4" y="344" font-size="10" text-anchor="middle">31.5</text>
<line x1="821.0" y1="48" x2="821.0" y2="328" stroke="#eee"/>
<text x="821.0" y="344" font-size="10" text-anchor="middle">63</text>
<line x1="870.9" y1="48" x2="870.9" y2="328" stroke="#eee"/>
<text x="870.9" y="344" font-size="10" text-anchor="middle">125</text>
<line x1="921.5" y1="48" x2="921.5" y2="328" stroke="#eee"/>
<text x="921.5" y="344" font-size="10" text-anchor="middle">250</text>
<line x1="972.0" y1="48" x2="972.0" y2="328" stroke="#eee"/>
<text x="972.0" y="344" font-size="10" text-anchor="middle">500</text>
<line x1="1022.6" y1="48" x2="1022.6" y2="328" stroke="#eee"/>
<text x="1022.6" y="344" font-size="10" text-anchor="middle">1000</text>
<line x1="1073.2" y1="48" x2="1073.2" y2="328" stroke="#eee"/>
<text x="1073.2" y="344" font-size="10" text-anchor="middle">2000</text>
<line x1="1123.7" y1="48" x2="1123.7" y2="328" stroke="#eee"/>
<text x="1123.7" y="344" font-size="10" text-anchor="middle">4000</text>
<line x1="700" y1="328.0" x2="1140" y2="328.0" stroke="#eee"/>
<text x="692" y="331.0" font-size="10" text-anchor="end">0</text>
<line x1="700" y1="188.0" x2="1140" y2="188.0" stroke="#eee"/>
<text x="692" y="191.0" font-size="10" text-anchor="end">0.5</text>
<line x1="700" y1="48.0" x2="1140" y2="48.0" stroke="#eee"/>
<text x="692" y="51.0" font-size="10" text-anchor="end">1</text>
<line x1="718.4" y1="48" x2="718.4" y2="328" stroke="#c4b8a5" stroke-dasharray="3 3"/>
<text x="721.4" y="62.0" font-size="10" fill="#7a6a52">Y1</text>
<line x1="770.3" y1="48" x2="770.3" y2="328" stroke="#c4b8a5" stroke-dasharray="3 3"/>
<text x="773.3" y="75.0" font-size="10" fill="#7a6a52">Y2 X1</text>
<line x1="798.6" y1="48" x2="798.6" y2="328" stroke="#c4b8a5" stroke-dasharray="3 3"/>
<text x="801.6" y="88.0" font-size="10" fill="#7a6a52">Y3</text>
<path d="M770.4,306.0 L787.8,233.6 L804.1,173.3 L821.0,269.9 L838.4,308.5 L854.7,319.3 L870.9,323.5 L888.9,325.6 L905.2,326.6 L921.5,327.1 L938.3,327.4 L955.8,327.6 L972.0,327.7 L988.9,327.8 L1006.3,327.9 L1022.6,327.9 L1038.9,327.9 L1056.9,327.9 L1073.2,328.0 L1089.4,328.0 L1106.3,328.0 L1123.7,328.0" fill="none" stroke="#1f4e79" stroke-width="2.0"/>
<line x1="1152" y1="58" x2="1168" y2="58" stroke="#1f4e79" stroke-width="2.0"/>
<text x="1174" y="62" font-size="11" fill="#1f4e79">kitchen</text>
<path d="M770.4,303.6 L787.8,292.5 L804.1,278.9 L821.0,261.0 L838.4,238.7 L854.7,215.0 L870.9,189.8 L888.9,161.8 L905.2,138.2 L921.5,117.5 L938.3,100.2 L955.8,87.0 L972.0,79.0 L988.9,74.7 L1006.3,73.2 L1022.6,72.9 L1038.9,71.3 L1056.9,67.3 L1073.2,64.6 L1089.4,64.2 L1106.3,62.9 L1123.7,62.0" fill="none" stroke="#b36b00" stroke-width="2.0"/>
<line x1="1152" y1="76" x2="1168" y2="76" stroke="#b36b00" stroke-width="2.0"/>
<text x="1174" y="80" font-size="11" fill="#b36b00">slopes</text>
<path d="M770.4,209.6 L787.8,196.6 L804.1,184.9 L821.0,173.2 L838.4,161.3 L854.7,150.3 L870.9,139.5 L888.9,127.9 L905.2,118.0 L921.5,109.3 L938.3,102.3 L955.8,99.1 L972.0,90.3 L988.9,82.0 L1006.3,77.7 L1022.6,72.3 L1038.9,69.3 L1056.9,66.8 L1073.2,65.3 L1089.4,64.1 L1106.3,62.8 L1123.7,62.0" fill="none" stroke="#6b3fa0" stroke-width="2.2"/>
<line x1="1152" y1="94" x2="1168" y2="94" stroke="#6b3fa0" stroke-width="2.2"/>
<text x="1174" y="98" font-size="11" fill="#6b3fa0">soffit</text>
<text x="64" y="416" font-size="15" font-weight="600">Slope α, 140 on CD, no Flex</text>
<rect x="64" y="430" width="440" height="280" fill="#fff" stroke="#ddd"/>
<line x1="134.4" y1="430" x2="134.4" y2="710" stroke="#eee"/>
<text x="134.4" y="726" font-size="10" text-anchor="middle">31.5</text>
<line x1="185.0" y1="430" x2="185.0" y2="710" stroke="#eee"/>
<text x="185.0" y="726" font-size="10" text-anchor="middle">63</text>
<line x1="234.9" y1="430" x2="234.9" y2="710" stroke="#eee"/>
<text x="234.9" y="726" font-size="10" text-anchor="middle">125</text>
<line x1="285.5" y1="430" x2="285.5" y2="710" stroke="#eee"/>
<text x="285.5" y="726" font-size="10" text-anchor="middle">250</text>
<line x1="336.0" y1="430" x2="336.0" y2="710" stroke="#eee"/>
<text x="336.0" y="726" font-size="10" text-anchor="middle">500</text>
<line x1="386.6" y1="430" x2="386.6" y2="710" stroke="#eee"/>
<text x="386.6" y="726" font-size="10" text-anchor="middle">1000</text>
<line x1="437.2" y1="430" x2="437.2" y2="710" stroke="#eee"/>
<text x="437.2" y="726" font-size="10" text-anchor="middle">2000</text>
<line x1="487.7" y1="430" x2="487.7" y2="710" stroke="#eee"/>
<text x="487.7" y="726" font-size="10" text-anchor="middle">4000</text>
<line x1="64" y1="710.0" x2="504" y2="710.0" stroke="#eee"/>
<text x="56" y="713.0" font-size="10" text-anchor="end">0</text>
<line x1="64" y1="570.0" x2="504" y2="570.0" stroke="#eee"/>
<text x="56" y="573.0" font-size="10" text-anchor="end">0.5</text>
<line x1="64" y1="430.0" x2="504" y2="430.0" stroke="#eee"/>
<text x="56" y="433.0" font-size="10" text-anchor="end">1</text>
<path d="M134.4,685.6 L151.8,674.5 L168.1,660.9 L185.0,643.0 L202.4,620.7 L218.7,597.0 L234.9,571.8 L252.9,543.8 L269.2,520.2 L285.5,499.5 L302.3,482.2 L319.8,469.0 L336.0,461.0 L352.9,456.7 L370.3,455.2 L386.6,454.9 L402.9,453.3 L420.9,449.3 L437.2,446.6 L453.4,446.2 L470.3,444.9 L487.7,444.0" fill="none" stroke="#111" stroke-width="2.2" stroke-dasharray="5 3"/>
<line x1="516" y1="440" x2="532" y2="440" stroke="#111" stroke-width="2.2" stroke-dasharray="5 3"/>
<text x="538" y="444" font-size="11" fill="#111">as built + Flex</text>
<path d="M134.4,705.7 L151.8,703.2 L168.1,699.8 L185.0,694.7 L202.4,687.1 L218.7,677.2 L234.9,664.1 L252.9,645.2 L269.2,624.2 L285.5,599.8 L302.3,572.0 L319.8,542.2 L336.0,515.4 L352.9,490.5 L370.3,469.4 L386.6,454.7 L402.9,445.4 L420.9,441.0 L437.2,441.9 L453.4,446.0 L470.3,449.3 L487.7,446.5" fill="none" stroke="#9aa0a6" stroke-width="1.7"/>
<line x1="516" y1="458" x2="532" y2="458" stroke="#9aa0a6" stroke-width="1.7"/>
<text x="538" y="462" font-size="11" fill="#9aa0a6">140 only 40 mm</text>
<path d="M134.4,700.6 L151.8,695.6 L168.1,689.0 L185.0,679.3 L202.4,665.7 L218.7,649.1 L234.9,628.6 L252.9,601.8 L269.2,574.9 L285.5,547.2 L302.3,519.5 L319.8,494.1 L336.0,474.7 L352.9,459.9 L370.3,450.2 L386.6,446.2 L402.9,446.1 L420.9,448.7 L437.2,450.2 L453.4,448.0 L470.3,444.0 L487.7,443.8" fill="none" stroke="#6f93b8" stroke-width="1.7"/>
<line x1="516" y1="476" x2="532" y2="476" stroke="#6f93b8" stroke-width="1.7"/>
<text x="538" y="480" font-size="11" fill="#6f93b8">140 only 60 mm</text>
<path d="M134.4,693.5 L151.8,685.3 L168.1,674.7 L185.0,660.2 L202.4,640.9 L218.7,618.9 L234.9,593.8 L252.9,564.1 L269.2,537.2 L285.5,512.4 L302.3,490.4 L319.8,472.7 L336.0,461.2 L352.9,454.1 L370.3,451.3 L386.6,451.5 L402.9,452.5 L420.9,451.2 L437.2,447.7 L453.4,445.1 L470.3,445.1 L487.7,444.1" fill="none" stroke="#c47b2f" stroke-width="1.7"/>
<line x1="516" y1="494" x2="532" y2="494" stroke="#c47b2f" stroke-width="1.7"/>
<text x="538" y="498" font-size="11" fill="#c47b2f">140 only 80 mm</text>
<path d="M134.4,684.4 L151.8,672.8 L168.1,658.4 L185.0,639.5 L202.4,616.0 L218.7,591.2 L234.9,565.0 L252.9,536.5 L269.2,513.2 L285.5,493.4 L302.3,477.6 L319.8,466.3 L336.0,460.1 L352.9,457.1 L370.3,456.3 L386.6,455.6 L402.9,453.2 L420.9,449.0 L437.2,446.7 L453.4,446.1 L470.3,444.8 L487.7,444.1" fill="none" stroke="#a33b32" stroke-width="1.7"/>
<line x1="516" y1="512" x2="532" y2="512" stroke="#a33b32" stroke-width="1.7"/>
<text x="538" y="516" font-size="11" fill="#a33b32">140 only 100 mm</text>
<text x="700" y="416" font-size="15" font-weight="600">ΔT vs as built (seconds)</text>
<rect x="700" y="430" width="440" height="280" fill="#fff" stroke="#ddd"/>
<line x1="770.4" y1="430" x2="770.4" y2="710" stroke="#eee"/>
<text x="770.4" y="726" font-size="10" text-anchor="middle">31.5</text>
<line x1="821.0" y1="430" x2="821.0" y2="710" stroke="#eee"/>
<text x="821.0" y="726" font-size="10" text-anchor="middle">63</text>
<line x1="870.9" y1="430" x2="870.9" y2="710" stroke="#eee"/>
<text x="870.9" y="726" font-size="10" text-anchor="middle">125</text>
<line x1="921.5" y1="430" x2="921.5" y2="710" stroke="#eee"/>
<text x="921.5" y="726" font-size="10" text-anchor="middle">250</text>
<line x1="972.0" y1="430" x2="972.0" y2="710" stroke="#eee"/>
<text x="972.0" y="726" font-size="10" text-anchor="middle">500</text>
<line x1="1022.6" y1="430" x2="1022.6" y2="710" stroke="#eee"/>
<text x="1022.6" y="726" font-size="10" text-anchor="middle">1000</text>
<line x1="1073.2" y1="430" x2="1073.2" y2="710" stroke="#eee"/>
<text x="1073.2" y="726" font-size="10" text-anchor="middle">2000</text>
<line x1="1123.7" y1="430" x2="1123.7" y2="710" stroke="#eee"/>
<text x="1123.7" y="726" font-size="10" text-anchor="middle">4000</text>
<line x1="700" y1="570.0" x2="1140" y2="570.0" stroke="#bbb"/>
<text x="692" y="573.0" font-size="10" text-anchor="end">0</text>
<path d="M770.4,594.0 L787.8,601.0 L804.1,570.5 L821.0,570.9 L838.4,571.2 L854.7,570.6 L870.9,570.3 L888.9,570.1 L905.2,570.1 L921.5,570.0 L938.3,570.0 L955.8,570.0 L972.0,570.0 L988.9,570.0 L1006.3,570.0 L1022.6,570.0 L1038.9,570.0 L1056.9,570.0 L1073.2,570.0 L1089.4,570.0 L1106.3,570.0 L1123.7,570.0" fill="none" stroke="#1f4e79" stroke-width="2.0"/>
<line x1="1152" y1="440" x2="1168" y2="440" stroke="#1f4e79" stroke-width="2.0"/>
<text x="1174" y="444" font-size="11" fill="#1f4e79">20 mm clearance</text>
<path d="M770.4,600.1 L787.8,600.6 L804.1,570.4 L821.0,571.7 L838.4,571.6 L854.7,570.8 L870.9,570.4 L888.9,570.2 L905.2,570.1 L921.5,570.1 L938.3,570.0 L955.8,570.0 L972.0,570.0 L988.9,570.0 L1006.3,570.0 L1022.6,570.0 L1038.9,570.0 L1056.9,570.0 L1073.2,570.0 L1089.4,570.0 L1106.3,570.0 L1123.7,570.0" fill="none" stroke="#1f4e79" stroke-width="1.6" stroke-dasharray="3 3"/>
<line x1="1152" y1="458" x2="1168" y2="458" stroke="#1f4e79" stroke-width="1.6" stroke-dasharray="3 3"/>
<text x="1174" y="462" font-size="11" fill="#1f4e79">kitchen wool full</text>
<path d="M770.4,519.5 L787.8,505.9 L804.1,495.1 L821.0,460.9 L838.4,448.3 L854.7,454.3 L870.9,468.5 L888.9,487.9 L905.2,505.3 L921.5,520.9 L938.3,534.6 L955.8,545.9 L972.0,554.5 L988.9,561.4 L1006.3,566.7 L1022.6,570.0 L1038.9,571.7 L1056.9,571.7 L1073.2,570.9 L1089.4,570.0 L1106.3,569.1 L1123.7,569.5" fill="none" stroke="#9aa0a6" stroke-width="1.7"/>
<line x1="1152" y1="476" x2="1168" y2="476" stroke="#9aa0a6" stroke-width="1.7"/>
<text x="1174" y="480" font-size="11" fill="#9aa0a6">140 40 mm</text>
<path d="M770.4,534.3 L787.8,526.5 L804.1,521.6 L821.0,505.3 L838.4,504.1 L854.7,512.1 L870.9,523.0 L888.9,535.0 L905.2,544.3 L921.5,552.0 L938.3,558.3 L955.8,563.1 L972.0,566.6 L988.9,569.3 L1006.3,571.1 L1022.6,571.9 L1038.9,571.5 L1056.9,570.1 L1073.2,569.2 L1089.4,569.6 L1106.3,570.2 L1123.7,570.0" fill="none" stroke="#6f93b8" stroke-width="1.7"/>
<line x1="1152" y1="494" x2="1168" y2="494" stroke="#6f93b8" stroke-width="1.7"/>
<text x="1174" y="498" font-size="11" fill="#6f93b8">140 60 mm</text>
<path d="M770.4,552.6 L787.8,549.9 L804.1,549.0 L821.0,544.4 L838.4,546.1 L854.7,550.5 L870.9,555.3 L888.9,559.9 L905.2,563.3 L921.5,565.8 L938.3,567.7 L955.8,569.1 L972.0,570.0 L988.9,570.6 L1006.3,570.9 L1022.6,570.7 L1038.9,570.2 L1056.9,569.6 L1073.2,569.8 L1089.4,570.2 L1106.3,570.0 L1123.7,570.0" fill="none" stroke="#c47b2f" stroke-width="1.7"/>
<line x1="1152" y1="512" x2="1168" y2="512" stroke="#c47b2f" stroke-width="1.7"/>
<text x="1174" y="516" font-size="11" fill="#c47b2f">140 80 mm</text>
<path d="M770.4,572.3 L787.8,572.9 L804.1,573.4 L821.0,574.5 L838.4,574.8 L854.7,574.4 L870.9,573.9 L888.9,573.2 L905.2,572.5 L921.5,571.9 L938.3,571.2 L955.8,570.7 L972.0,570.2 L988.9,569.9 L1006.3,569.8 L1022.6,569.8 L1038.9,570.0 L1056.9,570.1 L1073.2,570.0 L1089.4,570.0 L1106.3,570.0 L1123.7,570.0" fill="none" stroke="#a33b32" stroke-width="1.7"/>
<line x1="1152" y1="530" x2="1168" y2="530" stroke="#a33b32" stroke-width="1.7"/>
<text x="1174" y="534" font-size="11" fill="#a33b32">140 100 mm</text>
</svg>