<svg xmlns="http://www.w3.org/2000/svg" width="1180" height="420" viewBox="0 0 1180 420">
<rect width="100%" height="100%" fill="#f7f5f1"/>
<style>text{font-family:system-ui,sans-serif;fill:#222}</style>
<text x="78" y="32" font-size="15" font-weight="600">Living gable, field absorption</text>
<rect x="78" y="46" width="620" height="320" fill="#fff" stroke="#ddd"/>
<line x1="177.2" y1="46" x2="177.2" y2="366" stroke="#eee"/>
<text x="177.2" y="382" font-size="10" text-anchor="middle">31.5</text>
<line x1="248.4" y1="46" x2="248.4" y2="366" stroke="#eee"/>
<text x="248.4" y="382" font-size="10" text-anchor="middle">63</text>
<line x1="318.9" y1="46" x2="318.9" y2="366" stroke="#eee"/>
<text x="318.9" y="382" font-size="10" text-anchor="middle">125</text>
<line x1="390.1" y1="46" x2="390.1" y2="366" stroke="#eee"/>
<text x="390.1" y="382" font-size="10" text-anchor="middle">250</text>
<line x1="461.3" y1="46" x2="461.3" y2="366" stroke="#eee"/>
<text x="461.3" y="382" font-size="10" text-anchor="middle">500</text>
<line x1="532.6" y1="46" x2="532.6" y2="366" stroke="#eee"/>
<text x="532.6" y="382" font-size="10" text-anchor="middle">1000</text>
<line x1="603.8" y1="46" x2="603.8" y2="366" stroke="#eee"/>
<text x="603.8" y="382" font-size="10" text-anchor="middle">2000</text>
<line x1="675.1" y1="46" x2="675.1" y2="366" stroke="#eee"/>
<text x="675.1" y="382" font-size="10" text-anchor="middle">4000</text>
<line x1="78" y1="366.0" x2="698" y2="366.0" stroke="#eee"/>
<text x="70" y="369.0" font-size="10" text-anchor="end">0</text>
<line x1="78" y1="286.0" x2="698" y2="286.0" stroke="#eee"/>
<text x="70" y="289.0" font-size="10" text-anchor="end">0.25</text>
<line x1="78" y1="206.0" x2="698" y2="206.0" stroke="#eee"/>
<text x="70" y="209.0" font-size="10" text-anchor="end">0.5</text>
<line x1="78" y1="126.0" x2="698" y2="126.0" stroke="#eee"/>
<text x="70" y="129.0" font-size="10" text-anchor="end">0.75</text>
<line x1="78" y1="46.0" x2="698" y2="46.0" stroke="#eee"/>
<text x="70" y="49.0" font-size="10" text-anchor="end">1</text>
<line x1="104.0" y1="46" x2="104.0" y2="366" stroke="#c4b8a5" stroke-dasharray="3 3"/>
<text x="107.0" y="60.0" font-size="10" fill="#7a6a52">Y1</text>
<line x1="177.1" y1="46" x2="177.1" y2="366" stroke="#c4b8a5" stroke-dasharray="3 3"/>
<text x="180.1" y="73.0" font-size="10" fill="#7a6a52">Y2 X1</text>
<line x1="216.9" y1="46" x2="216.9" y2="366" stroke="#c4b8a5" stroke-dasharray="3 3"/>
<text x="219.9" y="86.0" font-size="10" fill="#7a6a52">Y3</text>
<path d="M177.2,71.7 L201.7,171.9 L224.7,257.2 L248.4,307.5 L273.0,334.7 L295.9,348.2 L318.9,355.8 L344.2,360.5 L367.2,362.9 L390.1,364.2 L413.9,365.0 L438.4,365.4 L461.3,365.6 L485.1,365.7 L509.6,365.8 L532.6,365.8 L555.5,365.9 L580.9,365.9 L603.8,365.9 L626.8,366.0 L650.5,366.0 L675.1,366.0" fill="none" stroke="#666666" stroke-width="1.8" stroke-dasharray="6 4"/>
<line x1="714" y1="58" x2="732" y2="58" stroke="#666666" stroke-width="1.8" stroke-dasharray="6 4"/>
<text x="738" y="62" font-size="12" fill="#666666">loose sheet</text>
<path d="M177.2,364.3 L201.7,361.7 L224.7,353.0 L248.4,280.4 L273.0,329.3 L295.9,362.0 L318.9,357.5 L344.2,358.9 L367.2,363.9 L390.1,364.2 L413.9,359.6 L438.4,359.2 L461.3,365.4 L485.1,364.9 L509.6,365.5 L532.6,365.8 L555.5,365.8 L580.9,365.9 L603.8,366.0 L626.8,365.9 L650.5,366.0 L675.1,366.0" fill="none" stroke="#1f4e79" stroke-width="2.3"/>
<line x1="714" y1="78" x2="732" y2="78" stroke="#1f4e79" stroke-width="2.3"/>
<text x="738" y="82" font-size="12" fill="#1f4e79">625 vertical, as-built wool</text>
<path d="M177.2,349.9 L201.7,335.1 L224.7,301.7 L248.4,221.8 L273.0,208.1 L295.9,303.4 L318.9,340.1 L344.2,353.3 L367.2,358.8 L390.1,361.2 L413.9,356.9 L438.4,352.8 L461.3,364.9 L485.1,364.9 L509.6,365.4 L532.6,365.7 L555.5,365.8 L580.9,365.9 L603.8,366.0 L626.8,365.9 L650.5,366.0 L675.1,366.0" fill="none" stroke="#1f4e79" stroke-width="1.6" stroke-dasharray="2 3"/>
<line x1="714" y1="98" x2="732" y2="98" stroke="#1f4e79" stroke-width="1.6" stroke-dasharray="2 3"/>
<text x="738" y="102" font-size="12" fill="#1f4e79">625 vertical, best wool</text>
<path d="M177.2,347.8 L201.7,359.1 L224.7,353.9 L248.4,361.2 L273.0,337.1 L295.9,355.1 L318.9,298.9 L344.2,358.9 L367.2,362.4 L390.1,363.3 L413.9,364.4 L438.4,365.2 L461.3,364.9 L485.1,365.8 L509.6,365.5 L532.6,365.9 L555.5,365.8 L580.9,365.9 L603.8,365.9 L626.8,365.9 L650.5,366.0 L675.1,366.0" fill="none" stroke="#a33b32" stroke-width="2.3"/>
<line x1="714" y1="118" x2="732" y2="118" stroke="#a33b32" stroke-width="2.3"/>
<text x="738" y="122" font-size="12" fill="#a33b32">1000 horizontal, as-built wool</text>
<path d="M177.2,226.0 L201.7,215.1 L224.7,250.3 L248.4,293.7 L273.0,304.5 L295.9,314.7 L318.9,322.5 L344.2,348.8 L367.2,358.0 L390.1,362.0 L413.9,363.9 L438.4,364.7 L461.3,364.8 L485.1,365.6 L509.6,365.4 L532.6,365.9 L555.5,365.8 L580.9,366.0 L603.8,365.9 L626.8,365.9 L650.5,366.0 L675.1,366.0" fill="none" stroke="#a33b32" stroke-width="1.6" stroke-dasharray="2 3"/>
<line x1="714" y1="138" x2="732" y2="138" stroke="#a33b32" stroke-width="1.6" stroke-dasharray="2 3"/>
<text x="738" y="142" font-size="12" fill="#a33b32">1000 horizontal, best wool</text>
</svg>