<svg xmlns="http://www.w3.org/2000/svg" width="1236" height="609" viewBox="0 0 1236 609">
<rect width="100%" height="100%" fill="#f7f5f1"/>
<style>text{font-family:system-ui,sans-serif;fill:#222}</style>
<text x="56.0" y="28" font-size="18" font-weight="600">1000 horizontal</text>
<text x="56.0" y="48" font-size="13">Both gables, same outline. Kitchen 190 mm deep, living 450 mm deep.</text>
<polygon points="56.0,572.9 176.0,572.9 252.0,572.9 252.0,343.9 176.0,343.9 56.0,444.6" fill="#f3d7b0" stroke="#8a8175" stroke-width="0.6"/>
<polygon points="176.0,343.9 252.0,343.9 252.0,280.1" fill="#f3d7b0" stroke="#8a8175" stroke-width="0.6"/>
<polygon points="252.0,572.9 448.0,572.9 448.0,343.9 252.0,343.9" fill="#d5e3f2" stroke="#8a8175" stroke-width="0.6"/>
<polygon points="252.0,343.9 448.0,343.9 448.0,115.6 252.0,280.1" fill="#f3d7b0" stroke="#8a8175" stroke-width="0.6"/>
<polygon points="448.0,572.9 504.8,572.9 644.0,572.9 644.0,343.9 504.8,343.9 448.0,343.9" fill="#f3d7b0" stroke="#8a8175" stroke-width="0.6"/>
<polygon points="448.0,343.9 448.8,343.9 504.8,343.9 560.7,343.9 644.0,343.9 644.0,184.8 560.7,114.9 504.8,114.9 448.8,114.9 448.0,115.6" fill="#f3d7b0" stroke="#8a8175" stroke-width="0.6"/>
<polygon points="448.8,114.9 504.8,114.9 560.7,114.9 504.8,68.0" fill="#f3d7b0" stroke="#8a8175" stroke-width="0.6"/>
<polygon points="644.0,572.9 833.6,572.9 840.0,572.9 840.0,349.3 833.6,343.9 644.0,343.9" fill="#f3d7b0" stroke="#8a8175" stroke-width="0.6"/>
<polygon points="644.0,343.9 833.6,343.9 644.0,184.8" fill="#f3d7b0" stroke="#8a8175" stroke-width="0.6"/>
<polygon points="840.0,572.9 953.6,572.9 1036.0,572.9 1036.0,444.6 953.6,444.6 840.0,349.3" fill="#f3d7b0" stroke="#8a8175" stroke-width="0.6"/>
<line x1="56.0" y1="572.9" x2="56.0" y2="444.6" stroke="#1f4e79" stroke-width="2"/>
<line x1="252.0" y1="572.9" x2="252.0" y2="280.1" stroke="#1f4e79" stroke-width="2"/>
<line x1="448.0" y1="572.9" x2="448.0" y2="115.6" stroke="#1f4e79" stroke-width="2"/>
<line x1="644.0" y1="572.9" x2="644.0" y2="184.8" stroke="#1f4e79" stroke-width="2"/>
<line x1="840.0" y1="572.9" x2="840.0" y2="349.3" stroke="#1f4e79" stroke-width="2"/>
<line x1="1036.0" y1="572.9" x2="1036.0" y2="444.6" stroke="#1f4e79" stroke-width="2"/>
<line x1="176.0" y1="343.9" x2="833.6" y2="343.9" stroke="#a33b32" stroke-width="2"/>
<line x1="448.8" y1="114.9" x2="560.7" y2="114.9" stroke="#a33b32" stroke-width="2"/>
<polygon points="56.0,572.9 1036.0,572.9 1036.0,444.6 953.6,444.6 504.8,68.0 56.0,444.6" fill="none" stroke="#222" stroke-width="1.6"/>
<text x="56.0" y="590.9" font-size="11">okna</text>
<text x="1000.0" y="590.9" font-size="11">skříň</text>
<text x="510.8" y="80.0" font-size="11">hřeben šikminy</text>
<rect x="1052.0" y="76.0" width="14" height="10" fill="#1f4e79" stroke="#666"/>
<text x="1072.0" y="86.0" font-size="12">CD</text>
<rect x="1052.0" y="98.0" width="14" height="10" fill="#a33b32" stroke="#666"/>
<text x="1072.0" y="108.0" font-size="12">rail under a joint</text>
<rect x="1052.0" y="120.0" width="14" height="10" fill="#d5e3f2" stroke="#666"/>
<text x="1072.0" y="130.0" font-size="12">full rectangle</text>
<rect x="1052.0" y="142.0" width="14" height="10" fill="#f3d7b0" stroke="#666"/>
<text x="1072.0" y="152.0" font-size="12">cut field</text>
<text x="1052.0" y="172.0" font-size="12">10 fields, 9 cut</text>
<text x="1052.0" y="190.0" font-size="12">8.78 m²</text>
</svg>