  0
SECTION
  2
HEADER
  9
$ACADVER
  1
AC1027
  9
$ACADMAINTVER
 70
105
  9
$DWGCODEPAGE
  3
ANSI_1252
  9
$LASTSAVEDBY
  1
ezdxf
  9
$REQUIREDVERSIONS
160
0
  9
$INSBASE
 10
0.0
 20
0.0
 30
0.0
  9
$EXTMIN
 10
1e+20
 20
1e+20
 30
1e+20
  9
$EXTMAX
 10
-1e+20
 20
-1e+20
 30
-1e+20
  9
$LIMMIN
 10
0.0
 20
0.0
  9
$LIMMAX
 10
420.0
 20
297.0
  9
$ORTHOMODE
 70
0
  9
$REGENMODE
 70
1
  9
$FILLMODE
 70
1
  9
$QTEXTMODE
 70
0
  9
$MIRRTEXT
 70
1
  9
$LTSCALE
 40
1.0
  9
$ATTMODE
 70
1
  9
$TEXTSIZE
 40
2.5
  9
$TRACEWID
 40
1.0
  9
$TEXTSTYLE
  7
Standard
  9
$CLAYER
  8
0
  9
$CELTYPE
  6
ByLayer
  9
$CECOLOR
 62
256
  9
$CELTSCALE
 40
1.0
  9
$DISPSILH
 70
0
  9
$DIMSCALE
 40
1.0
  9
$DIMASZ
 40
2.5
  9
$DIMEXO
 40
0.625
  9
$DIMDLI
 40
3.75
  9
$DIMRND
 40
0.0
  9
$DIMDLE
 40
0.0
  9
$DIMEXE
 40
1.25
  9
$DIMTP
 40
0.0
  9
$DIMTM
 40
0.0
  9
$DIMTXT
 40
2.5
  9
$DIMCEN
 40
2.5
  9
$DIMTSZ
 40
0.0
  9
$DIMTOL
 70
0
  9
$DIMLIM
 70
0
  9
$DIMTIH
 70
0
  9
$DIMTOH
 70
0
  9
$DIMSE1
 70
0
  9
$DIMSE2
 70
0
  9
$DIMTAD
 70
1
  9
$DIMZIN
 70
8
  9
$DIMBLK
  1

  9
$DIMASO
 70
1
  9
$DIMSHO
 70
1
  9
$DIMPOST
  1

  9
$DIMAPOST
  1

  9
$DIMALT
 70
0
  9
$DIMALTD
 70
3
  9
$DIMALTF
 40
0.03937007874
  9
$DIMLFAC
 40
1.0
  9
$DIMTOFL
 70
1
  9
$DIMTVP
 40
0.0
  9
$DIMTIX
 70
0
  9
$DIMSOXD
 70
0
  9
$DIMSAH
 70
0
  9
$DIMBLK1
  1

  9
$DIMBLK2
  1

  9
$DIMSTYLE
  2
ISO-25
  9
$DIMCLRD
 70
0
  9
$DIMCLRE
 70
0
  9
$DIMCLRT
 70
0
  9
$DIMTFAC
 40
1.0
  9
$DIMGAP
 40
0.625
  9
$DIMJUST
 70
0
  9
$DIMSD1
 70
0
  9
$DIMSD2
 70
0
  9
$DIMTOLJ
 70
0
  9
$DIMTZIN
 70
8
  9
$DIMALTZ
 70
0
  9
$DIMALTTZ
 70
0
  9
$DIMUPT
 70
0
  9
$DIMDEC
 70
2
  9
$DIMTDEC
 70
2
  9
$DIMALTU
 70
2
  9
$DIMALTTD
 70
3
  9
$DIMTXSTY
  7
Standard
  9
$DIMAUNIT
 70
0
  9
$DIMADEC
 70
0
  9
$DIMALTRND
 40
0.0
  9
$DIMAZIN
 70
0
  9
$DIMDSEP
 70
44
  9
$DIMATFIT
 70
3
  9
$DIMFRAC
 70
0
  9
$DIMLDRBLK
  1

  9
$DIMLUNIT
 70
2
  9
$DIMLWD
 70
-2
  9
$DIMLWE
 70
-2
  9
$DIMTMOVE
 70
0
  9
$DIMFXL
 40
1.0
  9
$DIMFXLON
 70
0
  9
$DIMJOGANG
 40
0.785398163397
  9
$DIMTFILL
 70
0
  9
$DIMTFILLCLR
 70
0
  9
$DIMARCSYM
 70
0
  9
$DIMLTYPE
  6

  9
$DIMLTEX1
  6

  9
$DIMLTEX2
  6

  9
$DIMTXTDIRECTION
 70
0
  9
$LUNITS
 70
2
  9
$LUPREC
 70
4
  9
$SKETCHINC
 40
1.0
  9
$FILLETRAD
 40
10.0
  9
$AUNITS
 70
0
  9
$AUPREC
 70
2
  9
$MENU
  1
.
  9
$ELEVATION
 40
0.0
  9
$PELEVATION
 40
0.0
  9
$THICKNESS
 40
0.0
  9
$LIMCHECK
 70
0
  9
$CHAMFERA
 40
0.0
  9
$CHAMFERB
 40
0.0
  9
$CHAMFERC
 40
0.0
  9
$CHAMFERD
 40
0.0
  9
$SKPOLY
 70
0
  9
$TDCREATE
 40
2461303.322222222
  9
$TDUCREATE
 40
2458532.153996898
  9
$TDUPDATE
 40
2461303.322222222
  9
$TDUUPDATE
 40
2458532.1544311
  9
$TDINDWG
 40
0.0
  9
$TDUSRTIMER
 40
0.0
  9
$USRTIMER
 70
1
  9
$ANGBASE
 50
0.0
  9
$ANGDIR
 70
0
  9
$PDMODE
 70
0
  9
$PDSIZE
 40
0.0
  9
$PLINEWID
 40
0.0
  9
$SPLFRAME
 70
0
  9
$SPLINETYPE
 70
6
  9
$SPLINESEGS
 70
8
  9
$HANDSEED
  5
F0
  9
$SURFTAB1
 70
6
  9
$SURFTAB2
 70
6
  9
$SURFTYPE
 70
6
  9
$SURFU
 70
6
  9
$SURFV
 70
6
  9
$UCSBASE
  2

  9
$UCSNAME
  2

  9
$UCSORG
 10
0.0
 20
0.0
 30
0.0
  9
$UCSXDIR
 10
1.0
 20
0.0
 30
0.0
  9
$UCSYDIR
 10
0.0
 20
1.0
 30
0.0
  9
$UCSORTHOREF
  2

  9
$UCSORTHOVIEW
 70
0
  9
$UCSORGTOP
 10
0.0
 20
0.0
 30
0.0
  9
$UCSORGBOTTOM
 10
0.0
 20
0.0
 30
0.0
  9
$UCSORGLEFT
 10
0.0
 20
0.0
 30
0.0
  9
$UCSORGRIGHT
 10
0.0
 20
0.0
 30
0.0
  9
$UCSORGFRONT
 10
0.0
 20
0.0
 30
0.0
  9
$UCSORGBACK
 10
0.0
 20
0.0
 30
0.0
  9
$PUCSBASE
  2

  9
$PUCSNAME
  2

  9
$PUCSORG
 10
0.0
 20
0.0
 30
0.0
  9
$PUCSXDIR
 10
1.0
 20
0.0
 30
0.0
  9
$PUCSYDIR
 10
0.0
 20
1.0
 30
0.0
  9
$PUCSORTHOREF
  2

  9
$PUCSORTHOVIEW
 70
0
  9
$PUCSORGTOP
 10
0.0
 20
0.0
 30
0.0
  9
$PUCSORGBOTTOM
 10
0.0
 20
0.0
 30
0.0
  9
$PUCSORGLEFT
 10
0.0
 20
0.0
 30
0.0
  9
$PUCSORGRIGHT
 10
0.0
 20
0.0
 30
0.0
  9
$PUCSORGFRONT
 10
0.0
 20
0.0
 30
0.0
  9
$PUCSORGBACK
 10
0.0
 20
0.0
 30
0.0
  9
$USERI1
 70
0
  9
$USERI2
 70
0
  9
$USERI3
 70
0
  9
$USERI4
 70
0
  9
$USERI5
 70
0
  9
$USERR1
 40
0.0
  9
$USERR2
 40
0.0
  9
$USERR3
 40
0.0
  9
$USERR4
 40
0.0
  9
$USERR5
 40
0.0
  9
$WORLDVIEW
 70
1
  9
$SHADEDGE
 70
3
  9
$SHADEDIF
 70
70
  9
$TILEMODE
 70
1
  9
$MAXACTVP
 70
64
  9
$PINSBASE
 10
0.0
 20
0.0
 30
0.0
  9
$PLIMCHECK
 70
0
  9
$PEXTMIN
 10
1e+20
 20
1e+20
 30
1e+20
  9
$PEXTMAX
 10
-1e+20
 20
-1e+20
 30
-1e+20
  9
$PLIMMIN
 10
0.0
 20
0.0
  9
$PLIMMAX
 10
420.0
 20
297.0
  9
$UNITMODE
 70
0
  9
$VISRETAIN
 70
1
  9
$PLINEGEN
 70
0
  9
$PSLTSCALE
 70
1
  9
$TREEDEPTH
 70
3020
  9
$CMLSTYLE
  2
Standard
  9
$CMLJUST
 70
0
  9
$CMLSCALE
 40
20.0
  9
$PROXYGRAPHICS
 70
1
  9
$MEASUREMENT
 70
1
  9
$CELWEIGHT
370
-1
  9
$ENDCAPS
280
0
  9
$JOINSTYLE
280
0
  9
$LWDISPLAY
290
0
  9
$INSUNITS
 70
4
  9
$HYPERLINKBASE
  1

  9
$STYLESHEET
  1

  9
$XEDIT
290
1
  9
$CEPSNTYPE
380
0
  9
$PSTYLEMODE
290
1
  9
$FINGERPRINTGUID
  2
{C6C6A7D7-72F2-4491-9579-E88332E9D674}
  9
$VERSIONGUID
  2
{408E4399-9A78-4559-9CEA-F2C9E2EBA748}
  9
$EXTNAMES
290
1
  9
$PSVPSCALE
 40
0.0
  9
$OLESTARTUP
290
0
  9
$SORTENTS
280
127
  9
$INDEXCTL
280
0
  9
$HIDETEXT
280
1
  9
$XCLIPFRAME
280
1
  9
$HALOGAP
280
0
  9
$OBSCOLOR
 70
257
  9
$OBSLTYPE
280
0
  9
$INTERSECTIONDISPLAY
280
0
  9
$INTERSECTIONCOLOR
 70
257
  9
$DIMASSOC
280
2
  9
$PROJECTNAME
  1

  9
$CAMERADISPLAY
290
0
  9
$LENSLENGTH
 40
50.0
  9
$CAMERAHEIGHT
 40
0.0
  9
$STEPSPERSEC
 40
24.0
  9
$STEPSIZE
 40
100.0
  9
$3DDWFPREC
 40
2.0
  9
$PSOLWIDTH
 40
0.005
  9
$PSOLHEIGHT
 40
0.08
  9
$LOFTANG1
 40
1.570796326795
  9
$LOFTANG2
 40
1.570796326795
  9
$LOFTMAG1
 40
0.0
  9
$LOFTMAG2
 40
0.0
  9
$LOFTPARAM
 70
7
  9
$LOFTNORMALS
280
1
  9
$LATITUDE
 40
37.795
  9
$LONGITUDE
 40
-122.394
  9
$NORTHDIRECTION
 40
0.0
  9
$TIMEZONE
 70
-8000
  9
$LIGHTGLYPHDISPLAY
280
1
  9
$TILEMODELIGHTSYNCH
280
1
  9
$CMATERIAL
347
20
  9
$SOLIDHIST
280
0
  9
$SHOWHIST
280
1
  9
$DWFFRAME
280
2
  9
$DGNFRAME
280
2
  9
$REALWORLDSCALE
290
1
  9
$INTERFERECOLOR
 62
256
  9
$CSHADOW
280
0
  9
$SHADOWPLANELOCATION
 40
0.0
  0
ENDSEC
  0
SECTION
  2
CLASSES
  0
CLASS
  1
ACDBDICTIONARYWDFLT
  2
AcDbDictionaryWithDefault
  3
ObjectDBX Classes
 90
0
 91
0
280
0
281
0
  0
CLASS
  1
SUN
  2
AcDbSun
  3
SCENEOE
 90
1153
 91
0
280
0
281
0
  0
CLASS
  1
VISUALSTYLE
  2
AcDbVisualStyle
  3
ObjectDBX Classes
 90
4095
 91
0
280
0
281
0
  0
CLASS
  1
MATERIAL
  2
AcDbMaterial
  3
ObjectDBX Classes
 90
1153
 91
0
280
0
281
0
  0
CLASS
  1
SCALE
  2
AcDbScale
  3
ObjectDBX Classes
 90
1153
 91
0
280
0
281
0
  0
CLASS
  1
TABLESTYLE
  2
AcDbTableStyle
  3
ObjectDBX Classes
 90
4095
 91
0
280
0
281
0
  0
CLASS
  1
MLEADERSTYLE
  2
AcDbMLeaderStyle
  3
ACDB_MLEADERSTYLE_CLASS
 90
4095
 91
0
280
0
281
0
  0
CLASS
  1
DICTIONARYVAR
  2
AcDbDictionaryVar
  3
ObjectDBX Classes
 90
0
 91
0
280
0
281
0
  0
CLASS
  1
CELLSTYLEMAP
  2
AcDbCellStyleMap
  3
ObjectDBX Classes
 90
1152
 91
0
280
0
281
0
  0
CLASS
  1
MENTALRAYRENDERSETTINGS
  2
AcDbMentalRayRenderSettings
  3
SCENEOE
 90
1024
 91
0
280
0
281
0
  0
CLASS
  1
ACDBDETAILVIEWSTYLE
  2
AcDbDetailViewStyle
  3
ObjectDBX Classes
 90
1025
 91
0
280
0
281
0
  0
CLASS
  1
ACDBSECTIONVIEWSTYLE
  2
AcDbSectionViewStyle
  3
ObjectDBX Classes
 90
1025
 91
0
280
0
281
0
  0
CLASS
  1
RASTERVARIABLES
  2
AcDbRasterVariables
  3
ISM
 90
0
 91
0
280
0
281
0
  0
CLASS
  1
LAYOUT
  2
AcDbLayout
  3
ObjectDBX Classes
 90
0
 91
0
280
0
281
0
  0
CLASS
  1
ACDBPLACEHOLDER
  2
AcDbPlaceHolder
  3
ObjectDBX Classes
 90
0
 91
0
280
0
281
0
  0
ENDSEC
  0
SECTION
  2
TABLES
  0
TABLE
  2
VPORT
  5
8
330
0
100
AcDbSymbolTable
 70
1
  0
VPORT
  5
EC
330
8
100
AcDbSymbolTableRecord
100
AcDbViewportTableRecord
  2
*Active
 70
0
 10
0.0
 20
0.0
 11
1.0
 21
1.0
 12
2675.0
 22
2850.0
 13
0.0
 23
0.0
 14
0.5
 24
0.5
 15
0.5
 25
0.5
 16
0.0
 26
0.0
 36
1.0
 17
0.0
 27
0.0
 37
0.0
 40
6000.0
 41
1.34
 42
50.0
 43
0.0
 44
0.0
 50
0.0
 51
0.0
 71
0
 72
1000
 73
1
 74
3
 75
0
 76
0
 77
0
 78
0
281
0
 65
1
110
0.0
120
0.0
130
0.0
111
1.0
121
0.0
131
0.0
112
0.0
122
1.0
132
0.0
 79
0
146
0.0
  0
ENDTAB
  0
TABLE
  2
LTYPE
  5
2
330
0
100
AcDbSymbolTable
 70
3
  0
LTYPE
  5
24
330
2
100
AcDbSymbolTableRecord
100
AcDbLinetypeTableRecord
  2
ByBlock
 70
0
  3

 72
65
 73
0
 40
0.0
  0
LTYPE
  5
25
330
2
100
AcDbSymbolTableRecord
100
AcDbLinetypeTableRecord
  2
ByLayer
 70
0
  3

 72
65
 73
0
 40
0.0
  0
LTYPE
  5
26
330
2
100
AcDbSymbolTableRecord
100
AcDbLinetypeTableRecord
  2
Continuous
 70
0
  3

 72
65
 73
0
 40
0.0
  0
ENDTAB
  0
TABLE
  2
LAYER
  5
1
330
0
100
AcDbSymbolTable
 70
18
  0
LAYER
  5
27
330
1
100
AcDbSymbolTableRecord
100
AcDbLayerTableRecord
  2
0
 70
0
 62
7
  6
Continuous
370
-3
390
13
347
21
  0
LAYER
  5
28
330
1
100
AcDbSymbolTableRecord
100
AcDbLayerTableRecord
  2
Defpoints
 70
0
 62
7
  6
Continuous
290
0
370
-3
390
13
347
21
  0
LAYER
  5
2F
330
1
100
AcDbSymbolTableRecord
100
AcDbLayerTableRecord
  2
podlaha
 70
0
 62
2
  6
Continuous
370
35
390
13
347
21
  0
LAYER
  5
34
330
1
100
AcDbSymbolTableRecord
100
AcDbLayerTableRecord
  2
eps
 70
0
 62
3
  6
Continuous
370
35
390
13
347
21
  0
LAYER
  5
3D
330
1
100
AcDbSymbolTableRecord
100
AcDbLayerTableRecord
  2
zdivo
 70
0
 62
1
  6
Continuous
370
35
390
13
347
21
  0
LAYER
  5
46
330
1
100
AcDbSymbolTableRecord
100
AcDbLayerTableRecord
  2
omitka
 70
0
 62
2
  6
Continuous
370
35
390
13
347
21
  0
LAYER
  5
4F
330
1
100
AcDbSymbolTableRecord
100
AcDbLayerTableRecord
  2
vata
 70
0
 62
3
  6
Continuous
370
35
390
13
347
21
  0
LAYER
  5
58
330
1
100
AcDbSymbolTableRecord
100
AcDbLayerTableRecord
  2
nabytek
 70
0
 62
2
  6
Continuous
370
35
390
13
347
21
  0
LAYER
  5
5D
330
1
100
AcDbSymbolTableRecord
100
AcDbLayerTableRecord
  2
sdk
 70
0
 62
4
  6
Continuous
370
35
390
13
347
21
  0
LAYER
  5
68
330
1
100
AcDbSymbolTableRecord
100
AcDbLayerTableRecord
  2
pozednice
 70
0
 62
2
  6
Continuous
370
35
390
13
347
21
  0
LAYER
  5
71
330
1
100
AcDbSymbolTableRecord
100
AcDbLayerTableRecord
  2
krov
 70
0
 62
2
  6
Continuous
370
35
390
13
347
21
  0
LAYER
  5
78
330
1
100
AcDbSymbolTableRecord
100
AcDbLayerTableRecord
  2
dreveny_rost
 70
0
 62
2
  6
Continuous
370
35
390
13
347
21
  0
LAYER
  5
87
330
1
100
AcDbSymbolTableRecord
100
AcDbLayerTableRecord
  2
cd
 70
0
 62
4
  6
Continuous
370
35
390
13
347
21
  0
LAYER
  5
AC
330
1
100
AcDbSymbolTableRecord
100
AcDbLayerTableRecord
  2
zaves
 70
0
 62
4
  6
Continuous
370
35
390
13
347
21
  0
LAYER
  5
BD
330
1
100
AcDbSymbolTableRecord
100
AcDbLayerTableRecord
  2
paska
 70
0
 62
4
  6
Continuous
370
35
390
13
347
21
  0
LAYER
  5
CA
330
1
100
AcDbSymbolTableRecord
100
AcDbLayerTableRecord
  2
NaturHeld Flex 50
 70
0
 62
3
  6
Continuous
370
35
390
13
347
21
  0
LAYER
  5
D5
330
1
100
AcDbSymbolTableRecord
100
AcDbLayerTableRecord
  2
NaturHeld 140
 70
0
 62
5
  6
Continuous
370
35
390
13
347
21
  0
LAYER
  5
E9
330
1
100
AcDbSymbolTableRecord
100
AcDbLayerTableRecord
  2
krytina
 70
0
 62
1
  6
Continuous
370
35
390
13
347
21
  0
ENDTAB
  0
TABLE
  2
STYLE
  5
5
330
0
100
AcDbSymbolTable
 70
1
  0
STYLE
  5
29
330
5
100
AcDbSymbolTableRecord
100
AcDbTextStyleTableRecord
  2
Standard
 70
0
 40
0.0
 41
1.0
 50
0.0
 71
0
 42
2.5
  3
txt
  4

  0
ENDTAB
  0
TABLE
  2
VIEW
  5
7
330
0
100
AcDbSymbolTable
 70
0
  0
ENDTAB
  0
TABLE
  2
UCS
  5
6
330
0
100
AcDbSymbolTable
 70
0
  0
ENDTAB
  0
TABLE
  2
APPID
  5
3
330
0
100
AcDbSymbolTable
 70
3
  0
APPID
  5
2A
330
3
100
AcDbSymbolTableRecord
100
AcDbRegAppTableRecord
  2
ACAD
 70
0
  0
APPID
  5
ED
330
3
100
AcDbSymbolTableRecord
100
AcDbRegAppTableRecord
  2
HATCHBACKGROUNDCOLOR
 70
0
  0
APPID
  5
EE
330
3
100
AcDbSymbolTableRecord
100
AcDbRegAppTableRecord
  2
EZDXF
 70
0
  0
ENDTAB
  0
TABLE
  2
DIMSTYLE
  5
4
330
0
100
AcDbSymbolTable
 70
1
100
AcDbDimStyleTable
  0
DIMSTYLE
105
2B
330
4
100
AcDbSymbolTableRecord
100
AcDbDimStyleTableRecord
  2
Standard
 70
0
 40
1.0
 41
2.5
 42
0.625
 43
3.75
 44
1.25
 45
0.0
 46
0.0
 47
0.0
 48
0.0
 49
2.5
140
2.5
141
2.5
142
0.0
143
0.03937007874
144
1.0
145
0.0
146
1.0
147
0.625
148
0.0
 69
0
 70
0
 71
0
 72
0
 73
0
 74
0
 75
0
 76
0
 77
1
 78
8
 79
3
170
0
171
3
172
1
173
0
174
0
175
0
176
0
177
0
178
0
179
2
271
2
272
2
273
2
274
3
275
0
276
0
277
2
278
44
279
0
280
0
281
0
282
0
283
0
284
8
285
0
286
0
288
0
289
3
290
0
371
-2
372
-2
  0
ENDTAB
  0
TABLE
  2
BLOCK_RECORD
  5
9
330
0
100
AcDbSymbolTable
 70
2
  0
BLOCK_RECORD
  5
17
330
9
100
AcDbSymbolTableRecord
100
AcDbBlockTableRecord
  2
*Model_Space
340
1A
 70
0
280
1
281
0
  0
BLOCK_RECORD
  5
1B
330
9
100
AcDbSymbolTableRecord
100
AcDbBlockTableRecord
  2
*Paper_Space
340
1E
 70
0
280
1
281
0
  0
ENDTAB
  0
ENDSEC
  0
SECTION
  2
BLOCKS
  0
BLOCK
  5
18
330
17
100
AcDbEntity
  8
0
100
AcDbBlockBegin
  2
*Model_Space
 70
0
 10
0.0
 20
0.0
 30
0.0
  3
*Model_Space
  1

  0
ENDBLK
  5
19
330
17
100
AcDbEntity
  8
0
100
AcDbBlockEnd
  0
BLOCK
  5
1C
330
1B
100
AcDbEntity
  8
0
100
AcDbBlockBegin
  2
*Paper_Space
 70
0
 10
0.0
 20
0.0
 30
0.0
  3
*Paper_Space
  1

  0
ENDBLK
  5
1D
330
1B
100
AcDbEntity
  8
0
100
AcDbBlockEnd
  0
ENDSEC
  0
SECTION
  2
ENTITIES
  0
LINE
  5
30
330
17
100
AcDbEntity
  8
podlaha
100
AcDbLine
 10
-465.0
 20
-150.0
 30
0.0
 11
5815.0
 21
-150.0
 31
0.0
  0
LINE
  5
31
330
17
100
AcDbEntity
  8
podlaha
100
AcDbLine
 10
5815.0
 20
-150.0
 30
0.0
 11
5815.0
 21
0.0
 31
0.0
  0
LINE
  5
32
330
17
100
AcDbEntity
  8
podlaha
100
AcDbLine
 10
5815.0
 20
0.0
 30
0.0
 11
-465.0
 21
0.0
 31
0.0
  0
LINE
  5
33
330
17
100
AcDbEntity
  8
podlaha
100
AcDbLine
 10
-465.0
 20
0.0
 30
0.0
 11
-465.0
 21
-150.0
 31
0.0
  0
LINE
  5
35
330
17
100
AcDbEntity
  8
eps
100
AcDbLine
 10
-465.0
 20
-150.0
 30
0.0
 11
-265.0
 21
-150.0
 31
0.0
  0
LINE
  5
36
330
17
100
AcDbEntity
  8
eps
100
AcDbLine
 10
-265.0
 20
-150.0
 30
0.0
 11
-265.0
 21
3200.0
 31
0.0
  0
LINE
  5
37
330
17
100
AcDbEntity
  8
eps
100
AcDbLine
 10
-265.0
 20
3200.0
 30
0.0
 11
-465.0
 21
3200.0
 31
0.0
  0
LINE
  5
38
330
17
100
AcDbEntity
  8
eps
100
AcDbLine
 10
-465.0
 20
3200.0
 30
0.0
 11
-465.0
 21
-150.0
 31
0.0
  0
LINE
  5
39
330
17
100
AcDbEntity
  8
eps
100
AcDbLine
 10
5615.0
 20
-150.0
 30
0.0
 11
5815.0
 21
-150.0
 31
0.0
  0
LINE
  5
3A
330
17
100
AcDbEntity
  8
eps
100
AcDbLine
 10
5815.0
 20
-150.0
 30
0.0
 11
5815.0
 21
3200.0
 31
0.0
  0
LINE
  5
3B
330
17
100
AcDbEntity
  8
eps
100
AcDbLine
 10
5815.0
 20
3200.0
 30
0.0
 11
5615.0
 21
3200.0
 31
0.0
  0
LINE
  5
3C
330
17
100
AcDbEntity
  8
eps
100
AcDbLine
 10
5615.0
 20
3200.0
 30
0.0
 11
5615.0
 21
-150.0
 31
0.0
  0
LINE
  5
3E
330
17
100
AcDbEntity
  8
zdivo
100
AcDbLine
 10
-265.0
 20
-150.0
 30
0.0
 11
-15.0
 21
-150.0
 31
0.0
  0
LINE
  5
3F
330
17
100
AcDbEntity
  8
zdivo
100
AcDbLine
 10
-15.0
 20
-150.0
 30
0.0
 11
-15.0
 21
3200.0
 31
0.0
  0
LINE
  5
40
330
17
100
AcDbEntity
  8
zdivo
100
AcDbLine
 10
-15.0
 20
3200.0
 30
0.0
 11
-265.0
 21
3200.0
 31
0.0
  0
LINE
  5
41
330
17
100
AcDbEntity
  8
zdivo
100
AcDbLine
 10
-265.0
 20
3200.0
 30
0.0
 11
-265.0
 21
-150.0
 31
0.0
  0
LINE
  5
42
330
17
100
AcDbEntity
  8
zdivo
100
AcDbLine
 10
5365.0
 20
-150.0
 30
0.0
 11
5615.0
 21
-150.0
 31
0.0
  0
LINE
  5
43
330
17
100
AcDbEntity
  8
zdivo
100
AcDbLine
 10
5615.0
 20
-150.0
 30
0.0
 11
5615.0
 21
3200.0
 31
0.0
  0
LINE
  5
44
330
17
100
AcDbEntity
  8
zdivo
100
AcDbLine
 10
5615.0
 20
3200.0
 30
0.0
 11
5365.0
 21
3200.0
 31
0.0
  0
LINE
  5
45
330
17
100
AcDbEntity
  8
zdivo
100
AcDbLine
 10
5365.0
 20
3200.0
 30
0.0
 11
5365.0
 21
-150.0
 31
0.0
  0
LINE
  5
47
330
17
100
AcDbEntity
  8
omitka
100
AcDbLine
 10
-15.0
 20
0.0
 30
0.0
 11
0.0
 21
0.0
 31
0.0
  0
LINE
  5
48
330
17
100
AcDbEntity
  8
omitka
100
AcDbLine
 10
0.0
 20
0.0
 30
0.0
 11
0.0
 21
3200.0
 31
0.0
  0
LINE
  5
49
330
17
100
AcDbEntity
  8
omitka
100
AcDbLine
 10
0.0
 20
3200.0
 30
0.0
 11
-15.0
 21
3200.0
 31
0.0
  0
LINE
  5
4A
330
17
100
AcDbEntity
  8
omitka
100
AcDbLine
 10
-15.0
 20
3200.0
 30
0.0
 11
-15.0
 21
0.0
 31
0.0
  0
LINE
  5
4B
330
17
100
AcDbEntity
  8
omitka
100
AcDbLine
 10
5350.0
 20
0.0
 30
0.0
 11
5365.0
 21
0.0
 31
0.0
  0
LINE
  5
4C
330
17
100
AcDbEntity
  8
omitka
100
AcDbLine
 10
5365.0
 20
0.0
 30
0.0
 11
5365.0
 21
3200.0
 31
0.0
  0
LINE
  5
4D
330
17
100
AcDbEntity
  8
omitka
100
AcDbLine
 10
5365.0
 20
3200.0
 30
0.0
 11
5350.0
 21
3200.0
 31
0.0
  0
LINE
  5
4E
330
17
100
AcDbEntity
  8
omitka
100
AcDbLine
 10
5350.0
 20
3200.0
 30
0.0
 11
5350.0
 21
0.0
 31
0.0
  0
LINE
  5
50
330
17
100
AcDbEntity
  8
vata
100
AcDbLine
 10
0.0
 20
3079.329348999868
 30
0.0
 11
2450.0
 21
5135.1234453842035
 31
0.0
  0
LINE
  5
51
330
17
100
AcDbEntity
  8
vata
100
AcDbLine
 10
2450.0
 20
5135.1234453842035
 30
0.0
 11
4900.0
 21
3079.329348999868
 31
0.0
  0
LINE
  5
52
330
17
100
AcDbEntity
  8
vata
100
AcDbLine
 10
4900.0
 20
3079.329348999868
 30
0.0
 11
4900.0
 21
2903.1979956913538
 31
0.0
  0
LINE
  5
53
330
17
100
AcDbEntity
  8
vata
100
AcDbLine
 10
4900.0
 20
2903.1979956913538
 30
0.0
 11
5350.0
 21
2903.1979956913538
 31
0.0
  0
LINE
  5
54
330
17
100
AcDbEntity
  8
vata
100
AcDbLine
 10
5350.0
 20
2903.1979956913538
 30
0.0
 11
5350.0
 21
3209.8700779330957
 31
0.0
  0
LINE
  5
55
330
17
100
AcDbEntity
  8
vata
100
AcDbLine
 10
5350.0
 20
3209.8700779330957
 30
0.0
 11
2675.0
 21
5454.46159133232
 31
0.0
  0
LINE
  5
56
330
17
100
AcDbEntity
  8
vata
100
AcDbLine
 10
2675.0
 20
5454.46159133232
 30
0.0
 11
0.0
 21
3209.8700779330957
 31
0.0
  0
LINE
  5
57
330
17
100
AcDbEntity
  8
vata
100
AcDbLine
 10
0.0
 20
3209.8700779330957
 30
0.0
 11
0.0
 21
3079.329348999868
 31
0.0
  0
LINE
  5
59
330
17
100
AcDbEntity
  8
nabytek
100
AcDbLine
 10
4900.0
 20
0.0
 30
0.0
 11
5350.0
 21
0.0
 31
0.0
  0
LINE
  5
5A
330
17
100
AcDbEntity
  8
nabytek
100
AcDbLine
 10
5350.0
 20
0.0
 30
0.0
 11
5350.0
 21
2450.0
 31
0.0
  0
LINE
  5
5B
330
17
100
AcDbEntity
  8
nabytek
100
AcDbLine
 10
5350.0
 20
2450.0
 30
0.0
 11
4900.0
 21
2450.0
 31
0.0
  0
LINE
  5
5C
330
17
100
AcDbEntity
  8
nabytek
100
AcDbLine
 10
4900.0
 20
2450.0
 30
0.0
 11
4900.0
 21
0.0
 31
0.0
  0
LINE
  5
5E
330
17
100
AcDbEntity
  8
sdk
100
AcDbLine
 10
0.0
 20
3027.765761071243
 30
0.0
 11
2450.0
 21
5083.559857455579
 31
0.0
  0
LINE
  5
5F
330
17
100
AcDbEntity
  8
sdk
100
AcDbLine
 10
2450.0
 20
5083.559857455579
 30
0.0
 11
4900.0
 21
3027.765761071243
 31
0.0
  0
LINE
  5
60
330
17
100
AcDbEntity
  8
sdk
100
AcDbLine
 10
4900.0
 20
3027.765761071243
 30
0.0
 11
4900.0
 21
3044.0833521878967
 31
0.0
  0
LINE
  5
61
330
17
100
AcDbEntity
  8
sdk
100
AcDbLine
 10
4900.0
 20
3044.0833521878967
 30
0.0
 11
2450.0
 21
5099.877448572232
 31
0.0
  0
LINE
  5
62
330
17
100
AcDbEntity
  8
sdk
100
AcDbLine
 10
2450.0
 20
5099.877448572232
 30
0.0
 11
0.0
 21
3044.0833521878967
 31
0.0
  0
LINE
  5
63
330
17
100
AcDbEntity
  8
sdk
100
AcDbLine
 10
0.0
 20
3044.0833521878967
 30
0.0
 11
0.0
 21
3027.765761071243
 31
0.0
  0
LINE
  5
64
330
17
100
AcDbEntity
  8
sdk
100
AcDbLine
 10
4900.0
 20
2890.6979956913538
 30
0.0
 11
5350.0
 21
2890.6979956913538
 31
0.0
  0
LINE
  5
65
330
17
100
AcDbEntity
  8
sdk
100
AcDbLine
 10
5350.0
 20
2890.6979956913538
 30
0.0
 11
5350.0
 21
2903.1979956913538
 31
0.0
  0
LINE
  5
66
330
17
100
AcDbEntity
  8
sdk
100
AcDbLine
 10
5350.0
 20
2903.1979956913538
 30
0.0
 11
4900.0
 21
2903.1979956913538
 31
0.0
  0
LINE
  5
67
330
17
100
AcDbEntity
  8
sdk
100
AcDbLine
 10
4900.0
 20
2903.1979956913538
 30
0.0
 11
4900.0
 21
2890.6979956913538
 31
0.0
  0
LINE
  5
69
330
17
100
AcDbEntity
  8
pozednice
100
AcDbLine
 10
-155.0
 20
3200.0
 30
0.0
 11
-15.0
 21
3200.0
 31
0.0
  0
LINE
  5
6A
330
17
100
AcDbEntity
  8
pozednice
100
AcDbLine
 10
-15.0
 20
3200.0
 30
0.0
 11
-15.0
 21
3300.0
 31
0.0
  0
LINE
  5
6B
330
17
100
AcDbEntity
  8
pozednice
100
AcDbLine
 10
-15.0
 20
3300.0
 30
0.0
 11
-155.0
 21
3300.0
 31
0.0
  0
LINE
  5
6C
330
17
100
AcDbEntity
  8
pozednice
100
AcDbLine
 10
-155.0
 20
3300.0
 30
0.0
 11
-155.0
 21
3200.0
 31
0.0
  0
LINE
  5
6D
330
17
100
AcDbEntity
  8
pozednice
100
AcDbLine
 10
5365.0
 20
3200.0
 30
0.0
 11
5505.0
 21
3200.0
 31
0.0
  0
LINE
  5
6E
330
17
100
AcDbEntity
  8
pozednice
100
AcDbLine
 10
5505.0
 20
3200.0
 30
0.0
 11
5505.0
 21
3300.0
 31
0.0
  0
LINE
  5
6F
330
17
100
AcDbEntity
  8
pozednice
100
AcDbLine
 10
5505.0
 20
3300.0
 30
0.0
 11
5365.0
 21
3300.0
 31
0.0
  0
LINE
  5
70
330
17
100
AcDbEntity
  8
pozednice
100
AcDbLine
 10
5365.0
 20
3300.0
 30
0.0
 11
5365.0
 21
3200.0
 31
0.0
  0
LINE
  5
72
330
17
100
AcDbEntity
  8
krov
100
AcDbLine
 10
-745.0
 20
2793.6060189991867
 30
0.0
 11
2674.9999999999995
 21
5663.326757625484
 31
0.0
  0
LINE
  5
73
330
17
100
AcDbEntity
  8
krov
100
AcDbLine
 10
2675.0
 20
5663.326757625484
 30
0.0
 11
6095.0
 21
2793.6060189991867
 31
0.0
  0
LINE
  5
74
330
17
100
AcDbEntity
  8
krov
100
AcDbLine
 10
6095.0
 20
2793.6060189991867
 30
0.0
 11
6095.0
 21
2584.740852706022
 31
0.0
  0
LINE
  5
75
330
17
100
AcDbEntity
  8
krov
100
AcDbLine
 10
6095.0
 20
2584.740852706022
 30
0.0
 11
2675.0
 21
5454.46159133232
 31
0.0
  0
LINE
  5
76
330
17
100
AcDbEntity
  8
krov
100
AcDbLine
 10
2675.0
 20
5454.46159133232
 30
0.0
 11
-745.0
 21
2584.7408527060225
 31
0.0
  0
LINE
  5
77
330
17
100
AcDbEntity
  8
krov
100
AcDbLine
 10
-745.0
 20
2584.740852706022
 30
0.0
 11
-745.0
 21
2793.6060189991867
 31
0.0
  0
LINE
  5
79
330
17
100
AcDbEntity
  8
dreveny_rost
100
AcDbLine
 10
0.0
 20
2948.135916421974
 30
0.0
 11
2450.0
 21
5003.93001280631
 31
0.0
  0
LINE
  5
7A
330
17
100
AcDbEntity
  8
dreveny_rost
100
AcDbLine
 10
2450.0
 20
5003.93001280631
 30
0.0
 11
4900.0
 21
2948.135916421974
 31
0.0
  0
LINE
  5
7B
330
17
100
AcDbEntity
  8
dreveny_rost
100
AcDbLine
 10
4900.0
 20
2948.135916421974
 30
0.0
 11
4900.0
 21
3000.352207995265
 31
0.0
  0
LINE
  5
7C
330
17
100
AcDbEntity
  8
dreveny_rost
100
AcDbLine
 10
4900.0
 20
3000.352207995265
 30
0.0
 11
2450.0
 21
5056.146304379601
 31
0.0
  0
LINE
  5
7D
330
17
100
AcDbEntity
  8
dreveny_rost
100
AcDbLine
 10
2450.0
 20
5056.146304379601
 30
0.0
 11
0.0
 21
3000.352207995265
 31
0.0
  0
LINE
  5
7E
330
17
100
AcDbEntity
  8
dreveny_rost
100
AcDbLine
 10
0.0
 20
3000.352207995265
 30
0.0
 11
0.0
 21
2948.135916421974
 31
0.0
  0
LINE
  5
7F
330
17
100
AcDbEntity
  8
dreveny_rost
100
AcDbLine
 10
4944.0
 20
2514.0
 30
0.0
 11
4984.0
 21
2514.0
 31
0.0
  0
LINE
  5
80
330
17
100
AcDbEntity
  8
dreveny_rost
100
AcDbLine
 10
4984.0
 20
2514.0
 30
0.0
 11
4984.0
 21
2886.6979956913538
 31
0.0
  0
LINE
  5
81
330
17
100
AcDbEntity
  8
dreveny_rost
100
AcDbLine
 10
4984.0
 20
2886.6979956913538
 30
0.0
 11
4944.0
 21
2886.6979956913538
 31
0.0
  0
LINE
  5
82
330
17
100
AcDbEntity
  8
dreveny_rost
100
AcDbLine
 10
4944.0
 20
2886.6979956913538
 30
0.0
 11
4944.0
 21
2514.0
 31
0.0
  0
LINE
  5
83
330
17
100
AcDbEntity
  8
dreveny_rost
100
AcDbLine
 10
4984.0
 20
2514.0
 30
0.0
 11
5335.0
 21
2514.0
 31
0.0
  0
LINE
  5
84
330
17
100
AcDbEntity
  8
dreveny_rost
100
AcDbLine
 10
5335.0
 20
2514.0
 30
0.0
 11
5335.0
 21
2554.0
 31
0.0
  0
LINE
  5
85
330
17
100
AcDbEntity
  8
dreveny_rost
100
AcDbLine
 10
5335.0
 20
2554.0
 30
0.0
 11
4984.0
 21
2554.0
 31
0.0
  0
LINE
  5
86
330
17
100
AcDbEntity
  8
dreveny_rost
100
AcDbLine
 10
4984.0
 20
2554.0
 30
0.0
 11
4984.0
 21
2514.0
 31
0.0
  0
LINE
  5
88
330
17
100
AcDbEntity
  8
cd
100
AcDbLine
 10
449.2128993983316
 20
3421.017730393113
 30
0.0
 11
495.17556598547026
 21
3459.584986974305
 31
0.0
  0
LINE
  5
89
330
17
100
AcDbEntity
  8
cd
100
AcDbLine
 10
495.17556598547026
 20
3459.584986974305
 30
0.0
 11
477.8203005239337
 21
3480.2681869385174
 31
0.0
  0
LINE
  5
8A
330
17
100
AcDbEntity
  8
cd
100
AcDbLine
 10
477.8203005239337
 20
3480.2681869385174
 30
0.0
 11
431.8576339367951
 21
3441.7009303573254
 31
0.0
  0
LINE
  5
8B
330
17
100
AcDbEntity
  8
cd
100
AcDbLine
 10
431.8576339367951
 20
3441.7009303573254
 30
0.0
 11
449.2128993983316
 21
3421.017730393113
 31
0.0
  0
LINE
  5
8C
330
17
100
AcDbEntity
  8
cd
100
AcDbLine
 10
927.9906763476927
 20
3822.7599864472004
 30
0.0
 11
973.9533429348314
 21
3861.3272430283923
 31
0.0
  0
LINE
  5
8D
330
17
100
AcDbEntity
  8
cd
100
AcDbLine
 10
973.9533429348314
 20
3861.3272430283923
 30
0.0
 11
956.5980774732949
 21
3882.0104429926046
 31
0.0
  0
LINE
  5
8E
330
17
100
AcDbEntity
  8
cd
100
AcDbLine
 10
956.5980774732949
 20
3882.0104429926046
 30
0.0
 11
910.6354108861561
 21
3843.4431864114126
 31
0.0
  0
LINE
  5
8F
330
17
100
AcDbEntity
  8
cd
100
AcDbLine
 10
910.6354108861561
 20
3843.4431864114126
 30
0.0
 11
927.9906763476927
 21
3822.7599864472004
 31
0.0
  0
LINE
  5
90
330
17
100
AcDbEntity
  8
cd
100
AcDbLine
 10
1406.768453297054
 20
4224.502242501288
 30
0.0
 11
1452.7311198841928
 21
4263.06949908248
 31
0.0
  0
LINE
  5
91
330
17
100
AcDbEntity
  8
cd
100
AcDbLine
 10
1452.7311198841928
 20
4263.06949908248
 30
0.0
 11
1435.3758544226562
 21
4283.752699046693
 31
0.0
  0
LINE
  5
92
330
17
100
AcDbEntity
  8
cd
100
AcDbLine
 10
1435.3758544226562
 20
4283.752699046693
 30
0.0
 11
1389.4131878355174
 21
4245.1854424655
 31
0.0
  0
LINE
  5
93
330
17
100
AcDbEntity
  8
cd
100
AcDbLine
 10
1389.4131878355174
 20
4245.1854424655
 30
0.0
 11
1406.768453297054
 21
4224.502242501288
 31
0.0
  0
LINE
  5
94
330
17
100
AcDbEntity
  8
cd
100
AcDbLine
 10
1885.5462302464152
 20
4626.244498555374
 30
0.0
 11
1931.508896833554
 21
4664.811755136567
 31
0.0
  0
LINE
  5
95
330
17
100
AcDbEntity
  8
cd
100
AcDbLine
 10
1931.508896833554
 20
4664.811755136567
 30
0.0
 11
1914.1536313720173
 21
4685.494955100779
 31
0.0
  0
LINE
  5
96
330
17
100
AcDbEntity
  8
cd
100
AcDbLine
 10
1914.1536313720173
 20
4685.494955100779
 30
0.0
 11
1868.1909647848786
 21
4646.927698519587
 31
0.0
  0
LINE
  5
97
330
17
100
AcDbEntity
  8
cd
100
AcDbLine
 10
1868.1909647848786
 20
4646.927698519587
 30
0.0
 11
1885.5462302464152
 21
4626.244498555374
 31
0.0
  0
LINE
  5
98
330
17
100
AcDbEntity
  8
cd
100
AcDbLine
 10
2515.3790954721135
 20
5045.0178736748785
 30
0.0
 11
2561.341762059252
 21
5006.450617093686
 31
0.0
  0
LINE
  5
99
330
17
100
AcDbEntity
  8
cd
100
AcDbLine
 10
2561.341762059252
 20
5006.450617093686
 30
0.0
 11
2578.697027520788
 21
5027.133817057898
 31
0.0
  0
LINE
  5
9A
330
17
100
AcDbEntity
  8
cd
100
AcDbLine
 10
2578.697027520788
 20
5027.133817057898
 30
0.0
 11
2532.73436093365
 21
5065.701073639091
 31
0.0
  0
LINE
  5
9B
330
17
100
AcDbEntity
  8
cd
100
AcDbLine
 10
2532.73436093365
 20
5065.701073639091
 30
0.0
 11
2515.3790954721135
 21
5045.0178736748785
 31
0.0
  0
LINE
  5
9C
330
17
100
AcDbEntity
  8
cd
100
AcDbLine
 10
2994.156872421475
 20
4643.275617620791
 30
0.0
 11
3040.119539008613
 21
4604.7083610395985
 31
0.0
  0
LINE
  5
9D
330
17
100
AcDbEntity
  8
cd
100
AcDbLine
 10
3040.119539008613
 20
4604.7083610395985
 30
0.0
 11
3057.4748044701496
 21
4625.391561003811
 31
0.0
  0
LINE
  5
9E
330
17
100
AcDbEntity
  8
cd
100
AcDbLine
 10
3057.4748044701496
 20
4625.391561003811
 30
0.0
 11
3011.5121378830113
 21
4663.958817585004
 31
0.0
  0
LINE
  5
9F
330
17
100
AcDbEntity
  8
cd
100
AcDbLine
 10
3011.5121378830113
 20
4663.958817585004
 30
0.0
 11
2994.156872421475
 21
4643.275617620791
 31
0.0
  0
LINE
  5
A0
330
17
100
AcDbEntity
  8
cd
100
AcDbLine
 10
3472.9346493708363
 20
4241.533361566704
 30
0.0
 11
3518.8973159579746
 21
4202.966104985511
 31
0.0
  0
LINE
  5
A1
330
17
100
AcDbEntity
  8
cd
100
AcDbLine
 10
3518.8973159579746
 20
4202.966104985511
 30
0.0
 11
3536.252581419511
 21
4223.649304949724
 31
0.0
  0
LINE
  5
A2
330
17
100
AcDbEntity
  8
cd
100
AcDbLine
 10
3536.252581419511
 20
4223.649304949724
 30
0.0
 11
3490.2899148323727
 21
4262.216561530917
 31
0.0
  0
LINE
  5
A3
330
17
100
AcDbEntity
  8
cd
100
AcDbLine
 10
3490.2899148323727
 20
4262.216561530917
 30
0.0
 11
3472.9346493708363
 21
4241.533361566704
 31
0.0
  0
LINE
  5
A4
330
17
100
AcDbEntity
  8
cd
100
AcDbLine
 10
3951.712426320197
 20
3839.791105512616
 30
0.0
 11
3997.6750929073355
 21
3801.223848931424
 31
0.0
  0
LINE
  5
A5
330
17
100
AcDbEntity
  8
cd
100
AcDbLine
 10
3997.6750929073355
 20
3801.223848931424
 30
0.0
 11
4015.030358368872
 21
3821.9070488956363
 31
0.0
  0
LINE
  5
A6
330
17
100
AcDbEntity
  8
cd
100
AcDbLine
 10
4015.030358368872
 20
3821.9070488956363
 30
0.0
 11
3969.0676917817336
 21
3860.4743054768282
 31
0.0
  0
LINE
  5
A7
330
17
100
AcDbEntity
  8
cd
100
AcDbLine
 10
3969.0676917817336
 20
3860.4743054768282
 30
0.0
 11
3951.712426320197
 21
3839.791105512616
 31
0.0
  0
LINE
  5
A8
330
17
100
AcDbEntity
  8
cd
100
AcDbLine
 10
4430.490203269559
 20
3438.0488494585293
 30
0.0
 11
4476.452869856697
 21
3399.4815928773373
 31
0.0
  0
LINE
  5
A9
330
17
100
AcDbEntity
  8
cd
100
AcDbLine
 10
4476.452869856697
 20
3399.4815928773373
 30
0.0
 11
4493.808135318234
 21
3420.1647928415496
 31
0.0
  0
LINE
  5
AA
330
17
100
AcDbEntity
  8
cd
100
AcDbLine
 10
4493.808135318234
 20
3420.1647928415496
 30
0.0
 11
4447.845468731096
 21
3458.7320494227415
 31
0.0
  0
LINE
  5
AB
330
17
100
AcDbEntity
  8
cd
100
AcDbLine
 10
4447.845468731096
 20
3458.7320494227415
 30
0.0
 11
4430.490203269559
 21
3438.0488494585293
 31
0.0
  0
LINE
  5
AD
330
17
100
AcDbEntity
  8
zaves
100
AcDbLine
 10
925.9562997485357
 20
3856.298938605143
 30
0.0
 11
941.2771886109153
 21
3869.154690798874
 31
0.0
  0
LINE
  5
AE
330
17
100
AcDbEntity
  8
zaves
100
AcDbLine
 10
941.2771886109153
 20
3869.154690798874
 30
0.0
 11
878.2840028616347
 21
3944.2270462245338
 31
0.0
  0
LINE
  5
AF
330
17
100
AcDbEntity
  8
zaves
100
AcDbLine
 10
878.2840028616347
 20
3944.2270462245338
 30
0.0
 11
862.963113999255
 21
3931.371294030803
 31
0.0
  0
LINE
  5
B0
330
17
100
AcDbEntity
  8
zaves
100
AcDbLine
 10
862.963113999255
 20
3931.371294030803
 30
0.0
 11
925.9562997485357
 21
3856.298938605143
 31
0.0
  0
LINE
  5
B1
330
17
100
AcDbEntity
  8
zaves
100
AcDbLine
 10
1883.5118536472585
 20
4659.783450713317
 30
0.0
 11
1898.832742509638
 21
4672.639202907048
 31
0.0
  0
LINE
  5
B2
330
17
100
AcDbEntity
  8
zaves
100
AcDbLine
 10
1898.832742509638
 20
4672.639202907048
 30
0.0
 11
1835.8395567603566
 21
4747.711558332708
 31
0.0
  0
LINE
  5
B3
330
17
100
AcDbEntity
  8
zaves
100
AcDbLine
 10
1835.8395567603566
 20
4747.711558332708
 30
0.0
 11
1820.5186678979771
 21
4734.855806138977
 31
0.0
  0
LINE
  5
B4
330
17
100
AcDbEntity
  8
zaves
100
AcDbLine
 10
1820.5186678979771
 20
4734.855806138977
 30
0.0
 11
1883.5118536472585
 21
4659.783450713317
 31
0.0
  0
LINE
  5
B5
330
17
100
AcDbEntity
  8
zaves
100
AcDbLine
 10
3026.833026745391
 20
4651.103065391272
 30
0.0
 11
3042.1539156077706
 21
4638.247313197541
 31
0.0
  0
LINE
  5
B6
330
17
100
AcDbEntity
  8
zaves
100
AcDbLine
 10
3042.1539156077706
 20
4638.247313197541
 30
0.0
 11
3291.0762613819925
 21
4934.901413050948
 31
0.0
  0
LINE
  5
B7
330
17
100
AcDbEntity
  8
zaves
100
AcDbLine
 10
3291.0762613819925
 20
4934.901413050948
 30
0.0
 11
3275.755372519613
 21
4947.757165244679
 31
0.0
  0
LINE
  5
B8
330
17
100
AcDbEntity
  8
zaves
100
AcDbLine
 10
3275.755372519613
 20
4947.757165244679
 30
0.0
 11
3026.833026745391
 21
4651.103065391272
 31
0.0
  0
LINE
  5
B9
330
17
100
AcDbEntity
  8
zaves
100
AcDbLine
 10
3984.3885806441135
 20
3847.6185532830978
 30
0.0
 11
3999.709469506493
 21
3834.762801089367
 31
0.0
  0
LINE
  5
BA
330
17
100
AcDbEntity
  8
zaves
100
AcDbLine
 10
3999.709469506493
 20
3834.762801089367
 30
0.0
 11
4248.631815280714
 21
4131.416900942773
 31
0.0
  0
LINE
  5
BB
330
17
100
AcDbEntity
  8
zaves
100
AcDbLine
 10
4248.631815280714
 20
4131.416900942773
 30
0.0
 11
4233.310926418335
 21
4144.272653136504
 31
0.0
  0
LINE
  5
BC
330
17
100
AcDbEntity
  8
zaves
100
AcDbLine
 10
4233.310926418335
 20
4144.272653136504
 30
0.0
 11
3984.3885806441135
 21
3847.6185532830978
 31
0.0
  0
LINE
  5
BE
330
17
100
AcDbEntity
  8
paska
100
AcDbLine
 10
376.5248926187041
 20
3523.2011618798506
 30
0.0
 11
407.1666703434632
 21
3548.9126662673125
 31
0.0
  0
LINE
  5
BF
330
17
100
AcDbEntity
  8
paska
100
AcDbLine
 10
407.1666703434632
 20
3548.9126662673125
 30
0.0
 11
405.8810951240901
 21
3550.4447551535504
 31
0.0
  0
LINE
  5
C0
330
17
100
AcDbEntity
  8
paska
100
AcDbLine
 10
405.8810951240901
 20
3550.4447551535504
 30
0.0
 11
375.239317399331
 21
3524.7332507660885
 31
0.0
  0
LINE
  5
C1
330
17
100
AcDbEntity
  8
paska
100
AcDbLine
 10
375.239317399331
 20
3524.7332507660885
 30
0.0
 11
376.5248926187041
 21
3523.2011618798506
 31
0.0
  0
LINE
  5
C2
330
17
100
AcDbEntity
  8
paska
100
AcDbLine
 10
1812.8582234667872
 20
4728.427930042111
 30
0.0
 11
1843.5000011915465
 21
4754.139434429573
 31
0.0
  0
LINE
  5
C3
330
17
100
AcDbEntity
  8
paska
100
AcDbLine
 10
1843.5000011915465
 20
4754.139434429573
 30
0.0
 11
1842.2144259721733
 21
4755.671523315811
 31
0.0
  0
LINE
  5
C4
330
17
100
AcDbEntity
  8
paska
100
AcDbLine
 10
1842.2144259721733
 20
4755.671523315811
 30
0.0
 11
1811.572648247414
 21
4729.960018928349
 31
0.0
  0
LINE
  5
C5
330
17
100
AcDbEntity
  8
paska
100
AcDbLine
 10
1811.572648247414
 20
4729.960018928349
 30
0.0
 11
1812.8582234667872
 21
4728.427930042111
 31
0.0
  0
LINE
  5
C6
330
17
100
AcDbEntity
  8
paska
100
AcDbLine
 10
3746.8727050377843
 20
4552.442785287458
 30
0.0
 11
3777.514482762543
 21
4526.731280899996
 31
0.0
  0
LINE
  5
C7
330
17
100
AcDbEntity
  8
paska
100
AcDbLine
 10
3777.514482762543
 20
4526.731280899996
 30
0.0
 11
3778.8000579819163
 21
4528.263369786234
 31
0.0
  0
LINE
  5
C8
330
17
100
AcDbEntity
  8
paska
100
AcDbLine
 10
3778.8000579819163
 20
4528.263369786234
 30
0.0
 11
3748.1582802571575
 21
4553.974874173696
 31
0.0
  0
LINE
  5
C9
330
17
100
AcDbEntity
  8
paska
100
AcDbLine
 10
3748.1582802571575
 20
4553.974874173696
 30
0.0
 11
3746.8727050377843
 21
4552.442785287458
 31
0.0
  0
LINE
  5
CB
330
17
100
AcDbEntity
  8
NaturHeld Flex 50
100
AcDbLine
 10
0.0
 20
2948.135916421974
 30
0.0
 11
2450.0
 21
5003.93001280631
 31
0.0
  0
LINE
  5
CC
330
17
100
AcDbEntity
  8
NaturHeld Flex 50
100
AcDbLine
 10
2450.0
 20
5003.93001280631
 30
0.0
 11
4900.0
 21
2948.135916421974
 31
0.0
  0
LINE
  5
CD
330
17
100
AcDbEntity
  8
NaturHeld Flex 50
100
AcDbLine
 10
4900.0
 20
2948.135916421974
 30
0.0
 11
4900.0
 21
3027.765761071243
 31
0.0
  0
LINE
  5
CE
330
17
100
AcDbEntity
  8
NaturHeld Flex 50
100
AcDbLine
 10
4900.0
 20
3027.765761071243
 30
0.0
 11
2450.0
 21
5083.559857455579
 31
0.0
  0
LINE
  5
CF
330
17
100
AcDbEntity
  8
NaturHeld Flex 50
100
AcDbLine
 10
2450.0
 20
5083.559857455579
 30
0.0
 11
0.0
 21
3027.765761071243
 31
0.0
  0
LINE
  5
D0
330
17
100
AcDbEntity
  8
NaturHeld Flex 50
100
AcDbLine
 10
0.0
 20
3027.765761071243
 30
0.0
 11
0.0
 21
2948.135916421974
 31
0.0
  0
LINE
  5
D1
330
17
100
AcDbEntity
  8
NaturHeld Flex 50
100
AcDbLine
 10
4944.0
 20
2514.0
 30
0.0
 11
5350.0
 21
2514.0
 31
0.0
  0
LINE
  5
D2
330
17
100
AcDbEntity
  8
NaturHeld Flex 50
100
AcDbLine
 10
5350.0
 20
2514.0
 30
0.0
 11
5350.0
 21
2890.6979956913538
 31
0.0
  0
LINE
  5
D3
330
17
100
AcDbEntity
  8
NaturHeld Flex 50
100
AcDbLine
 10
5350.0
 20
2890.6979956913538
 30
0.0
 11
4944.0
 21
2890.6979956913538
 31
0.0
  0
LINE
  5
D4
330
17
100
AcDbEntity
  8
NaturHeld Flex 50
100
AcDbLine
 10
4944.0
 20
2890.6979956913538
 30
0.0
 11
4944.0
 21
2514.0
 31
0.0
  0
LINE
  5
D6
330
17
100
AcDbEntity
  8
NaturHeld 140
100
AcDbLine
 10
0.0
 20
2890.6979956913538
 30
0.0
 11
2450.0
 21
4946.4920920756895
 31
0.0
  0
LINE
  5
D7
330
17
100
AcDbEntity
  8
NaturHeld 140
100
AcDbLine
 10
2450.0
 20
4946.4920920756895
 30
0.0
 11
4900.0
 21
2890.6979956913538
 31
0.0
  0
LINE
  5
D8
330
17
100
AcDbEntity
  8
NaturHeld 140
100
AcDbLine
 10
4900.0
 20
2890.6979956913538
 30
0.0
 11
4900.0
 21
2948.135916421974
 31
0.0
  0
LINE
  5
D9
330
17
100
AcDbEntity
  8
NaturHeld 140
100
AcDbLine
 10
4900.0
 20
2948.135916421974
 30
0.0
 11
2450.0
 21
5003.93001280631
 31
0.0
  0
LINE
  5
DA
330
17
100
AcDbEntity
  8
NaturHeld 140
100
AcDbLine
 10
2450.0
 20
5003.93001280631
 30
0.0
 11
0.0
 21
2948.135916421974
 31
0.0
  0
LINE
  5
DB
330
17
100
AcDbEntity
  8
NaturHeld 140
100
AcDbLine
 10
0.0
 20
2948.135916421974
 30
0.0
 11
0.0
 21
2890.6979956913538
 31
0.0
  0
LINE
  5
DC
330
17
100
AcDbEntity
  8
NaturHeld 140
100
AcDbLine
 10
4900.0
 20
2470.0
 30
0.0
 11
5350.0
 21
2470.0
 31
0.0
  0
LINE
  5
DD
330
17
100
AcDbEntity
  8
NaturHeld 140
100
AcDbLine
 10
5350.0
 20
2470.0
 30
0.0
 11
5350.0
 21
2514.0
 31
0.0
  0
LINE
  5
DE
330
17
100
AcDbEntity
  8
NaturHeld 140
100
AcDbLine
 10
5350.0
 20
2514.0
 30
0.0
 11
4944.0
 21
2514.0
 31
0.0
  0
LINE
  5
DF
330
17
100
AcDbEntity
  8
NaturHeld 140
100
AcDbLine
 10
4944.0
 20
2514.0
 30
0.0
 11
4944.0
 21
2890.6979956913538
 31
0.0
  0
LINE
  5
E0
330
17
100
AcDbEntity
  8
NaturHeld 140
100
AcDbLine
 10
4944.0
 20
2890.6979956913538
 30
0.0
 11
4900.0
 21
2890.6979956913538
 31
0.0
  0
LINE
  5
E1
330
17
100
AcDbEntity
  8
NaturHeld 140
100
AcDbLine
 10
4900.0
 20
2890.6979956913538
 30
0.0
 11
4900.0
 21
2470.0
 31
0.0
  0
LINE
  5
E2
330
17
100
AcDbEntity
  8
NaturHeld 140
100
AcDbLine
 10
4900.0
 20
2450.0
 30
0.0
 11
5350.0
 21
2450.0
 31
0.0
  0
LINE
  5
E3
330
17
100
AcDbEntity
  8
NaturHeld 140
100
AcDbLine
 10
5350.0
 20
2450.0
 30
0.0
 11
5350.0
 21
2470.0
 31
0.0
  0
LINE
  5
E4
330
17
100
AcDbEntity
  8
NaturHeld 140
100
AcDbLine
 10
5350.0
 20
2470.0
 30
0.0
 11
4900.0
 21
2470.0
 31
0.0
  0
LINE
  5
E5
330
17
100
AcDbEntity
  8
NaturHeld 140
100
AcDbLine
 10
0.0
 20
2890.6979956913538
 30
0.0
 11
2450.0
 21
4946.4920920756895
 31
0.0
  0
LINE
  5
E6
330
17
100
AcDbEntity
  8
NaturHeld 140
100
AcDbLine
 10
2450.0
 20
4946.4920920756895
 30
0.0
 11
4900.0
 21
2890.6979956913538
 31
0.0
  0
LINE
  5
E7
330
17
100
AcDbEntity
  8
NaturHeld 140
100
AcDbLine
 10
4900.0
 20
2890.6979956913538
 30
0.0
 11
4900.0
 21
2470.0
 31
0.0
  0
LINE
  5
E8
330
17
100
AcDbEntity
  8
NaturHeld 140
100
AcDbLine
 10
4900.0
 20
2470.0
 30
0.0
 11
5350.0
 21
2470.0
 31
0.0
  0
LINE
  5
EA
330
17
100
AcDbEntity
  8
krytina
100
AcDbLine
 10
-745.0
 20
2980.2792613737024
 30
0.0
 11
2675.0
 21
5850.0
 31
0.0
  0
LINE
  5
EB
330
17
100
AcDbEntity
  8
krytina
100
AcDbLine
 10
2675.0
 20
5850.0
 30
0.0
 11
6095.0
 21
2980.279261373703
 31
0.0
  0
ENDSEC
  0
SECTION
  2
OBJECTS
  0
DICTIONARY
  5
A
330
0
100
AcDbDictionary
281
1
  3
ACAD_COLOR
350
B
  3
ACAD_GROUP
350
C
  3
ACAD_LAYOUT
350
D
  3
ACAD_MATERIAL
350
E
  3
ACAD_MLEADERSTYLE
350
F
  3
ACAD_MLINESTYLE
350
10
  3
ACAD_PLOTSETTINGS
350
11
  3
ACAD_PLOTSTYLENAME
350
12
  3
ACAD_SCALELIST
350
14
  3
ACAD_TABLESTYLE
350
15
  3
ACAD_VISUALSTYLE
350
16
  3
EZDXF_META
350
2D
  0
DICTIONARY
  5
B
330
A
100
AcDbDictionary
281
1
  0
DICTIONARY
  5
C
330
A
100
AcDbDictionary
281
1
  0
DICTIONARY
  5
D
330
A
100
AcDbDictionary
281
1
  3
Model
350
1A
  3
Layout1
350
1E
  0
DICTIONARY
  5
E
330
A
100
AcDbDictionary
281
1
  3
ByBlock
350
1F
  3
ByLayer
350
20
  3
Global
350
21
  0
DICTIONARY
  5
F
330
A
100
AcDbDictionary
281
1
  3
Standard
350
2C
  0
DICTIONARY
  5
10
330
A
100
AcDbDictionary
281
1
  3
Standard
350
22
  0
DICTIONARY
  5
11
330
A
100
AcDbDictionary
281
1
  0
ACDBDICTIONARYWDFLT
  5
12
330
A
100
AcDbDictionary
281
1
  3
Normal
350
13
100
AcDbDictionaryWithDefault
340
13
  0
ACDBPLACEHOLDER
  5
13
330
12
  0
DICTIONARY
  5
14
330
A
100
AcDbDictionary
281
1
  0
DICTIONARY
  5
15
330
A
100
AcDbDictionary
281
1
  0
DICTIONARY
  5
16
330
A
100
AcDbDictionary
281
1
  0
LAYOUT
  5
1A
330
D
100
AcDbPlotSettings
  1

  4
A3
  6

 40
7.5
 41
20.0
 42
7.5
 43
20.0
 44
420.0
 45
297.0
 46
0.0
 47
0.0
 48
0.0
 49
0.0
140
0.0
141
0.0
142
1.0
143
1.0
 70
1024
 72
1
 73
0
 74
5
  7

 75
16
 76
0
 77
2
 78
300
147
1.0
148
0.0
149
0.0
100
AcDbLayout
  1
Model
 70
1
 71
0
 10
0.0
 20
0.0
 11
420.0
 21
297.0
 12
0.0
 22
0.0
 32
0.0
 14
1e+20
 24
1e+20
 34
1e+20
 15
-1e+20
 25
-1e+20
 35
-1e+20
146
0.0
 13
0.0
 23
0.0
 33
0.0
 16
1.0
 26
0.0
 36
0.0
 17
0.0
 27
1.0
 37
0.0
 76
1
330
17
  0
LAYOUT
  5
1E
330
D
100
AcDbPlotSettings
  1

  4
A3
  6

 40
7.5
 41
20.0
 42
7.5
 43
20.0
 44
420.0
 45
297.0
 46
0.0
 47
0.0
 48
0.0
 49
0.0
140
0.0
141
0.0
142
1.0
143
1.0
 70
0
 72
1
 73
0
 74
5
  7

 75
16
 76
0
 77
2
 78
300
147
1.0
148
0.0
149
0.0
100
AcDbLayout
  1
Layout1
 70
1
 71
1
 10
0.0
 20
0.0
 11
420.0
 21
297.0
 12
0.0
 22
0.0
 32
0.0
 14
1e+20
 24
1e+20
 34
1e+20
 15
-1e+20
 25
-1e+20
 35
-1e+20
146
0.0
 13
0.0
 23
0.0
 33
0.0
 16
1.0
 26
0.0
 36
0.0
 17
0.0
 27
1.0
 37
0.0
 76
1
330
1B
  0
MATERIAL
  5
1F
102
{ACAD_REACTORS
330
E
102
}
330
E
100
AcDbMaterial
  1
ByBlock
  2

 70
0
 40
1.0
 71
1
 41
1.0
 91
-1023410177
 42
1.0
 72
1
  3

 73
1
 74
1
 75
1
 44
0.5
 73
0
 45
1.0
 46
1.0
 77
1
  4

 78
1
 79
1
170
1
 48
1.0
171
1
  6

172
1
173
1
174
1
140
1.0
141
1.0
175
1
  7

176
1
177
1
178
1
143
1.0
179
1
  8

270
1
271
1
272
1
145
1.0
146
1.0
273
1
  9

274
1
275
1
276
1
 42
1.0
 72
1
  3

 73
1
 74
1
 75
1
 94
63
  0
MATERIAL
  5
20
102
{ACAD_REACTORS
330
E
102
}
330
E
100
AcDbMaterial
  1
ByLayer
  2

 70
0
 40
1.0
 71
1
 41
1.0
 91
-1023410177
 42
1.0
 72
1
  3

 73
1
 74
1
 75
1
 44
0.5
 73
0
 45
1.0
 46
1.0
 77
1
  4

 78
1
 79
1
170
1
 48
1.0
171
1
  6

172
1
173
1
174
1
140
1.0
141
1.0
175
1
  7

176
1
177
1
178
1
143
1.0
179
1
  8

270
1
271
1
272
1
145
1.0
146
1.0
273
1
  9

274
1
275
1
276
1
 42
1.0
 72
1
  3

 73
1
 74
1
 75
1
 94
63
  0
MATERIAL
  5
21
102
{ACAD_REACTORS
330
E
102
}
330
E
100
AcDbMaterial
  1
Global
  2

 70
0
 40
1.0
 71
1
 41
1.0
 91
-1023410177
 42
1.0
 72
1
  3

 73
1
 74
1
 75
1
 44
0.5
 73
0
 45
1.0
 46
1.0
 77
1
  4

 78
1
 79
1
170
1
 48
1.0
171
1
  6

172
1
173
1
174
1
140
1.0
141
1.0
175
1
  7

176
1
177
1
178
1
143
1.0
179
1
  8

270
1
271
1
272
1
145
1.0
146
1.0
273
1
  9

274
1
275
1
276
1
 42
1.0
 72
1
  3

 73
1
 74
1
 75
1
 94
63
  0
MLINESTYLE
  5
22
102
{ACAD_REACTORS
330
10
102
}
330
10
100
AcDbMlineStyle
  2
Standard
 70
0
  3

 62
256
 51
90.0
 52
90.0
 71
2
 49
0.5
 62
256
  6
BYLAYER
 49
-0.5
 62
256
  6
BYLAYER
  0
MLEADERSTYLE
  5
2C
102
{ACAD_REACTORS
330
F
102
}
330
F
100
AcDbMLeaderStyle
179
2
170
2
171
1
172
0
 90
2
 40
0.0
 41
0.0
173
1
 91
-1056964608
 92
-2
290
1
 42
2.0
291
1
 43
8.0
  3
Standard
 44
4.0
300

342
29
174
1
175
1
176
0
178
1
 93
-1056964608
 45
4.0
292
0
297
0
 46
4.0
 94
-1056964608
 47
1.0
 49
1.0
140
1.0
294
1
141
0.0
177
0
142
1.0
295
0
296
0
143
3.75
271
0
272
9
273
9
  0
DICTIONARY
  5
2D
330
A
100
AcDbDictionary
280
1
281
1
  3
CREATED_BY_EZDXF
350
2E
  3
WRITTEN_BY_EZDXF
350
EF
  0
DICTIONARYVAR
  5
2E
330
2D
100
DictionaryVariables
280
0
  1
1.4.4 @ 2026-09-19T07:44:00.573773+00:00
  0
DICTIONARYVAR
  5
EF
330
2D
100
DictionaryVariables
280
0
  1
1.4.4 @ 2026-09-19T07:44:00.587824+00:00
  0
ENDSEC
  0
EOF
