  0
SECTION
  2
HEADER
  9
$ACADVER
  1
AC1027
  9
$ACADMAINTVER
 70
105
  9
$DWGCODEPAGE
  3
ANSI_1252
  9
$LASTSAVEDBY
  1
ezdxf
  9
$REQUIREDVERSIONS
160
0
  9
$INSBASE
 10
0.0
 20
0.0
 30
0.0
  9
$EXTMIN
 10
1e+20
 20
1e+20
 30
1e+20
  9
$EXTMAX
 10
-1e+20
 20
-1e+20
 30
-1e+20
  9
$LIMMIN
 10
0.0
 20
0.0
  9
$LIMMAX
 10
420.0
 20
297.0
  9
$ORTHOMODE
 70
0
  9
$REGENMODE
 70
1
  9
$FILLMODE
 70
1
  9
$QTEXTMODE
 70
0
  9
$MIRRTEXT
 70
1
  9
$LTSCALE
 40
1.0
  9
$ATTMODE
 70
1
  9
$TEXTSIZE
 40
2.5
  9
$TRACEWID
 40
1.0
  9
$TEXTSTYLE
  7
Standard
  9
$CLAYER
  8
0
  9
$CELTYPE
  6
ByLayer
  9
$CECOLOR
 62
256
  9
$CELTSCALE
 40
1.0
  9
$DISPSILH
 70
0
  9
$DIMSCALE
 40
1.0
  9
$DIMASZ
 40
2.5
  9
$DIMEXO
 40
0.625
  9
$DIMDLI
 40
3.75
  9
$DIMRND
 40
0.0
  9
$DIMDLE
 40
0.0
  9
$DIMEXE
 40
1.25
  9
$DIMTP
 40
0.0
  9
$DIMTM
 40
0.0
  9
$DIMTXT
 40
2.5
  9
$DIMCEN
 40
2.5
  9
$DIMTSZ
 40
0.0
  9
$DIMTOL
 70
0
  9
$DIMLIM
 70
0
  9
$DIMTIH
 70
0
  9
$DIMTOH
 70
0
  9
$DIMSE1
 70
0
  9
$DIMSE2
 70
0
  9
$DIMTAD
 70
1
  9
$DIMZIN
 70
8
  9
$DIMBLK
  1

  9
$DIMASO
 70
1
  9
$DIMSHO
 70
1
  9
$DIMPOST
  1

  9
$DIMAPOST
  1

  9
$DIMALT
 70
0
  9
$DIMALTD
 70
3
  9
$DIMALTF
 40
0.03937007874
  9
$DIMLFAC
 40
1.0
  9
$DIMTOFL
 70
1
  9
$DIMTVP
 40
0.0
  9
$DIMTIX
 70
0
  9
$DIMSOXD
 70
0
  9
$DIMSAH
 70
0
  9
$DIMBLK1
  1

  9
$DIMBLK2
  1

  9
$DIMSTYLE
  2
ISO-25
  9
$DIMCLRD
 70
0
  9
$DIMCLRE
 70
0
  9
$DIMCLRT
 70
0
  9
$DIMTFAC
 40
1.0
  9
$DIMGAP
 40
0.625
  9
$DIMJUST
 70
0
  9
$DIMSD1
 70
0
  9
$DIMSD2
 70
0
  9
$DIMTOLJ
 70
0
  9
$DIMTZIN
 70
8
  9
$DIMALTZ
 70
0
  9
$DIMALTTZ
 70
0
  9
$DIMUPT
 70
0
  9
$DIMDEC
 70
2
  9
$DIMTDEC
 70
2
  9
$DIMALTU
 70
2
  9
$DIMALTTD
 70
3
  9
$DIMTXSTY
  7
Standard
  9
$DIMAUNIT
 70
0
  9
$DIMADEC
 70
0
  9
$DIMALTRND
 40
0.0
  9
$DIMAZIN
 70
0
  9
$DIMDSEP
 70
44
  9
$DIMATFIT
 70
3
  9
$DIMFRAC
 70
0
  9
$DIMLDRBLK
  1

  9
$DIMLUNIT
 70
2
  9
$DIMLWD
 70
-2
  9
$DIMLWE
 70
-2
  9
$DIMTMOVE
 70
0
  9
$DIMFXL
 40
1.0
  9
$DIMFXLON
 70
0
  9
$DIMJOGANG
 40
0.785398163397
  9
$DIMTFILL
 70
0
  9
$DIMTFILLCLR
 70
0
  9
$DIMARCSYM
 70
0
  9
$DIMLTYPE
  6

  9
$DIMLTEX1
  6

  9
$DIMLTEX2
  6

  9
$DIMTXTDIRECTION
 70
0
  9
$LUNITS
 70
2
  9
$LUPREC
 70
4
  9
$SKETCHINC
 40
1.0
  9
$FILLETRAD
 40
10.0
  9
$AUNITS
 70
0
  9
$AUPREC
 70
2
  9
$MENU
  1
.
  9
$ELEVATION
 40
0.0
  9
$PELEVATION
 40
0.0
  9
$THICKNESS
 40
0.0
  9
$LIMCHECK
 70
0
  9
$CHAMFERA
 40
0.0
  9
$CHAMFERB
 40
0.0
  9
$CHAMFERC
 40
0.0
  9
$CHAMFERD
 40
0.0
  9
$SKPOLY
 70
0
  9
$TDCREATE
 40
2461308.4824189814
  9
$TDUCREATE
 40
2458532.153996898
  9
$TDUPDATE
 40
2461308.4824189814
  9
$TDUUPDATE
 40
2458532.1544311
  9
$TDINDWG
 40
0.0
  9
$TDUSRTIMER
 40
0.0
  9
$USRTIMER
 70
1
  9
$ANGBASE
 50
0.0
  9
$ANGDIR
 70
0
  9
$PDMODE
 70
0
  9
$PDSIZE
 40
0.0
  9
$PLINEWID
 40
0.0
  9
$SPLFRAME
 70
0
  9
$SPLINETYPE
 70
6
  9
$SPLINESEGS
 70
8
  9
$HANDSEED
  5
177
  9
$SURFTAB1
 70
6
  9
$SURFTAB2
 70
6
  9
$SURFTYPE
 70
6
  9
$SURFU
 70
6
  9
$SURFV
 70
6
  9
$UCSBASE
  2

  9
$UCSNAME
  2

  9
$UCSORG
 10
0.0
 20
0.0
 30
0.0
  9
$UCSXDIR
 10
1.0
 20
0.0
 30
0.0
  9
$UCSYDIR
 10
0.0
 20
1.0
 30
0.0
  9
$UCSORTHOREF
  2

  9
$UCSORTHOVIEW
 70
0
  9
$UCSORGTOP
 10
0.0
 20
0.0
 30
0.0
  9
$UCSORGBOTTOM
 10
0.0
 20
0.0
 30
0.0
  9
$UCSORGLEFT
 10
0.0
 20
0.0
 30
0.0
  9
$UCSORGRIGHT
 10
0.0
 20
0.0
 30
0.0
  9
$UCSORGFRONT
 10
0.0
 20
0.0
 30
0.0
  9
$UCSORGBACK
 10
0.0
 20
0.0
 30
0.0
  9
$PUCSBASE
  2

  9
$PUCSNAME
  2

  9
$PUCSORG
 10
0.0
 20
0.0
 30
0.0
  9
$PUCSXDIR
 10
1.0
 20
0.0
 30
0.0
  9
$PUCSYDIR
 10
0.0
 20
1.0
 30
0.0
  9
$PUCSORTHOREF
  2

  9
$PUCSORTHOVIEW
 70
0
  9
$PUCSORGTOP
 10
0.0
 20
0.0
 30
0.0
  9
$PUCSORGBOTTOM
 10
0.0
 20
0.0
 30
0.0
  9
$PUCSORGLEFT
 10
0.0
 20
0.0
 30
0.0
  9
$PUCSORGRIGHT
 10
0.0
 20
0.0
 30
0.0
  9
$PUCSORGFRONT
 10
0.0
 20
0.0
 30
0.0
  9
$PUCSORGBACK
 10
0.0
 20
0.0
 30
0.0
  9
$USERI1
 70
0
  9
$USERI2
 70
0
  9
$USERI3
 70
0
  9
$USERI4
 70
0
  9
$USERI5
 70
0
  9
$USERR1
 40
0.0
  9
$USERR2
 40
0.0
  9
$USERR3
 40
0.0
  9
$USERR4
 40
0.0
  9
$USERR5
 40
0.0
  9
$WORLDVIEW
 70
1
  9
$SHADEDGE
 70
3
  9
$SHADEDIF
 70
70
  9
$TILEMODE
 70
1
  9
$MAXACTVP
 70
64
  9
$PINSBASE
 10
0.0
 20
0.0
 30
0.0
  9
$PLIMCHECK
 70
0
  9
$PEXTMIN
 10
1e+20
 20
1e+20
 30
1e+20
  9
$PEXTMAX
 10
-1e+20
 20
-1e+20
 30
-1e+20
  9
$PLIMMIN
 10
0.0
 20
0.0
  9
$PLIMMAX
 10
420.0
 20
297.0
  9
$UNITMODE
 70
0
  9
$VISRETAIN
 70
1
  9
$PLINEGEN
 70
0
  9
$PSLTSCALE
 70
1
  9
$TREEDEPTH
 70
3020
  9
$CMLSTYLE
  2
Standard
  9
$CMLJUST
 70
0
  9
$CMLSCALE
 40
20.0
  9
$PROXYGRAPHICS
 70
1
  9
$MEASUREMENT
 70
1
  9
$CELWEIGHT
370
-1
  9
$ENDCAPS
280
0
  9
$JOINSTYLE
280
0
  9
$LWDISPLAY
290
0
  9
$INSUNITS
 70
4
  9
$HYPERLINKBASE
  1

  9
$STYLESHEET
  1

  9
$XEDIT
290
1
  9
$CEPSNTYPE
380
0
  9
$PSTYLEMODE
290
1
  9
$FINGERPRINTGUID
  2
{D9D97167-9ABE-4AA2-94A2-36EE5612118F}
  9
$VERSIONGUID
  2
{BDDE0B02-863D-4B92-A152-C954320F947E}
  9
$EXTNAMES
290
1
  9
$PSVPSCALE
 40
0.0
  9
$OLESTARTUP
290
0
  9
$SORTENTS
280
127
  9
$INDEXCTL
280
0
  9
$HIDETEXT
280
1
  9
$XCLIPFRAME
280
1
  9
$HALOGAP
280
0
  9
$OBSCOLOR
 70
257
  9
$OBSLTYPE
280
0
  9
$INTERSECTIONDISPLAY
280
0
  9
$INTERSECTIONCOLOR
 70
257
  9
$DIMASSOC
280
2
  9
$PROJECTNAME
  1

  9
$CAMERADISPLAY
290
0
  9
$LENSLENGTH
 40
50.0
  9
$CAMERAHEIGHT
 40
0.0
  9
$STEPSPERSEC
 40
24.0
  9
$STEPSIZE
 40
100.0
  9
$3DDWFPREC
 40
2.0
  9
$PSOLWIDTH
 40
0.005
  9
$PSOLHEIGHT
 40
0.08
  9
$LOFTANG1
 40
1.570796326795
  9
$LOFTANG2
 40
1.570796326795
  9
$LOFTMAG1
 40
0.0
  9
$LOFTMAG2
 40
0.0
  9
$LOFTPARAM
 70
7
  9
$LOFTNORMALS
280
1
  9
$LATITUDE
 40
37.795
  9
$LONGITUDE
 40
-122.394
  9
$NORTHDIRECTION
 40
0.0
  9
$TIMEZONE
 70
-8000
  9
$LIGHTGLYPHDISPLAY
280
1
  9
$TILEMODELIGHTSYNCH
280
1
  9
$CMATERIAL
347
20
  9
$SOLIDHIST
280
0
  9
$SHOWHIST
280
1
  9
$DWFFRAME
280
2
  9
$DGNFRAME
280
2
  9
$REALWORLDSCALE
290
1
  9
$INTERFERECOLOR
 62
256
  9
$CSHADOW
280
0
  9
$SHADOWPLANELOCATION
 40
0.0
  0
ENDSEC
  0
SECTION
  2
CLASSES
  0
CLASS
  1
ACDBDICTIONARYWDFLT
  2
AcDbDictionaryWithDefault
  3
ObjectDBX Classes
 90
0
 91
0
280
0
281
0
  0
CLASS
  1
SUN
  2
AcDbSun
  3
SCENEOE
 90
1153
 91
0
280
0
281
0
  0
CLASS
  1
VISUALSTYLE
  2
AcDbVisualStyle
  3
ObjectDBX Classes
 90
4095
 91
0
280
0
281
0
  0
CLASS
  1
MATERIAL
  2
AcDbMaterial
  3
ObjectDBX Classes
 90
1153
 91
0
280
0
281
0
  0
CLASS
  1
SCALE
  2
AcDbScale
  3
ObjectDBX Classes
 90
1153
 91
0
280
0
281
0
  0
CLASS
  1
TABLESTYLE
  2
AcDbTableStyle
  3
ObjectDBX Classes
 90
4095
 91
0
280
0
281
0
  0
CLASS
  1
MLEADERSTYLE
  2
AcDbMLeaderStyle
  3
ACDB_MLEADERSTYLE_CLASS
 90
4095
 91
0
280
0
281
0
  0
CLASS
  1
DICTIONARYVAR
  2
AcDbDictionaryVar
  3
ObjectDBX Classes
 90
0
 91
0
280
0
281
0
  0
CLASS
  1
CELLSTYLEMAP
  2
AcDbCellStyleMap
  3
ObjectDBX Classes
 90
1152
 91
0
280
0
281
0
  0
CLASS
  1
MENTALRAYRENDERSETTINGS
  2
AcDbMentalRayRenderSettings
  3
SCENEOE
 90
1024
 91
0
280
0
281
0
  0
CLASS
  1
ACDBDETAILVIEWSTYLE
  2
AcDbDetailViewStyle
  3
ObjectDBX Classes
 90
1025
 91
0
280
0
281
0
  0
CLASS
  1
ACDBSECTIONVIEWSTYLE
  2
AcDbSectionViewStyle
  3
ObjectDBX Classes
 90
1025
 91
0
280
0
281
0
  0
CLASS
  1
RASTERVARIABLES
  2
AcDbRasterVariables
  3
ISM
 90
0
 91
0
280
0
281
0
  0
CLASS
  1
ACDBPLACEHOLDER
  2
AcDbPlaceHolder
  3
ObjectDBX Classes
 90
0
 91
0
280
0
281
0
  0
CLASS
  1
LAYOUT
  2
AcDbLayout
  3
ObjectDBX Classes
 90
0
 91
0
280
0
281
0
  0
ENDSEC
  0
SECTION
  2
TABLES
  0
TABLE
  2
VPORT
  5
8
330
0
100
AcDbSymbolTable
 70
1
  0
VPORT
  5
173
330
8
100
AcDbSymbolTableRecord
100
AcDbViewportTableRecord
  2
*Active
 70
0
 10
0.0
 20
0.0
 11
1.0
 21
1.0
 12
2675.0
 22
2953.8
 13
0.0
 23
0.0
 14
0.5
 24
0.5
 15
0.5
 25
0.5
 16
0.0
 26
0.0
 36
1.0
 17
0.0
 27
0.0
 37
0.0
 40
6207.6
 41
1.34
 42
50.0
 43
0.0
 44
0.0
 50
0.0
 51
0.0
 71
0
 72
1000
 73
1
 74
3
 75
0
 76
0
 77
0
 78
0
281
0
 65
1
110
0.0
120
0.0
130
0.0
111
1.0
121
0.0
131
0.0
112
0.0
122
1.0
132
0.0
 79
0
146
0.0
  0
ENDTAB
  0
TABLE
  2
LTYPE
  5
2
330
0
100
AcDbSymbolTable
 70
3
  0
LTYPE
  5
24
330
2
100
AcDbSymbolTableRecord
100
AcDbLinetypeTableRecord
  2
ByBlock
 70
0
  3

 72
65
 73
0
 40
0.0
  0
LTYPE
  5
25
330
2
100
AcDbSymbolTableRecord
100
AcDbLinetypeTableRecord
  2
ByLayer
 70
0
  3

 72
65
 73
0
 40
0.0
  0
LTYPE
  5
26
330
2
100
AcDbSymbolTableRecord
100
AcDbLinetypeTableRecord
  2
Continuous
 70
0
  3

 72
65
 73
0
 40
0.0
  0
ENDTAB
  0
TABLE
  2
LAYER
  5
1
330
0
100
AcDbSymbolTable
 70
25
  0
LAYER
  5
27
330
1
100
AcDbSymbolTableRecord
100
AcDbLayerTableRecord
  2
0
 70
0
 62
7
  6
Continuous
370
-3
390
13
347
21
  0
LAYER
  5
28
330
1
100
AcDbSymbolTableRecord
100
AcDbLayerTableRecord
  2
Defpoints
 70
0
 62
7
  6
Continuous
290
0
370
-3
390
13
347
21
  0
LAYER
  5
2F
330
1
100
AcDbSymbolTableRecord
100
AcDbLayerTableRecord
  2
floor
 70
0
 62
2
  6
Continuous
370
35
390
13
347
21
  0
LAYER
  5
34
330
1
100
AcDbSymbolTableRecord
100
AcDbLayerTableRecord
  2
eps
 70
0
 62
3
  6
Continuous
370
35
390
13
347
21
  0
LAYER
  5
3D
330
1
100
AcDbSymbolTableRecord
100
AcDbLayerTableRecord
  2
masonry
 70
0
 62
1
  6
Continuous
370
35
390
13
347
21
  0
LAYER
  5
46
330
1
100
AcDbSymbolTableRecord
100
AcDbLayerTableRecord
  2
plaster
 70
0
 62
2
  6
Continuous
370
35
390
13
347
21
  0
LAYER
  5
4F
330
1
100
AcDbSymbolTableRecord
100
AcDbLayerTableRecord
  2
furniture
 70
0
 62
2
  6
Continuous
370
35
390
13
347
21
  0
LAYER
  5
54
330
1
100
AcDbSymbolTableRecord
100
AcDbLayerTableRecord
  2
wall_plate
 70
0
 62
2
  6
Continuous
370
35
390
13
347
21
  0
LAYER
  5
5D
330
1
100
AcDbSymbolTableRecord
100
AcDbLayerTableRecord
  2
rafters
 70
0
 62
2
  6
Continuous
370
35
390
13
347
21
  0
LAYER
  5
64
330
1
100
AcDbSymbolTableRecord
100
AcDbLayerTableRecord
  2
plenum_wool
 70
0
 62
3
  6
Continuous
370
35
390
13
347
21
  0
LAYER
  5
6D
330
1
100
AcDbSymbolTableRecord
100
AcDbLayerTableRecord
  2
racking_strap
 70
0
 62
4
  6
Continuous
370
35
390
13
347
21
  0
LAYER
  5
7A
330
1
100
AcDbSymbolTableRecord
100
AcDbLayerTableRecord
  2
roofing
 70
0
 62
1
  6
Continuous
370
35
390
13
347
21
  0
LAYER
  5
7D
330
1
100
AcDbSymbolTableRecord
100
AcDbLayerTableRecord
  2
slope_naturheld_140
 70
0
 62
5
  6
Continuous
370
35
390
13
347
21
  0
LAYER
  5
86
330
1
100
AcDbSymbolTableRecord
100
AcDbLayerTableRecord
  2
slope_naturheld_flex_50
 70
0
 62
3
  6
Continuous
370
35
390
13
347
21
  0
LAYER
  5
8D
330
1
100
AcDbSymbolTableRecord
100
AcDbLayerTableRecord
  2
slope_battens
 70
0
 62
2
  6
Continuous
370
35
390
13
347
21
  0
LAYER
  5
94
330
1
100
AcDbSymbolTableRecord
100
AcDbLayerTableRecord
  2
slope_gkf
 70
0
 62
4
  6
Continuous
370
35
390
13
347
21
  0
LAYER
  5
9B
330
1
100
AcDbSymbolTableRecord
100
AcDbLayerTableRecord
  2
slope_cd
 70
0
 62
4
  6
Continuous
370
35
390
13
347
21
  0
LAYER
  5
C0
330
1
100
AcDbSymbolTableRecord
100
AcDbLayerTableRecord
  2
slope_nonius
 70
0
 62
4
  6
Continuous
370
35
390
13
347
21
  0
LAYER
  5
D1
330
1
100
AcDbSymbolTableRecord
100
AcDbLayerTableRecord
  2
soffit_naturheld_140
 70
0
 62
5
  6
Continuous
370
35
390
13
347
21
  0
LAYER
  5
DD
330
1
100
AcDbSymbolTableRecord
100
AcDbLayerTableRecord
  2
soffit_naturheld_flex_50
 70
0
 62
3
  6
Continuous
370
35
390
13
347
21
  0
LAYER
  5
E2
330
1
100
AcDbSymbolTableRecord
100
AcDbLayerTableRecord
  2
soffit_battens
 70
0
 62
2
  6
Continuous
370
35
390
13
347
21
  0
LAYER
  5
EF
330
1
100
AcDbSymbolTableRecord
100
AcDbLayerTableRecord
  2
soffit_gkf
 70
0
 62
4
  6
Continuous
370
35
390
13
347
21
  0
LAYER
  5
F4
330
1
100
AcDbSymbolTableRecord
100
AcDbLayerTableRecord
  2
soffit_cd
 70
0
 62
4
  6
Continuous
370
35
390
13
347
21
  0
LAYER
  5
105
330
1
100
AcDbSymbolTableRecord
100
AcDbLayerTableRecord
  2
soffit_nonius
 70
0
 62
4
  6
Continuous
370
35
390
13
347
21
  0
LAYER
  5
12A
330
1
100
AcDbSymbolTableRecord
100
AcDbLayerTableRecord
  2
soffit_duct
 70
0
 62
4
  6
Continuous
370
35
390
13
347
21
  0
ENDTAB
  0
TABLE
  2
STYLE
  5
5
330
0
100
AcDbSymbolTable
 70
1
  0
STYLE
  5
29
330
5
100
AcDbSymbolTableRecord
100
AcDbTextStyleTableRecord
  2
Standard
 70
0
 40
0.0
 41
1.0
 50
0.0
 71
0
 42
2.5
  3
txt
  4

  0
ENDTAB
  0
TABLE
  2
VIEW
  5
7
330
0
100
AcDbSymbolTable
 70
0
  0
ENDTAB
  0
TABLE
  2
UCS
  5
6
330
0
100
AcDbSymbolTable
 70
0
  0
ENDTAB
  0
TABLE
  2
APPID
  5
3
330
0
100
AcDbSymbolTable
 70
3
  0
APPID
  5
2A
330
3
100
AcDbSymbolTableRecord
100
AcDbRegAppTableRecord
  2
ACAD
 70
0
  0
APPID
  5
174
330
3
100
AcDbSymbolTableRecord
100
AcDbRegAppTableRecord
  2
HATCHBACKGROUNDCOLOR
 70
0
  0
APPID
  5
175
330
3
100
AcDbSymbolTableRecord
100
AcDbRegAppTableRecord
  2
EZDXF
 70
0
  0
ENDTAB
  0
TABLE
  2
DIMSTYLE
  5
4
330
0
100
AcDbSymbolTable
 70
1
100
AcDbDimStyleTable
  0
DIMSTYLE
105
2B
330
4
100
AcDbSymbolTableRecord
100
AcDbDimStyleTableRecord
  2
Standard
 70
0
 40
1.0
 41
2.5
 42
0.625
 43
3.75
 44
1.25
 45
0.0
 46
0.0
 47
0.0
 48
0.0
 49
2.5
140
2.5
141
2.5
142
0.0
143
0.03937007874
144
1.0
145
0.0
146
1.0
147
0.625
148
0.0
 69
0
 70
0
 71
0
 72
0
 73
0
 74
0
 75
0
 76
0
 77
1
 78
8
 79
3
170
0
171
3
172
1
173
0
174
0
175
0
176
0
177
0
178
0
179
2
271
2
272
2
273
2
274
3
275
0
276
0
277
2
278
44
279
0
280
0
281
0
282
0
283
0
284
8
285
0
286
0
288
0
289
3
290
0
371
-2
372
-2
  0
ENDTAB
  0
TABLE
  2
BLOCK_RECORD
  5
9
330
0
100
AcDbSymbolTable
 70
2
  0
BLOCK_RECORD
  5
17
330
9
100
AcDbSymbolTableRecord
100
AcDbBlockTableRecord
  2
*Model_Space
340
1A
 70
0
280
1
281
0
  0
BLOCK_RECORD
  5
1B
330
9
100
AcDbSymbolTableRecord
100
AcDbBlockTableRecord
  2
*Paper_Space
340
1E
 70
0
280
1
281
0
  0
ENDTAB
  0
ENDSEC
  0
SECTION
  2
BLOCKS
  0
BLOCK
  5
18
330
17
100
AcDbEntity
  8
0
100
AcDbBlockBegin
  2
*Model_Space
 70
0
 10
0.0
 20
0.0
 30
0.0
  3
*Model_Space
  1

  0
ENDBLK
  5
19
330
17
100
AcDbEntity
  8
0
100
AcDbBlockEnd
  0
BLOCK
  5
1C
330
1B
100
AcDbEntity
  8
0
100
AcDbBlockBegin
  2
*Paper_Space
 70
0
 10
0.0
 20
0.0
 30
0.0
  3
*Paper_Space
  1

  0
ENDBLK
  5
1D
330
1B
100
AcDbEntity
  8
0
100
AcDbBlockEnd
  0
ENDSEC
  0
SECTION
  2
ENTITIES
  0
LINE
  5
30
330
17
100
AcDbEntity
  8
floor
100
AcDbLine
 10
-465.0
 20
-150.0
 30
0.0
 11
5815.0
 21
-150.0
 31
0.0
  0
LINE
  5
31
330
17
100
AcDbEntity
  8
floor
100
AcDbLine
 10
5815.0
 20
-150.0
 30
0.0
 11
5815.0
 21
0.0
 31
0.0
  0
LINE
  5
32
330
17
100
AcDbEntity
  8
floor
100
AcDbLine
 10
5815.0
 20
0.0
 30
0.0
 11
-465.0
 21
0.0
 31
0.0
  0
LINE
  5
33
330
17
100
AcDbEntity
  8
floor
100
AcDbLine
 10
-465.0
 20
0.0
 30
0.0
 11
-465.0
 21
-150.0
 31
0.0
  0
LINE
  5
35
330
17
100
AcDbEntity
  8
eps
100
AcDbLine
 10
-465.0
 20
-150.0
 30
0.0
 11
-265.0
 21
-150.0
 31
0.0
  0
LINE
  5
36
330
17
100
AcDbEntity
  8
eps
100
AcDbLine
 10
-265.0
 20
-150.0
 30
0.0
 11
-265.0
 21
3200.0
 31
0.0
  0
LINE
  5
37
330
17
100
AcDbEntity
  8
eps
100
AcDbLine
 10
-265.0
 20
3200.0
 30
0.0
 11
-465.0
 21
3200.0
 31
0.0
  0
LINE
  5
38
330
17
100
AcDbEntity
  8
eps
100
AcDbLine
 10
-465.0
 20
3200.0
 30
0.0
 11
-465.0
 21
-150.0
 31
0.0
  0
LINE
  5
39
330
17
100
AcDbEntity
  8
eps
100
AcDbLine
 10
5615.0
 20
-150.0
 30
0.0
 11
5815.0
 21
-150.0
 31
0.0
  0
LINE
  5
3A
330
17
100
AcDbEntity
  8
eps
100
AcDbLine
 10
5815.0
 20
-150.0
 30
0.0
 11
5815.0
 21
3200.0
 31
0.0
  0
LINE
  5
3B
330
17
100
AcDbEntity
  8
eps
100
AcDbLine
 10
5815.0
 20
3200.0
 30
0.0
 11
5615.0
 21
3200.0
 31
0.0
  0
LINE
  5
3C
330
17
100
AcDbEntity
  8
eps
100
AcDbLine
 10
5615.0
 20
3200.0
 30
0.0
 11
5615.0
 21
-150.0
 31
0.0
  0
LINE
  5
3E
330
17
100
AcDbEntity
  8
masonry
100
AcDbLine
 10
-265.0
 20
-150.0
 30
0.0
 11
-15.0
 21
-150.0
 31
0.0
  0
LINE
  5
3F
330
17
100
AcDbEntity
  8
masonry
100
AcDbLine
 10
-15.0
 20
-150.0
 30
0.0
 11
-15.0
 21
3200.0
 31
0.0
  0
LINE
  5
40
330
17
100
AcDbEntity
  8
masonry
100
AcDbLine
 10
-15.0
 20
3200.0
 30
0.0
 11
-265.0
 21
3200.0
 31
0.0
  0
LINE
  5
41
330
17
100
AcDbEntity
  8
masonry
100
AcDbLine
 10
-265.0
 20
3200.0
 30
0.0
 11
-265.0
 21
-150.0
 31
0.0
  0
LINE
  5
42
330
17
100
AcDbEntity
  8
masonry
100
AcDbLine
 10
5365.0
 20
-150.0
 30
0.0
 11
5615.0
 21
-150.0
 31
0.0
  0
LINE
  5
43
330
17
100
AcDbEntity
  8
masonry
100
AcDbLine
 10
5615.0
 20
-150.0
 30
0.0
 11
5615.0
 21
3200.0
 31
0.0
  0
LINE
  5
44
330
17
100
AcDbEntity
  8
masonry
100
AcDbLine
 10
5615.0
 20
3200.0
 30
0.0
 11
5365.0
 21
3200.0
 31
0.0
  0
LINE
  5
45
330
17
100
AcDbEntity
  8
masonry
100
AcDbLine
 10
5365.0
 20
3200.0
 30
0.0
 11
5365.0
 21
-150.0
 31
0.0
  0
LINE
  5
47
330
17
100
AcDbEntity
  8
plaster
100
AcDbLine
 10
-15.0
 20
0.0
 30
0.0
 11
0.0
 21
0.0
 31
0.0
  0
LINE
  5
48
330
17
100
AcDbEntity
  8
plaster
100
AcDbLine
 10
0.0
 20
0.0
 30
0.0
 11
0.0
 21
3200.0
 31
0.0
  0
LINE
  5
49
330
17
100
AcDbEntity
  8
plaster
100
AcDbLine
 10
0.0
 20
3200.0
 30
0.0
 11
-15.0
 21
3200.0
 31
0.0
  0
LINE
  5
4A
330
17
100
AcDbEntity
  8
plaster
100
AcDbLine
 10
-15.0
 20
3200.0
 30
0.0
 11
-15.0
 21
0.0
 31
0.0
  0
LINE
  5
4B
330
17
100
AcDbEntity
  8
plaster
100
AcDbLine
 10
5350.0
 20
0.0
 30
0.0
 11
5365.0
 21
0.0
 31
0.0
  0
LINE
  5
4C
330
17
100
AcDbEntity
  8
plaster
100
AcDbLine
 10
5365.0
 20
0.0
 30
0.0
 11
5365.0
 21
3200.0
 31
0.0
  0
LINE
  5
4D
330
17
100
AcDbEntity
  8
plaster
100
AcDbLine
 10
5365.0
 20
3200.0
 30
0.0
 11
5350.0
 21
3200.0
 31
0.0
  0
LINE
  5
4E
330
17
100
AcDbEntity
  8
plaster
100
AcDbLine
 10
5350.0
 20
3200.0
 30
0.0
 11
5350.0
 21
0.0
 31
0.0
  0
LINE
  5
50
330
17
100
AcDbEntity
  8
furniture
100
AcDbLine
 10
4900.0
 20
0.0
 30
0.0
 11
5350.0
 21
0.0
 31
0.0
  0
LINE
  5
51
330
17
100
AcDbEntity
  8
furniture
100
AcDbLine
 10
5350.0
 20
0.0
 30
0.0
 11
5350.0
 21
2450.0
 31
0.0
  0
LINE
  5
52
330
17
100
AcDbEntity
  8
furniture
100
AcDbLine
 10
5350.0
 20
2450.0
 30
0.0
 11
4900.0
 21
2450.0
 31
0.0
  0
LINE
  5
53
330
17
100
AcDbEntity
  8
furniture
100
AcDbLine
 10
4900.0
 20
2450.0
 30
0.0
 11
4900.0
 21
0.0
 31
0.0
  0
LINE
  5
55
330
17
100
AcDbEntity
  8
wall_plate
100
AcDbLine
 10
-210.0
 20
3200.0
 30
0.0
 11
-70.0
 21
3200.0
 31
0.0
  0
LINE
  5
56
330
17
100
AcDbEntity
  8
wall_plate
100
AcDbLine
 10
-70.0
 20
3200.0
 30
0.0
 11
-70.0
 21
3300.0
 31
0.0
  0
LINE
  5
57
330
17
100
AcDbEntity
  8
wall_plate
100
AcDbLine
 10
-70.0
 20
3300.0
 30
0.0
 11
-210.0
 21
3300.0
 31
0.0
  0
LINE
  5
58
330
17
100
AcDbEntity
  8
wall_plate
100
AcDbLine
 10
-210.0
 20
3300.0
 30
0.0
 11
-210.0
 21
3200.0
 31
0.0
  0
LINE
  5
59
330
17
100
AcDbEntity
  8
wall_plate
100
AcDbLine
 10
5420.0
 20
3200.0
 30
0.0
 11
5560.0
 21
3200.0
 31
0.0
  0
LINE
  5
5A
330
17
100
AcDbEntity
  8
wall_plate
100
AcDbLine
 10
5560.0
 20
3200.0
 30
0.0
 11
5560.0
 21
3300.0
 31
0.0
  0
LINE
  5
5B
330
17
100
AcDbEntity
  8
wall_plate
100
AcDbLine
 10
5560.0
 20
3300.0
 30
0.0
 11
5420.0
 21
3300.0
 31
0.0
  0
LINE
  5
5C
330
17
100
AcDbEntity
  8
wall_plate
100
AcDbLine
 10
5420.0
 20
3300.0
 30
0.0
 11
5420.0
 21
3200.0
 31
0.0
  0
LINE
  5
5E
330
17
100
AcDbEntity
  8
rafters
100
AcDbLine
 10
-545.0
 20
3169.025945234643
 30
0.0
 11
2675.0
 21
5870.926757625484
 31
0.0
  0
LINE
  5
5F
330
17
100
AcDbEntity
  8
rafters
100
AcDbLine
 10
2675.0
 20
5870.926757625484
 30
0.0
 11
5895.0
 21
3169.025945234643
 31
0.0
  0
LINE
  5
60
330
17
100
AcDbEntity
  8
rafters
100
AcDbLine
 10
5895.0
 20
3169.025945234643
 30
0.0
 11
5895.0
 21
2960.1607789414784
 31
0.0
  0
LINE
  5
61
330
17
100
AcDbEntity
  8
rafters
100
AcDbLine
 10
5895.0
 20
2960.1607789414784
 30
0.0
 11
2675.0
 21
5662.06159133232
 31
0.0
  0
LINE
  5
62
330
17
100
AcDbEntity
  8
rafters
100
AcDbLine
 10
2675.0
 20
5662.06159133232
 30
0.0
 11
-545.0
 21
2960.1607789414784
 31
0.0
  0
LINE
  5
63
330
17
100
AcDbEntity
  8
rafters
100
AcDbLine
 10
-545.0
 20
2960.1607789414784
 30
0.0
 11
-545.0
 21
3169.025945234643
 31
0.0
  0
LINE
  5
65
330
17
100
AcDbEntity
  8
plenum_wool
100
AcDbLine
 10
0.0
 20
3313.037494786514
 30
0.0
 11
2450.0
 21
5368.831591170849
 31
0.0
  0
LINE
  5
66
330
17
100
AcDbEntity
  8
plenum_wool
100
AcDbLine
 10
2450.0
 20
5368.831591170849
 30
0.0
 11
4900.0
 21
3313.037494786514
 31
0.0
  0
LINE
  5
67
330
17
100
AcDbEntity
  8
plenum_wool
100
AcDbLine
 10
4900.0
 20
3313.037494786514
 30
0.0
 11
4900.0
 21
3327.0
 31
0.0
  0
LINE
  5
68
330
17
100
AcDbEntity
  8
plenum_wool
100
AcDbLine
 10
4900.0
 20
3327.0
 30
0.0
 11
5350.0
 21
3327.0
 31
0.0
  0
LINE
  5
69
330
17
100
AcDbEntity
  8
plenum_wool
100
AcDbLine
 10
5350.0
 20
3327.0
 30
0.0
 11
5350.0
 21
3417.470077933096
 31
0.0
  0
LINE
  5
6A
330
17
100
AcDbEntity
  8
plenum_wool
100
AcDbLine
 10
5350.0
 20
3417.470077933096
 30
0.0
 11
2675.0
 21
5662.06159133232
 31
0.0
  0
LINE
  5
6B
330
17
100
AcDbEntity
  8
plenum_wool
100
AcDbLine
 10
2675.0
 20
5662.06159133232
 30
0.0
 11
0.0
 21
3417.470077933096
 31
0.0
  0
LINE
  5
6C
330
17
100
AcDbEntity
  8
plenum_wool
100
AcDbLine
 10
0.0
 20
3417.470077933096
 30
0.0
 11
0.0
 21
3313.037494786514
 31
0.0
  0
LINE
  5
6E
330
17
100
AcDbEntity
  8
racking_strap
100
AcDbLine
 10
389.38064481243475
 20
3741.588418804117
 30
0.0
 11
420.02242253719385
 21
3767.2999231915787
 31
0.0
  0
LINE
  5
6F
330
17
100
AcDbEntity
  8
racking_strap
100
AcDbLine
 10
420.02242253719385
 20
3767.2999231915787
 30
0.0
 11
418.7368473178208
 21
3768.8320120778167
 31
0.0
  0
LINE
  5
70
330
17
100
AcDbEntity
  8
racking_strap
100
AcDbLine
 10
418.7368473178208
 20
3768.8320120778167
 30
0.0
 11
388.0950695930617
 21
3743.1205076903548
 31
0.0
  0
LINE
  5
71
330
17
100
AcDbEntity
  8
racking_strap
100
AcDbLine
 10
388.0950695930617
 20
3743.1205076903548
 30
0.0
 11
389.38064481243475
 21
3741.588418804117
 31
0.0
  0
LINE
  5
72
330
17
100
AcDbEntity
  8
racking_strap
100
AcDbLine
 10
1825.7139756605184
 20
4946.815186966378
 30
0.0
 11
1856.3557533852777
 21
4972.52669135384
 31
0.0
  0
LINE
  5
73
330
17
100
AcDbEntity
  8
racking_strap
100
AcDbLine
 10
1856.3557533852777
 20
4972.52669135384
 30
0.0
 11
1855.0701781659045
 21
4974.058780240078
 31
0.0
  0
LINE
  5
74
330
17
100
AcDbEntity
  8
racking_strap
100
AcDbLine
 10
1855.0701781659045
 20
4974.058780240078
 30
0.0
 11
1824.4284004411452
 21
4948.347275852616
 31
0.0
  0
LINE
  5
75
330
17
100
AcDbEntity
  8
racking_strap
100
AcDbLine
 10
1824.4284004411452
 20
4948.347275852616
 30
0.0
 11
1825.7139756605184
 21
4946.815186966378
 31
0.0
  0
LINE
  5
76
330
17
100
AcDbEntity
  8
racking_strap
100
AcDbLine
 10
3734.016952844054
 20
4770.830042211724
 30
0.0
 11
3764.6587305688126
 21
4745.118537824262
 31
0.0
  0
LINE
  5
77
330
17
100
AcDbEntity
  8
racking_strap
100
AcDbLine
 10
3764.6587305688126
 20
4745.118537824262
 30
0.0
 11
3765.944305788186
 21
4746.6506267105
 31
0.0
  0
LINE
  5
78
330
17
100
AcDbEntity
  8
racking_strap
100
AcDbLine
 10
3765.944305788186
 20
4746.6506267105
 30
0.0
 11
3735.302528063427
 21
4772.3621310979615
 31
0.0
  0
LINE
  5
79
330
17
100
AcDbEntity
  8
racking_strap
100
AcDbLine
 10
3735.302528063427
 20
4772.3621310979615
 30
0.0
 11
3734.016952844054
 21
4770.830042211724
 31
0.0
  0
LINE
  5
7B
330
17
100
AcDbEntity
  8
roofing
100
AcDbLine
 10
-545.0
 20
3355.699187609159
 30
0.0
 11
2675.0
 21
6057.6
 31
0.0
  0
LINE
  5
7C
330
17
100
AcDbEntity
  8
roofing
100
AcDbLine
 10
2675.0
 20
6057.6
 30
0.0
 11
5895.0
 21
3355.699187609159
 31
0.0
  0
LINE
  5
7E
330
17
100
AcDbEntity
  8
slope_naturheld_140
100
AcDbLine
 10
0.0
 20
3124.4061414779994
 30
0.0
 11
2450.0
 21
5180.200237862335
 31
0.0
  0
LINE
  5
7F
330
17
100
AcDbEntity
  8
slope_naturheld_140
100
AcDbLine
 10
2450.0
 20
5180.200237862335
 30
0.0
 11
4900.0
 21
3124.4061414779994
 31
0.0
  0
LINE
  5
80
330
17
100
AcDbEntity
  8
slope_naturheld_140
100
AcDbLine
 10
4900.0
 20
3124.4061414779994
 30
0.0
 11
4900.0
 21
3207.9522079952653
 31
0.0
  0
LINE
  5
81
330
17
100
AcDbEntity
  8
slope_naturheld_140
100
AcDbLine
 10
4900.0
 20
3207.9522079952653
 30
0.0
 11
2450.0
 21
5263.746304379601
 31
0.0
  0
LINE
  5
82
330
17
100
AcDbEntity
  8
slope_naturheld_140
100
AcDbLine
 10
2450.0
 20
5263.746304379601
 30
0.0
 11
0.0
 21
3207.9522079952653
 31
0.0
  0
LINE
  5
83
330
17
100
AcDbEntity
  8
slope_naturheld_140
100
AcDbLine
 10
0.0
 20
3207.9522079952653
 30
0.0
 11
0.0
 21
3124.4061414779994
 31
0.0
  0
LINE
  5
84
330
17
100
AcDbEntity
  8
slope_naturheld_140
100
AcDbLine
 10
0.0
 20
3124.4061414779994
 30
0.0
 11
2450.0
 21
5180.200237862335
 31
0.0
  0
LINE
  5
85
330
17
100
AcDbEntity
  8
slope_naturheld_140
100
AcDbLine
 10
2450.0
 20
5180.200237862335
 30
0.0
 11
4900.0
 21
3124.4061414779994
 31
0.0
  0
LINE
  5
87
330
17
100
AcDbEntity
  8
slope_naturheld_flex_50
100
AcDbLine
 10
0.0
 20
3207.9522079952653
 30
0.0
 11
2450.0
 21
5263.746304379601
 31
0.0
  0
LINE
  5
88
330
17
100
AcDbEntity
  8
slope_naturheld_flex_50
100
AcDbLine
 10
2450.0
 20
5263.746304379601
 30
0.0
 11
4868.983309996697
 21
3233.9783011373765
 31
0.0
  0
LINE
  5
89
330
17
100
AcDbEntity
  8
slope_naturheld_flex_50
100
AcDbLine
 10
4868.983309996697
 20
3233.9783011373765
 30
0.0
 11
4868.983309996697
 21
3286.1945927106676
 31
0.0
  0
LINE
  5
8A
330
17
100
AcDbEntity
  8
slope_naturheld_flex_50
100
AcDbLine
 10
4868.983309996697
 20
3286.1945927106676
 30
0.0
 11
2450.0
 21
5315.962595952891
 31
0.0
  0
LINE
  5
8B
330
17
100
AcDbEntity
  8
slope_naturheld_flex_50
100
AcDbLine
 10
2450.0
 20
5315.962595952891
 30
0.0
 11
0.0
 21
3260.1684995685564
 31
0.0
  0
LINE
  5
8C
330
17
100
AcDbEntity
  8
slope_naturheld_flex_50
100
AcDbLine
 10
0.0
 20
3260.1684995685564
 30
0.0
 11
0.0
 21
3207.9522079952653
 31
0.0
  0
LINE
  5
8E
330
17
100
AcDbEntity
  8
slope_battens
100
AcDbLine
 10
0.0
 20
3207.9522079952653
 30
0.0
 11
2450.0
 21
5263.746304379601
 31
0.0
  0
LINE
  5
8F
330
17
100
AcDbEntity
  8
slope_battens
100
AcDbLine
 10
2450.0
 20
5263.746304379601
 30
0.0
 11
4868.983309996697
 21
3233.9783011373765
 31
0.0
  0
LINE
  5
90
330
17
100
AcDbEntity
  8
slope_battens
100
AcDbLine
 10
4868.983309996697
 20
3233.9783011373765
 30
0.0
 11
4868.983309996697
 21
3286.1945927106676
 31
0.0
  0
LINE
  5
91
330
17
100
AcDbEntity
  8
slope_battens
100
AcDbLine
 10
4868.983309996697
 20
3286.1945927106676
 30
0.0
 11
2450.0
 21
5315.962595952891
 31
0.0
  0
LINE
  5
92
330
17
100
AcDbEntity
  8
slope_battens
100
AcDbLine
 10
2450.0
 20
5315.962595952891
 30
0.0
 11
0.0
 21
3260.1684995685564
 31
0.0
  0
LINE
  5
93
330
17
100
AcDbEntity
  8
slope_battens
100
AcDbLine
 10
0.0
 20
3260.1684995685564
 30
0.0
 11
0.0
 21
3207.9522079952653
 31
0.0
  0
LINE
  5
95
330
17
100
AcDbEntity
  8
slope_gkf
100
AcDbLine
 10
0.0
 20
3261.473906857889
 30
0.0
 11
2450.0
 21
5317.268003242224
 31
0.0
  0
LINE
  5
96
330
17
100
AcDbEntity
  8
slope_gkf
100
AcDbLine
 10
2450.0
 20
5317.268003242224
 30
0.0
 11
4868.983309996697
 21
3287.5
 31
0.0
  0
LINE
  5
97
330
17
100
AcDbEntity
  8
slope_gkf
100
AcDbLine
 10
4868.983309996697
 20
3287.5
 30
0.0
 11
4860.948464875615
 21
3297.0755555389874
 31
0.0
  0
LINE
  5
98
330
17
100
AcDbEntity
  8
slope_gkf
100
AcDbLine
 10
4860.948464875615
 20
3297.0755555389874
 30
0.0
 11
2450.0
 21
5333.585594358878
 31
0.0
  0
LINE
  5
99
330
17
100
AcDbEntity
  8
slope_gkf
100
AcDbLine
 10
2450.0
 20
5333.585594358878
 30
0.0
 11
0.0
 21
3277.791497974542
 31
0.0
  0
LINE
  5
9A
330
17
100
AcDbEntity
  8
slope_gkf
100
AcDbLine
 10
0.0
 20
3277.791497974542
 30
0.0
 11
0.0
 21
3261.473906857889
 31
0.0
  0
LINE
  5
9C
330
17
100
AcDbEntity
  8
slope_cd
100
AcDbLine
 10
449.2128993983316
 20
3654.725876179759
 30
0.0
 11
495.17556598547026
 21
3693.293132760951
 31
0.0
  0
LINE
  5
9D
330
17
100
AcDbEntity
  8
slope_cd
100
AcDbLine
 10
495.17556598547026
 20
3693.293132760951
 30
0.0
 11
477.8203005239337
 21
3713.976332725163
 31
0.0
  0
LINE
  5
9E
330
17
100
AcDbEntity
  8
slope_cd
100
AcDbLine
 10
477.8203005239337
 20
3713.976332725163
 30
0.0
 11
431.8576339367951
 21
3675.409076143971
 31
0.0
  0
LINE
  5
9F
330
17
100
AcDbEntity
  8
slope_cd
100
AcDbLine
 10
431.8576339367951
 20
3675.409076143971
 30
0.0
 11
449.2128993983316
 21
3654.725876179759
 31
0.0
  0
LINE
  5
A0
330
17
100
AcDbEntity
  8
slope_cd
100
AcDbLine
 10
927.9906763476929
 20
4056.468132233846
 30
0.0
 11
973.9533429348317
 21
4095.035388815038
 31
0.0
  0
LINE
  5
A1
330
17
100
AcDbEntity
  8
slope_cd
100
AcDbLine
 10
973.9533429348317
 20
4095.035388815038
 30
0.0
 11
956.5980774732951
 21
4115.71858877925
 31
0.0
  0
LINE
  5
A2
330
17
100
AcDbEntity
  8
slope_cd
100
AcDbLine
 10
956.5980774732951
 20
4115.71858877925
 30
0.0
 11
910.6354108861564
 21
4077.1513321980583
 31
0.0
  0
LINE
  5
A3
330
17
100
AcDbEntity
  8
slope_cd
100
AcDbLine
 10
910.6354108861564
 20
4077.1513321980583
 30
0.0
 11
927.9906763476929
 21
4056.468132233846
 31
0.0
  0
LINE
  5
A4
330
17
100
AcDbEntity
  8
slope_cd
100
AcDbLine
 10
1406.7684532970543
 20
4458.210388287933
 30
0.0
 11
1452.731119884193
 21
4496.777644869126
 31
0.0
  0
LINE
  5
A5
330
17
100
AcDbEntity
  8
slope_cd
100
AcDbLine
 10
1452.731119884193
 20
4496.777644869126
 30
0.0
 11
1435.3758544226564
 21
4517.460844833338
 31
0.0
  0
LINE
  5
A6
330
17
100
AcDbEntity
  8
slope_cd
100
AcDbLine
 10
1435.3758544226564
 20
4517.460844833338
 30
0.0
 11
1389.4131878355176
 21
4478.8935882521455
 31
0.0
  0
LINE
  5
A7
330
17
100
AcDbEntity
  8
slope_cd
100
AcDbLine
 10
1389.4131878355176
 20
4478.8935882521455
 30
0.0
 11
1406.7684532970543
 21
4458.210388287933
 31
0.0
  0
LINE
  5
A8
330
17
100
AcDbEntity
  8
slope_cd
100
AcDbLine
 10
1885.5462302464155
 20
4859.95264434202
 30
0.0
 11
1931.5088968335542
 21
4898.519900923213
 31
0.0
  0
LINE
  5
A9
330
17
100
AcDbEntity
  8
slope_cd
100
AcDbLine
 10
1931.5088968335542
 20
4898.519900923213
 30
0.0
 11
1914.1536313720176
 21
4919.2031008874255
 31
0.0
  0
LINE
  5
AA
330
17
100
AcDbEntity
  8
slope_cd
100
AcDbLine
 10
1914.1536313720176
 20
4919.2031008874255
 30
0.0
 11
1868.1909647848788
 21
4880.635844306233
 31
0.0
  0
LINE
  5
AB
330
17
100
AcDbEntity
  8
slope_cd
100
AcDbLine
 10
1868.1909647848788
 20
4880.635844306233
 30
0.0
 11
1885.5462302464155
 21
4859.95264434202
 31
0.0
  0
LINE
  5
AC
330
17
100
AcDbEntity
  8
slope_cd
100
AcDbLine
 10
2515.379095472114
 20
5278.726019461523
 30
0.0
 11
2561.3417620592522
 21
5240.15876288033
 31
0.0
  0
LINE
  5
AD
330
17
100
AcDbEntity
  8
slope_cd
100
AcDbLine
 10
2561.3417620592522
 20
5240.15876288033
 30
0.0
 11
2578.6970275207887
 21
5260.841962844543
 31
0.0
  0
LINE
  5
AE
330
17
100
AcDbEntity
  8
slope_cd
100
AcDbLine
 10
2578.6970275207887
 20
5260.841962844543
 30
0.0
 11
2532.7343609336504
 21
5299.4092194257355
 31
0.0
  0
LINE
  5
AF
330
17
100
AcDbEntity
  8
slope_cd
100
AcDbLine
 10
2532.7343609336504
 20
5299.4092194257355
 30
0.0
 11
2515.379095472114
 21
5278.726019461523
 31
0.0
  0
LINE
  5
B0
330
17
100
AcDbEntity
  8
slope_cd
100
AcDbLine
 10
2994.1568724214753
 20
4876.9837634074365
 30
0.0
 11
3040.1195390086136
 21
4838.416506826244
 31
0.0
  0
LINE
  5
B1
330
17
100
AcDbEntity
  8
slope_cd
100
AcDbLine
 10
3040.1195390086136
 20
4838.416506826244
 30
0.0
 11
3057.47480447015
 21
4859.099706790456
 31
0.0
  0
LINE
  5
B2
330
17
100
AcDbEntity
  8
slope_cd
100
AcDbLine
 10
3057.47480447015
 20
4859.099706790456
 30
0.0
 11
3011.5121378830117
 21
4897.666963371649
 31
0.0
  0
LINE
  5
B3
330
17
100
AcDbEntity
  8
slope_cd
100
AcDbLine
 10
3011.5121378830117
 20
4897.666963371649
 30
0.0
 11
2994.1568724214753
 21
4876.9837634074365
 31
0.0
  0
LINE
  5
B4
330
17
100
AcDbEntity
  8
slope_cd
100
AcDbLine
 10
3472.9346493708363
 20
4475.241507353349
 30
0.0
 11
3518.8973159579746
 21
4436.6742507721565
 31
0.0
  0
LINE
  5
B5
330
17
100
AcDbEntity
  8
slope_cd
100
AcDbLine
 10
3518.8973159579746
 20
4436.6742507721565
 30
0.0
 11
3536.252581419511
 21
4457.357450736369
 31
0.0
  0
LINE
  5
B6
330
17
100
AcDbEntity
  8
slope_cd
100
AcDbLine
 10
3536.252581419511
 20
4457.357450736369
 30
0.0
 11
3490.2899148323727
 21
4495.924707317562
 31
0.0
  0
LINE
  5
B7
330
17
100
AcDbEntity
  8
slope_cd
100
AcDbLine
 10
3490.2899148323727
 20
4495.924707317562
 30
0.0
 11
3472.9346493708363
 21
4475.241507353349
 31
0.0
  0
LINE
  5
B8
330
17
100
AcDbEntity
  8
slope_cd
100
AcDbLine
 10
3951.7124263201977
 20
4073.4992512992612
 30
0.0
 11
3997.675092907336
 21
4034.9319947180693
 31
0.0
  0
LINE
  5
B9
330
17
100
AcDbEntity
  8
slope_cd
100
AcDbLine
 10
3997.675092907336
 20
4034.9319947180693
 30
0.0
 11
4015.0303583688724
 21
4055.6151946822815
 31
0.0
  0
LINE
  5
BA
330
17
100
AcDbEntity
  8
slope_cd
100
AcDbLine
 10
4015.0303583688724
 20
4055.6151946822815
 30
0.0
 11
3969.067691781734
 21
4094.1824512634735
 31
0.0
  0
LINE
  5
BB
330
17
100
AcDbEntity
  8
slope_cd
100
AcDbLine
 10
3969.067691781734
 20
4094.1824512634735
 30
0.0
 11
3951.7124263201977
 21
4073.4992512992612
 31
0.0
  0
LINE
  5
BC
330
17
100
AcDbEntity
  8
slope_cd
100
AcDbLine
 10
4430.490203269559
 20
3671.756995245174
 30
0.0
 11
4476.452869856697
 21
3633.189738663982
 31
0.0
  0
LINE
  5
BD
330
17
100
AcDbEntity
  8
slope_cd
100
AcDbLine
 10
4476.452869856697
 20
3633.189738663982
 30
0.0
 11
4493.808135318234
 21
3653.8729386281943
 31
0.0
  0
LINE
  5
BE
330
17
100
AcDbEntity
  8
slope_cd
100
AcDbLine
 10
4493.808135318234
 20
3653.8729386281943
 30
0.0
 11
4447.845468731096
 21
3692.4401952093863
 31
0.0
  0
LINE
  5
BF
330
17
100
AcDbEntity
  8
slope_cd
100
AcDbLine
 10
4447.845468731096
 20
3692.4401952093863
 30
0.0
 11
4430.490203269559
 21
3671.756995245174
 31
0.0
  0
LINE
  5
C1
330
17
100
AcDbEntity
  8
slope_nonius
100
AcDbLine
 10
925.9562997485359
 20
4090.0070843917892
 30
0.0
 11
941.2771886109156
 21
4102.86283658552
 31
0.0
  0
LINE
  5
C2
330
17
100
AcDbEntity
  8
slope_nonius
100
AcDbLine
 10
941.2771886109156
 20
4102.86283658552
 30
0.0
 11
891.1397550553656
 21
4162.6143031488
 31
0.0
  0
LINE
  5
C3
330
17
100
AcDbEntity
  8
slope_nonius
100
AcDbLine
 10
891.1397550553656
 20
4162.6143031488
 30
0.0
 11
875.818866192986
 21
4149.758550955069
 31
0.0
  0
LINE
  5
C4
330
17
100
AcDbEntity
  8
slope_nonius
100
AcDbLine
 10
875.818866192986
 20
4149.758550955069
 30
0.0
 11
925.9562997485359
 21
4090.0070843917892
 31
0.0
  0
LINE
  5
C5
330
17
100
AcDbEntity
  8
slope_nonius
100
AcDbLine
 10
1883.5118536472587
 20
4893.491596499963
 30
0.0
 11
1898.8327425096381
 21
4906.347348693694
 31
0.0
  0
LINE
  5
C6
330
17
100
AcDbEntity
  8
slope_nonius
100
AcDbLine
 10
1898.8327425096381
 20
4906.347348693694
 30
0.0
 11
1848.6953089540877
 21
4966.098815256974
 31
0.0
  0
LINE
  5
C7
330
17
100
AcDbEntity
  8
slope_nonius
100
AcDbLine
 10
1848.6953089540877
 20
4966.098815256974
 30
0.0
 11
1833.3744200917083
 21
4953.243063063243
 31
0.0
  0
LINE
  5
C8
330
17
100
AcDbEntity
  8
slope_nonius
100
AcDbLine
 10
1833.3744200917083
 20
4953.243063063243
 30
0.0
 11
1883.5118536472587
 21
4893.491596499963
 31
0.0
  0
LINE
  5
C9
330
17
100
AcDbEntity
  8
slope_nonius
100
AcDbLine
 10
3026.8330267453916
 20
4884.811211177917
 30
0.0
 11
3042.153915607771
 21
4871.955458984186
 31
0.0
  0
LINE
  5
CA
330
17
100
AcDbEntity
  8
slope_nonius
100
AcDbLine
 10
3042.153915607771
 20
4871.955458984186
 30
0.0
 11
3278.2205091882624
 21
5153.288669975214
 31
0.0
  0
LINE
  5
CB
330
17
100
AcDbEntity
  8
slope_nonius
100
AcDbLine
 10
3278.2205091882624
 20
5153.288669975214
 30
0.0
 11
3262.899620325883
 21
5166.144422168945
 31
0.0
  0
LINE
  5
CC
330
17
100
AcDbEntity
  8
slope_nonius
100
AcDbLine
 10
3262.899620325883
 20
5166.144422168945
 30
0.0
 11
3026.8330267453916
 21
4884.811211177917
 31
0.0
  0
LINE
  5
CD
330
17
100
AcDbEntity
  8
slope_nonius
100
AcDbLine
 10
3984.388580644114
 20
4081.3266990697434
 30
0.0
 11
3999.7094695064934
 21
4068.4709468760125
 31
0.0
  0
LINE
  5
CE
330
17
100
AcDbEntity
  8
slope_nonius
100
AcDbLine
 10
3999.7094695064934
 20
4068.4709468760125
 30
0.0
 11
4235.776063086984
 21
4349.80415786704
 31
0.0
  0
LINE
  5
CF
330
17
100
AcDbEntity
  8
slope_nonius
100
AcDbLine
 10
4235.776063086984
 20
4349.80415786704
 30
0.0
 11
4220.455174224605
 21
4362.659910060771
 31
0.0
  0
LINE
  5
D0
330
17
100
AcDbEntity
  8
slope_nonius
100
AcDbLine
 10
4220.455174224605
 20
4362.659910060771
 30
0.0
 11
3984.388580644114
 21
4081.3266990697434
 31
0.0
  0
LINE
  5
D2
330
17
100
AcDbEntity
  8
soffit_naturheld_140
100
AcDbLine
 10
4900.0
 20
2470.0
 30
0.0
 11
5350.0
 21
2470.0
 31
0.0
  0
LINE
  5
D3
330
17
100
AcDbEntity
  8
soffit_naturheld_140
100
AcDbLine
 10
5350.0
 20
2470.0
 30
0.0
 11
5350.0
 21
2534.0
 31
0.0
  0
LINE
  5
D4
330
17
100
AcDbEntity
  8
soffit_naturheld_140
100
AcDbLine
 10
5350.0
 20
2534.0
 30
0.0
 11
4964.0
 21
2534.0
 31
0.0
  0
LINE
  5
D5
330
17
100
AcDbEntity
  8
soffit_naturheld_140
100
AcDbLine
 10
4964.0
 20
2534.0
 30
0.0
 11
4964.0
 21
3207.771530462543
 31
0.0
  0
LINE
  5
D6
330
17
100
AcDbEntity
  8
soffit_naturheld_140
100
AcDbLine
 10
4964.0
 20
3207.771530462543
 30
0.0
 11
4900.0
 21
3261.473906857889
 31
0.0
  0
LINE
  5
D7
330
17
100
AcDbEntity
  8
soffit_naturheld_140
100
AcDbLine
 10
4900.0
 20
3261.473906857889
 30
0.0
 11
4900.0
 21
2470.0
 31
0.0
  0
LINE
  5
D8
330
17
100
AcDbEntity
  8
soffit_naturheld_140
100
AcDbLine
 10
4900.0
 20
2450.0
 30
0.0
 11
5350.0
 21
2450.0
 31
0.0
  0
LINE
  5
D9
330
17
100
AcDbEntity
  8
soffit_naturheld_140
100
AcDbLine
 10
5350.0
 20
2450.0
 30
0.0
 11
5350.0
 21
2470.0
 31
0.0
  0
LINE
  5
DA
330
17
100
AcDbEntity
  8
soffit_naturheld_140
100
AcDbLine
 10
5350.0
 20
2470.0
 30
0.0
 11
4900.0
 21
2470.0
 31
0.0
  0
LINE
  5
DB
330
17
100
AcDbEntity
  8
soffit_naturheld_140
100
AcDbLine
 10
4900.0
 20
3261.473906857889
 30
0.0
 11
4900.0
 21
2470.0
 31
0.0
  0
LINE
  5
DC
330
17
100
AcDbEntity
  8
soffit_naturheld_140
100
AcDbLine
 10
4900.0
 20
2470.0
 30
0.0
 11
5350.0
 21
2470.0
 31
0.0
  0
LINE
  5
DE
330
17
100
AcDbEntity
  8
soffit_naturheld_flex_50
100
AcDbLine
 10
4964.0
 20
2534.0
 30
0.0
 11
5350.0
 21
2534.0
 31
0.0
  0
LINE
  5
DF
330
17
100
AcDbEntity
  8
soffit_naturheld_flex_50
100
AcDbLine
 10
5350.0
 20
2534.0
 30
0.0
 11
5350.0
 21
2961.6058083755674
 31
0.0
  0
LINE
  5
E0
330
17
100
AcDbEntity
  8
soffit_naturheld_flex_50
100
AcDbLine
 10
5350.0
 20
2961.6058083755674
 30
0.0
 11
4964.0
 21
2961.6058083755674
 31
0.0
  0
LINE
  5
E1
330
17
100
AcDbEntity
  8
soffit_naturheld_flex_50
100
AcDbLine
 10
4964.0
 20
2961.6058083755674
 30
0.0
 11
4964.0
 21
2534.0
 31
0.0
  0
LINE
  5
E3
330
17
100
AcDbEntity
  8
soffit_battens
100
AcDbLine
 10
4964.0
 20
2537.0
 30
0.0
 11
5004.0
 21
2537.0
 31
0.0
  0
LINE
  5
E4
330
17
100
AcDbEntity
  8
soffit_battens
100
AcDbLine
 10
5004.0
 20
2537.0
 30
0.0
 11
5004.0
 21
3287.5
 31
0.0
  0
LINE
  5
E5
330
17
100
AcDbEntity
  8
soffit_battens
100
AcDbLine
 10
5004.0
 20
3287.5
 30
0.0
 11
4964.0
 21
3287.5
 31
0.0
  0
LINE
  5
E6
330
17
100
AcDbEntity
  8
soffit_battens
100
AcDbLine
 10
4964.0
 20
3287.5
 30
0.0
 11
4964.0
 21
2537.0
 31
0.0
  0
LINE
  5
E7
330
17
100
AcDbEntity
  8
soffit_battens
100
AcDbLine
 10
5004.0
 20
2921.6058083755674
 30
0.0
 11
5335.0
 21
2921.6058083755674
 31
0.0
  0
LINE
  5
E8
330
17
100
AcDbEntity
  8
soffit_battens
100
AcDbLine
 10
5335.0
 20
2921.6058083755674
 30
0.0
 11
5335.0
 21
2961.6058083755674
 31
0.0
  0
LINE
  5
E9
330
17
100
AcDbEntity
  8
soffit_battens
100
AcDbLine
 10
5335.0
 20
2961.6058083755674
 30
0.0
 11
5004.0
 21
2961.6058083755674
 31
0.0
  0
LINE
  5
EA
330
17
100
AcDbEntity
  8
soffit_battens
100
AcDbLine
 10
5004.0
 20
2961.6058083755674
 30
0.0
 11
5004.0
 21
2921.6058083755674
 31
0.0
  0
LINE
  5
EB
330
17
100
AcDbEntity
  8
soffit_battens
100
AcDbLine
 10
5004.0
 20
2537.0
 30
0.0
 11
5335.0
 21
2537.0
 31
0.0
  0
LINE
  5
EC
330
17
100
AcDbEntity
  8
soffit_battens
100
AcDbLine
 10
5335.0
 20
2537.0
 30
0.0
 11
5335.0
 21
2577.0
 31
0.0
  0
LINE
  5
ED
330
17
100
AcDbEntity
  8
soffit_battens
100
AcDbLine
 10
5335.0
 20
2577.0
 30
0.0
 11
5004.0
 21
2577.0
 31
0.0
  0
LINE
  5
EE
330
17
100
AcDbEntity
  8
soffit_battens
100
AcDbLine
 10
5004.0
 20
2577.0
 30
0.0
 11
5004.0
 21
2537.0
 31
0.0
  0
LINE
  5
F0
330
17
100
AcDbEntity
  8
soffit_gkf
100
AcDbLine
 10
4868.983309996697
 20
3287.5
 30
0.0
 11
5420.0
 21
3287.5
 31
0.0
  0
LINE
  5
F1
330
17
100
AcDbEntity
  8
soffit_gkf
100
AcDbLine
 10
5420.0
 20
3287.5
 30
0.0
 11
5420.0
 21
3300.0
 31
0.0
  0
LINE
  5
F2
330
17
100
AcDbEntity
  8
soffit_gkf
100
AcDbLine
 10
5420.0
 20
3300.0
 30
0.0
 11
4868.983309996697
 21
3300.0
 31
0.0
  0
LINE
  5
F3
330
17
100
AcDbEntity
  8
soffit_gkf
100
AcDbLine
 10
4868.983309996697
 20
3300.0
 30
0.0
 11
4868.983309996697
 21
3287.5
 31
0.0
  0
LINE
  5
F5
330
17
100
AcDbEntity
  8
soffit_cd
100
AcDbLine
 10
4869.983309996697
 20
3300.0
 30
0.0
 11
4929.983309996697
 21
3300.0
 31
0.0
  0
LINE
  5
F6
330
17
100
AcDbEntity
  8
soffit_cd
100
AcDbLine
 10
4929.983309996697
 20
3300.0
 30
0.0
 11
4929.983309996697
 21
3327.0
 31
0.0
  0
LINE
  5
F7
330
17
100
AcDbEntity
  8
soffit_cd
100
AcDbLine
 10
4929.983309996697
 20
3327.0
 30
0.0
 11
4869.983309996697
 21
3327.0
 31
0.0
  0
LINE
  5
F8
330
17
100
AcDbEntity
  8
soffit_cd
100
AcDbLine
 10
4869.983309996697
 20
3327.0
 30
0.0
 11
4869.983309996697
 21
3300.0
 31
0.0
  0
LINE
  5
F9
330
17
100
AcDbEntity
  8
soffit_cd
100
AcDbLine
 10
4964.0
 20
3300.0
 30
0.0
 11
5024.0
 21
3300.0
 31
0.0
  0
LINE
  5
FA
330
17
100
AcDbEntity
  8
soffit_cd
100
AcDbLine
 10
5024.0
 20
3300.0
 30
0.0
 11
5024.0
 21
3327.0
 31
0.0
  0
LINE
  5
FB
330
17
100
AcDbEntity
  8
soffit_cd
100
AcDbLine
 10
5024.0
 20
3327.0
 30
0.0
 11
4964.0
 21
3327.0
 31
0.0
  0
LINE
  5
FC
330
17
100
AcDbEntity
  8
soffit_cd
100
AcDbLine
 10
4964.0
 20
3327.0
 30
0.0
 11
4964.0
 21
3300.0
 31
0.0
  0
LINE
  5
FD
330
17
100
AcDbEntity
  8
soffit_cd
100
AcDbLine
 10
5151.5
 20
3300.0
 30
0.0
 11
5211.5
 21
3300.0
 31
0.0
  0
LINE
  5
FE
330
17
100
AcDbEntity
  8
soffit_cd
100
AcDbLine
 10
5211.5
 20
3300.0
 30
0.0
 11
5211.5
 21
3327.0
 31
0.0
  0
LINE
  5
FF
330
17
100
AcDbEntity
  8
soffit_cd
100
AcDbLine
 10
5211.5
 20
3327.0
 30
0.0
 11
5151.5
 21
3327.0
 31
0.0
  0
LINE
  5
100
330
17
100
AcDbEntity
  8
soffit_cd
100
AcDbLine
 10
5151.5
 20
3327.0
 30
0.0
 11
5151.5
 21
3300.0
 31
0.0
  0
LINE
  5
101
330
17
100
AcDbEntity
  8
soffit_cd
100
AcDbLine
 10
5288.0
 20
3300.0
 30
0.0
 11
5348.0
 21
3300.0
 31
0.0
  0
LINE
  5
102
330
17
100
AcDbEntity
  8
soffit_cd
100
AcDbLine
 10
5348.0
 20
3300.0
 30
0.0
 11
5348.0
 21
3327.0
 31
0.0
  0
LINE
  5
103
330
17
100
AcDbEntity
  8
soffit_cd
100
AcDbLine
 10
5348.0
 20
3327.0
 30
0.0
 11
5288.0
 21
3327.0
 31
0.0
  0
LINE
  5
104
330
17
100
AcDbEntity
  8
soffit_cd
100
AcDbLine
 10
5288.0
 20
3327.0
 30
0.0
 11
5288.0
 21
3300.0
 31
0.0
  0
LINE
  5
106
330
17
100
AcDbEntity
  8
soffit_nonius
100
AcDbLine
 10
4889.983309996697
 20
3327.0
 30
0.0
 11
4909.983309996697
 21
3327.0
 31
0.0
  0
LINE
  5
107
330
17
100
AcDbEntity
  8
soffit_nonius
100
AcDbLine
 10
4909.983309996697
 20
3327.0
 30
0.0
 11
4909.983309996697
 21
3795.0789165384876
 31
0.0
  0
LINE
  5
108
330
17
100
AcDbEntity
  8
soffit_nonius
100
AcDbLine
 10
4909.983309996697
 20
3795.0789165384876
 30
0.0
 11
4889.983309996697
 21
3795.0789165384876
 31
0.0
  0
LINE
  5
109
330
17
100
AcDbEntity
  8
soffit_nonius
100
AcDbLine
 10
4889.983309996697
 20
3795.0789165384876
 30
0.0
 11
4889.983309996697
 21
3327.0
 31
0.0
  0
LINE
  5
10A
330
17
100
AcDbEntity
  8
soffit_nonius
100
AcDbLine
 10
4984.0
 20
3327.0
 30
0.0
 11
5004.0
 21
3327.0
 31
0.0
  0
LINE
  5
10B
330
17
100
AcDbEntity
  8
soffit_nonius
100
AcDbLine
 10
5004.0
 20
3327.0
 30
0.0
 11
5004.0
 21
3716.1895466322076
 31
0.0
  0
LINE
  5
10C
330
17
100
AcDbEntity
  8
soffit_nonius
100
AcDbLine
 10
5004.0
 20
3716.1895466322076
 30
0.0
 11
4984.0
 21
3716.1895466322076
 31
0.0
  0
LINE
  5
10D
330
17
100
AcDbEntity
  8
soffit_nonius
100
AcDbLine
 10
4984.0
 20
3716.1895466322076
 30
0.0
 11
4984.0
 21
3327.0
 31
0.0
  0
LINE
  5
10E
330
17
100
AcDbEntity
  8
soffit_nonius
100
AcDbLine
 10
5171.5
 20
3327.0
 30
0.0
 11
5191.5
 21
3327.0
 31
0.0
  0
LINE
  5
10F
330
17
100
AcDbEntity
  8
soffit_nonius
100
AcDbLine
 10
5191.5
 20
3327.0
 30
0.0
 11
5191.5
 21
3558.858365786468
 31
0.0
  0
LINE
  5
110
330
17
100
AcDbEntity
  8
soffit_nonius
100
AcDbLine
 10
5191.5
 20
3558.858365786468
 30
0.0
 11
5171.5
 21
3558.858365786468
 31
0.0
  0
LINE
  5
111
330
17
100
AcDbEntity
  8
soffit_nonius
100
AcDbLine
 10
5171.5
 20
3558.858365786468
 30
0.0
 11
5171.5
 21
3327.0
 31
0.0
  0
LINE
  5
112
330
17
100
AcDbEntity
  8
soffit_nonius
100
AcDbLine
 10
5308.0
 20
3327.0
 30
0.0
 11
5328.0
 21
3327.0
 31
0.0
  0
LINE
  5
113
330
17
100
AcDbEntity
  8
soffit_nonius
100
AcDbLine
 10
5328.0
 20
3327.0
 30
0.0
 11
5328.0
 21
3444.321266130769
 31
0.0
  0
LINE
  5
114
330
17
100
AcDbEntity
  8
soffit_nonius
100
AcDbLine
 10
5328.0
 20
3444.321266130769
 30
0.0
 11
5308.0
 21
3444.321266130769
 31
0.0
  0
LINE
  5
115
330
17
100
AcDbEntity
  8
soffit_nonius
100
AcDbLine
 10
5308.0
 20
3444.321266130769
 30
0.0
 11
5308.0
 21
3327.0
 31
0.0
  0
LINE
  5
116
330
17
100
AcDbEntity
  8
soffit_nonius
100
AcDbLine
 10
5365.0
 20
3284.5
 30
0.0
 11
5420.0
 21
3284.5
 31
0.0
  0
LINE
  5
117
330
17
100
AcDbEntity
  8
soffit_nonius
100
AcDbLine
 10
5420.0
 20
3284.5
 30
0.0
 11
5420.0
 21
3287.5
 31
0.0
  0
LINE
  5
118
330
17
100
AcDbEntity
  8
soffit_nonius
100
AcDbLine
 10
5420.0
 20
3287.5
 30
0.0
 11
5365.0
 21
3287.5
 31
0.0
  0
LINE
  5
119
330
17
100
AcDbEntity
  8
soffit_nonius
100
AcDbLine
 10
5365.0
 20
3287.5
 30
0.0
 11
5365.0
 21
3284.5
 31
0.0
  0
LINE
  5
11A
330
17
100
AcDbEntity
  8
soffit_nonius
100
AcDbLine
 10
5417.0
 20
3232.5
 30
0.0
 11
5420.0
 21
3232.5
 31
0.0
  0
LINE
  5
11B
330
17
100
AcDbEntity
  8
soffit_nonius
100
AcDbLine
 10
5420.0
 20
3232.5
 30
0.0
 11
5420.0
 21
3287.5
 31
0.0
  0
LINE
  5
11C
330
17
100
AcDbEntity
  8
soffit_nonius
100
AcDbLine
 10
5420.0
 20
3287.5
 30
0.0
 11
5417.0
 21
3287.5
 31
0.0
  0
LINE
  5
11D
330
17
100
AcDbEntity
  8
soffit_nonius
100
AcDbLine
 10
5417.0
 20
3287.5
 30
0.0
 11
5417.0
 21
3232.5
 31
0.0
  0
LINE
  5
11E
330
17
100
AcDbEntity
  8
soffit_nonius
100
AcDbLine
 10
4984.0
 20
3287.5
 30
0.0
 11
5004.0
 21
3287.5
 31
0.0
  0
LINE
  5
11F
330
17
100
AcDbEntity
  8
soffit_nonius
100
AcDbLine
 10
5004.0
 20
3287.5
 30
0.0
 11
5004.0
 21
3300.0
 31
0.0
  0
LINE
  5
120
330
17
100
AcDbEntity
  8
soffit_nonius
100
AcDbLine
 10
5004.0
 20
3300.0
 30
0.0
 11
4984.0
 21
3300.0
 31
0.0
  0
LINE
  5
121
330
17
100
AcDbEntity
  8
soffit_nonius
100
AcDbLine
 10
4984.0
 20
3300.0
 30
0.0
 11
4984.0
 21
3287.5
 31
0.0
  0
LINE
  5
122
330
17
100
AcDbEntity
  8
soffit_nonius
100
AcDbLine
 10
5255.0
 20
2534.0
 30
0.0
 11
5332.0
 21
2534.0
 31
0.0
  0
LINE
  5
123
330
17
100
AcDbEntity
  8
soffit_nonius
100
AcDbLine
 10
5332.0
 20
2534.0
 30
0.0
 11
5332.0
 21
2537.0
 31
0.0
  0
LINE
  5
124
330
17
100
AcDbEntity
  8
soffit_nonius
100
AcDbLine
 10
5332.0
 20
2537.0
 30
0.0
 11
5255.0
 21
2537.0
 31
0.0
  0
LINE
  5
125
330
17
100
AcDbEntity
  8
soffit_nonius
100
AcDbLine
 10
5255.0
 20
2537.0
 30
0.0
 11
5255.0
 21
2534.0
 31
0.0
  0
LINE
  5
126
330
17
100
AcDbEntity
  8
soffit_nonius
100
AcDbLine
 10
5332.0
 20
2537.0
 30
0.0
 11
5335.0
 21
2537.0
 31
0.0
  0
LINE
  5
127
330
17
100
AcDbEntity
  8
soffit_nonius
100
AcDbLine
 10
5335.0
 20
2537.0
 30
0.0
 11
5335.0
 21
2614.0
 31
0.0
  0
LINE
  5
128
330
17
100
AcDbEntity
  8
soffit_nonius
100
AcDbLine
 10
5335.0
 20
2614.0
 30
0.0
 11
5332.0
 21
2614.0
 31
0.0
  0
LINE
  5
129
330
17
100
AcDbEntity
  8
soffit_nonius
100
AcDbLine
 10
5332.0
 20
2614.0
 30
0.0
 11
5332.0
 21
2537.0
 31
0.0
  0
LINE
  5
12B
330
17
100
AcDbEntity
  8
soffit_duct
100
AcDbLine
 10
5344.0
 20
3197.5
 30
0.0
 11
5341.274066103126
 21
3218.2055236082015
 31
0.0
  0
LINE
  5
12C
330
17
100
AcDbEntity
  8
soffit_duct
100
AcDbLine
 10
5341.274066103126
 20
3218.2055236082015
 30
0.0
 11
5333.282032302755
 21
3237.5
 31
0.0
  0
LINE
  5
12D
330
17
100
AcDbEntity
  8
soffit_duct
100
AcDbLine
 10
5333.282032302755
 20
3237.5
 30
0.0
 11
5320.568542494924
 21
3254.068542494924
 31
0.0
  0
LINE
  5
12E
330
17
100
AcDbEntity
  8
soffit_duct
100
AcDbLine
 10
5320.568542494924
 20
3254.068542494924
 30
0.0
 11
5304.0
 21
3266.782032302755
 31
0.0
  0
LINE
  5
12F
330
17
100
AcDbEntity
  8
soffit_duct
100
AcDbLine
 10
5304.0
 20
3266.782032302755
 30
0.0
 11
5284.7055236082015
 21
3274.7740661031253
 31
0.0
  0
LINE
  5
130
330
17
100
AcDbEntity
  8
soffit_duct
100
AcDbLine
 10
5284.7055236082015
 20
3274.7740661031253
 30
0.0
 11
5264.0
 21
3277.5
 31
0.0
  0
LINE
  5
131
330
17
100
AcDbEntity
  8
soffit_duct
100
AcDbLine
 10
5264.0
 20
3277.5
 30
0.0
 11
5243.2944763917985
 21
3274.7740661031253
 31
0.0
  0
LINE
  5
132
330
17
100
AcDbEntity
  8
soffit_duct
100
AcDbLine
 10
5243.2944763917985
 20
3274.7740661031253
 30
0.0
 11
5224.0
 21
3266.782032302755
 31
0.0
  0
LINE
  5
133
330
17
100
AcDbEntity
  8
soffit_duct
100
AcDbLine
 10
5224.0
 20
3266.782032302755
 30
0.0
 11
5207.431457505077
 21
3254.068542494924
 31
0.0
  0
LINE
  5
134
330
17
100
AcDbEntity
  8
soffit_duct
100
AcDbLine
 10
5207.431457505077
 20
3254.068542494924
 30
0.0
 11
5194.717967697245
 21
3237.5
 31
0.0
  0
LINE
  5
135
330
17
100
AcDbEntity
  8
soffit_duct
100
AcDbLine
 10
5194.717967697245
 20
3237.5
 30
0.0
 11
5186.725933896874
 21
3218.2055236082015
 31
0.0
  0
LINE
  5
136
330
17
100
AcDbEntity
  8
soffit_duct
100
AcDbLine
 10
5186.725933896874
 20
3218.2055236082015
 30
0.0
 11
5184.0
 21
3197.5
 31
0.0
  0
LINE
  5
137
330
17
100
AcDbEntity
  8
soffit_duct
100
AcDbLine
 10
5184.0
 20
3197.5
 30
0.0
 11
5186.725933896874
 21
3176.7944763917985
 31
0.0
  0
LINE
  5
138
330
17
100
AcDbEntity
  8
soffit_duct
100
AcDbLine
 10
5186.725933896874
 20
3176.7944763917985
 30
0.0
 11
5194.717967697245
 21
3157.5
 31
0.0
  0
LINE
  5
139
330
17
100
AcDbEntity
  8
soffit_duct
100
AcDbLine
 10
5194.717967697245
 20
3157.5
 30
0.0
 11
5207.431457505076
 21
3140.931457505076
 31
0.0
  0
LINE
  5
13A
330
17
100
AcDbEntity
  8
soffit_duct
100
AcDbLine
 10
5207.431457505076
 20
3140.931457505076
 30
0.0
 11
5224.0
 21
3128.217967697245
 31
0.0
  0
LINE
  5
13B
330
17
100
AcDbEntity
  8
soffit_duct
100
AcDbLine
 10
5224.0
 20
3128.217967697245
 30
0.0
 11
5243.2944763917985
 21
3120.2259338968747
 31
0.0
  0
LINE
  5
13C
330
17
100
AcDbEntity
  8
soffit_duct
100
AcDbLine
 10
5243.2944763917985
 20
3120.2259338968747
 30
0.0
 11
5264.0
 21
3117.5
 31
0.0
  0
LINE
  5
13D
330
17
100
AcDbEntity
  8
soffit_duct
100
AcDbLine
 10
5264.0
 20
3117.5
 30
0.0
 11
5284.7055236082015
 21
3120.2259338968747
 31
0.0
  0
LINE
  5
13E
330
17
100
AcDbEntity
  8
soffit_duct
100
AcDbLine
 10
5284.7055236082015
 20
3120.2259338968747
 30
0.0
 11
5304.0
 21
3128.217967697245
 31
0.0
  0
LINE
  5
13F
330
17
100
AcDbEntity
  8
soffit_duct
100
AcDbLine
 10
5304.0
 20
3128.217967697245
 30
0.0
 11
5320.568542494923
 21
3140.931457505076
 31
0.0
  0
LINE
  5
140
330
17
100
AcDbEntity
  8
soffit_duct
100
AcDbLine
 10
5320.568542494923
 20
3140.931457505076
 30
0.0
 11
5333.282032302755
 21
3157.5
 31
0.0
  0
LINE
  5
141
330
17
100
AcDbEntity
  8
soffit_duct
100
AcDbLine
 10
5333.282032302755
 20
3157.5
 30
0.0
 11
5341.274066103126
 21
3176.794476391798
 31
0.0
  0
LINE
  5
142
330
17
100
AcDbEntity
  8
soffit_duct
100
AcDbLine
 10
5341.274066103126
 20
3176.794476391798
 30
0.0
 11
5344.0
 21
3197.5
 31
0.0
  0
LINE
  5
143
330
17
100
AcDbEntity
  8
soffit_duct
100
AcDbLine
 10
5179.0
 20
3197.5
 30
0.0
 11
5176.274066103126
 21
3218.2055236082015
 31
0.0
  0
LINE
  5
144
330
17
100
AcDbEntity
  8
soffit_duct
100
AcDbLine
 10
5176.274066103126
 20
3218.2055236082015
 30
0.0
 11
5168.282032302755
 21
3237.5
 31
0.0
  0
LINE
  5
145
330
17
100
AcDbEntity
  8
soffit_duct
100
AcDbLine
 10
5168.282032302755
 20
3237.5
 30
0.0
 11
5155.568542494924
 21
3254.068542494924
 31
0.0
  0
LINE
  5
146
330
17
100
AcDbEntity
  8
soffit_duct
100
AcDbLine
 10
5155.568542494924
 20
3254.068542494924
 30
0.0
 11
5139.0
 21
3266.782032302755
 31
0.0
  0
LINE
  5
147
330
17
100
AcDbEntity
  8
soffit_duct
100
AcDbLine
 10
5139.0
 20
3266.782032302755
 30
0.0
 11
5119.7055236082015
 21
3274.7740661031253
 31
0.0
  0
LINE
  5
148
330
17
100
AcDbEntity
  8
soffit_duct
100
AcDbLine
 10
5119.7055236082015
 20
3274.7740661031253
 30
0.0
 11
5099.0
 21
3277.5
 31
0.0
  0
LINE
  5
149
330
17
100
AcDbEntity
  8
soffit_duct
100
AcDbLine
 10
5099.0
 20
3277.5
 30
0.0
 11
5078.2944763917985
 21
3274.7740661031253
 31
0.0
  0
LINE
  5
14A
330
17
100
AcDbEntity
  8
soffit_duct
100
AcDbLine
 10
5078.2944763917985
 20
3274.7740661031253
 30
0.0
 11
5059.0
 21
3266.782032302755
 31
0.0
  0
LINE
  5
14B
330
17
100
AcDbEntity
  8
soffit_duct
100
AcDbLine
 10
5059.0
 20
3266.782032302755
 30
0.0
 11
5042.431457505077
 21
3254.068542494924
 31
0.0
  0
LINE
  5
14C
330
17
100
AcDbEntity
  8
soffit_duct
100
AcDbLine
 10
5042.431457505077
 20
3254.068542494924
 30
0.0
 11
5029.717967697245
 21
3237.5
 31
0.0
  0
LINE
  5
14D
330
17
100
AcDbEntity
  8
soffit_duct
100
AcDbLine
 10
5029.717967697245
 20
3237.5
 30
0.0
 11
5021.725933896874
 21
3218.2055236082015
 31
0.0
  0
LINE
  5
14E
330
17
100
AcDbEntity
  8
soffit_duct
100
AcDbLine
 10
5021.725933896874
 20
3218.2055236082015
 30
0.0
 11
5019.0
 21
3197.5
 31
0.0
  0
LINE
  5
14F
330
17
100
AcDbEntity
  8
soffit_duct
100
AcDbLine
 10
5019.0
 20
3197.5
 30
0.0
 11
5021.725933896874
 21
3176.7944763917985
 31
0.0
  0
LINE
  5
150
330
17
100
AcDbEntity
  8
soffit_duct
100
AcDbLine
 10
5021.725933896874
 20
3176.7944763917985
 30
0.0
 11
5029.717967697245
 21
3157.5
 31
0.0
  0
LINE
  5
151
330
17
100
AcDbEntity
  8
soffit_duct
100
AcDbLine
 10
5029.717967697245
 20
3157.5
 30
0.0
 11
5042.431457505076
 21
3140.931457505076
 31
0.0
  0
LINE
  5
152
330
17
100
AcDbEntity
  8
soffit_duct
100
AcDbLine
 10
5042.431457505076
 20
3140.931457505076
 30
0.0
 11
5059.0
 21
3128.217967697245
 31
0.0
  0
LINE
  5
153
330
17
100
AcDbEntity
  8
soffit_duct
100
AcDbLine
 10
5059.0
 20
3128.217967697245
 30
0.0
 11
5078.2944763917985
 21
3120.2259338968747
 31
0.0
  0
LINE
  5
154
330
17
100
AcDbEntity
  8
soffit_duct
100
AcDbLine
 10
5078.2944763917985
 20
3120.2259338968747
 30
0.0
 11
5099.0
 21
3117.5
 31
0.0
  0
LINE
  5
155
330
17
100
AcDbEntity
  8
soffit_duct
100
AcDbLine
 10
5099.0
 20
3117.5
 30
0.0
 11
5119.7055236082015
 21
3120.2259338968747
 31
0.0
  0
LINE
  5
156
330
17
100
AcDbEntity
  8
soffit_duct
100
AcDbLine
 10
5119.7055236082015
 20
3120.2259338968747
 30
0.0
 11
5139.0
 21
3128.217967697245
 31
0.0
  0
LINE
  5
157
330
17
100
AcDbEntity
  8
soffit_duct
100
AcDbLine
 10
5139.0
 20
3128.217967697245
 30
0.0
 11
5155.568542494923
 21
3140.931457505076
 31
0.0
  0
LINE
  5
158
330
17
100
AcDbEntity
  8
soffit_duct
100
AcDbLine
 10
5155.568542494923
 20
3140.931457505076
 30
0.0
 11
5168.282032302755
 21
3157.5
 31
0.0
  0
LINE
  5
159
330
17
100
AcDbEntity
  8
soffit_duct
100
AcDbLine
 10
5168.282032302755
 20
3157.5
 30
0.0
 11
5176.274066103126
 21
3176.794476391798
 31
0.0
  0
LINE
  5
15A
330
17
100
AcDbEntity
  8
soffit_duct
100
AcDbLine
 10
5176.274066103126
 20
3176.794476391798
 30
0.0
 11
5179.0
 21
3197.5
 31
0.0
  0
LINE
  5
15B
330
17
100
AcDbEntity
  8
soffit_duct
100
AcDbLine
 10
5261.5
 20
3054.6058083755674
 30
0.0
 11
5258.774066103126
 21
3075.311331983769
 31
0.0
  0
LINE
  5
15C
330
17
100
AcDbEntity
  8
soffit_duct
100
AcDbLine
 10
5258.774066103126
 20
3075.311331983769
 30
0.0
 11
5250.782032302755
 21
3094.6058083755674
 31
0.0
  0
LINE
  5
15D
330
17
100
AcDbEntity
  8
soffit_duct
100
AcDbLine
 10
5250.782032302755
 20
3094.6058083755674
 30
0.0
 11
5238.068542494924
 21
3111.1743508704913
 31
0.0
  0
LINE
  5
15E
330
17
100
AcDbEntity
  8
soffit_duct
100
AcDbLine
 10
5238.068542494924
 20
3111.1743508704913
 30
0.0
 11
5221.5
 21
3123.8878406783224
 31
0.0
  0
LINE
  5
15F
330
17
100
AcDbEntity
  8
soffit_duct
100
AcDbLine
 10
5221.5
 20
3123.8878406783224
 30
0.0
 11
5202.2055236082015
 21
3131.8798744786927
 31
0.0
  0
LINE
  5
160
330
17
100
AcDbEntity
  8
soffit_duct
100
AcDbLine
 10
5202.2055236082015
 20
3131.8798744786927
 30
0.0
 11
5181.5
 21
3134.6058083755674
 31
0.0
  0
LINE
  5
161
330
17
100
AcDbEntity
  8
soffit_duct
100
AcDbLine
 10
5181.5
 20
3134.6058083755674
 30
0.0
 11
5160.7944763917985
 21
3131.8798744786927
 31
0.0
  0
LINE
  5
162
330
17
100
AcDbEntity
  8
soffit_duct
100
AcDbLine
 10
5160.7944763917985
 20
3131.8798744786927
 30
0.0
 11
5141.5
 21
3123.8878406783224
 31
0.0
  0
LINE
  5
163
330
17
100
AcDbEntity
  8
soffit_duct
100
AcDbLine
 10
5141.5
 20
3123.8878406783224
 30
0.0
 11
5124.931457505077
 21
3111.1743508704913
 31
0.0
  0
LINE
  5
164
330
17
100
AcDbEntity
  8
soffit_duct
100
AcDbLine
 10
5124.931457505077
 20
3111.1743508704913
 30
0.0
 11
5112.217967697245
 21
3094.6058083755674
 31
0.0
  0
LINE
  5
165
330
17
100
AcDbEntity
  8
soffit_duct
100
AcDbLine
 10
5112.217967697245
 20
3094.6058083755674
 30
0.0
 11
5104.225933896874
 21
3075.311331983769
 31
0.0
  0
LINE
  5
166
330
17
100
AcDbEntity
  8
soffit_duct
100
AcDbLine
 10
5104.225933896874
 20
3075.311331983769
 30
0.0
 11
5101.5
 21
3054.6058083755674
 31
0.0
  0
LINE
  5
167
330
17
100
AcDbEntity
  8
soffit_duct
100
AcDbLine
 10
5101.5
 20
3054.6058083755674
 30
0.0
 11
5104.225933896874
 21
3033.900284767366
 31
0.0
  0
LINE
  5
168
330
17
100
AcDbEntity
  8
soffit_duct
100
AcDbLine
 10
5104.225933896874
 20
3033.900284767366
 30
0.0
 11
5112.217967697245
 21
3014.6058083755674
 31
0.0
  0
LINE
  5
169
330
17
100
AcDbEntity
  8
soffit_duct
100
AcDbLine
 10
5112.217967697245
 20
3014.6058083755674
 30
0.0
 11
5124.931457505076
 21
2998.0372658806436
 31
0.0
  0
LINE
  5
16A
330
17
100
AcDbEntity
  8
soffit_duct
100
AcDbLine
 10
5124.931457505076
 20
2998.0372658806436
 30
0.0
 11
5141.5
 21
2985.3237760728125
 31
0.0
  0
LINE
  5
16B
330
17
100
AcDbEntity
  8
soffit_duct
100
AcDbLine
 10
5141.5
 20
2985.3237760728125
 30
0.0
 11
5160.7944763917985
 21
2977.331742272442
 31
0.0
  0
LINE
  5
16C
330
17
100
AcDbEntity
  8
soffit_duct
100
AcDbLine
 10
5160.7944763917985
 20
2977.331742272442
 30
0.0
 11
5181.5
 21
2974.6058083755674
 31
0.0
  0
LINE
  5
16D
330
17
100
AcDbEntity
  8
soffit_duct
100
AcDbLine
 10
5181.5
 20
2974.6058083755674
 30
0.0
 11
5202.2055236082015
 21
2977.331742272442
 31
0.0
  0
LINE
  5
16E
330
17
100
AcDbEntity
  8
soffit_duct
100
AcDbLine
 10
5202.2055236082015
 20
2977.331742272442
 30
0.0
 11
5221.5
 21
2985.3237760728125
 31
0.0
  0
LINE
  5
16F
330
17
100
AcDbEntity
  8
soffit_duct
100
AcDbLine
 10
5221.5
 20
2985.3237760728125
 30
0.0
 11
5238.068542494923
 21
2998.0372658806436
 31
0.0
  0
LINE
  5
170
330
17
100
AcDbEntity
  8
soffit_duct
100
AcDbLine
 10
5238.068542494923
 20
2998.0372658806436
 30
0.0
 11
5250.782032302755
 21
3014.6058083755674
 31
0.0
  0
LINE
  5
171
330
17
100
AcDbEntity
  8
soffit_duct
100
AcDbLine
 10
5250.782032302755
 20
3014.6058083755674
 30
0.0
 11
5258.774066103126
 21
3033.9002847673655
 31
0.0
  0
LINE
  5
172
330
17
100
AcDbEntity
  8
soffit_duct
100
AcDbLine
 10
5258.774066103126
 20
3033.9002847673655
 30
0.0
 11
5261.5
 21
3054.6058083755674
 31
0.0
  0
ENDSEC
  0
SECTION
  2
OBJECTS
  0
DICTIONARY
  5
A
330
0
100
AcDbDictionary
281
1
  3
ACAD_COLOR
350
B
  3
ACAD_GROUP
350
C
  3
ACAD_LAYOUT
350
D
  3
ACAD_MATERIAL
350
E
  3
ACAD_MLEADERSTYLE
350
F
  3
ACAD_MLINESTYLE
350
10
  3
ACAD_PLOTSETTINGS
350
11
  3
ACAD_PLOTSTYLENAME
350
12
  3
ACAD_SCALELIST
350
14
  3
ACAD_TABLESTYLE
350
15
  3
ACAD_VISUALSTYLE
350
16
  3
EZDXF_META
350
2D
  0
DICTIONARY
  5
B
330
A
100
AcDbDictionary
281
1
  0
DICTIONARY
  5
C
330
A
100
AcDbDictionary
281
1
  0
DICTIONARY
  5
D
330
A
100
AcDbDictionary
281
1
  3
Model
350
1A
  3
Layout1
350
1E
  0
DICTIONARY
  5
E
330
A
100
AcDbDictionary
281
1
  3
ByBlock
350
1F
  3
ByLayer
350
20
  3
Global
350
21
  0
DICTIONARY
  5
F
330
A
100
AcDbDictionary
281
1
  3
Standard
350
2C
  0
DICTIONARY
  5
10
330
A
100
AcDbDictionary
281
1
  3
Standard
350
22
  0
DICTIONARY
  5
11
330
A
100
AcDbDictionary
281
1
  0
ACDBDICTIONARYWDFLT
  5
12
330
A
100
AcDbDictionary
281
1
  3
Normal
350
13
100
AcDbDictionaryWithDefault
340
13
  0
ACDBPLACEHOLDER
  5
13
330
12
  0
DICTIONARY
  5
14
330
A
100
AcDbDictionary
281
1
  0
DICTIONARY
  5
15
330
A
100
AcDbDictionary
281
1
  0
DICTIONARY
  5
16
330
A
100
AcDbDictionary
281
1
  0
LAYOUT
  5
1A
330
D
100
AcDbPlotSettings
  1

  4
A3
  6

 40
7.5
 41
20.0
 42
7.5
 43
20.0
 44
420.0
 45
297.0
 46
0.0
 47
0.0
 48
0.0
 49
0.0
140
0.0
141
0.0
142
1.0
143
1.0
 70
1024
 72
1
 73
0
 74
5
  7

 75
16
 76
0
 77
2
 78
300
147
1.0
148
0.0
149
0.0
100
AcDbLayout
  1
Model
 70
1
 71
0
 10
0.0
 20
0.0
 11
420.0
 21
297.0
 12
0.0
 22
0.0
 32
0.0
 14
1e+20
 24
1e+20
 34
1e+20
 15
-1e+20
 25
-1e+20
 35
-1e+20
146
0.0
 13
0.0
 23
0.0
 33
0.0
 16
1.0
 26
0.0
 36
0.0
 17
0.0
 27
1.0
 37
0.0
 76
1
330
17
  0
LAYOUT
  5
1E
330
D
100
AcDbPlotSettings
  1

  4
A3
  6

 40
7.5
 41
20.0
 42
7.5
 43
20.0
 44
420.0
 45
297.0
 46
0.0
 47
0.0
 48
0.0
 49
0.0
140
0.0
141
0.0
142
1.0
143
1.0
 70
0
 72
1
 73
0
 74
5
  7

 75
16
 76
0
 77
2
 78
300
147
1.0
148
0.0
149
0.0
100
AcDbLayout
  1
Layout1
 70
1
 71
1
 10
0.0
 20
0.0
 11
420.0
 21
297.0
 12
0.0
 22
0.0
 32
0.0
 14
1e+20
 24
1e+20
 34
1e+20
 15
-1e+20
 25
-1e+20
 35
-1e+20
146
0.0
 13
0.0
 23
0.0
 33
0.0
 16
1.0
 26
0.0
 36
0.0
 17
0.0
 27
1.0
 37
0.0
 76
1
330
1B
  0
MATERIAL
  5
1F
102
{ACAD_REACTORS
330
E
102
}
330
E
100
AcDbMaterial
  1
ByBlock
  2

 70
0
 40
1.0
 71
1
 41
1.0
 91
-1023410177
 42
1.0
 72
1
  3

 73
1
 74
1
 75
1
 44
0.5
 73
0
 45
1.0
 46
1.0
 77
1
  4

 78
1
 79
1
170
1
 48
1.0
171
1
  6

172
1
173
1
174
1
140
1.0
141
1.0
175
1
  7

176
1
177
1
178
1
143
1.0
179
1
  8

270
1
271
1
272
1
145
1.0
146
1.0
273
1
  9

274
1
275
1
276
1
 42
1.0
 72
1
  3

 73
1
 74
1
 75
1
 94
63
  0
MATERIAL
  5
20
102
{ACAD_REACTORS
330
E
102
}
330
E
100
AcDbMaterial
  1
ByLayer
  2

 70
0
 40
1.0
 71
1
 41
1.0
 91
-1023410177
 42
1.0
 72
1
  3

 73
1
 74
1
 75
1
 44
0.5
 73
0
 45
1.0
 46
1.0
 77
1
  4

 78
1
 79
1
170
1
 48
1.0
171
1
  6

172
1
173
1
174
1
140
1.0
141
1.0
175
1
  7

176
1
177
1
178
1
143
1.0
179
1
  8

270
1
271
1
272
1
145
1.0
146
1.0
273
1
  9

274
1
275
1
276
1
 42
1.0
 72
1
  3

 73
1
 74
1
 75
1
 94
63
  0
MATERIAL
  5
21
102
{ACAD_REACTORS
330
E
102
}
330
E
100
AcDbMaterial
  1
Global
  2

 70
0
 40
1.0
 71
1
 41
1.0
 91
-1023410177
 42
1.0
 72
1
  3

 73
1
 74
1
 75
1
 44
0.5
 73
0
 45
1.0
 46
1.0
 77
1
  4

 78
1
 79
1
170
1
 48
1.0
171
1
  6

172
1
173
1
174
1
140
1.0
141
1.0
175
1
  7

176
1
177
1
178
1
143
1.0
179
1
  8

270
1
271
1
272
1
145
1.0
146
1.0
273
1
  9

274
1
275
1
276
1
 42
1.0
 72
1
  3

 73
1
 74
1
 75
1
 94
63
  0
MLINESTYLE
  5
22
102
{ACAD_REACTORS
330
10
102
}
330
10
100
AcDbMlineStyle
  2
Standard
 70
0
  3

 62
256
 51
90.0
 52
90.0
 71
2
 49
0.5
 62
256
  6
BYLAYER
 49
-0.5
 62
256
  6
BYLAYER
  0
MLEADERSTYLE
  5
2C
102
{ACAD_REACTORS
330
F
102
}
330
F
100
AcDbMLeaderStyle
179
2
170
2
171
1
172
0
 90
2
 40
0.0
 41
0.0
173
1
 91
-1056964608
 92
-2
290
1
 42
2.0
291
1
 43
8.0
  3
Standard
 44
4.0
300

342
29
174
1
175
1
176
0
178
1
 93
-1056964608
 45
4.0
292
0
297
0
 46
4.0
 94
-1056964608
 47
1.0
 49
1.0
140
1.0
294
1
141
0.0
177
0
142
1.0
295
0
296
0
143
3.75
271
0
272
9
273
9
  0
DICTIONARY
  5
2D
330
A
100
AcDbDictionary
280
1
281
1
  3
CREATED_BY_EZDXF
350
2E
  3
WRITTEN_BY_EZDXF
350
176
  0
DICTIONARYVAR
  5
2E
330
2D
100
DictionaryVariables
280
0
  1
1.4.4 @ 2026-09-24T11:34:41.424291+00:00
  0
DICTIONARYVAR
  5
176
330
2D
100
DictionaryVariables
280
0
  1
1.4.4 @ 2026-09-24T11:34:41.453832+00:00
  0
ENDSEC
  0
EOF
