  0
SECTION
  2
HEADER
  9
$ACADVER
  1
AC1027
  9
$ACADMAINTVER
 70
105
  9
$DWGCODEPAGE
  3
ANSI_1252
  9
$LASTSAVEDBY
  1
ezdxf
  9
$REQUIREDVERSIONS
160
0
  9
$INSBASE
 10
0.0
 20
0.0
 30
0.0
  9
$EXTMIN
 10
1e+20
 20
1e+20
 30
1e+20
  9
$EXTMAX
 10
-1e+20
 20
-1e+20
 30
-1e+20
  9
$LIMMIN
 10
0.0
 20
0.0
  9
$LIMMAX
 10
420.0
 20
297.0
  9
$ORTHOMODE
 70
0
  9
$REGENMODE
 70
1
  9
$FILLMODE
 70
1
  9
$QTEXTMODE
 70
0
  9
$MIRRTEXT
 70
1
  9
$LTSCALE
 40
1.0
  9
$ATTMODE
 70
1
  9
$TEXTSIZE
 40
2.5
  9
$TRACEWID
 40
1.0
  9
$TEXTSTYLE
  7
Standard
  9
$CLAYER
  8
0
  9
$CELTYPE
  6
ByLayer
  9
$CECOLOR
 62
256
  9
$CELTSCALE
 40
1.0
  9
$DISPSILH
 70
0
  9
$DIMSCALE
 40
1.0
  9
$DIMASZ
 40
2.5
  9
$DIMEXO
 40
0.625
  9
$DIMDLI
 40
3.75
  9
$DIMRND
 40
0.0
  9
$DIMDLE
 40
0.0
  9
$DIMEXE
 40
1.25
  9
$DIMTP
 40
0.0
  9
$DIMTM
 40
0.0
  9
$DIMTXT
 40
2.5
  9
$DIMCEN
 40
2.5
  9
$DIMTSZ
 40
0.0
  9
$DIMTOL
 70
0
  9
$DIMLIM
 70
0
  9
$DIMTIH
 70
0
  9
$DIMTOH
 70
0
  9
$DIMSE1
 70
0
  9
$DIMSE2
 70
0
  9
$DIMTAD
 70
1
  9
$DIMZIN
 70
8
  9
$DIMBLK
  1

  9
$DIMASO
 70
1
  9
$DIMSHO
 70
1
  9
$DIMPOST
  1

  9
$DIMAPOST
  1

  9
$DIMALT
 70
0
  9
$DIMALTD
 70
3
  9
$DIMALTF
 40
0.03937007874
  9
$DIMLFAC
 40
1.0
  9
$DIMTOFL
 70
1
  9
$DIMTVP
 40
0.0
  9
$DIMTIX
 70
0
  9
$DIMSOXD
 70
0
  9
$DIMSAH
 70
0
  9
$DIMBLK1
  1

  9
$DIMBLK2
  1

  9
$DIMSTYLE
  2
ISO-25
  9
$DIMCLRD
 70
0
  9
$DIMCLRE
 70
0
  9
$DIMCLRT
 70
0
  9
$DIMTFAC
 40
1.0
  9
$DIMGAP
 40
0.625
  9
$DIMJUST
 70
0
  9
$DIMSD1
 70
0
  9
$DIMSD2
 70
0
  9
$DIMTOLJ
 70
0
  9
$DIMTZIN
 70
8
  9
$DIMALTZ
 70
0
  9
$DIMALTTZ
 70
0
  9
$DIMUPT
 70
0
  9
$DIMDEC
 70
2
  9
$DIMTDEC
 70
2
  9
$DIMALTU
 70
2
  9
$DIMALTTD
 70
3
  9
$DIMTXSTY
  7
Standard
  9
$DIMAUNIT
 70
0
  9
$DIMADEC
 70
0
  9
$DIMALTRND
 40
0.0
  9
$DIMAZIN
 70
0
  9
$DIMDSEP
 70
44
  9
$DIMATFIT
 70
3
  9
$DIMFRAC
 70
0
  9
$DIMLDRBLK
  1

  9
$DIMLUNIT
 70
2
  9
$DIMLWD
 70
-2
  9
$DIMLWE
 70
-2
  9
$DIMTMOVE
 70
0
  9
$DIMFXL
 40
1.0
  9
$DIMFXLON
 70
0
  9
$DIMJOGANG
 40
0.785398163397
  9
$DIMTFILL
 70
0
  9
$DIMTFILLCLR
 70
0
  9
$DIMARCSYM
 70
0
  9
$DIMLTYPE
  6

  9
$DIMLTEX1
  6

  9
$DIMLTEX2
  6

  9
$DIMTXTDIRECTION
 70
0
  9
$LUNITS
 70
2
  9
$LUPREC
 70
4
  9
$SKETCHINC
 40
1.0
  9
$FILLETRAD
 40
10.0
  9
$AUNITS
 70
0
  9
$AUPREC
 70
2
  9
$MENU
  1
.
  9
$ELEVATION
 40
0.0
  9
$PELEVATION
 40
0.0
  9
$THICKNESS
 40
0.0
  9
$LIMCHECK
 70
0
  9
$CHAMFERA
 40
0.0
  9
$CHAMFERB
 40
0.0
  9
$CHAMFERC
 40
0.0
  9
$CHAMFERD
 40
0.0
  9
$SKPOLY
 70
0
  9
$TDCREATE
 40
2461315.5056365742
  9
$TDUCREATE
 40
2458532.153996898
  9
$TDUPDATE
 40
2461315.5056365742
  9
$TDUUPDATE
 40
2458532.1544311
  9
$TDINDWG
 40
0.0
  9
$TDUSRTIMER
 40
0.0
  9
$USRTIMER
 70
1
  9
$ANGBASE
 50
0.0
  9
$ANGDIR
 70
0
  9
$PDMODE
 70
0
  9
$PDSIZE
 40
0.0
  9
$PLINEWID
 40
0.0
  9
$SPLFRAME
 70
0
  9
$SPLINETYPE
 70
6
  9
$SPLINESEGS
 70
8
  9
$HANDSEED
  5
163
  9
$SURFTAB1
 70
6
  9
$SURFTAB2
 70
6
  9
$SURFTYPE
 70
6
  9
$SURFU
 70
6
  9
$SURFV
 70
6
  9
$UCSBASE
  2

  9
$UCSNAME
  2

  9
$UCSORG
 10
0.0
 20
0.0
 30
0.0
  9
$UCSXDIR
 10
1.0
 20
0.0
 30
0.0
  9
$UCSYDIR
 10
0.0
 20
1.0
 30
0.0
  9
$UCSORTHOREF
  2

  9
$UCSORTHOVIEW
 70
0
  9
$UCSORGTOP
 10
0.0
 20
0.0
 30
0.0
  9
$UCSORGBOTTOM
 10
0.0
 20
0.0
 30
0.0
  9
$UCSORGLEFT
 10
0.0
 20
0.0
 30
0.0
  9
$UCSORGRIGHT
 10
0.0
 20
0.0
 30
0.0
  9
$UCSORGFRONT
 10
0.0
 20
0.0
 30
0.0
  9
$UCSORGBACK
 10
0.0
 20
0.0
 30
0.0
  9
$PUCSBASE
  2

  9
$PUCSNAME
  2

  9
$PUCSORG
 10
0.0
 20
0.0
 30
0.0
  9
$PUCSXDIR
 10
1.0
 20
0.0
 30
0.0
  9
$PUCSYDIR
 10
0.0
 20
1.0
 30
0.0
  9
$PUCSORTHOREF
  2

  9
$PUCSORTHOVIEW
 70
0
  9
$PUCSORGTOP
 10
0.0
 20
0.0
 30
0.0
  9
$PUCSORGBOTTOM
 10
0.0
 20
0.0
 30
0.0
  9
$PUCSORGLEFT
 10
0.0
 20
0.0
 30
0.0
  9
$PUCSORGRIGHT
 10
0.0
 20
0.0
 30
0.0
  9
$PUCSORGFRONT
 10
0.0
 20
0.0
 30
0.0
  9
$PUCSORGBACK
 10
0.0
 20
0.0
 30
0.0
  9
$USERI1
 70
0
  9
$USERI2
 70
0
  9
$USERI3
 70
0
  9
$USERI4
 70
0
  9
$USERI5
 70
0
  9
$USERR1
 40
0.0
  9
$USERR2
 40
0.0
  9
$USERR3
 40
0.0
  9
$USERR4
 40
0.0
  9
$USERR5
 40
0.0
  9
$WORLDVIEW
 70
1
  9
$SHADEDGE
 70
3
  9
$SHADEDIF
 70
70
  9
$TILEMODE
 70
1
  9
$MAXACTVP
 70
64
  9
$PINSBASE
 10
0.0
 20
0.0
 30
0.0
  9
$PLIMCHECK
 70
0
  9
$PEXTMIN
 10
1e+20
 20
1e+20
 30
1e+20
  9
$PEXTMAX
 10
-1e+20
 20
-1e+20
 30
-1e+20
  9
$PLIMMIN
 10
0.0
 20
0.0
  9
$PLIMMAX
 10
420.0
 20
297.0
  9
$UNITMODE
 70
0
  9
$VISRETAIN
 70
1
  9
$PLINEGEN
 70
0
  9
$PSLTSCALE
 70
1
  9
$TREEDEPTH
 70
3020
  9
$CMLSTYLE
  2
Standard
  9
$CMLJUST
 70
0
  9
$CMLSCALE
 40
20.0
  9
$PROXYGRAPHICS
 70
1
  9
$MEASUREMENT
 70
1
  9
$CELWEIGHT
370
-1
  9
$ENDCAPS
280
0
  9
$JOINSTYLE
280
0
  9
$LWDISPLAY
290
0
  9
$INSUNITS
 70
4
  9
$HYPERLINKBASE
  1

  9
$STYLESHEET
  1

  9
$XEDIT
290
1
  9
$CEPSNTYPE
380
0
  9
$PSTYLEMODE
290
1
  9
$FINGERPRINTGUID
  2
{275EEC32-3A48-46B2-BE4D-A78556F52731}
  9
$VERSIONGUID
  2
{E50CEED1-F4A5-4E19-A492-7427E7483D3C}
  9
$EXTNAMES
290
1
  9
$PSVPSCALE
 40
0.0
  9
$OLESTARTUP
290
0
  9
$SORTENTS
280
127
  9
$INDEXCTL
280
0
  9
$HIDETEXT
280
1
  9
$XCLIPFRAME
280
1
  9
$HALOGAP
280
0
  9
$OBSCOLOR
 70
257
  9
$OBSLTYPE
280
0
  9
$INTERSECTIONDISPLAY
280
0
  9
$INTERSECTIONCOLOR
 70
257
  9
$DIMASSOC
280
2
  9
$PROJECTNAME
  1

  9
$CAMERADISPLAY
290
0
  9
$LENSLENGTH
 40
50.0
  9
$CAMERAHEIGHT
 40
0.0
  9
$STEPSPERSEC
 40
24.0
  9
$STEPSIZE
 40
100.0
  9
$3DDWFPREC
 40
2.0
  9
$PSOLWIDTH
 40
0.005
  9
$PSOLHEIGHT
 40
0.08
  9
$LOFTANG1
 40
1.570796326795
  9
$LOFTANG2
 40
1.570796326795
  9
$LOFTMAG1
 40
0.0
  9
$LOFTMAG2
 40
0.0
  9
$LOFTPARAM
 70
7
  9
$LOFTNORMALS
280
1
  9
$LATITUDE
 40
37.795
  9
$LONGITUDE
 40
-122.394
  9
$NORTHDIRECTION
 40
0.0
  9
$TIMEZONE
 70
-8000
  9
$LIGHTGLYPHDISPLAY
280
1
  9
$TILEMODELIGHTSYNCH
280
1
  9
$CMATERIAL
347
20
  9
$SOLIDHIST
280
0
  9
$SHOWHIST
280
1
  9
$DWFFRAME
280
2
  9
$DGNFRAME
280
2
  9
$REALWORLDSCALE
290
1
  9
$INTERFERECOLOR
 62
256
  9
$CSHADOW
280
0
  9
$SHADOWPLANELOCATION
 40
0.0
  0
ENDSEC
  0
SECTION
  2
CLASSES
  0
CLASS
  1
ACDBDICTIONARYWDFLT
  2
AcDbDictionaryWithDefault
  3
ObjectDBX Classes
 90
0
 91
0
280
0
281
0
  0
CLASS
  1
SUN
  2
AcDbSun
  3
SCENEOE
 90
1153
 91
0
280
0
281
0
  0
CLASS
  1
VISUALSTYLE
  2
AcDbVisualStyle
  3
ObjectDBX Classes
 90
4095
 91
0
280
0
281
0
  0
CLASS
  1
MATERIAL
  2
AcDbMaterial
  3
ObjectDBX Classes
 90
1153
 91
0
280
0
281
0
  0
CLASS
  1
SCALE
  2
AcDbScale
  3
ObjectDBX Classes
 90
1153
 91
0
280
0
281
0
  0
CLASS
  1
TABLESTYLE
  2
AcDbTableStyle
  3
ObjectDBX Classes
 90
4095
 91
0
280
0
281
0
  0
CLASS
  1
MLEADERSTYLE
  2
AcDbMLeaderStyle
  3
ACDB_MLEADERSTYLE_CLASS
 90
4095
 91
0
280
0
281
0
  0
CLASS
  1
DICTIONARYVAR
  2
AcDbDictionaryVar
  3
ObjectDBX Classes
 90
0
 91
0
280
0
281
0
  0
CLASS
  1
CELLSTYLEMAP
  2
AcDbCellStyleMap
  3
ObjectDBX Classes
 90
1152
 91
0
280
0
281
0
  0
CLASS
  1
MENTALRAYRENDERSETTINGS
  2
AcDbMentalRayRenderSettings
  3
SCENEOE
 90
1024
 91
0
280
0
281
0
  0
CLASS
  1
ACDBDETAILVIEWSTYLE
  2
AcDbDetailViewStyle
  3
ObjectDBX Classes
 90
1025
 91
0
280
0
281
0
  0
CLASS
  1
ACDBSECTIONVIEWSTYLE
  2
AcDbSectionViewStyle
  3
ObjectDBX Classes
 90
1025
 91
0
280
0
281
0
  0
CLASS
  1
RASTERVARIABLES
  2
AcDbRasterVariables
  3
ISM
 90
0
 91
0
280
0
281
0
  0
CLASS
  1
LAYOUT
  2
AcDbLayout
  3
ObjectDBX Classes
 90
0
 91
0
280
0
281
0
  0
CLASS
  1
ACDBPLACEHOLDER
  2
AcDbPlaceHolder
  3
ObjectDBX Classes
 90
0
 91
0
280
0
281
0
  0
ENDSEC
  0
SECTION
  2
TABLES
  0
TABLE
  2
VPORT
  5
8
330
0
100
AcDbSymbolTable
 70
1
  0
VPORT
  5
15F
330
8
100
AcDbSymbolTableRecord
100
AcDbViewportTableRecord
  2
*Active
 70
0
 10
0.0
 20
0.0
 11
1.0
 21
1.0
 12
2675.0
 22
2953.8
 13
0.0
 23
0.0
 14
0.5
 24
0.5
 15
0.5
 25
0.5
 16
0.0
 26
0.0
 36
1.0
 17
0.0
 27
0.0
 37
0.0
 40
6207.6
 41
1.34
 42
50.0
 43
0.0
 44
0.0
 50
0.0
 51
0.0
 71
0
 72
1000
 73
1
 74
3
 75
0
 76
0
 77
0
 78
0
281
0
 65
1
110
0.0
120
0.0
130
0.0
111
1.0
121
0.0
131
0.0
112
0.0
122
1.0
132
0.0
 79
0
146
0.0
  0
ENDTAB
  0
TABLE
  2
LTYPE
  5
2
330
0
100
AcDbSymbolTable
 70
3
  0
LTYPE
  5
24
330
2
100
AcDbSymbolTableRecord
100
AcDbLinetypeTableRecord
  2
ByBlock
 70
0
  3

 72
65
 73
0
 40
0.0
  0
LTYPE
  5
25
330
2
100
AcDbSymbolTableRecord
100
AcDbLinetypeTableRecord
  2
ByLayer
 70
0
  3

 72
65
 73
0
 40
0.0
  0
LTYPE
  5
26
330
2
100
AcDbSymbolTableRecord
100
AcDbLinetypeTableRecord
  2
Continuous
 70
0
  3

 72
65
 73
0
 40
0.0
  0
ENDTAB
  0
TABLE
  2
LAYER
  5
1
330
0
100
AcDbSymbolTable
 70
24
  0
LAYER
  5
27
330
1
100
AcDbSymbolTableRecord
100
AcDbLayerTableRecord
  2
0
 70
0
 62
7
  6
Continuous
370
-3
390
13
347
21
  0
LAYER
  5
28
330
1
100
AcDbSymbolTableRecord
100
AcDbLayerTableRecord
  2
Defpoints
 70
0
 62
7
  6
Continuous
290
0
370
-3
390
13
347
21
  0
LAYER
  5
2F
330
1
100
AcDbSymbolTableRecord
100
AcDbLayerTableRecord
  2
floor
 70
0
 62
2
  6
Continuous
370
35
390
13
347
21
  0
LAYER
  5
34
330
1
100
AcDbSymbolTableRecord
100
AcDbLayerTableRecord
  2
eps
 70
0
 62
3
  6
Continuous
370
35
390
13
347
21
  0
LAYER
  5
3D
330
1
100
AcDbSymbolTableRecord
100
AcDbLayerTableRecord
  2
masonry
 70
0
 62
1
  6
Continuous
370
35
390
13
347
21
  0
LAYER
  5
46
330
1
100
AcDbSymbolTableRecord
100
AcDbLayerTableRecord
  2
plaster
 70
0
 62
2
  6
Continuous
370
35
390
13
347
21
  0
LAYER
  5
4F
330
1
100
AcDbSymbolTableRecord
100
AcDbLayerTableRecord
  2
furniture
 70
0
 62
2
  6
Continuous
370
35
390
13
347
21
  0
LAYER
  5
54
330
1
100
AcDbSymbolTableRecord
100
AcDbLayerTableRecord
  2
wall_plate
 70
0
 62
2
  6
Continuous
370
35
390
13
347
21
  0
LAYER
  5
5D
330
1
100
AcDbSymbolTableRecord
100
AcDbLayerTableRecord
  2
rafters
 70
0
 62
2
  6
Continuous
370
35
390
13
347
21
  0
LAYER
  5
64
330
1
100
AcDbSymbolTableRecord
100
AcDbLayerTableRecord
  2
plenum_wool
 70
0
 62
3
  6
Continuous
370
35
390
13
347
21
  0
LAYER
  5
6D
330
1
100
AcDbSymbolTableRecord
100
AcDbLayerTableRecord
  2
racking_strap
 70
0
 62
4
  6
Continuous
370
35
390
13
347
21
  0
LAYER
  5
7A
330
1
100
AcDbSymbolTableRecord
100
AcDbLayerTableRecord
  2
roofing
 70
0
 62
1
  6
Continuous
370
35
390
13
347
21
  0
LAYER
  5
7D
330
1
100
AcDbSymbolTableRecord
100
AcDbLayerTableRecord
  2
slope_naturheld_140
 70
0
 62
5
  6
Continuous
370
35
390
13
347
21
  0
LAYER
  5
86
330
1
100
AcDbSymbolTableRecord
100
AcDbLayerTableRecord
  2
slope_gkf
 70
0
 62
4
  6
Continuous
370
35
390
13
347
21
  0
LAYER
  5
8D
330
1
100
AcDbSymbolTableRecord
100
AcDbLayerTableRecord
  2
slope_cd
 70
0
 62
4
  6
Continuous
370
35
390
13
347
21
  0
LAYER
  5
B2
330
1
100
AcDbSymbolTableRecord
100
AcDbLayerTableRecord
  2
slope_foil
 70
0
 62
4
  6
Continuous
370
35
390
13
347
21
  0
LAYER
  5
B9
330
1
100
AcDbSymbolTableRecord
100
AcDbLayerTableRecord
  2
slope_nonius
 70
0
 62
4
  6
Continuous
370
35
390
13
347
21
  0
LAYER
  5
CA
330
1
100
AcDbSymbolTableRecord
100
AcDbLayerTableRecord
  2
soffit_naturheld_140
 70
0
 62
5
  6
Continuous
370
35
390
13
347
21
  0
LAYER
  5
D6
330
1
100
AcDbSymbolTableRecord
100
AcDbLayerTableRecord
  2
soffit_mineral_wool
 70
0
 62
3
  6
Continuous
370
35
390
13
347
21
  0
LAYER
  5
DE
330
1
100
AcDbSymbolTableRecord
100
AcDbLayerTableRecord
  2
soffit_battens
 70
0
 62
2
  6
Continuous
370
35
390
13
347
21
  0
LAYER
  5
E7
330
1
100
AcDbSymbolTableRecord
100
AcDbLayerTableRecord
  2
soffit_gkf
 70
0
 62
4
  6
Continuous
370
35
390
13
347
21
  0
LAYER
  5
EC
330
1
100
AcDbSymbolTableRecord
100
AcDbLayerTableRecord
  2
soffit_cd
 70
0
 62
4
  6
Continuous
370
35
390
13
347
21
  0
LAYER
  5
F1
330
1
100
AcDbSymbolTableRecord
100
AcDbLayerTableRecord
  2
soffit_nonius
 70
0
 62
4
  6
Continuous
370
35
390
13
347
21
  0
LAYER
  5
116
330
1
100
AcDbSymbolTableRecord
100
AcDbLayerTableRecord
  2
soffit_duct
 70
0
 62
4
  6
Continuous
370
35
390
13
347
21
  0
ENDTAB
  0
TABLE
  2
STYLE
  5
5
330
0
100
AcDbSymbolTable
 70
1
  0
STYLE
  5
29
330
5
100
AcDbSymbolTableRecord
100
AcDbTextStyleTableRecord
  2
Standard
 70
0
 40
0.0
 41
1.0
 50
0.0
 71
0
 42
2.5
  3
txt
  4

  0
ENDTAB
  0
TABLE
  2
VIEW
  5
7
330
0
100
AcDbSymbolTable
 70
0
  0
ENDTAB
  0
TABLE
  2
UCS
  5
6
330
0
100
AcDbSymbolTable
 70
0
  0
ENDTAB
  0
TABLE
  2
APPID
  5
3
330
0
100
AcDbSymbolTable
 70
3
  0
APPID
  5
2A
330
3
100
AcDbSymbolTableRecord
100
AcDbRegAppTableRecord
  2
ACAD
 70
0
  0
APPID
  5
160
330
3
100
AcDbSymbolTableRecord
100
AcDbRegAppTableRecord
  2
HATCHBACKGROUNDCOLOR
 70
0
  0
APPID
  5
161
330
3
100
AcDbSymbolTableRecord
100
AcDbRegAppTableRecord
  2
EZDXF
 70
0
  0
ENDTAB
  0
TABLE
  2
DIMSTYLE
  5
4
330
0
100
AcDbSymbolTable
 70
1
100
AcDbDimStyleTable
  0
DIMSTYLE
105
2B
330
4
100
AcDbSymbolTableRecord
100
AcDbDimStyleTableRecord
  2
Standard
 70
0
 40
1.0
 41
2.5
 42
0.625
 43
3.75
 44
1.25
 45
0.0
 46
0.0
 47
0.0
 48
0.0
 49
2.5
140
2.5
141
2.5
142
0.0
143
0.03937007874
144
1.0
145
0.0
146
1.0
147
0.625
148
0.0
 69
0
 70
0
 71
0
 72
0
 73
0
 74
0
 75
0
 76
0
 77
1
 78
8
 79
3
170
0
171
3
172
1
173
0
174
0
175
0
176
0
177
0
178
0
179
2
271
2
272
2
273
2
274
3
275
0
276
0
277
2
278
44
279
0
280
0
281
0
282
0
283
0
284
8
285
0
286
0
288
0
289
3
290
0
371
-2
372
-2
  0
ENDTAB
  0
TABLE
  2
BLOCK_RECORD
  5
9
330
0
100
AcDbSymbolTable
 70
2
  0
BLOCK_RECORD
  5
17
330
9
100
AcDbSymbolTableRecord
100
AcDbBlockTableRecord
  2
*Model_Space
340
1A
 70
0
280
1
281
0
  0
BLOCK_RECORD
  5
1B
330
9
100
AcDbSymbolTableRecord
100
AcDbBlockTableRecord
  2
*Paper_Space
340
1E
 70
0
280
1
281
0
  0
ENDTAB
  0
ENDSEC
  0
SECTION
  2
BLOCKS
  0
BLOCK
  5
18
330
17
100
AcDbEntity
  8
0
100
AcDbBlockBegin
  2
*Model_Space
 70
0
 10
0.0
 20
0.0
 30
0.0
  3
*Model_Space
  1

  0
ENDBLK
  5
19
330
17
100
AcDbEntity
  8
0
100
AcDbBlockEnd
  0
BLOCK
  5
1C
330
1B
100
AcDbEntity
  8
0
100
AcDbBlockBegin
  2
*Paper_Space
 70
0
 10
0.0
 20
0.0
 30
0.0
  3
*Paper_Space
  1

  0
ENDBLK
  5
1D
330
1B
100
AcDbEntity
  8
0
100
AcDbBlockEnd
  0
ENDSEC
  0
SECTION
  2
ENTITIES
  0
LINE
  5
30
330
17
100
AcDbEntity
  8
floor
100
AcDbLine
 10
-465.0
 20
-150.0
 30
0.0
 11
5815.0
 21
-150.0
 31
0.0
  0
LINE
  5
31
330
17
100
AcDbEntity
  8
floor
100
AcDbLine
 10
5815.0
 20
-150.0
 30
0.0
 11
5815.0
 21
0.0
 31
0.0
  0
LINE
  5
32
330
17
100
AcDbEntity
  8
floor
100
AcDbLine
 10
5815.0
 20
0.0
 30
0.0
 11
-465.0
 21
0.0
 31
0.0
  0
LINE
  5
33
330
17
100
AcDbEntity
  8
floor
100
AcDbLine
 10
-465.0
 20
0.0
 30
0.0
 11
-465.0
 21
-150.0
 31
0.0
  0
LINE
  5
35
330
17
100
AcDbEntity
  8
eps
100
AcDbLine
 10
-465.0
 20
-150.0
 30
0.0
 11
-265.0
 21
-150.0
 31
0.0
  0
LINE
  5
36
330
17
100
AcDbEntity
  8
eps
100
AcDbLine
 10
-265.0
 20
-150.0
 30
0.0
 11
-265.0
 21
3200.0
 31
0.0
  0
LINE
  5
37
330
17
100
AcDbEntity
  8
eps
100
AcDbLine
 10
-265.0
 20
3200.0
 30
0.0
 11
-465.0
 21
3200.0
 31
0.0
  0
LINE
  5
38
330
17
100
AcDbEntity
  8
eps
100
AcDbLine
 10
-465.0
 20
3200.0
 30
0.0
 11
-465.0
 21
-150.0
 31
0.0
  0
LINE
  5
39
330
17
100
AcDbEntity
  8
eps
100
AcDbLine
 10
5615.0
 20
-150.0
 30
0.0
 11
5815.0
 21
-150.0
 31
0.0
  0
LINE
  5
3A
330
17
100
AcDbEntity
  8
eps
100
AcDbLine
 10
5815.0
 20
-150.0
 30
0.0
 11
5815.0
 21
3200.0
 31
0.0
  0
LINE
  5
3B
330
17
100
AcDbEntity
  8
eps
100
AcDbLine
 10
5815.0
 20
3200.0
 30
0.0
 11
5615.0
 21
3200.0
 31
0.0
  0
LINE
  5
3C
330
17
100
AcDbEntity
  8
eps
100
AcDbLine
 10
5615.0
 20
3200.0
 30
0.0
 11
5615.0
 21
-150.0
 31
0.0
  0
LINE
  5
3E
330
17
100
AcDbEntity
  8
masonry
100
AcDbLine
 10
-265.0
 20
-150.0
 30
0.0
 11
-15.0
 21
-150.0
 31
0.0
  0
LINE
  5
3F
330
17
100
AcDbEntity
  8
masonry
100
AcDbLine
 10
-15.0
 20
-150.0
 30
0.0
 11
-15.0
 21
3200.0
 31
0.0
  0
LINE
  5
40
330
17
100
AcDbEntity
  8
masonry
100
AcDbLine
 10
-15.0
 20
3200.0
 30
0.0
 11
-265.0
 21
3200.0
 31
0.0
  0
LINE
  5
41
330
17
100
AcDbEntity
  8
masonry
100
AcDbLine
 10
-265.0
 20
3200.0
 30
0.0
 11
-265.0
 21
-150.0
 31
0.0
  0
LINE
  5
42
330
17
100
AcDbEntity
  8
masonry
100
AcDbLine
 10
5365.0
 20
-150.0
 30
0.0
 11
5615.0
 21
-150.0
 31
0.0
  0
LINE
  5
43
330
17
100
AcDbEntity
  8
masonry
100
AcDbLine
 10
5615.0
 20
-150.0
 30
0.0
 11
5615.0
 21
3200.0
 31
0.0
  0
LINE
  5
44
330
17
100
AcDbEntity
  8
masonry
100
AcDbLine
 10
5615.0
 20
3200.0
 30
0.0
 11
5365.0
 21
3200.0
 31
0.0
  0
LINE
  5
45
330
17
100
AcDbEntity
  8
masonry
100
AcDbLine
 10
5365.0
 20
3200.0
 30
0.0
 11
5365.0
 21
-150.0
 31
0.0
  0
LINE
  5
47
330
17
100
AcDbEntity
  8
plaster
100
AcDbLine
 10
-15.0
 20
0.0
 30
0.0
 11
0.0
 21
0.0
 31
0.0
  0
LINE
  5
48
330
17
100
AcDbEntity
  8
plaster
100
AcDbLine
 10
0.0
 20
0.0
 30
0.0
 11
0.0
 21
3200.0
 31
0.0
  0
LINE
  5
49
330
17
100
AcDbEntity
  8
plaster
100
AcDbLine
 10
0.0
 20
3200.0
 30
0.0
 11
-15.0
 21
3200.0
 31
0.0
  0
LINE
  5
4A
330
17
100
AcDbEntity
  8
plaster
100
AcDbLine
 10
-15.0
 20
3200.0
 30
0.0
 11
-15.0
 21
0.0
 31
0.0
  0
LINE
  5
4B
330
17
100
AcDbEntity
  8
plaster
100
AcDbLine
 10
5350.0
 20
0.0
 30
0.0
 11
5365.0
 21
0.0
 31
0.0
  0
LINE
  5
4C
330
17
100
AcDbEntity
  8
plaster
100
AcDbLine
 10
5365.0
 20
0.0
 30
0.0
 11
5365.0
 21
3200.0
 31
0.0
  0
LINE
  5
4D
330
17
100
AcDbEntity
  8
plaster
100
AcDbLine
 10
5365.0
 20
3200.0
 30
0.0
 11
5350.0
 21
3200.0
 31
0.0
  0
LINE
  5
4E
330
17
100
AcDbEntity
  8
plaster
100
AcDbLine
 10
5350.0
 20
3200.0
 30
0.0
 11
5350.0
 21
0.0
 31
0.0
  0
LINE
  5
50
330
17
100
AcDbEntity
  8
furniture
100
AcDbLine
 10
4900.0
 20
0.0
 30
0.0
 11
5350.0
 21
0.0
 31
0.0
  0
LINE
  5
51
330
17
100
AcDbEntity
  8
furniture
100
AcDbLine
 10
5350.0
 20
0.0
 30
0.0
 11
5350.0
 21
2450.0
 31
0.0
  0
LINE
  5
52
330
17
100
AcDbEntity
  8
furniture
100
AcDbLine
 10
5350.0
 20
2450.0
 30
0.0
 11
4900.0
 21
2450.0
 31
0.0
  0
LINE
  5
53
330
17
100
AcDbEntity
  8
furniture
100
AcDbLine
 10
4900.0
 20
2450.0
 30
0.0
 11
4900.0
 21
0.0
 31
0.0
  0
LINE
  5
55
330
17
100
AcDbEntity
  8
wall_plate
100
AcDbLine
 10
-210.0
 20
3200.0
 30
0.0
 11
-70.0
 21
3200.0
 31
0.0
  0
LINE
  5
56
330
17
100
AcDbEntity
  8
wall_plate
100
AcDbLine
 10
-70.0
 20
3200.0
 30
0.0
 11
-70.0
 21
3300.0
 31
0.0
  0
LINE
  5
57
330
17
100
AcDbEntity
  8
wall_plate
100
AcDbLine
 10
-70.0
 20
3300.0
 30
0.0
 11
-210.0
 21
3300.0
 31
0.0
  0
LINE
  5
58
330
17
100
AcDbEntity
  8
wall_plate
100
AcDbLine
 10
-210.0
 20
3300.0
 30
0.0
 11
-210.0
 21
3200.0
 31
0.0
  0
LINE
  5
59
330
17
100
AcDbEntity
  8
wall_plate
100
AcDbLine
 10
5420.0
 20
3200.0
 30
0.0
 11
5560.0
 21
3200.0
 31
0.0
  0
LINE
  5
5A
330
17
100
AcDbEntity
  8
wall_plate
100
AcDbLine
 10
5560.0
 20
3200.0
 30
0.0
 11
5560.0
 21
3300.0
 31
0.0
  0
LINE
  5
5B
330
17
100
AcDbEntity
  8
wall_plate
100
AcDbLine
 10
5560.0
 20
3300.0
 30
0.0
 11
5420.0
 21
3300.0
 31
0.0
  0
LINE
  5
5C
330
17
100
AcDbEntity
  8
wall_plate
100
AcDbLine
 10
5420.0
 20
3300.0
 30
0.0
 11
5420.0
 21
3200.0
 31
0.0
  0
LINE
  5
5E
330
17
100
AcDbEntity
  8
rafters
100
AcDbLine
 10
-545.0
 20
3169.025945234643
 30
0.0
 11
2675.0
 21
5870.926757625484
 31
0.0
  0
LINE
  5
5F
330
17
100
AcDbEntity
  8
rafters
100
AcDbLine
 10
2675.0
 20
5870.926757625484
 30
0.0
 11
5895.0
 21
3169.025945234643
 31
0.0
  0
LINE
  5
60
330
17
100
AcDbEntity
  8
rafters
100
AcDbLine
 10
5895.0
 20
3169.025945234643
 30
0.0
 11
5895.0
 21
2960.1607789414784
 31
0.0
  0
LINE
  5
61
330
17
100
AcDbEntity
  8
rafters
100
AcDbLine
 10
5895.0
 20
2960.1607789414784
 30
0.0
 11
2675.0
 21
5662.06159133232
 31
0.0
  0
LINE
  5
62
330
17
100
AcDbEntity
  8
rafters
100
AcDbLine
 10
2675.0
 20
5662.06159133232
 30
0.0
 11
-545.0
 21
2960.1607789414784
 31
0.0
  0
LINE
  5
63
330
17
100
AcDbEntity
  8
rafters
100
AcDbLine
 10
-545.0
 20
2960.1607789414784
 30
0.0
 11
-545.0
 21
3169.025945234643
 31
0.0
  0
LINE
  5
65
330
17
100
AcDbEntity
  8
plenum_wool
100
AcDbLine
 10
0.0
 20
3313.037494786514
 30
0.0
 11
2450.0
 21
5368.831591170849
 31
0.0
  0
LINE
  5
66
330
17
100
AcDbEntity
  8
plenum_wool
100
AcDbLine
 10
2450.0
 20
5368.831591170849
 30
0.0
 11
4900.0
 21
3313.037494786514
 31
0.0
  0
LINE
  5
67
330
17
100
AcDbEntity
  8
plenum_wool
100
AcDbLine
 10
4900.0
 20
3313.037494786514
 30
0.0
 11
4900.0
 21
3327.0
 31
0.0
  0
LINE
  5
68
330
17
100
AcDbEntity
  8
plenum_wool
100
AcDbLine
 10
4900.0
 20
3327.0
 30
0.0
 11
5350.0
 21
3327.0
 31
0.0
  0
LINE
  5
69
330
17
100
AcDbEntity
  8
plenum_wool
100
AcDbLine
 10
5350.0
 20
3327.0
 30
0.0
 11
5350.0
 21
3417.470077933096
 31
0.0
  0
LINE
  5
6A
330
17
100
AcDbEntity
  8
plenum_wool
100
AcDbLine
 10
5350.0
 20
3417.470077933096
 30
0.0
 11
2675.0
 21
5662.06159133232
 31
0.0
  0
LINE
  5
6B
330
17
100
AcDbEntity
  8
plenum_wool
100
AcDbLine
 10
2675.0
 20
5662.06159133232
 30
0.0
 11
0.0
 21
3417.470077933096
 31
0.0
  0
LINE
  5
6C
330
17
100
AcDbEntity
  8
plenum_wool
100
AcDbLine
 10
0.0
 20
3417.470077933096
 30
0.0
 11
0.0
 21
3313.037494786514
 31
0.0
  0
LINE
  5
6E
330
17
100
AcDbEntity
  8
racking_strap
100
AcDbLine
 10
402.2363970061656
 20
3752.3756757283827
 30
0.0
 11
432.8781747309247
 21
3778.0871801158446
 31
0.0
  0
LINE
  5
6F
330
17
100
AcDbEntity
  8
racking_strap
100
AcDbLine
 10
432.8781747309247
 20
3778.0871801158446
 30
0.0
 11
431.5925995115516
 21
3779.6192690020825
 31
0.0
  0
LINE
  5
70
330
17
100
AcDbEntity
  8
racking_strap
100
AcDbLine
 10
431.5925995115516
 20
3779.6192690020825
 30
0.0
 11
400.9508217867925
 21
3753.9077646146206
 31
0.0
  0
LINE
  5
71
330
17
100
AcDbEntity
  8
racking_strap
100
AcDbLine
 10
400.9508217867925
 20
3753.9077646146206
 30
0.0
 11
402.2363970061656
 21
3752.3756757283827
 31
0.0
  0
LINE
  5
72
330
17
100
AcDbEntity
  8
racking_strap
100
AcDbLine
 10
1838.5697278542493
 20
4957.602443890644
 30
0.0
 11
1869.2115055790086
 21
4983.313948278106
 31
0.0
  0
LINE
  5
73
330
17
100
AcDbEntity
  8
racking_strap
100
AcDbLine
 10
1869.2115055790086
 20
4983.313948278106
 30
0.0
 11
1867.9259303596355
 21
4984.846037164344
 31
0.0
  0
LINE
  5
74
330
17
100
AcDbEntity
  8
racking_strap
100
AcDbLine
 10
1867.9259303596355
 20
4984.846037164344
 30
0.0
 11
1837.2841526348761
 21
4959.134532776882
 31
0.0
  0
LINE
  5
75
330
17
100
AcDbEntity
  8
racking_strap
100
AcDbLine
 10
1837.2841526348761
 20
4959.134532776882
 30
0.0
 11
1838.5697278542493
 21
4957.602443890644
 31
0.0
  0
LINE
  5
76
330
17
100
AcDbEntity
  8
racking_strap
100
AcDbLine
 10
3721.161200650323
 20
4781.61729913599
 30
0.0
 11
3751.8029783750817
 21
4755.905794748528
 31
0.0
  0
LINE
  5
77
330
17
100
AcDbEntity
  8
racking_strap
100
AcDbLine
 10
3751.8029783750817
 20
4755.905794748528
 30
0.0
 11
3753.088553594455
 21
4757.437883634766
 31
0.0
  0
LINE
  5
78
330
17
100
AcDbEntity
  8
racking_strap
100
AcDbLine
 10
3753.088553594455
 20
4757.437883634766
 30
0.0
 11
3722.446775869696
 21
4783.149388022228
 31
0.0
  0
LINE
  5
79
330
17
100
AcDbEntity
  8
racking_strap
100
AcDbLine
 10
3722.446775869696
 20
4783.149388022228
 30
0.0
 11
3721.161200650323
 21
4781.61729913599
 31
0.0
  0
LINE
  5
7B
330
17
100
AcDbEntity
  8
roofing
100
AcDbLine
 10
-545.0
 20
3355.699187609159
 30
0.0
 11
2675.0
 21
6057.6
 31
0.0
  0
LINE
  5
7C
330
17
100
AcDbEntity
  8
roofing
100
AcDbLine
 10
2675.0
 20
6057.6
 30
0.0
 11
5895.0
 21
3355.699187609159
 31
0.0
  0
LINE
  5
7E
330
17
100
AcDbEntity
  8
slope_naturheld_140
100
AcDbLine
 10
0.0
 20
3150.514287264645
 30
0.0
 11
2450.0
 21
5206.30838364898
 31
0.0
  0
LINE
  5
7F
330
17
100
AcDbEntity
  8
slope_naturheld_140
100
AcDbLine
 10
2450.0
 20
5206.30838364898
 30
0.0
 11
4900.0
 21
3150.514287264645
 31
0.0
  0
LINE
  5
80
330
17
100
AcDbEntity
  8
slope_naturheld_140
100
AcDbLine
 10
4900.0
 20
3150.514287264645
 30
0.0
 11
4900.0
 21
3260.1684995685564
 31
0.0
  0
LINE
  5
81
330
17
100
AcDbEntity
  8
slope_naturheld_140
100
AcDbLine
 10
4900.0
 20
3260.1684995685564
 30
0.0
 11
2450.0
 21
5315.962595952892
 31
0.0
  0
LINE
  5
82
330
17
100
AcDbEntity
  8
slope_naturheld_140
100
AcDbLine
 10
2450.0
 20
5315.962595952892
 30
0.0
 11
0.0
 21
3260.1684995685564
 31
0.0
  0
LINE
  5
83
330
17
100
AcDbEntity
  8
slope_naturheld_140
100
AcDbLine
 10
0.0
 20
3260.1684995685564
 30
0.0
 11
0.0
 21
3150.514287264645
 31
0.0
  0
LINE
  5
84
330
17
100
AcDbEntity
  8
slope_naturheld_140
100
AcDbLine
 10
0.0
 20
3150.514287264645
 30
0.0
 11
2450.0
 21
5206.30838364898
 31
0.0
  0
LINE
  5
85
330
17
100
AcDbEntity
  8
slope_naturheld_140
100
AcDbLine
 10
2450.0
 20
5206.30838364898
 30
0.0
 11
4900.0
 21
3150.514287264645
 31
0.0
  0
LINE
  5
87
330
17
100
AcDbEntity
  8
slope_gkf
100
AcDbLine
 10
0.0
 20
3260.1684995685564
 30
0.0
 11
2450.0
 21
5315.962595952892
 31
0.0
  0
LINE
  5
88
330
17
100
AcDbEntity
  8
slope_gkf
100
AcDbLine
 10
2450.0
 20
5315.962595952892
 30
0.0
 11
4867.427586169837
 21
3287.5
 31
0.0
  0
LINE
  5
89
330
17
100
AcDbEntity
  8
slope_gkf
100
AcDbLine
 10
4867.427586169837
 20
3287.5
 30
0.0
 11
4867.427586169837
 21
3303.8175911166536
 31
0.0
  0
LINE
  5
8A
330
17
100
AcDbEntity
  8
slope_gkf
100
AcDbLine
 10
4867.427586169837
 20
3303.8175911166536
 30
0.0
 11
2450.0
 21
5332.280187069546
 31
0.0
  0
LINE
  5
8B
330
17
100
AcDbEntity
  8
slope_gkf
100
AcDbLine
 10
2450.0
 20
5332.280187069546
 30
0.0
 11
0.0
 21
3276.48609068521
 31
0.0
  0
LINE
  5
8C
330
17
100
AcDbEntity
  8
slope_gkf
100
AcDbLine
 10
0.0
 20
3276.48609068521
 30
0.0
 11
0.0
 21
3260.1684995685564
 31
0.0
  0
LINE
  5
8E
330
17
100
AcDbEntity
  8
slope_cd
100
AcDbLine
 10
462.71143920174893
 20
3664.7470886609062
 30
0.0
 11
508.6741057888876
 21
3703.314345242098
 31
0.0
  0
LINE
  5
8F
330
17
100
AcDbEntity
  8
slope_cd
100
AcDbLine
 10
508.6741057888876
 20
3703.314345242098
 30
0.0
 11
491.31884032735104
 21
3723.9975452063104
 31
0.0
  0
LINE
  5
90
330
17
100
AcDbEntity
  8
slope_cd
100
AcDbLine
 10
491.31884032735104
 20
3723.9975452063104
 30
0.0
 11
445.3561737402124
 21
3685.4302886251185
 31
0.0
  0
LINE
  5
91
330
17
100
AcDbEntity
  8
slope_cd
100
AcDbLine
 10
445.3561737402124
 20
3685.4302886251185
 30
0.0
 11
462.71143920174893
 21
3664.7470886609062
 31
0.0
  0
LINE
  5
92
330
17
100
AcDbEntity
  8
slope_cd
100
AcDbLine
 10
941.4892161511103
 20
4066.4893447149934
 30
0.0
 11
987.4518827382491
 21
4105.056601296185
 31
0.0
  0
LINE
  5
93
330
17
100
AcDbEntity
  8
slope_cd
100
AcDbLine
 10
987.4518827382491
 20
4105.056601296185
 30
0.0
 11
970.0966172767125
 21
4125.739801260398
 31
0.0
  0
LINE
  5
94
330
17
100
AcDbEntity
  8
slope_cd
100
AcDbLine
 10
970.0966172767125
 20
4125.739801260398
 30
0.0
 11
924.1339506895738
 21
4087.1725446792057
 31
0.0
  0
LINE
  5
95
330
17
100
AcDbEntity
  8
slope_cd
100
AcDbLine
 10
924.1339506895738
 20
4087.1725446792057
 30
0.0
 11
941.4892161511103
 21
4066.4893447149934
 31
0.0
  0
LINE
  5
96
330
17
100
AcDbEntity
  8
slope_cd
100
AcDbLine
 10
1420.2669931004716
 20
4468.23160076908
 30
0.0
 11
1466.2296596876104
 21
4506.798857350273
 31
0.0
  0
LINE
  5
97
330
17
100
AcDbEntity
  8
slope_cd
100
AcDbLine
 10
1466.2296596876104
 20
4506.798857350273
 30
0.0
 11
1448.8743942260737
 21
4527.482057314485
 31
0.0
  0
LINE
  5
98
330
17
100
AcDbEntity
  8
slope_cd
100
AcDbLine
 10
1448.8743942260737
 20
4527.482057314485
 30
0.0
 11
1402.911727638935
 21
4488.914800733292
 31
0.0
  0
LINE
  5
99
330
17
100
AcDbEntity
  8
slope_cd
100
AcDbLine
 10
1402.911727638935
 20
4488.914800733292
 30
0.0
 11
1420.2669931004716
 21
4468.23160076908
 31
0.0
  0
LINE
  5
9A
330
17
100
AcDbEntity
  8
slope_cd
100
AcDbLine
 10
1899.0447700498328
 20
4869.973856823167
 30
0.0
 11
1945.0074366369715
 21
4908.54111340436
 31
0.0
  0
LINE
  5
9B
330
17
100
AcDbEntity
  8
slope_cd
100
AcDbLine
 10
1945.0074366369715
 20
4908.54111340436
 30
0.0
 11
1927.652171175435
 21
4929.224313368572
 31
0.0
  0
LINE
  5
9C
330
17
100
AcDbEntity
  8
slope_cd
100
AcDbLine
 10
1927.652171175435
 20
4929.224313368572
 30
0.0
 11
1881.6895045882961
 21
4890.65705678738
 31
0.0
  0
LINE
  5
9D
330
17
100
AcDbEntity
  8
slope_cd
100
AcDbLine
 10
1881.6895045882961
 20
4890.65705678738
 30
0.0
 11
1899.0447700498328
 21
4869.973856823167
 31
0.0
  0
LINE
  5
9E
330
17
100
AcDbEntity
  8
slope_cd
100
AcDbLine
 10
2501.8805556686966
 20
5288.74723194267
 30
0.0
 11
2547.843222255835
 21
5250.179975361477
 31
0.0
  0
LINE
  5
9F
330
17
100
AcDbEntity
  8
slope_cd
100
AcDbLine
 10
2547.843222255835
 20
5250.179975361477
 30
0.0
 11
2565.1984877173713
 21
5270.86317532569
 31
0.0
  0
LINE
  5
A0
330
17
100
AcDbEntity
  8
slope_cd
100
AcDbLine
 10
2565.1984877173713
 20
5270.86317532569
 30
0.0
 11
2519.235821130233
 21
5309.430431906882
 31
0.0
  0
LINE
  5
A1
330
17
100
AcDbEntity
  8
slope_cd
100
AcDbLine
 10
2519.235821130233
 20
5309.430431906882
 30
0.0
 11
2501.8805556686966
 21
5288.74723194267
 31
0.0
  0
LINE
  5
A2
330
17
100
AcDbEntity
  8
slope_cd
100
AcDbLine
 10
2980.658332618058
 20
4887.004975888583
 30
0.0
 11
3026.6209992051963
 21
4848.437719307391
 31
0.0
  0
LINE
  5
A3
330
17
100
AcDbEntity
  8
slope_cd
100
AcDbLine
 10
3026.6209992051963
 20
4848.437719307391
 30
0.0
 11
3043.9762646667327
 21
4869.120919271603
 31
0.0
  0
LINE
  5
A4
330
17
100
AcDbEntity
  8
slope_cd
100
AcDbLine
 10
3043.9762646667327
 20
4869.120919271603
 30
0.0
 11
2998.0135980795944
 21
4907.688175852796
 31
0.0
  0
LINE
  5
A5
330
17
100
AcDbEntity
  8
slope_cd
100
AcDbLine
 10
2998.0135980795944
 20
4907.688175852796
 30
0.0
 11
2980.658332618058
 21
4887.004975888583
 31
0.0
  0
LINE
  5
A6
330
17
100
AcDbEntity
  8
slope_cd
100
AcDbLine
 10
3459.436109567419
 20
4485.262719834496
 30
0.0
 11
3505.3987761545573
 21
4446.695463253303
 31
0.0
  0
LINE
  5
A7
330
17
100
AcDbEntity
  8
slope_cd
100
AcDbLine
 10
3505.3987761545573
 20
4446.695463253303
 30
0.0
 11
3522.7540416160937
 21
4467.378663217516
 31
0.0
  0
LINE
  5
A8
330
17
100
AcDbEntity
  8
slope_cd
100
AcDbLine
 10
3522.7540416160937
 20
4467.378663217516
 30
0.0
 11
3476.7913750289554
 21
4505.945919798709
 31
0.0
  0
LINE
  5
A9
330
17
100
AcDbEntity
  8
slope_cd
100
AcDbLine
 10
3476.7913750289554
 20
4505.945919798709
 30
0.0
 11
3459.436109567419
 21
4485.262719834496
 31
0.0
  0
LINE
  5
AA
330
17
100
AcDbEntity
  8
slope_cd
100
AcDbLine
 10
3938.2138865167803
 20
4083.5204637804086
 30
0.0
 11
3984.1765531039186
 21
4044.9532071992166
 31
0.0
  0
LINE
  5
AB
330
17
100
AcDbEntity
  8
slope_cd
100
AcDbLine
 10
3984.1765531039186
 20
4044.9532071992166
 30
0.0
 11
4001.531818565455
 21
4065.636407163429
 31
0.0
  0
LINE
  5
AC
330
17
100
AcDbEntity
  8
slope_cd
100
AcDbLine
 10
4001.531818565455
 20
4065.636407163429
 30
0.0
 11
3955.5691519783168
 21
4104.203663744621
 31
0.0
  0
LINE
  5
AD
330
17
100
AcDbEntity
  8
slope_cd
100
AcDbLine
 10
3955.5691519783168
 20
4104.203663744621
 30
0.0
 11
3938.2138865167803
 21
4083.5204637804086
 31
0.0
  0
LINE
  5
AE
330
17
100
AcDbEntity
  8
slope_cd
100
AcDbLine
 10
4416.991663466142
 20
3681.7782077263214
 30
0.0
 11
4462.9543300532805
 21
3643.2109511451295
 31
0.0
  0
LINE
  5
AF
330
17
100
AcDbEntity
  8
slope_cd
100
AcDbLine
 10
4462.9543300532805
 20
3643.2109511451295
 30
0.0
 11
4480.309595514817
 21
3663.8941511093417
 31
0.0
  0
LINE
  5
B0
330
17
100
AcDbEntity
  8
slope_cd
100
AcDbLine
 10
4480.309595514817
 20
3663.8941511093417
 30
0.0
 11
4434.346928927679
 21
3702.4614076905336
 31
0.0
  0
LINE
  5
B1
330
17
100
AcDbEntity
  8
slope_cd
100
AcDbLine
 10
4434.346928927679
 20
3702.4614076905336
 30
0.0
 11
4416.991663466142
 21
3681.7782077263214
 31
0.0
  0
LINE
  5
B3
330
17
100
AcDbEntity
  8
slope_foil
100
AcDbLine
 10
0.0
 20
3311.7320874971815
 30
0.0
 11
2450.0
 21
5367.526183881517
 31
0.0
  0
LINE
  5
B4
330
17
100
AcDbEntity
  8
slope_foil
100
AcDbLine
 10
2450.0
 20
5367.526183881517
 30
0.0
 11
4900.0
 21
3311.7320874971815
 31
0.0
  0
LINE
  5
B5
330
17
100
AcDbEntity
  8
slope_foil
100
AcDbLine
 10
4900.0
 20
3311.7320874971815
 30
0.0
 11
4900.0
 21
3313.037494786514
 31
0.0
  0
LINE
  5
B6
330
17
100
AcDbEntity
  8
slope_foil
100
AcDbLine
 10
4900.0
 20
3313.037494786514
 30
0.0
 11
2450.0
 21
5368.831591170849
 31
0.0
  0
LINE
  5
B7
330
17
100
AcDbEntity
  8
slope_foil
100
AcDbLine
 10
2450.0
 20
5368.831591170849
 30
0.0
 11
0.0
 21
3313.037494786514
 31
0.0
  0
LINE
  5
B8
330
17
100
AcDbEntity
  8
slope_foil
100
AcDbLine
 10
0.0
 20
3313.037494786514
 30
0.0
 11
0.0
 21
3311.7320874971815
 31
0.0
  0
LINE
  5
BA
330
17
100
AcDbEntity
  8
slope_nonius
100
AcDbLine
 10
939.4548395519532
 20
4100.028296872936
 30
0.0
 11
954.7757284143329
 21
4112.884049066667
 31
0.0
  0
LINE
  5
BB
330
17
100
AcDbEntity
  8
slope_nonius
100
AcDbLine
 10
954.7757284143329
 20
4112.884049066667
 30
0.0
 11
903.9955072490121
 21
4173.401560073166
 31
0.0
  0
LINE
  5
BC
330
17
100
AcDbEntity
  8
slope_nonius
100
AcDbLine
 10
903.9955072490121
 20
4173.401560073166
 30
0.0
 11
888.6746183866325
 21
4160.545807879435
 31
0.0
  0
LINE
  5
BD
330
17
100
AcDbEntity
  8
slope_nonius
100
AcDbLine
 10
888.6746183866325
 20
4160.545807879435
 30
0.0
 11
939.4548395519532
 21
4100.028296872936
 31
0.0
  0
LINE
  5
BE
330
17
100
AcDbEntity
  8
slope_nonius
100
AcDbLine
 10
1897.010393450676
 20
4903.5128089811105
 30
0.0
 11
1912.3312823130555
 21
4916.3685611748415
 31
0.0
  0
LINE
  5
BF
330
17
100
AcDbEntity
  8
slope_nonius
100
AcDbLine
 10
1912.3312823130555
 20
4916.3685611748415
 30
0.0
 11
1861.5510611477346
 21
4976.886072181341
 31
0.0
  0
LINE
  5
C0
330
17
100
AcDbEntity
  8
slope_nonius
100
AcDbLine
 10
1861.5510611477346
 20
4976.886072181341
 30
0.0
 11
1846.2301722853551
 21
4964.03031998761
 31
0.0
  0
LINE
  5
C1
330
17
100
AcDbEntity
  8
slope_nonius
100
AcDbLine
 10
1846.2301722853551
 20
4964.03031998761
 30
0.0
 11
1897.010393450676
 21
4903.5128089811105
 31
0.0
  0
LINE
  5
C2
330
17
100
AcDbEntity
  8
slope_nonius
100
AcDbLine
 10
3013.3344869419743
 20
4894.832423659065
 30
0.0
 11
3028.6553758043538
 21
4881.976671465334
 31
0.0
  0
LINE
  5
C3
330
17
100
AcDbEntity
  8
slope_nonius
100
AcDbLine
 10
3028.6553758043538
 20
4881.976671465334
 30
0.0
 11
3265.3647569944333
 21
5164.075926899364
 31
0.0
  0
LINE
  5
C4
330
17
100
AcDbEntity
  8
slope_nonius
100
AcDbLine
 10
3265.3647569944333
 20
5164.075926899364
 30
0.0
 11
3250.043868132054
 21
5176.931679093095
 31
0.0
  0
LINE
  5
C5
330
17
100
AcDbEntity
  8
slope_nonius
100
AcDbLine
 10
3250.043868132054
 20
5176.931679093095
 30
0.0
 11
3013.3344869419743
 21
4894.832423659065
 31
0.0
  0
LINE
  5
C6
330
17
100
AcDbEntity
  8
slope_nonius
100
AcDbLine
 10
3970.8900408406967
 20
4091.3479115508903
 30
0.0
 11
3986.210929703076
 21
4078.4921593571594
 31
0.0
  0
LINE
  5
C7
330
17
100
AcDbEntity
  8
slope_nonius
100
AcDbLine
 10
3986.210929703076
 20
4078.4921593571594
 30
0.0
 11
4222.920310893156
 21
4360.591414791189
 31
0.0
  0
LINE
  5
C8
330
17
100
AcDbEntity
  8
slope_nonius
100
AcDbLine
 10
4222.920310893156
 20
4360.591414791189
 30
0.0
 11
4207.599422030777
 21
4373.44716698492
 31
0.0
  0
LINE
  5
C9
330
17
100
AcDbEntity
  8
slope_nonius
100
AcDbLine
 10
4207.599422030777
 20
4373.44716698492
 30
0.0
 11
3970.8900408406967
 21
4091.3479115508903
 31
0.0
  0
LINE
  5
CB
330
17
100
AcDbEntity
  8
soffit_naturheld_140
100
AcDbLine
 10
4900.0
 20
2470.0
 30
0.0
 11
5350.0
 21
2470.0
 31
0.0
  0
LINE
  5
CC
330
17
100
AcDbEntity
  8
soffit_naturheld_140
100
AcDbLine
 10
5350.0
 20
2470.0
 30
0.0
 11
5350.0
 21
2514.0
 31
0.0
  0
LINE
  5
CD
330
17
100
AcDbEntity
  8
soffit_naturheld_140
100
AcDbLine
 10
5350.0
 20
2514.0
 30
0.0
 11
4944.0
 21
2514.0
 31
0.0
  0
LINE
  5
CE
330
17
100
AcDbEntity
  8
soffit_naturheld_140
100
AcDbLine
 10
4944.0
 20
2514.0
 30
0.0
 11
4944.0
 21
3223.248115796756
 31
0.0
  0
LINE
  5
CF
330
17
100
AcDbEntity
  8
soffit_naturheld_140
100
AcDbLine
 10
4944.0
 20
3223.248115796756
 30
0.0
 11
4900.0
 21
3260.1684995685564
 31
0.0
  0
LINE
  5
D0
330
17
100
AcDbEntity
  8
soffit_naturheld_140
100
AcDbLine
 10
4900.0
 20
3260.1684995685564
 30
0.0
 11
4900.0
 21
2470.0
 31
0.0
  0
LINE
  5
D1
330
17
100
AcDbEntity
  8
soffit_naturheld_140
100
AcDbLine
 10
4900.0
 20
2450.0
 30
0.0
 11
5350.0
 21
2450.0
 31
0.0
  0
LINE
  5
D2
330
17
100
AcDbEntity
  8
soffit_naturheld_140
100
AcDbLine
 10
5350.0
 20
2450.0
 30
0.0
 11
5350.0
 21
2470.0
 31
0.0
  0
LINE
  5
D3
330
17
100
AcDbEntity
  8
soffit_naturheld_140
100
AcDbLine
 10
5350.0
 20
2470.0
 30
0.0
 11
4900.0
 21
2470.0
 31
0.0
  0
LINE
  5
D4
330
17
100
AcDbEntity
  8
soffit_naturheld_140
100
AcDbLine
 10
4900.0
 20
3150.514287264645
 30
0.0
 11
4900.0
 21
2470.0
 31
0.0
  0
LINE
  5
D5
330
17
100
AcDbEntity
  8
soffit_naturheld_140
100
AcDbLine
 10
4900.0
 20
2470.0
 30
0.0
 11
5350.0
 21
2470.0
 31
0.0
  0
LINE
  5
D7
330
17
100
AcDbEntity
  8
soffit_mineral_wool
100
AcDbLine
 10
4867.427586169837
 20
3287.5
 30
0.0
 11
4944.0
 21
3223.248115796756
 31
0.0
  0
LINE
  5
D8
330
17
100
AcDbEntity
  8
soffit_mineral_wool
100
AcDbLine
 10
4944.0
 20
3223.248115796756
 30
0.0
 11
4944.0
 21
3287.5
 31
0.0
  0
LINE
  5
D9
330
17
100
AcDbEntity
  8
soffit_mineral_wool
100
AcDbLine
 10
4944.0
 20
3287.5
 30
0.0
 11
4867.427586169837
 21
3287.5
 31
0.0
  0
LINE
  5
DA
330
17
100
AcDbEntity
  8
soffit_mineral_wool
100
AcDbLine
 10
4944.0
 20
2514.0
 30
0.0
 11
5350.0
 21
2514.0
 31
0.0
  0
LINE
  5
DB
330
17
100
AcDbEntity
  8
soffit_mineral_wool
100
AcDbLine
 10
5350.0
 20
2514.0
 30
0.0
 11
5350.0
 21
2961.6058083755674
 31
0.0
  0
LINE
  5
DC
330
17
100
AcDbEntity
  8
soffit_mineral_wool
100
AcDbLine
 10
5350.0
 20
2961.6058083755674
 30
0.0
 11
4944.0
 21
2961.6058083755674
 31
0.0
  0
LINE
  5
DD
330
17
100
AcDbEntity
  8
soffit_mineral_wool
100
AcDbLine
 10
4944.0
 20
2961.6058083755674
 30
0.0
 11
4944.0
 21
2514.0
 31
0.0
  0
LINE
  5
DF
330
17
100
AcDbEntity
  8
soffit_battens
100
AcDbLine
 10
4944.0
 20
2517.0
 30
0.0
 11
4984.0
 21
2517.0
 31
0.0
  0
LINE
  5
E0
330
17
100
AcDbEntity
  8
soffit_battens
100
AcDbLine
 10
4984.0
 20
2517.0
 30
0.0
 11
4984.0
 21
3287.5
 31
0.0
  0
LINE
  5
E1
330
17
100
AcDbEntity
  8
soffit_battens
100
AcDbLine
 10
4984.0
 20
3287.5
 30
0.0
 11
4944.0
 21
3287.5
 31
0.0
  0
LINE
  5
E2
330
17
100
AcDbEntity
  8
soffit_battens
100
AcDbLine
 10
4944.0
 20
3287.5
 30
0.0
 11
4944.0
 21
2517.0
 31
0.0
  0
LINE
  5
E3
330
17
100
AcDbEntity
  8
soffit_battens
100
AcDbLine
 10
4984.0
 20
2517.0
 30
0.0
 11
5335.0
 21
2517.0
 31
0.0
  0
LINE
  5
E4
330
17
100
AcDbEntity
  8
soffit_battens
100
AcDbLine
 10
5335.0
 20
2517.0
 30
0.0
 11
5335.0
 21
2557.0
 31
0.0
  0
LINE
  5
E5
330
17
100
AcDbEntity
  8
soffit_battens
100
AcDbLine
 10
5335.0
 20
2557.0
 30
0.0
 11
4984.0
 21
2557.0
 31
0.0
  0
LINE
  5
E6
330
17
100
AcDbEntity
  8
soffit_battens
100
AcDbLine
 10
4984.0
 20
2557.0
 30
0.0
 11
4984.0
 21
2517.0
 31
0.0
  0
LINE
  5
E8
330
17
100
AcDbEntity
  8
soffit_gkf
100
AcDbLine
 10
4867.427586169837
 20
3287.5
 30
0.0
 11
5420.0
 21
3287.5
 31
0.0
  0
LINE
  5
E9
330
17
100
AcDbEntity
  8
soffit_gkf
100
AcDbLine
 10
5420.0
 20
3287.5
 30
0.0
 11
5420.0
 21
3300.0
 31
0.0
  0
LINE
  5
EA
330
17
100
AcDbEntity
  8
soffit_gkf
100
AcDbLine
 10
5420.0
 20
3300.0
 30
0.0
 11
4867.427586169837
 21
3300.0
 31
0.0
  0
LINE
  5
EB
330
17
100
AcDbEntity
  8
soffit_gkf
100
AcDbLine
 10
4867.427586169837
 20
3300.0
 30
0.0
 11
4867.427586169837
 21
3287.5
 31
0.0
  0
LINE
  5
ED
330
17
100
AcDbEntity
  8
soffit_cd
100
AcDbLine
 10
4944.0
 20
3300.0
 30
0.0
 11
5004.0
 21
3300.0
 31
0.0
  0
LINE
  5
EE
330
17
100
AcDbEntity
  8
soffit_cd
100
AcDbLine
 10
5004.0
 20
3300.0
 30
0.0
 11
5004.0
 21
3327.0
 31
0.0
  0
LINE
  5
EF
330
17
100
AcDbEntity
  8
soffit_cd
100
AcDbLine
 10
5004.0
 20
3327.0
 30
0.0
 11
4944.0
 21
3327.0
 31
0.0
  0
LINE
  5
F0
330
17
100
AcDbEntity
  8
soffit_cd
100
AcDbLine
 10
4944.0
 20
3327.0
 30
0.0
 11
4944.0
 21
3300.0
 31
0.0
  0
LINE
  5
F2
330
17
100
AcDbEntity
  8
soffit_nonius
100
AcDbLine
 10
4964.0
 20
3327.0
 30
0.0
 11
4984.0
 21
3327.0
 31
0.0
  0
LINE
  5
F3
330
17
100
AcDbEntity
  8
soffit_nonius
100
AcDbLine
 10
4984.0
 20
3327.0
 30
0.0
 11
4984.0
 21
3732.9715392557537
 31
0.0
  0
LINE
  5
F4
330
17
100
AcDbEntity
  8
soffit_nonius
100
AcDbLine
 10
4984.0
 20
3732.9715392557537
 30
0.0
 11
4964.0
 21
3732.9715392557537
 31
0.0
  0
LINE
  5
F5
330
17
100
AcDbEntity
  8
soffit_nonius
100
AcDbLine
 10
4964.0
 20
3732.9715392557537
 30
0.0
 11
4964.0
 21
3327.0
 31
0.0
  0
LINE
  5
F6
330
17
100
AcDbEntity
  8
soffit_nonius
100
AcDbLine
 10
4869.957677147243
 20
3303.0
 30
0.0
 11
4837.428596054765
 21
3330.295139947234
 31
0.0
  0
LINE
  5
F7
330
17
100
AcDbEntity
  8
soffit_nonius
100
AcDbLine
 10
4837.428596054765
 20
3330.295139947234
 30
0.0
 11
4838.714171274138
 21
3331.827228833472
 31
0.0
  0
LINE
  5
F8
330
17
100
AcDbEntity
  8
soffit_nonius
100
AcDbLine
 10
4838.714171274138
 20
3331.827228833472
 30
0.0
 11
4873.069124800963
 21
3303.0
 31
0.0
  0
LINE
  5
F9
330
17
100
AcDbEntity
  8
soffit_nonius
100
AcDbLine
 10
4873.069124800963
 20
3303.0
 30
0.0
 11
4869.957677147243
 21
3303.0
 31
0.0
  0
LINE
  5
FA
330
17
100
AcDbEntity
  8
soffit_nonius
100
AcDbLine
 10
4868.427586169837
 20
3301.0
 30
0.0
 11
4943.0
 21
3301.0
 31
0.0
  0
LINE
  5
FB
330
17
100
AcDbEntity
  8
soffit_nonius
100
AcDbLine
 10
4943.0
 20
3301.0
 30
0.0
 11
4943.0
 21
3303.0
 31
0.0
  0
LINE
  5
FC
330
17
100
AcDbEntity
  8
soffit_nonius
100
AcDbLine
 10
4943.0
 20
3303.0
 30
0.0
 11
4868.427586169837
 21
3303.0
 31
0.0
  0
LINE
  5
FD
330
17
100
AcDbEntity
  8
soffit_nonius
100
AcDbLine
 10
4868.427586169837
 20
3303.0
 30
0.0
 11
4868.427586169837
 21
3301.0
 31
0.0
  0
LINE
  5
FE
330
17
100
AcDbEntity
  8
soffit_nonius
100
AcDbLine
 10
4941.0
 20
3303.0
 30
0.0
 11
4943.0
 21
3303.0
 31
0.0
  0
LINE
  5
FF
330
17
100
AcDbEntity
  8
soffit_nonius
100
AcDbLine
 10
4943.0
 20
3303.0
 30
0.0
 11
4943.0
 21
3323.0
 31
0.0
  0
LINE
  5
100
330
17
100
AcDbEntity
  8
soffit_nonius
100
AcDbLine
 10
4943.0
 20
3323.0
 30
0.0
 11
4941.0
 21
3323.0
 31
0.0
  0
LINE
  5
101
330
17
100
AcDbEntity
  8
soffit_nonius
100
AcDbLine
 10
4941.0
 20
3323.0
 30
0.0
 11
4941.0
 21
3303.0
 31
0.0
  0
LINE
  5
102
330
17
100
AcDbEntity
  8
soffit_nonius
100
AcDbLine
 10
5365.0
 20
3284.5
 30
0.0
 11
5420.0
 21
3284.5
 31
0.0
  0
LINE
  5
103
330
17
100
AcDbEntity
  8
soffit_nonius
100
AcDbLine
 10
5420.0
 20
3284.5
 30
0.0
 11
5420.0
 21
3287.5
 31
0.0
  0
LINE
  5
104
330
17
100
AcDbEntity
  8
soffit_nonius
100
AcDbLine
 10
5420.0
 20
3287.5
 30
0.0
 11
5365.0
 21
3287.5
 31
0.0
  0
LINE
  5
105
330
17
100
AcDbEntity
  8
soffit_nonius
100
AcDbLine
 10
5365.0
 20
3287.5
 30
0.0
 11
5365.0
 21
3284.5
 31
0.0
  0
LINE
  5
106
330
17
100
AcDbEntity
  8
soffit_nonius
100
AcDbLine
 10
5417.0
 20
3232.5
 30
0.0
 11
5420.0
 21
3232.5
 31
0.0
  0
LINE
  5
107
330
17
100
AcDbEntity
  8
soffit_nonius
100
AcDbLine
 10
5420.0
 20
3232.5
 30
0.0
 11
5420.0
 21
3287.5
 31
0.0
  0
LINE
  5
108
330
17
100
AcDbEntity
  8
soffit_nonius
100
AcDbLine
 10
5420.0
 20
3287.5
 30
0.0
 11
5417.0
 21
3287.5
 31
0.0
  0
LINE
  5
109
330
17
100
AcDbEntity
  8
soffit_nonius
100
AcDbLine
 10
5417.0
 20
3287.5
 30
0.0
 11
5417.0
 21
3232.5
 31
0.0
  0
LINE
  5
10A
330
17
100
AcDbEntity
  8
soffit_nonius
100
AcDbLine
 10
4964.0
 20
3287.5
 30
0.0
 11
4984.0
 21
3287.5
 31
0.0
  0
LINE
  5
10B
330
17
100
AcDbEntity
  8
soffit_nonius
100
AcDbLine
 10
4984.0
 20
3287.5
 30
0.0
 11
4984.0
 21
3300.0
 31
0.0
  0
LINE
  5
10C
330
17
100
AcDbEntity
  8
soffit_nonius
100
AcDbLine
 10
4984.0
 20
3300.0
 30
0.0
 11
4964.0
 21
3300.0
 31
0.0
  0
LINE
  5
10D
330
17
100
AcDbEntity
  8
soffit_nonius
100
AcDbLine
 10
4964.0
 20
3300.0
 30
0.0
 11
4964.0
 21
3287.5
 31
0.0
  0
LINE
  5
10E
330
17
100
AcDbEntity
  8
soffit_nonius
100
AcDbLine
 10
5255.0
 20
2514.0
 30
0.0
 11
5332.0
 21
2514.0
 31
0.0
  0
LINE
  5
10F
330
17
100
AcDbEntity
  8
soffit_nonius
100
AcDbLine
 10
5332.0
 20
2514.0
 30
0.0
 11
5332.0
 21
2517.0
 31
0.0
  0
LINE
  5
110
330
17
100
AcDbEntity
  8
soffit_nonius
100
AcDbLine
 10
5332.0
 20
2517.0
 30
0.0
 11
5255.0
 21
2517.0
 31
0.0
  0
LINE
  5
111
330
17
100
AcDbEntity
  8
soffit_nonius
100
AcDbLine
 10
5255.0
 20
2517.0
 30
0.0
 11
5255.0
 21
2514.0
 31
0.0
  0
LINE
  5
112
330
17
100
AcDbEntity
  8
soffit_nonius
100
AcDbLine
 10
5332.0
 20
2517.0
 30
0.0
 11
5335.0
 21
2517.0
 31
0.0
  0
LINE
  5
113
330
17
100
AcDbEntity
  8
soffit_nonius
100
AcDbLine
 10
5335.0
 20
2517.0
 30
0.0
 11
5335.0
 21
2594.0
 31
0.0
  0
LINE
  5
114
330
17
100
AcDbEntity
  8
soffit_nonius
100
AcDbLine
 10
5335.0
 20
2594.0
 30
0.0
 11
5332.0
 21
2594.0
 31
0.0
  0
LINE
  5
115
330
17
100
AcDbEntity
  8
soffit_nonius
100
AcDbLine
 10
5332.0
 20
2594.0
 30
0.0
 11
5332.0
 21
2517.0
 31
0.0
  0
LINE
  5
117
330
17
100
AcDbEntity
  8
soffit_duct
100
AcDbLine
 10
5344.0
 20
3197.5
 30
0.0
 11
5341.274066103126
 21
3218.2055236082015
 31
0.0
  0
LINE
  5
118
330
17
100
AcDbEntity
  8
soffit_duct
100
AcDbLine
 10
5341.274066103126
 20
3218.2055236082015
 30
0.0
 11
5333.282032302755
 21
3237.5
 31
0.0
  0
LINE
  5
119
330
17
100
AcDbEntity
  8
soffit_duct
100
AcDbLine
 10
5333.282032302755
 20
3237.5
 30
0.0
 11
5320.568542494924
 21
3254.068542494924
 31
0.0
  0
LINE
  5
11A
330
17
100
AcDbEntity
  8
soffit_duct
100
AcDbLine
 10
5320.568542494924
 20
3254.068542494924
 30
0.0
 11
5304.0
 21
3266.782032302755
 31
0.0
  0
LINE
  5
11B
330
17
100
AcDbEntity
  8
soffit_duct
100
AcDbLine
 10
5304.0
 20
3266.782032302755
 30
0.0
 11
5284.7055236082015
 21
3274.7740661031253
 31
0.0
  0
LINE
  5
11C
330
17
100
AcDbEntity
  8
soffit_duct
100
AcDbLine
 10
5284.7055236082015
 20
3274.7740661031253
 30
0.0
 11
5264.0
 21
3277.5
 31
0.0
  0
LINE
  5
11D
330
17
100
AcDbEntity
  8
soffit_duct
100
AcDbLine
 10
5264.0
 20
3277.5
 30
0.0
 11
5243.2944763917985
 21
3274.7740661031253
 31
0.0
  0
LINE
  5
11E
330
17
100
AcDbEntity
  8
soffit_duct
100
AcDbLine
 10
5243.2944763917985
 20
3274.7740661031253
 30
0.0
 11
5224.0
 21
3266.782032302755
 31
0.0
  0
LINE
  5
11F
330
17
100
AcDbEntity
  8
soffit_duct
100
AcDbLine
 10
5224.0
 20
3266.782032302755
 30
0.0
 11
5207.431457505077
 21
3254.068542494924
 31
0.0
  0
LINE
  5
120
330
17
100
AcDbEntity
  8
soffit_duct
100
AcDbLine
 10
5207.431457505077
 20
3254.068542494924
 30
0.0
 11
5194.717967697245
 21
3237.5
 31
0.0
  0
LINE
  5
121
330
17
100
AcDbEntity
  8
soffit_duct
100
AcDbLine
 10
5194.717967697245
 20
3237.5
 30
0.0
 11
5186.725933896874
 21
3218.2055236082015
 31
0.0
  0
LINE
  5
122
330
17
100
AcDbEntity
  8
soffit_duct
100
AcDbLine
 10
5186.725933896874
 20
3218.2055236082015
 30
0.0
 11
5184.0
 21
3197.5
 31
0.0
  0
LINE
  5
123
330
17
100
AcDbEntity
  8
soffit_duct
100
AcDbLine
 10
5184.0
 20
3197.5
 30
0.0
 11
5186.725933896874
 21
3176.7944763917985
 31
0.0
  0
LINE
  5
124
330
17
100
AcDbEntity
  8
soffit_duct
100
AcDbLine
 10
5186.725933896874
 20
3176.7944763917985
 30
0.0
 11
5194.717967697245
 21
3157.5
 31
0.0
  0
LINE
  5
125
330
17
100
AcDbEntity
  8
soffit_duct
100
AcDbLine
 10
5194.717967697245
 20
3157.5
 30
0.0
 11
5207.431457505076
 21
3140.931457505076
 31
0.0
  0
LINE
  5
126
330
17
100
AcDbEntity
  8
soffit_duct
100
AcDbLine
 10
5207.431457505076
 20
3140.931457505076
 30
0.0
 11
5224.0
 21
3128.217967697245
 31
0.0
  0
LINE
  5
127
330
17
100
AcDbEntity
  8
soffit_duct
100
AcDbLine
 10
5224.0
 20
3128.217967697245
 30
0.0
 11
5243.2944763917985
 21
3120.2259338968747
 31
0.0
  0
LINE
  5
128
330
17
100
AcDbEntity
  8
soffit_duct
100
AcDbLine
 10
5243.2944763917985
 20
3120.2259338968747
 30
0.0
 11
5264.0
 21
3117.5
 31
0.0
  0
LINE
  5
129
330
17
100
AcDbEntity
  8
soffit_duct
100
AcDbLine
 10
5264.0
 20
3117.5
 30
0.0
 11
5284.7055236082015
 21
3120.2259338968747
 31
0.0
  0
LINE
  5
12A
330
17
100
AcDbEntity
  8
soffit_duct
100
AcDbLine
 10
5284.7055236082015
 20
3120.2259338968747
 30
0.0
 11
5304.0
 21
3128.217967697245
 31
0.0
  0
LINE
  5
12B
330
17
100
AcDbEntity
  8
soffit_duct
100
AcDbLine
 10
5304.0
 20
3128.217967697245
 30
0.0
 11
5320.568542494923
 21
3140.931457505076
 31
0.0
  0
LINE
  5
12C
330
17
100
AcDbEntity
  8
soffit_duct
100
AcDbLine
 10
5320.568542494923
 20
3140.931457505076
 30
0.0
 11
5333.282032302755
 21
3157.5
 31
0.0
  0
LINE
  5
12D
330
17
100
AcDbEntity
  8
soffit_duct
100
AcDbLine
 10
5333.282032302755
 20
3157.5
 30
0.0
 11
5341.274066103126
 21
3176.794476391798
 31
0.0
  0
LINE
  5
12E
330
17
100
AcDbEntity
  8
soffit_duct
100
AcDbLine
 10
5341.274066103126
 20
3176.794476391798
 30
0.0
 11
5344.0
 21
3197.5
 31
0.0
  0
LINE
  5
12F
330
17
100
AcDbEntity
  8
soffit_duct
100
AcDbLine
 10
5179.0
 20
3197.5
 30
0.0
 11
5176.274066103126
 21
3218.2055236082015
 31
0.0
  0
LINE
  5
130
330
17
100
AcDbEntity
  8
soffit_duct
100
AcDbLine
 10
5176.274066103126
 20
3218.2055236082015
 30
0.0
 11
5168.282032302755
 21
3237.5
 31
0.0
  0
LINE
  5
131
330
17
100
AcDbEntity
  8
soffit_duct
100
AcDbLine
 10
5168.282032302755
 20
3237.5
 30
0.0
 11
5155.568542494924
 21
3254.068542494924
 31
0.0
  0
LINE
  5
132
330
17
100
AcDbEntity
  8
soffit_duct
100
AcDbLine
 10
5155.568542494924
 20
3254.068542494924
 30
0.0
 11
5139.0
 21
3266.782032302755
 31
0.0
  0
LINE
  5
133
330
17
100
AcDbEntity
  8
soffit_duct
100
AcDbLine
 10
5139.0
 20
3266.782032302755
 30
0.0
 11
5119.7055236082015
 21
3274.7740661031253
 31
0.0
  0
LINE
  5
134
330
17
100
AcDbEntity
  8
soffit_duct
100
AcDbLine
 10
5119.7055236082015
 20
3274.7740661031253
 30
0.0
 11
5099.0
 21
3277.5
 31
0.0
  0
LINE
  5
135
330
17
100
AcDbEntity
  8
soffit_duct
100
AcDbLine
 10
5099.0
 20
3277.5
 30
0.0
 11
5078.2944763917985
 21
3274.7740661031253
 31
0.0
  0
LINE
  5
136
330
17
100
AcDbEntity
  8
soffit_duct
100
AcDbLine
 10
5078.2944763917985
 20
3274.7740661031253
 30
0.0
 11
5059.0
 21
3266.782032302755
 31
0.0
  0
LINE
  5
137
330
17
100
AcDbEntity
  8
soffit_duct
100
AcDbLine
 10
5059.0
 20
3266.782032302755
 30
0.0
 11
5042.431457505077
 21
3254.068542494924
 31
0.0
  0
LINE
  5
138
330
17
100
AcDbEntity
  8
soffit_duct
100
AcDbLine
 10
5042.431457505077
 20
3254.068542494924
 30
0.0
 11
5029.717967697245
 21
3237.5
 31
0.0
  0
LINE
  5
139
330
17
100
AcDbEntity
  8
soffit_duct
100
AcDbLine
 10
5029.717967697245
 20
3237.5
 30
0.0
 11
5021.725933896874
 21
3218.2055236082015
 31
0.0
  0
LINE
  5
13A
330
17
100
AcDbEntity
  8
soffit_duct
100
AcDbLine
 10
5021.725933896874
 20
3218.2055236082015
 30
0.0
 11
5019.0
 21
3197.5
 31
0.0
  0
LINE
  5
13B
330
17
100
AcDbEntity
  8
soffit_duct
100
AcDbLine
 10
5019.0
 20
3197.5
 30
0.0
 11
5021.725933896874
 21
3176.7944763917985
 31
0.0
  0
LINE
  5
13C
330
17
100
AcDbEntity
  8
soffit_duct
100
AcDbLine
 10
5021.725933896874
 20
3176.7944763917985
 30
0.0
 11
5029.717967697245
 21
3157.5
 31
0.0
  0
LINE
  5
13D
330
17
100
AcDbEntity
  8
soffit_duct
100
AcDbLine
 10
5029.717967697245
 20
3157.5
 30
0.0
 11
5042.431457505076
 21
3140.931457505076
 31
0.0
  0
LINE
  5
13E
330
17
100
AcDbEntity
  8
soffit_duct
100
AcDbLine
 10
5042.431457505076
 20
3140.931457505076
 30
0.0
 11
5059.0
 21
3128.217967697245
 31
0.0
  0
LINE
  5
13F
330
17
100
AcDbEntity
  8
soffit_duct
100
AcDbLine
 10
5059.0
 20
3128.217967697245
 30
0.0
 11
5078.2944763917985
 21
3120.2259338968747
 31
0.0
  0
LINE
  5
140
330
17
100
AcDbEntity
  8
soffit_duct
100
AcDbLine
 10
5078.2944763917985
 20
3120.2259338968747
 30
0.0
 11
5099.0
 21
3117.5
 31
0.0
  0
LINE
  5
141
330
17
100
AcDbEntity
  8
soffit_duct
100
AcDbLine
 10
5099.0
 20
3117.5
 30
0.0
 11
5119.7055236082015
 21
3120.2259338968747
 31
0.0
  0
LINE
  5
142
330
17
100
AcDbEntity
  8
soffit_duct
100
AcDbLine
 10
5119.7055236082015
 20
3120.2259338968747
 30
0.0
 11
5139.0
 21
3128.217967697245
 31
0.0
  0
LINE
  5
143
330
17
100
AcDbEntity
  8
soffit_duct
100
AcDbLine
 10
5139.0
 20
3128.217967697245
 30
0.0
 11
5155.568542494923
 21
3140.931457505076
 31
0.0
  0
LINE
  5
144
330
17
100
AcDbEntity
  8
soffit_duct
100
AcDbLine
 10
5155.568542494923
 20
3140.931457505076
 30
0.0
 11
5168.282032302755
 21
3157.5
 31
0.0
  0
LINE
  5
145
330
17
100
AcDbEntity
  8
soffit_duct
100
AcDbLine
 10
5168.282032302755
 20
3157.5
 30
0.0
 11
5176.274066103126
 21
3176.794476391798
 31
0.0
  0
LINE
  5
146
330
17
100
AcDbEntity
  8
soffit_duct
100
AcDbLine
 10
5176.274066103126
 20
3176.794476391798
 30
0.0
 11
5179.0
 21
3197.5
 31
0.0
  0
LINE
  5
147
330
17
100
AcDbEntity
  8
soffit_duct
100
AcDbLine
 10
5261.5
 20
3054.6058083755674
 30
0.0
 11
5258.774066103126
 21
3075.311331983769
 31
0.0
  0
LINE
  5
148
330
17
100
AcDbEntity
  8
soffit_duct
100
AcDbLine
 10
5258.774066103126
 20
3075.311331983769
 30
0.0
 11
5250.782032302755
 21
3094.6058083755674
 31
0.0
  0
LINE
  5
149
330
17
100
AcDbEntity
  8
soffit_duct
100
AcDbLine
 10
5250.782032302755
 20
3094.6058083755674
 30
0.0
 11
5238.068542494924
 21
3111.1743508704913
 31
0.0
  0
LINE
  5
14A
330
17
100
AcDbEntity
  8
soffit_duct
100
AcDbLine
 10
5238.068542494924
 20
3111.1743508704913
 30
0.0
 11
5221.5
 21
3123.8878406783224
 31
0.0
  0
LINE
  5
14B
330
17
100
AcDbEntity
  8
soffit_duct
100
AcDbLine
 10
5221.5
 20
3123.8878406783224
 30
0.0
 11
5202.2055236082015
 21
3131.8798744786927
 31
0.0
  0
LINE
  5
14C
330
17
100
AcDbEntity
  8
soffit_duct
100
AcDbLine
 10
5202.2055236082015
 20
3131.8798744786927
 30
0.0
 11
5181.5
 21
3134.6058083755674
 31
0.0
  0
LINE
  5
14D
330
17
100
AcDbEntity
  8
soffit_duct
100
AcDbLine
 10
5181.5
 20
3134.6058083755674
 30
0.0
 11
5160.7944763917985
 21
3131.8798744786927
 31
0.0
  0
LINE
  5
14E
330
17
100
AcDbEntity
  8
soffit_duct
100
AcDbLine
 10
5160.7944763917985
 20
3131.8798744786927
 30
0.0
 11
5141.5
 21
3123.8878406783224
 31
0.0
  0
LINE
  5
14F
330
17
100
AcDbEntity
  8
soffit_duct
100
AcDbLine
 10
5141.5
 20
3123.8878406783224
 30
0.0
 11
5124.931457505077
 21
3111.1743508704913
 31
0.0
  0
LINE
  5
150
330
17
100
AcDbEntity
  8
soffit_duct
100
AcDbLine
 10
5124.931457505077
 20
3111.1743508704913
 30
0.0
 11
5112.217967697245
 21
3094.6058083755674
 31
0.0
  0
LINE
  5
151
330
17
100
AcDbEntity
  8
soffit_duct
100
AcDbLine
 10
5112.217967697245
 20
3094.6058083755674
 30
0.0
 11
5104.225933896874
 21
3075.311331983769
 31
0.0
  0
LINE
  5
152
330
17
100
AcDbEntity
  8
soffit_duct
100
AcDbLine
 10
5104.225933896874
 20
3075.311331983769
 30
0.0
 11
5101.5
 21
3054.6058083755674
 31
0.0
  0
LINE
  5
153
330
17
100
AcDbEntity
  8
soffit_duct
100
AcDbLine
 10
5101.5
 20
3054.6058083755674
 30
0.0
 11
5104.225933896874
 21
3033.900284767366
 31
0.0
  0
LINE
  5
154
330
17
100
AcDbEntity
  8
soffit_duct
100
AcDbLine
 10
5104.225933896874
 20
3033.900284767366
 30
0.0
 11
5112.217967697245
 21
3014.6058083755674
 31
0.0
  0
LINE
  5
155
330
17
100
AcDbEntity
  8
soffit_duct
100
AcDbLine
 10
5112.217967697245
 20
3014.6058083755674
 30
0.0
 11
5124.931457505076
 21
2998.0372658806436
 31
0.0
  0
LINE
  5
156
330
17
100
AcDbEntity
  8
soffit_duct
100
AcDbLine
 10
5124.931457505076
 20
2998.0372658806436
 30
0.0
 11
5141.5
 21
2985.3237760728125
 31
0.0
  0
LINE
  5
157
330
17
100
AcDbEntity
  8
soffit_duct
100
AcDbLine
 10
5141.5
 20
2985.3237760728125
 30
0.0
 11
5160.7944763917985
 21
2977.331742272442
 31
0.0
  0
LINE
  5
158
330
17
100
AcDbEntity
  8
soffit_duct
100
AcDbLine
 10
5160.7944763917985
 20
2977.331742272442
 30
0.0
 11
5181.5
 21
2974.6058083755674
 31
0.0
  0
LINE
  5
159
330
17
100
AcDbEntity
  8
soffit_duct
100
AcDbLine
 10
5181.5
 20
2974.6058083755674
 30
0.0
 11
5202.2055236082015
 21
2977.331742272442
 31
0.0
  0
LINE
  5
15A
330
17
100
AcDbEntity
  8
soffit_duct
100
AcDbLine
 10
5202.2055236082015
 20
2977.331742272442
 30
0.0
 11
5221.5
 21
2985.3237760728125
 31
0.0
  0
LINE
  5
15B
330
17
100
AcDbEntity
  8
soffit_duct
100
AcDbLine
 10
5221.5
 20
2985.3237760728125
 30
0.0
 11
5238.068542494923
 21
2998.0372658806436
 31
0.0
  0
LINE
  5
15C
330
17
100
AcDbEntity
  8
soffit_duct
100
AcDbLine
 10
5238.068542494923
 20
2998.0372658806436
 30
0.0
 11
5250.782032302755
 21
3014.6058083755674
 31
0.0
  0
LINE
  5
15D
330
17
100
AcDbEntity
  8
soffit_duct
100
AcDbLine
 10
5250.782032302755
 20
3014.6058083755674
 30
0.0
 11
5258.774066103126
 21
3033.9002847673655
 31
0.0
  0
LINE
  5
15E
330
17
100
AcDbEntity
  8
soffit_duct
100
AcDbLine
 10
5258.774066103126
 20
3033.9002847673655
 30
0.0
 11
5261.5
 21
3054.6058083755674
 31
0.0
  0
ENDSEC
  0
SECTION
  2
OBJECTS
  0
DICTIONARY
  5
A
330
0
100
AcDbDictionary
281
1
  3
ACAD_COLOR
350
B
  3
ACAD_GROUP
350
C
  3
ACAD_LAYOUT
350
D
  3
ACAD_MATERIAL
350
E
  3
ACAD_MLEADERSTYLE
350
F
  3
ACAD_MLINESTYLE
350
10
  3
ACAD_PLOTSETTINGS
350
11
  3
ACAD_PLOTSTYLENAME
350
12
  3
ACAD_SCALELIST
350
14
  3
ACAD_TABLESTYLE
350
15
  3
ACAD_VISUALSTYLE
350
16
  3
EZDXF_META
350
2D
  0
DICTIONARY
  5
B
330
A
100
AcDbDictionary
281
1
  0
DICTIONARY
  5
C
330
A
100
AcDbDictionary
281
1
  0
DICTIONARY
  5
D
330
A
100
AcDbDictionary
281
1
  3
Model
350
1A
  3
Layout1
350
1E
  0
DICTIONARY
  5
E
330
A
100
AcDbDictionary
281
1
  3
ByBlock
350
1F
  3
ByLayer
350
20
  3
Global
350
21
  0
DICTIONARY
  5
F
330
A
100
AcDbDictionary
281
1
  3
Standard
350
2C
  0
DICTIONARY
  5
10
330
A
100
AcDbDictionary
281
1
  3
Standard
350
22
  0
DICTIONARY
  5
11
330
A
100
AcDbDictionary
281
1
  0
ACDBDICTIONARYWDFLT
  5
12
330
A
100
AcDbDictionary
281
1
  3
Normal
350
13
100
AcDbDictionaryWithDefault
340
13
  0
ACDBPLACEHOLDER
  5
13
330
12
  0
DICTIONARY
  5
14
330
A
100
AcDbDictionary
281
1
  0
DICTIONARY
  5
15
330
A
100
AcDbDictionary
281
1
  0
DICTIONARY
  5
16
330
A
100
AcDbDictionary
281
1
  0
LAYOUT
  5
1A
330
D
100
AcDbPlotSettings
  1

  4
A3
  6

 40
7.5
 41
20.0
 42
7.5
 43
20.0
 44
420.0
 45
297.0
 46
0.0
 47
0.0
 48
0.0
 49
0.0
140
0.0
141
0.0
142
1.0
143
1.0
 70
1024
 72
1
 73
0
 74
5
  7

 75
16
 76
0
 77
2
 78
300
147
1.0
148
0.0
149
0.0
100
AcDbLayout
  1
Model
 70
1
 71
0
 10
0.0
 20
0.0
 11
420.0
 21
297.0
 12
0.0
 22
0.0
 32
0.0
 14
1e+20
 24
1e+20
 34
1e+20
 15
-1e+20
 25
-1e+20
 35
-1e+20
146
0.0
 13
0.0
 23
0.0
 33
0.0
 16
1.0
 26
0.0
 36
0.0
 17
0.0
 27
1.0
 37
0.0
 76
1
330
17
  0
LAYOUT
  5
1E
330
D
100
AcDbPlotSettings
  1

  4
A3
  6

 40
7.5
 41
20.0
 42
7.5
 43
20.0
 44
420.0
 45
297.0
 46
0.0
 47
0.0
 48
0.0
 49
0.0
140
0.0
141
0.0
142
1.0
143
1.0
 70
0
 72
1
 73
0
 74
5
  7

 75
16
 76
0
 77
2
 78
300
147
1.0
148
0.0
149
0.0
100
AcDbLayout
  1
Layout1
 70
1
 71
1
 10
0.0
 20
0.0
 11
420.0
 21
297.0
 12
0.0
 22
0.0
 32
0.0
 14
1e+20
 24
1e+20
 34
1e+20
 15
-1e+20
 25
-1e+20
 35
-1e+20
146
0.0
 13
0.0
 23
0.0
 33
0.0
 16
1.0
 26
0.0
 36
0.0
 17
0.0
 27
1.0
 37
0.0
 76
1
330
1B
  0
MATERIAL
  5
1F
102
{ACAD_REACTORS
330
E
102
}
330
E
100
AcDbMaterial
  1
ByBlock
  2

 70
0
 40
1.0
 71
1
 41
1.0
 91
-1023410177
 42
1.0
 72
1
  3

 73
1
 74
1
 75
1
 44
0.5
 73
0
 45
1.0
 46
1.0
 77
1
  4

 78
1
 79
1
170
1
 48
1.0
171
1
  6

172
1
173
1
174
1
140
1.0
141
1.0
175
1
  7

176
1
177
1
178
1
143
1.0
179
1
  8

270
1
271
1
272
1
145
1.0
146
1.0
273
1
  9

274
1
275
1
276
1
 42
1.0
 72
1
  3

 73
1
 74
1
 75
1
 94
63
  0
MATERIAL
  5
20
102
{ACAD_REACTORS
330
E
102
}
330
E
100
AcDbMaterial
  1
ByLayer
  2

 70
0
 40
1.0
 71
1
 41
1.0
 91
-1023410177
 42
1.0
 72
1
  3

 73
1
 74
1
 75
1
 44
0.5
 73
0
 45
1.0
 46
1.0
 77
1
  4

 78
1
 79
1
170
1
 48
1.0
171
1
  6

172
1
173
1
174
1
140
1.0
141
1.0
175
1
  7

176
1
177
1
178
1
143
1.0
179
1
  8

270
1
271
1
272
1
145
1.0
146
1.0
273
1
  9

274
1
275
1
276
1
 42
1.0
 72
1
  3

 73
1
 74
1
 75
1
 94
63
  0
MATERIAL
  5
21
102
{ACAD_REACTORS
330
E
102
}
330
E
100
AcDbMaterial
  1
Global
  2

 70
0
 40
1.0
 71
1
 41
1.0
 91
-1023410177
 42
1.0
 72
1
  3

 73
1
 74
1
 75
1
 44
0.5
 73
0
 45
1.0
 46
1.0
 77
1
  4

 78
1
 79
1
170
1
 48
1.0
171
1
  6

172
1
173
1
174
1
140
1.0
141
1.0
175
1
  7

176
1
177
1
178
1
143
1.0
179
1
  8

270
1
271
1
272
1
145
1.0
146
1.0
273
1
  9

274
1
275
1
276
1
 42
1.0
 72
1
  3

 73
1
 74
1
 75
1
 94
63
  0
MLINESTYLE
  5
22
102
{ACAD_REACTORS
330
10
102
}
330
10
100
AcDbMlineStyle
  2
Standard
 70
0
  3

 62
256
 51
90.0
 52
90.0
 71
2
 49
0.5
 62
256
  6
BYLAYER
 49
-0.5
 62
256
  6
BYLAYER
  0
MLEADERSTYLE
  5
2C
102
{ACAD_REACTORS
330
F
102
}
330
F
100
AcDbMLeaderStyle
179
2
170
2
171
1
172
0
 90
2
 40
0.0
 41
0.0
173
1
 91
-1056964608
 92
-2
290
1
 42
2.0
291
1
 43
8.0
  3
Standard
 44
4.0
300

342
29
174
1
175
1
176
0
178
1
 93
-1056964608
 45
4.0
292
0
297
0
 46
4.0
 94
-1056964608
 47
1.0
 49
1.0
140
1.0
294
1
141
0.0
177
0
142
1.0
295
0
296
0
143
3.75
271
0
272
9
273
9
  0
DICTIONARY
  5
2D
330
A
100
AcDbDictionary
280
1
281
1
  3
CREATED_BY_EZDXF
350
2E
  3
WRITTEN_BY_EZDXF
350
162
  0
DICTIONARYVAR
  5
2E
330
2D
100
DictionaryVariables
280
0
  1
1.4.4 @ 2026-10-01T12:08:07.349255+00:00
  0
DICTIONARYVAR
  5
162
330
2D
100
DictionaryVariables
280
0
  1
1.4.4 @ 2026-10-01T12:08:07.369016+00:00
  0
ENDSEC
  0
EOF
